<svg width="80" height="112" viewBox="0 0 80 112" fill="none" xmlns="http://www.w3.org/2000/svg">
<g clip-path="url(#clip0_82_458)">
<path d="M25.3481 12.1485C26.3279 12.1485 26.6727 12.8234 26.8541 13.9362C27.7251 12.4586 27.4892 10.9629 28.2694 9.81368C28.7775 9.26645 29.721 8.68273 29.6847 8.19022C29.6121 7.15048 30.1746 7.20521 30.7734 7.07752C31.6988 6.85863 32.6423 6.98632 33.5858 6.74918C34.0939 6.6215 35.2007 6.84039 34.8378 8.02606C34.8197 8.26319 34.7471 8.50032 34.7834 8.70097C34.9285 9.33941 34.8378 10.2697 35.6362 10.4156C36.5071 10.5798 36.3438 9.59478 36.6341 9.10228C36.9789 8.51856 37.3962 7.97133 37.7772 7.40586C39.0292 6.12899 40.4082 5.36286 42.2227 6.16547C42.64 6.34788 42.8215 6.16547 43.0029 5.80065C43.892 3.97654 45.3617 3.68469 47.1399 4.35961C47.9746 4.6697 48.9181 4.96156 49.6076 4.25016C50.787 3.02801 51.041 4.15895 51.5128 4.85211C52.3656 5.14397 51.3132 8.48208 53.7809 6.29316C53.8716 6.20195 54.2889 6.47557 54.5611 6.60325C55.2506 6.94983 55.6135 6.54853 55.9582 6.03778C55.5046 5.6912 54.8877 6.27492 54.5067 5.70944C55.432 4.1772 56.5026 4.70619 57.4643 5.6C58.2263 6.29316 58.8614 7.15049 59.9864 7.25993C60.44 7.64299 60.821 8.19023 61.5287 7.77068L61.5105 7.75244C61.5831 7.95309 61.6012 8.19022 61.7283 8.35439C62.1274 8.90163 63.3613 8.73746 63.071 9.8684C62.8532 10.671 62.3815 11.3642 61.6557 11.7472C60.8392 12.1668 60.8573 12.8417 60.8573 13.5713C60.2585 14.0638 59.2969 14.3375 59.2969 15.2677C59.2969 17.2378 58.4804 15.4319 58.0812 15.5596C57.809 16.0339 57.809 16.5446 57.9179 17.0736C57.6638 17.1101 57.6276 17.2743 57.6276 17.4749C56.4663 17.9492 56.8655 18.8065 57.1195 19.6274C56.9743 19.6821 56.7748 19.7003 57.0106 19.901L57.1558 19.6456C57.936 19.0436 58.2082 18.3322 57.6094 17.4384C57.7183 17.3107 57.8271 17.1831 57.936 17.0554C58.6074 16.8547 59.6235 17.1466 59.7686 16.1251C59.8956 15.1765 60.4581 15.213 61.1476 15.1218C62.5811 14.9394 63.325 13.5348 62.7444 12.2215C62.9984 11.1088 63.6334 10.8352 64.6677 11.273C66.0648 11.8567 67.4801 12.3857 69.4216 13.1335C67.6979 13.2795 67.5527 13.7355 68.1152 14.8117C68.4599 15.4866 69.222 16.0521 69.0043 17.0371C68.7684 18.0769 69.2583 18.8065 70.2563 19.2625C70.728 19.4814 71.5083 19.6638 71.3631 20.43C71.2361 21.1049 70.7462 21.6156 70.1111 21.944C69.5849 22.2176 69.5849 22.2176 69.8752 25.355C69.9115 25.7199 69.966 26.0482 70.3651 26.1576C70.474 26.1941 70.601 26.1576 70.7099 26.1576C73.9578 26.2124 73.8852 26.1941 73.3046 29.4958C73.1776 30.2436 72.6514 30.6449 72.4518 31.2651C72.3248 31.4293 72.1978 31.5935 72.0889 31.7576C72.0889 31.7576 72.1615 31.8489 72.2159 31.8489C72.5062 31.8671 72.5969 31.6847 72.6151 31.4475C73.5586 31.3563 73.1957 31.9948 73.0506 32.3414C72.1252 34.5668 71.9256 36.9563 71.3994 39.2547C71.1454 40.3492 71.1091 41.1153 72.4881 41.4619C73.3409 41.6625 74.3933 41.6261 74.9557 42.5563C74.8832 42.7935 74.8287 43.0489 74.7562 43.286C74.3933 44.2528 73.9578 45.2013 73.5768 46.1681C73.1594 47.2443 72.1615 48.1928 72.1978 49.2326C72.234 50.4547 71.8349 51.4215 71.4901 52.516C70.9458 54.2853 69.7301 56.0182 70.474 58.043C70.0385 58.0795 69.4035 57.9883 69.5486 58.6814C69.6938 59.3746 69.3672 60.2502 70.0748 60.7427C70.4559 60.998 70.7099 60.3961 71.0728 60.2684C70.9276 61.7642 70.8913 63.4788 70.0022 64.5733C69.1313 65.6495 69.5486 66.7075 69.7119 67.4371C70.093 69.0788 70.0567 70.4834 69.222 71.9062C70.6555 71.4866 71.1454 73.3837 72.4518 73.2743C71.6534 74.7153 72.8691 76.5941 71.7441 77.8345C70.2381 79.4945 71.0546 80.1146 72.5606 80.8078C73.1957 81.0997 73.7945 81.4463 74.5021 81.5739C75.8267 82.5042 74.9557 83.3068 74.3751 84.1277C73.2501 83.6169 73.7582 85.3498 72.7965 85.2769C72.4699 85.2586 72.5788 87.8488 72.9598 88.1407C74.1755 89.0163 74.6291 92.0625 73.3953 92.6462C71.7986 93.4124 72.5244 94.5433 72.3611 95.5648C71.98 96.6045 71.2179 97.2247 70.2018 97.5531C69.3853 97.3889 68.6232 96.9511 67.7523 97.1153C67.4801 96.4039 66.1737 96.0391 66.591 95.3277C67.2987 94.1055 66.3007 93.4671 65.9741 92.701C65.7201 92.099 64.8854 91.5883 64.0326 92.2997C62.5811 93.5218 61.0206 93.3759 59.5327 91.9531C59.3694 91.2782 59.188 90.6215 59.0247 90.0013C57.2465 89.9101 56.2486 91.2417 55.7768 92.4273C55.2325 93.7772 53.672 94.9993 54.6155 96.787C54.1256 96.4769 54.0712 96.8417 53.9986 97.1883C53.8535 97.5896 54.5248 98.4834 53.2547 98.228C52.7285 98.1186 52.2023 98.7023 51.9301 99.2313C51.168 100.745 50.1882 102.004 48.4282 102.588C48.8637 102.168 49.2084 102.296 49.4261 102.661C49.662 103.062 49.1721 103.062 48.9907 103.208C47.7387 104.211 46.4323 104.375 45.0533 103.463C44.1097 102.588 43.9283 101.475 44.0009 100.271C44.0372 99.7238 43.8194 99.286 43.2751 99.286C42.8396 99.286 42.9122 99.7602 42.9303 100.125C43.1118 102.952 41.9505 104.138 39.2107 104.211C38.3942 104.229 38.2127 103.792 38.0313 103.244C37.9043 102.861 38.7026 102.223 37.6502 102.095C36.8337 102.004 36.9244 102.606 36.7067 103.062C36.1624 104.302 34.9104 105.032 33.858 105.16C32.8782 105.287 31.5718 104.576 31.3722 103.044C31.1726 104.594 29.9387 105.415 29.1404 106.528C28.6867 107.841 27.5255 107.841 26.7453 107.367C25.3481 106.491 24.332 106.637 23.0982 107.659C21.8825 108.68 21.1386 107.111 20.1769 106.747C19.4511 106.473 19.814 105.707 20.1769 104.959C18.5076 106.838 17.2374 105.36 16.058 104.612C15.0964 103.992 15.6589 102.898 15.8222 101.986C15.8222 101.001 15.677 99.8697 17.437 100.764C17.0016 100.052 17.0923 99.1765 16.1125 98.9212C16.0217 100.38 15.423 100.928 14.044 100.235C13.6629 100.034 13.2275 99.7238 12.7376 99.9974H12.7557C12.7738 99.7602 12.6105 99.7238 12.411 99.7055C12.2476 99.5231 12.1025 99.3225 11.9392 99.1401C12.5198 98.5563 12.0662 97.7355 12.3928 97.0423C12.5924 96.6228 12.0481 96.0756 11.5763 96.3309C10.7779 96.8052 9.9977 96.2032 9.23563 96.4586C9.10861 96.4586 8.9816 96.4404 8.85459 96.4221C8.70943 96.3674 8.54613 96.3127 8.40097 96.2397C8.01993 96.2215 7.98364 95.9479 8.00179 95.656C8.1288 94.8899 7.23971 94.4156 7.42116 93.613C8.52798 92.4456 8.31025 90.2932 10.4332 89.8736C8.87273 89.8918 7.4393 89.527 6.04216 90.0013C5.29823 89.8918 5.82442 88.7427 5.09863 88.7427C3.77407 88.7427 4.10068 87.7394 4.20954 87.1375C4.39099 86.0795 4.55429 84.9668 5.33452 84.1277C6.00587 83.0879 7.09455 82.0117 5.0442 81.2638C3.01199 79.7681 3.91923 77.9622 4.48171 76.1746C4.57244 76.0834 4.68131 75.9922 4.77203 75.9192L4.8809 75.8645L4.98977 75.8827C5.49782 75.9557 5.62483 75.5361 5.91515 75.2443C6.38691 74.7518 6.96754 74.387 7.49374 73.9309C7.82034 73.6573 7.87477 74.7335 8.03808 74.0951C8.20138 73.5114 7.8022 73.1466 7.07641 73.4932C6.67722 73.6938 6.2599 73.5844 6.24175 73.0006C6.5865 72.6905 7.22156 72.3987 7.23971 72.0704C7.33043 70.228 8.74572 69.0423 9.3445 67.4554C9.74368 66.3791 10.2336 65.3941 8.63685 64.9563C7.9655 64.7739 8.27396 64.0078 7.83848 63.6977C7.83848 63.0046 7.92921 62.3114 7.83848 61.6547C7.6026 60.013 8.07437 58.7179 9.63481 58.0612C10.034 57.8971 10.1792 57.8606 10.3606 57.4228C10.9957 55.8541 11.7033 54.3218 12.5198 52.8443C13.3545 51.3485 14.2436 49.8528 15.3141 48.5029C16.2576 47.3355 17.1467 45.8215 19.0882 46.2046C19.5237 46.4782 20.1043 46.6423 20.3765 47.0254C21.1204 48.0469 21.7373 47.3355 22.318 46.9524C23.0619 46.4782 22.7716 45.2925 23.7514 44.8C24.1143 44.6176 25.2755 44.6905 25.0578 43.6143C25.0578 43.5414 25.4751 43.2495 25.5659 43.286C26.5275 43.8697 27.3803 42.7752 28.3783 43.1583C29.5033 43.5778 29.6666 44.6541 30.102 45.5114C31.0819 44.9824 31.2996 43.4502 32.7875 44.0886C32.3641 43.1887 32.6483 42.4104 33.6403 41.7537C33.6403 41.7537 33.7491 41.9179 33.8036 41.9909C33.8398 41.9362 33.8943 41.8632 33.9306 41.8085C33.8398 41.772 33.7491 41.7537 33.6584 41.7173C33.9306 40.1485 34.9285 39.7107 36.3438 40.5316C36.7793 40.787 37.5595 41.3342 37.6321 41.0971C38.0494 39.5466 39.7187 39.0541 40.2812 37.686C41.1159 37.3577 40.8981 36.2449 41.5513 35.8801C42.7852 35.2052 43.3477 33.8919 44.4001 33.0528H44.3638C44.8537 33.2717 45.398 33.2352 45.9061 33.3264C46.9222 33.527 48.1379 33.9466 48.2467 34.9863C48.3012 35.4788 48.2467 36.0078 48.5189 36.5003C49.0995 36.1537 49.7346 35.8801 49.7165 35.0228C49.7165 34.5303 49.8072 34.129 50.4967 34.3844C51.5128 34.7674 51.4584 34.7309 51.4402 33.7459C51.4402 32.7791 51.0592 31.557 52.6559 31.3928C54.5067 29.3133 55.5409 26.8508 56.049 24.1147C54.2889 24.9902 52.6015 25.8476 50.914 26.6866C49.0633 26.1212 48.3375 24.9173 48.8274 23.0202C49.0633 21.0502 48.1923 20.2293 46.0875 20.4117C45.2892 20.2658 44.4182 19.828 43.7469 20.0469C42.5312 20.43 41.6058 20.1016 40.6623 19.4632C40.2449 19.2625 40.1361 18.6059 39.5554 18.6606L39.6099 18.7335C39.5736 18.241 39.2107 18.0769 38.8296 18.1498C38.5756 18.2046 38.7208 18.4964 38.8115 18.6788C37.6865 19.3537 36.743 20.6853 35.1463 19.7368C35.0555 19.6821 34.8197 19.7733 34.6926 19.8462C33.7128 20.4482 33.0233 21.3055 32.4064 22.2541C31.6262 23.4762 30.2109 23.6586 29.0134 22.7283C28.3783 22.2358 27.8521 21.5427 26.9993 21.3603C26.1283 20.7765 25.7836 19.0801 24.205 20.0287C23.4429 19.2261 21.0115 19.0984 23.0256 17.1283C23.0619 17.0919 22.9712 16.8912 22.8986 16.8365C21.6103 15.9427 23.1345 15.6691 23.3159 15.1218C23.3704 14.9577 24.078 14.9759 23.9147 14.7023C22.8804 12.9694 24.6405 12.8052 25.33 12.0391L25.3481 12.1485ZM63.0165 21.8345C63.7605 21.8528 64.1415 21.4879 64.3048 20.6124C63.4157 20.7401 62.9984 21.0684 63.0347 21.871C62.6718 21.9804 62.3633 21.2873 62.0186 21.7433C61.9097 21.8892 62.0186 22.4365 62.1637 22.4912C62.7444 22.7466 62.944 22.3635 62.9984 21.8345H63.0165ZM68.3329 79.9687C67.6797 80.2059 67.8067 80.899 67.5346 81.355C67.7523 81.355 68.0789 81.4645 68.1878 81.355C68.5325 80.972 69.0224 80.5159 68.3692 79.987C68.4418 79.841 68.5144 79.7133 68.587 79.5674C68.5325 79.5492 68.4599 79.5309 68.4055 79.4945C68.3874 79.6404 68.3692 79.8046 68.3511 79.9505L68.3329 79.9687ZM48.156 73.6573C48.9544 72.9824 49.1358 72.0886 48.9544 71.0853C49.789 71.2313 50.0794 70.7388 50.1338 70.0274C50.1338 69.9179 49.9342 69.6625 49.8798 69.6808C49.2084 69.8267 49.0451 70.3557 48.9907 70.9576C48.9907 71.0124 48.9907 71.0671 48.9907 71.1218C48.7729 71.1765 48.5915 71.1583 48.5189 70.9212C48.6459 70.1003 48.1197 69.1335 48.7729 68.4951C49.5169 67.7472 48.9181 67.1635 48.8092 66.5068C49.2991 65.1205 50.8051 63.8801 49.4443 62.2019C49.3354 62.0743 49.3717 61.6182 49.4443 61.5817C50.7507 60.9616 49.8798 59.7759 49.662 59.3381C49.0995 58.2072 49.4624 57.1674 49.7709 56.2736C50.0431 55.4528 50.0431 54.7231 49.9705 53.9388C50.2245 53.7746 50.4241 53.4827 50.1519 53.3186C49.8072 53.1179 49.8435 53.5739 49.6983 53.7563C48.9181 55.9088 46.9403 55.6352 45.271 55.8541C43.9646 56.0182 44.7448 54.5407 44.0372 54.0117C43.3477 54.9785 42.1138 55.0332 41.3155 55.8358C40.4808 55.7629 40.2268 54.9967 39.7369 54.5225C38.9022 53.1726 37.6139 51.8228 39.6643 50.4C39.7369 50.3453 39.7187 50.0717 39.6643 49.944C39.1562 48.9225 39.882 48.3023 40.3901 47.6091C41.2429 46.4052 42.2046 45.256 42.6037 43.7785C42.7308 43.3042 42.9122 42.7388 42.1501 42.5381C41.388 42.3375 41.4243 42.8664 41.2247 43.3772C40.4264 45.2925 39.755 47.299 37.5777 48.1928C36.9789 48.43 36.4708 48.9042 36.1987 49.5609C36.9244 49.8892 37.3781 48.8313 38.2853 49.5244C36.4527 50.5459 36.0172 52.4612 35.0737 54.0847C34.856 54.4677 33.8943 54.4495 34.2572 55.3433C34.0576 56.912 33.0959 57.9518 31.8258 58.7361C30.9911 59.2469 30.2472 59.6664 29.6666 60.6515C28.8319 62.0743 28.088 63.6977 26.6001 64.6645C26.5638 63.8436 25.6384 63.8619 25.5114 64.0443C24.8582 64.9928 23.3522 64.7557 22.9893 65.9596C22.8986 66.2332 23.2615 66.1603 23.3885 66.2515C24.5316 67.0358 25.3118 66.3609 26.1283 65.686C25.965 66.6892 26.0921 67.7472 25.33 68.5863L25.1848 68.6228V68.787C25.0578 69.17 25.0215 69.5713 24.5498 69.699C24.8038 68.9511 24.7131 68.258 24.3139 67.5466C23.3522 67.9844 23.3522 68.7322 23.5337 69.4984C23.6788 70.0821 24.1143 69.9179 24.5135 69.772C24.4772 71.2677 24.0961 72.6723 23.4792 74.0221C23.1163 74.6059 23.1163 75.3902 22.4994 75.8098C22.1002 76.0651 21.8099 75.901 21.9914 76.813C22.2817 78.2176 23.2615 79.7316 22.3361 81.2638C21.9914 81.2091 22.1909 80.2971 21.4833 80.7531C22.0458 82.4313 22.5176 84.1277 20.9571 85.8059C22.6083 84.985 24.3139 85.3498 25.8199 84.8938C27.5436 84.4013 28.1787 85.6782 29.1404 86.499C29.0678 86.5355 28.9771 86.572 28.9045 86.6085L29.1222 86.499C30.3016 86.0795 31.2452 85.1857 32.6604 85.0397C31.7895 84.0365 30.8641 84.8208 30.1202 84.4925C30.1928 84.0912 30.4286 83.8905 30.7915 83.8176C31.7895 83.7081 32.86 84.4013 33.4951 84.3648C34.9285 84.2918 36.6886 83.7811 37.7772 83.0332C39.12 82.1212 40.4808 81.884 41.878 81.4645C42.3316 82.1759 43.2388 82.5407 43.3295 84.0182C43.8013 82.942 43.511 82.2671 43.9464 81.7928C44.2005 81.5922 44.6722 81.7016 44.6904 81.2456C44.6904 81.1361 44.4908 80.9173 44.4364 80.9355C44.0916 81.0267 43.8194 81.2274 43.7831 81.6104C42.8215 81.9205 43.1299 81.0267 42.8941 80.6619C42.6219 78.2358 44.4182 74.7335 47.8476 74.387C48.3012 74.314 48.5008 74.1133 48.2467 73.6391L48.156 73.6573ZM39.3014 44.727C38.9567 44.5446 38.376 44.1251 38.3034 44.2163C37.6139 44.9277 38.0676 45.785 38.1039 46.6606C38.1946 45.7485 38.8296 45.2925 39.4103 44.8182C39.4647 44.6905 39.5191 44.5629 39.5554 44.4169C39.5554 44.3987 39.4828 44.344 39.4466 44.3075C39.3921 44.4534 39.3377 44.5811 39.2833 44.727H39.3014ZM19.3604 67.5466C19.7233 67.0723 20.5035 67.4371 20.7394 66.8534C21.193 65.759 21.32 64.5186 22.2454 63.6247C22.4813 63.4059 22.2454 62.9498 21.9188 62.7309C21.6829 62.5485 21.3744 62.4026 21.1748 62.7492C20.3402 64.2267 17.9451 65.0658 19.3604 67.5466ZM61.075 67.8749C60.44 68.2762 59.7868 68.641 59.188 69.0971C58.9158 69.316 58.8614 69.7355 59.0428 70.0638C59.1154 70.1915 59.5872 70.2827 59.6235 70.2098C60.2041 69.3524 61.4561 69.0606 61.692 67.9844C61.8916 67.0358 61.9823 65.9961 60.5851 65.4853C61.0932 66.9811 58.5529 66.5798 59.061 68.2397C59.8049 68.0756 60.0045 66.0143 61.0932 67.8749H61.075ZM29.5214 47.7915C29.1585 48.2111 27.9428 47.4085 28.1968 48.5759C28.3239 49.1596 28.9771 50.1446 29.4851 49.9622C29.975 49.7798 30.3016 48.7583 30.4105 48.0651C30.4831 47.5909 29.9387 47.5179 29.5033 47.7915H29.5214ZM50.1519 72.8912C49.8979 73.712 49.1177 74.1498 49.6257 74.8247C49.7346 74.9524 50.3515 75.0436 50.6781 74.6423C51.2951 73.858 50.2427 73.6573 50.1519 72.8912ZM59.2787 44.2892C60.6759 43.6691 60.0227 42.9941 59.6235 42.3192C59.5146 42.155 59.5872 41.772 59.2424 42.0456C58.3171 42.7752 59.1517 43.4684 59.2787 44.2892ZM21.6829 79.8228C21.9732 78.6918 21.0297 78.473 20.3946 78.0534C20.1043 77.871 19.7958 77.9622 19.7051 78.2905C19.5963 78.6554 19.9047 78.8743 20.195 78.856C20.9571 78.7831 21.3744 79.1843 21.6829 79.8228ZM39.3558 42.9759C38.7752 42.8117 39.5191 41.6443 38.503 41.8085C38.0857 41.8814 37.9587 42.1733 38.0494 42.5746C38.1583 43.1036 38.4123 43.4319 38.9748 43.3225C39.12 43.3042 39.5554 43.4319 39.3558 42.9576V42.9759ZM24.7675 86.7544C25.0578 85.8241 26.2916 86.3713 26.7997 85.4593C25.7292 85.5322 24.6223 85.1674 24.7675 86.7544ZM44.8718 50.6736C44.4001 51.1844 43.892 51.6586 44.2912 52.37C44.3638 52.516 44.8355 52.6072 44.8537 52.5707C45.1259 51.9687 45.1259 51.3303 44.89 50.6554L44.8718 50.6736ZM17.7092 98.8482C18.181 97.9605 18.054 97.3585 17.3282 97.0423C17.4552 97.699 17.5822 98.2827 17.7092 98.8482ZM26.4187 54.6866C26.4731 54.03 27.4166 54.2306 27.5436 53.6104C27.6162 53.2274 27.2715 52.8625 26.8904 53.0632C26.4005 53.3186 25.9469 53.7381 25.838 54.3401C25.7836 54.6137 26.0376 54.7231 26.4187 54.6866ZM62.6536 63.3329C63.1254 63.3694 63.452 63.187 63.4157 62.6032C63.4157 62.3114 63.2343 62.1655 62.9984 62.2749C62.5266 62.4938 62.073 62.7674 61.6194 63.0228C61.8553 63.4241 62.1637 63.57 62.6536 63.3329ZM57.3917 40.0756C57.0469 39.8384 56.8836 39.3459 56.5026 39.4919C56.176 39.6195 55.9401 40.0026 55.6679 40.2762C55.9582 40.4951 56.303 40.9146 56.557 40.8599C56.8655 40.8052 57.1014 40.3492 57.3917 40.0573V40.0756ZM55.0329 42.3192C54.8151 42.9941 55.2506 43.359 55.5591 43.9244C56.2486 42.9759 55.1054 42.83 55.0329 42.3192ZM60.694 60.2137C59.7868 60.2137 61.3472 60.9433 60.44 61.0528C60.2404 61.071 60.44 61.5635 60.7847 61.5453C61.2202 61.5088 61.3472 61.2169 61.2746 60.8156C61.2202 60.469 61.1839 60.1042 60.6759 60.2137H60.694ZM11.5581 59.9948C11.5037 59.7759 11.4493 59.5752 11.3767 59.3563C11.1045 59.9036 10.415 59.3928 10.1247 60.4326C10.7053 60.2502 11.1227 60.1225 11.54 59.9948H11.5581ZM9.61667 61.0163C9.68924 60.9068 9.81626 60.7791 9.85255 60.6515C9.87069 60.5785 9.77997 60.4508 9.74368 60.3596C9.63481 60.4508 9.48965 60.5238 9.41707 60.6332C9.30821 60.7974 9.36264 60.9433 9.63481 61.0345L9.61667 61.0163ZM56.9562 38.8899C57.0469 38.8352 57.1739 38.8169 57.2284 38.7257C57.2647 38.671 57.1739 38.5616 57.1558 38.4704C57.0469 38.5433 56.9199 38.598 56.811 38.671C56.8655 38.744 56.9199 38.8169 56.9743 38.8899H56.9562ZM59.3513 17.7668C59.3513 17.7668 59.2243 17.5661 59.1699 17.5661C59.0791 17.5661 58.9521 17.6573 58.9158 17.7303C58.807 17.9674 58.9884 17.9857 59.1336 17.9492C59.2061 17.9309 59.2606 17.8215 59.3332 17.7485L59.3513 17.7668ZM56.303 41.9361C56.1941 41.9361 56.0853 41.8814 55.9945 41.9179C55.8312 41.9726 55.8312 42.0821 55.9945 42.155C56.0308 42.1733 56.1215 42.1733 56.1578 42.155C56.2123 42.1003 56.2486 42.0091 56.303 41.9361Z" fill="#3F75BB"/>
<path d="M59.9684 7.27801C58.8434 7.16856 58.2084 6.31123 57.4463 5.61807C56.4665 4.72426 55.4141 4.19527 54.4887 5.72752C53.6177 5.39918 52.5654 5.4539 51.9121 4.56009C51.767 4.3412 51.5674 4.68778 51.4948 4.88843C51.0231 4.19527 50.7509 3.06433 49.5896 4.28648C48.9183 4.99788 47.9566 4.70602 47.1219 4.39592C45.3438 3.73925 43.8922 4.01286 42.985 5.83697C42.8035 6.22003 42.6221 6.40244 42.2047 6.20179C40.3903 5.39918 39.0113 6.1653 37.7593 7.44218C37.0516 6.8767 36.471 7.98941 35.7815 7.5881C35.6363 7.5881 35.4912 7.62459 35.346 7.62459C35.4186 7.69755 35.5093 7.77051 35.5819 7.86172C35.3823 8.2083 35.1283 8.2083 34.8198 8.02589C35.1827 6.82198 34.0759 6.62133 33.5678 6.74902C32.6243 6.98615 31.6808 6.8767 30.7554 7.07736C30.1385 7.22328 29.576 7.15032 29.6667 8.19006C29.703 8.70081 28.7595 9.26628 28.2515 9.81351C27.8523 8.59136 27.9067 7.29625 27.3987 6.0741C26.9995 5.12556 28.451 3.90341 29.7756 4.4324C30.8824 4.87019 31.953 4.32296 32.2796 4.04934C34.3299 2.35293 36.8883 2.95488 39.1383 2.35293C40.0999 2.09755 41.0616 1.8969 42.0051 1.45911C42.7309 1.13078 43.5111 0.67475 44.4728 1.07605C44.9627 1.2767 45.5978 1.4956 46.1784 0.802437C47.0675 -0.255543 46.8679 1.55032 47.4304 1.42263C48.1925 1.25846 46.9949 -0.109615 48.1925 0.0180723C52.2387 0.437616 56.2669 0.711232 60.2043 2.13403C62.055 2.80895 64.1235 3.3197 65.9743 3.95814C67.8976 4.61482 70.3472 5.14381 71.6173 6.65781C72.8511 8.11709 74.4297 9.15683 75.5547 10.5796C77.1696 12.6409 78.2038 15.1217 78.7482 17.7484C78.8389 18.1861 79.0022 18.6604 79.2744 19.007C80.0727 20.0103 80.1634 21.123 79.6917 22.1809C79.0748 23.6037 79.0748 25.5008 79.4377 26.4493C80.5626 29.4409 79.0748 32.1588 79.3469 34.9861C79.5102 36.719 79.2925 38.452 79.8187 40.1848C80.0909 41.0787 80.0727 42.2278 79.728 43.0669C79.2925 44.1614 79.6191 45.0734 79.7643 46.0585C78.984 46.6239 78.857 45.42 78.222 45.4565C78.5123 46.4598 78.5123 46.6239 77.4962 46.6604C76.7704 46.6787 77.0607 47.1894 76.8611 47.4265C76.6978 47.6272 76.9155 47.992 77.2059 48.0285C77.3692 48.0467 77.6413 47.8826 77.7502 47.7366C77.9498 47.4448 76.9156 46.934 77.8954 46.7516C78.6574 46.6239 78.4216 47.3536 78.6212 47.6819C78.8389 48.0285 79.1473 47.7366 79.4014 47.8096C79.3288 49.3418 79.3651 50.9471 78.603 52.3151C78.1131 53.209 79.0566 53.592 78.9659 54.3399C78.8026 55.5438 78.8207 56.8936 78.476 57.9334C77.8409 59.8487 78.0405 61.8187 77.5688 63.7158C76.9518 63.5881 77.0244 62.5301 76.226 62.676C75.9539 62.9861 76.2261 63.205 76.2805 63.4787C76.3349 63.807 76.2623 64.1536 76.2986 64.4819C76.4256 65.3757 76.8793 65.1933 77.5869 63.9529C77.9498 65.8135 77.6958 67.5646 77.3147 69.4435C76.9881 71.0122 78.0224 72.7998 78.2583 74.5327C78.5849 76.8311 78.5667 79.1659 78.6937 81.4826C78.7482 82.4311 78.1312 82.3764 77.5143 82.9966C79.0929 82.9054 79.1473 83.6897 79.1655 84.6383C79.2199 87.0461 79.982 89.3992 79.5102 91.88C79.3106 92.9744 78.5304 93.8682 78.7844 95.2181C78.9659 96.2031 77.8591 97.1334 76.6797 97.6441C75.7543 98.0454 74.72 98.5927 74.4842 99.7601C74.3027 100.709 73.3955 100.928 72.8511 101.457C70.8915 103.354 68.8956 105.287 65.938 105.597C64.8312 105.707 63.8695 105.542 63.4159 104.521C62.9078 103.39 61.5651 102.277 62.7082 100.891C63.7062 99.7054 62.5994 98.4832 62.9804 97.3158C63.0167 97.1881 62.2546 96.2943 61.7829 96.9874C61.3111 97.6806 60.041 97.6989 60.2406 98.994C60.295 99.2858 59.5874 99.9607 59.17 100.034C57.1923 100.326 55.9221 102.387 53.781 102.223C53.4182 102.186 53.273 102.514 53.0553 102.825C52.4202 103.718 51.8396 104.813 50.4787 104.74C49.9707 104.703 49.6622 105.105 49.517 105.397C48.0655 108.571 45.4345 109.774 42.1684 110.012C40.9346 110.103 39.7008 110.121 38.6484 110.924C38.4851 111.051 38.1766 111.161 37.977 111.106C36.217 110.504 34.4751 111.58 32.7695 111.197C31.7715 110.978 31.5356 112.073 30.6284 111.963C28.1063 111.671 25.4935 111.89 23.0984 110.997C21.9915 110.577 20.2678 111.161 19.7597 109.373C19.7053 109.172 18.9977 108.698 18.9614 108.516C18.3807 109.045 17.9634 109.391 17.0743 108.789C14.5341 107.093 11.7035 105.853 9.65313 103.427C9.36281 103.08 8.52816 103.116 7.98382 102.752C7.5302 102.442 7.27617 102.168 7.07658 101.621C6.60482 100.289 5.84274 99.1399 4.59076 98.3555C3.77425 97.8448 3.73796 96.8233 3.46579 96.0572C2.9033 94.5614 1.74204 93.2663 1.8872 91.4422C1.92349 91.0409 1.50616 90.0923 0.998106 89.4721C0.526343 88.9067 -0.0179979 88.0858 0.363041 87.1373C0.907382 85.751 0.0545809 84.4559 0.0727256 83.1425C0.0908703 81.7744 -0.126866 80.3699 0.0727256 79.0565C0.508198 75.7731 1.08883 72.5262 1.43358 69.2246C1.61503 67.5464 2.23195 65.6858 3.01217 64.3725C3.84682 62.9679 3.52022 61.6363 3.97384 60.3412C4.22786 59.6116 4.40931 58.9002 5.04437 58.4988C6.45966 57.605 6.5141 55.8721 7.43948 54.6865C8.81847 52.9171 10.5059 51.1842 10.9777 48.9953C11.5402 46.3868 13.9171 45.2011 14.8788 42.9757C15.2417 42.1366 16.2578 42.1731 16.9292 41.7353C15.6227 40.6591 17.165 40.4037 17.5279 40.1666C19.6872 38.7803 22.0641 37.8318 24.6407 37.6493C26.7817 37.4852 28.5781 36.792 30.4107 35.5699C32.7695 34.0011 35.5456 33.1438 38.5032 33.4174C38.7209 33.4357 39.0657 33.6181 39.0476 33.3627C39.0113 32.177 40.0818 32.5783 40.4447 32.5966C41.7874 32.6331 43.112 32.9249 44.4365 33.1256C43.3841 33.9464 42.8398 35.278 41.5878 35.9529C40.9165 36.3177 41.1523 37.4305 40.3177 37.7588C38.6665 37.923 37.0698 38.0142 35.3823 38.5979C34.0033 39.0904 32.6243 39.3275 31.5175 40.4037C31.0457 40.8598 25.7112 42.7933 25.0943 42.7021C24.2415 42.5744 23.4068 42.5197 22.554 42.7021C21.8101 42.848 22.2637 44.0337 21.2657 44.0702C19.9412 44.1249 19.4513 45.2011 19.1065 46.2956C17.165 45.9125 16.2759 47.4083 15.3324 48.594C14.2619 49.9256 13.3728 51.4213 12.5381 52.9353C11.7216 54.4129 11.014 55.9633 10.3789 57.5138C10.1975 57.9516 10.0523 57.9881 9.65313 58.1523C8.09268 58.8089 7.62092 60.1041 7.8568 61.7458C7.94753 62.4207 7.8568 63.1138 7.8568 63.7888C6.98586 64.1718 8.2197 66.1966 6.3145 65.8135C6.24193 65.8135 6.42337 66.1236 6.58667 66.2695C6.78627 66.452 7.45762 66.2695 7.1673 66.8168C6.62296 67.8565 6.91328 69.2975 5.64315 69.9542C5.42541 70.5379 4.62705 69.4617 4.62705 70.2826C4.62705 70.4102 4.6089 71.906 5.77016 71.1946C5.73387 71.7783 5.67944 72.3803 5.64315 72.964C5.42541 73.0187 5.20768 73.0917 4.98994 73.1464C6.35079 74.0585 4.88107 74.9887 5.02623 75.919H4.91736L4.80849 75.9555C4.71777 76.0467 4.6089 76.1379 4.51818 76.2109C3.95569 77.9985 3.04846 79.8226 5.08066 81.3001C4.79035 82.3034 4.35488 83.3067 5.37098 84.164C4.59076 85.0213 4.42745 86.134 4.24601 87.1738C4.13714 87.7757 3.81053 88.779 5.1351 88.779C5.86089 88.779 5.33469 89.9282 6.07862 90.0376C5.49799 90.7855 5.91532 91.205 6.55038 91.6063C7.004 91.8982 7.8568 92.1353 6.82256 92.8832C6.53224 93.1021 6.98586 93.5946 7.45762 93.6493C7.25803 94.4337 8.14712 94.9262 8.03825 95.6923C7.22174 95.82 7.58463 96.422 7.56649 96.878L8.43743 96.2943C8.58259 96.349 8.74589 96.4037 8.89105 96.4767C8.80033 97.0787 8.69146 97.7171 9.67127 97.4617C10.1975 98.3373 11.2499 98.5379 11.9575 99.1764C12.1208 99.3588 12.266 99.5594 12.4293 99.7418C12.4293 99.9607 12.5563 100.052 12.774 100.052H12.7559C13.028 100.326 13.3002 100.636 13.5542 100.928C13.1006 101.438 12.6651 100.982 12.2115 100.928C11.6672 100.873 11.5402 101.201 11.9757 101.621C11.5946 101.402 11.7216 101.73 11.6853 101.894C11.6853 101.931 11.7035 101.967 11.7216 102.004C11.7942 101.876 11.8668 101.73 11.9394 101.602C12.3748 101.438 12.3567 102.715 13.0825 101.894C13.3728 101.566 13.9353 101.529 13.5361 100.909C13.899 102.113 14.9877 101.821 15.8223 102.022C15.659 102.934 15.0965 104.028 16.0582 104.649C17.2376 105.415 18.4896 106.874 20.1771 104.995C19.8142 105.743 19.4694 106.509 20.1771 106.783C21.1387 107.148 21.8827 108.716 23.0984 107.695C24.3322 106.673 25.3302 106.528 26.7454 107.403C27.5257 107.896 28.7051 107.877 29.1405 106.564C30.1566 107.184 31.1002 106.765 32.0618 106.4C32.461 106.236 32.9146 105.488 33.2594 106.382C33.5497 107.129 33.7674 107.367 34.2392 106.801C35.8541 104.849 38.4125 106.71 40.1362 105.159C40.4991 104.831 41.4064 105.214 42.114 104.904C42.6221 104.685 42.4769 105.251 42.2954 105.561C42.3136 105.688 42.3317 105.816 42.3499 105.944C42.4043 105.926 42.495 105.907 42.495 105.871C42.5313 105.67 42.4406 105.579 42.241 105.561C43.747 105.67 43.9648 103.992 45.0353 103.5C46.4143 104.412 47.7207 104.247 48.9727 103.244C49.1541 103.098 49.6441 103.116 49.4082 102.697C49.2086 102.35 48.8457 102.204 48.4102 102.624C50.1703 102.04 51.1501 100.782 51.9121 99.2676C52.1662 98.7386 52.6924 98.1549 53.2367 98.2643C54.4887 98.5197 53.8173 97.6259 53.9806 97.2246C54.2347 97.1516 54.5431 97.1881 54.5976 96.8233C54.9242 96.7686 55.2508 96.7686 55.5592 96.5497C57.2648 95.364 58.4987 93.7953 59.4966 92.0076C61.0026 93.4304 62.5449 93.5764 63.9965 92.3542C64.8493 91.6428 65.684 92.1353 65.938 92.7555C66.2646 93.5216 67.2626 94.1783 66.5549 95.3822C66.1376 96.0936 67.4622 96.4585 67.7162 97.1699C67.698 97.863 67.5529 98.5015 66.8815 98.8663C66.3372 99.1581 66.5186 99.6324 66.5368 100.052C66.3916 100.125 66.2465 100.234 66.3916 100.38C66.4461 100.435 66.6456 100.326 66.7908 100.289C66.936 100.18 67.063 100.07 67.2081 99.979C67.6436 99.6871 67.0993 97.8083 68.5508 99.1581C68.7686 99.3588 69.1496 98.9757 69.1496 98.7021C69.1496 98.0089 69.9661 98.1002 70.1476 97.6076C71.1818 97.2793 71.9439 96.6591 72.3068 95.6194C73.7221 94.5796 73.9761 92.8467 74.7382 91.4239C74.9378 91.0591 75.4277 90.6031 74.9922 90.1835C74.212 89.4357 74.7382 88.0493 74.8652 87.9764C75.845 87.4109 74.8652 86.8637 74.9741 86.3712C75.0466 86.2617 75.1011 86.1523 75.1737 86.0428H74.9559C74.7563 85.4226 74.5386 84.8024 74.339 84.1822C74.9378 83.3614 75.7906 82.5405 74.466 81.6285C73.4862 80.0233 73.5588 78.2539 73.5588 76.4663C73.5588 75.8826 74.1394 75.2806 73.7402 74.7881C72.3249 73.0917 72.833 71.1034 72.7604 69.2063C72.8148 69.3523 72.8511 69.5529 73.0507 69.407C73.087 69.3705 72.9781 69.1334 72.9419 68.9874C73.1959 67.7471 72.6515 66.5432 72.7241 65.248C72.7967 64.0441 74.5204 63.4422 73.3773 61.6545C72.2524 59.9034 74.2483 57.4956 73.6314 55.179C73.4136 54.3399 74.4479 53.1542 74.6475 52.005C74.7563 51.3666 75.0829 50.4363 76.3531 51.2936C74.9741 49.652 74.72 48.0467 74.9559 46.1679C75.0648 45.3106 75.7906 44.1614 74.6837 43.3223C74.7563 43.0852 74.8108 42.8298 74.8833 42.5927C75.3007 42.7568 75.6999 42.7021 76.0446 42.465C76.5345 42.1366 76.0446 41.7353 76.0627 41.3705C76.0627 41.2611 76.1172 40.8233 75.7724 41.0787C74.4297 42.0272 74.9015 40.4037 74.9378 40.3308C75.2644 38.9262 76.0446 37.5581 75.1192 36.0806C75.0648 35.9894 75.1192 35.7705 75.3914 35.7888C76.7704 35.8252 75.845 34.9314 75.6091 34.9314C74.5204 34.9497 74.8289 33.9464 74.9196 33.7275C75.2825 32.8884 74.8652 32.1223 74.9378 31.4291C75.0285 30.6083 74.3209 30.0793 74.5023 29.5138C74.9378 28.1093 74.9741 26.7959 74.1757 25.519C74.085 25.3731 74.1757 25.0265 74.2846 24.8624C75.0648 23.8956 75.1192 23.8774 74.5023 22.7647C74.085 22.0168 74.6837 21.4331 74.6112 20.7399C74.6112 20.6122 74.8652 20.448 74.9922 20.3204C73.1052 19.6819 74.0487 17.6207 73.0144 16.6174C73.4136 16.1432 74.0305 16.9275 74.2846 16.2344C74.1938 16.3073 74.1213 16.362 74.0305 16.435C74.085 16.4715 74.1394 16.508 74.1757 16.5445C74.212 16.435 74.2301 16.3256 74.2664 16.2344C72.6334 15.7966 71.8713 14.2643 71.1274 13.0969C70.2383 11.6923 69.0407 10.9445 67.7706 10.1783C66.8815 9.64934 65.9924 9.24804 66.8089 7.84348C65.4118 8.77377 65.4481 8.66433 63.9965 8.39071C63.1074 8.22654 62.3998 7.29625 61.3655 7.77052L61.3837 7.78876C60.9482 7.36921 60.8393 6.53012 60.0591 6.56661C59.6781 6.56661 60.3676 7.16856 59.8414 7.27801H59.9684ZM6.87699 97.8265C6.42337 97.936 6.55038 98.2096 6.6774 98.4832C6.69554 98.5197 6.82256 98.5562 6.82256 98.5562C6.96771 98.3008 7.09473 98.0454 6.8407 97.7901C7.004 97.7901 7.20359 97.8448 7.05844 97.5712C7.004 97.6624 6.93142 97.7353 6.87699 97.8265ZM24.06 109.136C23.8423 109.172 23.5701 109.154 23.4068 109.282C23.1709 109.464 23.4794 109.519 23.5883 109.592C24.7132 110.376 25.0035 109.081 25.7293 108.771C24.9552 108.431 24.4774 108.473 24.2959 108.899C24.2959 108.899 24.1326 109.045 24.0782 109.136H24.06ZM77.8409 60.25C77.605 60.1223 77.3147 59.8669 77.0244 59.8669C76.8793 59.8669 76.5889 60.2865 76.5889 60.5236C76.5889 61.0344 77.0244 60.9249 77.351 60.8702C77.6232 60.8155 77.9317 60.7425 77.8409 60.2682V60.25ZM48.3013 1.20374C48.3013 1.20374 48.2106 1.13078 48.1743 1.09429C48.138 1.16726 48.1018 1.24022 48.0836 1.31319C48.0836 1.33143 48.1562 1.36791 48.1925 1.40439C48.2288 1.33143 48.2651 1.25846 48.2832 1.20374H48.3013ZM4.9718 69.2975C4.9718 69.2975 4.89922 69.3705 4.86293 69.3888C4.89922 69.4252 4.93551 69.48 4.9718 69.48C5.00809 69.48 5.04437 69.4252 5.08066 69.3888C5.04437 69.3523 5.00809 69.3158 4.9718 69.2975ZM2.19566 69.5347C2.19566 69.5347 2.08679 69.6259 2.10493 69.6441C2.12308 69.7171 2.17751 69.7901 2.23195 69.8448C2.26823 69.8083 2.34081 69.7536 2.32267 69.7353C2.30452 69.6624 2.25009 69.5894 2.19566 69.5347Z" fill="#25201D"/>
<path d="M48.8636 23.1114C48.3737 25.0085 49.0995 26.2124 50.9503 26.7779C50.2789 27.6899 50.8233 28.0547 51.6398 28.0365C52.1297 28.0365 52.4381 28.3284 52.3293 28.5655C51.8212 29.6417 52.8192 30.4808 52.7103 31.4841C51.1136 31.6482 51.4765 32.8704 51.4946 33.8372C51.4946 34.8404 51.5672 34.8587 50.5511 34.4756C49.8616 34.2202 49.7709 34.6215 49.7709 35.114C49.789 35.9714 49.1539 36.2632 48.5733 36.5916C48.3193 36.099 48.3556 35.5701 48.3011 35.0775C48.1923 34.0378 46.9766 33.6183 45.9605 33.4176C45.4524 33.3264 44.9262 33.3629 44.4182 33.1622C44.7448 31.5388 46.3234 32.5785 47.1943 31.8671C47.8838 31.3017 48.3556 31.2834 47.4121 30.499C46.9766 30.1342 46.3959 29.6052 46.3959 28.7844C46.3597 26.3766 44.6359 25.2639 42.7489 24.443C41.8053 24.0235 40.7711 23.8046 39.7913 23.4033C37.5958 22.4912 35.5636 23.6951 33.4406 24.1512C31.2633 24.6254 29.3762 25.7746 27.2533 26.2854C25.9832 26.5955 24.5497 26.8508 24.0598 28.529C23.7876 29.4593 22.699 29.9336 21.9369 29.6235C21.1022 29.2951 19.7777 29.3316 19.6144 27.8723C19.5418 27.2339 19.5599 26.6319 19.5599 26.0118C19.5599 23.5127 20.0317 21.0319 19.6688 18.5329C20.2313 18.4964 20.3583 19.0072 20.5942 19.3538C20.8845 19.7551 21.2837 19.7368 21.2655 19.3173C21.2655 18.7883 21.0115 18.2046 20.703 17.7486C20.3583 17.2196 19.9591 17.9857 19.5599 17.858C19.814 17.1101 19.8865 16.3075 19.4874 15.6508C18.6164 14.2645 19.2878 13.2613 20.1406 12.2762C20.449 11.9297 20.5216 11.6013 20.5397 11.1818C20.576 10.3062 21.2474 9.7225 21.8643 10.2515C22.7171 10.9811 23.5518 10.9264 24.459 10.8534C25.6203 10.7622 25.5114 11.4372 25.3662 12.185C24.6949 12.9512 22.9167 13.1153 23.9509 14.8482C24.1143 15.1401 23.4066 15.1218 23.3522 15.2678C23.1707 15.815 21.6466 16.0886 22.9348 16.9824C23.0074 17.0372 23.08 17.2378 23.0619 17.2743C21.0478 19.2261 23.4792 19.3538 24.2413 20.1746C23.8239 21.1414 25.0578 21.944 24.4953 22.9108C23.9328 22.9655 24.1687 22.1994 23.7332 22.0899C23.5699 23.458 23.5881 23.5127 24.4046 24.7349C24.4953 24.7714 24.4771 25.1362 24.6767 24.8261L24.3864 24.7531C24.4046 24.2424 24.4227 23.7316 24.4409 23.2209C25.4388 22.8743 25.711 21.3785 27.0355 21.5062C27.8883 21.6886 28.3964 22.3818 29.0496 22.8743C30.2472 23.7863 31.6624 23.6222 32.4427 22.4C33.0414 21.4515 33.7491 20.5759 34.7289 19.9922C34.8559 19.9192 35.0918 19.828 35.1825 19.8828C36.7793 20.8495 37.7228 19.5179 38.8478 18.8248C39.1199 18.8248 39.3739 18.8613 39.6461 18.8795L39.5917 18.8065C39.4284 19.1166 38.7389 19.2808 39.1744 19.7186C39.628 20.1929 40.2086 19.9192 40.6985 19.5909C41.642 20.2111 42.5674 20.5577 43.7831 20.1746C44.4726 19.9557 45.3436 20.3935 46.1238 20.5394C47.3576 21.0867 47.8294 22.4183 48.8636 23.1479V23.1114ZM20.4853 22.4C20.9208 22.4 20.9571 21.9258 21.2474 21.7433C21.0115 21.5792 20.8119 21.3238 20.5579 21.2873C20.1406 21.2144 19.9047 21.6157 19.8684 21.9258C19.8321 22.1994 20.1769 22.3818 20.5035 22.4H20.4853Z" fill="#25201D"/>
<path d="M79.4194 47.8098C79.1654 47.7368 78.8569 48.0469 78.6392 47.6821C78.4214 47.3537 78.6573 46.6059 77.9134 46.7518C76.9336 46.9342 77.9678 47.445 77.7682 47.7368C77.6594 47.901 77.4053 48.0652 77.2239 48.0287C76.9336 47.9922 76.7158 47.6274 76.8791 47.4267C77.0606 47.1896 76.7884 46.6971 77.5142 46.6606C78.5303 46.6241 78.5303 46.4599 78.24 45.4567C78.8569 45.402 79.0021 46.6059 79.7823 46.0586C80.0363 46.4052 79.5464 46.5147 79.5645 46.8065C79.0928 47.0801 79.1291 47.445 79.4012 47.8463L79.4375 47.8098H79.4194Z" fill="#D0D7C9"/>
<path d="M19.5419 17.8215C19.941 17.9492 20.3402 17.1831 20.685 17.7121C20.9934 18.1681 21.2293 18.7518 21.2475 19.2808C21.2475 19.7003 20.8664 19.7186 20.5761 19.3173C20.3221 18.9889 20.2132 18.4782 19.6507 18.4964C19.3967 18.2958 19.2334 18.0769 19.56 17.8033L19.5419 17.8215Z" fill="#D0D7C9"/>
<path d="M77.5867 63.9531C76.8791 65.2117 76.4255 65.3941 76.2985 64.4821C76.244 64.1537 76.3348 63.8072 76.2803 63.4788C76.244 63.2235 75.9537 62.9863 76.2259 62.6762C77.0424 62.5303 76.9698 63.5883 77.5686 63.716C77.6412 63.7889 77.6412 63.8619 77.5686 63.9531H77.5867Z" fill="#D0D7C9"/>
<path d="M79.365 47.828C79.1109 47.4267 79.0746 47.0619 79.5283 46.7883C79.4194 47.1348 80.1089 47.6091 79.365 47.828Z" fill="#25201D"/>
<path d="M26.5276 64.6645C28.0154 63.6977 28.7594 62.0743 29.594 60.6515C30.1747 59.6847 30.9186 59.2652 31.7533 58.7362C33.0234 57.9518 33.9669 56.9121 34.1846 55.3433C34.7834 55.1792 35.3822 54.942 36.0173 55.1062C36.6342 55.2521 37.5596 54.3583 37.8317 55.6352C38.3035 54.9968 38.993 54.7596 39.7006 54.5225C40.1905 54.9968 40.4446 55.7629 41.2792 55.8358C42.1865 56.3648 43.13 56.6567 43.8195 57.6964C44.3638 58.5355 45.2892 59.1192 45.4344 60.2502C46.8497 59.9218 47.1763 60.9981 47.4484 61.9466C47.7206 62.9316 48.2105 64.2267 48.0472 64.9016C47.7932 65.9596 48.1016 66.1603 48.773 66.5069C48.8819 67.1635 49.4625 67.7472 48.7367 68.4951C48.0835 69.1336 48.6278 70.1003 48.4827 70.9212C48.3738 71.8515 48.2468 72.7635 48.1379 73.6938V73.6756C47.7569 73.785 47.8113 74.1316 47.7387 74.4235C44.3094 74.7518 42.5131 78.2723 42.7852 80.6984C41.6421 80.2606 40.6079 80.5707 39.6281 81.1727C40.4446 80.6801 41.1159 81.0814 41.7873 81.501C40.3901 81.9205 39.0293 82.1577 37.6866 83.0697C36.5979 83.8176 34.8197 84.3284 33.4044 84.4013C32.7694 84.4378 31.6988 83.7446 30.7009 83.8541C29.3219 84.2919 28.7594 82.9056 27.7796 82.5407C25.3482 81.6287 24.0962 80.2606 24.2232 77.4332C24.2595 76.5029 24.0418 75.0984 23.3885 74.0769C23.9873 72.7271 24.3684 71.3225 24.4228 69.8267L24.4591 69.7538C24.9308 69.6261 24.9853 69.2248 25.076 68.8417C25.1667 68.8052 25.2212 68.7505 25.2393 68.6593C26.0014 67.8385 25.8744 66.7622 26.0377 65.759C26.0014 65.3394 26.2554 65.0293 26.4913 64.7375L26.5276 64.6645ZM39.374 77.4515C40.3538 77.6886 41.2248 77.5792 41.8236 76.6306C40.8982 76.3935 40.1361 76.8313 39.3559 77.1596C39.9728 76.357 40.2994 75.2078 41.7147 75.372C42.0957 75.4267 42.1683 74.8977 41.8599 74.1499L41.9143 74.1134C41.9143 73.8945 41.8417 73.5661 41.9506 73.4567C42.8034 72.6906 44.7449 72.6176 43.6199 70.6293C43.4929 70.4104 43.7469 70.2645 43.9284 70.1003C44.8356 69.316 43.511 67.729 44.9807 67.1271C43.9828 66.9994 44.2731 65.9779 43.8376 65.4306C43.0393 64.4091 42.3861 63.2782 41.6421 62.202C41.2611 61.6547 40.8438 60.7244 40.4264 60.7244C38.6482 60.7244 36.7975 58.9186 35.1645 60.6697C34.4568 61.4358 33.6403 60.1043 33.4226 60.8886C32.9508 62.5121 31.59 63.8984 31.3359 65.2847C30.9912 67.1271 29.6848 68.1668 29.1041 69.7173C28.8683 70.3375 27.961 71.5596 27.3078 69.5349C27.1264 70.4287 27.2171 70.9029 27.6707 71.3955C28.0517 71.815 28.4509 72.5082 28.3965 73.0189C28.2332 74.6059 28.0517 76.1564 28.9771 77.5609C29.4852 78.3271 29.9569 79.5857 30.6101 79.6951C32.1887 79.9505 33.9125 79.9323 35.4729 79.531C36.8701 79.1661 38.0858 78.1629 39.3922 77.4332L39.374 77.4515ZM32.5879 80.5342C32.5879 80.5342 32.4972 80.4613 32.4428 80.4248C32.4065 80.516 32.3702 80.5889 32.352 80.6801C32.352 80.7166 32.4246 80.7531 32.479 80.7896C32.5153 80.7166 32.5516 80.6254 32.5879 80.5525V80.5342Z" fill="#25201D"/>
<path d="M74.3751 16.2163C74.1211 16.9277 73.5223 16.1251 73.105 16.5994C74.1392 17.6026 73.1957 19.6639 75.0827 20.3023C74.9376 20.4482 74.6836 20.6124 74.7017 20.7218C74.7743 21.3968 74.1755 21.9987 74.5928 22.7466C75.2098 23.8593 75.1553 23.8775 74.3751 24.8443C74.2481 25.0085 74.1755 25.3551 74.2662 25.501C75.0465 26.7961 75.0102 28.0912 74.5928 29.4958C74.4295 30.0613 75.119 30.572 75.0283 31.4111C74.9557 32.1042 75.3731 32.8886 75.0102 33.7095C74.9194 33.9101 74.611 34.9316 75.6997 34.9134C75.9355 34.9134 76.8609 35.7889 75.4819 35.7707C75.2098 35.7707 75.1372 35.9714 75.2098 36.0626C76.1351 37.5401 75.3549 38.9082 75.0283 40.3127C75.0102 40.4039 74.5384 42.0091 75.863 41.0606C76.2077 40.8052 76.1533 41.2613 76.1533 41.3525C76.1533 41.7173 76.625 42.1186 76.1351 42.4469C75.7904 42.6841 75.3912 42.7388 74.9739 42.5746C74.4114 41.6443 73.359 41.6808 72.5062 41.4801C71.1272 41.1518 71.1635 40.3857 71.4175 39.273C71.9437 36.9564 72.1614 34.585 73.0687 32.3596C73.2138 32.013 73.5586 31.3746 72.6332 31.4658C72.5788 31.4111 72.5243 31.3381 72.4699 31.2834C72.6695 30.6632 73.1775 30.2801 73.3227 29.514C73.9033 26.2124 73.9759 26.2306 70.728 26.1759C70.6191 26.1759 70.4921 26.2124 70.3833 26.1759C69.9841 26.0665 69.9296 25.7564 69.8934 25.3733C69.603 22.2358 69.5849 22.2358 70.1292 21.9622C70.7643 21.6339 71.2542 21.1231 71.3812 20.4482C71.5082 19.6821 70.7462 19.4997 70.2744 19.2808C69.2764 18.8248 68.7684 18.0951 69.0224 17.0554C69.2583 16.0521 68.4781 15.4867 68.1333 14.83C67.5708 13.7538 67.716 13.2977 69.4397 13.1518C67.4983 12.4039 66.083 11.8749 64.6858 11.2912C63.6516 10.8534 63.0165 11.1271 62.7625 12.2398C61.8734 12.3127 61.7101 13.4072 60.8936 13.5714C60.8936 12.8417 60.8754 12.1668 61.692 11.7472C62.4177 11.3642 62.8895 10.6528 63.1072 9.86842C63.3976 8.73747 62.1637 8.90164 61.7645 8.35441C61.6375 8.19024 61.6194 7.95311 61.5468 7.75246C62.5629 7.27819 63.2887 8.20848 64.1778 8.37265C65.6112 8.62803 65.5931 8.75572 66.9902 7.82542C66.1555 9.22998 67.0628 9.61305 67.9519 10.1603C69.222 10.9264 70.4196 11.6743 71.3086 13.0788C72.0526 14.2463 72.8147 15.7785 74.4477 16.2163H74.3751Z" fill="#FDFDFD"/>
<path d="M72.8147 69.2065C72.9055 71.1036 72.3793 73.0919 73.7946 74.7883C74.2119 75.2808 73.6131 75.8827 73.6131 76.4665C73.6131 78.2541 73.5405 80.0235 74.5203 81.6287C73.8308 81.501 73.2139 81.1544 72.5789 80.8626C71.0728 80.1694 70.2563 79.5492 71.7623 77.8893C72.8692 76.6489 71.6716 74.77 72.47 73.329C71.1636 73.4384 70.6737 71.5414 69.2402 71.9609C70.0749 70.5381 70.093 69.1336 69.7301 67.4919C69.5668 66.7622 69.1495 65.7042 70.0205 64.628C70.9095 63.5336 70.9458 61.8189 71.091 60.3231C71.472 59.4293 71.218 58.6997 70.4922 58.0977C69.7483 56.073 70.964 54.3401 71.5083 52.5707C71.8531 51.4762 72.2341 50.5277 72.216 49.2873C72.1978 48.2476 73.1776 47.299 73.595 46.2228C73.9579 45.2743 74.3933 44.3257 74.7744 43.3407C75.8812 44.1616 75.1373 45.329 75.0465 46.1863C74.8107 48.0652 75.0465 49.6704 76.4437 51.3121C75.1736 50.4547 74.8469 51.385 74.7381 52.0235C74.5385 53.1727 73.4861 54.3583 73.722 55.1974C74.3389 57.514 72.343 59.9401 73.468 61.673C74.6111 63.4606 72.8873 64.0625 72.8147 65.2665C72.7422 66.5616 73.2865 67.7655 73.0325 69.0059C72.9599 69.0788 72.9055 69.1518 72.851 69.2248L72.8147 69.2065Z" fill="#FDFDFD"/>
<path d="M19.1245 46.2958C19.4874 45.1831 19.9773 44.1251 21.2837 44.0704C22.2817 44.0339 21.8281 42.8482 22.572 42.7023C23.4248 42.5381 24.2595 42.5928 25.1123 42.7023C25.7473 42.7935 31.0819 40.8599 31.5355 40.4039C32.6242 39.3277 34.0213 39.0906 35.4003 38.5981C37.0696 38.0143 38.6664 37.9231 40.3357 37.759C39.7732 39.1271 38.1039 39.6378 37.6865 41.17C37.614 41.4254 36.8337 40.8599 36.3983 40.6046C34.983 39.7837 33.985 40.2215 33.7129 41.7902L33.6766 41.8267C32.6847 42.4956 32.4004 43.2738 32.8238 44.1616C31.3359 43.5231 31.1182 45.0736 30.1383 45.5844C29.7029 44.7088 29.5396 43.6508 28.4146 43.2313C27.4166 42.8482 26.5638 43.9427 25.6022 43.359C25.5114 43.3042 25.076 43.6143 25.0941 43.6873C25.3119 44.7635 24.1687 44.6906 23.7877 44.873C22.7897 45.3655 23.0801 46.5512 22.3543 47.0254C21.7736 47.4085 21.1567 48.1016 20.4128 47.0984C20.1225 46.7153 19.56 46.5329 19.1245 46.2775V46.2958Z" fill="#FDFDFD"/>
<path d="M23.4066 74.0222C24.0598 75.0436 24.2776 76.4482 24.2413 77.3785C24.1143 80.2059 25.3663 81.5739 27.7977 82.486C28.7775 82.8508 29.3218 84.2554 30.719 83.7993C30.3561 83.8723 30.1202 84.073 30.0476 84.4743C30.8097 84.8208 31.7351 84.0365 32.5879 85.0215C31.1726 85.1674 30.229 86.0795 29.0496 86.4808H29.0678C28.1061 85.6782 27.4892 84.3831 25.7473 84.8756C24.2231 85.3133 22.5357 84.9668 20.8845 85.7876C22.445 84.1094 21.9732 82.413 21.4107 80.7348C22.1184 80.2971 21.9188 81.1909 22.2635 81.2456C23.1889 79.6951 22.2091 78.1811 21.9188 76.7948C21.7373 75.901 22.0276 76.0651 22.4268 75.7915C23.0437 75.3902 23.0437 74.5876 23.4066 74.0039V74.0222Z" fill="#FDFDFD"/>
<path d="M48.7729 66.5068C48.1197 66.1603 47.7931 65.9596 48.0471 64.9016C48.2105 64.2267 47.7205 62.9316 47.4484 61.9466C47.1762 60.998 46.8496 59.9218 45.4343 60.2502C45.2892 59.1192 44.3456 58.5355 43.8194 57.6964C43.1299 56.6567 42.1864 56.3648 41.2792 55.8358C42.0594 55.0332 43.3114 54.9603 44.0009 54.0117C44.7085 54.5407 43.9283 56.0182 45.2347 55.8541C46.904 55.6352 48.8818 55.9088 49.662 53.7563C49.7528 53.8293 49.8435 53.884 49.9342 53.9388C50.0068 54.7231 50.0068 55.4528 49.7346 56.2736C49.4443 57.1674 49.0633 58.2072 49.6257 59.3381C49.8435 59.7759 50.7144 60.9616 49.408 61.5818C49.3173 61.6182 49.2991 62.0743 49.408 62.2019C50.7689 63.8801 49.281 65.1205 48.7729 66.5068Z" fill="#FDFDFD"/>
<path d="M45.0714 103.5C44.0009 103.992 43.7831 105.652 42.2771 105.561H42.3315C42.513 105.269 42.6581 104.704 42.1501 104.922C41.4425 105.233 40.5352 104.868 40.1723 105.178C38.4486 106.728 35.8902 104.868 34.2753 106.82C33.8035 107.385 33.5858 107.148 33.2955 106.4C32.9507 105.506 32.4971 106.272 32.0979 106.418C31.1363 106.783 30.1927 107.203 29.1766 106.582C29.975 105.47 31.2088 104.649 31.4084 103.098C31.608 104.631 32.8963 105.342 33.8943 105.214C34.9648 105.068 36.2168 104.357 36.743 103.117C36.9426 102.661 36.87 102.059 37.6865 102.15C38.7389 102.278 37.9405 102.916 38.0675 103.299C38.2671 103.846 38.4304 104.284 39.2469 104.266C41.9868 104.193 43.1481 102.989 42.9666 100.18C42.9485 99.815 42.8759 99.359 43.3114 99.3407C43.8557 99.3407 44.0734 99.7785 44.0371 100.326C43.9646 101.53 44.146 102.642 45.0895 103.518L45.0714 103.5Z" fill="#FDFDFD"/>
<path d="M39.7006 54.5407C38.993 54.7779 38.3035 55.015 37.8317 55.6534C37.5414 54.3766 36.616 55.2704 36.0172 55.1244C35.4003 54.9785 34.7834 55.1974 34.1846 55.3616C33.8217 54.4678 34.7834 54.486 35.0011 54.103C35.9447 52.4795 36.3801 50.5642 38.2127 49.5427C37.3055 48.8313 36.87 49.9075 36.1261 49.5792C36.3983 48.9225 36.9245 48.4482 37.5051 48.2111C39.6825 47.3173 40.372 45.3108 41.1522 43.3955C41.3518 42.903 41.3155 42.374 42.0776 42.5564C42.8396 42.757 42.6582 43.3225 42.5312 43.7968C42.132 45.256 41.1703 46.4235 40.3175 47.6274C39.8095 48.3388 39.0837 48.9407 39.5917 49.9622C39.6462 50.0899 39.6643 50.3635 39.5917 50.4183C37.5414 51.8411 38.8297 53.1909 39.6643 54.5407H39.7006Z" fill="#FDFDFD"/>
<path d="M59.5509 92.0078C58.5529 93.7954 57.3191 95.3642 55.6135 96.5498C55.2869 96.7687 54.9784 96.787 54.6518 96.8235C53.7083 95.0358 55.2687 93.8137 55.8131 92.4638C56.2848 91.2782 57.2828 89.9466 59.061 90.0378C59.2243 90.658 59.3876 91.3329 59.569 91.9896L59.5509 92.0078Z" fill="#FDFDFD"/>
<path d="M5.64302 72.9824C5.67931 72.3987 5.73375 71.7968 5.77004 71.2131C5.98777 70.7753 6.78614 70.2645 5.64302 69.9727C6.9313 69.316 6.62284 67.8567 7.16718 66.8352C7.45749 66.288 6.78614 66.4521 6.58655 66.288C6.42325 66.142 6.2418 65.8137 6.31438 65.8319C8.23772 66.215 6.98573 64.1903 7.85668 63.8072C8.31029 64.099 7.98369 64.8834 8.65504 65.0658C10.2518 65.4854 9.78001 66.4886 9.36269 67.5648C8.76391 69.1518 7.34862 70.3375 7.2579 72.1798C7.2579 72.5082 6.60469 72.8 6.25994 73.1101C6.04221 73.0736 5.84261 73.0554 5.62488 73.0189L5.64302 72.9824Z" fill="#FDFDFD"/>
<path d="M74.4115 84.1642C74.6111 84.7844 74.8288 85.4046 75.0284 86.0248V85.9883C74.974 86.116 74.9195 86.2436 74.847 86.3713C74.9377 86.3713 75.0284 86.3713 75.1191 86.3713H75.0647C74.974 86.8456 75.9356 87.3928 74.9558 87.9583C74.8288 88.0313 74.3026 89.4176 75.0828 90.1655C75.5365 90.6033 75.0284 91.041 74.8288 91.4059C74.0667 92.8287 73.8127 94.5616 72.3974 95.6013C72.5607 94.5798 71.8531 93.4489 73.4317 92.6827C74.6655 92.0808 74.2119 89.0345 72.9962 88.1772C72.597 87.9036 72.4881 85.2951 72.8329 85.3134C73.7764 85.3681 73.2865 83.6534 74.4115 84.1642Z" fill="#FDFDFD"/>
<path d="M52.7104 31.484C52.8193 30.499 51.8395 29.6599 52.3294 28.5655C52.4382 28.3283 52.1298 28.0365 51.6399 28.0365C50.8234 28.0365 50.2972 27.6899 50.9504 26.7779C52.6378 25.9388 54.3253 25.0814 56.0853 24.2059C55.5773 26.942 54.543 29.3863 52.6923 31.484H52.7104Z" fill="#FDFDFD"/>
<path d="M60.8392 13.5713C61.6739 13.4254 61.8372 12.3127 62.7081 12.2397C63.2888 13.5349 62.5448 14.9577 61.1114 15.1401C60.4219 15.2313 59.8594 15.1766 59.7324 16.1433C59.5872 17.1648 58.5711 16.873 57.8998 17.0736C57.7728 16.5446 57.7909 16.0521 58.0631 15.5779C58.4623 15.4319 59.2788 17.256 59.2788 15.286C59.2788 14.3557 60.2405 14.1003 60.8392 13.5896V13.5713Z" fill="#D0D7C9"/>
<path d="M7.47558 93.7043C7.00382 93.6313 6.53205 93.157 6.84051 92.9381C7.87476 92.1903 7.02196 91.9531 6.56834 91.6613C5.93328 91.26 5.51595 90.8404 6.09658 90.0925C7.49372 89.6365 8.92716 89.9831 10.4876 89.9648C8.38281 90.3844 8.60055 92.5368 7.47558 93.7043Z" fill="#FDFDFD"/>
<path d="M19.3604 67.5466C17.9451 65.0658 20.3402 64.2267 21.1748 62.7492C21.3744 62.4026 21.6829 62.5485 21.9188 62.731C22.2272 62.9498 22.4631 63.4059 22.2454 63.6248C21.32 64.5368 21.193 65.759 20.7394 66.8534C20.5035 67.4371 19.7233 67.0541 19.3604 67.5466Z" fill="#FDFDFD"/>
<path d="M61.075 67.8749C60.0045 66.0143 59.7868 68.0756 59.0428 68.2397C58.5348 66.5798 61.075 66.9811 60.567 65.4854C61.9823 65.9961 61.8915 67.0541 61.6738 67.9844C61.4379 69.0606 60.1859 69.3525 59.6053 70.2098C59.569 70.2645 59.0973 70.1915 59.0247 70.0638C58.8432 69.7355 58.8977 69.316 59.1698 69.0971C59.7686 68.6411 60.4218 68.2762 61.0569 67.8749H61.075Z" fill="#D0D7C9"/>
<path d="M26.5276 64.6645C26.2917 64.9746 26.0377 65.2664 26.074 65.686C25.2756 66.3609 24.4772 67.0358 23.3341 66.2515C23.2071 66.1602 22.8442 66.2332 22.9349 65.9596C23.2978 64.7557 24.8038 64.9928 25.457 64.0443C25.584 63.8619 26.5094 63.8436 26.5457 64.6645H26.5276Z" fill="#D0D7C9"/>
<path d="M13.5722 100.946C13.3 100.654 13.0278 100.344 12.7738 100.052C13.2637 99.7785 13.681 100.089 14.0802 100.289C15.4592 100.982 16.058 100.417 16.1487 98.9759C17.1104 99.2495 17.0378 100.107 17.4733 100.818C15.7132 99.9244 15.8584 101.055 15.8584 102.04C15.0237 101.821 13.9351 102.132 13.5722 100.928H13.5903L13.5722 100.946Z" fill="#FDFDFD"/>
<path d="M11.9755 99.1948C11.2678 98.5564 10.2154 98.3557 9.68922 97.4801C9.56221 97.17 9.41705 96.8417 9.29004 96.5316C10.0521 96.258 10.8142 96.8599 11.6307 96.4039C12.1025 96.1303 12.6468 96.6958 12.4472 97.1153C12.1206 97.8085 12.5742 98.6293 11.9936 99.213L11.9755 99.1948Z" fill="#FDFDFD"/>
<path d="M34.8197 8.00782C35.1282 8.19023 35.4004 8.19023 35.5818 7.84365C35.6544 7.75244 35.7088 7.66124 35.7633 7.57003C36.4528 7.97134 37.0334 6.84039 37.741 7.42411C37.36 7.98958 36.9608 8.53681 36.5979 9.12052C36.3076 9.61303 36.4709 10.598 35.6 10.4339C34.8016 10.2879 34.9105 9.35766 34.7472 8.71922C34.6927 8.50033 34.7834 8.26319 34.8016 8.0443L34.8197 8.00782Z" fill="#FDFDFD"/>
<path d="M24.4771 22.8925C25.0396 21.9075 23.8058 21.1049 24.2231 20.1564C25.8198 19.2261 26.1465 20.9225 27.0174 21.488C25.6928 21.3603 25.4388 22.856 24.4227 23.2026C24.459 23.1661 24.5316 23.1479 24.5316 23.1296C24.5316 23.0567 24.4953 22.9837 24.4771 22.8925Z" fill="#FDFDFD"/>
<path d="M41.8053 81.4645C41.134 81.045 40.4626 80.6437 39.6461 81.1362C40.6441 80.5342 41.6602 80.2241 42.8033 80.6619C43.0392 81.045 42.7307 81.9205 43.6924 81.6104C43.7468 81.6652 43.8194 81.7199 43.8738 81.7928C43.4384 82.2489 43.7287 82.942 43.2569 84.0183C43.1662 82.5407 42.259 82.1759 41.8053 81.4645Z" fill="#D0D7C9"/>
<path d="M51.4946 4.87038C51.5672 4.66973 51.7668 4.34139 51.912 4.54204C52.5652 5.4541 53.5994 5.38113 54.4885 5.70947C54.8514 6.27494 55.4865 5.70947 55.9401 6.03781C55.5953 6.54856 55.2324 6.94986 54.5429 6.60328C54.2889 6.47559 53.8716 6.22022 53.7627 6.29318C51.295 8.48211 52.3474 5.144 51.4946 4.85214V4.87038Z" fill="#FDFDFD"/>
<path d="M66.591 100.052C66.591 99.6143 66.3914 99.1583 66.9358 98.8665C67.6071 98.5016 67.7523 97.8632 67.7704 97.17C68.6414 97.0059 69.4035 97.4436 70.22 97.6078C70.0385 98.1003 69.2402 98.0091 69.222 98.7023C69.222 98.9759 68.8228 99.3407 68.6232 99.1583C67.1535 97.7902 67.6979 99.6873 67.2805 99.9792C67.1354 100.07 67.0083 100.18 66.8632 100.289C66.7725 100.216 66.6999 100.125 66.6092 100.07L66.591 100.052Z" fill="#FDFDFD"/>
<path d="M5.64296 72.9824C5.86069 73.0189 6.07843 73.0372 6.27802 73.0736C6.31431 73.6756 6.73164 73.7668 7.11268 73.5661C7.83846 73.2196 8.2195 73.5844 8.07435 74.1681C7.8929 74.8065 7.85661 73.7121 7.53 74.0039C7.02195 74.4417 6.44132 74.8248 5.95142 75.3173C5.67924 75.6091 5.55223 76.0287 5.02604 75.9557C4.88088 75.0254 6.3506 74.0951 4.98975 73.1831C5.20748 73.1284 5.42522 73.0554 5.64296 73.0007V72.9824Z" fill="#D0D7C9"/>
<path d="M29.5215 47.7733C29.9388 47.4997 30.5013 47.5544 30.4106 48.0469C30.3017 48.7401 29.9751 49.7616 29.4852 49.944C28.9771 50.1264 28.3239 49.1414 28.1969 48.5577C27.9429 47.3903 29.1404 48.1929 29.5215 47.7733Z" fill="#D0D7C9"/>
<path d="M70.474 58.0612C71.1998 58.6632 71.4538 59.3928 71.0727 60.2867C70.728 60.4143 70.4558 61.0163 70.0748 60.7609C69.3853 60.2684 69.7119 59.3928 69.5486 58.6997C69.4034 58.0065 70.0204 58.0795 70.474 58.0612Z" fill="#D0D7C9"/>
<path d="M48.8636 23.1114C47.8112 22.3818 47.3395 21.0502 46.1238 20.5029C48.2467 20.3205 49.1177 21.1414 48.8636 23.1114Z" fill="#FDFDFD"/>
<path d="M24.4953 69.699L24.4591 69.772C24.0599 69.9179 23.6244 70.0638 23.4792 69.4984C23.2978 68.7322 23.2978 68.0026 24.2595 67.5466C24.6586 68.2762 24.7675 68.9511 24.4953 69.699Z" fill="#D0D7C9"/>
<path d="M5.38901 84.2007C4.35476 83.3433 4.79023 82.3401 5.09869 81.3368C7.14904 82.0847 6.06036 83.1609 5.38901 84.2007Z" fill="#FDFDFD"/>
<path d="M50.1519 72.8912C50.2426 73.6573 51.295 73.8397 50.6781 74.6423C50.3515 75.0436 49.7346 74.9707 49.6257 74.8248C49.1176 74.1498 49.8979 73.7121 50.1519 72.8912Z" fill="#D0D7C9"/>
<path d="M59.2787 44.2893C59.1517 43.4684 58.317 42.7753 59.2424 42.0456C59.5872 41.772 59.5146 42.1551 59.6235 42.3192C60.0226 42.9942 60.694 43.6691 59.2787 44.2893Z" fill="#D0D7C9"/>
<path d="M21.6829 79.8228C21.3744 79.1844 20.9571 78.8013 20.195 78.856C19.9047 78.8743 19.5963 78.6554 19.7051 78.2905C19.7958 77.9622 20.1224 77.871 20.3946 78.0534C21.0297 78.473 21.9732 78.6919 21.6829 79.8228Z" fill="#D0D7C9"/>
<path d="M39.3558 42.9759C39.5554 43.4502 39.1199 43.3225 38.9748 43.3407C38.3942 43.4502 38.1401 43.1036 38.0494 42.5929C37.9768 42.1733 38.1038 41.8815 38.503 41.8267C39.5191 41.6626 38.7752 42.8117 39.3558 42.9942V42.9759Z" fill="#D0D7C9"/>
<path d="M24.7675 86.7544C24.6224 85.1492 25.7292 85.514 26.7997 85.4593C26.2917 86.3713 25.0578 85.8423 24.7675 86.7544Z" fill="#D0D7C9"/>
<path d="M39.4102 44.8182C38.8115 45.2925 38.1946 45.7485 38.1038 46.6606C38.0675 45.785 37.6139 44.9277 38.3034 44.2163C38.376 44.1433 38.9566 44.5446 39.3014 44.727L39.4284 44.8182H39.4102Z" fill="#D0D7C9"/>
<path d="M44.8719 50.6736C45.1259 51.3486 45.1259 51.9688 44.8356 52.589C44.8356 52.6072 44.3638 52.516 44.2731 52.3883C43.8739 51.6769 44.3819 51.1844 44.8537 50.6919L44.8719 50.6736Z" fill="#D0D7C9"/>
<path d="M17.7092 98.8482C17.5822 98.2645 17.4733 97.6808 17.3281 97.0424C18.0539 97.3707 18.1809 97.9726 17.7092 98.8482Z" fill="#D0D7C9"/>
<path d="M26.4187 54.6867C26.0376 54.7232 25.7836 54.6137 25.838 54.3401C25.9469 53.7381 26.4005 53.3186 26.8904 53.0632C27.2715 52.8626 27.6162 53.2274 27.5436 53.6105C27.4166 54.2306 26.4731 54.03 26.4187 54.6867Z" fill="#D0D7C9"/>
<path d="M62.6536 63.3329C62.1819 63.57 61.8553 63.4059 61.6194 63.0228C62.073 62.7674 62.5266 62.4938 62.9984 62.2749C63.2343 62.1655 63.3976 62.3114 63.4157 62.6033C63.452 63.2052 63.1254 63.3694 62.6536 63.3329Z" fill="#D0D7C9"/>
<path d="M57.5913 17.4567C58.19 18.3505 57.9179 19.0619 57.1376 19.6639L57.1014 19.6274C56.8473 18.8065 56.4481 17.9492 57.6094 17.4749H57.5913V17.4567Z" fill="#D0D7C9"/>
<path d="M48.1379 73.6938C48.2468 72.7635 48.3738 71.8515 48.4826 70.9212C48.5734 71.1583 48.7548 71.1765 48.9544 71.1218L48.9181 71.0853C49.1177 72.0886 48.9181 72.9824 48.1198 73.6756L48.1379 73.6938Z" fill="#FDFDFD"/>
<path d="M57.3917 40.0756C57.1014 40.3675 56.8655 40.8052 56.5571 40.8782C56.303 40.9329 55.9764 40.5134 55.668 40.2945C55.9401 40.0209 56.176 39.6378 56.5026 39.5101C56.8837 39.3642 57.047 39.8567 57.3917 40.0938V40.0756Z" fill="#D0D7C9"/>
<path d="M40.6804 19.5544C40.1905 19.8827 39.6098 20.1381 39.1562 19.6821C38.7207 19.2261 39.4102 19.0619 39.5735 18.77C40.1723 18.7153 40.2812 19.372 40.6804 19.5726V19.5544Z" fill="#D0D7C9"/>
<path d="M48.9726 71.1218C48.9726 71.1218 48.9726 71.0124 48.9726 70.9577C49.027 70.3557 49.1903 69.8267 49.8617 69.6808C49.9342 69.6808 50.1338 69.9179 50.1157 70.0274C50.0613 70.7388 49.7891 71.2495 48.9363 71.0853L48.9726 71.1218Z" fill="#FDFDFD"/>
<path d="M55.0328 42.3192C55.1054 42.83 56.2667 42.9759 55.559 43.9244C55.2506 43.359 54.8151 42.9941 55.0328 42.3192Z" fill="#D0D7C9"/>
<path d="M68.3511 79.987C69.0043 80.5342 68.5326 80.972 68.1697 81.3551C68.079 81.4645 67.7524 81.3551 67.5165 81.3551C67.7705 80.899 67.6616 80.2059 68.3149 79.9688H68.333L68.3511 79.987Z" fill="#D0D7C9"/>
<path d="M63.0528 21.8528C62.9984 21.0502 63.4338 20.7218 64.3229 20.5941C64.1596 21.4697 63.7786 21.8345 63.0347 21.8163L63.071 21.8528H63.0528Z" fill="#FDFDFD"/>
<path d="M60.694 60.2137C61.1839 60.1042 61.2384 60.4691 61.2928 60.8156C61.3654 61.2169 61.2384 61.5088 60.8029 61.5453C60.44 61.5818 60.2586 61.0893 60.4582 61.0528C61.3654 60.9251 59.8049 60.2137 60.7122 60.2137H60.694Z" fill="#D0D7C9"/>
<path d="M63.0166 21.8345C62.9622 22.3635 62.7626 22.7466 62.1819 22.4912C62.0368 22.4365 61.9279 21.8893 62.0368 21.7433C62.3815 21.2873 62.6718 21.9805 63.0529 21.871L63.0166 21.8345Z" fill="#FDFDFD"/>
<path d="M59.9683 7.2782C60.4945 7.16875 59.805 6.58504 60.186 6.5668C60.9662 6.53031 61.0569 7.3694 61.5106 7.78895C60.8029 8.20849 60.4037 7.66126 59.9683 7.2782Z" fill="#FDFDFD"/>
<path d="M11.5581 59.9948C11.1408 60.1225 10.7235 60.2502 10.1428 60.4326C10.415 59.3928 11.1226 59.9036 11.3948 59.3564C11.4492 59.5752 11.5037 59.7759 11.5763 59.9948H11.5581Z" fill="#D0D7C9"/>
<path d="M8.43726 96.331L7.56631 96.9147C7.58445 96.4586 7.22156 95.8567 8.03807 95.729C8.01993 96.0209 8.03807 96.2945 8.43726 96.3127V96.331Z" fill="#D0D7C9"/>
<path d="M43.6925 81.6287C43.7469 81.2273 44.0009 81.0267 44.3457 80.9537C44.4183 80.9537 44.6178 81.1544 44.5997 81.2638C44.5634 81.7199 44.0916 81.6286 43.8558 81.8111C43.8013 81.7563 43.7469 81.6834 43.6743 81.6287H43.6925Z" fill="#D0D7C9"/>
<path d="M9.29013 96.5316C9.41714 96.8417 9.5623 97.17 9.68932 97.4801C8.7095 97.7355 8.81837 97.1153 8.90909 96.4951C9.03611 96.4951 9.16312 96.5134 9.29013 96.5316Z" fill="#D0D7C9"/>
<path d="M39.628 18.843C39.3558 18.843 39.1018 18.8065 38.8296 18.7883C38.7389 18.6059 38.5937 18.314 38.8478 18.2593C39.2288 18.1863 39.5917 18.3505 39.628 18.843Z" fill="#D0D7C9"/>
<path d="M9.61664 61.0163C9.36262 60.9251 9.30818 60.7792 9.39891 60.615C9.47149 60.5055 9.61664 60.4326 9.72551 60.3414C9.7618 60.4326 9.87067 60.5603 9.83438 60.6332C9.79809 60.7792 9.67108 60.8886 9.5985 60.998L9.61664 61.0163Z" fill="#D0D7C9"/>
<path d="M56.9563 38.8717C56.9563 38.8717 56.8474 38.7257 56.793 38.6528C56.9018 38.5798 57.0289 38.5251 57.1377 38.4521C57.174 38.5433 57.2466 38.671 57.2103 38.7075C57.1559 38.7805 57.0288 38.8169 56.9381 38.8717H56.9563Z" fill="#D0D7C9"/>
<path d="M59.3513 17.7668C59.3513 17.7668 59.2242 17.9492 59.1517 17.9674C58.9884 18.0039 58.8251 17.9674 58.9339 17.7485C58.9702 17.6573 59.0972 17.5844 59.188 17.5844C59.2424 17.5844 59.2968 17.7121 59.3694 17.785L59.3513 17.7668Z" fill="#D0D7C9"/>
<path d="M68.333 79.9687C68.3512 79.8228 68.3693 79.6586 68.3874 79.5127C68.4419 79.5309 68.5145 79.5492 68.5689 79.5857C68.4963 79.7316 68.4237 79.8593 68.3511 80.0052H68.333V79.9687Z" fill="#D0D7C9"/>
<path d="M47.775 74.4052C47.8295 74.1134 47.775 73.7668 48.1742 73.6573C48.4464 74.1134 48.2286 74.3323 47.775 74.4052Z" fill="#FDFDFD"/>
<path d="M56.303 41.9362C56.303 41.9362 56.2123 42.1003 56.1578 42.1551C56.1216 42.1733 56.049 42.1733 55.9945 42.1551C55.8312 42.0821 55.8312 41.9726 55.9945 41.9179C56.0853 41.8814 56.1941 41.9179 56.303 41.9362Z" fill="#D0D7C9"/>
<path d="M29.0496 86.499C29.0496 86.499 28.9045 86.572 28.8319 86.6085C28.9045 86.572 28.9952 86.5355 29.0678 86.499H29.0496Z" fill="#FDFDFD"/>
<path d="M39.3014 44.727C39.3558 44.5811 39.4103 44.4534 39.4647 44.3075C39.501 44.344 39.5736 44.3805 39.5736 44.4169C39.5373 44.5446 39.4828 44.6723 39.4284 44.8182L39.3014 44.727Z" fill="#D0D7C9"/>
<path d="M72.6151 31.484C72.5788 31.7212 72.5062 31.9218 72.2159 31.8853C72.1614 31.8853 72.0889 31.7941 72.0889 31.7941C72.2159 31.63 72.3429 31.4658 72.4518 31.3016C72.5062 31.3564 72.5606 31.4293 72.6151 31.484Z" fill="#FDFDFD"/>
<path d="M54.6336 96.8417C54.5792 97.2065 54.2526 97.17 54.0167 97.243C54.0893 96.8964 54.1437 96.5316 54.6336 96.8417Z" fill="#FDFDFD"/>
<path d="M49.6621 53.7564C49.7891 53.574 49.771 53.1179 50.1157 53.3186C50.3879 53.4828 50.1883 53.7746 49.9343 53.9388C49.8436 53.8841 49.7528 53.8293 49.6621 53.7564Z" fill="#FDFDFD"/>
<path d="M12.792 100.07C12.5743 100.07 12.4654 99.9791 12.4473 99.7603C12.6287 99.7603 12.8102 99.815 12.792 100.07Z" fill="#FDFDFD"/>
<path d="M33.7128 41.8085C33.7128 41.8085 33.8943 41.8632 33.985 41.8997C33.9487 41.9544 33.8943 42.0274 33.858 42.0821C33.8036 42.0091 33.7491 41.9179 33.6947 41.845L33.731 41.8085H33.7128Z" fill="#FDFDFD"/>
<path d="M4.51807 76.2476C4.60879 76.1564 4.71766 76.0652 4.80838 75.9922C4.71766 76.0834 4.60879 76.1746 4.51807 76.2476Z" fill="#D0D7C9"/>
<path d="M57.1377 19.6639L56.9925 19.9192C56.7748 19.7186 56.9562 19.6821 57.1014 19.6456L57.1377 19.6821V19.6639Z" fill="#D0D7C9"/>
<path d="M25.2756 68.6046C25.2575 68.6958 25.203 68.7687 25.1123 68.787L25.1304 68.6228L25.2756 68.5863V68.6046Z" fill="#D0D7C9"/>
<path d="M57.6094 17.4749C57.6094 17.2743 57.6457 17.0919 57.8997 17.0736C57.7909 17.2013 57.682 17.329 57.5731 17.4567H57.5913L57.6094 17.4749Z" fill="#D0D7C9"/>
<path d="M5.64295 69.9727C6.78607 70.2645 5.9877 70.7753 5.76996 71.213C4.6087 71.9244 4.62685 70.4287 4.62685 70.301C4.62685 69.4801 5.42521 70.5564 5.64295 69.9727Z" fill="#D0D7C9"/>
<path d="M24.2776 108.899C24.459 108.473 24.9368 108.431 25.711 108.771C24.9852 109.081 24.6949 110.377 23.5699 109.592C23.4611 109.519 23.1708 109.464 23.3885 109.282C23.5518 109.154 23.824 109.173 24.0417 109.136C24.1506 109.191 24.2413 109.246 24.3502 109.3C24.3139 109.173 24.2957 109.045 24.2594 108.917L24.2776 108.899Z" fill="#D0D7C9"/>
<path d="M13.5541 100.928C13.9533 101.548 13.3908 101.566 13.1005 101.913C12.3747 102.715 12.3929 101.438 11.9574 101.621L11.9937 101.657C11.5582 101.238 11.6852 100.928 12.2295 100.964C12.6832 101.001 13.1186 101.457 13.5723 100.964H13.5541V100.928Z" fill="#D0D7C9"/>
<path d="M77.8407 60.2502C77.9133 60.7244 77.623 60.8157 77.3508 60.8521C77.0424 60.9069 76.5887 61.0163 76.5887 60.5055C76.5887 60.2684 76.8791 59.8489 77.0242 59.8489C77.3145 59.8489 77.6049 60.1042 77.8407 60.2319V60.2502Z" fill="#FDFDFD"/>
<path d="M6.84058 97.8085C7.09461 98.0638 6.9676 98.3192 6.82244 98.5746C6.82244 98.5746 6.69543 98.5381 6.67728 98.5016C6.55027 98.228 6.42326 97.9544 6.87687 97.845L6.84058 97.8085Z" fill="#D0D7C9"/>
<path d="M11.9573 101.621C11.8847 101.749 11.8122 101.894 11.7396 102.022C11.7396 101.986 11.6851 101.949 11.7033 101.913C11.7396 101.749 11.6126 101.42 11.9936 101.639L11.9573 101.603V101.621Z" fill="#D0D7C9"/>
<path d="M42.2771 105.561C42.4585 105.579 42.5674 105.67 42.5311 105.871C42.5311 105.907 42.4404 105.926 42.386 105.944C42.386 105.816 42.3497 105.689 42.3315 105.561H42.2771Z" fill="#FDFDFD"/>
<path d="M48.3012 1.20393C48.3012 1.20393 48.2467 1.33162 48.2104 1.40458C48.1741 1.3681 48.1016 1.33162 48.1016 1.31337C48.1016 1.24041 48.156 1.16745 48.1923 1.09448C48.2286 1.13096 48.2649 1.16745 48.3193 1.20393H48.3012Z" fill="#FDFDFD"/>
<path d="M66.8633 100.289C66.7181 100.326 66.5185 100.435 66.4641 100.38C66.3008 100.235 66.4641 100.125 66.6093 100.052C66.7 100.125 66.7907 100.198 66.8633 100.271V100.289Z" fill="#FDFDFD"/>
<path d="M6.87687 97.8267C6.87687 97.8267 7.00388 97.6626 7.05831 97.5714C7.20347 97.845 7.00388 97.8085 6.84058 97.7902L6.87687 97.8267Z" fill="#D0D7C9"/>
<path d="M75.0283 86.0248H75.2461C75.1735 86.1342 75.119 86.2437 75.0465 86.3531L75.1009 86.3713C75.1009 86.2437 75.0646 86.116 75.0465 85.9883V86.0248H75.0283Z" fill="#FDFDFD"/>
<path d="M35.5817 7.84365C35.5817 7.84365 35.4184 7.69773 35.3458 7.60652C35.491 7.60652 35.6361 7.57004 35.7813 7.57004C35.7269 7.66124 35.6724 7.75245 35.5999 7.84365H35.5817Z" fill="#FDFDFD"/>
<path d="M72.9961 68.9876C73.0324 69.1336 73.1413 69.3707 73.105 69.4072C72.9054 69.5531 72.8691 69.3525 72.8147 69.2065C72.8691 69.1336 72.9417 69.0606 72.9961 68.9876Z" fill="#FDFDFD"/>
<path d="M4.97166 69.2977C4.97166 69.2977 5.04424 69.3707 5.08053 69.3889C5.04424 69.4254 5.00795 69.4801 4.97166 69.4801C4.93537 69.4801 4.89908 69.4254 4.86279 69.3889C4.89908 69.3525 4.93537 69.316 4.97166 69.2977Z" fill="#D0D7C9"/>
<path d="M2.19546 69.5349C2.19546 69.5349 2.28618 69.6625 2.32247 69.7355C2.32247 69.7537 2.26804 69.8085 2.23175 69.845C2.19546 69.772 2.14103 69.7173 2.10474 69.6443C2.10474 69.6261 2.15917 69.5713 2.19546 69.5349Z" fill="#FDFDFD"/>
<path d="M74.357 16.1981C74.3207 16.3075 74.3025 16.417 74.2663 16.5082C74.2118 16.4717 74.1574 16.4352 74.1211 16.3987C74.2118 16.3257 74.2844 16.271 74.3751 16.1981H74.357Z" fill="#FDFDFD"/>
<path d="M24.4772 22.8925C24.4772 22.8925 24.5317 23.0385 24.5317 23.1297C24.5317 23.1479 24.4591 23.1844 24.4228 23.2026C24.4046 23.7134 24.3865 24.2241 24.3502 24.7349C23.5337 23.4945 23.5156 23.4398 23.6789 22.0717C24.1325 22.1811 23.8785 22.9473 24.4409 22.8925H24.4772Z" fill="#6EBD6C"/>
<path d="M20.4854 22.4C20.1588 22.3818 19.814 22.2176 19.8503 21.9257C19.8866 21.6156 20.1225 21.2326 20.5398 21.2873C20.7938 21.3238 21.0116 21.5792 21.2293 21.7433C20.9571 21.9257 20.9027 22.3818 20.4672 22.4H20.4854Z" fill="#FDFDFD"/>
<path d="M24.3683 24.7166L24.6586 24.7896C24.459 25.0997 24.4772 24.7349 24.3864 24.6984L24.3683 24.7166Z" fill="#6EBD6C"/>
<path d="M41.8598 74.1316C42.1683 74.8795 42.0957 75.4085 41.7146 75.3538C40.2994 75.1713 39.9727 76.3205 39.3558 77.1414C39.3377 77.2508 39.3377 77.342 39.3558 77.4515C38.0494 78.1811 36.8337 79.2026 35.4366 79.5492C33.8943 79.9505 32.1524 79.9687 30.5738 79.7134C29.9206 79.6039 29.4488 78.3453 28.9408 77.5792C28.0154 76.1564 28.1968 74.6241 28.3601 73.0371C28.4146 72.5082 28.0335 71.8332 27.6343 71.4137C27.1807 70.9029 27.09 70.4287 27.2715 69.5531C27.9428 71.5961 28.8319 70.374 29.0678 69.7355C29.6484 68.185 30.9548 67.1453 31.2996 65.3029C31.5536 63.9166 32.9145 62.5303 33.3862 60.9069C33.6221 60.1225 34.4205 61.4541 35.1281 60.688C36.7611 58.9368 38.63 60.7427 40.3901 60.7427C40.7893 60.7427 41.2247 61.6912 41.6058 62.2202C42.3497 63.2964 43.0029 64.4274 43.8013 65.4489C44.2186 65.9961 43.9283 67.0176 44.9444 67.1453C43.4747 67.7472 44.7992 69.3342 43.892 70.1186C43.7106 70.2827 43.4565 70.4287 43.5835 70.6476C44.7085 72.6176 42.767 72.6906 41.9142 73.4749C41.8054 73.5844 41.8779 73.8945 41.8779 74.1134L41.8054 74.0769V74.1499L41.8598 74.1316Z" fill="#FDFDFD"/>
<path d="M39.374 77.4515C39.3377 77.342 39.3377 77.2508 39.374 77.1414C40.1542 76.8313 40.9163 76.3935 41.8417 76.6124C41.2429 77.5609 40.372 77.6886 39.3922 77.4332L39.374 77.4515Z" fill="#D0D7C9"/>
<path d="M32.5879 80.5342C32.5879 80.5342 32.5154 80.6984 32.4791 80.7713C32.4428 80.7349 32.3521 80.6984 32.3521 80.6619C32.3521 80.5707 32.4065 80.4977 32.4428 80.4065C32.4791 80.443 32.5335 80.4795 32.5879 80.516V80.5342Z" fill="#FDFDFD"/>
<path d="M75.0647 85.9883C75.0647 86.116 75.101 86.2437 75.1191 86.3713C75.0284 86.3713 74.9376 86.3713 74.8469 86.3713C74.9195 86.2437 74.9921 86.116 75.0647 85.9883Z" fill="#25201D"/>
<path d="M24.2776 108.899C24.3138 109.027 24.332 109.154 24.3683 109.282C24.2594 109.227 24.1687 109.173 24.0598 109.118C24.1324 109.027 24.205 108.954 24.2776 108.881V108.899Z" fill="#25201D"/>
<path d="M41.8598 74.1316L41.8417 74.0587L41.9143 74.0951L41.8598 74.1316Z" fill="#25201D"/>
</g>
<defs>
<clipPath id="clip0_82_458">
<rect width="80" height="112" fill="white"/>
</clipPath>
</defs>
</svg>
