<svg width="69" height="89" viewBox="0 0 69 89" fill="none" xmlns="http://www.w3.org/2000/svg">
<g clip-path="url(#clip0_82_575)">
<path d="M56.1255 86.0957C55.7722 85.9208 55.0835 85.7983 55.3661 86.3057C56.1078 87.6879 55.0482 87.5304 54.3241 87.8628C52.1342 88.8776 49.9089 87.7578 47.7013 88.0902C46.5711 88.2652 45.3348 87.4779 44.2752 88.4927C44.2222 88.5451 44.0456 88.5101 43.9396 88.4927C42.2972 88.3177 40.7254 88.7026 39.1006 88.965C37.9703 89.14 36.7518 88.4052 35.4625 88.2827C33.5022 88.0728 31.6125 87.198 29.6522 88.1602C28.2394 88.8601 27.268 87.6529 26.0848 87.4779C25.7139 87.3029 25.343 87.128 24.9721 86.953H24.9368C24.6013 86.3757 23.7712 86.3757 23.5416 85.4484C23.2591 86.2182 24.0361 86.6731 23.5416 87.1455C21.4577 86.6556 19.6563 85.5534 17.8549 84.5037C15.665 83.2265 13.8283 81.4769 11.9916 79.7798C10.7907 78.6776 9.94296 77.0505 9.00695 75.6159C8.47713 74.8111 8.2652 74.0063 7.27621 73.4464C6.41084 72.9566 5.40418 72.0293 5.63377 70.7521C5.86336 69.37 4.55648 68.9326 4.06198 68.0053C3.03766 66.0983 2.66679 64.0338 1.99569 62.0393C1.69546 61.1296 1.62481 60.1848 1.02435 59.345C3.79859e-05 57.9454 0.759444 56.2833 0.582838 54.7262C0.229626 51.577 0.0176986 48.3928 0.123662 45.2261C0.194305 43.424 -0.618083 41.2896 1.2716 39.8374C1.41289 39.7325 1.53651 39.61 1.37757 39.435C-0.353174 37.703 1.44821 36.0934 1.62481 34.4488C1.81908 32.6293 2.45486 30.8972 3.92069 29.5675C4.37987 29.1476 3.17895 29.2526 3.44386 28.7977C3.85005 28.1154 3.77941 27.2406 4.57414 26.6983C5.52781 26.0509 6.02231 25.0712 5.934 23.8465C5.88102 23.0942 6.87001 21.4496 7.78837 20.5748C7.82369 20.5398 7.91199 20.5048 7.89433 20.4873C7.25855 18.2654 9.78401 17.4431 10.1372 15.4836C10.4021 14.014 11.4088 12.4219 12.3448 11.0922C13.0336 10.095 12.9099 8.92275 13.7047 7.92551C14.676 6.70082 15.3471 5.82604 17.1662 6.26343C18.3494 6.54335 19.1088 5.1787 19.9918 4.49637C22.0758 2.90427 24.3893 1.80205 26.9325 1.41715C29.7405 0.997256 32.5485 0.524876 35.4272 0.34992C37.8467 0.209955 40.2662 -0.122461 42.7034 0.0524951C43.2862 0.0874862 44.1162 -0.104965 43.6217 1.01475C43.5688 1.13722 44.2222 1.76706 44.3635 1.71458C45.0523 1.45214 44.5931 0.734823 44.7697 0.262442C45.7763 0.367415 46.6594 0.717327 47.5424 1.10223C48.2135 1.38216 47.878 1.66209 47.7543 1.9945C47.2422 1.59211 46.8183 1.90703 46.3591 2.23944C46.73 2.29193 47.0832 2.32692 47.4541 2.37941C47.9133 2.55436 48.3548 2.88678 48.9906 2.60685C48.5314 2.30942 48.0546 2.012 48.3371 1.29468C49.3438 2.11697 50.8273 2.0295 51.6573 3.1842C51.7456 3.32417 52.1518 3.41165 52.2754 3.32417C53.3881 2.58935 53.3527 3.5866 53.9355 4.11147C55.2601 5.31866 56.1431 6.56085 56.0195 8.3454C57.0615 8.41538 55.7193 7.34815 56.8672 7.57559C57.4853 8.18794 57.8209 9.16769 57.9092 10.2699C57.9445 10.7773 57.8739 11.3022 58.0328 11.757C58.6686 13.4891 57.8562 15.1337 57.8562 16.7608C57.8562 19.1052 56.9732 21.0997 56.3904 23.2166C55.5956 26.1209 54.9775 29.0952 53.4057 31.737C52.6816 32.9442 49.8736 33.9414 48.3371 33.4516C46.9949 33.0142 45.7234 32.3843 44.4165 31.8595C44.2575 31.7895 44.0809 31.772 43.9396 31.6845C43.4275 31.3871 44.2928 30.3198 43.3745 30.4423C42.3325 30.5648 43.3922 31.4571 43.2155 31.5795C42.827 31.842 42.2442 31.8245 41.7497 31.9294C39.1359 32.5068 36.4869 32.7342 33.8378 33.0317C32.4779 33.1891 32.0364 34.2563 32.054 35.3586C32.0894 36.7932 32.7605 38.2453 31.5066 39.505C32.8311 39.9949 31.6655 41.2371 32.2836 42.0419C32.9018 42.8467 33.0077 43.8789 31.5595 44.1413C30.8531 44.2638 30.9238 44.7712 31.0474 45.1561C31.5066 46.5033 32.5485 47.6405 32.5662 49.1626C32.5662 49.355 32.7251 49.39 32.9194 49.3025C33.979 48.7952 34.3852 50.0199 34.3852 50.2823C34.3852 52.6267 36.2573 52.2243 37.5642 52.4343C39.9483 52.8017 42.3678 52.8891 44.4518 51.3145C44.699 51.1221 44.9463 51.1396 45.2465 51.2271C46.4651 51.612 47.3658 51.1571 48.3018 50.3698C49.0436 49.7574 50.1385 49.6525 51.0569 49.2151C53.2644 48.1653 55.4014 46.4333 58.1917 47.0806C60.2051 47.553 62.3596 47.8329 63.8785 49.3025C64.6379 50.0199 65.0441 51.2621 65.3796 52.2593C65.6445 53.0816 66.0154 53.344 66.6335 53.4665C67.3929 53.6065 67.6932 54.1313 67.6578 54.7262C67.5695 56.2483 68.3466 57.7529 67.8698 59.24C67.4459 60.5347 68.276 61.5495 68.4702 62.6692C68.8058 64.6287 68.5232 66.5532 68.7705 68.4777C68.8941 69.5274 68.5762 70.5597 68.8588 71.6269C69.0707 72.3967 69.1237 73.2365 68.3996 73.9713C67.5519 74.8286 67.4812 76.1233 66.8101 77.1555C66.192 78.1178 65.6092 78.7476 64.5319 78.9576C64.8498 79.7624 65.256 78.9051 65.7505 79.4474C63.1367 82.3692 59.1631 83.3839 56.2667 85.8858C56.2138 85.9558 56.1431 86.0433 56.1078 86.1307L56.1255 86.0957ZM53.8826 11.722C53.8826 11.722 54.0062 11.5646 54.0592 11.4771C54.0062 11.5646 53.9532 11.6696 53.9179 11.757C53.7766 11.8445 53.6353 11.932 53.4764 12.037C52.8229 13.1217 53.2115 14.4164 52.7699 15.5536C52.6816 15.781 52.7699 16.1309 52.9112 16.3584C53.2644 16.9707 53.9179 16.7083 54.4477 16.7783C54.642 16.7958 54.9952 16.7433 54.8539 16.4459C54.6949 16.1309 54.8186 15.3611 54.4654 15.5186C53.5823 15.9035 53.9002 15.0637 53.9355 14.9937C54.3594 13.8915 53.7943 12.9817 53.4587 12.0195C53.7766 12.1944 53.7766 11.8795 53.8826 11.7395V11.722ZM31.9304 81.6169C31.4536 81.7918 30.9591 80.8646 30.4999 81.6694C30.3939 81.8793 29.9701 81.8793 30.1997 82.2992C30.5352 82.9291 31.5949 82.4742 31.7362 83.3315C32.4779 83.0515 32.0364 82.4917 32.054 82.0368C32.054 81.8793 31.9481 81.7219 31.9128 81.5644C32.0364 81.7044 32.16 81.7743 32.213 81.5119C32.1247 81.5469 32.0187 81.5644 31.9304 81.5994V81.6169ZM18.6673 23.4791C19.2854 22.1669 21.1221 21.3271 20.2568 19.4201C20.1155 19.0877 20.0978 18.7728 19.6563 18.8078C19.2678 18.8427 19.0382 19.0877 18.9852 19.4551C18.8262 20.7498 18.6673 22.0444 18.5084 23.3391C18.3847 23.4091 18.2434 23.4791 18.1198 23.5666C18.1198 23.5666 18.1728 23.7415 18.2258 23.759C18.4554 23.829 18.632 23.759 18.6673 23.4791ZM45.6704 56.8082C45.6704 56.8082 45.5644 56.8606 45.5114 56.8606C45.4761 56.8606 45.4055 56.8257 45.4055 56.8082C45.3878 56.4582 45.3701 56.0908 45.3348 55.1636C44.752 56.2483 44.4518 57.2106 43.3922 56.5632C43.3039 56.5107 42.7034 56.7207 42.88 57.0356C43.5334 58.2078 43.3039 59.6424 44.0633 61.0246C44.4695 59.9924 44.7697 59.2225 45.0876 58.4527C45.3172 57.8929 46.2532 57.5955 45.6704 56.7732L45.9 56.9656C45.9 56.9656 45.9529 56.8606 45.9883 56.8082C45.8823 56.8082 45.7763 56.8082 45.6704 56.8082ZM29.9701 54.2188C30.2527 54.2363 30.5529 54.3413 30.7295 53.9914C30.4646 53.9564 30.2173 53.9389 29.9524 53.9039C29.8818 53.6065 30.3233 53.5015 30.288 53.4315C29.3166 51.6645 28.3453 49.8974 27.3387 48.1478C27.0738 47.6755 26.7912 48.0779 26.5263 48.1828C26.0848 48.3753 26.1554 48.7952 26.3497 49.0226C27.374 50.1248 27.2504 51.542 27.4093 52.8541C27.6742 55.0586 28.1334 55.3385 29.9524 54.1838L29.9701 54.2188ZM58.4743 72.4667C57.2381 74.7236 59.0395 77.7854 56.1431 79.6924C57.6796 79.6924 58.4567 78.6776 59.6399 78.5552C60.0638 78.5027 60.5406 77.3305 61.3707 76.9631C61.6356 76.8406 61.6003 76.0358 60.8762 76.1408C58.7216 76.4207 58.6862 75.0386 58.6686 73.5514C58.6686 73.2365 59.0571 72.7816 58.4743 72.4842V72.4667ZM26.1907 78.7126C25.343 80.0248 24.8132 81.3719 23.1354 81.8268C23.8242 82.3167 24.301 82.6841 24.8309 82.9815C25.4137 83.3315 26.7912 82.9815 26.6852 82.5616C26.385 81.3544 26.4556 80.3222 27.5153 79.4824C27.1621 79.7449 26.7912 80.0073 26.3673 80.3222L26.1907 78.7126ZM57.0261 54.6037C57.6619 53.9214 58.2624 53.3615 58.7216 52.7142C58.9158 52.4518 59.5516 52.2243 59.1984 51.7869C59.0041 51.5595 58.492 51.507 58.1211 51.507C57.5383 51.507 56.9555 51.6295 56.3727 51.6994C56.7259 52.6442 56.0725 53.8164 57.0261 54.6037ZM12.751 74.1288C12.9982 73.7439 14.1815 74.0413 13.9519 73.7439C12.9806 72.4842 13.7577 71.3295 13.846 70.1398C13.8636 69.8773 13.7577 69.6849 13.4927 69.7024C13.2808 69.7024 13.0689 69.8074 12.857 69.8773C12.9806 69.9648 13.1395 70.0348 13.2455 70.1398C13.5281 70.4722 13.3515 70.9446 13.1572 71.067C12.1152 71.7494 12.9453 73.079 12.0799 73.8838C11.7443 74.1988 12.2565 74.3562 12.751 74.1463V74.1288ZM19.9742 78.9401C19.7976 78.3452 19.9035 77.383 19.1088 77.3655C18.7026 77.3655 17.8726 78.3452 17.9609 78.7301C18.0845 79.29 18.7733 79.9548 19.3561 80.1473C19.7623 80.2872 20.2568 79.6224 19.9742 78.9226V78.9401ZM52.3814 58.4527C52.1342 58.3653 52.2931 57.7354 52.1695 57.9629C51.7103 58.8376 50.4564 57.7529 50.3858 58.6627C50.3151 59.485 51.3571 59.1176 51.8516 59.31C52.4697 59.5375 52.5227 58.9776 52.3814 58.4702V58.4527ZM52.8936 83.279C51.9752 83.209 51.1805 83.5939 50.5624 82.8941C50.3504 82.6666 50.0149 82.8066 49.8559 83.069C49.6264 83.4539 50.0502 83.4189 50.1915 83.5939C51.1981 84.8011 51.9399 84.1537 52.8936 83.2615V83.279ZM25.7845 42.9517C24.9368 43.8089 25.5373 44.5438 25.9258 45.2786C26.226 45.8384 26.7735 45.5935 27.0208 45.3485C27.4446 44.9461 26.8971 44.9112 26.6676 44.7537C26.0318 44.3513 26.1024 43.634 25.7845 42.9517ZM20.0625 58.3653C19.7976 57.8579 21.0515 57.7004 20.3804 57.1931C19.9389 56.8606 19.7446 57.438 19.6033 57.7529C19.4267 58.2078 18.7909 58.8376 19.5327 59.1526C20.2921 59.485 19.6033 58.4702 20.0625 58.3653ZM6.5168 47.9554C6.26955 47.2206 5.36886 47.5355 5.13928 46.9231C5.12161 47.2556 4.96267 47.5355 4.69776 47.7454C5.29822 47.378 5.63377 47.7454 5.98698 48.1828C6.02231 48.2178 6.3402 48.0429 6.53446 47.9554H6.5168ZM51.7809 56.0908C52.3108 55.8109 52.4344 55.3035 52.5227 54.7612C52.5933 54.3763 52.6463 54.0438 52.1342 54.1838C51.728 54.2888 51.0392 54.0963 51.0569 54.9011C51.0569 55.426 51.2335 55.8459 51.7633 56.1083L51.7809 56.0908ZM56.2138 61.6369C55.8429 61.2695 56.408 60.5172 56.1431 59.7474C55.1541 60.5697 56.6023 61.1646 56.2138 61.6369ZM28.416 55.4435C28.416 55.4435 28.3277 55.1986 28.2747 55.1986C28.0804 55.1986 27.9921 55.3035 28.0627 55.496C28.0981 55.5835 28.1864 55.6709 28.257 55.7409C28.31 55.6359 28.3453 55.5485 28.3983 55.4435H28.416Z" fill="#25201D"/>
<path d="M23.5593 87.1455C24.0538 86.6556 23.2767 86.2182 23.5593 85.4484C23.7889 86.3932 24.6366 86.3757 24.9545 86.953C24.6366 87.128 24.7602 87.9678 24.0361 87.5304C23.9478 87.3204 24.0715 86.9006 23.5946 87.093L23.5593 87.1455Z" fill="#D0D7C9"/>
<path d="M24.9897 86.9705C25.3606 87.1455 25.7315 87.3204 26.1024 87.4954C25.2547 88.3177 25.2193 87.4604 24.9897 86.9705Z" fill="#D0D7C9"/>
<path d="M23.5946 87.093C24.0891 86.9005 23.9479 87.3379 24.0362 87.5304C23.7889 87.4779 23.4357 87.5304 23.5946 87.093Z" fill="#25201D"/>
<path d="M29.9701 54.2188C28.1687 55.3735 27.6919 55.0936 27.427 52.8891C27.268 51.577 27.3917 50.1598 26.3673 49.0576C26.1554 48.8302 26.1024 48.4103 26.5439 48.2178C26.8089 48.0953 27.0914 47.6929 27.3563 48.1828C28.363 49.9324 29.3343 51.6994 30.3057 53.4665C30.341 53.519 29.8995 53.6414 29.9701 53.9389C29.9524 54.0438 29.9524 54.1313 29.9701 54.2363V54.2188Z" fill="#FDFDFD"/>
<path d="M45.6704 56.7906C46.2532 57.6129 45.2995 57.9279 45.0876 58.4877C44.7873 59.2575 44.4694 60.0273 44.0632 61.0596C43.3215 59.6774 43.5511 58.2253 42.88 57.0706C42.7034 56.7382 43.3038 56.5457 43.3921 56.5982C44.4518 57.228 44.7697 56.2833 45.3348 55.1985C45.3701 56.1258 45.3878 56.4932 45.4054 56.8431C45.4054 56.8606 45.4761 56.8956 45.5114 56.8956C45.5644 56.8956 45.6174 56.8606 45.6704 56.8431V56.7906Z" fill="#FDFDFD"/>
<path d="M26.1907 78.7126L26.3673 80.3222C26.7911 80.0073 27.1443 79.7449 27.5152 79.4824C26.4556 80.3222 26.3849 81.3544 26.6852 82.5616C26.7911 82.9815 25.4313 83.3314 24.8308 82.9815C24.3186 82.6841 23.8418 82.2992 23.1354 81.8268C24.8131 81.3719 25.343 80.0248 26.1907 78.7126Z" fill="#FDFDFD"/>
<path d="M53.4587 11.9845C53.7942 12.9467 54.3593 13.8565 53.9355 14.9587C53.9002 15.0287 53.5823 15.8685 54.4653 15.4836C54.8185 15.3261 54.6949 16.0959 54.8538 16.4109C54.9951 16.7083 54.6419 16.7783 54.4477 16.7433C53.9178 16.6733 53.2644 16.9357 52.9112 16.3234C52.7876 16.0959 52.6816 15.746 52.7699 15.5186C53.2114 14.3814 52.8052 13.0867 53.4763 12.002L53.441 11.967L53.4587 11.9845Z" fill="#D0D7C9"/>
<path d="M18.526 23.3391C18.6849 22.0444 18.8439 20.7498 19.0028 19.4551C19.0558 19.0877 19.2854 18.8427 19.6739 18.8077C20.1155 18.7553 20.1155 19.0877 20.2744 19.4201C21.1221 21.3446 19.3031 22.1669 18.6849 23.4791C18.632 23.4441 18.579 23.3916 18.5437 23.3391H18.526Z" fill="#FDFDFD"/>
<path d="M12.751 74.1288C12.2565 74.3387 11.7444 74.1638 12.0799 73.8663C12.9453 73.079 12.1152 71.7494 13.1572 71.0496C13.3338 70.9271 13.5281 70.4547 13.2455 70.1223C13.1395 70.0173 12.9983 69.9473 12.857 69.8599C13.0689 69.8074 13.2808 69.7024 13.4928 69.6849C13.7577 69.6849 13.8636 69.8599 13.846 70.1223C13.7577 71.312 12.9806 72.4667 13.9519 73.7264C14.1815 74.0238 12.9983 73.7264 12.751 74.1113V74.1288Z" fill="#D0D7C9"/>
<path d="M19.9742 78.9401C20.2568 79.6224 19.7799 80.2872 19.3561 80.1647C18.7733 79.9723 18.0668 79.3075 17.9609 78.7476C17.8726 78.3627 18.7026 77.3655 19.1088 77.3829C19.8859 77.3829 19.7976 78.3627 19.9742 78.9576V78.9401Z" fill="#FDFDFD"/>
<path d="M52.3814 58.4527C52.5227 58.9601 52.4698 59.52 51.8516 59.2925C51.3395 59.1001 50.3152 59.4675 50.3858 58.6452C50.4564 57.7354 51.728 58.8376 52.1695 57.9454C52.2931 57.7179 52.1342 58.3478 52.3814 58.4352V58.4527Z" fill="#D0D7C9"/>
<path d="M52.8936 83.279C51.9399 84.1537 51.1981 84.8186 50.1915 83.6114C50.0502 83.4364 49.6264 83.4539 49.8559 83.0865C50.0149 82.8241 50.3504 82.6666 50.5624 82.9115C51.1805 83.6114 51.9752 83.2265 52.8936 83.2964V83.279Z" fill="#D0D7C9"/>
<path d="M31.9128 81.5819C31.9657 81.7393 32.0717 81.8968 32.0717 82.0543C32.054 82.4917 32.4956 83.069 31.7538 83.3489C31.6125 82.4742 30.5529 82.929 30.2173 82.3167C29.9878 81.8968 30.4116 81.8793 30.5176 81.6869C30.9591 80.8821 31.4712 81.8093 31.9481 81.6344V81.5994L31.9128 81.5819Z" fill="#D0D7C9"/>
<path d="M25.7845 42.9517C26.1024 43.6515 26.0318 44.3513 26.6675 44.7537C26.8971 44.8937 27.4623 44.9462 27.0207 45.3486C26.7558 45.5935 26.2084 45.8384 25.9258 45.2786C25.5373 44.5438 24.9191 43.8089 25.7845 42.9517Z" fill="#D0D7C9"/>
<path d="M20.0624 58.3653C19.6033 58.4877 20.292 59.485 19.5326 59.1526C18.7909 58.8202 19.4267 58.2078 19.6033 57.7529C19.7269 57.438 19.9212 56.8606 20.3803 57.1931C21.0691 57.7004 19.7975 57.8579 20.0624 58.3653Z" fill="#D0D7C9"/>
<path d="M6.51676 47.9554C6.32249 48.0429 6.0046 48.2178 5.96928 48.1828C5.63373 47.7629 5.29818 47.378 4.68005 47.7455C4.94496 47.5355 5.08625 47.2556 5.12157 46.9232C5.36882 47.5355 6.25185 47.2206 6.4991 47.9554H6.51676Z" fill="#D0D7C9"/>
<path d="M51.7809 56.0908C51.2511 55.8284 51.0921 55.4085 51.0745 54.8836C51.0745 54.0788 51.7279 54.2713 52.1518 54.1663C52.6639 54.0438 52.5933 54.3763 52.5403 54.7437C52.452 55.3035 52.3284 55.7934 51.7985 56.0733L51.7809 56.0908Z" fill="#FDFDFD"/>
<path d="M57.8562 14.6963C57.4853 14.6438 57.1321 14.6088 56.7612 14.5563C57.2027 14.2239 57.6266 13.909 58.1564 14.3114C58.0681 14.4338 57.9622 14.5563 57.8739 14.6788L57.8562 14.6963Z" fill="#FDFDFD"/>
<path d="M64.32 24.0739C64.373 23.9865 64.426 23.8815 64.4613 23.794C64.4083 23.8815 64.3376 23.9515 64.2847 24.0389L64.32 24.0739Z" fill="#D0D7C9"/>
<path d="M29.97 54.2188C29.9524 54.1138 29.9524 54.0264 29.97 53.9214C30.2349 53.9564 30.4822 53.9739 30.7471 54.0089C30.5705 54.3588 30.2703 54.2538 29.9877 54.2363L29.97 54.2188Z" fill="#D0D7C9"/>
<path d="M28.416 55.4435C28.363 55.5485 28.3277 55.636 28.2747 55.7409C28.2041 55.6534 28.1158 55.5835 28.0804 55.496C28.0098 55.321 28.0804 55.1811 28.2924 55.1986C28.3454 55.1986 28.3807 55.356 28.4337 55.4435H28.416Z" fill="#D0D7C9"/>
<path d="M18.6674 23.4791C18.632 23.7415 18.4731 23.8115 18.2258 23.759C18.1729 23.759 18.1199 23.584 18.1199 23.5666C18.2435 23.4791 18.3848 23.4091 18.5084 23.3391C18.5614 23.3916 18.5967 23.4266 18.6497 23.4791H18.6674Z" fill="#FDFDFD"/>
<path d="M31.9304 81.6169C32.0187 81.5819 32.1246 81.5644 32.213 81.5294C32.16 81.8093 32.0363 81.7219 31.9127 81.5819L31.9304 81.6169Z" fill="#D0D7C9"/>
<path d="M63.8961 24.3363C64.0374 24.2489 64.1787 24.1614 64.3376 24.0564L64.3023 24.0214C64.1963 24.1614 64.1963 24.4588 63.8784 24.3014L63.9137 24.3363H63.8961Z" fill="#D0D7C9"/>
<path d="M45.6704 56.8082C45.7764 56.8082 45.8823 56.8082 45.9883 56.8082C45.953 56.8606 45.9353 56.9131 45.9 56.9656C45.8294 56.8956 45.7411 56.8431 45.6704 56.7732V56.8082Z" fill="#FDFDFD"/>
</g>
<defs>
<clipPath id="clip0_82_575">
<rect width="69" height="89" fill="white"/>
</clipPath>
</defs>
</svg>
