<svg width="78" height="92" viewBox="0 0 78 92" fill="none" xmlns="http://www.w3.org/2000/svg">
<g clip-path="url(#clip0_82_604)">
<path d="M6.49562 34.4502C5.90668 34.0183 5.83739 33.9492 6.3224 33.2235C7.72546 31.133 8.7128 28.8179 9.70015 26.5201C10.0812 25.6216 10.5836 24.9133 11.467 24.4814C11.5189 24.395 11.5709 24.3259 11.6229 24.2395C11.7788 24.2395 11.9173 24.2568 12.0732 24.274C10.6702 22.3909 12.5236 21.1296 13.1125 19.7302C13.8747 17.9334 14.6888 16.0502 16.6289 15.0827C16.906 14.9445 16.7848 14.7717 16.6981 14.5471C16.3517 13.6141 17.0792 12.8367 17.6162 12.6812C19.6602 12.0592 20.7341 10.2451 22.3451 9.12212C23.8001 8.12005 24.9606 6.70334 26.918 6.51329C27.1259 6.49601 27.888 5.9086 28.2345 5.40756C28.9966 4.30183 30.0706 3.8008 31.4043 3.83536C31.6642 3.83536 32.0279 3.8008 32.1665 3.64531C33.1365 2.62597 34.4183 2.4532 35.6655 2.03855C36.5316 1.74484 37.415 1.38202 38.2984 1.03648C40.5676 0.138079 42.8887 -0.311123 45.2618 0.276295C46.0932 0.483619 46.6822 -0.207461 47.4097 0.103525C49.2111 0.880989 51.0992 1.45113 52.7448 2.5223C53.2125 2.81601 53.5936 2.93695 54.1998 2.95423C55.1525 2.98878 56.1399 3.17883 57.0579 3.83536C58.5649 4.90653 60.2624 5.70127 62.0466 6.39235C63.467 6.92794 64.6275 8.25827 66.0306 9.07028C66.6542 9.4331 67.399 9.48493 67.9187 9.91686C69.7548 11.4545 71.0366 13.355 71.4004 15.7738C71.5216 16.6549 72.4916 16.9659 72.5956 17.8643C72.7514 19.1255 73.0113 20.3694 73.3231 21.5961C73.7388 23.2374 73.8254 24.9478 74.2065 26.6237C74.3624 27.3321 74.4663 28.265 72.8554 28.7142C74.0506 28.7488 74.5529 28.7833 74.6049 29.6299C74.7608 32.1351 75.7308 34.5193 75.6269 37.059C75.5922 37.7847 75.2978 38.5103 76.0772 39.2014C76.4756 39.5469 76.5622 40.428 76.1465 41.1364C75.5403 42.2076 75.8694 43.2269 76.3371 44.3499C76.7701 45.4211 76.6489 46.7169 76.9087 47.8744C77.2724 49.5157 76.6662 51.2262 77.5496 52.8502C78.3637 54.336 77.896 56.4093 76.4583 57.394C74.7608 58.5343 73.0979 59.7955 70.6902 58.9317C69.4776 58.4998 67.988 58.828 66.6195 58.828C66.7408 58.7244 66.862 58.6034 66.9833 58.4998C67.5549 57.4286 68.3517 57.7569 69.4776 58.4479C68.8194 57.7223 69.5642 56.582 68.6289 56.7893C68.0919 56.9103 66.914 57.3768 67.0353 58.5343C66.914 58.638 66.8101 58.7416 66.6888 58.828C64.437 58.4998 62.2718 58.5862 60.1065 59.4846C58.9287 59.9856 57.5083 59.8992 56.1918 60.0893C56.2438 60.0201 56.2957 59.9338 56.3477 59.8647C56.2784 59.8301 56.1918 59.8128 56.1225 59.7783C56.1572 59.8647 56.1918 59.9683 56.2265 60.0547C53.94 61.0568 51.4976 61.2123 49.0726 61.5405C47.7734 61.7133 46.5436 62.5944 45.1752 62.8881C42.5423 63.441 39.9093 63.942 37.3111 64.6158C36.1159 64.9268 35.0073 65.2551 33.7428 65.2896C33.2578 65.2896 32.7035 64.1321 32.3917 65.1514C32.0453 66.309 31.4736 67.5529 32.8247 68.6068C32.9806 68.7278 33.864 68.7105 33.483 69.4016C33.483 69.5398 33.431 69.7644 33.483 69.8162C33.6735 69.9371 33.7255 69.7644 33.7601 69.5916C35.2325 71.3884 36.9646 72.546 39.4417 72.7187C40.6195 72.8051 41.7281 73.5308 43.0792 73.3234C43.6508 73.237 44.0839 73.2025 44.6209 72.8569C45.1059 72.546 45.9546 72.5632 46.5782 72.7015C48.9513 73.2543 50.6315 72.0968 52.0692 70.5418C53.3857 69.1078 56.5556 69.2633 57.924 70.5418C59.7948 72.3041 59.3097 74.4119 59.4656 76.4851C59.5869 78.2128 59.4656 79.9578 59.0499 81.6164C58.4437 84.0697 59.0499 86.9032 56.6422 88.8555C55.8974 89.4601 54.6675 89.0109 54.3211 90.1512C54.2864 90.2549 54.0093 90.1685 54.0093 89.9612C54.0266 89.2874 53.6628 89.1664 53.1778 89.4429C52.6062 89.7711 52.8834 90.0994 53.2471 90.4449C53.5936 90.7732 53.2471 90.8941 52.9873 90.9805C52.2598 91.2224 51.5669 91.637 50.7528 91.5679C50.0079 91.0151 51.0819 90.6004 50.926 90.0994C50.493 89.7711 50.3197 90.2203 50.0599 90.324C49.5749 90.4968 48.7781 90.2203 48.6568 90.8941C48.5183 91.6198 49.6615 91.0496 49.7308 91.7234C48.1372 91.9135 46.5956 92.2072 44.9153 91.7234C44.1705 91.4988 44.3957 90.9978 44.0146 90.6523C43.6855 91.1533 43.5642 91.9653 42.6635 91.2051C41.7801 90.4449 40.5329 90.9287 39.4763 90.8769C37.6922 90.7905 35.8041 90.4104 34.0892 91.0842C33.1885 91.447 33.1192 89.823 32.3051 90.6177L32.357 90.5832C32.1492 91.1706 31.6295 88.8209 31.5429 90.6695C31.5256 91.1187 31.1099 91.2051 30.6422 91.2742C29.0832 91.5161 27.4203 91.3088 26.0173 91.5161C23.8867 91.8444 23.0552 90.8769 22.0679 89.6156C21.7734 89.2355 21.4616 89.2183 20.9766 89.2355C20.1798 89.2528 19.4003 88.9937 18.7768 88.389C17.8934 87.5424 16.8714 86.9377 15.5722 87.0241C15.1219 87.0586 14.8967 86.6786 14.5502 86.5058C11.6229 85.0545 9.64818 82.4457 7.17117 80.4416C6.30508 79.7332 5.97596 78.3856 5.42167 77.3144C5.1272 76.727 4.95398 76.0014 4.05324 76.1741C2.78875 76.416 2.75411 75.5176 2.92733 74.7574C3.39502 72.6496 2.59821 70.7837 2.07856 68.8314C1.0739 65.1341 0.571566 61.3505 1.0739 57.5323C1.22979 56.3401 -0.0520189 55.7873 0.22513 54.6643C0.277095 54.4397 -0.0693406 54.025 0.0172683 53.9214C1.36837 52.401 0.0865554 50.7078 0.294417 49.1184C0.450313 47.9435 0.762105 46.7687 1.24712 45.8703C2.14785 44.1771 2.97929 42.5704 2.99662 40.6008C3.01394 39.0113 4.65951 38.2166 5.02326 36.7308C5.23113 35.8842 5.97596 35.1758 6.46097 34.3984C6.59955 34.6575 6.77277 34.5711 6.92866 34.4156C7.08456 34.2601 6.99795 34.1392 6.85937 34.0874C6.5649 34.001 6.53026 34.2256 6.49562 34.4329V34.4502ZM2.45964 53.4031C2.18249 53.714 1.45498 53.9214 2.19981 54.5261C2.28642 54.1287 2.35571 53.7659 2.44232 53.3858C2.49428 53.3858 2.52893 53.3858 2.58089 53.3685C2.59821 53.3685 2.63286 53.3339 2.65018 53.3167C2.59821 53.3512 2.52893 53.3685 2.47696 53.4031H2.45964ZM29.7241 74.6019C30.0359 74.5155 30.3477 74.4119 30.6595 74.3428C31.0752 74.2737 31.4217 74.1182 31.4563 73.669C31.491 73.1334 30.9713 73.1161 30.6595 73.0124C29.0832 72.4596 30.1572 74.1527 29.499 74.3946C29.3431 74.4464 29.2045 74.5328 29.3257 74.7056C29.3604 74.7574 29.5856 74.6538 29.7068 74.6192L29.7241 74.6019ZM59.6215 31.945C57.0752 32.5324 58.7728 33.7764 59.1365 35.1067C59.431 33.9319 59.6562 33.0335 59.8814 32.1178C60.0199 31.634 60.1932 31.0293 59.7428 30.7875C59.5003 30.6493 58.946 31.0985 58.4783 31.2885C58.8767 31.634 59.8121 30.7702 59.6215 31.9277V31.945ZM55.8281 37.4046C55.0832 37.1281 54.9447 36.8344 54.7368 36.437C54.0786 35.1931 54.5636 33.3963 52.9007 32.6361C52.5023 32.4461 52.6235 32.1005 52.97 31.8586C53.3337 31.5995 53.7668 31.3231 53.4203 30.7875C53.0046 30.1482 52.7968 30.8566 52.4676 30.9084C52.0346 30.9948 51.6362 30.6147 51.411 30.2346C50.5969 28.9043 49.3497 28.4032 48.1199 27.8849C46.1105 27.0211 44.9327 28.9907 43.2351 28.9216C42.6982 31.133 39.3031 29.9063 39.0086 32.4115C39.0086 32.4115 38.9047 32.4115 38.8527 32.4461C37.0512 33.2408 36.9473 33.3272 36.3237 34.7093C36.2544 34.8476 36.1505 35.1067 36.1332 35.1067C34.6608 34.6057 34.9553 36.1606 34.7128 36.6271C34.4357 37.1627 34.4876 37.4046 33.8814 37.0763C33.5869 36.9208 33.2578 37.0763 33.1885 37.3182C33.1365 37.5428 33.2751 37.8538 33.4137 38.0784C33.5869 38.3893 33.7774 38.5448 34.1412 38.1647C34.7128 37.5773 35.5269 38.0956 35.7001 38.3893C36.5143 39.8233 37.6402 39.1495 38.6795 38.994C39.3204 38.9077 39.9613 38.9422 40.5502 38.8904C41.6935 38.7867 42.8714 38.9768 44.0493 38.6831C44.7941 38.493 46.2838 38.2339 46.5089 38.9077C46.9247 40.0998 47.6522 39.3914 47.8427 39.2532C49.0379 38.3375 50.4063 38.2684 51.7921 38.3548C52 38.3548 52.2251 38.6831 52.433 38.3893C53.2125 37.3009 54.4077 37.5946 55.8281 37.3873V37.4046ZM42.473 24.6196C43.6335 24.6541 44.0839 23.8594 44.0493 22.8573C44.0146 22.0626 42.9753 21.717 42.5942 21.9244C41.7628 22.3563 42.0226 23.5311 41.6069 24.3431C41.3817 24.7751 42.0399 24.7751 42.473 24.6369V24.6196ZM28.3384 9.60587C28.1132 9.64043 26.6755 12.4566 26.7968 12.6639C27.0393 13.044 27.2125 13.6487 27.7668 13.4759C28.1305 13.3723 28.3904 13.0613 28.1825 12.4047C28.0439 11.9555 28.1652 10.988 28.8927 10.5561C29.0832 10.4524 29.3257 10.2106 29.0313 10.1415C28.6502 10.0724 28.4943 9.86503 28.3384 9.60587ZM57.9413 42.484C59.0153 41.7584 59.0672 40.4799 59.5696 39.4432C59.1192 40.4971 56.5209 40.3244 57.9413 42.484ZM52.1905 76.2778C51.359 76.3642 50.7701 76.3815 50.1985 76.5197C49.9387 76.5888 49.7654 76.8998 49.5403 77.1071C49.6962 77.2626 49.8347 77.4354 49.9906 77.5736C50.2851 77.8327 50.5969 77.8846 50.7701 77.4526C50.9953 76.9171 51.5842 76.8134 52.1732 76.2605L52.1905 76.2778ZM48.1372 41.7929C47.4963 41.3264 47.1499 42.0175 46.6822 41.9484C46.3011 41.8966 45.8854 41.8447 45.7121 42.3112C45.6775 42.3976 45.8161 42.6049 45.9027 42.6568C46.3011 42.8295 46.7514 43.0369 47.1498 42.7431C47.5136 42.484 47.7908 42.1212 48.1372 41.7929ZM47.7734 77.2971C48.8993 77.6254 48.882 78.5411 49.0726 79.3531C49.1072 79.5259 48.986 79.8369 49.2977 79.8196C49.5056 79.8196 49.7308 79.6814 49.8867 79.5259C50.0426 79.3704 50.0772 79.0248 49.8521 79.0076C49.0379 78.9557 49.2631 78.3338 49.2285 77.9191C49.1419 76.9343 48.6049 76.9343 47.7908 77.2799L47.7734 77.2971ZM33.1885 41.3955C32.5765 41.9369 32.3917 42.6337 32.6342 43.4861C34.453 43.2442 33.0846 42.173 33.1885 41.3955ZM45.4523 78.4029C45.3311 77.8846 44.5516 78.0919 44.6035 77.4872C44.4477 77.6945 44.2398 77.8846 44.1705 78.1092C43.98 78.7657 44.7421 78.5411 44.9327 78.8694C45.1232 78.7139 45.2964 78.5411 45.4523 78.4029ZM3.44698 52.3492C3.44698 52.6083 3.44698 52.8847 3.39502 53.1439C3.2218 53.9905 3.60288 54.2669 4.10521 53.5931C4.65951 52.8675 3.29109 53.0921 3.44698 52.3319V52.3492ZM30.1225 40.7908C29.6029 40.549 29.2218 40.4453 28.9273 40.2207C28.2864 39.7024 27.7668 39.8579 28.0959 40.6008C28.3211 41.1191 29.2564 41.361 30.1225 40.7908ZM44.0839 25.6562C44.5516 26.3818 43.5816 26.2782 43.5816 26.4509C43.5816 27.2284 43.9973 27.4703 44.7075 27.0211C44.4996 26.5546 44.2918 26.0881 44.0839 25.6389V25.6562ZM66.8274 54.9062C68.7848 54.1978 68.8021 54.146 67.884 52.9884C67.5549 53.5758 67.2431 54.1287 66.8274 54.9062ZM28.2864 41.4301C27.6628 41.6374 27.9746 42.3112 27.6109 42.3803C27.992 42.3803 28.477 42.3112 28.2864 41.4301ZM44.9673 73.5826C44.9673 73.5826 44.7941 73.4098 44.7248 73.4271C44.5516 73.4789 44.4823 73.6344 44.6035 73.7899C44.6555 73.859 44.7594 73.859 44.8461 73.8936C44.8807 73.7899 44.9153 73.7035 44.95 73.5999L44.9673 73.5826Z" fill="#25201D"/>
<path d="M49.7309 91.7409C49.6616 91.0671 48.5183 91.6372 48.6569 90.9116C48.7782 90.2378 49.575 90.5142 50.06 90.3414C50.3198 90.255 50.493 89.7886 50.9261 90.1168C51.082 90.6006 50.008 91.0152 50.7528 91.5854C50.4064 91.6372 50.0773 91.689 49.7309 91.7409Z" fill="#D0D7C9"/>
<path d="M11.467 24.4815C11.2072 24.4815 10.9474 24.4815 10.601 24.4642C10.9647 24.1187 11.2938 24.1187 11.6229 24.2396C11.571 24.326 11.519 24.4124 11.467 24.4815Z" fill="#25201D"/>
<path d="M32.3224 90.6179C32.5995 90.6179 32.6861 90.7734 32.6515 91.0152C32.6515 91.0498 32.4436 91.1016 32.4263 91.0671C32.3224 90.9289 32.0972 90.7734 32.3744 90.5833L32.3397 90.6179H32.3224Z" fill="#25201D"/>
<path d="M67.0179 58.4999C66.8967 58.6036 66.7754 58.7245 66.6542 58.8282H66.7061C66.8274 58.7245 66.9313 58.6208 67.0526 58.5345L67.0179 58.4999Z" fill="#D0D7C9"/>
<path d="M55.8281 37.4047C54.4077 37.6293 53.1952 37.3356 52.433 38.4068C52.2251 38.7005 52 38.4068 51.7921 38.3722C50.4064 38.2685 49.0553 38.3549 47.8427 39.2706C47.6522 39.4088 46.9074 40.1172 46.509 38.9251C46.2838 38.2513 44.7941 38.5277 44.0493 38.7005C42.8714 38.9942 41.7108 38.8041 40.5503 38.9078C39.9786 38.9596 39.3204 38.9078 38.6795 39.0115C37.6575 39.1669 36.5143 39.8408 35.7002 38.4068C35.5269 38.1131 34.6955 37.5775 34.1412 38.1822C33.7774 38.5623 33.5869 38.4068 33.4137 38.0958C33.2924 37.8712 33.1365 37.5602 33.1885 37.3356C33.2578 37.0764 33.5869 36.9209 33.8814 37.0937C34.4876 37.422 34.4357 37.1801 34.7128 36.6445C34.9553 36.178 34.6609 34.6231 36.1332 35.1241C36.1332 35.1241 36.2545 34.865 36.3237 34.7268C36.93 33.3619 37.0513 33.2582 38.8527 32.4635C38.9047 32.4462 39.0086 32.4635 39.0086 32.4289C39.3031 29.9238 42.6982 31.1331 43.2351 28.939C44.9327 29.0081 46.1106 27.0385 48.1199 27.9023C49.3497 28.4379 50.5969 28.939 51.411 30.252C51.6362 30.6148 52.0346 30.9949 52.4677 30.9258C52.7794 30.874 53.0046 30.1656 53.4203 30.8049C53.7668 31.3405 53.3337 31.6169 52.97 31.8761C52.6409 32.1179 52.5023 32.4635 52.9007 32.6535C54.5809 33.4137 54.0959 35.2105 54.7368 36.4545C54.9447 36.8518 55.0832 37.1455 55.8281 37.422V37.4047Z" fill="#FDFDFD"/>
<path d="M42.473 24.6197C42.04 24.758 41.3818 24.758 41.607 24.326C42.0227 23.514 41.7628 22.3564 42.5943 21.9072C42.9927 21.6999 44.032 22.0455 44.0493 22.8402C44.084 23.8423 43.6163 24.637 42.473 24.6025V24.6197Z" fill="#FDFDFD"/>
<path d="M28.3384 9.60602C28.4943 9.86517 28.6502 10.0725 29.0313 10.1416C29.3431 10.2107 29.0833 10.4526 28.8927 10.5563C28.1652 10.9882 28.044 11.9557 28.1825 12.4049C28.4077 13.0787 28.1306 13.3724 27.7668 13.4761C27.2125 13.6488 27.022 13.0441 26.7968 12.664C26.6755 12.4567 28.1133 9.65785 28.3384 9.60602Z" fill="#FDFDFD"/>
<path d="M57.9414 42.4841C56.5384 40.3418 59.1193 40.5146 59.5697 39.4434C59.05 40.4627 59.0154 41.7585 57.9414 42.4841Z" fill="#FDFDFD"/>
<path d="M67.0526 58.5172C66.9313 57.3596 68.1092 56.8932 68.6462 56.7722C69.5816 56.5649 68.854 57.7052 69.4949 58.4308C68.369 57.7397 67.5722 57.4115 67.0006 58.4826L67.0353 58.5172H67.0526Z" fill="#D0D7C9"/>
<path d="M59.8814 32.1179C59.6562 33.0163 59.431 33.9147 59.1365 35.1069C58.7901 33.7765 57.0752 32.5326 59.6215 31.9452C59.7081 32.0143 59.7948 32.0661 59.8814 32.1179Z" fill="#FDFDFD"/>
<path d="M52.1905 76.278C51.6016 76.8135 51.0126 76.9172 50.7875 77.4701C50.6142 77.8847 50.3025 77.8502 50.008 77.591C49.8348 77.4528 49.6962 77.28 49.5576 77.1245C49.7828 76.9172 49.956 76.5889 50.2158 76.5371C50.7875 76.3989 51.3937 76.3816 52.2078 76.2952L52.1905 76.278Z" fill="#D0D7C9"/>
<path d="M48.1373 41.7931C47.8082 42.1213 47.5137 42.4841 47.1499 42.7433C46.7515 43.0197 46.3012 42.8297 45.9028 42.6569C45.7988 42.6051 45.6776 42.3978 45.7122 42.3114C45.8854 41.8449 46.2838 41.8967 46.6822 41.9486C47.1499 42.0177 47.4964 41.3266 48.1373 41.7931Z" fill="#D0D7C9"/>
<path d="M47.7734 77.2973C48.5702 76.9517 49.1245 76.9517 49.2111 77.9365C49.2458 78.3512 49.0379 78.9731 49.8347 79.025C50.0599 79.025 50.0253 79.3878 49.8694 79.5433C49.7135 79.6815 49.4883 79.8197 49.2804 79.837C48.9686 79.837 49.1072 79.5433 49.0552 79.3705C48.8647 78.5585 48.882 77.6428 47.7561 77.3146L47.7734 77.2973Z" fill="#FDFDFD"/>
<path d="M29.499 74.3775C30.1573 74.1356 29.0833 72.4252 30.6596 72.9953C30.9714 73.099 31.491 73.1335 31.4564 73.6519C31.4217 74.1011 31.0753 74.2566 30.6596 74.3257C30.3478 74.3775 30.036 74.4984 29.7242 74.5848C29.6549 74.4984 29.5856 74.4293 29.499 74.3775Z" fill="#FDFDFD"/>
<path d="M33.1885 41.3957C33.0846 42.1732 34.453 43.2443 32.6342 43.4862C32.3917 42.6339 32.5765 41.937 33.1885 41.3957Z" fill="#D0D7C9"/>
<path d="M45.4524 78.403C45.2965 78.5412 45.106 78.714 44.9327 78.8695C44.7422 78.5412 43.98 78.7658 44.1706 78.1093C44.2399 77.8847 44.4477 77.6947 44.6036 77.4873C44.5517 78.092 45.3311 77.8847 45.4524 78.403Z" fill="#6EBD6C"/>
<path d="M3.44705 52.3493C3.29115 53.1095 4.65957 52.8849 4.10528 53.6105C3.60294 54.2671 3.22187 54.0079 3.39508 53.1613C3.44705 52.9022 3.42973 52.6257 3.44705 52.3666V52.3493Z" fill="#D0D7C9"/>
<path d="M30.1226 40.791C29.2565 41.3611 28.3211 41.1192 28.096 40.6009C27.7668 39.858 28.2865 39.6853 28.9274 40.2208C29.2219 40.4454 29.6029 40.5491 30.1226 40.791Z" fill="#D0D7C9"/>
<path d="M44.0839 25.6563C44.2918 26.1055 44.4823 26.572 44.7075 27.0385C43.9973 27.4877 43.5642 27.2285 43.5816 26.4684C43.5816 26.2783 44.5516 26.382 44.0839 25.6736V25.6563Z" fill="#D0D7C9"/>
<path d="M66.8274 54.9063C67.2604 54.1288 67.5549 53.576 67.884 52.9886C68.8021 54.1461 68.7848 54.1979 66.8274 54.9063Z" fill="#FDFDFD"/>
<path d="M59.6216 31.9452C59.8122 30.7703 58.8768 31.6515 58.4784 31.3059C58.9461 31.0986 59.5004 30.6667 59.7429 30.8049C60.1933 31.0468 60.02 31.6688 59.8815 32.1352C59.7949 32.0834 59.7082 32.0143 59.6216 31.9625V31.9452Z" fill="#FDFDFD"/>
<path d="M28.2865 41.4302C28.4944 42.3114 28.0094 42.3805 27.611 42.3805C27.9574 42.3114 27.6629 41.6376 28.2865 41.4302Z" fill="#D0D7C9"/>
<path d="M2.42503 53.3859C2.35574 53.766 2.26913 54.1288 2.19984 54.5262C1.45501 53.9215 2.19984 53.7315 2.45967 53.4032H2.42503V53.3859Z" fill="#D0D7C9"/>
<path d="M44.9673 73.5827C44.9327 73.6864 44.898 73.7728 44.8634 73.8764C44.7768 73.8419 44.6555 73.8419 44.6209 73.7728C44.4996 73.6173 44.5516 73.4618 44.7421 73.41C44.7941 73.41 44.898 73.5136 44.9846 73.5655L44.9673 73.5827Z" fill="#FDFDFD"/>
<path d="M6.4957 34.4503C6.53035 34.243 6.56499 34.0184 6.85946 34.1048C7.01536 34.1394 7.08464 34.2776 6.92875 34.4331C6.77285 34.5886 6.59963 34.6749 6.46106 34.4158L6.4957 34.4676V34.4503Z" fill="#FDFDFD"/>
<path d="M29.7241 74.6021C29.5856 74.6366 29.3777 74.7403 29.3431 74.6885C29.2045 74.5157 29.3431 74.4293 29.5163 74.3775C29.6029 74.4466 29.6722 74.5157 29.7415 74.5848L29.7241 74.6021Z" fill="#FDFDFD"/>
<path d="M33.7774 69.609C33.7428 69.7645 33.6908 69.9373 33.5003 69.8336C33.431 69.7991 33.5003 69.5745 33.5003 69.419C33.5869 69.4881 33.6908 69.5399 33.7774 69.609Z" fill="#FDFDFD"/>
<path d="M56.2612 60.0548C56.2265 59.9685 56.1919 59.8648 56.1572 59.7784C56.2265 59.813 56.3131 59.8302 56.3824 59.8648C56.3304 59.9339 56.2785 60.003 56.2265 60.0894L56.2785 60.0721L56.2612 60.0548Z" fill="#FDFDFD"/>
<path d="M2.45969 53.4032C2.45969 53.4032 2.58094 53.3514 2.63291 53.3168C2.61559 53.3168 2.59827 53.3514 2.56362 53.3687C2.51166 53.3687 2.47701 53.3687 2.42505 53.3859L2.45969 53.4032Z" fill="#D0D7C9"/>
</g>
<defs>
<clipPath id="clip0_82_604">
<rect width="78" height="92" fill="white"/>
</clipPath>
</defs>
</svg>
