<svg width="81" height="96" viewBox="0 0 81 96" fill="none" xmlns="http://www.w3.org/2000/svg">
<g clip-path="url(#clip0_85_568)">
<path d="M6.60901 82.0161C6.21283 81.3331 6.12279 80.4703 5.38446 80.003C5.76263 78.8526 6.591 77.9539 7.00518 76.7856C7.25729 76.0846 6.80709 75.851 6.80709 75.3836C4.43004 75.4735 5.16837 73.8558 5.22239 72.5797C5.2404 72.1842 5.16837 71.7708 5.07833 71.3934C4.70016 69.8835 4.34 68.3917 4.10589 66.8459C3.8898 65.4259 3.85378 63.9161 3.40358 62.604C3.04342 61.5795 3.15147 60.6987 3.07944 59.7281C2.97139 58.2722 4.14191 57.3555 4.08789 56.0434V55.8996C4.24996 54.5695 4.1239 53.1496 5.09633 52.0352C5.42048 51.7836 5.58255 51.496 5.36645 51.0826C6.1408 50.3456 6.30287 49.393 6.30287 48.3685C7.34733 48.2786 6.57299 47.0563 7.31132 46.7688C7.68949 46.607 7.77953 46.3194 7.67148 45.9419V45.888C9.2922 44.4501 10.4807 42.5988 12.3536 41.3585C10.9669 41.5383 9.9765 40.6396 8.842 40.3879C9.34622 38.7163 8.60789 36.5594 10.4627 35.445C11.3631 34.8878 11.3091 34.0071 11.7413 33.378C12.3175 32.5512 12.7317 31.5806 13.308 30.8976C14.7846 29.1181 14.9287 29.2619 13.8302 27.3387C13.362 26.5119 13.398 25.9187 14.5685 25.8828C15.0368 25.8828 15.595 25.6671 15.685 25.1998C16.0452 23.4024 17.6479 22.5935 18.6744 21.3173C18.7464 21.0837 18.8184 20.85 18.8905 20.6164V20.4905C19.1066 20.2748 19.3407 20.0592 19.5568 19.8435C20.3491 19.6098 19.9709 18.2617 21.0334 18.2797C21.5016 18.0101 22.0419 17.7944 22.0239 17.1114L22.0058 17.1473C22.42 16.9856 23.1764 16.698 23.1764 16.68C22.7262 15.4039 23.9507 15.278 24.4729 15.2241C26.0396 15.0264 26.5619 14.0738 26.832 12.7616H26.814C27.6063 12.9054 27.3542 12.0786 27.7144 11.791C28.1466 11.8629 28.3807 11.5754 28.5067 11.2698C29.2271 9.5982 30.7577 9.32858 32.2704 8.98708C33.531 9.18479 34.1613 10.0476 34.3954 11.1619C34.6655 12.4561 33.9452 13.3548 32.9547 14.0738C32.2704 14.577 31.9103 16.5362 32.3965 16.5182C33.2068 16.4823 34.1432 16.2307 34.7375 15.7274C35.2777 15.2601 34.7015 14.8467 34.0532 14.7927C33.8191 14.7748 33.8731 14.577 33.9812 14.4332C34.4134 13.8401 34.7195 12.9594 35.2958 12.7077C35.9801 12.4201 35.4038 13.7502 36.4123 13.894C36.1601 12.9594 37.6548 12.3482 37.0785 11.6652C36.1061 10.5329 36.8625 10.1554 37.4747 9.4544C38.195 8.60962 39.2215 7.89065 39.1135 6.56056C39.2395 6.52462 39.3476 6.48867 39.4736 6.47069C40.6081 6.86612 42.2288 6.07526 42.8231 7.81875C42.8231 7.8547 43.0572 7.87268 43.1472 7.81875C44.6239 6.90207 46.5147 6.57854 47.4331 4.85302C47.7933 4.27785 48.0994 3.5409 48.8558 4.52948C49.1439 4.90694 49.5761 5.19453 49.9363 5.53604C49.8642 5.82362 49.7742 6.11121 49.7022 6.41677C49.6481 6.48867 49.5761 6.56056 49.5221 6.65043C49.5761 6.65043 49.6661 6.70436 49.6661 6.68638C49.7022 6.61449 49.7202 6.52461 49.7562 6.43474C51.1428 6.52461 51.485 7.76483 52.2233 8.59164C52.5114 8.93315 51.2508 9.02302 52.2233 9.40048C53.2858 9.81389 54.2402 10.461 55.6448 11.1979C55.0145 10.2093 55.4107 9.95768 56.023 9.63415C56.4912 9.38251 57.1575 9.32858 57.4276 8.73544C57.6617 8.46582 57.7517 8.17824 58.31 8.21419C59.6246 8.28608 60.579 9.40048 61.6235 9.5263C63.9825 9.81389 64.7028 11.4675 65.6212 13.1211C65.4412 12.9234 65.3151 13.0852 65.189 13.193C65.189 13.193 65.189 13.3368 65.2251 13.3368C65.4231 13.3728 65.5492 13.3009 65.6032 13.1032C66.2695 12.9594 66.4316 13.5166 66.7918 13.894C67.6561 14.8107 68.0703 16.3026 69.7811 16.1767C70.4294 16.1228 70.7535 16.7339 70.5914 17.2552C70.1052 18.8549 71.2938 20.2569 71.0056 21.8027C70.8436 21.8566 70.6275 22.0183 70.5554 21.9824C69.8711 21.4611 69.7451 21.9464 69.691 22.4677C69.619 23.0608 70.3573 22.9171 70.4114 22.8991C70.8976 22.7553 71.3478 22.5216 71.888 22.7014C73.0225 23.672 71.888 25.9906 74.067 26.2602C73.4907 27.5005 72.9325 28.6868 72.3922 29.8551C71.6719 30.8976 71.4738 32.0659 72.1942 33.0725C73.2206 34.5104 73.2386 35.9303 72.8064 37.53C72.5003 38.6984 72.3202 39.8847 72.0861 41.071C72.5183 40.8013 72.7164 40.2441 73.1666 40.37C73.6888 40.5317 73.4367 41.0889 73.3287 41.4125C73.0585 42.2393 73.6168 42.4729 74.157 42.7605L74.2291 42.8324L74.193 42.9223C73.3467 45.223 74.4992 47.4158 74.6973 49.6446C74.7333 49.9682 75.0574 49.4469 75.2555 49.357C76.1919 49.5368 77.4165 50.2737 76.9843 50.9028C76.372 51.7836 76.4981 52.9159 75.6877 53.6169C75.0934 54.1382 74.3371 54.4437 73.6888 54.8571C72.3022 55.7558 70.6635 56.9781 69.0247 54.965C68.5565 54.3898 67.9623 54.2101 67.9263 55.4503C67.9083 56.331 67.0439 56.7264 66.2515 56.4209C65.063 55.9715 63.8024 55.5761 63.1721 54.228C62.9561 53.7787 63.7844 53.0597 62.7039 52.8261C62.758 53.5989 62.5059 54.1921 62.2357 54.8571C61.4434 56.7085 61.2993 54.6055 60.8671 54.7493C60.7591 54.7852 60.615 54.7133 60.525 54.7493C59.3004 55.4683 58.346 55.0369 57.4636 54.1382C57.4276 54.1022 57.2655 54.2101 57.1575 54.264C57.0314 53.9584 57.1034 53.545 56.6893 53.4192C56.3471 53.3114 56.2931 52.6104 55.7528 52.9339C55.6268 53.0058 55.5548 53.2215 55.5187 53.3653C55.4287 53.9405 55.8609 53.9944 56.2571 54.0483C56.8874 54.1202 56.6713 54.7852 56.9954 55.0548C56.3291 55.1267 56.149 56.1153 55.4647 55.9895C54.4563 55.7918 53.6819 55.612 54.2402 57.0859C54.3302 57.3376 54.0601 57.5353 53.826 57.4634C53.3038 57.3016 52.6014 56.7624 52.3133 56.9421C51.4309 57.4634 52.7455 57.6611 52.6375 58.1284C52.5834 58.434 52.2773 58.3621 52.0792 58.434C51.575 58.5958 50.9627 58.7216 50.5665 58.434C49.4681 57.6252 48.1895 58.1464 47.6853 58.7216C47.037 59.4405 45.2902 59.0092 45.5963 60.6268H45.6143C45.3082 60.6808 44.9841 60.7527 44.6779 60.8246C44.6059 60.7706 44.5519 60.7167 44.4798 60.6628C44.858 59.9977 44.84 59.9258 44.6779 59.9798C43.6875 60.2853 42.4809 60.2853 42.1568 61.6334C41.9587 61.7053 41.7606 61.7772 41.5445 61.8491C40.7162 61.6154 39.8518 60.6628 39.0594 61.939C39.4736 62.4962 40.0319 62.1906 40.5181 62.2805C40.4821 62.604 40.5541 62.9994 40.0319 62.9994C39.6897 62.9994 39.3295 62.9455 39.1495 63.3589C38.105 63.2151 37.1146 63.7723 36.0881 63.4847C35.9981 64.4194 37.2586 63.5566 37.0065 64.3295C36.7364 65.1563 36.1601 64.4553 35.764 64.3295C35.3498 64.2037 35.0436 64.2396 34.6295 64.4194C33.7831 64.7968 33.495 64.3115 33.567 63.5027C33.675 63.3769 33.8011 63.2511 33.9091 63.1252C34.2513 62.9994 34.8636 63.8083 34.9536 62.9096C35.0436 61.939 35.836 62.1187 36.8625 61.9569C35.77 61.7532 34.9056 61.8251 34.2693 62.1726C34.0352 60.8785 33.8371 59.6383 35.818 59.7281C36.1241 59.7281 36.3942 59.5843 36.4123 59.2428C36.4123 58.9732 36.1781 58.9193 35.9621 58.8294C34.7015 58.2363 33.4049 59.0451 32.1263 58.6856C31.7122 58.5598 31.9283 59.153 31.8742 59.4405C31.5681 60.6987 31.244 61.9749 29.9294 62.6399C29.119 62.9275 28.2906 63.2331 27.4443 63.5387C27.9845 64.1138 29.083 64.4014 28.9029 65.1384C28.5428 66.6662 29.3711 67.9783 29.3891 69.3982C28.4527 70.4228 29.2811 71.2496 29.6592 72.1483C29.6592 72.2921 29.6592 72.4538 29.6592 72.5976C29.173 73.5682 29.9114 74.7366 29.137 75.7072C29.011 75.8689 29.2811 76.516 29.5512 76.7676C29.9474 77.1451 30.2535 76.7317 30.4876 76.4261C30.7037 76.1565 30.9738 76.1745 31.262 76.1925C31.262 76.4261 31.262 76.6598 31.244 76.8935C31.2079 77.882 30.5236 79.3739 32.6666 78.583C32.9907 78.4572 33.3689 78.8526 33.4589 79.1582C34.0532 81.0455 34.7915 79.8592 35.4938 79.266C36.5743 78.7268 36.7364 79.7693 37.2406 80.2546C36.7184 80.8478 36.5023 81.2792 37.3307 81.9442C38.6633 83.0047 39.7617 82.1599 40.9503 81.7824H40.9143C41.4725 82.4654 42.1748 82.3037 42.9131 82.1599C43.6695 81.9981 44.6599 82.5733 44.1197 83.0406C43.0572 83.9753 43.8856 84.0831 44.3178 84.6223C44.732 85.1436 45.0021 85.9884 44.3178 86.4018C43.9576 86.6175 42.9131 86.959 42.7511 85.8086C42.8051 85.6828 43.2373 85.8086 42.9672 85.4851C42.8951 85.593 42.8411 85.7188 42.7691 85.8266C41.3825 86.222 41.0403 88.4868 39.0954 87.8577C38.9874 87.8217 38.8793 87.7678 38.9334 87.9296C39.4196 89.3855 37.9429 89.026 37.4207 89.5652C37.0245 89.6012 36.6283 89.6371 36.2322 89.6911C35.3498 88.8283 34.5934 89.044 33.9271 89.9607C33.3149 90.1224 32.5225 90.0865 32.1444 90.4819C31.352 91.2728 30.5957 91.0571 29.7673 90.8055C29.3531 90.6257 28.9749 90.2123 28.4707 90.6077C28.4347 90.0326 28.0926 90.1224 27.7324 90.3022H27.7504C27.3542 89.6731 26.3998 89.1518 27.3722 88.1992C27.5343 88.0374 27.7864 87.3724 27.0841 87.2645C25.1753 86.959 25.1753 86.959 26.2017 85.3233C26.4178 84.9818 26.85 84.7122 26.6699 84.2808C26.5439 83.9932 26.2017 83.9034 26.1297 84.4067C26.0577 84.4965 25.9856 84.5864 25.9136 84.6763C25.2293 84.4965 24.545 84.3168 23.8607 84.137C24.671 84.7661 24.653 85.6109 24.545 86.3838C24.4369 87.0668 23.6986 86.276 23.4105 86.7074C22.7082 86.1142 22.0058 86.7433 21.3756 86.6714C20.4211 86.5636 19.9529 86.8152 19.6468 87.6061C18.6744 87.5162 17.6659 87.4802 17.3238 86.24C16.9816 86.5096 16.6215 86.6714 16.4774 86.941C15.9732 87.9296 15.2889 87.1747 14.7846 87.0848C13.9022 86.923 14.9467 86.4377 14.7486 86.0423C14.4245 85.4312 15.8111 84.4606 14.3524 84.0292C14.6406 83.3282 15.4329 84.3168 15.703 83.7057C13.0919 82.5373 16.1172 80.4344 14.8026 79.0144C13.9563 79.6974 13.0919 80.3984 12.2455 81.0994C10.6788 82.9507 8.76997 82.9148 6.71705 82.052L6.60901 82.0161ZM36.9705 82.5553C37.0245 82.6811 37.0966 82.8789 37.2406 82.7171C37.3667 82.5913 37.2226 82.4654 37.0425 82.4475C36.8985 82.1958 36.5743 82.1958 36.5383 82.3756C36.4663 82.6811 36.8084 82.5194 36.9705 82.5553ZM18.1701 48.2247C18.4403 48.1348 18.7464 48.0989 18.7104 47.7034C19.3046 47.5596 19.4307 46.9845 19.6288 46.8047C19.0525 45.6004 18.1882 47.5057 17.5038 46.4273C18.3502 45.6004 19.5568 45.7802 20.5472 45.3129C20.9974 45.0972 21.3215 44.9893 20.9434 44.504C20.6733 44.1445 20.8173 43.0661 20.169 43.4795C19.1426 44.1445 18.5663 43.3896 17.7199 43.138C17.5759 44.1266 17.4138 45.1151 17.2697 46.1037C17.2337 46.2116 17.1977 46.3374 17.1617 46.4452C16.2253 46.6789 15.541 47.2541 16.0992 48.1887C16.4054 48.7279 16.9996 48.1528 17.3778 47.7753C17.5939 47.7753 17.81 47.7573 18.0261 47.7394C18.0081 47.8472 17.9901 47.9551 18.0081 48.0629C17.936 48.1528 17.81 48.2966 17.828 48.3145C18.0261 48.5302 18.0981 48.3505 18.1882 48.1887L18.1701 48.2247ZM42.3729 54.929C43.3273 55.0548 43.7235 54.4617 43.9936 53.7068C44.1917 53.7068 44.2817 53.6529 44.1197 53.4551C44.0657 53.545 44.0296 53.6169 43.9756 53.7068C43.0932 53.6708 42.661 54.228 42.3549 54.929C41.7066 54.8392 41.2024 55.0189 41.0043 55.7558C41.5805 55.666 42.1748 55.63 42.3549 54.929H42.3729ZM65.8733 25.6671C65.9994 25.739 65.7833 26.0985 66.1435 25.9906C66.0534 25.8828 65.9634 25.7929 65.8553 25.6851C65.2971 25.0919 65.9454 24.2112 65.3151 23.4383C65.153 24.3909 64.6308 25.2537 65.8733 25.6671ZM30.0734 52.0532C28.5788 51.442 27.6604 52.4486 26.6879 53.2754C27.8044 52.7901 29.101 52.88 30.1094 52.0711C30.1995 51.9992 30.4696 51.9992 30.1995 51.8015C30.1635 51.8914 30.1095 51.9633 30.0734 52.0532ZM21.1415 53.7607C20.9974 54.3179 20.9974 54.8931 21.7717 54.6594C22.0239 54.5875 22.276 53.8686 22.1859 53.5091C21.8618 52.143 22.366 51.0826 23.5005 49.9861C22.0599 50.3276 21.5556 51.1005 21.4476 52.2149C21.3936 52.7542 21.6817 53.3653 21.1054 53.7967C20.5292 53.6888 21.1595 52.862 20.6733 52.9159C20.007 53.0058 18.8905 53.2934 18.8364 53.6349C18.5843 55.3424 16.2613 55.0189 16.0452 56.6186C15.9552 56.5647 15.8651 56.5108 15.7751 56.4568C15.1628 55.6839 14.1724 55.7199 13.4701 55.7918C12.6417 55.8817 12.5336 56.8882 12.4256 57.7689C13.6501 57.3915 14.5325 56.4209 15.7931 56.4209C16.5854 57.014 15.2528 57.1219 15.595 57.733C16.4234 56.7804 18.2602 57.3376 18.4943 55.5581C19.9169 55.7558 19.9709 54.6055 20.3671 53.7427C20.4572 53.545 20.8533 53.4372 21.1054 53.7427L21.1415 53.7607ZM32.1083 35.0496C31.406 35.1575 30.6677 35.1754 30.4516 36.1281C30.3616 36.5055 30.0014 36.4516 29.6232 36.2539C29.155 36.0022 28.8489 35.3911 28.1826 35.5529C27.3722 34.0071 26.814 35.9663 26.0396 35.5709C26.5259 35.8944 27.1201 35.9483 27.1381 36.6313C26.958 36.7751 26.778 36.9369 26.5979 37.0807C26.1297 37.2964 25.2833 37.2245 25.5354 38.0872C25.8055 38.986 26.3458 38.1771 26.778 38.1771C26.922 39.9745 25.2293 41.2507 25.1933 43.2099C26.5619 42.401 27.8044 41.8259 29.155 41.5742C31.6041 41.736 32.7026 42.9403 32.1444 44.8276C31.8922 46.0138 32.0003 47.3619 30.3255 47.7573C29.8934 47.8652 28.9029 48.6021 29.119 48.7459C30.7577 49.7525 28.7588 50.3097 28.7949 51.1724C30.6137 50.7411 31.316 49.2492 32.3424 48.1348C32.7206 48.3685 32.2884 49.0695 33.1888 49.2851C32.6306 48.3685 32.9907 47.991 33.621 47.3619C34.1793 46.8047 35.3498 46.9845 35.4218 45.924C37.1326 44.4501 37.8529 46.4632 39.0234 46.9485C38.9334 47.5417 39.1135 48.1528 39.7797 47.7034C41.2384 46.7148 42.9852 46.3014 44.4438 45.3129C44.6599 45.205 44.804 45.2589 44.912 45.4746C45.3082 46.1397 45.9025 46.6609 46.5508 46.9845C48.9278 48.2067 48.4956 50.2917 46.2626 51.1545C45.0201 51.6398 44.2457 52.4306 45.0381 53.9225C46.0105 53.5989 45.4343 51.0286 47.4331 52.2509C47.4331 52.2509 47.4872 52.179 47.5232 52.143C48.7117 50.2557 50.4225 48.9976 52.4934 48.2606C52.9976 48.0809 53.2857 47.7394 53.5199 47.3979C54.5103 45.906 55.4287 46.1397 56.4191 47.3799C56.6352 47.6495 56.9594 47.8113 57.2295 48.0449C57.6437 48.4044 58.0579 48.2786 58.2199 47.8472C58.7422 46.2655 60.0207 45.7622 61.4614 45.4027C62.4338 45.1511 62.848 43.8749 64.0906 43.9468C64.4147 43.9648 64.1626 43.3537 64.1806 43.0301C64.2706 41.5922 63.5683 40.352 63.2082 39.0399C62.7039 37.1346 62.3978 34.9597 61.4794 33.414C60.4709 31.6884 59.5525 30.1606 59.3905 28.1655C59.3004 26.9792 57.8598 26.4939 57.0134 27.3746C56.7433 27.6443 56.4552 27.6802 56.2211 27.8599H56.2571C56.2211 27.4825 55.9689 27.4825 55.6988 27.5184C55.3927 27.2668 54.8524 27.2848 54.7804 26.7635C54.7264 26.6018 54.6904 26.44 54.6544 26.2782C54.4203 25.2896 54.9425 23.636 53.88 23.4563C52.9436 23.2945 53.0697 25.074 52.4934 25.8648C51.7191 25.9187 50.9807 26.6018 50.1704 26.1344C48.3516 25.038 47.3971 26.422 46.2626 27.3926C45.2542 28.2734 44.2998 29.19 43.5074 30.2865C43.2913 30.2865 43.0572 30.2865 42.8411 30.2865C41.6346 29.8731 40.6982 29.19 40.428 27.842C41.2924 26.3681 40.6801 25.3436 39.4916 24.373C38.051 23.2046 38.5912 25.5413 37.7088 25.3256C37.5648 25.2896 37.4027 25.4514 37.2226 25.5053C36.1601 25.8468 35.818 26.7455 35.2597 27.6263C34.3593 29.0462 35.2597 30.1966 35.2237 31.4728C35.0617 31.8143 34.8816 32.1378 34.5034 32.2996C33.2428 32.8028 31.9103 33.2522 32.1624 35.0316L32.1083 35.0496ZM24.1848 59.7281C23.7526 60.3572 23.3384 61.4716 22.9243 61.4716C21.3576 61.4537 20.6372 62.8377 19.3587 63.2511C18.7464 63.4488 18.1521 63.9161 18.2422 64.9406C19.4667 63.97 20.4572 64.8148 21.4836 65.1563C23.1764 65.7135 23.3925 66.3067 22.294 67.7087C21.6817 68.4815 21.5016 68.895 22.4921 69.2904C23.3024 68.8051 22.8522 67.2773 24.2208 67.2773C23.9687 66.4684 23.4465 65.5877 24.7251 65.1204C24.1848 64.2576 24.0047 63.5387 24.689 62.5321C25.2473 61.7053 25.2473 60.5729 24.1848 59.7281ZM22.0599 70.0094C20.4392 71.5551 20.3671 73.6581 19.9529 75.5993C19.8449 76.1385 19.5027 76.2284 19.3767 76.0666C18.6203 75.1679 18.2962 76.1206 17.828 76.3722C18.3502 76.7317 18.4223 77.3967 19.1246 77.7562C20.007 78.2056 19.9169 77.6124 20.3131 77.2709C21.5196 76.1925 20.9254 74.4669 21.7898 73.4244C22.7622 72.2202 23.1764 71.2496 22.0599 70.0094ZM23.4465 27.5724C23.8967 27.8959 24.527 28.1116 24.1488 27.2848C23.6446 26.1883 24.635 25.9906 24.9952 26.0266C26.6699 26.1883 25.8776 25.0021 25.7515 24.5527C25.6074 24.0494 24.8691 23.8697 24.3109 23.7439C23.5545 23.5821 23.7886 24.337 23.5185 24.6066C22.9062 25.2177 23.2664 26.3501 22.2219 26.7276C21.8618 26.8534 20.9974 26.8174 21.2315 27.5364C21.4476 28.1655 22.1859 28.0217 22.7442 27.9318C22.9963 27.8959 23.2304 27.6802 23.4645 27.5544L23.4465 27.5724ZM25.9856 61.3818C26.6159 62.1007 27.2642 62.6579 28.2186 62.2805C28.7589 62.0648 28.3987 61.7772 28.2726 61.4716C27.6063 59.8899 26.7239 61.5974 25.9676 61.3638L25.9856 61.3818ZM33.9812 19.5559C34.1613 19.1065 33.2969 18.3516 34.3954 18.1359C34.7915 18.064 34.7375 17.5607 34.4674 17.2911C34.1432 16.9676 33.7831 16.9137 33.4589 17.363C32.8107 18.2797 32.6486 19.0526 33.9992 19.5559H33.9812ZM38.087 18.7291C38.7173 18.0281 38.5732 16.8777 39.4556 16.3205C39.4736 16.3205 39.3295 15.8712 39.1675 15.7813C39.0054 15.6914 38.6272 15.7454 38.5552 15.8532C38.2851 16.3385 37.3487 16.662 38.033 17.399C38.5012 17.9202 37.8889 18.2078 38.087 18.7291ZM26.9581 23.1867C27.1381 23.0069 27.2462 22.8811 27.3902 22.7733C28.3807 21.9464 27.0121 21.6589 26.9941 21.0657C26.9941 20.9399 26.886 20.6883 26.7059 20.868C26.1837 21.3353 26.3098 21.8745 26.6159 22.3958C26.742 22.6295 26.85 22.8811 26.9761 23.1867H26.9581ZM30.7217 19.0706C29.8573 18.4954 29.3891 19.1245 28.8309 19.2863C28.6148 19.3582 28.1826 19.2503 28.3087 19.7177C28.3987 20.0592 28.5608 20.3647 28.9209 20.4726C29.4071 20.5984 29.2631 20.2209 29.3351 19.9693C29.4792 19.3222 30.0914 19.3222 30.7397 19.0886L30.7217 19.0706ZM60.561 11.6113C60.597 11.2518 60.3449 11.3057 60.1288 11.3237C59.4265 11.3776 59.1023 11.791 59.1384 12.4561C59.1564 12.8515 59.4625 13.0492 59.8587 12.9773C60.7051 12.8335 59.6786 11.7371 60.561 11.6113ZM15.3969 71.4473C16.0092 70.956 16.0692 69.9914 15.577 68.5534C14.9827 69.578 15.9732 70.5486 15.3969 71.4473ZM8.60789 61.5255C9.63435 62.0108 10.0125 61.4177 10.4627 60.8605C9.58033 60.3033 9.11212 60.7527 8.60789 61.5255ZM21.6277 59.1709C23.0503 60.1595 23.4825 59.2608 23.9507 58.416C23.3204 58.8294 22.5641 58.8833 21.6277 59.1709ZM40.9863 17.7764C41.1664 18.7111 40.4641 19.6278 41.5265 20.0052C42.3189 19.1784 41.8147 18.5673 40.9863 17.7764ZM25.3914 45.9599C24.3589 46.3913 24.1668 46.9485 24.8151 47.6315C24.9952 47.1282 25.1573 46.6609 25.3914 45.9599ZM24.527 28.7946C24.1488 29.4776 24.0948 29.9809 24.509 30.4842C24.563 30.5381 24.8871 30.4842 24.9412 30.3943C25.3373 29.8012 25.0492 29.3518 24.527 28.7946ZM20.2591 81.8903C20.5652 81.1713 20.9074 80.5602 20.2771 79.8412C19.6648 80.4883 18.9985 81.0635 20.2591 81.8903ZM15.0908 72.2921C15.0728 72.0584 15.0908 71.7708 14.7486 71.8427C14.6406 71.8607 14.5145 72.1123 14.5325 72.2202C14.5685 72.4179 14.6946 72.7235 14.8207 72.7414C15.1808 72.7953 15.0187 72.4359 15.0908 72.2741V72.2921ZM16.7655 42.8684C16.7655 42.8684 16.5674 42.9762 16.5314 43.0661C16.5134 43.12 16.6034 43.2279 16.6395 43.2997C16.7475 43.2099 16.8556 43.12 16.9636 43.0301C16.8916 42.9762 16.8376 42.9223 16.7655 42.8504V42.8684ZM58.7062 9.07695C58.4901 9.07695 58.346 9.02302 58.2019 9.041C58.1119 9.041 58.0399 9.14884 57.9498 9.22074C58.0939 9.23871 58.256 9.29264 58.4 9.29264C58.4901 9.29264 58.5621 9.18479 58.7062 9.07695ZM40.9683 47.9011C40.8602 47.8652 40.7702 47.7933 40.6801 47.8113C40.5901 47.8113 40.5001 47.9011 40.41 47.9371C40.5001 47.973 40.5901 48.0449 40.6982 48.027C40.7882 48.027 40.8782 47.9371 40.9683 47.8832V47.9011ZM29.8393 53.2754V53.3473L29.9474 53.3114L29.8393 53.2754Z" fill="#3F75BB"/>
<path d="M4.06986 56.0434C4.14189 57.3555 2.95336 58.2722 3.06141 59.7281C3.13344 60.6987 3.02539 61.5795 3.38555 62.604C3.83575 63.9161 3.87177 65.4259 4.08786 66.8459C4.32197 68.3917 4.68213 69.8835 5.0603 71.3934C5.15034 71.7708 5.22237 72.1842 5.20436 72.5797C5.15034 73.8558 4.41201 75.4735 6.78906 75.3836C6.78906 75.851 7.23927 76.0846 6.98715 76.7856C6.57297 77.9539 5.7446 78.8526 5.36643 80.003C4.89822 79.7514 4.43002 79.2481 4.50205 78.8886C4.82619 77.235 3.58364 76.0846 3.07942 74.7905C1.87288 71.7349 1.06252 68.5714 0.864432 65.39C0.756384 63.5566 0.216144 61.5615 0.954472 59.6562C1.33264 58.7036 -0.126008 58.2543 0.126104 57.1938C0.198136 56.8523 -0.19804 56.3849 0.0360637 55.8996C0.918456 54.1382 -0.270072 52.3228 0.126104 50.6512C0.360208 49.6986 0.594312 48.5662 1.20658 47.6855C2.30507 46.0857 2.8273 44.3423 3.0434 42.419C3.09742 41.9337 2.86332 41.1968 3.69169 40.7115C5.25838 39.7768 4.77217 37.4222 6.37488 36.3977C6.44691 32.695 9.5623 30.2146 10.3186 26.7995C10.3186 26.7456 10.3546 26.6737 10.3907 26.6377C10.9849 26.1344 11.3811 25.3615 12.5156 25.2537C11.5252 24.6066 11.7413 24.1033 12.1014 23.2765C12.8037 21.587 14.1363 20.2209 14.4425 18.3516C14.5505 17.6686 15.541 17.4529 15.9912 16.8058C16.6394 15.8712 17.2337 14.9545 17.6119 13.8761C17.7019 13.6064 17.9 13.229 18.0981 13.193C20.169 12.7437 21.3215 11.0541 22.7982 9.77794C24.4729 8.34001 26.4538 7.3694 28.3446 6.27298C29.8753 5.39225 31.334 4.56543 32.9907 3.86444C35.3678 2.85789 37.7808 1.86931 40.2299 1.00655C42.3369 0.26961 44.4978 -0.449356 46.8028 0.305558C47.6312 0.575171 48.4596 0.197713 49.288 0.197713C50.6025 0.179739 51.3049 1.47388 52.5654 1.63565C53.3578 1.72552 54.1501 2.03108 54.7084 2.7141C55.5367 3.72065 56.9234 2.69612 57.7697 3.43306C59.3904 4.85302 61.4434 5.48212 63.2982 6.45272C64.1806 6.90208 65.153 7.13574 65.9994 7.74686C67.386 8.73544 68.8627 9.61617 70.3933 10.425C72.5723 11.5574 73.5627 13.912 74.085 16.1588C74.3371 17.2013 75.2015 17.6506 75.3455 18.7291C75.7417 21.6768 76.426 24.5887 77.0203 27.5005C77.1283 28.0577 76.5881 28.2554 76.444 28.6149C76.2639 29.1002 75.4356 29.9629 76.8402 30.0708C77.3984 30.1067 77.3804 30.4303 77.4165 30.8976C77.6506 33.4319 78.4789 35.8764 78.4789 38.4647C78.4789 39.2915 78.1548 40.1363 78.9471 41.017C79.9196 42.1135 78.8211 43.5694 78.7851 44.8635C78.749 45.8701 79.4874 46.2295 79.5774 47.0743C79.7395 48.5662 79.9376 50.1299 79.9376 51.6038C79.9376 53.4552 80.6219 55.0908 80.91 56.8343C81 57.3915 80.6939 57.6971 80.4958 58.0925C79.2173 60.7886 76.336 62.1547 73.5627 61.2559C72.8604 61.0223 72.1761 61.22 71.6359 61.3099C69.565 61.6514 67.5661 61.0043 65.5312 61.0942C63.7844 61.1661 62.3438 62.1906 60.633 62.2805C57.3195 62.4782 54.2762 64.024 50.8907 64.1857C49.306 64.2576 47.7933 65.4619 46.0465 65.4978C45.0561 65.4978 43.8856 66.9897 43.1472 65.0844C43.0932 64.9586 42.625 64.8148 42.3729 65.0844C41.8146 65.6596 42.607 65.9292 42.8231 66.4505C41.7066 66.5763 40.7342 66.6841 39.7617 66.792C39.8698 66.4685 39.9778 66.1269 40.0679 65.8034C40.338 65.7315 40.6621 65.6237 40.32 65.2822C39.9778 64.9406 39.9058 65.372 39.7617 65.5518C39.4376 65.6416 39.1314 65.8034 38.7893 65.8394C38.3931 65.8753 38.069 66.091 38.069 66.4325C38.087 67.0077 38.6092 66.8279 38.9694 66.8459C39.2395 66.8459 39.5096 66.792 39.7797 66.774C38.195 67.6727 36.5383 68.176 34.6655 68.0861C34.4674 68.0861 33.657 67.1515 33.4589 68.3917C33.3149 69.3084 32.7206 70.4407 33.4049 71.0339C34.4133 71.9146 35.0256 73.1009 36.0521 73.8738C37.2046 74.7186 38.3031 75.6533 39.9958 75.6353C41.5265 75.6173 43.0032 76.3363 44.6059 76.516C45.7944 76.6598 46.2446 75.5993 47.3071 75.7611C48.6397 75.9588 50.0623 76.2823 51.3769 75.4196C51.9351 75.0421 52.7455 74.9523 53.1957 74.4849C54.6904 72.9032 56.257 71.9865 58.5801 72.6875C59.1743 72.8673 59.6426 73.047 59.8587 73.4604C60.561 74.7725 61.3173 76.1026 60.9571 77.7203C60.8851 78.0079 60.8491 78.2775 60.9571 78.6549C61.6955 81.423 61.9476 84.191 60.615 86.8871C60.5249 87.0848 60.4349 87.3185 60.4529 87.5342C60.7771 90.5359 59.3544 92.8545 56.5452 93.8431C56.3291 93.915 56.131 94.3104 56.0049 93.7353C55.8609 93.0343 55.1045 92.9624 54.8164 93.25C54.2221 93.8431 55.1586 94.0947 55.3927 94.5261C54.1501 95.1732 52.9256 95.7484 51.5029 95.3889C51.9351 94.9036 52.7455 94.7418 52.8535 93.6993C51.9892 94.0588 51.3049 94.4183 50.4945 94.4003C50.6746 94.9575 50.9087 95.317 51.4309 95.3709C49.6841 96.4494 47.7933 96.036 46.0825 95.5327C43.5614 94.7957 41.0223 94.616 38.4291 94.6519C36.9705 94.6699 35.4578 94.9575 34.0712 94.6519C32.7746 94.3823 31.8022 95.0833 30.6857 95.2631C28.7948 95.5686 27.0121 95.0653 25.1932 94.9216C24.8151 94.8856 24.581 94.6699 24.3289 94.4183C23.3924 93.4836 22.312 92.8186 20.9073 92.8186C20.4571 92.8186 20.079 92.8725 19.6828 92.4231C18.6743 91.2548 17.2337 90.9493 15.8111 90.464C14.8566 90.1404 12.7677 90.3022 12.8217 88.2352C12.8217 87.8397 12.4796 88.1453 12.3355 88.0734C11.4892 87.6959 10.6608 87.4263 10.3186 86.3119C10.1386 85.7188 9.16612 85.3593 8.53584 84.9279C7.49138 84.2269 6.4289 83.5619 6.53695 82.07C8.58987 82.9328 10.4807 82.9687 12.0654 81.1174C12.6777 82.1599 12.8037 83.5619 14.1723 84.0472C15.631 84.4786 14.2444 85.4492 14.5685 86.0603C14.7666 86.4557 13.7221 86.941 14.6045 87.1028C15.1088 87.1927 15.7931 87.9476 16.2973 86.959C16.4414 86.6894 16.8015 86.5276 17.1437 86.258C17.4858 87.4982 18.4943 87.5342 19.4667 87.624C21.3395 87.66 23.0683 88.0914 24.689 89.1518C26.5258 90.3741 26.832 90.3561 27.5703 90.2842H27.5523C27.7144 90.6078 27.9125 90.8055 28.2906 90.5898C28.5968 91.5244 29.137 90.9133 29.5872 90.7875C30.4336 91.0571 31.1899 91.2728 31.9643 90.464C32.3424 90.0865 33.1348 90.1045 33.747 89.9427C33.9271 90.1404 33.2428 90.8594 34.0892 90.5898C34.7735 90.3741 35.4038 89.9787 36.0521 89.6731C36.4482 89.6371 36.8444 89.6012 37.2406 89.5473C39.5636 90.3921 42.0127 89.8349 44.3718 90.2303C46.3707 92.6388 47.253 92.7646 49.6301 91.0212C50.1163 91.0212 50.6566 90.6437 51.0707 91.0212C52.0792 91.848 52.0432 91.8839 52.6555 90.7156C53.3758 90.7156 54.1141 90.7156 54.8344 90.7695C56.0049 90.8414 55.2666 90.1584 55.2486 89.7809C55.3026 88.3071 56.8873 87.5521 56.9233 86.0423C56.9233 85.3233 57.6257 85.0537 58.346 85.1256C58.346 85.2335 58.346 85.3593 58.346 85.4671C58.4 85.4671 58.454 85.4492 58.49 85.4312L58.292 85.1616C56.8153 83.3821 56.7253 81.3331 56.8873 79.1223C56.9414 78.2595 55.7348 77.7383 55.0145 77.1631C54.7804 76.9654 54.4923 77.4866 54.6543 77.7203C55.3567 78.8347 54.1321 79.302 53.7719 79.32C52.5294 79.3919 51.647 80.3086 50.4945 80.4703C48.5136 80.3445 46.5868 80.704 44.6419 80.9197C44.3177 80.7939 44.1737 80.3445 43.6334 80.6141C42.697 81.0814 41.6886 81.387 40.6981 81.7645H40.7342C39.6897 80.8118 38.6992 79.6974 37.0245 80.2546C36.5383 79.7693 36.3582 78.7268 35.2777 79.2661C34.9356 78.6729 33.9992 79.1223 33.729 78.4033C33.9992 78.1876 34.2513 77.9719 34.6294 77.6484C33.3149 77.6124 32.4505 77.199 32.0003 76.0487C31.7302 75.3477 31.5501 76.2104 31.298 76.1386C30.2715 75.1679 29.6052 74.0176 29.4431 72.5976C29.4431 72.4538 29.4431 72.2921 29.4431 72.1483C30.0734 71.5551 29.2631 70.7463 29.7853 70.0813C30.2175 69.5241 30.1274 69.4701 29.173 69.3982C29.173 67.9783 28.3266 66.6662 28.6868 65.1384C28.8669 64.4014 27.7684 64.1138 27.2281 63.5387C28.0925 63.2331 28.9029 62.9455 29.7133 62.64C30.2175 62.64 30.7397 62.604 31.2439 62.586C31.28 64.4194 32.5585 63.3949 33.3509 63.5027C33.2788 64.3116 33.549 64.7969 34.4133 64.4194C34.8275 64.2397 35.1337 64.2037 35.5478 64.3295C35.944 64.4553 36.5203 65.1563 36.7904 64.3295C37.0425 63.5566 35.782 64.4194 35.872 63.4847C36.8984 63.7723 37.8889 63.2151 38.9334 63.3589C39.2935 63.3769 39.5816 63.269 39.8157 62.9994C40.338 62.9994 40.2659 62.604 40.302 62.2805C40.7702 62.4243 41.1483 62.3703 41.3284 61.8491C41.5265 61.7772 41.7246 61.7053 41.9407 61.6334C42.3909 61.7053 43.0032 61.3458 43.1652 62.1547C43.2373 62.5501 43.9216 62.64 43.9036 62.4962C43.7775 61.3278 45.4883 61.6694 45.3982 60.6089H45.3802C46.2266 60.537 47.091 60.3932 47.9374 60.3932C48.9098 60.3932 49.8822 60.4291 50.8186 60.1056V60.0696C51.1788 60.4291 50.8907 60.9324 51.0527 61.3278C50.8727 61.3818 50.5305 61.3278 50.6566 61.6154C50.7286 61.7772 51.0707 61.6873 51.1968 61.4357C52.2593 60.537 52.8715 59.153 54.5463 58.9193C55.9329 58.7216 57.4096 58.7935 58.6161 57.6971C59.1203 57.2297 59.0483 58.2363 59.3004 58.5418C59.5165 58.7935 59.6606 59.2069 60.0928 58.9553C60.3629 58.8115 60.7771 58.6137 60.8131 58.3981C60.9391 57.5533 60.9211 57.5892 61.3533 57.3735C62.3978 56.8343 63.3342 58.2003 64.3607 57.4993C64.8109 58.7935 66.0174 55.684 66.3956 57.8409C66.4316 58.0565 67.1159 57.8409 67.0979 57.6791C66.9358 56.349 68.3044 56.6006 68.4845 56.7624C69.5109 57.6611 70.5554 56.7444 71.5999 56.9601C72.1941 57.0859 72.9325 56.4209 73.7248 56.7444C74.6432 57.1219 75.5436 57.1758 76.1559 56.1872C75.9218 55.8277 74.4631 56.1513 75.5616 55.0728C76.0118 54.6414 75.5256 54.1202 75.4896 53.6529C76.3 52.9519 76.1739 51.8195 76.7862 50.9388C77.2184 50.3277 75.9938 49.5727 75.0574 49.393C74.2651 48.027 75.3095 47.2541 76.1739 46.4093C75.5076 46.3194 74.4631 46.3014 74.7153 45.7982C75.3275 44.522 74.2651 43.8929 73.9949 42.9762L74.031 42.8863L73.9589 42.8145C73.8509 38.4467 74.085 34.0251 72.2121 29.909C72.7524 28.7407 73.3106 27.5544 73.8869 26.3142C71.7079 26.0446 72.8424 23.7259 71.7079 22.7553C71.6179 22.252 71.1317 22.1442 70.8435 21.8566C71.1317 20.3108 69.9251 18.9088 70.4294 17.3091C70.5914 16.7879 70.2853 16.1767 69.619 16.2307C67.9082 16.3565 67.494 14.8646 66.6297 13.9479C66.2875 13.5705 66.1074 13.0313 65.4411 13.1571H65.4591C64.5407 11.5394 63.8204 9.88579 61.4614 9.5982C60.4169 9.47238 59.4625 8.35798 58.1479 8.28609C57.5716 8.25014 57.4996 8.53772 57.2655 8.80734C56.4011 7.98053 54.9785 8.12432 54.2762 7.0279C54.4923 6.48867 55.5367 6.99195 55.4467 6.14716C55.4107 5.85957 55.1045 5.58996 54.9245 5.32035C54.5103 5.80565 53.4658 5.50009 53.4658 6.48867C53.0516 6.25501 52.2052 7.24359 52.1872 6.16514C52.1692 4.83505 51.665 5.82363 51.3409 5.9135C51.2688 5.98539 51.2148 6.07526 51.1428 6.16514C50.6926 5.98539 50.2604 5.80565 49.8102 5.64388C49.45 5.32035 49.0178 5.03276 48.7297 4.63733C47.9734 3.64875 47.6852 4.38569 47.3071 4.96087C45.8844 4.38569 44.4078 5.32035 42.9852 4.83505C43.0572 4.49354 43.6695 4.04418 43.0752 3.84647C42.2648 3.57686 41.4185 3.79255 40.5361 4.47556C41.5085 4.78112 42.3369 4.38569 43.0392 4.7991C43.0752 5.14061 43.1472 5.42819 42.607 5.51807C41.8146 5.66186 41.0763 5.60794 40.32 5.44617C39.3295 5.23048 40.428 6.81221 39.3655 6.59652C39.2395 6.63246 39.1314 6.66841 39.0054 6.68639C38.213 6.84815 37.2586 6.79423 36.6824 7.24359C35.4578 8.17824 34.4494 9.38251 32.6846 8.51975C32.6125 8.4838 32.3424 8.89721 32.1623 9.09492C30.6497 9.43643 29.119 9.70605 28.3987 11.3776C28.2726 11.6832 28.0385 11.9708 27.6063 11.8989C26.814 11.791 26.814 12.4022 26.7059 12.8875L26.7239 12.8695C25.8235 12.8335 25.3553 14.577 24.1848 13.4806C24.1848 13.4806 24.0767 13.5345 24.0587 13.5705C23.7706 15.0623 21.7717 15.5476 21.8798 17.2552L21.8978 17.2192C21.0334 17.1473 21.0694 17.8663 20.9073 18.3876C19.8449 18.3876 20.241 19.7177 19.4307 19.9513C18.6383 19.2144 19.4307 18.4954 19.4667 17.7764C18.4583 17.7405 18.1881 17.9742 18.5123 18.9268C18.7104 19.502 18.5483 20.0592 18.7284 20.5984L18.7464 20.7242C18.6743 20.9579 18.6023 21.1915 18.5303 21.4072C17.5038 22.6654 15.9011 23.4743 15.541 25.2896C15.4509 25.757 14.8927 25.9547 14.4245 25.9727C13.2359 26.0086 13.1999 26.6018 13.6861 27.4286C14.7846 29.3518 14.6406 29.208 13.1639 30.9875C12.5876 31.6884 12.1915 32.6591 11.5972 33.4679C11.147 34.097 11.219 34.9777 10.3186 35.5349C8.46381 36.6673 9.20214 38.8062 8.69791 40.4778C8.64389 41.3765 9.22015 42.401 8.22971 43.12C7.13122 43.8929 7.43735 44.9534 7.5454 45.9959V46.0498C7.29329 46.2655 7.14923 46.5171 7.18524 46.8766C6.44691 47.1642 7.23926 48.3864 6.17679 48.4763C5.43846 48.0449 5.27639 48.1168 5.43846 48.4763C5.81663 49.3211 5.43846 49.8423 4.91623 50.4175C4.55607 50.813 4.68213 51.1365 5.24038 51.2264C5.24038 51.2264 5.24038 51.2084 5.24038 51.1904C4.89822 51.442 4.97026 51.8015 4.97026 52.143C3.97982 53.2574 4.12388 54.6774 3.9438 56.0075C3.18746 56.6546 3.51161 54.6774 2.61121 55.4862C2.25105 55.8098 1.72882 55.8996 1.80085 56.6546C2.3771 55.5941 3.20547 56.0434 3.96181 56.1513L4.06986 56.0434ZM44.804 64.2936C45.2542 64.2037 46.0285 64.3295 45.9385 63.7544C45.7944 62.9275 44.7499 64.5991 44.4798 63.4128C44.2277 63.5566 43.9576 63.7184 44.0296 64.0419C44.1377 64.5452 44.4798 64.4374 44.804 64.2936ZM38.5192 4.74518C38.5012 4.33177 38.249 4.36772 37.8889 4.34975C37.0605 4.29582 38.213 5.10466 37.5287 5.03276C37.6188 5.55401 37.9969 5.23048 38.231 5.24845C38.5912 5.2844 38.7713 5.12263 38.5192 4.74518ZM42.4269 79.8952C41.7786 79.9311 41.3464 79.9491 41.1483 80.4883C41.7246 80.8658 41.9947 80.4524 42.4269 79.8952ZM40.2479 79.6795C40.0859 79.6255 39.8878 79.5177 39.6897 79.4817C39.5276 79.4638 39.3115 79.5536 39.4736 79.7514C39.5996 79.9131 39.8338 80.0389 40.0318 80.0749C40.2299 80.1108 40.32 79.9491 40.2479 79.6615V79.6795ZM79.6855 48.8717C79.6855 48.8717 79.5954 48.7819 79.5594 48.7819C79.4874 48.7998 79.4153 48.8538 79.3433 48.8897C79.3793 48.9257 79.4333 48.9796 79.4514 48.9796C79.5234 48.9616 79.5954 48.9077 79.6675 48.8538L79.6855 48.8717Z" fill="#25201D"/>
<path d="M51.5209 95.317C50.9987 95.2631 50.7646 94.9036 50.5845 94.3464C51.3948 94.3464 52.0791 94.0228 52.9435 93.6454C52.8355 94.6879 52.0251 94.8497 51.5929 95.335L51.5209 95.317Z" fill="#D0D7C9"/>
<path d="M34.4493 32.2996C34.8275 32.1378 35.0076 31.8143 35.1696 31.4728C35.4037 31.293 35.5298 32.012 36.034 31.3829C37.1865 29.927 38.0149 27.8779 40.374 27.86C40.6441 29.19 41.5805 29.8731 42.787 30.3044C42.3728 30.5201 41.9767 30.7358 41.5625 30.9515C41.5985 31.0234 41.6345 31.1133 41.6705 31.1852L44.2817 30.8976C42.787 32.03 42.787 32.0479 41.1663 32.0839C40.7881 32.0839 40.6081 32.4074 40.6261 32.5872C40.7341 33.8274 39.3835 33.7555 38.9873 34.5284C38.6812 35.1215 38.0509 34.0431 38.0689 34.5284C38.159 36.3977 35.944 36.883 35.7819 38.5546C35.7819 38.6804 35.6378 38.8601 35.5118 38.9141C34.1792 39.4353 34.2692 39.3634 35.3137 40.4598C35.926 41.0889 37.1505 41.071 37.1325 42.5808C38.285 40.4778 40.1218 40.6935 41.8326 40.5857C43.0932 40.4958 44.3357 40.8732 45.6503 40.334C46.3886 40.0285 48.0814 40.1902 48.2254 40.5677C48.7297 41.8978 49.378 41.071 49.8822 40.8553C50.7286 40.5138 51.5389 39.5971 52.4213 40.0105C54.2581 40.8553 55.2666 38.6624 56.9233 39.0039C57.1214 39.0399 57.0674 38.7343 57.0133 38.5905C56.329 36.883 56.329 34.8519 54.5823 33.6656C54.8884 33.3421 55.2125 33.0365 55.4827 32.695C55.6988 32.4254 55.6808 32.1558 55.3206 32.012C55.1225 31.9401 54.9424 31.5447 54.6903 31.8322C53.7539 32.8927 53.2317 31.6525 53.2317 31.329C53.2317 30.2325 52.3133 30.3763 51.8811 29.927C51.0887 29.0822 50.4404 28.9564 49.3059 29.0822C48.1714 29.208 48.2435 29.1181 47.289 29.5136C46.1005 29.9989 44.8219 30.5561 43.4353 30.2685C44.2277 29.1721 45.1821 28.2554 46.1905 27.3746C47.325 26.3861 48.2795 25.02 50.0983 26.1165C50.8906 26.5838 51.629 25.9008 52.4213 25.8468C53.1957 26.1524 53.952 26.44 54.7263 26.7456C54.8164 27.2668 55.3386 27.2488 55.6447 27.5005C55.7888 27.6982 55.8248 28.0577 56.203 27.842H56.167C56.0049 28.0936 56.167 28.3992 56.311 28.4172C57.9137 28.5609 58.3279 30.1067 58.7781 31.0414C59.9306 33.4679 61.2092 35.8944 61.8035 38.5905C62.0376 39.687 61.9115 40.4419 61.3353 41.2687C59.7506 43.5694 57.2294 44.1805 54.7623 44.6478C54.2941 44.7377 52.6014 45.0073 52.7094 44.3962C52.9255 43.2099 51.8451 43.6772 51.773 43.2638C50.7286 43.4975 52.7635 44.6838 51.2148 44.8276C49.1078 45.0433 46.9829 45.2589 44.876 45.4746C44.7679 45.2589 44.6238 45.205 44.4077 45.3129C44.1016 44.7197 43.5254 45.7442 43.2372 45.1331C43.1472 44.9354 43.2552 44.4861 43.2192 44.4861C42.8591 44.4142 42.751 44.7017 42.679 44.9893C42.643 45.187 42.733 45.5106 42.3368 45.3488C40.6441 44.6658 39.9778 46.1577 38.9873 46.9485C37.8348 46.4632 37.1145 44.4501 35.3857 45.924C34.2872 45.5645 33.2068 45.187 32.1083 44.8276C32.6845 42.9403 31.568 41.736 29.119 41.5742C28.8488 41.2867 28.1645 41.035 28.9569 40.6216C31.1899 39.4173 31.1719 36.9908 32.0723 35.0496C32.9006 34.1869 34.1792 33.7016 34.4133 32.3175L34.4493 32.2996Z" fill="#25201D"/>
<path d="M43.4534 30.2865C44.84 30.5741 46.1185 30.0169 47.3071 29.5316C48.2615 29.1361 48.1895 29.226 49.324 29.1002C50.4585 28.9744 51.1068 29.1002 51.8991 29.945C52.3133 30.3943 53.2677 30.2685 53.2497 31.3469C53.2497 31.6705 53.7719 32.9107 54.7084 31.8502C54.9605 31.5626 55.1406 31.9581 55.3386 32.03C55.6988 32.1738 55.7168 32.4434 55.5007 32.713C55.2306 33.0545 54.9065 33.3421 54.6003 33.6836C56.3291 34.8699 56.3471 36.901 57.0314 38.6085C57.0854 38.7523 57.1394 39.0579 56.9414 39.0219C55.3026 38.6804 54.2762 40.8733 52.4394 40.0285C51.557 39.6151 50.7286 40.5138 49.9002 40.8733C49.396 41.0889 48.7477 41.9158 48.2435 40.5857C48.0994 40.2082 46.4067 40.0464 45.6683 40.352C44.3538 40.8912 43.1112 40.5138 41.8506 40.6036C40.1219 40.7295 38.3031 40.4958 37.1506 42.5988C37.1506 41.1069 35.926 41.1249 35.3318 40.4778C34.2873 39.3814 34.1972 39.4533 35.5298 38.932C35.6559 38.8781 35.782 38.6984 35.8 38.5726C35.962 36.901 38.177 36.4336 38.087 34.5463C38.069 34.0431 38.6992 35.1215 39.0054 34.5463C39.4016 33.7735 40.7702 33.8274 40.6441 32.6051C40.6441 32.4254 40.7882 32.1019 41.1844 32.1019C42.8051 32.0479 42.8051 32.03 44.2997 30.9156L41.6886 31.2032C41.6886 31.2032 41.6165 31.0414 41.5805 30.9695C41.9947 30.7538 42.3909 30.5381 42.8051 30.3224C43.0212 30.3224 43.2553 30.3224 43.4714 30.3224L43.4534 30.2865Z" fill="#FDFDFD"/>
<path d="M44.8939 45.4567C47.0009 45.241 49.1258 45.0253 51.2328 44.8096C52.7814 44.6478 50.7465 43.4795 51.791 43.2458C51.863 43.6592 52.9255 43.1919 52.7274 44.3782C52.6194 44.9893 54.3121 44.7197 54.7803 44.6299C57.2474 44.1625 59.7686 43.5514 61.3533 41.2507C61.9295 40.4239 62.0556 39.669 61.8215 38.5726C61.2272 35.8585 59.9666 33.4499 58.7961 31.0234C58.3459 30.0888 57.9317 28.543 56.329 28.3992C56.167 28.3992 56.0229 28.0757 56.185 27.824C56.4371 27.6443 56.7252 27.6083 56.9773 27.3387C57.8237 26.458 59.2643 26.9433 59.3544 28.1296C59.5164 30.1247 60.4348 31.6525 61.4433 33.378C62.3617 34.9418 62.6498 37.0987 63.1721 39.0039C63.5322 40.3161 64.2165 41.5742 64.1445 42.9942C64.1265 43.3177 64.3606 43.9289 64.0545 43.9109C62.8119 43.839 62.3977 45.1152 61.4253 45.3668C59.9846 45.7263 58.7061 46.2296 58.1839 47.8113C58.0398 48.2427 57.6256 48.3685 57.1934 48.009C56.9233 47.7753 56.5991 47.6136 56.383 47.344C55.3926 46.1037 54.4742 45.8701 53.4838 47.3619C53.2497 47.7034 52.9615 48.0449 52.4573 48.2247C50.3864 48.9616 48.6756 50.2198 47.4871 52.1071C47.4691 52.1431 47.4151 52.2149 47.3971 52.2149C45.3982 50.9747 45.9744 53.563 45.002 53.8865C44.2276 52.3947 45.002 51.6038 46.2265 51.1185C48.4595 50.2558 48.9097 48.1708 46.5147 46.9485C45.8664 46.607 45.2721 46.0858 44.8759 45.4387L44.8939 45.4567Z" fill="#FDFDFD"/>
<path d="M50.8907 60.0876C49.9543 60.4111 48.9818 60.3752 48.0094 60.3752C47.163 60.3752 46.2986 60.519 45.4523 60.5909C45.1641 58.9732 46.8929 59.4046 47.5412 58.6856C48.0634 58.1105 49.324 57.5892 50.4225 58.398C50.8367 58.7036 51.4309 58.5778 51.9352 58.398C52.1332 58.3261 52.4394 58.398 52.4934 58.0925C52.5834 57.6251 51.2689 57.4274 52.1693 56.9062C52.4574 56.7264 53.1597 57.2836 53.6819 57.4274C53.916 57.4993 54.2042 57.3016 54.0961 57.05C53.5379 55.5761 54.3302 55.7558 55.3207 55.9535C56.005 56.0794 56.185 55.0908 56.8513 55.0189C57.1395 54.8032 57.0854 54.5156 56.9954 54.228C57.1034 54.1921 57.2655 54.0842 57.3015 54.1022C58.1839 55.0009 59.1564 55.4323 60.3629 54.7133C60.4529 54.6594 60.597 54.7313 60.705 54.7133C61.1372 54.5695 61.2813 56.6905 62.0737 54.8212C62.3618 54.1561 62.5959 53.563 62.5419 52.7901C63.6223 53.0417 62.794 53.7427 63.0101 54.1921C63.6404 55.5401 64.9009 55.9356 66.0894 56.3849C66.8998 56.6905 67.7462 56.2951 67.7642 55.4143C67.8002 54.1741 68.3945 54.3718 68.8627 54.929C70.5014 56.9242 72.1401 55.7019 73.5268 54.8212C74.175 54.4078 74.9314 54.1022 75.5256 53.581C75.5617 54.0663 76.0479 54.5695 75.5977 55.0009C74.4992 56.0794 75.9398 55.7738 76.1919 56.1153C75.5617 57.1039 74.6793 57.068 73.7609 56.6725C72.9685 56.349 72.2302 57.014 71.6359 56.8882C70.6095 56.6725 69.547 57.5892 68.5205 56.6905C68.3404 56.5287 66.9718 56.2771 67.1339 57.6072C67.1519 57.7689 66.4676 57.9846 66.4316 57.7689C66.0714 55.612 64.8649 58.7395 64.3967 57.4274C63.3702 58.1284 62.4338 56.7624 61.3894 57.3016C60.9572 57.5173 60.9752 57.4814 60.8491 58.3261C60.8131 58.5418 60.3989 58.7395 60.1288 58.8833C59.6786 59.135 59.5345 58.7216 59.3364 58.4699C59.0843 58.1823 59.1564 57.1758 58.6521 57.6252C57.4456 58.7395 55.9689 58.6677 54.5823 58.8474C52.9076 59.0811 52.2953 60.4651 51.2328 61.3638L51.1068 61.2559C50.9447 60.8425 51.2148 60.3572 50.8547 59.9977C50.9267 60.0876 50.9987 60.1595 51.0708 60.2314C51.1068 60.1775 51.1608 60.1236 51.1968 60.0696C51.0888 60.0696 50.9807 60.0337 50.8547 60.0337L50.8907 60.0876Z" fill="#FDFDFD"/>
<path d="M40.7702 81.7105C41.7427 81.3331 42.7691 81.0275 43.7055 80.5602C44.2458 80.2906 44.3898 80.7399 44.714 80.8658C44.6419 81.0635 44.4439 81.405 44.4979 81.4589C45.1102 82.0161 45.8485 82.1779 45.7945 83.508C45.7764 84.191 45.4343 83.9573 45.3082 84.155C44.8941 84.838 45.8305 85.557 45.3623 86.1142C44.3178 87.3365 44.678 88.8283 44.4258 90.1943C42.0668 89.8169 39.6177 90.3741 37.2947 89.5113C37.7989 88.9901 39.2756 89.3496 38.7893 87.8757C38.7353 87.7139 38.8434 87.7678 38.9514 87.8038C40.8963 88.4329 41.2384 86.1681 42.625 85.7727H42.607C42.7691 86.8871 43.8136 86.5636 44.1737 86.3299C44.858 85.9165 44.5879 85.0717 44.1737 84.5505C43.7596 84.0112 42.9132 83.8854 43.9756 82.9687C44.5159 82.5014 43.5435 81.9442 42.7691 82.088C42.0308 82.2318 41.3285 82.4115 40.7702 81.6926V81.7105Z" fill="#FDFDFD"/>
<path d="M24.1848 59.7281C25.2472 60.5729 25.2472 61.7053 24.689 62.5321C24.0047 63.5387 24.1848 64.2756 24.725 65.1204C23.4464 65.5698 23.9687 66.4505 24.2208 67.2773C22.8522 67.2773 23.3024 68.8231 22.492 69.2904C21.5016 68.877 21.6816 68.4816 22.2939 67.7087C23.4104 66.3067 23.1763 65.7135 21.4836 65.1563C20.4571 64.8148 19.4847 63.9701 18.2421 64.9407C18.1521 63.8982 18.7463 63.4488 19.3586 63.2511C20.6372 62.8557 21.3575 61.4537 22.9242 61.4716C23.3204 61.4716 23.7346 60.3572 24.1848 59.7281ZM22.6901 61.7772C22.6901 61.7772 22.6181 61.6873 22.582 61.6873C22.546 61.6873 22.51 61.7592 22.492 61.7952C22.546 61.8311 22.6001 61.8491 22.6541 61.8851C22.6541 61.8491 22.6901 61.8132 22.6901 61.7772Z" fill="#FDFDFD"/>
<path d="M32.2344 8.98709C32.4144 8.78937 32.7026 8.37597 32.7566 8.41192C34.5394 9.27468 35.5478 8.07041 36.7544 7.13575C37.3306 6.6864 38.2851 6.74032 39.0774 6.57855C39.1855 7.90864 38.159 8.62761 37.4387 9.47239C36.8264 10.1734 36.0881 10.5508 37.0425 11.6832C37.6188 12.3483 36.1241 12.9774 36.3762 13.912C35.3678 13.7682 35.944 12.4381 35.2597 12.7257C34.6835 12.9594 34.3773 13.8401 33.9451 14.4512C33.8371 14.595 33.8011 14.7927 34.0172 14.8107C34.6654 14.8646 35.2237 15.278 34.7015 15.7454C34.1252 16.2487 33.1708 16.5003 32.3604 16.5362C31.8922 16.5542 32.2344 14.595 32.9187 14.0918C33.9091 13.3728 34.6474 12.4561 34.3593 11.1799C34.1252 10.0655 33.4949 9.20278 32.2344 9.00506V8.98709Z" fill="#FDFDFD"/>
<path d="M32.1083 35.0496C31.2079 36.9729 31.2259 39.4173 28.9929 40.6216C28.2006 41.053 28.9029 41.2867 29.155 41.5742C27.8044 41.8259 26.5618 42.4011 25.1932 43.2099C25.2293 41.2507 26.922 39.9745 26.7779 38.1771C26.7239 37.8176 26.6519 37.4582 26.5979 37.0807C26.7779 36.9369 26.958 36.7751 27.1381 36.6313C27.9124 36.6673 27.9845 36.0562 28.1826 35.5529C28.8489 35.4091 29.155 36.0202 29.6232 36.2539C30.0014 36.4516 30.3615 36.4876 30.4516 36.1281C30.6677 35.1754 31.388 35.1575 32.1083 35.0496Z" fill="#FDFDFD"/>
<path d="M40.374 27.842C37.997 27.86 37.1866 29.909 36.0341 31.3649C35.5299 31.994 35.4218 31.293 35.1697 31.4548C35.2238 30.1966 34.3053 29.0283 35.2057 27.6083C35.764 26.7276 36.0881 25.8289 37.1686 25.4874C37.3307 25.4335 37.5108 25.2717 37.6548 25.3076C38.5372 25.5233 37.997 23.1867 39.4376 24.355C40.6262 25.3256 41.2384 26.3501 40.374 27.824V27.842Z" fill="#FDFDFD"/>
<path d="M27.6244 90.2483C26.886 90.3022 26.5799 90.3202 24.7431 89.1159C23.1224 88.0374 21.4116 87.624 19.5208 87.5881C19.8449 86.7972 20.2951 86.5456 21.2495 86.6534C21.8798 86.7253 22.5821 86.0783 23.2844 86.6894C23.5906 86.258 24.3289 87.0309 24.4189 86.3658C24.527 85.593 24.545 84.7482 23.7346 84.1191C24.4189 84.2988 25.1032 84.4786 25.7875 84.6583C25.9136 84.6763 26.0577 84.7122 26.1837 84.7302C26.1117 84.6224 26.0577 84.4965 25.9856 84.3887C26.0577 83.8854 26.3998 83.9753 26.5259 84.2629C26.7059 84.6943 26.2738 84.9639 26.0577 85.3054C25.0132 86.923 25.0312 86.923 26.94 87.2466C27.6424 87.3544 27.4083 88.0195 27.2282 88.1812C26.2738 89.1159 27.2282 89.6551 27.6063 90.3022L27.6244 90.2483Z" fill="#FDFDFD"/>
<path d="M49.8822 5.53604C50.3324 5.71579 50.7646 5.89553 51.2148 6.05729C51.3408 6.09324 51.5929 6.18311 51.5929 6.14717C51.683 5.96742 51.5929 5.84161 51.3949 5.80566C51.719 5.71579 52.2232 4.72721 52.2412 6.05729C52.2592 7.15372 53.1236 6.14717 53.5198 6.38083C53.5198 6.956 53.8259 7.0998 54.3302 6.92005C55.0325 8.01648 56.4731 7.87269 57.3195 8.6995C57.0674 9.31062 56.3831 9.34657 55.9149 9.59821C55.3026 9.92174 54.9064 10.1734 55.5367 11.162C54.1321 10.407 53.1776 9.75997 52.1152 9.36454C51.1608 8.98708 52.4213 8.89721 52.1152 8.5557C51.3949 7.71092 51.0527 6.4707 49.6481 6.3988H49.6121C49.6841 6.07527 49.7741 5.78768 49.8462 5.5001L49.8822 5.53604Z" fill="#FDFDFD"/>
<path d="M33.4589 63.4668C32.6666 63.3589 31.388 64.3834 31.352 62.5501C30.8477 62.5501 30.3255 62.586 29.8213 62.604C31.1179 61.939 31.46 60.6628 31.7662 59.4046C31.8382 59.117 31.6041 58.5239 32.0183 58.6497C33.2968 59.0092 34.6114 58.2003 35.854 58.7935C36.0701 58.9013 36.3222 58.9552 36.3042 59.2069C36.3042 59.5484 36.016 59.7102 35.7099 59.6922C33.729 59.6023 33.9271 60.8605 34.1612 62.1367C33.657 62.2984 33.765 62.7118 33.8011 63.0893C33.693 63.2151 33.567 63.3409 33.4589 63.4668Z" fill="#FDFDFD"/>
<path d="M32.1443 44.8275C33.2428 45.187 34.3232 45.5645 35.4217 45.924C35.3497 46.9844 34.1972 46.8047 33.6209 47.3619C32.9907 47.991 32.6305 48.3685 33.1887 49.2851C32.2883 49.0515 32.7385 48.3685 32.3424 48.1348C31.2979 49.2492 30.6136 50.741 28.7948 51.1724C28.7588 50.3097 30.7757 49.7704 29.1189 48.7459C28.9028 48.6201 29.8933 47.8652 30.3255 47.7573C32.0002 47.3619 31.8922 46.0138 32.1443 44.8275Z" fill="#FDFDFD"/>
<path d="M72.3022 29.8371C74.175 33.9712 73.9589 38.3748 74.049 42.7425C73.5267 42.455 72.9505 42.2393 73.2206 41.3945C73.3286 41.0709 73.5807 40.5138 73.0585 40.352C72.6083 40.2262 72.4102 40.7834 71.978 41.053C72.2121 39.8667 72.3742 38.6624 72.6984 37.5121C73.1305 35.9124 73.1125 34.4924 72.0861 33.0545C71.3658 32.0479 71.5819 30.8796 72.2842 29.8371H72.3022ZM73.1486 39.7049C73.1486 39.7049 73.0945 39.7948 73.1125 39.8307C73.1846 39.9925 73.2746 39.9745 73.3286 39.8128C73.3286 39.7768 73.2926 39.7229 73.2566 39.7049C73.2386 39.7049 73.1846 39.7049 73.1486 39.7049Z" fill="#FDFDFD"/>
<path d="M22.0599 70.0094C23.1584 71.2316 22.7622 72.2202 21.7898 73.4245C20.9434 74.467 21.5377 76.1925 20.3131 77.2709C19.9169 77.6304 20.007 78.2056 19.1246 77.7562C18.4223 77.3967 18.3502 76.7317 17.828 76.3722C18.3142 76.1206 18.6204 75.15 19.3767 76.0667C19.5027 76.2284 19.8449 76.1386 19.9529 75.5993C20.3491 73.6581 20.4212 71.5551 22.0599 70.0094Z" fill="#FDFDFD"/>
<path d="M43.0752 4.72719C44.4979 5.21249 45.9745 4.27784 47.3972 4.85301C46.4788 6.57853 44.5879 6.90207 43.1113 7.81875C43.0212 7.87267 42.8051 7.8547 42.7871 7.81875C42.1928 6.07525 40.5721 6.86612 39.4376 6.47069C40.5001 6.70435 39.4016 5.10465 40.392 5.32034C41.1664 5.48211 41.9047 5.53603 42.6791 5.39224C43.2193 5.30237 43.1473 5.01478 43.1113 4.67327L43.0752 4.70922V4.72719Z" fill="#FDFDFD"/>
<path d="M23.4464 27.5724C23.2123 27.6982 22.9782 27.8959 22.7261 27.9498C22.1679 28.0397 21.4295 28.1655 21.2134 27.5544C20.9613 26.8354 21.8437 26.8714 22.2039 26.7455C23.2664 26.3681 22.9062 25.2177 23.5005 24.6246C23.7706 24.355 23.5185 23.6001 24.2928 23.7618C24.8691 23.8877 25.5894 24.0674 25.7335 24.5707C25.8595 25.02 26.6699 26.2243 24.9771 26.0446C24.617 26.0086 23.6445 26.1883 24.1307 27.3027C24.5089 28.1296 23.8966 27.9139 23.4284 27.5903L23.4464 27.5724Z" fill="#FDFDFD"/>
<path d="M7.65346 45.906C7.56342 44.8815 7.25729 43.803 8.33777 43.0301C9.32821 42.3292 8.75195 41.2866 8.80598 40.3879C9.95849 40.6396 10.9309 41.5383 12.3175 41.3585C10.4447 42.5988 9.25618 44.4501 7.63545 45.888L7.65346 45.906Z" fill="#FDFDFD"/>
<path d="M15.7931 56.4748L16.0632 56.6366C16.2793 55.0189 18.6023 55.3604 18.8544 53.6529C18.9085 53.3114 20.025 53.0238 20.6913 52.9339C21.1775 52.862 20.5472 53.7068 21.1235 53.8146V53.7787C20.8893 53.4731 20.5112 53.581 20.4031 53.7787C20.007 54.6414 19.9349 55.7918 18.5303 55.5941C18.2962 57.3735 16.4594 56.8163 15.631 57.7689C15.2709 57.1578 16.6034 57.05 15.8291 56.4568L15.8111 56.4748H15.7931Z" fill="#FDFDFD"/>
<path d="M14.2444 83.9932C12.8578 83.5079 12.7497 82.106 12.1375 81.0635C13.0018 80.3625 13.8482 79.6615 14.6946 78.9785C15.9912 80.4164 12.9838 82.5014 15.595 83.6697C15.3429 84.2808 14.5325 83.2923 14.2444 83.9932Z" fill="#FDFDFD"/>
<path d="M17.2518 46.1217C17.3958 45.1331 17.5579 44.1445 17.702 43.1559C18.5483 43.3896 19.1246 44.1625 20.1511 43.4975C20.7993 43.0661 20.6553 44.1625 20.9254 44.522C21.3036 45.0073 20.9974 45.1151 20.5292 45.3308C19.5388 45.7981 18.3323 45.6184 17.4859 46.4452L17.4319 46.4093C17.3598 46.3194 17.3058 46.2295 17.2338 46.1217H17.2518ZM19.2146 44.9893C19.1786 45.1151 19.1426 45.205 19.1246 45.3128C19.1246 45.3308 19.2146 45.3847 19.2507 45.4027C19.3047 45.3128 19.3947 45.2409 19.3947 45.1511C19.3947 45.0972 19.2867 45.0432 19.2146 44.9713V44.9893Z" fill="#D0D7C9"/>
<path d="M31.388 76.0846C31.6402 76.1386 31.8202 75.2758 32.0904 75.9948C32.5225 77.1451 33.4049 77.5585 34.7195 77.5945C34.3414 77.918 34.0892 78.1337 33.8191 78.3494C34.1073 79.0683 35.0437 78.619 35.3678 79.2121C34.6475 79.8053 33.9272 80.9916 33.3329 79.1043C33.2429 78.7987 32.8647 78.4033 32.5406 78.5291C30.3976 79.32 31.0819 77.8281 31.1179 76.8395C31.1179 76.6059 31.1179 76.3722 31.1359 76.1386H31.28L31.388 76.0667V76.0846Z" fill="#FDFDFD"/>
<path d="M74.0849 42.9043C74.355 43.821 75.4175 44.4501 74.8052 45.7263C74.5711 46.2295 75.5976 46.2475 76.2639 46.3374C75.3815 47.1822 74.355 47.9551 75.1474 49.3211C74.9493 49.411 74.6251 49.9322 74.5891 49.6087C74.391 47.3799 73.2565 45.187 74.0849 42.8864V42.9043Z" fill="#FDFDFD"/>
<path d="M37.0966 80.2007C38.7713 79.6615 39.7438 80.7759 40.8062 81.7105C39.6177 82.088 38.5372 82.9508 37.1866 81.8723C36.3583 81.2073 36.5744 80.7759 37.0966 80.1827V80.2007Z" fill="#FDFDFD"/>
<path d="M39.0054 46.9485C39.9958 46.1577 40.6621 44.6658 42.3549 45.3488C42.751 45.5106 42.661 45.187 42.697 44.9893C42.769 44.7017 42.8771 44.4321 43.2373 44.4861C43.2733 44.4861 43.1652 44.9534 43.2553 45.1331C43.5254 45.7442 44.1016 44.7197 44.4258 45.3129C42.9671 46.2835 41.2204 46.6969 39.7617 47.7034C39.0954 48.1528 38.9333 47.5417 39.0054 46.9485Z" fill="#FDFDFD"/>
<path d="M21.9698 17.1653C21.8618 15.4398 23.8606 14.9725 24.1488 13.4806C24.1488 13.4447 24.2568 13.3907 24.2748 13.3907C25.4273 14.4872 25.9136 12.7257 26.814 12.7796C26.5438 14.0917 26.0216 15.0444 24.4549 15.2421C23.9327 15.314 22.7081 15.4398 23.1583 16.698C23.1583 16.716 22.402 17.0036 21.9878 17.1653H21.9698Z" fill="#FDFDFD"/>
<path d="M54.7264 26.7635C53.9521 26.458 53.1957 26.1704 52.4214 25.8648C53.0157 25.074 52.8716 23.2945 53.808 23.4563C54.8705 23.636 54.3302 25.2897 54.5823 26.2782C54.6184 26.44 54.6724 26.6018 54.7084 26.7635H54.7264Z" fill="#FDFDFD"/>
<path d="M21.1234 53.7967C21.6817 53.3653 21.4115 52.7542 21.4656 52.2149C21.5736 51.1005 22.0959 50.3277 23.5185 49.9861C22.384 51.0826 21.8798 52.143 22.2039 53.5091C22.2939 53.8506 22.0238 54.5875 21.7897 54.6594C21.0154 54.8931 21.0154 54.3179 21.1594 53.7607L21.1414 53.7967H21.1234Z" fill="#FDFDFD"/>
<path d="M45.4702 60.5729C45.5603 61.6334 43.8675 61.2919 43.9756 62.4602C43.9756 62.604 43.3093 62.5141 43.2372 62.1187C43.0752 61.2919 42.4629 61.6694 42.0127 61.5975C42.3188 60.2494 43.5254 60.2494 44.5338 59.9438C44.6959 59.8899 44.7139 59.9438 44.3357 60.6269C44.2637 60.6987 44.1196 60.8425 44.1376 60.8605C44.2997 61.0403 44.4258 60.9324 44.5338 60.7886C44.84 60.7167 45.1641 60.6448 45.4702 60.5909V60.5729Z" fill="#D0D7C9"/>
<path d="M31.388 76.0846L31.28 76.1565H31.1359C30.8478 76.1565 30.5776 76.1206 30.3615 76.3902C30.1274 76.6958 29.8033 77.1092 29.4251 76.7317C29.173 76.4801 28.8849 75.833 29.0109 75.6712C29.7853 74.7006 29.047 73.5323 29.5332 72.5617C29.6952 73.9817 30.3615 75.132 31.388 76.1026V76.0846Z" fill="#D0D7C9"/>
<path d="M15.8111 56.4389C14.5505 56.4389 13.6681 57.4095 12.4436 57.7869C12.5336 56.9062 12.6417 55.8996 13.4881 55.8098C14.1904 55.7379 15.1988 55.7019 15.7931 56.4748L15.8111 56.4568V56.4389Z" fill="#FDFDFD"/>
<path d="M25.9856 61.3818C26.7239 61.6154 27.6243 59.8899 28.2906 61.4896C28.4167 61.7772 28.7588 62.0828 28.2366 62.2985C27.2822 62.6759 26.6339 62.1187 26.0036 61.3998L25.9856 61.3818Z" fill="#FDFDFD"/>
<path d="M33.9811 19.5559C32.6305 19.0526 32.7926 18.2797 33.4409 17.3631C33.765 16.9137 34.1072 16.9676 34.4493 17.2912C34.7374 17.5608 34.7735 18.064 34.3773 18.1359C33.2788 18.3516 34.1432 19.1065 33.9631 19.5559H33.9811Z" fill="#D0D7C9"/>
<path d="M38.087 18.7291C37.8889 18.2258 38.5012 17.9202 38.033 17.399C37.3487 16.662 38.2851 16.3385 38.5552 15.8532C38.6273 15.7454 39.0054 15.6914 39.1675 15.7813C39.3296 15.8712 39.4736 16.3026 39.4556 16.3205C38.5732 16.8777 38.7173 18.0281 38.087 18.7291Z" fill="#D0D7C9"/>
<path d="M28.2006 35.5349C28.0025 36.0382 27.9304 36.6673 27.1561 36.6134C27.1561 35.9304 26.5618 35.8764 26.0576 35.5529C26.814 35.9304 27.3902 33.9712 28.2006 35.5349Z" fill="#D0D7C9"/>
<path d="M17.5039 46.4452C18.1701 47.5237 19.0525 45.6184 19.6288 46.8227C19.4487 47.0024 19.3047 47.5776 18.7104 47.7214C18.4223 47.308 18.1882 47.29 18.0081 47.8113H18.0261C17.81 47.8113 17.5939 47.8113 17.3778 47.8113C16.8195 47.4338 17.2697 46.8946 17.1617 46.4452C17.2697 46.4452 17.3778 46.4093 17.4678 46.3733L17.5219 46.4093L17.5039 46.4452Z" fill="#D0D7C9"/>
<path d="M30.0914 52.0711C29.083 52.88 27.7864 52.7901 26.6699 53.2754C27.6424 52.4486 28.5608 51.4241 30.0554 52.0532H30.0914V52.0711Z" fill="#D0D7C9"/>
<path d="M26.958 23.1867C26.8319 22.8991 26.7239 22.6474 26.5978 22.3958C26.3097 21.8566 26.1656 21.3353 26.6879 20.868C26.886 20.6882 26.976 20.9399 26.976 21.0657C27.012 21.6589 28.3806 21.9464 27.3722 22.7733C27.2461 22.8811 27.1381 23.0069 26.94 23.1867H26.958Z" fill="#FDFDFD"/>
<path d="M70.9155 21.7847C71.2217 22.0723 71.7079 22.1801 71.7799 22.6834C71.2577 22.4857 70.7895 22.7373 70.3033 22.8811C70.2492 22.8811 69.5109 23.0249 69.5829 22.4497C69.637 21.9285 69.763 21.4432 70.4473 21.9644C70.5194 22.0184 70.7535 21.8566 70.8975 21.7847H70.9155Z" fill="#D0D7C9"/>
<path d="M33.801 63.0893C33.765 62.7118 33.639 62.3164 34.1612 62.1367C34.7975 61.7772 35.6619 61.7053 36.7544 61.921C35.7099 62.0827 34.9355 61.903 34.8455 62.8736C34.7735 63.7723 34.1432 62.9635 33.801 63.0893Z" fill="#D0D7C9"/>
<path d="M29.2631 69.3443C30.2355 69.4162 30.3076 69.4701 29.8754 70.0273C29.3531 70.6924 30.1635 71.5012 29.5332 72.0943C29.1551 71.2136 28.3267 70.3688 29.2631 69.3443Z" fill="#D0D7C9"/>
<path d="M36.1061 89.6192C35.4578 89.9247 34.8275 90.3202 34.1432 90.5359C33.2968 90.8055 33.9812 90.0865 33.8011 89.8888C34.4674 88.9721 35.2237 88.7564 36.1061 89.6192Z" fill="#FDFDFD"/>
<path d="M4.06991 56.0434C3.31357 55.9356 2.48521 55.4862 1.90895 56.5467C1.83692 55.7918 2.35915 55.7019 2.71931 55.3784C3.61971 54.5696 3.31357 56.5467 4.0519 55.8996V56.0434H4.06991Z" fill="#D0D7C9"/>
<path d="M30.7217 19.0706C30.0734 19.3043 29.4791 19.3222 29.3171 19.9513C29.263 20.203 29.3891 20.5804 28.9029 20.4546C28.5247 20.3647 28.3626 20.0412 28.2906 19.6997C28.1826 19.2324 28.5967 19.3402 28.8128 19.2683C29.3711 19.1065 29.8393 18.4774 30.7037 19.0526L30.7217 19.0706Z" fill="#D0D7C9"/>
<path d="M34.4494 32.2996C34.2333 33.6836 32.9547 34.1689 32.1084 35.0316C31.8563 33.2342 33.1888 32.8028 34.4494 32.2996Z" fill="#FDFDFD"/>
<path d="M18.8364 20.5265C18.6563 19.9873 18.8184 19.4301 18.6203 18.8549C18.2962 17.9023 18.5483 17.6686 19.5747 17.7046C19.5567 18.4235 18.7464 19.1425 19.5387 19.8794C19.3046 20.0951 19.0705 20.3108 18.8544 20.5265H18.8364Z" fill="#D0D7C9"/>
<path d="M17.1617 46.4632C17.2698 46.9125 16.8196 47.4518 17.3778 47.8292C16.9997 48.1887 16.4234 48.7639 16.0993 48.2426C15.541 47.308 16.2253 46.7328 17.1617 46.4812V46.4632Z" fill="#FDFDFD"/>
<path d="M57.0314 54.2281C57.1215 54.5156 57.1755 54.8032 56.8874 55.0189C56.5632 54.7313 56.7793 54.0663 56.149 54.0124C55.7528 53.9764 55.3026 53.9225 55.4107 53.3293C55.4287 53.1676 55.5187 52.9699 55.6448 52.898C56.185 52.5744 56.2211 53.2754 56.5812 53.3833C56.9954 53.5091 56.9234 53.9225 57.0494 54.2281H57.0314Z" fill="#D0D7C9"/>
<path d="M60.561 11.6113C59.6786 11.7371 60.705 12.8335 59.8586 12.9773C59.4625 13.0492 59.1563 12.8515 59.1383 12.4561C59.1023 11.791 59.4264 11.3776 60.1288 11.3237C60.3449 11.3237 60.597 11.2518 60.561 11.6113Z" fill="#D0D7C9"/>
<path d="M15.3969 71.4473C15.9732 70.5486 14.9647 69.578 15.577 68.5535C16.0692 69.9914 16.0092 70.956 15.3969 71.4473Z" fill="#D0D7C9"/>
<path d="M41.4185 61.8131C41.2384 62.3524 40.8602 62.3883 40.392 62.2445C39.9058 62.1367 39.3475 62.4602 38.9333 61.903C39.7257 60.6268 40.5901 61.5795 41.4185 61.8131Z" fill="#D0D7C9"/>
<path d="M8.60791 61.5255C9.11213 60.7527 9.58034 60.3033 10.4627 60.8605C10.0125 61.4177 9.63437 62.0109 8.60791 61.5255Z" fill="#D0D7C9"/>
<path d="M21.6277 59.1709C22.5641 58.8833 23.3204 58.8114 23.9507 58.416C23.4825 59.2608 23.0503 60.1595 21.6277 59.1709Z" fill="#D0D7C9"/>
<path d="M40.9863 17.7765C41.8147 18.5673 42.3009 19.1784 41.5265 20.0053C40.4641 19.6278 41.1844 18.7111 40.9863 17.7765Z" fill="#D0D7C9"/>
<path d="M25.3913 45.9599C25.1572 46.6609 24.9951 47.1283 24.815 47.6315C24.1667 46.9485 24.3588 46.3913 25.3913 45.9599Z" fill="#D0D7C9"/>
<path d="M5.34839 51.1185C4.79015 51.0287 4.6821 50.7051 5.02425 50.3097C5.54648 49.7345 5.90664 49.2133 5.54648 48.3685C5.38441 48.027 5.54648 47.9551 6.28481 48.3685C6.28481 49.393 6.12274 50.3636 5.34839 51.1185Z" fill="#D0D7C9"/>
<path d="M26.6159 37.0807C26.6699 37.4402 26.7419 37.8176 26.796 38.1771C26.3818 38.1771 25.8235 38.986 25.5534 38.0872C25.3013 37.2425 26.1297 37.2964 26.6159 37.0807Z" fill="#D0D7C9"/>
<path d="M24.5269 28.7946C25.0491 29.3518 25.3373 29.7832 24.9411 30.3943C24.8871 30.4842 24.5449 30.5381 24.5089 30.4842C24.1127 29.9809 24.1487 29.4776 24.5269 28.7946Z" fill="#D0D7C9"/>
<path d="M20.259 81.8903C19.0165 81.0455 19.6648 80.4883 20.277 79.8412C20.9073 80.5602 20.5652 81.1713 20.259 81.8903Z" fill="#FDFDFD"/>
<path d="M65.8734 25.6671C64.6308 25.2537 65.135 24.3909 65.3151 23.4383C65.9454 24.2112 65.3151 25.0919 65.8553 25.6851L65.8734 25.6671Z" fill="#D0D7C9"/>
<path d="M42.3549 54.929C42.661 54.2101 43.0932 53.6529 43.9756 53.7068C43.7055 54.4797 43.3093 55.0728 42.3549 54.947V54.929Z" fill="#D0D7C9"/>
<path d="M15.0907 72.2921C15.0187 72.4538 15.1628 72.8133 14.8206 72.7594C14.6946 72.7414 14.5685 72.4179 14.5325 72.2381C14.5145 72.1123 14.6405 71.8787 14.7486 71.8607C15.0907 71.7888 15.0727 72.0584 15.0907 72.31V72.2921Z" fill="#D0D7C9"/>
<path d="M42.3729 54.929C42.1929 55.63 41.5986 55.666 41.0223 55.7558C41.2204 55.0009 41.7247 54.8392 42.3729 54.929Z" fill="#D0D7C9"/>
<path d="M26.778 12.7976C26.886 12.2943 26.886 11.7012 27.6784 11.809C27.3362 12.0966 27.5883 12.9234 26.778 12.7976Z" fill="#FDFDFD"/>
<path d="M20.9974 18.2977C21.1595 17.7764 21.1235 17.0754 21.9879 17.1294C21.9879 17.8124 21.4656 18.0101 20.9974 18.2977Z" fill="#FDFDFD"/>
<path d="M29.6412 90.7336C29.173 90.8774 28.6507 91.4885 28.3446 90.5359C28.8488 90.1225 29.227 90.5359 29.6412 90.7336Z" fill="#FDFDFD"/>
<path d="M16.7655 42.8684C16.7655 42.8684 16.9096 42.9762 16.9636 43.0481C16.8556 43.138 16.7475 43.2279 16.6395 43.3177C16.6034 43.2279 16.5134 43.138 16.5314 43.0841C16.5674 42.9942 16.6755 42.9403 16.7655 42.8864V42.8684Z" fill="#D0D7C9"/>
<path d="M58.7062 9.07694C58.5621 9.18478 58.4901 9.27465 58.4 9.29262C58.256 9.29262 58.0939 9.25668 57.9498 9.22073C58.0399 9.16681 58.1119 9.05896 58.2019 9.04099C58.346 9.02301 58.5081 9.04099 58.7062 9.07694Z" fill="#FDFDFD"/>
<path d="M42.607 85.7907C42.679 85.6828 42.7331 85.557 42.8051 85.4492C43.0752 85.7727 42.643 85.6648 42.589 85.7727L42.607 85.7907Z" fill="#FDFDFD"/>
<path d="M40.9683 47.9011C40.8782 47.9551 40.7882 48.027 40.6982 48.0449C40.6081 48.0449 40.5181 47.991 40.41 47.9551C40.5001 47.9012 40.5901 47.8293 40.6802 47.8293C40.7702 47.8293 40.8602 47.8832 40.9683 47.9191V47.9011Z" fill="#FDFDFD"/>
<path d="M29.8394 53.2754L29.9474 53.3114L29.8394 53.3473V53.2754Z" fill="#D0D7C9"/>
<path d="M18.6383 21.3353C18.7103 21.1017 18.7824 20.868 18.8544 20.6523C18.7824 20.886 18.7103 21.1196 18.6383 21.3353Z" fill="#D0D7C9"/>
<path d="M65.5312 13.1032C65.4771 13.3009 65.3511 13.3907 65.153 13.3368C65.135 13.3368 65.099 13.211 65.117 13.193C65.243 13.0852 65.3691 12.9414 65.5492 13.1211L65.5312 13.1032Z" fill="#25201D"/>
<path d="M28.3447 90.5538C27.9665 90.7695 27.7684 90.5538 27.6063 90.2483C27.9665 90.0685 28.3086 89.9607 28.3447 90.5538Z" fill="#FDFDFD"/>
<path d="M5.07835 52.0532C5.07835 51.7116 5.00631 51.3522 5.34847 51.1005C5.58257 51.496 5.40249 51.8015 5.07835 52.0532Z" fill="#D0D7C9"/>
<path d="M18.7103 47.7034C18.7463 48.0989 18.4402 48.1348 18.1701 48.2247C18.116 48.1887 18.062 48.1348 17.99 48.0989C17.99 47.991 17.99 47.8832 18.008 47.7753H17.99C18.2241 47.7753 18.4582 47.7394 18.6923 47.7034H18.7103Z" fill="#D0D7C9"/>
<path d="M36.9705 82.5553C36.8084 82.5194 36.4662 82.6812 36.5383 82.3756C36.5743 82.1959 36.8984 82.1959 37.0425 82.4475L36.9705 82.5733V82.5553Z" fill="#FDFDFD"/>
<path d="M7.29334 46.7867C7.23932 46.4452 7.38338 46.1756 7.6535 45.9599C7.77956 46.3374 7.67151 46.607 7.29334 46.7867Z" fill="#FDFDFD"/>
<path d="M65.8553 25.6851C65.9454 25.7929 66.0354 25.8828 66.1435 25.9906C65.7833 26.1165 65.9994 25.757 65.8734 25.6671L65.8553 25.6851Z" fill="#D0D7C9"/>
<path d="M39.9058 62.9635C39.6717 63.2331 39.3836 63.3409 39.0234 63.323C39.2035 62.9096 39.5637 62.9635 39.9058 62.9635Z" fill="#D0D7C9"/>
<path d="M49.7021 6.45273C49.7021 6.45273 49.6481 6.6145 49.6121 6.70437C49.6121 6.70437 49.522 6.68639 49.468 6.66842C49.522 6.59652 49.5941 6.52462 49.6481 6.43475L49.6841 6.45273H49.7021Z" fill="#FDFDFD"/>
<path d="M37.0425 82.4295C37.2226 82.4295 37.3486 82.5733 37.2406 82.6991C37.0965 82.8609 37.0245 82.6811 36.9705 82.5373L37.0425 82.4115V82.4295Z" fill="#FDFDFD"/>
<path d="M43.9756 53.6888C43.9756 53.6888 44.0656 53.5271 44.1196 53.4372C44.2817 53.6349 44.1737 53.6888 43.9936 53.6888H43.9756Z" fill="#D0D7C9"/>
<path d="M30.0734 52.0532C30.0734 52.0532 30.1634 51.8914 30.1994 51.8015C30.4695 51.9813 30.1994 51.9993 30.1094 52.0712L30.0734 52.0532Z" fill="#D0D7C9"/>
<path d="M18.1701 48.2247C18.0801 48.3864 18.008 48.5482 17.8099 48.3505C17.8099 48.3505 17.936 48.1887 17.99 48.0988C18.044 48.1348 18.0981 48.1887 18.1701 48.2247Z" fill="#D0D7C9"/>
<path d="M17.4498 46.4093C17.3418 46.4452 17.2517 46.4812 17.1437 46.4812C17.1797 46.3733 17.2157 46.2475 17.2517 46.1217C17.3238 46.2116 17.3778 46.3014 17.4498 46.4093Z" fill="#FDFDFD"/>
<path d="M56.2211 27.8599C55.8429 28.0756 55.8069 27.6982 55.6628 27.5184C55.951 27.4645 56.2031 27.4825 56.2211 27.8599Z" fill="#FDFDFD"/>
<path d="M44.4078 90.1944C44.6599 88.8283 44.2998 87.3365 45.3443 86.1142C45.8125 85.557 44.8941 84.8381 45.2902 84.155C45.4163 83.9573 45.7584 84.191 45.7764 83.508C45.8305 82.1779 45.0741 82.0161 44.4799 81.4589C44.4258 81.405 44.6059 81.0635 44.696 80.8658C46.6408 80.6501 48.5857 80.2906 50.5486 80.4164C51.8091 81.5128 53.5199 80.7759 54.9785 81.6566C56.4552 82.5374 56.8334 82.1779 56.2391 84.155C55.6989 86.0064 55.0326 87.7858 55.3027 89.745C55.3027 90.1404 56.041 90.8235 54.8885 90.7336C54.1682 90.6797 53.4298 90.6976 52.7095 90.6797C51.611 90.0146 50.5306 89.3855 49.6842 91.0032C47.2891 92.7467 46.4067 92.6209 44.4258 90.2123L44.4078 90.1944ZM50.4765 86.8152C50.8907 86.6714 51.1068 86.4378 51.0168 86.0244C50.9087 85.4851 50.4405 85.3234 50.0083 85.2694C49.9003 85.2694 49.5941 85.7008 49.6121 85.9345C49.6482 86.4198 49.9903 86.7254 50.4765 86.7973V86.8152Z" fill="#3F75BB"/>
<path d="M55.3026 89.727C55.0325 87.7678 55.6988 85.9884 56.239 84.137C56.8152 82.1599 56.4371 82.5014 54.9784 81.6386C53.5198 80.7759 51.809 81.4948 50.5485 80.3984C51.719 80.2366 52.5834 79.32 53.8259 79.2481C54.1861 79.2301 55.4106 78.7448 54.7083 77.6484C54.5642 77.4147 54.8344 76.8935 55.0685 77.0912C55.7708 77.6663 56.9953 78.1876 56.9413 79.0504C56.7792 81.2612 56.8693 83.3102 58.3459 85.0897L58.3819 85.0537C57.6616 84.9818 56.9773 85.2694 56.9593 85.9704C56.9233 87.4802 55.3386 88.2531 55.2846 89.709L55.3026 89.727Z" fill="#FDFDFD"/>
<path d="M49.6841 90.9852C50.5305 89.3675 51.6289 89.9966 52.7094 90.6617C52.1152 91.83 52.1332 91.794 51.1247 90.9672C50.6925 90.6077 50.1703 90.9672 49.6841 90.9672V90.9852Z" fill="#FDFDFD"/>
<path d="M54.3482 6.95599C53.844 7.11776 53.5378 6.99194 53.5378 6.41676C53.5378 5.42818 54.5823 5.71577 54.9965 5.24844C55.1766 5.51806 55.4827 5.78767 55.5187 6.07526C55.6088 6.92004 54.5643 6.41676 54.3482 6.95599Z" fill="#D0D7C9"/>
<path d="M43.1113 4.69124C42.409 4.27784 41.5806 4.67327 40.6082 4.36771C41.5086 3.66672 42.3549 3.469 43.1473 3.73861C43.7415 3.93633 43.1293 4.38568 43.0572 4.72719L43.0933 4.69124H43.1113Z" fill="#D0D7C9"/>
<path d="M40.1399 65.7854C40.0319 66.109 39.9238 66.4505 39.8338 66.774L39.8698 66.7381C39.5997 66.756 39.3296 66.8099 39.0595 66.8099C38.6993 66.8099 38.1771 66.9717 38.1591 66.3965C38.1591 66.055 38.4652 65.8573 38.8794 65.8034C39.2035 65.7674 39.5277 65.6237 39.8518 65.5158C39.9599 65.6057 40.0679 65.6776 40.176 65.7674L40.1399 65.7854Z" fill="#D0D7C9"/>
<path d="M44.804 64.2936C44.4618 64.4374 44.1197 64.5452 44.0297 64.0419C43.9576 63.7004 44.2277 63.5387 44.4799 63.4128C44.75 64.5991 45.7944 62.9275 45.9385 63.7544C46.0285 64.3295 45.2542 64.2217 44.804 64.3115V64.2936Z" fill="#D0D7C9"/>
<path d="M38.5191 4.74518C38.7712 5.12264 38.5912 5.28441 38.231 5.24846C37.9969 5.23049 37.6187 5.53605 37.5287 5.03277C38.195 5.10467 37.0605 4.29583 37.8888 4.34975C38.267 4.36773 38.5011 4.34975 38.5191 4.74518Z" fill="#D0D7C9"/>
<path d="M42.4269 79.8951C41.9947 80.4344 41.7246 80.8478 41.1483 80.4883C41.3464 79.967 41.7786 79.9311 42.4269 79.8951Z" fill="#D0D7C9"/>
<path d="M40.2479 79.6795C40.3199 79.967 40.2299 80.1288 40.0318 80.0929C39.8337 80.0389 39.5996 79.9311 39.4735 79.7693C39.3115 79.5716 39.5276 79.4817 39.6896 79.4997C39.9057 79.5357 40.1038 79.6255 40.2479 79.6974V79.6795Z" fill="#D0D7C9"/>
<path d="M51.2689 61.4177C51.1428 61.6694 50.8007 61.7592 50.7286 61.5975C50.6026 61.3278 50.9627 61.3818 51.1248 61.3099L51.2509 61.4177H51.2689Z" fill="#FDFDFD"/>
<path d="M39.8157 65.5338C39.9598 65.3541 40.0318 64.9407 40.374 65.2642C40.7161 65.5877 40.41 65.6956 40.1219 65.7854C40.0138 65.6956 39.9058 65.6237 39.7977 65.5338H39.8157Z" fill="#D0D7C9"/>
<path d="M58.364 85.0897L58.5621 85.3593C58.5621 85.3593 58.4541 85.3773 58.418 85.3952C58.418 85.2874 58.418 85.1616 58.418 85.0537L58.382 85.0897H58.364Z" fill="#FDFDFD"/>
<path d="M79.6855 48.8717C79.6855 48.8717 79.5414 48.9616 79.4694 48.9976C79.4334 48.9976 79.3973 48.9436 79.3613 48.9077C79.4334 48.8717 79.5054 48.8178 79.5774 48.7998C79.6134 48.7998 79.6495 48.8538 79.7035 48.8897L79.6855 48.8717Z" fill="#FDFDFD"/>
<path d="M50.8906 60.0876C50.9987 60.0876 51.1067 60.1236 51.2328 60.1236C51.1968 60.1775 51.1427 60.2314 51.1067 60.2853C51.0347 60.2134 50.9627 60.1415 50.8906 60.0517V60.0876Z" fill="#25201D"/>
<path d="M22.6902 61.7772C22.6902 61.7772 22.6541 61.8491 22.6541 61.885C22.6001 61.8491 22.5461 61.8311 22.4921 61.7952C22.5281 61.7592 22.5461 61.7053 22.5821 61.6873C22.6181 61.6873 22.6541 61.7412 22.6902 61.7772Z" fill="#3F75BB"/>
<path d="M26.0036 84.3707C26.0757 84.4786 26.1297 84.6044 26.2017 84.7122C26.0757 84.6943 25.9316 84.6583 25.8055 84.6403C25.8776 84.5505 25.9496 84.4606 26.0216 84.3707H26.0036Z" fill="#3F75BB"/>
<path d="M51.4129 5.82364C51.611 5.85959 51.701 5.98541 51.611 6.16515C51.611 6.2011 51.3588 6.11123 51.2328 6.07528C51.2868 5.98541 51.3588 5.91351 51.4309 5.82364H51.4129Z" fill="#25201D"/>
<path d="M73.1486 39.7049C73.1486 39.7049 73.2386 39.6869 73.2566 39.7049C73.2926 39.7229 73.3286 39.7768 73.3286 39.8128C73.2746 39.9745 73.2026 39.9925 73.1125 39.8307C73.1125 39.8128 73.1306 39.7588 73.1486 39.7049Z" fill="#3F75BB"/>
<path d="M19.2146 44.9893C19.2146 44.9893 19.4127 45.1151 19.3947 45.1691C19.3947 45.2589 19.3046 45.3308 19.2506 45.4207C19.1966 45.3848 19.1065 45.3488 19.1245 45.3308C19.1245 45.223 19.1786 45.1151 19.2146 45.0073V44.9893Z" fill="#3F75BB"/>
<path d="M44.5339 60.7886C44.4258 60.9324 44.2998 61.0223 44.1377 60.8605C44.1377 60.8605 44.2638 60.7167 44.3358 60.6269C44.4078 60.6808 44.4618 60.7347 44.5339 60.7886Z" fill="#3F75BB"/>
<path d="M18.7104 47.7214C18.4763 47.7573 18.2422 47.7753 18.0081 47.8113C18.1881 47.29 18.4222 47.308 18.7104 47.7214Z" fill="#3F75BB"/>
<path d="M50.4764 86.8152C50.0082 86.7433 49.6661 86.4378 49.6121 85.9525C49.6121 85.7368 49.9002 85.2874 50.0082 85.2874C50.4404 85.3413 50.9086 85.4851 51.0167 86.0423C51.0887 86.4557 50.8726 86.6894 50.4764 86.8332V86.8152Z" fill="#FDFDFD"/>
</g>
<defs>
<clipPath id="clip0_85_568">
<rect width="81" height="96" fill="white"/>
</clipPath>
</defs>
</svg>
