<svg width="115" height="91" viewBox="0 0 115 91" fill="none" xmlns="http://www.w3.org/2000/svg">
<g clip-path="url('#clip0_85_184')">
<path d="M73.1409 90.3282C69.0144 90.7821 65.2303 91.2723 61.4643 90.8003C60.0047 90.6187 58.6172 89.8017 57.0135 89.9106C55.5359 90.0014 54.0042 90.0196 52.5807 89.7109C51.013 89.3659 49.4453 88.8031 48.0578 87.986C44.3098 85.7891 40.1293 84.3911 36.6155 81.8129C34.9036 80.5601 33.2278 79.1802 32.4169 76.9832C32.2007 76.3841 31.3718 75.6215 30.7592 75.2765C29.2996 74.4413 28.9032 72.9525 28.0382 71.7542C27.4616 70.9553 27.1372 70.8101 25.966 70.8645C24.1821 70.9372 22.4162 71.4274 20.4881 71.1187C18.7222 70.8464 16.704 71.1732 14.7759 71.1187C12.7577 71.0642 11.2621 69.9386 9.47821 69.4302C7.65824 68.9036 6.27075 67.5237 4.66702 66.5796C2.7029 65.4176 1.67579 63.2388 1.22531 61.2235C0.900957 59.7346 -0.0180341 58.3366 0.144141 56.6117C0.216218 55.831 -0.288326 54.8324 0.144141 53.9972C1.00907 52.3994 -0.198228 50.6383 0.612646 49.0768C1.02709 48.2779 0.558588 46.771 2.25241 46.9888C2.30647 46.9888 2.39657 46.9525 2.39657 46.9344C2.18034 44.7374 4.50484 44.8282 5.26166 43.6844C6.4149 41.9413 8.03665 40.7793 9.49622 39.5084C10.8837 38.2919 12.037 36.6034 13.8749 36.0405C15.5868 35.514 16.9202 34.1159 18.8663 34.0433C19.6592 34.007 19.8574 32.6453 20.9566 32.5726C21.2089 32.5545 20.0556 31.8464 20.5602 31.1927C21.4972 29.94 21.7675 28.3422 22.6144 27.0712C23.3712 25.9274 24.0559 24.6746 24.6506 23.4944C25.2452 22.2961 26.2363 21.3701 26.9751 20.6075C28.5608 18.9916 29.5699 17.1215 30.4528 15.1969C31.3358 13.3087 32.8674 12.1285 34.2369 10.8575C36.5073 8.76956 39.0481 6.97207 41.5168 5.10196C42.5439 4.33939 43.8232 4.43017 45.0305 4.33939C45.1927 4.33939 45.427 4.39386 45.481 4.30308C46.2559 3.10475 47.6253 3.32263 48.7245 2.99582C51.95 2.03353 54.9953 0.0544759 58.401 0.163414C61.4282 0.254197 64.4375 -0.344965 67.5008 0.363135C68.654 0.617325 69.9514 0.980454 71.2488 1.05308C72.5282 1.1257 73.8256 1.79749 74.9788 2.45112C76.2222 3.15922 77.6637 4.13967 78.7629 4.39386C80.9973 4.88408 82.9074 5.73744 84.6913 7.00839C85.4121 7.51677 85.8085 8.44274 86.4572 9.07822C86.8536 9.47766 87.5204 10.0224 87.9348 9.91341C90.0971 9.42319 92.6379 9.71369 94.3677 8.71509C96.5841 7.42598 98.6564 7.09917 100.909 7.53492C102.873 7.91621 104.891 6.93576 106.783 7.91621C106.909 7.98883 107.27 7.86174 107.27 7.8799C107.45 8.86034 108.315 8.67878 108.855 9.02375C109.63 9.51397 110.459 10.2584 111.18 11.0028C112.892 12.764 114.207 14.8156 114.586 17.2123C115.018 20.0629 115.306 22.9679 113.631 25.7095C113.072 26.6355 113.468 28.088 113.144 29.2318C112.351 32.155 111.054 34.7514 108.477 36.6215C106.621 37.9469 105.54 39.8352 106.657 42.2318C107.162 43.2849 106.333 44.0656 106.351 45.0643C106.441 48.2053 105.72 51.2556 105.233 54.3603C104.927 56.3575 103.63 57.9372 103.648 59.8254C103.666 61.7319 102.476 63.1662 102.152 64.9092C102.008 65.7081 101.576 66.7612 100.458 67.088C100.08 67.1969 99.6655 67.669 99.5573 68.0503C98.7645 70.9008 95.8634 72.1355 94.638 74.5321C93.719 76.3296 92.3856 77.7458 91.3765 79.4344C90.5476 80.8324 88.8178 81.4134 88.097 83.0656C87.7186 83.9008 86.223 83.3743 85.4301 84.0643C83.8985 85.3897 82.1145 86.5335 80.4027 87.4232C77.9881 88.676 75.9158 91.2542 73.0508 90.4008L73.1409 90.3282ZM92.4036 30.1941C93.2325 30.0126 93.8632 29.5768 94.2957 28.8506C94.638 28.7416 95.0705 28.5419 94.7642 28.1788C94.5119 27.8883 94.3317 28.5237 94.0254 28.5782C93.2866 28.9232 92.3496 28.9777 91.9531 29.8673C91.791 30.0307 91.6288 30.1941 91.4666 30.3757C91.1062 30.2123 90.7999 30.4483 90.4575 30.521C87.3221 31.2654 84.9436 30.2123 82.7632 27.7793C80.1144 24.838 77.6637 22.0601 76.8889 17.8841C76.3123 14.8157 76.8529 12.2737 78.0602 9.60476C78.4566 8.71509 79.9522 8.4609 79.6278 7.4623C79.2675 6.40923 77.8619 6.89945 76.979 6.46369C75.0329 5.48325 73.0147 4.61174 70.9605 3.84917C69.4469 3.28632 68.654 4.33939 67.5188 5.30168C65.3204 7.15364 63.3923 9.2961 61.0498 10.9483C59.1217 12.3101 57.554 14.4888 54.6349 13.7989C53.5357 13.5447 52.6347 12.8548 51.5896 12.4916C49.5534 11.7835 47.7335 10.3492 46.8145 8.11593C46.6343 7.66202 46.364 6.84498 45.445 7.18995C44.3458 7.60755 43.1025 7.77096 42.1294 8.37012C39.4445 10.0224 36.9759 11.9832 34.7955 14.271C33.8765 15.2332 32.7413 16.1955 32.3268 17.3939C31.7863 18.9553 31.0655 20.2626 29.9303 21.3883C29.3717 21.933 29.2455 22.4958 29.8582 23.1676C31.3718 24.8017 32.7593 26.5629 34.4712 28.0517C35.5343 28.9777 36.3812 30.2668 36.9218 31.6648C37.2642 32.5545 37.0119 33.771 37.4444 34.3701C38.976 36.5307 39.2103 36.8212 38.8499 39.3268C38.7958 39.7081 39.1021 39.581 39.2643 39.6718C39.6608 39.9441 40.0211 40.2891 39.8229 40.8156C39.4445 41.8687 40.0572 42.7947 40.0932 43.7751C40.1653 45.6089 41.1383 47.4427 39.8409 49.331C39.4986 49.8394 38.7958 50.9832 39.3364 51.6732C39.931 52.4358 40.6158 51.2919 41.3185 51.2193C41.4807 51.2193 41.6429 51.1103 41.787 51.1285C43.8413 51.3645 45.8414 50.7109 47.8596 50.6201C48.7425 50.5838 49.121 50.2388 48.9948 49.331C48.7065 47.4246 49.8237 45.7724 50.4544 44.1927C50.995 42.8492 51.8959 40.9791 53.9682 40.7249C54.9592 40.6159 55.8422 40.2891 56.5089 39.2905C57.6441 37.6564 59.5182 37.2933 61.3742 37.0391C62.2751 36.912 62.5995 37.838 63.2842 38.1467C65.4285 39.1453 67.699 39.8715 69.6631 41.324C70.1857 41.7235 70.9064 42.6131 72.0236 42.1592C76.4024 40.3799 80.0963 37.3659 84.5471 35.6592C87.2681 34.6061 89.2322 32.0098 91.9351 30.6844C92.1333 30.5573 92.4397 30.5391 92.4216 30.1941H92.4036ZM64.6537 4.64805C64.8339 4.72068 65.0141 4.72068 65.0681 4.5028C65.1042 4.33939 64.9781 4.30308 64.8339 4.39386C64.7618 3.7947 65.5006 3.54051 65.5367 2.9595C63.8969 2.75978 62.2211 3.6676 60.9057 3.14107C58.5812 2.21509 56.599 3.39526 54.6709 3.88548C53.0672 4.28492 51.5896 5.6285 49.7516 5.82822C49.3912 5.86453 49.0309 5.88269 49.2291 6.42738C49.8417 8.02515 51.1932 9.25978 52.4185 10.0224C53.788 10.8757 55.7701 11.1844 57.6081 10.8212C57.8063 10.7849 58.0946 11.1844 58.0946 10.6215C58.0946 9.22347 59.4281 8.80587 60.1128 7.89805C60.6174 7.22626 62.0769 7.15364 62.0769 7.08101C62.0769 5.30168 63.9509 5.57403 64.6357 4.64805H64.6537ZM91.4306 12.5098C92.4577 13.1453 93.1785 13.7807 94.62 13.2724C96.6922 12.5461 99.0167 12.4553 101.215 13.3994C102.494 13.9441 102.801 15.1606 103.432 16.2318C104.891 18.7374 104.567 21.9511 102.44 23.8939C101.792 24.493 101.539 25.6369 100.332 25.5098C101.179 27.1257 99.4312 27.2346 98.8546 27.9972C97.431 29.8855 95.8093 31.6103 93.9353 33.1173C93.0523 33.8254 92.0072 34.0251 91.1242 34.6425C89.7908 35.5684 88.6376 36.8939 87.16 37.4749C84.9796 38.3282 83.1597 39.8897 80.9973 40.5796C79.4657 41.0698 78.6548 42.5042 77.2673 42.8855C74.2941 43.6844 72.2759 46.4623 69.0865 46.6983C68.0594 48.4413 66.0772 48.405 64.5276 48.8226C62.9959 49.2221 61.5183 49.912 59.9146 50.2025C58.5451 50.4567 56.9053 51.0377 55.662 51.764C54.6349 52.3813 53.1032 51.764 52.7789 52.6536C52.1662 54.3422 51.2112 53.6341 50.2562 53.4162C49.1209 53.162 48.0218 53.6341 46.9046 53.6704C44.6882 53.7612 42.4898 54.2514 40.2914 54.5964C38.7237 54.8506 37.156 55.2863 35.5703 55.3589C34.3811 55.4134 33.4801 56.3212 32.2728 56.1941C29.2275 55.8492 26.2543 57.1564 23.209 56.5754C21.7314 56.3031 20.3079 56.6662 18.8663 56.6844C16.3076 56.7025 14.3074 55.4134 12.3073 54.088C11.2261 53.3799 10.0008 49.2402 10.7576 48.3143C11.8748 46.9344 12.9019 45.4455 14.4516 44.4288C15.6409 43.648 17.5329 43.3394 17.7491 41.7598C17.9654 40.2528 18.5059 39.0545 19.3348 37.9106C19.533 37.6383 19.6051 37.493 19.497 37.2025C19.3348 36.7849 19.0285 36.9846 18.8123 37.0754C17.4068 37.6564 15.8751 38.0196 14.7219 39.0545C12.2172 41.324 9.60434 43.4302 6.84737 45.3729C4.88325 46.771 3.29754 48.5684 3.00923 51.3282C2.84706 52.9441 3.00923 54.4874 3.11735 56.0307C3.18942 57.0112 2.63082 57.8827 3.45972 59.0992C4.86523 61.1872 5.58601 63.5657 7.94655 65.1453C12.0009 67.8506 16.3256 68.7402 21.0467 68.4316C23.8577 68.25 26.5967 67.5782 29.3717 67.324C34.4351 66.852 39.4806 66.3254 44.3818 65.0908C47.5172 64.2919 50.5084 62.8394 53.77 62.5126C54.9953 62.3855 55.8963 61.6411 57.0495 61.3687C61.0498 60.4791 64.9781 59.3352 68.8342 57.9372C71.0326 57.1383 73.0508 55.7765 75.3572 55.3771C76.7988 55.1229 77.9881 54.324 78.9611 53.5796C81.0334 51.9818 83.2498 50.7109 85.5562 49.6215C88.6916 48.1327 91.5747 46.1899 94.656 44.5922C97.1427 43.3031 98.8185 41.2877 100.584 39.2179C101.377 38.2737 102.062 37.148 103.45 36.6034C105.017 35.986 106.621 35.0419 107.792 33.8254C109.882 31.683 110.567 28.6872 111.198 25.9092C111.72 23.5852 112.513 21.1886 111.955 18.6467C111.378 16.0866 110.819 13.5084 108.513 11.9288C106.062 10.2584 103.323 9.75001 100.332 10.2584C99.3051 10.44 98.0797 10.7305 97.0707 9.91341C96.8004 9.69554 96.4039 9.65923 96.5121 10.0768C96.7283 10.9483 96.0255 10.8212 95.6471 11.0028C94.3317 11.6383 93.1064 12.5643 91.4666 12.4735L91.4306 12.5098ZM100.332 54.6327C102.278 54.9777 102.729 53.7067 102.855 52.5629C103.233 49.2402 103.45 45.8813 103.666 42.5224C103.702 41.9958 103.558 41.3785 102.873 41.1788C102.585 41.1062 102.332 40.9791 102.26 41.433C101.972 43.2668 100.548 44.3017 99.1969 45.0824C97.7554 45.9176 96.6922 47.3156 94.8903 47.7151C93.8091 47.9693 92.5478 48.6592 91.7369 49.3492C89.8629 50.9288 87.5564 51.5824 85.5743 52.8897C84.0786 53.8883 82.3488 54.5237 80.9793 55.6494C79.736 56.6844 78.4386 57.6103 76.9249 57.919C73.5193 58.5908 70.5821 60.4427 67.3206 61.405C65.825 61.8408 64.5456 62.8939 62.9779 62.9483C61.4102 63.0028 59.7704 63.4204 58.5812 64.0922C56.7071 65.1453 54.6709 65.1453 52.7609 65.7989C51.2653 66.3073 49.5714 66.5433 47.9857 66.9246C44.526 67.7416 41.1744 69.0489 37.5705 69.2668C35.8046 69.3757 34.0387 69.9749 32.3088 69.8659C31.57 69.8115 31.2637 70.1927 30.9934 70.4288C30.5609 70.7919 31.0655 71.264 31.4079 71.5545C32.7413 72.6439 33.5161 74.2235 34.6333 75.5126C36.4713 77.655 37.7507 80.3603 40.814 81.0321C41.6249 81.2137 41.8051 82.176 42.4718 82.1034C43.0844 82.0307 43.4268 82.176 43.8413 82.5391C46.4901 84.9176 50.0039 85.5168 53.1573 86.8059C55.0493 87.5684 57.3198 86.8785 59.4461 87.4232C64.0771 88.5852 68.8162 87.9316 73.5012 87.4595C74.8347 87.3324 76.1321 86.6062 77.1772 85.9344C78.6728 84.9721 80.1504 83.9916 81.6821 83.0656C83.0335 82.2486 84.421 81.5042 85.7905 80.7416C87.5564 79.7612 88.7096 78.0363 89.989 76.3841C91.3945 74.5503 91.827 73.1886 90.5837 71.3548C89.8088 70.2109 90.4035 68.8673 89.971 67.7416C89.1601 65.6718 88.7817 63.6201 89.3223 61.405C89.5205 60.588 90.3854 60.3338 90.5476 59.7528C91.2324 57.5196 92.8541 56.7933 94.8362 55.8855C96.8004 54.9777 98.8546 55.7584 100.35 54.6327H100.332ZM27.4075 24.8743C25.966 26.5629 24.7046 28.3967 23.8937 30.412C22.9207 32.8268 22.308 35.3869 21.6593 37.9288C21.1908 39.7263 20.9926 41.5964 20.2899 43.3757C19.9655 44.2109 19.6952 45.8994 19.8754 46.1536C21.0467 47.8059 20.5962 49.6215 20.8845 51.3464C21.0106 52.1271 20.7223 53.2165 22.0017 53.4888C26.2002 54.3785 30.3087 52.9078 34.4712 52.9986C34.9397 52.9986 35.1018 52.817 35.228 52.5084C35.8046 51.2556 36.3992 50.0028 36.8858 48.7137C37.138 48.0237 37.6966 47.4246 37.6606 46.6075C37.4984 43.3394 36.9578 40.1439 35.9668 37.0028C35.0117 33.9344 33.8044 30.9022 31.2457 28.905C29.7681 27.743 28.8131 26.2179 27.4256 24.8743H27.4075ZM89.5205 27.5615C90.3314 27.271 91.5567 26.69 92.764 25.8729C93.3587 25.4735 93.8272 24.8562 94.5299 24.5838C96.0255 24.0028 96.44 21.6425 95.2327 20.662C94.7461 20.2626 93.9713 20.0629 93.719 19.5726C92.4577 17.1578 90.3314 15.6145 88.3132 13.9805C87.0699 12.9637 85.6463 12.1285 84.6373 10.912C83.484 9.49582 82.3848 9.93157 81.4298 10.7305C80.5288 11.4749 79.4837 12.1103 79.5197 13.7626C79.5378 15.0154 79.9882 16.3226 79.5738 17.5754C79.2675 18.5196 79.5738 19.0279 80.0964 19.8631C80.691 20.771 82.1866 21.5517 81.5019 23.1131C81.3757 23.3855 81.5739 23.5126 81.8803 23.4218C82.7272 23.1676 82.8533 23.8031 83.1416 24.3659C84.3129 26.6536 86.6554 27.9246 89.5025 27.5615H89.5205ZM59.0136 47.8059C58.8514 47.824 59.0316 47.8422 59.1758 47.7696C61.8066 46.5531 64.4915 45.5 67.3026 44.7193C67.753 44.5922 68.0954 44.3198 67.5008 43.6117C66.4376 42.3408 64.888 41.9595 63.6446 41.0517C61.4643 39.4721 60.5993 39.5992 58.5271 41.433C58.2388 41.6872 57.8424 41.8506 57.482 42.014C55.2836 43.0307 53.2114 44.0293 52.3284 46.7165C52.0041 47.6969 51.986 48.6048 52.2924 49.2039C52.5627 49.6941 53.7159 49.3492 54.5088 49.2947C56.0764 49.1858 57.0495 47.5335 59.0316 47.7696L59.0136 47.8059ZM93.701 70.7374C94.0974 70.4651 94.5299 70.338 94.638 70.0838C95.1065 68.8855 96.3138 68.3226 96.8905 67.1425C97.5031 65.8897 98.4942 64.6732 99.7736 63.9288C100.368 63.5838 99.9177 62.6397 100.765 62.5852C99.7015 61.2598 100.765 60.1159 101.125 58.9539C101.485 57.8282 101.179 57.4288 100.098 57.4106C98.1698 57.3743 96.2958 57.9372 94.7281 58.8631C93.1244 59.8073 91.5927 61.0238 91.9531 63.6201C92.2955 66.0168 92.8 68.3226 93.701 70.7374ZM95.1966 16.2682C96.2778 18.1383 98.8906 18.6648 99.3952 21.0978C99.4672 21.4791 99.6474 22.0782 100.26 22.0419C100.837 22.0056 101.882 20.1173 101.666 19.5726C101.287 18.6103 100.855 17.6662 100.512 16.7039C100.332 16.2137 100.044 15.7779 99.5934 15.8143C98.0978 15.905 96.6202 16.1229 95.2147 16.2682H95.1966ZM15.749 47.007C15.4967 48.3324 13.947 47.8785 13.7488 49.2765C13.5326 50.838 15.803 53.5796 17.4248 53.5433C17.7852 53.5433 17.9654 53.4344 17.9834 53.0712C17.9834 52.8715 18.1095 52.6173 17.7311 52.5992C15.9832 52.4721 16.1454 51.074 15.9832 49.8939C15.8751 49.0587 16.4517 48.2053 15.7309 46.9888L15.749 47.007ZM34.0747 30.2486C34.2549 30.5633 34.4712 30.7812 34.7234 30.9022C34.1828 31.1383 34.7595 30.0126 34.0747 30.2486ZM36.2371 32.2095C36.2371 32.2095 36.1109 32.1369 36.0569 32.155C35.8767 32.1913 35.5884 32.0279 35.5343 32.3729C35.5343 32.4637 35.6244 32.5545 35.6785 32.6453C35.8586 32.5182 36.0208 32.3729 36.2371 32.2095ZM92.0973 66.0531C91.9892 65.9441 91.8991 65.7989 91.845 65.817C91.7009 65.8534 91.5927 65.9623 91.4486 66.0531C91.5207 66.1257 91.6108 66.2528 91.6828 66.2528C91.809 66.2528 91.9351 66.1439 92.0973 66.0712V66.0531ZM77.6998 13.0545C77.4835 12.9819 77.3394 12.9092 77.1952 12.8911C77.1231 12.8911 77.0511 13 76.979 13.0545C77.0691 13.1453 77.1592 13.345 77.2313 13.3268C77.3754 13.3087 77.5016 13.1816 77.6998 13.0545ZM39.8409 43.5754C39.8409 43.5754 39.7508 43.4302 39.6968 43.3575C39.6608 43.3939 39.5887 43.4483 39.6067 43.4846C39.6427 43.5573 39.6968 43.6299 39.7328 43.7025L39.8409 43.5573V43.5754ZM95.0525 56.1941C95.0525 56.1941 94.9624 56.067 94.9083 55.9944C94.8723 56.0307 94.8002 56.0852 94.8182 56.1215C94.8543 56.1941 94.9083 56.2668 94.9444 56.3394C94.9804 56.3031 95.0164 56.2486 95.0525 56.1941Z" fill="#25201D"></path>
<path d="M91.9171 30.6844C89.2142 32.0098 87.25 34.6062 84.5291 35.6592C80.0963 37.3659 76.3843 40.3799 72.0056 42.1592C70.8884 42.6131 70.1676 41.7235 69.6451 41.324C67.681 39.8715 65.4105 39.1453 63.2662 38.1467C62.5995 37.838 62.2751 36.912 61.3561 37.0391C59.5001 37.2933 57.6081 37.6564 56.4909 39.2905C55.8061 40.2891 54.9412 40.5978 53.9501 40.7249C51.8599 40.9791 50.9769 42.8492 50.4364 44.1928C49.8057 45.7724 48.6885 47.4246 48.9768 49.331C49.1029 50.2388 48.7245 50.5838 47.8416 50.6201C45.8054 50.6928 43.8232 51.3645 41.769 51.1285C41.6068 51.1285 41.4447 51.2011 41.3005 51.2193C40.5977 51.2738 39.931 52.4176 39.3184 51.6732C38.7598 50.9833 39.4805 49.8394 39.8229 49.331C41.1203 47.4428 40.1473 45.609 40.0752 43.7752C40.0391 42.7947 39.4265 41.8687 39.8049 40.8157C40.0031 40.2891 39.6427 39.926 39.2463 39.6718C39.0841 39.5629 38.7778 39.7081 38.8318 39.3268C39.1922 36.8212 38.958 36.5489 37.4263 34.3701C37.0119 33.771 37.2461 32.5545 36.9038 31.6648C36.3632 30.2668 35.5163 28.9777 34.4531 28.0517C32.7593 26.5447 31.3718 24.8017 29.8401 23.1676C29.2275 22.4958 29.3536 21.9511 29.9122 21.3883C31.0474 20.2444 31.7682 18.9372 32.3088 17.3939C32.7233 16.2137 33.8585 15.2514 34.7775 14.271C36.9578 11.9833 39.4265 10.0224 42.1114 8.37013C43.0844 7.77097 44.3278 7.60756 45.4269 7.18996C46.3459 6.84499 46.6162 7.66203 46.7964 8.11594C47.7154 10.3492 49.5354 11.7835 51.5716 12.4916C52.6167 12.8548 53.5177 13.5266 54.6169 13.7989C57.536 14.4888 59.1037 12.3282 61.0318 10.9483C63.3743 9.29611 65.3024 7.15365 67.5008 5.30169C68.636 4.3394 69.4288 3.28633 70.9425 3.84918C72.9967 4.61175 75.0149 5.4651 76.961 6.4637C77.8439 6.91761 79.2674 6.40923 79.6098 7.46231C79.9522 8.46091 78.4566 8.69694 78.0421 9.60477C76.8348 12.2738 76.3123 14.8157 76.8709 17.8841C77.6457 22.0601 80.0963 24.838 82.7452 27.7793C84.9255 30.1942 87.2861 31.2472 90.4395 30.521C90.7638 30.4483 91.0882 30.2123 91.4486 30.3757C91.6107 30.4847 91.7549 30.5754 91.9171 30.6844Z" fill="#3F75BB"></path>
<path d="M91.4306 12.5098C93.0523 12.6006 94.2776 11.6927 95.6111 11.0391C95.9895 10.8575 96.6742 10.9846 96.476 10.1131C96.3679 9.69554 96.7643 9.73185 97.0346 9.94973C98.0437 10.7849 99.269 10.4763 100.296 10.2947C103.287 9.76816 106.026 10.2947 108.477 11.9651C110.783 13.5265 111.342 16.1048 111.919 18.683C112.477 21.2067 111.702 23.6215 111.162 25.9455C110.531 28.7235 109.846 31.7193 107.756 33.8617C106.585 35.0601 104.981 36.0224 103.413 36.6397C102.044 37.1844 101.341 38.3101 100.548 39.2542C98.7825 41.324 97.1067 43.3394 94.62 44.6285C91.5567 46.2263 88.6736 48.169 85.5202 49.6578C83.2137 50.7472 80.9973 52.0182 78.9251 53.6159C77.952 54.3603 76.7627 55.1592 75.3212 55.4134C73.0147 55.831 70.9965 57.1927 68.7982 57.9735C64.942 59.3715 61.0138 60.4972 57.0134 61.405C55.8602 61.6592 54.9592 62.4218 53.7339 62.5489C50.4724 62.8939 47.4812 64.3282 44.3458 65.1271C39.4265 66.3799 34.381 66.9064 29.3356 67.3603C26.5606 67.6145 23.8217 68.2863 21.0106 68.4679C16.2895 68.7584 11.9649 67.8869 7.9105 65.1816C5.54996 63.602 4.8472 61.2235 3.42367 59.1355C2.61279 57.9372 3.15337 57.0475 3.0813 56.067C2.97318 54.5237 2.79299 52.9805 2.97318 51.3645C3.26149 48.5866 4.8472 46.7891 6.81132 45.4092C9.56829 43.4483 12.1811 41.3422 14.6858 39.0908C15.8391 38.0559 17.3707 37.6927 18.7762 37.1117C19.0105 37.021 19.2988 36.8212 19.461 37.2388C19.5691 37.5293 19.515 37.6564 19.2988 37.9469C18.4699 39.0908 17.9293 40.2891 17.7131 41.7961C17.4968 43.3757 15.6048 43.6844 14.4155 44.4651C12.8658 45.4819 11.8387 46.9707 10.7215 48.3506C9.96472 49.2765 11.19 53.4162 12.2712 54.1243C14.2714 55.4497 16.2715 56.7388 18.8303 56.7207C20.2718 56.7207 21.6954 56.3394 23.173 56.6117C26.2182 57.1927 29.1914 55.8855 32.2367 56.2305C33.444 56.3757 34.345 55.4497 35.5343 55.3953C37.12 55.3226 38.6697 54.8687 40.2554 54.6327C42.4538 54.2877 44.6521 53.7975 46.8685 53.7067C47.9857 53.6522 49.0849 53.1983 50.2201 53.4525C51.1752 53.6704 52.1122 54.3785 52.7428 52.69C53.0852 51.7821 54.5988 52.3995 55.626 51.8003C56.8693 51.074 58.5091 50.493 59.8785 50.2388C61.4823 49.9483 62.9599 49.2584 64.4915 48.8589C66.0412 48.4413 68.0233 48.4777 69.0504 46.7346C72.2399 46.4805 74.258 43.7207 77.2313 42.9218C78.6187 42.5405 79.4296 41.1062 80.9613 40.6159C83.1236 39.926 84.9616 38.3645 87.1239 37.5112C88.6015 36.9302 89.7548 35.6048 91.0882 34.6788C91.9892 34.0615 93.0163 33.8617 93.8992 33.1536C95.7732 31.6467 97.395 29.9218 98.8185 28.0335C99.3771 27.2891 101.143 27.162 100.296 25.5461C101.485 25.655 101.738 24.5112 102.404 23.9302C104.549 22.0056 104.855 18.7738 103.395 16.2682C102.765 15.1969 102.458 13.9805 101.179 13.4358C98.9807 12.5098 96.6562 12.6006 94.584 13.3087C93.1424 13.7989 92.4036 13.1634 91.3945 12.5461L91.4306 12.5098Z" fill="#F5CC43"></path>
<path d="M100.332 54.6327C98.8366 55.7584 96.7643 54.9777 94.8182 55.8855C92.8361 56.7933 91.2144 57.5196 90.5296 59.7528C90.3494 60.3338 89.4845 60.588 89.3043 61.405C88.7637 63.6201 89.1421 65.6718 89.953 67.7416C90.3855 68.8673 89.7908 70.2109 90.5657 71.3547C91.809 73.1885 91.3765 74.5321 89.971 76.3841C88.7097 78.0363 87.5384 79.7612 85.7725 80.7416C84.403 81.5042 83.0155 82.2486 81.6641 83.0656C80.1324 83.9916 78.6548 84.9721 77.1592 85.9344C76.1141 86.6061 74.7987 87.3324 73.4832 87.4595C68.7982 87.9316 64.0591 88.5852 59.4281 87.4232C57.2838 86.8785 55.0313 87.5684 53.1393 86.8059C49.9859 85.5349 46.4901 84.9358 43.8233 82.5391C43.4088 82.176 43.0664 82.0307 42.4538 82.1034C41.8051 82.176 41.6069 81.2137 40.796 81.0321C37.7507 80.3603 36.4713 77.655 34.6153 75.5126C33.4981 74.2235 32.7233 72.662 31.3899 71.5545C31.0475 71.2821 30.5429 70.7919 30.9754 70.4288C31.2457 70.1927 31.552 69.8115 32.2908 69.8659C34.0207 69.9749 35.7866 69.3757 37.5525 69.2668C41.1564 69.0489 44.508 67.7416 47.9677 66.9246C49.5534 66.5433 51.2473 66.3073 52.7429 65.7989C54.6529 65.1453 56.6891 65.1452 58.5632 64.0922C59.7344 63.4204 61.3742 63.0028 62.9599 62.9483C64.5276 62.8939 65.807 61.8408 67.3026 61.405C70.5641 60.4427 73.5013 58.5908 76.9069 57.919C78.4386 57.6103 79.718 56.6844 80.9613 55.6494C82.3308 54.5237 84.0606 53.8701 85.5563 52.8897C87.5204 51.5824 89.8449 50.9288 91.7189 49.3492C92.5298 48.6592 93.7911 47.9693 94.8723 47.7151C96.6743 47.2975 97.7374 45.9176 99.1789 45.0824C100.53 44.3017 101.972 43.2668 102.242 41.433C102.314 40.979 102.567 41.088 102.855 41.1788C103.54 41.3785 103.684 41.9958 103.648 42.5223C103.432 45.8631 103.215 49.2221 102.837 52.5628C102.711 53.6885 102.26 54.9777 100.314 54.6327H100.332ZM65.5187 85.0265C66.9062 84.5363 68.582 84.0824 69.591 82.5391C70.3659 81.3589 71.0506 80.1061 71.7354 78.8534C72.6363 77.183 73.1769 75.3673 72.6904 73.4972C72.1858 71.5726 70.8524 70.3561 69.1045 69.2849C66.78 67.8324 64.1492 67.3785 61.7526 67.433C59.9146 67.4874 57.8244 68.9581 56.3287 70.6103C56.1305 70.8282 55.8242 71.1006 56.1125 71.3366C57.446 72.3897 56.4909 73.0796 55.8062 73.8603C55.2115 74.5321 55.2476 75.3673 55.4999 76.1844C56.9054 80.5419 60.6714 82.5573 64.0771 84.9358C64.3654 85.1355 64.87 85.0084 65.5187 85.0447V85.0265Z" fill="#3F75BB"></path>
<path d="M27.4076 24.8743C28.7951 26.2179 29.7501 27.743 31.2277 28.905C33.8045 30.9204 34.9937 33.9344 35.9488 37.0028C36.9218 40.1257 37.4624 43.3394 37.6426 46.6075C37.6786 47.4246 37.12 48.0056 36.8678 48.7137C36.3993 50.0028 35.7866 51.2556 35.21 52.5084C35.0658 52.817 34.9217 52.9986 34.4532 52.9986C30.2907 52.9078 26.1822 54.3785 21.9837 53.4888C20.7043 53.2165 20.9926 52.1271 20.8665 51.3464C20.5962 49.6215 21.0287 47.8059 19.8574 46.1536C19.6772 45.9176 19.9475 44.229 20.2719 43.3757C20.9746 41.5964 21.1728 39.7444 21.6413 37.9288C22.29 35.3869 22.9027 32.8268 23.8758 30.412C24.6866 28.3966 25.948 26.5628 27.3895 24.8743H27.4076Z" fill="#6EBD6C"></path>
<path d="M89.5205 27.5615C86.6554 27.9246 84.3309 26.6355 83.1597 24.3659C82.8714 23.7849 82.7272 23.1676 81.8983 23.4218C81.61 23.5126 81.3938 23.4036 81.5199 23.1131C82.2046 21.5517 80.691 20.771 80.1144 19.8631C79.5738 19.0279 79.2675 18.5196 79.5918 17.5754C80.0063 16.3226 79.5558 15.0335 79.5378 13.7626C79.5197 12.1103 80.5649 11.4567 81.4478 10.7305C82.4028 9.93158 83.502 9.49582 84.6553 10.912C85.6463 12.1285 87.0879 12.9637 88.3312 13.9805C90.3494 15.6327 92.4757 17.1578 93.7371 19.5726C93.9893 20.0629 94.7642 20.2807 95.2507 20.662C96.458 21.6425 96.0436 23.9847 94.5479 24.5838C93.8452 24.8562 93.3947 25.4553 92.782 25.8729C91.5747 26.69 90.3494 27.271 89.5385 27.5615H89.5205Z" fill="#6EBD6C"></path>
<path d="M59.0136 47.8059C57.0315 47.5698 56.0584 49.2221 54.4907 49.331C53.6979 49.3855 52.5446 49.7305 52.2743 49.2402C51.968 48.6592 51.986 47.7333 52.3104 46.7528C53.2114 44.0657 55.2656 43.0671 57.4639 42.0503C57.8243 41.8869 58.2208 41.7235 58.5091 41.4693C60.5813 39.6355 61.4462 39.5084 63.6266 41.088C64.8699 41.9958 66.4196 42.3771 67.4827 43.6481C68.0774 44.3562 67.735 44.6285 67.2845 44.7556C64.4915 45.5363 61.7886 46.5894 59.1578 47.8059C59.0136 47.8785 58.8334 47.8603 58.9956 47.8422L59.0136 47.8059Z" fill="#6EBD6C"></path>
<path d="M64.6537 4.64805C63.9509 5.59218 62.0769 5.30168 62.0949 7.08101C62.0949 7.13548 60.6353 7.22626 60.1308 7.89805C59.446 8.78771 58.1306 9.22347 58.1126 10.6215C58.1126 11.1844 57.8243 10.7849 57.6261 10.8212C55.7881 11.1844 53.806 10.8757 52.4365 10.0223C51.2112 9.25978 49.8597 8.02514 49.2471 6.42738C49.0488 5.90084 49.4092 5.86453 49.7696 5.82822C51.6076 5.62849 53.1032 4.30308 54.6889 3.88548C56.599 3.39525 58.5991 2.21509 60.9236 3.14106C62.2391 3.6676 63.9149 2.75978 65.5546 2.9595C65.5186 3.54051 64.7798 3.7947 64.8519 4.39386C64.7798 4.46648 64.7257 4.55727 64.6717 4.64805H64.6537Z" fill="#6EBD6C"></path>
<path d="M93.701 70.7374C92.8 68.3226 92.2954 66.0168 91.9531 63.6201C91.5927 61.0238 93.1243 59.8073 94.7281 58.8631C96.2777 57.9372 98.1698 57.3743 100.098 57.4106C101.179 57.4288 101.485 57.8101 101.125 58.9539C100.765 60.0978 99.7014 61.2598 100.765 62.5852C99.9357 62.6397 100.368 63.5838 99.7735 63.9288C98.4941 64.6732 97.5031 65.8715 96.8904 67.1425C96.3138 68.3226 95.1065 68.9036 94.638 70.0838C94.5299 70.338 94.0974 70.4651 93.701 70.7374Z" fill="#6EBD6C"></path>
<path d="M95.1966 16.2682C96.6021 16.1048 98.0977 15.905 99.5753 15.8143C100.026 15.7779 100.332 16.2137 100.494 16.7039C100.837 17.6844 101.269 18.6103 101.648 19.5726C101.864 20.1173 100.819 22.0056 100.242 22.0419C99.6294 22.0782 99.4672 21.4972 99.3771 21.0978C98.8726 18.6467 96.2598 18.1201 95.1786 16.2682H95.1966Z" fill="#FDFDFD"></path>
<path d="M15.7489 47.007C16.4517 48.2235 15.8751 49.0587 16.0012 49.912C16.1634 51.0922 16.0012 52.4721 17.7491 52.6173C18.1275 52.6536 18.0014 52.8897 18.0014 53.0894C18.0014 53.4525 17.8032 53.5433 17.4428 53.5615C15.821 53.5796 13.5506 50.838 13.7668 49.2947C13.965 47.8967 15.5147 48.3506 15.767 47.0251L15.7489 47.007Z" fill="#FDFDFD"></path>
<path d="M94.2957 28.8687C93.8632 29.595 93.2145 30.0307 92.4036 30.2123C92.2595 30.1034 92.0973 29.9944 91.9531 29.8855C92.3676 28.9958 93.2866 28.9413 94.0254 28.5964C94.1155 28.6872 94.2056 28.7779 94.2957 28.8687Z" fill="#FDFDFD"></path>
<path d="M34.0747 30.2486C34.7594 30.0126 34.1828 31.1383 34.7234 30.9023C34.4591 30.7691 34.2429 30.5512 34.0747 30.2486Z" fill="#D0D7C9"></path>
<path d="M36.2371 32.2095C36.0389 32.3729 35.8587 32.5 35.6785 32.6453C35.6244 32.5545 35.5163 32.4637 35.5344 32.3729C35.5884 32.0279 35.8587 32.1913 36.0569 32.155C36.111 32.155 36.165 32.1913 36.2371 32.2095Z" fill="#D0D7C9"></path>
<path d="M94.0254 28.5782C94.3317 28.5238 94.5119 27.8883 94.7642 28.1788C95.0885 28.5419 94.6381 28.7416 94.2957 28.8506C94.2056 28.7598 94.1155 28.669 94.0254 28.5782Z" fill="#FDFDFD"></path>
<path d="M92.0973 66.0531C91.9532 66.1257 91.827 66.2165 91.6829 66.2346C91.6108 66.2346 91.5387 66.1075 91.4486 66.0349C91.5747 65.9623 91.7009 65.8534 91.845 65.7989C91.8811 65.7989 91.9892 65.926 92.0973 66.0349V66.0531Z" fill="#FDFDFD"></path>
<path d="M77.6998 13.0545C77.5016 13.1816 77.3754 13.3087 77.2313 13.3268C77.1592 13.3268 77.0691 13.1453 76.979 13.0545C77.0511 13 77.1412 12.8911 77.1952 12.8911C77.3394 12.8911 77.4835 12.9819 77.6998 13.0545Z" fill="#FDFDFD"></path>
<path d="M92.4036 30.1941C92.4036 30.5391 92.1333 30.5573 91.9171 30.6843C91.7549 30.5754 91.6108 30.4846 91.4486 30.3757C91.6108 30.2123 91.773 30.0489 91.9351 29.8673C92.0793 29.9762 92.2415 30.0852 92.3856 30.1941H92.4036Z" fill="#FDFDFD"></path>
<path d="M39.8409 43.5754C39.8409 43.5754 39.7689 43.6662 39.7328 43.7207C39.6788 43.648 39.6247 43.5754 39.6067 43.5028C39.6067 43.4665 39.6607 43.412 39.6968 43.3757C39.7508 43.4483 39.8049 43.521 39.8409 43.5936V43.5754Z" fill="#FDFDFD"></path>
<path d="M95.0525 56.1941C95.0525 56.1941 94.9804 56.2849 94.9444 56.3394C94.8903 56.2668 94.8363 56.1941 94.8182 56.1215C94.8182 56.1034 94.8723 56.0489 94.9083 55.9944C94.9624 56.067 94.9984 56.1397 95.0525 56.1941Z" fill="#FDFDFD"></path>
<path d="M64.8159 4.41201C64.9601 4.32122 65.0862 4.35754 65.0502 4.52094C65.0141 4.73882 64.8159 4.72067 64.6357 4.6662C64.6898 4.57541 64.7439 4.48463 64.8159 4.41201Z" fill="#FDFDFD"></path>
<path d="M65.5187 85.0266C64.87 84.9902 64.3474 85.1173 64.0771 84.9176C60.6715 82.5573 56.9054 80.5238 55.4999 76.1662C55.2296 75.3492 55.2116 74.514 55.8062 73.8422C56.509 73.0433 57.446 72.3715 56.1125 71.3185C55.8242 71.0824 56.1306 70.8101 56.3288 70.5922C57.8064 68.94 59.8966 67.4693 61.7526 67.4148C64.1492 67.3604 66.78 67.8143 69.1045 69.2668C70.8524 70.3562 72.1859 71.5545 72.6904 73.4791C73.1769 75.3492 72.6544 77.1648 71.7354 78.8352C71.0506 80.088 70.3659 81.3226 69.5911 82.521C68.582 84.0643 66.9242 84.5182 65.5187 85.0084V85.0266ZM69.0685 78.7081C69.0865 78.8897 69.1766 79.0713 69.3388 78.8897C69.4829 78.7626 69.3748 78.581 69.1766 78.5266C68.9964 78.0182 69.3388 77.6732 69.501 77.2375C70.0235 75.8394 70.0416 74.4595 69.1766 73.1523C68.0234 71.4274 65.9692 70.9916 64.3294 70.1928C63.2482 69.6662 61.3562 70.5559 60.0047 71.3366C59.7885 71.4637 59.2119 71.8995 59.7885 72.4623C60.7075 73.352 60.0588 73.8967 59.32 74.4595C58.3469 75.2039 58.401 76.6201 59.2659 77.4009C60.4552 78.4539 62.0409 79.4162 62.6175 80.778C63.2662 82.3213 64.2393 81.8855 65.1763 81.9944C65.861 82.0671 66.5278 81.3226 67.2485 81.9037C66.726 80.1788 68.9424 80.0335 69.0865 78.7081H69.0685Z" fill="#25201D"></path>
<path d="M69.0684 78.7081C68.9063 80.0517 66.7079 80.1788 67.2305 81.9036C66.5097 81.3045 65.843 82.0671 65.1582 81.9944C64.2032 81.8855 63.2482 82.3212 62.5995 80.778C62.0228 79.4162 60.4551 78.4721 59.2478 77.4009C58.3829 76.6383 58.3108 75.2039 59.3019 74.4595C60.0587 73.8785 60.6894 73.3338 59.7704 72.4623C59.1938 71.8995 59.7704 71.4637 59.9866 71.3366C61.3381 70.5559 63.2482 69.6662 64.3113 70.1928C65.9511 70.9916 68.0233 71.4274 69.1585 73.1522C70.0235 74.4595 70.0054 75.8394 69.4829 77.2374C69.3207 77.6732 68.9783 78.0182 69.1585 78.5266C69.1225 78.581 69.0865 78.6536 69.0504 78.7081H69.0684Z" fill="#6EBD6C"></path>
<path d="M69.1766 78.5447C69.3748 78.5992 69.4829 78.7626 69.3388 78.9078C69.1586 79.0894 69.0865 78.9078 69.0685 78.7263C69.1045 78.6718 69.1406 78.6173 69.1766 78.5447Z" fill="#FDFDFD"></path>
</g>
<defs>
<clipPath id="clip0_85_184">
<rect width="115" height="91" fill="white"></rect>
</clipPath>
</defs>
</svg>
