<svg width="95" height="94" viewBox="0 0 95 94" fill="none" xmlns="http://www.w3.org/2000/svg">
<g clip-path="url(#clip0_85_473)">
<path d="M38.0355 63.8316C37.6623 62.7439 36.2759 62.1555 36.5247 60.8004C36.738 59.588 36.0982 58.7678 35.4583 57.912C34.5874 56.753 34.4986 56.3429 34.7118 55.0413C34.7474 54.8096 34.5874 54.4351 34.3919 54.2747C32.7745 52.9374 32.8278 51.0296 32.5435 49.2109C32.5079 49.0148 32.4013 48.7117 32.2591 48.6582C30.695 48.0341 31.1393 46.2511 30.2862 45.2526C29.753 44.6464 29.1132 44.1294 28.4911 43.6123C28.3133 43.4696 27.9401 43.5945 28.029 43.8441C28.26 44.5929 27.6379 45.431 27.869 45.8945C28.5444 47.2853 27.7801 48.4086 27.6913 49.6567C27.6379 50.4412 28.1001 51.511 28.4022 52.349C28.8288 53.5436 28.1178 54.8452 29.0954 55.9863C29.6464 56.6282 27.9401 56.1111 28.2778 57.2166C28.4911 57.4841 29.0776 56.8957 29.4508 57.2701V57.2344C29.8419 59.8911 29.913 62.6191 31.2104 65.0797C31.5126 65.6324 30.7483 66.3456 31.1038 67.041C30.7839 67.041 30.3751 66.1851 30.1796 67.1123C30.0018 67.8968 30.4462 68.7348 30.0374 69.5372C30.0018 69.5907 30.1973 69.8225 30.3218 69.8581C30.6239 69.9473 30.7128 69.6798 30.7306 69.4659C30.855 68.6457 30.9616 67.8255 31.086 66.9875C32.419 67.3976 31.7081 68.503 31.8503 69.3054C31.9214 69.7511 30.5706 70.5535 32.2235 70.5535C32.3124 70.5535 32.4901 70.9457 32.4724 71.1419C32.2413 73.0675 32.7212 74.904 33.2189 76.7405C33.3433 77.2219 33.4499 77.7747 32.8278 78.0956C32.4013 78.3274 32.5079 78.7731 32.7567 78.9336C34.1964 79.8429 33.2544 81.1267 33.3077 82.25C33.3077 82.3926 33.1478 82.6601 33.1833 82.6957C34.8363 83.9795 33.2011 85.9943 34.232 87.4385C34.5341 87.8665 34.1786 88.6688 33.7698 88.651C32.5257 88.5975 32.3657 89.2394 32.4724 90.2022C32.5435 90.9867 31.8858 91.1472 31.3882 91.2185C28.7932 91.5929 26.376 93.0728 23.6211 92.5201C22.9102 92.3775 22.6436 93.4829 21.7016 93.4116C20.1908 93.2868 18.6445 93.5186 17.116 93.5542C15.8007 93.5899 15.1431 93.1442 15.9251 91.7712C15.9784 91.6108 16.0318 91.4503 16.1029 91.2898C16.3695 91.1115 16.7249 90.8262 16.3517 90.5766C16.1206 90.4162 16.014 90.8797 15.9074 91.1115C15.8185 91.2542 15.7296 91.3968 15.6407 91.5394C15.0009 91.3611 14.7698 91.6821 14.8587 92.2527C14.9653 92.9837 14.6454 93.6077 14.1122 93.893C13.4724 94.2318 13.0103 93.6077 12.5304 93.1976C10.0243 91.1115 8.5313 88.2587 7.89145 85.2633C7.55375 83.6942 6.87835 82.6779 6.13186 81.4476C5.77639 80.8414 5.2965 79.9143 5.75861 79.0228C5.81194 78.9336 5.86526 78.7731 5.82971 78.7375C3.64355 76.6335 5.08322 73.8342 4.42559 71.445C4.67442 71.6768 4.92325 72.2295 5.26095 71.6768C5.49201 71.3023 5.11876 71.1062 4.72774 71.0884C3.46582 69.448 3.14589 67.558 3.19921 65.5254C3.19921 65.258 2.86151 64.937 2.63046 64.7231C2.1328 64.2416 2.22166 63.9385 2.86151 63.7959C3.3414 63.7067 3.73242 63.5463 3.64355 62.9757C3.53691 62.316 3.23476 62.1912 2.77265 62.7261C2.34608 62.1912 1.88396 61.6919 2.1328 60.9253C2.32831 60.3012 2.47049 59.7306 2.22166 59.0174C2.00838 58.4112 1.84842 57.698 1.75955 57.1631C1.22634 54.0964 0.106603 51.1009 0.408754 47.9093C0.479849 47.0713 -0.195549 46.3046 0.124377 45.4131C0.284339 44.9674 0.0177348 44.3433 0.72868 44.1294C1.15525 44.0045 1.15525 43.6479 1.0486 43.2913C0.604264 41.7223 0.639812 41.3479 1.26189 39.8145C1.29744 39.7075 1.3863 39.5827 1.35076 39.5114C0.390981 37.8175 1.86619 36.3198 1.724 34.6973C1.70623 34.4655 1.36853 34.091 1.88396 34.1267C3.28808 34.2337 2.70155 33.7879 2.41717 32.9677C1.93729 31.577 3.57246 32.5042 3.94571 31.7553C1.75955 31.8801 2.79042 30.1506 2.87929 29.4196C3.05702 28.0288 3.51914 26.5489 4.46114 25.4435C5.17208 24.6055 4.14122 23.4822 5.18986 22.6976C6.34514 21.8418 6.38069 20.3619 6.66507 19.0603C6.87835 18.1153 7.07386 17.1168 8.08696 16.6889C8.51353 16.5106 8.5313 16.154 8.54907 15.8687C8.81568 13.0159 10.9485 12.0174 13.1702 11.0725C13.5435 10.912 13.8456 10.4841 14.1122 10.1275C14.3966 9.75303 14.7343 9.28945 15.1786 9.36077C16.7605 9.57473 18.1291 8.93285 19.5332 8.43361C19.7465 8.36229 19.9775 8.39795 20.1908 8.39795C20.4041 8.91502 19.7109 8.95068 19.7287 9.34294C20.3863 9.50341 21.1683 9.46775 21.5416 9.09332C22.6613 7.95219 23.7633 8.52276 24.9186 8.8437C25.1852 8.91502 25.4873 9.11115 25.7006 9.03983C27.709 8.32663 28.7577 10.5019 30.4817 10.6267C30.6061 10.6267 30.7661 10.8407 30.8016 10.9833C31.0682 11.8213 32.2946 13.1764 33.3255 14.1214C34.2675 14.9951 34.623 16.2253 34.7296 17.5091C34.6941 18.0262 35.405 18.4719 34.7652 19.0425C34.3386 19.4347 34.7652 19.6487 35.0851 19.6844C35.3872 19.72 35.6005 19.4526 35.4761 19.1138C35.3161 18.6681 34.9251 18.2045 35.7427 17.9905C35.9738 19.096 37.2357 19.613 37.3423 20.7898C37.4312 21.6813 37.5912 22.448 38.622 22.7511C38.8709 22.8225 38.9064 23.3217 38.5332 23.3752C38.0177 23.4465 37.9644 23.7674 38.1244 24.0706C38.3377 24.4806 38.9064 24.2489 39.0664 24.1419C39.7951 23.6426 40.7726 24.0527 41.6613 23.1791C39.5818 23.6783 40.1506 22.2697 40.1683 21.4317C40.2217 19.7379 40.5238 18.0797 41.6258 16.6711C41.4303 17.0812 41.7324 17.4021 41.8213 17.7766C41.8924 18.0618 41.4658 18.4363 41.9279 18.6324C42.0879 18.7037 42.4789 18.5611 42.4967 18.4898C42.55 18.1332 42.6211 17.7052 42.4611 17.4199C42.3012 17.1168 41.8924 16.9385 41.5902 16.7067C41.2525 14.7633 42.7455 13.4617 43.3143 11.8391C43.7942 10.4841 43.7586 8.6654 44.9317 7.88088C46.1581 7.06069 45.8026 5.74127 46.5491 4.95675C47.5266 3.90478 48.5397 2.83497 49.9083 2.24658C50.0149 2.21092 50.1927 2.19309 50.2104 2.12177C50.9747 -0.285286 53.2142 0.0891454 54.8494 0.0713153C55.8091 0.0713153 56.84 -0.178305 57.8353 0.0534853C57.9775 0.0891454 58.173 0.231786 58.2086 0.374426C58.4929 1.40857 58.5107 1.49772 59.6482 1.19461C60.8391 0.873667 61.4967 1.58687 62.2432 2.24658C62.0299 2.78148 61.6567 2.38922 61.39 2.44271C60.7146 2.60318 60.1637 1.37291 59.2394 2.37139C59.8971 2.44271 60.3236 2.10394 60.7857 2.60318C61.4434 3.29855 62.1721 3.0311 62.652 2.19309C64.1094 1.69385 65.2291 3.01327 66.6155 2.94195C66.8821 2.94195 67.1309 3.12025 66.8821 3.51251C66.5266 4.08308 66.7399 4.01176 67.2909 4.01176C68.5706 3.99393 69.4948 5.09939 70.8634 5.20637C71.8587 5.27769 72.5163 6.45447 73.1562 7.31031C73.6183 8.11267 72.463 7.97002 72.5519 8.00568C73.6716 8.4871 72.7829 9.89567 73.7072 10.4306C73.7427 10.5019 73.796 10.591 73.8316 10.6624C73.8849 10.6089 73.9382 10.5732 73.9738 10.5197C73.8849 10.4841 73.796 10.4484 73.7072 10.4127C73.7427 10.0561 73.245 9.57473 73.7605 9.39643C74.9335 9.00417 74.4892 8.4871 73.9915 7.88088C73.796 7.64908 73.8138 7.39946 74.0804 7.20333C74.9335 8.14833 76.4443 8.32663 76.9597 9.68171C76.2843 10.074 75.2357 10.2701 75.9289 11.4647C76.4443 10.6624 76.6931 10.6624 76.6931 11.019C76.7287 12.5167 77.6885 11.0368 78.0084 11.4825C79.7502 12.7485 79.6791 14.7276 79.9457 16.5463C80.0346 17.1168 80.1057 17.4913 80.4967 18.044C82.1852 20.4689 83.2161 23.2147 83.3582 26.228C83.3582 26.4954 82.8784 26.8342 83.4827 26.9947C84.4069 27.2265 84.5668 28.3676 84.4069 28.6529C83.2694 30.7925 85.1178 32.3615 85.3311 34.2337C85.5266 35.8562 86.4864 37.3539 86.0954 39.1191C86.0421 39.3331 86.5042 40.3672 86.9307 40.8308C87.8194 41.8115 88.0505 42.8813 87.6417 44.0759C87.3751 44.8604 88.1393 45.1635 88.2638 45.7519C88.5481 47.107 88.7436 48.4799 89.188 49.7815C90.2366 52.7948 90.521 56.0042 91.8718 59.0174C92.5294 60.4795 92.9915 62.0486 93.8091 63.5106C94.3601 64.4913 94.3779 65.8642 94.3423 67.0588C94.3423 67.5937 94.3601 68.0216 94.5734 68.4852C95.3021 70.0899 94.4668 71.124 93.2937 72.0512C92.014 73.0497 90.4144 73.4776 88.9569 73.2993C87.4817 73.1032 86.2198 74.0125 84.7801 73.6737C84.3713 73.5668 83.927 74.0838 83.6604 73.228C83.5182 72.8179 82.7895 73.1032 82.3451 73.5489C81.1543 74.7079 79.7324 75.2606 78.0795 74.797C77.5818 74.6544 77.2619 74.797 76.8531 75.011C74.7736 76.0986 71.1478 74.5652 70.5435 72.283C70.3657 71.6411 71.0056 70.9101 70.5612 70.1969C70.8456 70.286 71.1478 70.3574 71.4321 70.4465C71.5743 70.4822 71.8054 70.5891 71.8409 70.5357C71.9653 70.3395 71.9298 70.1434 71.6632 70.0542C69.6548 68.8061 69.6015 66.5596 69.4415 64.6696C69.3704 63.6889 68.5884 63.475 68.535 62.6191C69.5481 62.2803 70.6146 61.8703 69.2638 60.6043C69.2104 60.8896 69.1393 61.2105 69.086 61.478C67.3975 60.6043 68.4284 58.8926 67.9485 57.6089C67.5397 56.5212 66.7221 55.0057 66.26 54.9165C63.2385 54.3103 62.5453 51.4753 60.7857 49.7102C60.5191 49.4427 60.3414 48.9078 59.9504 49.0326C59.4349 49.1931 59.6305 49.7637 59.6127 50.2094C59.4883 52.7413 59.6838 55.2553 59.826 57.7693C59.826 58.0725 59.4349 58.3934 59.2217 58.7143C58.7951 58.8748 58.5818 59.0888 59.0617 59.4454C59.3283 59.3562 59.9326 58.9996 59.7904 59.4632C59.0795 61.9059 60.0215 64.3486 59.7193 66.7735C59.6838 67.0053 59.826 67.3797 59.7193 67.4332C58.4752 68.1821 59.1328 69.3945 58.9195 70.4108C58.5463 72.176 57.3021 73.3171 55.6847 74.066C54.7605 73.8699 53.9074 73.228 52.8765 73.5489C52.8054 73.4954 52.7165 73.4241 52.6454 73.3706C52.6454 73.5133 52.6632 73.6381 52.681 73.7807C53.5341 74.7257 54.6183 74.5296 55.6847 74.3513C54.4583 74.8505 53.2853 75.9203 51.9345 74.6722C51.5968 74.3513 51.4368 74.6544 51.2413 74.7792C50.2815 75.4092 49.0848 75.5994 47.651 75.3498C47.5444 75.3319 47.42 75.3498 47.3133 75.3676C46.2291 75.8133 45.3049 77.1149 44.0074 75.2963C43.3854 74.4048 41.4836 73.5133 41.5902 72.8536C41.8035 71.5163 41.0392 71.1419 40.5771 70.3039C40.0262 69.3054 39.2797 68.4495 38.7998 67.4154C38.3554 66.4704 38.0533 65.5254 37.9289 64.4913C38.7465 63.5998 38.6576 65.5967 39.4752 64.8479C39.3508 63.9385 38.8175 63.5819 37.8578 63.7781L37.8933 63.8137L38.0355 63.8316ZM49.4284 6.52579C49.4284 6.52579 49.304 6.6506 49.2329 6.72192C49.2862 6.72192 49.3218 6.72192 49.3751 6.73975C49.3751 6.6506 49.3751 6.57928 49.3929 6.49013C49.6239 6.66843 49.7661 6.49013 49.9083 6.34749C50.1927 5.70561 49.9972 5.11722 49.9083 4.40402C49.1855 4.97458 49.0966 5.52731 49.6417 6.06221C49.4284 6.13353 49.3218 6.25834 49.4106 6.50796L49.4284 6.52579ZM58.4218 58.8748C57.9775 58.6965 57.9597 58.9818 58.0131 59.2849C58.0131 59.3384 58.173 59.4454 58.2441 59.4275C58.5463 59.3206 58.3508 59.0353 58.4041 58.857C58.4041 58.8035 58.4041 58.75 58.4041 58.6965C58.4041 58.6965 58.3508 58.7322 58.3685 58.7322C58.3863 58.7857 58.4218 58.8213 58.4574 58.8748H58.4218ZM22.3592 9.86001C22.608 9.82435 22.9279 9.93133 23.0168 9.57473C23.0346 9.48558 22.8746 9.25379 22.7857 9.25379C22.4836 9.25379 22.2881 9.43209 22.2881 9.77086C22.2525 9.86001 22.217 9.93133 22.1637 10.0205C22.2348 9.96699 22.2881 9.9135 22.3592 9.86001ZM57.2132 49.1396C57.0355 49.3357 56.4312 49.1396 56.6445 49.7102C56.68 49.8171 56.7511 49.9241 56.8222 50.0311C56.9466 49.728 57.0533 49.4071 57.1777 49.1039C57.5154 49.1753 57.5154 48.9613 57.4798 48.7295C57.4798 48.676 57.4265 48.6404 57.391 48.5869C57.3377 48.7652 57.2666 48.9613 57.2132 49.1396ZM1.20857 45.5201C1.0486 45.6806 0.870869 45.841 0.764227 46.0372C0.586491 46.3581 0.231018 46.8217 0.835321 47C1.40408 47.1783 1.42185 46.6612 1.4574 46.2511C1.4574 46.0728 1.52849 45.9124 1.56404 45.7519C1.63513 45.5558 1.77732 45.3418 1.49295 45.2348C1.4574 45.2348 1.31521 45.431 1.22634 45.5379L1.20857 45.5201ZM58.2619 48.4086C57.782 48.8543 57.9064 49.2822 58.3685 49.621C58.5818 49.7637 58.8129 49.5854 58.9195 49.3892C59.3283 48.6225 58.1552 48.9435 58.2263 48.3907C58.7062 47.9806 58.4396 47.624 58.0842 47.1783C58.3152 47.6419 57.9242 48.0698 58.2619 48.4086ZM61.3545 7.97002C61.3012 9.32511 60.1637 10.4127 60.3059 11.9996C61.39 11.2686 61.159 10.0027 61.8699 9.25379C62.4387 9.25379 62.5098 8.73672 62.7764 8.41578C63.203 7.91653 62.2787 7.57776 62.5987 7.0072C62.6875 6.8289 62.1365 6.77541 61.9055 6.81107C61.159 6.90022 61.3723 7.50644 61.3367 7.97002H61.3545ZM42.9588 61.1392C43.1899 61.0679 43.6342 61.5315 43.6342 60.8718C43.6342 60.4438 43.4565 59.588 43.2076 59.8555C42.3189 60.8005 41.8213 59.2492 40.8437 59.8911C42.2301 60.4795 41.0748 62.0486 42.2301 62.7974C42.0879 63.3501 42.6744 64.3843 41.3236 64.206C41.2881 64.206 41.0748 64.6339 41.1459 64.7944C41.2525 65.044 41.4125 65.044 41.7502 64.8835C42.8699 64.3308 42.9055 63.6889 42.2123 62.8152C43.1721 62.6191 42.4434 61.7098 42.8699 61.2819L42.941 61.1749L42.9588 61.1392ZM78.1861 34.8934C77.8129 33.8593 77.7596 32.6825 76.9775 31.7731C76.4265 33.6275 77.6351 35.3926 77.2619 37.1756C76.9775 38.5486 77.6351 39.6362 77.8662 40.8665C77.9551 41.3657 78.3461 41.2587 78.666 41.1874C78.9682 41.1339 79.0393 40.8665 78.8793 40.6882C77.4396 38.923 78.9148 36.7656 78.115 34.9291L78.1861 34.9647V34.8934ZM35.8849 45.0565C36.2759 43.5588 34.8185 41.7045 36.7736 40.492C36.4537 40.6347 36.2048 40.9556 35.956 40.9378C35.0673 40.8665 33.912 40.4385 33.4321 41.2052C33.1655 41.651 34.1431 42.6495 34.0009 43.5766C33.9653 43.7906 34.0009 44.165 34.2675 43.9867C35.7072 43.0239 35.174 44.9139 35.8671 45.0565H35.8849ZM22.5369 43.8441L22.3769 43.8797C22.5191 44.6464 22.6791 45.3953 22.8035 46.162C22.8391 46.4116 22.6791 46.7682 23.159 46.6256C23.4256 46.5364 23.7811 46.269 23.6211 46.055C22.7146 44.8782 23.9055 43.9332 23.9055 42.8813C23.9055 42.3285 24.0477 41.5797 23.7633 41.2944C23.4256 40.9556 22.608 40.9556 22.1637 41.2944C21.7016 41.651 22.0926 42.2394 22.1814 42.7208C22.2525 43.0952 22.3947 43.4696 22.5191 43.8262L22.5369 43.8441ZM27.0336 86.4044C26.7848 87.5812 28.3489 87.7951 28.7399 87.6882C30.1085 87.2781 28.8643 85.8695 29.4153 84.978C29.5753 84.7105 29.202 83.9795 28.7932 84.1756C27.9934 84.5679 26.8914 84.8532 27.0514 86.4044H27.0336ZM10.593 22.4302C10.4331 22.3945 10.2909 22.3767 10.1309 22.341C9.82877 23.1969 9.50885 24.0706 9.24224 24.9442C9.1356 25.2652 9.11783 25.6753 9.49107 25.8536C9.91764 26.0497 10.2198 25.8001 10.5042 25.4613C11.4106 24.445 10.5042 23.4465 10.593 22.448V22.4302ZM44.5229 19.8448C45.1983 20.2728 46.0159 20.558 46.2825 20.0231C46.6913 19.2208 46.7624 18.1866 46.1225 17.2238C45.1805 17.937 45.7137 19.3634 44.5229 19.8627V19.8448ZM54.8849 45.9837C55.5603 45.1278 54.956 44.058 55.6136 43.2557C55.738 43.0952 55.3648 42.5247 55.2048 42.1502C54.8849 42.4355 53.9962 42.4177 54.1917 42.8278C54.6538 43.8262 54.1029 45.0387 54.8849 45.9837ZM37.9822 56.0042C38.2666 55.5406 38.5154 55.0235 38.8531 54.6134C38.9953 54.4351 39.6707 54.6134 39.1197 54.1142C39.1019 54.0964 38.8175 53.7932 38.391 54.0964C37.5201 54.7026 38.1777 55.3979 37.9822 56.0042ZM23.8166 50.9939C24.492 49.7815 22.999 48.9791 23.2301 47.7845C23.5678 48.8543 22.3947 50.2451 23.8166 50.9939ZM52.9653 70.9101C54.0673 69.5431 54.2154 68.7586 53.4097 68.5565C53.2853 69.1806 53.1786 69.8046 52.9653 70.9101ZM16.6538 12.9268C16.2984 12.1779 17.4359 11.7143 16.956 10.8942C16.0495 11.4469 16.3517 12.1957 16.6538 12.9268ZM17.116 66.7557C17.2937 67.5224 16.6538 67.9681 16.4228 68.5565C16.3695 68.6813 16.1917 69.3054 16.6183 69.3767C17.0982 69.4659 16.9738 69.0201 16.9915 68.717C17.0271 68.0573 17.0626 67.3976 17.116 66.7557ZM26.376 16.1897C26.3227 15.9579 26.8737 15.5835 27.1047 15.0486C27.2825 14.6563 27.1047 14.3354 26.7848 14.2105C26.1983 13.9966 26.4649 14.6028 26.3049 14.7811C25.7539 15.423 26.4471 15.9935 26.376 16.1718V16.1897ZM24.9719 9.69954C24.5098 9.64605 24.1899 9.23596 23.7988 9.52124C23.7277 9.57473 23.7455 9.89567 23.7988 9.93133C24.1543 10.1453 24.5098 10.074 24.9541 9.69954H24.9719ZM31.8858 77.2576C32.0991 76.5266 32.8634 76.2234 32.4724 75.4033C32.4368 75.3141 32.1169 75.2428 32.0636 75.2963C31.5837 75.7777 31.1927 76.3126 31.8858 77.2398V77.2576ZM29.2731 62.6191C29.9307 62.0307 29.8419 61.478 29.4686 60.8896C29.4153 61.4423 29.3442 61.9772 29.2731 62.6191ZM27.7446 54.4173C27.6913 54.5599 27.5846 54.8096 27.4958 55.0592C27.6557 55.0948 27.8157 55.2018 27.9579 55.1662C28.1711 55.1127 28.5799 55.1127 28.3489 54.6847C28.26 54.5064 28.2067 54.239 27.7446 54.4351V54.4173ZM27.2291 53.3475C27.1403 53.5436 27.0159 53.6684 27.0159 53.8111C27.0159 54.239 27.3891 54.1498 27.6202 54.2033C27.7268 54.2212 27.9934 54.1677 27.8334 53.9359C27.6735 53.7219 27.4602 53.5615 27.2291 53.3475ZM78.8971 12.9268C78.4172 12.9624 78.3283 13.1407 78.2394 13.3725C78.1506 13.6221 78.4172 13.7113 78.4705 13.6935C78.7016 13.5865 79.0392 13.5508 79.0215 13.1942C79.0215 13.0516 78.8793 12.9268 78.8971 12.9446V12.9268ZM58.7418 60.5152C58.8662 60.4082 58.9728 60.2834 59.0972 60.1764C59.0262 60.1051 58.9017 59.9624 58.884 59.9803C58.7418 60.0516 58.6174 60.1764 58.4752 60.2834C58.5463 60.3547 58.6351 60.426 58.7418 60.5152ZM46.4958 16.6711C46.4958 16.6711 46.4424 16.7781 46.4602 16.7959C46.5491 16.9564 46.6379 16.9564 46.6735 16.7781C46.6735 16.7424 46.6379 16.6889 46.6024 16.6711C46.5846 16.6711 46.5313 16.6711 46.4958 16.6711Z" fill="#25201D"/>
<path d="M73.7783 10.4484C72.8363 9.93133 73.7428 8.50492 72.623 8.02351C72.5341 7.98785 73.6717 8.13049 73.2273 7.32814C73.5117 7.02503 73.7783 6.61494 74.1871 7.20333C73.9027 7.39946 73.9027 7.64908 74.0982 7.88087C74.5959 8.48709 75.0402 9.00417 73.8672 9.39643C73.3517 9.57473 73.8316 10.074 73.8138 10.4127L73.7783 10.4484Z" fill="#D0D7C9"/>
<path d="M78.115 11.4825C77.7951 11.0368 76.8353 12.5167 76.7997 11.019C76.7997 10.6624 76.5509 10.6802 76.0355 11.4647C75.3423 10.2701 76.3909 10.074 77.0663 9.6817C78.1328 9.86 78.0261 10.7337 78.115 11.4825Z" fill="#D0D7C9"/>
<path d="M62.7231 2.22874C62.2432 3.06675 61.5145 3.3342 60.8569 2.63883C60.3947 2.15742 59.9859 2.49619 59.3105 2.40704C60.2348 1.40855 60.7858 2.63883 61.4612 2.47836C61.7278 2.42487 62.101 2.81713 62.3143 2.28223C62.4565 2.2644 62.5809 2.24657 62.7231 2.22874Z" fill="#D0D7C9"/>
<path d="M35.7782 18.0083C34.9607 18.2045 35.3517 18.6859 35.5116 19.1316C35.6183 19.4704 35.4228 19.7379 35.1206 19.7022C34.8007 19.6665 34.3741 19.4526 34.8007 19.0603C35.4228 18.4897 34.7118 18.0262 34.7651 17.5269C35.1917 17.5269 35.7427 17.2416 35.796 18.0262L35.7782 18.0083Z" fill="#D0D7C9"/>
<path d="M41.6257 16.7424C41.9279 16.9742 42.3367 17.1525 42.4967 17.4556C42.6566 17.7409 42.5855 18.1688 42.5322 18.5254C42.5322 18.6146 42.1234 18.7394 41.9634 18.6681C41.5013 18.4719 41.9279 18.0975 41.8568 17.8122C41.7679 17.4556 41.4658 17.1168 41.6613 16.7068L41.6257 16.7246V16.7424Z" fill="#D0D7C9"/>
<path d="M53.0186 73.5846C54.0495 73.2815 54.9026 73.9055 55.8269 74.1017C55.9157 74.1908 55.9157 74.28 55.8269 74.3691C54.7604 74.5474 53.6763 74.7435 52.8231 73.7985C52.8942 73.7272 52.9653 73.6559 53.0186 73.5668V73.5846Z" fill="#D0D7C9"/>
<path d="M59.1683 59.481C58.7062 59.1244 58.9017 58.9105 59.3283 58.75C59.2749 58.9996 59.2216 59.2314 59.1683 59.481Z" fill="#D0D7C9"/>
<path d="M38.071 64.5091C37.7333 64.2951 37.3956 64.099 38.0355 63.8316L37.9999 63.7959C37.9999 64.0455 38.4798 64.2238 38.0888 64.5091H38.071Z" fill="#25201D"/>
<path d="M29.4329 57.2871C29.4329 57.2871 29.4329 57.2165 29.4153 57.1988C29.4153 57.2165 29.4505 57.2341 29.4505 57.2518V57.2871H29.4329Z" fill="#25201D"/>
<path d="M78.1328 34.9112C78.9327 36.7477 77.4574 38.9052 78.8971 40.6703C79.0393 40.8486 78.986 41.1161 78.6838 41.1696C78.3461 41.2409 77.9729 41.33 77.884 40.8486C77.653 39.6362 76.9953 38.5307 77.2797 37.1578C77.6352 35.3748 76.4266 33.6096 76.9953 31.7553C77.7774 32.6646 77.8129 33.8414 78.2039 34.8756L78.1506 34.9112H78.1328Z" fill="#FDFDFD"/>
<path d="M35.8849 45.0565C35.1918 44.9139 35.725 43.0417 34.2853 43.9867C34.0187 44.165 33.9831 43.7906 34.0187 43.5766C34.1609 42.6673 33.1656 41.651 33.4499 41.2052C33.9298 40.4385 35.0851 40.8665 35.9738 40.9378C36.2049 40.9556 36.4715 40.6347 36.7914 40.492C34.8185 41.6866 36.2759 43.541 35.9027 45.0565H35.8849Z" fill="#FDFDFD"/>
<path d="M22.5369 43.8441C22.4302 43.4696 22.2702 43.113 22.1992 42.7386C22.1103 42.2572 21.7193 41.651 22.1814 41.3122C22.6257 40.9734 23.4611 40.9734 23.781 41.3122C24.0654 41.5975 23.9232 42.3464 23.9232 42.8991C23.9232 43.9511 22.7146 44.8961 23.6388 46.0728C23.7988 46.269 23.4433 46.5542 23.1767 46.6434C22.6968 46.786 22.8568 46.4294 22.8212 46.1798C22.6968 45.4131 22.5369 44.6643 22.3947 43.8976L22.5546 43.8619L22.5369 43.8441Z" fill="#FDFDFD"/>
<path d="M27.0337 86.4044C26.8737 84.8532 27.9757 84.5679 28.7755 84.1756C29.1843 83.9795 29.5753 84.6927 29.3976 84.978C28.8644 85.8695 30.0907 87.2781 28.7222 87.6882C28.3489 87.7951 26.7671 87.599 27.0159 86.4044H27.0337Z" fill="#FDFDFD"/>
<path d="M10.593 22.4302C10.5041 23.4287 11.4106 24.4272 10.5041 25.4435C10.2198 25.7822 9.91761 26.0319 9.49104 25.8357C9.1178 25.6574 9.15334 25.2652 9.24221 24.9264C9.52659 24.0527 9.82874 23.1969 10.1309 22.3232C10.2909 22.3589 10.433 22.3767 10.593 22.4124V22.4302Z" fill="#D0D7C9"/>
<path d="M42.8877 61.2462C42.4611 61.6741 43.1899 62.5835 42.2301 62.7796C41.0748 62.0307 42.2301 60.4617 40.8438 59.8733C41.8213 59.2314 42.319 60.7826 43.2076 59.8376C43.4565 59.5702 43.6164 60.426 43.6342 60.854C43.6342 61.5315 43.1899 61.0679 42.9588 61.1214C42.9233 60.9788 42.8344 60.8183 42.6922 60.9609C42.5678 61.1036 42.7278 61.1927 42.8699 61.2106L42.8877 61.2462Z" fill="#D0D7C9"/>
<path d="M44.5228 19.8448C45.7137 19.3634 45.1805 17.9192 46.1225 17.206C46.7623 18.1866 46.6912 19.203 46.2824 20.0053C45.998 20.558 45.1982 20.2728 44.5228 19.827V19.8448Z" fill="#D0D7C9"/>
<path d="M54.8849 45.9837C54.1029 45.0387 54.6539 43.8262 54.1917 42.8278C53.9962 42.4177 54.8849 42.4355 55.2048 42.1502C55.347 42.5246 55.738 43.0952 55.6136 43.2557C54.956 44.058 55.5603 45.1457 54.8849 45.9837Z" fill="#D0D7C9"/>
<path d="M61.8699 9.2538C61.159 10.0027 61.39 11.2686 60.3058 11.9996C60.1459 10.4127 61.3012 9.32512 61.3545 7.97003C61.6033 8.36229 61.9588 8.71889 61.8877 9.2538H61.8699Z" fill="#D0D7C9"/>
<path d="M37.9822 56.0042C38.1777 55.3979 37.5201 54.7026 38.391 54.0963C38.8176 53.7932 39.0842 54.0963 39.1197 54.1142C39.6707 54.6312 39.0131 54.4351 38.8531 54.6134C38.4976 55.0235 38.2666 55.5406 37.9822 56.0042Z" fill="#6EBD6C"/>
<path d="M23.8166 50.9939C22.3947 50.2451 23.5678 48.8543 23.2301 47.7845C22.999 48.9791 24.492 49.7815 23.8166 50.9939Z" fill="#D0D7C9"/>
<path d="M61.8699 9.25379C61.941 8.71889 61.6033 8.36229 61.3367 7.97003C61.3722 7.50645 61.159 6.8824 61.9055 6.81108C62.1365 6.79325 62.7053 6.84674 62.5986 7.00721C62.2787 7.57777 63.2029 7.91654 62.7764 8.41578C62.5098 8.73672 62.4387 9.27162 61.8699 9.25379Z" fill="#FDFDFD"/>
<path d="M42.2301 62.7796C42.9233 63.6532 42.8877 64.313 41.768 64.8479C41.4125 65.0262 41.2703 65.0262 41.1637 64.7587C41.1104 64.6161 41.3059 64.1703 41.3414 64.1703C42.6745 64.3486 42.0879 63.3323 42.2479 62.7617L42.2301 62.7796Z" fill="#6EBD6C"/>
<path d="M52.9653 70.9101C53.1786 69.8046 53.303 69.1806 53.4097 68.5565C54.2154 68.7586 54.0673 69.5431 52.9653 70.9101Z" fill="#D0D7C9"/>
<path d="M31.0505 67.0231C30.9438 67.8433 30.8372 68.6813 30.695 69.5015C30.6595 69.7155 30.5706 69.9829 30.2862 69.8938C30.1618 69.8581 29.9841 69.6263 30.0018 69.5728C30.4106 68.7705 29.9663 67.9325 30.144 67.148C30.3573 66.2208 30.7661 67.0945 31.0683 67.0766L31.0327 67.041L31.0505 67.0231Z" fill="#D0D7C9"/>
<path d="M16.6538 12.9268C16.3517 12.1779 16.0495 11.4469 16.956 10.8942C17.4359 11.7143 16.2984 12.1779 16.6538 12.9268Z" fill="#6EBD6C"/>
<path d="M17.1159 66.7557C17.0804 67.4154 17.027 68.0573 16.9915 68.717C16.9915 69.0201 17.0981 69.4658 16.6182 69.3767C16.1739 69.2875 16.3694 68.6813 16.4227 68.5565C16.6538 67.9681 17.2936 67.5224 17.1159 66.7557Z" fill="#D0D7C9"/>
<path d="M49.6595 6.09786C49.1144 5.55107 49.2033 4.99834 49.9261 4.43967C50.0149 5.15287 50.2105 5.74126 49.9261 6.38314C49.8372 6.29399 49.7483 6.20484 49.6595 6.11569V6.09786Z" fill="#D0D7C9"/>
<path d="M26.376 16.1897C26.4471 16.0114 25.7361 15.423 26.3049 14.7989C26.4648 14.6028 26.1982 14.0144 26.7848 14.2284C27.1047 14.3532 27.2824 14.6741 27.1047 15.0664C26.8736 15.6013 26.3404 15.9757 26.376 16.2075V16.1897Z" fill="#D0D7C9"/>
<path d="M38.071 64.5091C38.4621 64.2238 37.9822 64.0277 37.9822 63.7959C38.942 63.6176 39.4929 63.9564 39.5996 64.8657C38.782 65.6146 38.8886 63.5998 38.0533 64.5091H38.071Z" fill="#D0D7C9"/>
<path d="M58.2263 48.3907C58.1552 48.9435 59.3283 48.6225 58.9195 49.3892C58.8128 49.5854 58.5818 49.7815 58.3685 49.621C57.9064 49.2823 57.782 48.8543 58.2618 48.4086H58.2263V48.3907Z" fill="#D0D7C9"/>
<path d="M24.9719 9.69954C24.5276 10.074 24.1721 10.1453 23.8166 9.93133C23.7455 9.89567 23.7455 9.57473 23.8166 9.52124C24.2076 9.23596 24.5098 9.64605 24.9897 9.69954H24.9719Z" fill="#D0D7C9"/>
<path d="M31.8858 77.2576C31.1926 76.3126 31.5659 75.7955 32.0635 75.3141C32.1169 75.2606 32.4368 75.3141 32.4723 75.4211C32.8633 76.2413 32.0991 76.5444 31.8858 77.2754V77.2576Z" fill="#FDFDFD"/>
<path d="M1.56406 45.7519C1.52852 45.9124 1.4752 46.0907 1.45742 46.2511C1.42188 46.6612 1.42188 47.1783 0.835346 47C0.231043 46.8217 0.586515 46.3581 0.764251 46.0372C0.870893 45.8411 1.0664 45.6984 1.20859 45.5201C1.31523 45.5914 1.43965 45.6627 1.54629 45.7341L1.56406 45.7519Z" fill="#FDFDFD"/>
<path d="M57.1777 49.1218C57.0533 49.4249 56.9467 49.7458 56.8223 50.0489C56.7689 49.9419 56.6978 49.835 56.6445 49.728C56.4312 49.1396 57.0178 49.3536 57.2133 49.1574L57.1777 49.1218Z" fill="#D0D7C9"/>
<path d="M29.2731 62.6191C29.3442 61.9772 29.4153 61.4245 29.4686 60.8896C29.8418 61.478 29.9307 62.0485 29.2731 62.6191Z" fill="#FDFDFD"/>
<path d="M27.7446 54.4173C28.1889 54.239 28.2422 54.5065 28.3489 54.6669C28.5799 55.0948 28.1711 55.0948 27.9578 55.1483C27.8157 55.184 27.6557 55.077 27.4957 55.0414C27.5846 54.7917 27.6912 54.5599 27.7446 54.3995V54.4173Z" fill="#FDFDFD"/>
<path d="M27.2291 53.3475C27.4602 53.5615 27.6735 53.7219 27.8334 53.9359C27.9934 54.1677 27.7268 54.239 27.6201 54.2033C27.3891 54.1499 26.9981 54.239 27.0158 53.8111C27.0158 53.6684 27.1403 53.5258 27.2291 53.3475Z" fill="#FDFDFD"/>
<path d="M58.2618 48.4086C57.9241 48.0698 58.3152 47.624 58.0841 47.1783C58.4396 47.624 58.7062 47.9628 58.2263 48.3907L58.2618 48.4086Z" fill="#D0D7C9"/>
<path d="M22.2881 9.77085C22.2881 9.44991 22.5014 9.27161 22.8035 9.27161C22.8924 9.27161 23.0524 9.5034 23.0346 9.59255C22.9457 9.94915 22.6258 9.84217 22.377 9.87783L22.2881 9.77085Z" fill="#D0D7C9"/>
<path d="M78.897 12.9268C78.897 12.9268 79.0214 13.0337 79.0214 13.1764C79.057 13.533 78.7015 13.5865 78.4705 13.6756C78.3994 13.7113 78.1505 13.6043 78.2394 13.3547C78.3105 13.1229 78.4171 12.9624 78.897 12.9089V12.9268Z" fill="#FDFDFD"/>
<path d="M4.70999 71.1062C5.10101 71.1062 5.47425 71.3202 5.2432 71.6946C4.88772 72.2652 4.63889 71.6946 4.40784 71.4628C4.51448 71.338 4.62112 71.2132 4.72776 71.1062H4.70999Z" fill="#FDFDFD"/>
<path d="M58.4041 58.857C58.333 59.0531 58.5463 59.3206 58.2264 59.4276C58.1731 59.4454 58.0131 59.3562 57.9953 59.2849C57.942 58.9818 57.9598 58.6965 58.4041 58.8748H58.3863L58.4041 58.857Z" fill="#D0D7C9"/>
<path d="M57.2133 49.1396C57.2666 48.9613 57.3377 48.7652 57.391 48.5869C57.4266 48.6403 57.4799 48.676 57.4799 48.7295C57.5154 48.9613 57.5154 49.1752 57.1777 49.1039L57.2133 49.1396Z" fill="#D0D7C9"/>
<path d="M58.7418 60.5152C58.6352 60.426 58.5463 60.3547 58.4752 60.2834C58.5996 60.1764 58.724 60.0516 58.884 59.9803C58.9196 59.9803 59.0262 60.1051 59.0973 60.1764C58.9729 60.2834 58.8662 60.4082 58.7418 60.5152Z" fill="#D0D7C9"/>
<path d="M15.8541 91.1294C15.9607 90.8976 16.0674 90.434 16.2984 90.5945C16.6717 90.8441 16.3162 91.1294 16.0496 91.3077C15.9785 91.2542 15.9074 91.1829 15.8363 91.1294H15.8541Z" fill="#FDFDFD"/>
<path d="M78.1857 34.8934L78.2033 34.9641L78.1328 34.9111L78.1857 34.8934Z" fill="#FDFDFD"/>
<path d="M1.20862 45.5201C1.29749 45.4131 1.43968 45.1992 1.47522 45.217C1.7596 45.3418 1.61741 45.5558 1.54632 45.7341C1.43968 45.6627 1.31526 45.5914 1.20862 45.5201Z" fill="#FDFDFD"/>
<path d="M46.4958 16.6711C46.4958 16.6711 46.5846 16.6533 46.6024 16.6711C46.6379 16.6889 46.6735 16.7603 46.6735 16.7781C46.6202 16.9564 46.5313 16.9564 46.4602 16.7959C46.4602 16.7603 46.478 16.7068 46.4958 16.6711Z" fill="#D0D7C9"/>
<path d="M73.796 10.4306C73.796 10.4306 73.9738 10.5019 74.0626 10.5376C74.0093 10.591 73.956 10.6267 73.9204 10.6802C73.8849 10.6089 73.8316 10.5197 73.796 10.4484V10.4306Z" fill="#D0D7C9"/>
<path d="M58.4219 58.8748C58.4219 58.8748 58.3686 58.7857 58.333 58.7322L58.3686 58.6965C58.3686 58.75 58.3686 58.8035 58.3863 58.857L58.4041 58.8748H58.4219Z" fill="#D0D7C9"/>
<path d="M22.3592 9.86002C22.3592 9.86002 22.2348 9.967 22.1637 10.0205C22.1992 9.93134 22.2348 9.86002 22.2703 9.77087L22.3414 9.86002H22.3592Z" fill="#D0D7C9"/>
<path d="M49.3929 6.50797V6.75759C49.3929 6.75759 49.2685 6.75759 49.2329 6.73976C49.304 6.66844 49.3573 6.61495 49.4284 6.54363L49.3929 6.50797Z" fill="#D0D7C9"/>
<path d="M49.9083 6.36532C49.7661 6.50796 49.6239 6.68626 49.3928 6.50796L49.4284 6.54362C49.3395 6.31183 49.4284 6.18702 49.6594 6.09787C49.7483 6.18702 49.8372 6.27617 49.926 6.36532H49.9083Z" fill="#D0D7C9"/>
<path d="M71.7876 70.0543C72.0364 70.1434 72.0897 70.3395 71.9653 70.5357C71.9475 70.5713 71.6987 70.4822 71.5565 70.4465C71.6276 70.3217 71.7165 70.1791 71.7876 70.0543Z" fill="#FDFDFD"/>
<path d="M52.8231 73.8164C52.8231 73.6737 52.8054 73.5489 52.7876 73.4063C52.8587 73.4598 52.9476 73.5311 53.0187 73.5846C52.9653 73.6559 52.8942 73.7451 52.8231 73.8164Z" fill="#D0D7C9"/>
<path d="M16.0673 91.3077C16.014 91.4681 15.9606 91.6286 15.8896 91.7891C15.7829 91.7178 15.694 91.6286 15.5874 91.5573C15.6763 91.4146 15.7651 91.272 15.854 91.1294C15.9251 91.1829 15.9962 91.2363 16.0673 91.3077Z" fill="#FDFDFD"/>
<path d="M42.8877 61.2462C42.7277 61.2284 42.5856 61.1214 42.71 60.9966C42.8344 60.8539 42.941 60.9966 42.9766 61.157L42.9055 61.264L42.8877 61.2462Z" fill="#25201D"/>
</g>
<defs>
<clipPath id="clip0_85_473">
<rect width="95" height="94" fill="white"/>
</clipPath>
</defs>
</svg>
