<svg width="97" height="101" viewBox="0 0 97 101" fill="none" xmlns="http://www.w3.org/2000/svg">
<g clip-path="url('#clip0_85_533')">
<path d="M96.3362 66.0385C96.5391 67.4377 97.5716 68.6896 96.5575 70.2545C94.9719 72.6847 93.1465 74.7282 90.3256 75.704C88.74 74.4889 88.279 76.735 87.0806 76.7534C85.6978 76.7534 84.3334 76.827 82.9506 76.8822C82.8399 76.8822 82.7109 76.9191 82.6187 76.9743C79.9453 78.8706 77.364 78.5944 74.709 76.8086C72.9021 75.5935 71.9249 72.9424 72.644 70.7331C72.7362 70.457 72.6255 69.8863 72.4043 69.7574C70.8924 68.8 70.874 67.1431 70.3946 65.7071C70.3024 65.4309 70.5421 65.4677 70.708 65.5414C70.8187 65.5966 70.9108 65.6703 71.003 65.7439C71.2243 65.9464 71.464 66.0937 71.6852 65.7439C71.7405 65.6518 71.759 65.4493 71.7221 65.4309C71.298 65.1732 71.3165 65.8544 70.9662 65.7991C71.0583 65.0627 70.579 64.4368 70.1918 64.0501C69.5465 63.3874 69.3805 62.7798 69.5096 61.8961C69.6387 60.9756 69.5096 60.0366 69.5465 59.0977C69.5833 58.2508 69.8046 58.0667 70.5605 58.122C70.413 57.5512 69.9152 57.4776 69.528 57.2014C68.053 56.0968 67.7211 54.2005 67.4446 52.6356C67.2602 51.5862 66.3752 51.6783 66.2461 50.905C66.3383 50.5184 66.8177 50.5 67.1311 50.2607C67.6658 49.8556 67.3708 49.0824 67.0758 49.1744C65.1215 49.8556 65.398 47.7568 64.4761 47.1677C63.628 46.6338 62.7799 45.9894 62.2083 45.0689C61.7105 44.2773 61.2127 43.5408 61.4524 42.6571C60.7149 42.16 60.973 43.8538 60.1064 42.9885C59.8667 42.7492 59.4058 43.2279 59.6455 44.0379C60.2355 46.1367 59.3874 48.0146 58.9264 49.9661C58.8342 50.408 58.8711 50.905 59.203 51.3101C59.6086 51.7887 59.2952 52.0465 58.8711 52.2306C58.8158 52.0097 58.7421 51.7703 58.4655 51.8071C58.3364 51.8256 58.2442 52.0649 58.1521 52.1938L58.7236 52.3779C58.4655 54.5503 59.3874 56.7412 58.2074 58.9504C57.9492 59.4475 58.3364 61.0492 58.5761 62.0986C58.6683 62.5221 58.8527 62.9087 58.2074 63.0191C57.728 63.1112 57.3408 62.2459 56.8983 62.7982C56.7139 63.0376 56.1055 63.3874 56.4189 63.7003C56.843 64.1054 57.0827 65.0443 58.023 64.6024C58.6499 65.8912 58.5024 67.2351 58.1336 68.5055C57.8939 69.3155 58.5392 70.6227 57.0458 70.862C57.0089 70.862 56.9905 71.1198 57.0089 71.1198C59.1846 71.6353 56.9167 72.7399 57.267 73.5868C57.433 73.9918 56.6217 74.8755 57.2855 75.6119C57.3777 75.704 57.3777 76.0354 57.2855 76.109C56.3083 76.8823 55.8474 77.9501 55.2574 78.9995C54.9439 79.5702 53.6717 81.043 52.0861 80.2698C51.2933 79.8832 51.4777 81.2271 51.072 81.1903C48.583 81.0062 46.2783 82.387 43.7892 82.0188C43.0148 81.9083 42.2036 81.8899 42.1483 80.8221C42.1298 80.3802 41.7795 80.3434 41.5214 80.4539C38.9401 81.5401 39.2536 78.9626 38.3317 77.9501C38.4976 77.8212 38.4792 77.5634 38.3317 77.5819C36.1192 77.8028 35.8795 75.0964 34.091 74.7282C33.9804 74.7098 33.8329 74.4705 33.8329 74.36C33.9988 71.5248 30.846 70.6595 30.1638 68.2661C29.9979 67.677 30.0901 66.8485 29.4816 66.3514C29.7644 65.8605 30.2376 65.9096 30.9013 66.4987C31.2148 64.7129 29.1313 65.0811 28.7441 64.0133C28.6704 63.8292 28.3016 63.8844 28.1726 64.1238C27.6379 65.0995 29.076 65.2468 28.9838 66.0201C28.9838 66.1305 29.0391 66.241 29.076 66.3514C28.7257 67.4929 28.7257 68.5607 29.5554 69.5549C29.9979 70.0888 29.832 70.3097 29.0945 70.4754C28.5413 70.6043 28.8363 71.0277 28.8916 71.3591C29.0391 72.3533 30.6063 72.8319 30.0716 73.955C29.1313 75.9065 31.0304 77.3609 30.846 79.2388C30.7907 79.7911 30.2745 80.2882 30.5326 80.8957C30.9198 81.8347 30.422 82.9025 31.2148 83.8414C31.7679 84.4858 31.2885 85.4984 30.7723 86.0875C30.256 86.6766 30.256 87.4131 30.6616 87.6156C32.3026 88.4625 31.4176 90.0458 31.8601 91.2424C32.0445 91.7579 31.731 92.4575 31.6573 93.0651C30.7354 93.0283 31.602 92.0341 30.9935 91.8316C29.9057 89.788 30.1638 92.5864 29.5185 92.1446C29.9979 92.6969 30.3113 91.7763 30.7538 92.1077C30.6617 92.6785 29.7582 93.286 30.7907 93.8383C30.4588 94.4643 31.436 96.3421 29.3341 95.3296C29.076 95.2007 28.5229 95.4216 28.9101 95.9187C29.7398 96.9497 28.7995 97.3916 28.191 97.5572C26.9004 97.907 25.6282 99.4351 24.2085 97.5941C24.2085 98.8276 22.3463 100.079 20.816 99.9874C19.7282 99.9138 18.7141 99.3615 17.5894 100.227C17.1285 100.577 16.1697 100.687 15.4507 100.116C15.2479 99.9506 14.3444 99.2694 14.6394 100.595C14.7316 101.018 13.865 101 13.4225 101.018C12.7035 101.037 12.0028 100.982 11.2838 100.945C10.6938 100.908 10.0853 101.166 9.99315 100.079C9.93783 99.3062 9.80877 98.0727 8.31533 98.4225C7.9097 98.5146 7.79908 98.0359 7.65158 97.7045C7.50408 97.3915 7.3197 97.097 7.13533 96.8024C6.78501 96.2317 5.77095 97.5388 5.73407 96.3606C5.73407 95.8635 6.26876 95.5321 6.30564 94.8141C6.39782 93.1571 5.9922 91.6843 5.66032 90.1194C5.21782 88.039 5.07032 85.885 4.92282 83.7678C4.84907 82.6263 4.88594 81.5217 4.09313 80.5643C3.79813 80.1961 3.90875 79.6806 3.9825 79.202C4.13 78.171 4.09313 77.2873 3.35563 76.2931C2.36 74.9676 3.66906 73.2922 3.26344 71.7641C3.77969 71.6721 2.43375 70.1624 4.03782 70.7884C4.38813 70.9173 4.25907 70.2176 4.00094 70.052C1.84375 68.6528 2.10187 66.4435 2.04656 64.3263C2.04656 64.1606 2.10187 63.9397 2.00968 63.866C1.08781 63.056 0.589992 62.4668 2.34156 62.025C2.95 61.8777 2.61812 60.8651 2.13875 60.9756C1.03249 61.2333 0.958743 60.1471 1.03249 59.963C1.51187 58.8031 1.03249 57.5144 1.54875 56.3914C1.65937 56.1704 1.64093 55.9127 1.32749 55.8575C1.10624 55.8206 0.82968 55.8575 0.82968 55.5261C0.82968 55.0106 2.28625 55.6365 1.64093 54.4583C1.36437 53.9612 0.479367 54.5319 0.589992 53.685C0.75593 52.4883 0.645305 51.2917 0.534679 50.095C0.497804 49.6715 0.719055 49.1744 0.0368652 49.1192V49.1744C0.239678 47.407 0.848118 45.6765 0.294991 43.8354C0.147491 43.3383 0.294991 42.3626 0.626867 42.1785C1.89906 41.4973 1.03249 41.0002 0.811243 40.2085C0.60843 39.4537 1.12468 38.4964 1.40124 37.6495C1.43812 37.539 1.93593 37.4285 1.77 37.226C0.387179 35.4954 2.59969 33.9121 1.95437 32.2184C1.93593 32.1631 1.89906 32.1263 1.86218 32.0711C3.81656 31.9606 2.41531 30.1748 3.17125 29.3648C3.61375 28.8861 3.55844 27.9287 3.72438 27.1739C4.18532 25.0935 5.4022 23.547 7.19064 22.4792C8.16783 21.9085 8.18627 20.4357 9.6244 20.2516C11.3207 20.0306 12.7957 19.0549 14.3444 18.3369C15.0082 18.0423 15.6719 17.6925 16.3541 18.2264C16.9257 18.6682 17.4788 18.2632 17.8291 18.0423C20.2813 16.4774 22.3832 17.7845 24.5035 18.7787C24.9829 18.9996 25.4069 19.0365 25.8679 18.9812C26.6607 18.8708 27.1216 19.1285 27.601 19.8465C28.2463 20.7855 29.1866 21.4851 30.256 22.019C30.6432 22.2215 31.5835 22.2767 30.6801 23.2525C30.127 23.86 31.2701 24.3571 31.6942 24.4123C32.7635 24.578 33.1876 25.2224 33.4457 26.0693C33.7223 27.0082 34.2939 27.6158 35.0867 28.1497C36.2482 28.9045 36.1376 30.451 36.9673 31.4267C36.746 31.4451 36.3773 31.4267 36.3404 31.5004C36.1929 31.887 36.6907 32.0711 36.8014 32.0343C37.0779 31.979 37.207 31.7029 36.9489 31.4083C37.3545 30.5614 37.5389 29.6225 38.2764 28.9045C38.977 28.2233 37.3545 28.7756 37.6495 27.7814C38.0182 26.5295 38.221 25.0015 38.977 24.1546C39.7514 23.2709 38.0367 23.7495 38.7189 23.1052C39.4379 22.4424 38.8479 20.7855 40.4336 20.5645C40.8576 20.5093 40.8023 20.049 40.6917 19.8465C39.7329 18.1528 40.7839 17.3795 42.0929 16.6983C42.1483 16.6615 42.1667 16.4406 42.1114 16.3669C40.9867 14.71 42.8858 13.7342 43.0333 12.3534C43.0886 11.7643 42.8673 10.494 44.3239 11.0095C44.5083 11.0831 44.7479 10.807 44.7479 10.5308C44.7479 8.4136 46.2045 7.05123 47.3108 5.48633C47.8455 4.71309 48.5645 4.25283 49.302 3.97667C50.9245 3.38754 52.0492 1.71218 53.8192 1.67536C55.6077 1.65695 57.1011 0.902118 58.6867 0.331393C59.2214 0.128877 59.8114 -0.0552277 60.383 0.423445C60.7702 0.754834 61.3049 0.810066 61.7474 0.58914C63.9968 -0.533901 66.0802 0.22093 68.1268 1.14145C68.5324 1.32556 68.7905 1.23351 69.1224 1.06781C69.9152 0.644371 70.4683 0.902118 71.2058 1.3992C72.0908 1.96993 73.0865 2.63271 74.3034 2.46701C74.5246 2.43019 74.9302 2.50383 74.9671 2.61429C75.4649 4.60263 77.9171 4.3817 78.7284 5.9466C79.2446 6.94076 79.6687 7.91652 80.904 8.24791C81.2543 8.33996 81.6784 10.9911 82.0656 11.3961C82.8584 12.1878 82.9506 13.3292 83.7249 14.0288C83.9831 14.2681 84.2228 14.4522 84.4256 14.7468C85.2921 16.0171 84.315 17.7845 85.3106 18.8524C86.2509 19.8649 86.38 21.0248 86.8593 22.1662C87.1543 22.8843 86.7303 23.7311 87.6153 24.4307C88.445 25.0751 86.38 24.8542 86.7856 25.7563C87.099 26.4375 88.1131 24.891 88.1684 26.1429C88.2237 27.4132 89.0718 28.7204 88.0946 29.9723C87.4125 30.5614 87.1728 29.4752 87.1543 29.512C86.6934 30.3957 87.5231 30.3589 87.9656 30.6719C88.1315 30.7824 87.5046 31.2426 87.984 31.5556C88.3159 31.2426 88.5556 30.8192 89.0718 30.7455C88.9059 31.8133 89.7356 32.6418 89.8278 33.5808C89.9937 35.477 91.9665 36.9499 91.0631 39.0671C90.9709 39.1775 90.805 39.3617 90.8234 39.3801C91.0262 39.6378 91.1737 39.4169 91.3212 39.3064C91.7453 39.1039 92.0218 39.288 92.0218 39.693C91.9665 41.4236 92.2062 43.0622 92.9806 44.6455C93.3309 45.3635 93.7734 46.3024 92.9069 47.0941C92.6119 47.3518 92.7962 47.628 92.9622 47.8673C93.9947 49.3586 93.9947 49.3586 93.7365 51.218C93.6812 51.5862 93.9025 51.7703 94.1053 51.9544C94.769 52.5988 95.654 53.0775 94.5847 54.2005C94.4003 54.3846 95.1194 55.434 95.4144 56.0784C95.4697 56.2993 95.6172 56.6491 95.5619 56.6859C94.4372 57.3855 94.935 57.6801 95.3775 58.7663C96.0228 60.3312 97.1475 62.1354 96.6312 64.0501C96.4469 64.7681 97.1659 65.5966 96.3178 66.1673C96.2256 66.0201 96.1519 65.8728 96.0597 65.7255C95.6725 65.4493 96.115 64.5288 95.23 64.6393C94.9534 64.6761 94.7322 65.0075 94.8428 65.0995C95.1931 65.3757 94.935 66.4619 95.8937 65.9464C95.9859 66.1673 96.0412 66.4619 96.3547 66.1305L96.3362 66.0385ZM12.3163 25.4985C12.1319 25.3329 11.9844 25.4249 11.9107 25.5906C11.8922 25.6458 11.966 25.7563 12.0028 25.8483C12.095 25.7195 12.1872 25.5906 12.261 25.4801C12.3716 25.3513 12.4822 25.2224 12.5744 25.0935C13.441 24.0441 14.3813 25.5538 15.34 25.0015C14.3075 23.9705 13.2935 25.1672 12.3347 24.9094C12.2057 25.0935 12.095 25.296 12.2978 25.4985H12.3163ZM44.4345 80.6012C44.2317 80.5091 44.0104 80.3802 43.8629 80.6748C43.8629 80.6932 44.1026 80.8405 44.2133 80.9326C44.7479 81.6322 45.3748 81.9083 46.223 81.5217C45.9095 80.4723 45.0245 80.8405 44.4161 80.6012H44.4345ZM5.05188 44.6271C5.53126 45.1241 5.42063 45.3451 4.73844 45.4555C4.09313 45.566 3.9825 46.1183 4.13 46.6338C4.22219 46.9652 4.49875 46.6706 4.68313 46.5786C4.88594 46.6706 5.08876 46.7627 5.27313 46.8547C4.88594 47.6464 4.46188 48.438 5.38376 49.1744C5.16251 48.1803 6.5822 47.5727 6.06595 46.597C5.66032 45.8237 6.32407 45.0873 5.91845 44.3877C5.75251 44.1116 5.6972 43.5592 5.32845 43.6513C4.86751 43.7618 4.83063 44.2404 5.07032 44.6639C5.01501 44.6639 4.95969 44.7007 4.90438 44.7191C4.94126 44.7007 4.99657 44.6639 5.03344 44.6455L5.05188 44.6271ZM12.1872 31.5188C12.6297 32.4577 13.0722 30.7639 13.441 31.7765C13.6069 32.2552 14.031 32.3657 14.4919 32.292C14.3997 31.7397 15.2847 31.3899 14.8791 30.8744C14.5472 30.451 14.6947 29.9907 14.621 29.42C13.7175 30.1932 12.9432 30.856 12.1872 31.5188ZM47.4583 76.1274C46.9605 76.4772 46.3705 76.2379 46.3889 76.9007C46.3889 77.0111 46.5917 77.1216 46.7023 77.2321C47.3292 75.9985 48.1773 76.8454 48.9701 76.9559C49.2651 76.9927 49.0808 76.7166 49.0623 76.5693C49.0439 76.4404 48.9701 76.3115 48.9148 76.1642C48.4908 77.3241 47.7901 75.7224 47.4767 76.109L47.4583 76.1274ZM24.9091 26.7136C26.2551 25.1303 26.1998 24.9462 24.4482 24.486C24.5957 25.204 24.7432 25.9404 24.9091 26.7136ZM80.3693 70.3281C80.1481 71.0277 79.8531 71.6905 79.7056 72.3901C79.5765 73.0345 80.0559 72.9792 80.4799 72.8872C80.8303 72.8135 81.2359 72.3349 81.0699 72.298C79.724 71.9666 81.0146 70.9172 80.3509 70.3465L80.3693 70.3281ZM66.7071 2.39337C66.3383 2.30132 66.2093 2.30132 66.1355 2.22767C64.9924 1.3992 65.0846 2.76158 64.5868 3.09297C64.3839 3.22184 64.1443 3.3323 64.5314 3.51641C65.269 3.88462 65.5271 3.18502 65.9696 2.89045C66.154 2.76158 66.3383 2.65112 66.7255 2.39337H66.7071ZM65.2321 5.37587C66.283 5.67044 67.2418 6.51732 68.6983 5.85454C67.4077 5.33905 66.3199 5.30223 65.2321 5.37587ZM55.8105 57.8642C56.4374 57.6065 56.8799 57.4224 57.3224 57.2198C56.7139 57.0726 56.087 56.8884 55.8105 57.8642ZM58.2627 66.5171C58.2627 66.2962 58.0599 66.1858 57.8386 66.1489C57.5067 66.0937 57.267 66.2778 57.267 66.6092C57.267 66.9406 57.6174 66.7565 57.8017 66.8301C58.0414 66.9222 58.2442 66.8853 58.2811 66.4987L58.2627 66.5171ZM56.843 58.3797C56.843 58.3797 56.7324 58.3245 56.7139 58.3429C56.548 58.4349 56.548 58.527 56.7324 58.5822C56.7692 58.5822 56.8245 58.5454 56.843 58.5086C56.843 58.4902 56.843 58.4349 56.843 58.3981V58.3797Z" fill="#25201D"></path>
<path d="M89.1088 30.6719C88.5925 30.7455 88.3528 31.169 88.021 31.482C87.5416 31.169 88.1684 30.7087 88.0025 30.5983C87.56 30.2853 86.7119 30.3405 87.1913 29.4384C87.2097 29.4016 87.4494 30.4878 88.1316 29.8987C88.9244 29.5857 89.33 29.733 89.1088 30.6719Z" fill="#6EBD6C"></path>
<path d="M29.0576 66.3698C29.0207 66.2594 28.9654 66.1489 28.9654 66.0384C29.0392 65.2468 27.601 65.1179 28.1542 64.1422C28.2832 63.9028 28.6704 63.8476 28.7257 64.0317C29.1129 65.0995 31.1964 64.7313 30.8829 66.5171C30.2315 65.9403 29.7582 65.8912 29.4632 66.3698C29.3157 66.3698 29.1867 66.3698 29.0392 66.3698H29.0576ZM29.5001 65.3757C29.5001 65.3757 29.4079 65.302 29.371 65.2652C29.3342 65.302 29.2973 65.3573 29.2788 65.3941C29.3342 65.4309 29.4079 65.4677 29.4632 65.5046C29.4632 65.4677 29.5001 65.4125 29.5001 65.3757Z" fill="#D0D7C9"></path>
<path d="M58.0414 64.584C57.1011 65.0259 56.8614 64.0869 56.4373 63.6819C56.1239 63.3689 56.7323 63.0375 56.9167 62.7798C57.3592 62.2091 57.7464 63.0744 58.2258 63.0007L58.1889 62.9823C57.6911 63.461 57.7648 63.8844 58.2995 64.2526C58.3364 64.4552 58.2626 64.5656 58.0414 64.584Z" fill="#D0D7C9"></path>
<path d="M30.9382 91.85C31.565 92.0525 30.68 93.0467 31.6019 93.0835C31.5466 93.599 31.0119 93.5806 30.7354 93.8383C29.7029 93.286 30.6063 92.6784 30.6985 92.1077C30.7722 92.0157 30.846 91.9236 30.9382 91.85Z" fill="#D0D7C9"></path>
<path d="M58.2996 64.2527C57.7649 63.866 57.7096 63.4426 58.189 62.9823C58.318 63.4058 58.5761 63.8108 58.2996 64.2527Z" fill="#25201D"></path>
<path d="M0.0182475 49.0456L0.0729899 49.1185L0 49.1002L0.0182475 49.0456Z" fill="#25201D"></path>
<path d="M95.4144 55.9863C95.4144 55.9863 95.5435 56.06 95.5619 56.0416C95.7094 55.8943 95.7463 55.9127 95.7094 56.1152C95.5988 56.0784 95.5066 56.0232 95.396 55.9863H95.4144Z" fill="#25201D"></path>
<path d="M4.66467 46.5601C4.48029 46.6522 4.20373 46.9468 4.11154 46.6154C3.98248 46.1183 4.07467 45.5476 4.71998 45.4371C5.40217 45.3266 5.5128 45.1057 5.03342 44.6086H5.07029C4.83061 44.2036 4.86748 43.7433 5.32842 43.6329C5.69717 43.5408 5.75248 44.0931 5.91842 44.3693C6.30561 45.0689 5.6603 45.8053 6.06592 46.5786C6.56374 47.5543 5.16248 48.1619 5.38373 49.156C4.44342 48.4196 4.88592 47.628 5.27311 46.8363C5.34686 46.6338 5.3653 46.4129 5.14404 46.3024C4.88592 46.1551 4.79373 46.3945 4.68311 46.5601H4.66467Z" fill="#D0D7C9"></path>
<path d="M12.1873 31.5188C12.9616 30.856 13.7176 30.2116 14.621 29.42C14.6763 29.9723 14.5473 30.4326 14.8791 30.8744C15.2848 31.3899 14.3813 31.7397 14.492 32.292C14.031 32.3657 13.6069 32.2552 13.441 31.7765C13.0723 30.764 12.6482 32.4577 12.1873 31.5188Z" fill="#FDFDFD"></path>
<path d="M47.4582 76.1274C47.7717 75.7408 48.4723 77.3425 48.8964 76.1827C48.9517 76.3115 49.0254 76.4404 49.0439 76.5877C49.0623 76.7166 49.2467 77.0111 48.9517 76.9743C48.1589 76.8639 47.3107 76.0354 46.6839 77.2505C46.5732 77.14 46.3889 77.0295 46.3704 76.9191C46.3335 76.2563 46.9235 76.4956 47.4398 76.1458L47.4582 76.1274Z" fill="#6EBD6C"></path>
<path d="M24.9092 26.7136C24.7432 25.9404 24.5957 25.204 24.4482 24.486C26.1998 24.9462 26.2367 25.1303 24.9092 26.7136Z" fill="#D0D7C9"></path>
<path d="M80.3694 70.3281C81.0331 70.8988 79.7425 71.9666 81.0884 72.2796C81.2544 72.3164 80.8487 72.7951 80.4984 72.8688C80.0743 72.9608 79.595 73.016 79.724 72.3717C79.8715 71.6721 80.1481 71.0093 80.3878 70.3097L80.3694 70.3281Z" fill="#FDFDFD"></path>
<path d="M66.7071 2.39337C66.3199 2.65111 66.1355 2.76158 65.9511 2.89045C65.5086 3.18502 65.2321 3.88462 64.513 3.51641C64.1443 3.3323 64.3655 3.22184 64.5683 3.09297C65.0661 2.76158 64.974 1.41761 66.1171 2.22767C66.2093 2.2829 66.3383 2.2829 66.6886 2.39337H66.7071Z" fill="#D0D7C9"></path>
<path d="M65.2321 5.37586C66.3199 5.30222 67.4077 5.33904 68.6983 5.85453C67.2417 6.4989 66.283 5.67043 65.2321 5.37586Z" fill="#D0D7C9"></path>
<path d="M55.8105 57.8642C56.0871 56.9069 56.714 57.091 57.3224 57.2198C56.8799 57.4039 56.4374 57.588 55.8105 57.8642Z" fill="#6EBD6C"></path>
<path d="M95.8753 65.8544C94.9165 66.3698 95.1746 65.2836 94.8243 65.0075C94.7137 64.9154 94.9534 64.584 95.2115 64.5472C96.0965 64.4367 95.654 65.3573 96.0412 65.6334C95.9859 65.7071 95.9306 65.7807 95.8753 65.8544Z" fill="#D0D7C9"></path>
<path d="M30.6986 92.1077C30.2561 91.7763 29.9426 92.7153 29.4633 92.1446C30.1086 92.6048 29.8504 89.788 30.9383 91.8316C30.8645 91.9236 30.7723 92.0157 30.6986 92.0893V92.1077Z" fill="#D0D7C9"></path>
<path d="M12.3531 24.9094C13.3119 25.1488 14.326 23.9705 15.3585 25.0015C14.3813 25.5538 13.441 24.0625 12.5928 25.0935C12.5191 25.0383 12.4453 24.9647 12.3716 24.9094H12.3531Z" fill="#D0D7C9"></path>
<path d="M44.4345 80.6012C45.0429 80.8405 45.9095 80.4723 46.2414 81.5217C45.3933 81.9083 44.7664 81.6322 44.2317 80.9326C44.3054 80.8221 44.3792 80.7116 44.4529 80.6196L44.4345 80.6012Z" fill="#FDFDFD"></path>
<path d="M58.2627 66.5171C58.2258 66.8853 58.0415 66.9406 57.7833 66.8485C57.599 66.7749 57.2671 66.9406 57.2487 66.6276C57.2487 66.2962 57.4883 66.1121 57.8202 66.1673C58.0599 66.2041 58.2443 66.3146 58.2443 66.5355L58.2627 66.5171Z" fill="#FDFDFD"></path>
<path d="M12.2794 25.4801C12.1872 25.609 12.095 25.7379 12.0213 25.8484C11.9844 25.7563 11.8922 25.6458 11.9291 25.5906C12.0213 25.4249 12.1688 25.3329 12.3347 25.4986L12.2978 25.4801H12.2794Z" fill="#D0D7C9"></path>
<path d="M37.0226 31.3531C37.2807 31.6477 37.1516 31.9238 36.8751 31.979C36.746 31.9975 36.2666 31.8318 36.4141 31.4451C36.451 31.3531 36.8197 31.3899 37.041 31.3715L37.0226 31.3531Z" fill="#FDFDFD"></path>
<path d="M58.7421 52.3411L58.1705 52.1569C58.2812 52.0281 58.3733 51.7887 58.484 51.7703C58.7421 51.7335 58.8158 51.9913 58.8896 52.1938C58.8343 52.2306 58.7974 52.2858 58.7605 52.3411H58.7421Z" fill="#FDFDFD"></path>
<path d="M70.9662 65.7991C71.3165 65.8543 71.2981 65.1732 71.7221 65.4309C71.759 65.4493 71.7221 65.6518 71.6853 65.7439C71.464 66.0937 71.2427 65.9464 71.0031 65.7439L70.9662 65.7991Z" fill="#FDFDFD"></path>
<path d="M5.05191 44.627C5.05191 44.627 4.95973 44.6823 4.92285 44.7007C4.97816 44.7007 5.03348 44.6639 5.08879 44.6639L5.05191 44.6455V44.627Z" fill="#D0D7C9"></path>
<path d="M91.3581 39.2144C91.1922 39.3432 91.0447 39.5458 90.8603 39.288C90.8419 39.2512 91.0262 39.0855 91.1 38.975C91.1922 39.0487 91.2844 39.1223 91.3581 39.2144Z" fill="#FDFDFD"></path>
<path d="M56.843 58.3797C56.843 58.3797 56.8614 58.4717 56.843 58.4902C56.8245 58.527 56.7508 58.5638 56.7324 58.5638C56.548 58.5086 56.548 58.4165 56.7139 58.3245C56.7508 58.3245 56.8061 58.3429 56.843 58.3613V58.3797Z" fill="#6EBD6C"></path>
<path d="M96.3362 66.0384C96.0227 66.3698 95.9674 66.0753 95.8752 65.8543C95.9306 65.7807 95.9859 65.7071 96.0412 65.6334C96.1334 65.7807 96.2071 65.928 96.2993 66.0753L96.3362 66.02V66.0384Z" fill="#D0D7C9"></path>
<path d="M44.2317 80.9141C44.1026 80.8221 43.8629 80.6748 43.8814 80.6564C44.0289 80.3618 44.2501 80.4907 44.4529 80.5828C44.3792 80.6932 44.3054 80.8037 44.2317 80.8957V80.9141Z" fill="#FDFDFD"></path>
<path d="M12.5928 25.0935C12.4822 25.2224 12.3716 25.3513 12.2794 25.4802L12.3163 25.4986C12.1135 25.2776 12.2241 25.0935 12.3532 24.9094C12.4269 24.9647 12.5007 25.0199 12.5744 25.0935H12.5928Z" fill="#D0D7C9"></path>
<path d="M29.5001 65.3757C29.5001 65.3757 29.4632 65.4677 29.4632 65.5046C29.4079 65.4677 29.3341 65.4309 29.2788 65.3941C29.3157 65.3573 29.3526 65.302 29.371 65.2652C29.4079 65.302 29.4632 65.3389 29.5001 65.3757Z" fill="#25201D"></path>
<path d="M4.66467 46.5602C4.7753 46.3945 4.84905 46.1551 5.12561 46.3024C5.34686 46.4313 5.34686 46.6338 5.25467 46.8363C5.05186 46.7443 4.86749 46.6522 4.66467 46.5417V46.5602Z" fill="#25201D"></path>
</g>
<defs>
<clipPath id="clip0_85_533">
<rect width="97" height="101" fill="white"></rect>
</clipPath>
</defs>
</svg>
