<svg width="243" height="202" viewBox="0 0 243 202" fill="none" xmlns="http://www.w3.org/2000/svg">
<path d="M0.200002 201.8V98C0.200002 68.6 6.8 48.8 21.2 32C33.8 17.6 47 10.4 75.2 0.799975L99.2 39.2C78.8 43.4 68.6 48.2 58.4 56.6C48.8 65.6 45.2 75.8 44.6 98H104V201.8H0.200002ZM138.8 201.8V98C138.8 68.6 145.4 48.8 159.8 32C172.4 17.6 185.6 10.4 213.8 0.799975L237.8 39.2C217.4 43.4 207.2 48.2 197 56.6C187.4 65.6 183.8 75.8 183.2 98H242.6V201.8H138.8Z" fill="#3B3532" fill-opacity="0.05"></path>
</svg>
