<svg width="243" height="202" viewBox="0 0 243 202" fill="none" xmlns="http://www.w3.org/2000/svg">
<path d="M242.6 0.799967V104.6C242.6 133.4 236 153.2 221.6 170.6C209 185 195.8 192.2 167.6 201.8L143.6 163.4C164 159.2 174.2 154.4 184.4 145.4C194 137 197.6 126.8 198.2 104.6H138.8V0.799967H242.6ZM104 0.799967V104.6C104 133.4 97.4 153.2 83 170.6C70.4 185 57.2 192.2 29 201.8L5 163.4C25.4 159.2 35.6 154.4 45.8 145.4C55.4 137 59 126.8 59.6 104.6H0.200002V0.799967H104Z" fill="#3B3532" fill-opacity="0.05"/>
</svg>
