<svg width="80" height="90" viewBox="0 0 80 90" fill="none" xmlns="http://www.w3.org/2000/svg">
<g clip-path="url(#clip0_82_387)">
<path d="M3.05991 41.5172C3.57604 40.172 1.80646 39.1769 2.48848 37.7948C3.33641 36.5602 4.553 35.5098 4.57143 33.8145C4.57143 33.4091 4.8848 33.3722 5.19816 33.5749C5.41936 33.7223 5.32719 34.4226 5.86176 33.9619C6.00922 33.8329 6.10139 33.5012 6.04609 33.3169C5.88019 32.8378 5.45623 33.2064 5.17973 33.0958C4.70047 32.9115 3.77881 33.2985 3.79724 32.4324C3.83411 31.0135 3.28111 29.5577 4.05531 28.1941C5.56683 27.5123 5.99079 25.9644 6.82028 24.7297C7.26268 24.6376 7.68664 24.5454 8.12904 24.4533C8.7742 24.6744 9.54839 23.9373 10.083 24.7113C11.2442 26.3882 12.5346 27.9545 14.3042 28.8575C14.1383 29.5946 13.0691 29.0786 13.2903 30.0184C13.53 30.0184 13.7696 30.0737 13.9908 30C15.3733 29.5393 16.0184 30.6081 16.4977 31.4373C17.0691 32.4324 16.4977 33.7039 15.9263 34.3857C15.4839 34.9201 14.8018 34.828 15.1521 35.9521C15.5207 37.1499 16.3134 36.4312 16.9032 36.6339C16.5714 37.113 15.6682 36.9103 15.871 37.7395C15.6129 37.7948 15.3548 37.8501 15.0968 37.9054C15.1521 37.9791 15.1889 38.0897 15.2442 38.0897C15.5576 38.145 15.7604 37.9975 15.8525 37.7027C17.4194 37.0762 17.8249 38.9926 19.023 39.1769C19.3548 39.3796 19.7419 39.5454 19.7788 40.0061C19.4654 40.6142 18.3595 41.0934 19.0046 41.8673C19.4654 42.4017 20.2765 41.7752 20.9217 41.6093C21.6959 41.4066 21.0323 40.7432 21.3088 40.3747C21.4562 40.1904 21.7327 40.0061 21.7327 39.8403C21.6221 38.0344 22.765 36.6523 23.5945 35.2887C24.5346 33.7408 25.3641 32.0454 25.9539 30.4607C26.5438 28.8759 27.0968 27.7887 28.6452 27.2359C29.6221 27.0884 30.6728 26.425 31.3917 27.7334C31.6313 28.1572 32.1475 28.0467 32.1843 27.6781C32.4608 25.7801 33.9908 24.3612 34.0461 22.3341C34.083 21.3391 34.6912 19.5147 35.1152 19.4963C37.0691 19.3857 36.2396 17.93 36.6083 17.1007C36.682 17.027 36.7558 16.9349 36.8295 16.8612C36.7373 16.8243 36.6636 16.8059 36.5714 16.769C36.5161 16.2899 36.7373 15.7555 36.3871 15.3133C37.1244 15.387 37.1613 14.742 37.4009 14.3182C37.8065 14.1155 38.1936 13.8943 38.5991 13.6916C39.0046 13.7285 39.4286 13.6916 39.8157 13.7838C41.9539 14.1892 42.8203 13.2125 42.4148 10.8907V10.7617L42.5438 10.7064C43.5945 10.8722 44.5714 11.0749 45.2719 12.07C45.7327 12.715 46.7281 12.5123 46.6728 11.941C46.4701 10.1904 47.5023 9.36117 48.7005 8.36608C49.5668 7.64741 49.8618 7.75797 50.5069 8.43979C50.9862 8.93733 51.4839 10.043 52.2765 9.34274C53.0507 8.66092 53.3088 9.28746 53.7327 9.54544C54.3779 9.95085 54.9493 10.4668 55.5945 10.8722C55.7604 10.9828 56.0369 11.2039 56.3502 10.6879C56.8848 9.84028 57.2535 8.8452 57.2535 8.03439C57.2535 6.89188 58.8387 6.63389 58.3595 5.45453C59.1521 4.18303 60.4608 5.0307 61.4747 4.699C62.6728 4.31203 63.2258 4.828 63.1152 6.08107C63.3364 7.00244 63.9078 7.88697 62.9125 8.80834C62.3779 9.30588 62.6913 9.89556 63.4654 10.043C64.3318 10.2088 65.2166 10.3931 66.1014 10.5405C66.8756 10.6695 67.4654 11.2039 67.0599 11.8489C66.3226 12.9914 67.023 13.2862 67.8157 13.3599C69.9355 13.5074 70.7097 15.4238 72.1659 16.4373C72.5346 16.6953 72.3687 17.0086 72.2581 17.1929C71.8525 17.8931 72.2581 18.4091 72.5346 18.9988C72.7742 19.4779 72.6452 19.9201 72.5899 20.4361C72.4055 22.113 72.0922 23.6056 70.9862 24.8956C70.9124 24.9324 70.8387 24.9693 70.7834 25.0061C70.8203 25.0061 70.8572 25.0061 70.8756 25.0061C70.9125 24.9693 70.9493 24.914 70.9678 24.8771C71.2627 24.8956 71.7604 24.8771 71.7972 24.9693C72.1106 26.0196 70.765 25.6879 70.5069 26.2223C70.894 26.8673 71.9263 25.8169 71.9263 27.0884C71.9263 28.1572 72.5899 29.3735 70.765 29.7051C71.2442 30.3133 71.6313 30.8108 72.0184 31.3083C72.3687 32.8378 70.9125 32.6167 70.5438 32.3771C69.3641 31.5848 67.4654 31.6585 67.1336 29.7604C66.9309 28.6916 66.6175 27.586 67.9447 26.9594C68 27.0147 68.0369 27.0884 68.0922 27.1437C68.0922 27.1069 68.0922 27.07 68.0737 27.0516C68.0369 27.0147 67.9816 27.0147 67.9263 26.9779C67.9631 26.1855 67.8157 25.7064 66.8203 25.5405C66.2673 25.4484 67.4101 25.3931 67.0599 24.8771C65.9724 25.6511 64.8479 25.7432 63.7604 24.785C63.6498 24.6744 63.2995 24.7481 63.1152 24.8403C61.8065 25.4852 60.9217 24.3427 59.871 24.1585C58.8018 23.9742 58.5991 26.0934 57.1244 25.9828C56.8479 25.9644 56.553 26.1118 56.2581 26.1671C55.7419 26.2408 55.3364 26.0565 54.9862 25.6879C53.8433 24.6929 53.0814 24.8464 52.7005 26.1486H52.7373C52.0184 26.5909 51.5576 25.7432 50.8203 25.8169C48.9401 25.9828 49.5115 27.8255 48.6636 28.6732C47.576 29.9816 46.9493 31.7506 45.1244 32.3587C44.4424 32.5798 44.0369 31.9902 43.5207 31.769C42.6913 31.4189 42.212 31.1241 41.4194 32.1929C40.2396 33.7961 40.4424 35.602 39.9263 37.2789C39.5023 37.113 39.4286 37.3157 39.576 37.6658H39.5945C38.7097 37.5737 38.1383 37.8317 38.3226 38.8636C38.2673 39.3612 38.0277 39.656 37.4931 39.6376C37.4378 39.5639 37.4009 39.4902 37.3456 39.4164C37.3456 39.5086 37.3088 39.6192 37.2903 39.7113C36.0922 39.9508 34.9125 40.043 33.7143 39.6929C33.2535 39.5639 32.4055 39.3427 32.4424 40.0983C32.5346 42.2359 30.7097 44.2076 31.9078 46.4189V46.382C31.3364 46.5295 31.7419 46.898 31.7419 47.1929C30.4516 49.054 30.7281 51.3022 30.212 53.3661C29.106 53.7162 29.8065 54.7481 29.5115 55.43C28.8479 56.9963 28.2765 58.7469 28.5161 60.4607C28.7005 61.7322 28.5714 62.8747 27.7788 63.7039C26.4885 65.086 27.8525 66.6892 27.1521 68.0897C27.0599 68.2924 27.5576 68.4766 27.8157 68.2002C29.2166 66.6707 30.4701 68.0897 31.3917 68.6793C32.553 69.4165 31.8894 70.7985 31.3917 71.8857C31.3548 72.0147 31.318 72.1437 31.2811 72.2727L31.6866 72.1437C32.7373 70.9828 33.8802 70.0061 35.6313 70.5037C37.5115 71.1671 37.3825 72.8071 37.4931 74.3366C36.977 74.9816 36.4608 75.645 35.9447 76.2899C34.8018 75.2211 34.8756 76.9902 34.212 77.0454C34.1751 77.0086 34.1567 76.9533 34.1198 76.9349C34.1014 76.9349 34.0461 76.9349 34.0092 76.9349C34.083 76.9717 34.1383 77.0086 34.212 77.0639C34.2304 79.4594 35.4654 77.3956 36.0922 77.5614C36.2212 77.9484 36.0184 78.2064 35.7604 78.4459C34.8387 78.8698 33.8986 79.2567 33.2903 80.1597C34.1014 80.4545 34.98 80.4238 35.9263 80.0676C36.682 81.1179 37.4194 82.1499 38.1751 83.2002C38.2304 83.6609 38.3226 84.2506 37.7143 84.3059C36.5161 84.398 35.5576 84.785 34.8203 85.7985C34.7097 85.9644 33.9355 85.8906 33.7327 85.6879C32.7742 84.656 31.0783 84.5823 30.5254 83.0897C30.8756 82.7764 30.9677 82.3157 30.7281 81.984C30.4701 81.6523 30.1198 82.0577 29.8065 82.1683C29.2719 82.371 28.7189 82.5737 28.1843 82.7764C27.7235 82.7948 27.2811 82.8317 26.8203 82.8501C26.1014 81.9656 25.3641 81.0811 24.4977 80.0307C24.1106 81.2838 23.7419 82.3894 22.636 82.9975H22.6728C20.0553 82.0393 19.6129 82.113 17.9908 84.011C16.9585 85.2273 15.6129 84.5639 14.4148 84.7481L14.5254 84.6929C14.5254 84.269 14.212 84.3427 13.9539 84.3427C12.7005 83.2371 13.5484 81.984 13.6959 80.7678C14.0645 80.7309 14.8203 80.6204 14.636 80.473C13.6774 79.6621 14.8387 78.8698 14.5069 78.1327C14.5438 78.1142 14.5807 78.0958 14.6175 78.0774C14.5991 78.0958 14.5622 78.1327 14.5438 78.1511C13.8249 78.6486 13.1429 79.2199 12.2028 79.2015C11.318 78.6855 10.4701 77.93 10.3226 77.0086C10.1198 75.7002 11.1152 74.4472 10.341 72.8993C10.1014 72.4201 11.0415 71.3882 9.47466 71.5172C9.19816 71.5356 9.19816 71.2408 9.12443 71.0012C8.6083 69.2875 8.64517 67.629 9.76959 66.1363C9.91706 65.9336 10.3042 65.9521 9.99079 65.5467C9.29033 64.6437 9.88019 63.9066 10.3042 63.1327C10.7281 62.8194 11.6129 63.7408 11.6866 62.7088C11.7788 61.382 12.9401 60.258 12.3687 58.8206C11.4286 59.1707 10.6728 59.6867 10.3963 60.7002C8.81106 61.1241 8.01844 60.0737 7.39171 58.968C6.82028 57.9914 7.52074 54.5823 8.46084 54.2506C8.9401 54.0848 8.8848 53.9742 9.01383 53.6425C9.49309 52.371 8.4977 52.2051 7.76037 51.726C6.61752 50.9705 5.19816 50.1413 5.1613 48.7039C5.12443 47.3587 5.65899 45.9214 6.17512 44.6314C6.47005 43.9128 6.82028 43.2862 6.65438 42.4938C5.82489 42.9177 5.1613 41.0012 4.1659 42.3464C3.96314 42.6228 2.98618 42.3464 3.09678 41.4619L3.05991 41.5172ZM13.7327 71.0749C13.3272 71.5909 12.1475 71.5909 12.7189 72.8624C13.2166 71.5172 14.2857 72.5123 15.0415 72.1621C14.894 71.3698 13.6037 72.0884 13.7143 71.0565C13.7327 71.0196 13.7512 70.9828 13.788 70.9459C13.788 70.9828 13.7512 71.0196 13.7327 71.0565V71.0749ZM17.2166 67.1867C18.7834 67.5553 18.8018 66.3206 19.318 65.7125C19.5207 65.473 19.9816 65.1781 19.5392 64.8464C19.0599 64.4963 18.6912 64.957 18.5991 65.3071C18.3963 66.0258 17.8433 66.4496 17.2166 67.1683V67.1867ZM11.7788 51.5786C10.8756 51.855 10.9493 52.4263 11.0599 52.9607C11.1152 53.2371 11.4286 53.2555 11.6313 53.0897C12.1475 52.6658 11.8157 52.1314 11.7788 51.5786ZM10.9862 45.4054C10.3963 46.0504 10.7465 46.64 10.8756 47.2113C11.0415 47.1744 11.2627 47.1744 11.3364 47.0823C11.8341 46.4373 11.4839 45.9582 10.9862 45.4054ZM12.3502 30.3133C12.1659 30.5712 11.6682 30.5897 11.7604 31.0135C11.7972 31.1978 11.7972 31.769 12.2212 31.4373C12.4424 31.2715 13.0323 31.382 12.8848 30.8477C12.8295 30.6081 12.7742 30.2395 12.3502 30.3133ZM15.1521 36.9287C14.894 36.5418 14.5991 36.5233 14.3042 36.5786C13.9908 36.6339 13.5484 36.6155 13.7327 37.371C14.1383 36.9287 14.6728 37.5368 15.1521 36.9287ZM56.9585 11.2223C56.9585 11.2223 57.0507 11.1486 57.0876 11.0934C57.0507 11.0565 56.9954 10.9828 56.9585 10.9828C56.9217 10.9828 56.8664 11.0565 56.8295 11.0934C56.8664 11.1302 56.9217 11.1671 56.9585 11.2039V11.2223ZM33.3272 77.2481C33.3272 77.2481 33.235 77.3403 33.1982 77.3771C33.2535 77.414 33.2903 77.4877 33.3456 77.4693C33.3825 77.4693 33.4194 77.3956 33.4747 77.3587C33.4378 77.3219 33.3825 77.285 33.3456 77.2481H33.3272Z" fill="#3F75BB"/>
<path d="M28.5714 27.2727C27.023 27.8255 26.47 28.9128 25.8802 30.4975C25.2903 32.0823 24.4608 33.7776 23.5207 35.3255C22.6912 36.6892 21.5484 38.0528 21.659 39.8771C21.659 40.043 21.3825 40.2273 21.235 40.4115C20.7189 40.2825 20.2212 40.172 19.7051 40.043C19.6682 39.5823 19.2811 39.4165 18.9493 39.2138C18.9493 38.0897 17.659 37.5553 17.8249 36.2469C18.212 33.3354 17.5484 30.3317 18.5438 27.4201C18.765 26.7752 18.5438 26.0934 17.6405 25.5958C16.5161 24.9877 15.318 24.5454 14.1567 24.0848C13.4931 23.8268 13.106 23.8452 13.4746 23.0344C13.7143 22.5184 12.9032 22.5368 12.8479 22.1314C12.7005 22.3526 12.3687 22.6474 12.424 22.7948C12.9032 24.0663 11.9447 23.7715 11.3364 23.8452C10.8756 23.9005 10.3963 23.9558 9.93548 24.011C9.51151 23.0897 11.2074 23.1634 10.6912 22.0762C10.0829 22.7211 8.90322 22.242 8.55299 23.145C8.27649 23.9005 9.62211 23.3292 9.65898 24.0663C9.12442 24.1953 8.49769 23.9558 8.07373 24.4902C7.63133 24.5823 7.20737 24.6744 6.76497 24.7666C5.36405 24.1032 5.51151 25.7617 4.81105 26.0565C3.63133 26.5356 3.70506 27.2911 4.01843 28.2309C3.24423 29.5946 3.79723 31.0688 3.76036 32.4693C3.74193 33.3354 4.66359 32.9484 5.14285 33.1327C5.41935 33.2432 5.86175 32.8747 6.00921 33.3538C6.06451 33.5381 5.97234 33.8698 5.82488 33.9988C5.29032 34.441 5.38248 33.7408 5.16128 33.6118C4.84792 33.4091 4.55299 33.4459 4.53456 33.8513C4.49769 35.5282 3.29953 36.5786 2.45161 37.8317C1.54838 35.6388 2.23041 33.2985 1.88018 31.0872C1.67741 29.7789 1.69585 28.2862 0.737322 27.0884C-0.534567 25.5037 -0.147471 23.5688 1.23502 22.1314C3.2258 20.0491 5.86175 19.8096 8.40552 19.2015C8.51612 19.183 8.71889 19.1278 8.75575 19.183C10.1014 21.4312 11.2995 18.9619 12.6083 18.9988C13.8249 19.0356 14.765 19.312 15.7235 19.957C16.0553 20.1781 16.6083 20.3071 16.9954 20.215C18.9124 19.7359 19.8157 21.0811 20.8295 22.2604C21.5484 23.1081 22.9309 24.0295 22.212 25.0983C21.4562 26.2408 22.1014 26.812 22.341 27.6597C22.4147 27.9545 22.4332 28.2494 22.7097 28.3047C23.0783 28.3968 23.1152 27.9545 23.2995 27.7703C24.1475 26.8489 23.4286 25.5405 24.129 24.5639C24.5346 23.9742 24.4793 22.9791 25.5852 23.0528C26.0276 23.0897 25.9908 22.758 26.0092 22.4631C26.0461 20.8415 26.4885 20.086 27.9447 19.4226C28.1843 19.312 28.1843 19.1646 28.1659 19.0909C27.7235 17.3587 29.6037 16.8243 29.9908 15.5344C30.5069 13.8575 32 14.5762 33.0323 14.2076C33.3825 14.3366 33.7327 14.4656 34.0829 14.5946C34.1935 14.6683 34.2857 14.7604 34.3963 14.8341C34.3963 14.8341 34.47 14.7604 34.5069 14.7236C34.3963 14.6499 34.2673 14.5946 34.1567 14.5209C34.0645 13.7101 33.4931 13.968 33.0323 14.0233C32.2396 14.0786 32.129 13.5995 32.2949 13.0098C32.4608 12.328 32.977 12.9177 33.3088 12.8071C33.659 12.6781 34.0645 13.5442 34.2673 12.844C34.4332 12.2911 33.8433 12.5491 33.5668 12.457C33.0322 12.2727 33.2903 11.9779 33.5115 11.6646C34.8387 9.82186 36.3687 8.21866 38.6728 7.66584C39.7235 7.40785 39.6313 5.8968 40.9585 5.93365C42.5438 5.98893 43.7972 5.17812 45.0323 4.16461C45.8433 3.50122 46.7465 2.41399 48.1475 3.04053C48.2765 3.09581 48.6083 2.87468 48.7373 2.69041C50.2488 0.829228 52.3871 1.25306 54.3594 1.08721C54.5806 1.06879 54.8756 1.08721 55.023 0.976648C56.5899 -0.331706 58.1935 0.0736996 59.8341 0.773945C60.129 0.902938 60.2212 0.73709 60.3687 0.51596C60.8295 -0.147431 61.4562 -1.04234e-05 62.1198 0.22112C62.1567 0.902938 61.4747 0.58967 61.2719 0.921365C61.9355 1.30834 62.6544 1.40048 63.3917 1.25306C65.2903 0.921365 65.4193 0.88451 66.7465 2.39557C67.2627 2.98525 67.6129 2.39557 68 2.39557C69.7511 2.46928 70.2304 4.45945 71.7788 4.51473C71.8525 5.23341 71.0968 4.88328 71.0415 5.25183C73.1613 6.70761 74.8018 8.40294 75.576 10.9644C75.9078 12.07 76.9216 12.973 77.7327 13.8943C78.2488 14.484 78.4885 15.0368 78.1935 15.7739C77.4378 16.0688 77.2534 15.2764 76.7189 14.9816C76.7189 15.4423 76.7189 15.8292 76.7373 16.2162C76.5899 16.3452 76.4424 16.4742 76.2949 16.6032C76.3502 16.6216 76.3871 16.6769 76.4424 16.6769C76.7558 16.7322 76.7926 16.5295 76.8111 16.3083C77.4746 16.6953 77.8249 17.543 78.7281 17.5614C79.9816 18.8145 77.6221 18.4091 77.9723 19.2567C78.341 19.6806 79.1336 18.9066 79.2442 19.4963C79.4654 20.6204 79.8341 21.8182 79.4654 22.9607C79.2995 23.4951 78.2857 23.9926 79.7788 23.9373C79.8157 23.9373 79.9078 24.0295 79.9078 24.0479C79.2258 25.6511 80.4055 27.6228 79.6866 28.7653C78.9493 29.9263 80.0553 30.0737 80 30.7555C79.8894 32.4693 79.3548 33.8145 77.9539 34.8096C76.8848 35.5651 77.9539 35.5467 78.2488 35.7309C76.6083 37.3894 74.6912 36.2469 72.8663 36.1916C71.9816 35.3993 71.1152 34.5332 69.4931 34.1462C70.1935 34.9939 70.6359 35.5098 71.0783 36.0258C69.9723 36.2285 68.9401 36.1732 68.4424 34.957C68.2028 34.3673 67.7419 34.5147 67.4101 34.6069C65.917 35.0123 65.106 34.2752 64.5346 33.0221C64.4977 32.9484 64.3871 32.8194 64.3687 32.8194C62.7834 33.7776 61.7696 32.0823 60.424 31.9717C59.6682 31.9165 59.0783 32.1007 58.8387 30.9766C58.7465 30.516 57.4746 30.9582 56.7373 30.9029C55.2995 30.8108 53.8064 31.2531 52.3687 31.5479C51.3548 31.7506 51.9631 33.2617 50.7281 33.5381C49.2166 33.8698 48.424 35.1966 47.7788 36.5418C47.2258 37.6658 45.6774 38.0528 45.3088 38.9373C44.4424 41.0381 42.2857 41.4251 41.0691 42.8808C39.9447 44.2445 37.8617 44.8157 37.6405 46.9165C37.6221 47.1192 37.4746 47.3771 37.2903 47.4877C36.977 47.6904 36.5161 46.3821 36.2212 47.6167C36.0737 48.188 36.4055 48.6486 36.3871 49.1093C36.3871 49.699 36 50.3255 35.6866 50.8784C35.2442 51.6892 35.5392 52.3894 35.7972 53.1265C35.4839 53.9005 34.9124 52.4079 34.6912 53.2371C34.5438 53.7899 35.2627 53.6425 35.5023 53.9189C34.8387 54.398 36.3318 55.2273 35.2258 55.6511C35.0599 55.4853 35.0783 55.0246 34.6728 55.301C34.5438 55.3931 34.47 55.559 34.3779 55.7064C34.5991 55.7432 34.8203 55.7617 35.0415 55.7985C35.0415 57.7703 35.871 59.613 36.2212 61.5295C36.3318 62.1929 37.2166 63.3722 37.7696 64.2752C38.4147 65.3255 38.47 66.6708 39.3364 67.6474C39.0415 67.7211 38.7834 67.8501 38.8387 68.2002C38.8387 68.3108 39.0599 68.4767 39.1521 68.4582C39.4654 68.4214 39.6498 68.2371 39.6498 67.9054C40.5161 69.14 41.5484 70.301 41.4931 71.9594C41.4193 72.0884 41.2534 72.2543 41.2903 72.3464C41.364 72.5491 41.5484 72.4938 41.7143 72.3833C41.917 72.2727 42.2857 71.8489 42.2857 72.4386C42.2857 73.4705 42.894 74.1892 43.3733 74.9816C43.8341 75.7371 44.3871 76.4742 44 77.4509C42.7097 78.6671 44.4793 79.8833 43.871 81.1179C44.977 80.1597 44.0369 78.7961 44.7373 77.801C45.6037 78.9619 45.8433 80.1781 45.1982 81.3943C47.4654 81.5233 46.4885 83.6794 47.2442 84.7113L47.2995 84.656C47.1889 84.6929 47.0783 84.7297 46.9677 84.785C47.0783 84.8587 47.1889 84.9509 47.2995 85.0246C47.3548 85.0798 47.4101 85.1351 47.4839 85.172C46.8387 86.0934 48.3871 86.0381 48.1843 86.8489C47.8525 88.1572 47.2074 89.2445 45.8617 89.4656C44.553 89.6683 42.9862 90.2764 42.1935 88.4705C42.0461 88.1572 41.8064 88.2494 41.6037 88.2862C40.5714 88.4705 39.5269 88.2309 38.47 87.5676C38.47 87.5676 38.1935 87.457 38.1382 87.5123C36.6452 88.9681 34.894 87.0147 33.364 87.8808C33.3088 87.9177 33.2534 87.9361 33.1982 87.9545C32.5714 86.554 31.5207 87.7518 30.9309 87.5676C29.6221 87.1253 28.7926 88.1204 27.6866 88.0835C26.5253 88.0651 25.3825 88.5074 24.1659 88.5811C23.2811 88.6364 22.8571 89.8894 21.6221 89.7973C20.8848 89.742 19.871 89.1708 19.1521 90.0737C19.1336 90.0921 18.3963 89.6499 18.3226 89.1155C18.2304 88.2309 18.1198 87.3464 18.0276 86.4619C17.9908 86.1671 17.9723 85.8354 18.341 85.7248C20.3502 85.1351 22.3594 84.14 24.3687 84.1032C25.6221 84.0848 25.7327 82.7027 26.7834 82.9422C27.2442 82.9238 27.6866 82.887 28.1475 82.8685C28.8848 83.3661 29.6405 83.6056 30.4885 83.1818C31.0415 84.6744 32.7558 84.7481 33.6958 85.7801C33.8986 85.9828 34.6728 86.0381 34.7834 85.8907C35.5207 84.8771 36.4793 84.5086 37.6774 84.398C38.3041 84.3427 38.212 83.7531 38.1382 83.2924C39.0968 83.9005 40.3687 84.4533 41.1797 83.7899C41.7696 83.2924 41.1244 82.0209 40.8664 81.0626C40.2765 78.8329 38.6728 77.0454 38.2673 74.7789C38.1382 74.0049 37.7143 74.613 37.4746 74.4472C37.364 72.9177 37.4746 71.2776 35.6129 70.6142C34.9493 69.7481 35.5207 68.3661 34.47 67.7211C33.1797 66.9287 32.6083 65.7309 32.6267 64.3305C32.6267 63.5381 32.4608 62.93 32 62.3403C30.6728 60.7371 30.6175 58.7653 30.4332 56.8305C30.341 55.7064 31.1152 54.527 30.1935 53.4582C30.7281 51.4128 30.4516 49.1462 31.7235 47.285C33.0322 47.285 31.7235 46.7137 31.9078 46.4742V46.511C32.682 45.0368 33.4009 43.5074 35.2627 43.0098C34.5991 42.1622 34.3594 43.3231 33.917 42.8993C34.3226 41.0565 36.129 40.7617 37.3088 39.785V39.8034C37.3825 39.8034 37.4562 39.7666 37.5115 39.7113C38.0461 39.7113 38.2857 39.4349 38.341 38.9373C38.9862 38.7531 39.1705 38.1081 39.6129 37.7211H39.5945C39.7972 37.6843 39.9816 37.6106 39.9447 37.3526C41.2719 36.6708 42.2488 35.3993 43.7972 35.086C43.9631 35.0491 44.1106 35.0123 44.2765 34.9754C43.1705 33.6671 44.9954 33.3354 45.1428 32.4324C46.9677 31.8243 47.5945 30.0553 48.682 28.7469C50.1382 28.5258 50.8018 26.4619 52.7189 27.1437C53.1797 27.3096 52.4793 26.5356 52.7558 26.2039H52.7189C53.5115 26.2039 54.2857 26.1302 55.0046 25.7617C55.3548 26.1302 55.7604 26.3145 56.2765 26.2408C56.5346 26.7383 56.8479 26.9963 57.5115 26.8673C58.4147 26.7015 59.3917 26.9779 60.2765 27.07C62.2857 27.3096 64.0553 28.6179 66.0461 29.097C66.2304 29.1339 66.3226 29.5209 66.47 29.742C66.3963 29.742 66.3226 29.742 66.2488 29.742C66.2673 29.7973 66.3041 29.871 66.3226 29.9263C66.3594 29.8526 66.3963 29.7604 66.4332 29.6867L67.1521 29.7789C67.4654 31.6769 69.3825 31.5848 70.5622 32.3956C70.9309 32.6536 72.3871 32.8563 72.0369 31.3268C72.2581 31.2715 72.4792 31.2346 72.7004 31.1794C72.7373 31.9902 72.7742 32.8378 74.0092 32.4693C74.1751 31.9165 72.8111 31.8796 73.5484 31.1425C73.8986 30.5528 75.0783 32.1007 75.0599 30.5528C75.023 27.5676 75.2995 24.5639 74.8571 21.6339C74.5806 19.7359 75.1705 17.2666 72.8295 15.9766C72.553 15.8292 72.553 15.129 72.4793 14.6867C72.3502 13.9128 72.4977 13.1204 71.3364 12.7703C70.894 12.6413 70.2673 11.7015 69.9355 11.0749C69.2166 9.71129 68.4977 8.47665 67.1521 7.5737C65.8986 6.74446 64.2028 7.26043 63.1152 6.11793C63.2258 4.86485 62.6728 4.34888 61.4746 4.73586C60.4424 5.06756 59.1521 4.20146 58.3594 5.49139C55.5023 5.32554 52.8111 5.87837 50.1935 7.0393C49.7143 7.26043 48.9216 7.9791 48.2028 7.11301C47.9631 6.81817 47.6129 6.89188 47.7972 7.35257C48.1659 8.23709 47.5207 8.16338 47.023 8.43979C45.5484 9.2506 43.871 9.69286 42.5438 10.7617L42.4147 10.8169V10.9459C40.7189 11.3145 39.3917 12.1806 38.5991 13.7469C38.1935 13.9496 37.8064 14.1708 37.4009 14.3735C36.9954 14.6499 35.9816 14.2997 36.3871 15.3685C34.894 15.2211 35.3364 16.6953 34.765 17.3403C33.4009 18.8698 31.9631 20.4177 30.9493 22.2051C30.0645 23.7531 30.1014 25.7985 28.3687 26.9042C28.3687 26.9042 28.5161 27.1806 28.5899 27.328L28.5714 27.2727ZM37.6221 66.2285C37.4009 66.3759 37.2903 66.5786 37.5484 66.726C37.917 66.9287 38.0276 66.6708 38.0645 66.3575C38.0092 66.2285 37.9539 66.0995 37.8802 65.9705L37.6221 66.2285ZM46.5069 87.8993C45.7327 88.2309 44.9032 88.0835 44.1106 88.1572C43.9447 87.8808 43.7051 87.5491 43.447 87.8808C43.2811 88.102 43.6866 88.3047 43.9447 88.3968C45.0876 89.7604 46.0461 89.097 46.9677 88.102C47.2074 87.973 47.3548 87.6965 47.1521 87.5491C46.8571 87.3464 46.5991 87.5307 46.5253 87.8993H46.5069ZM58.3963 1.62161C57.6713 2.285 57.364 3.1081 57.4746 4.0909C57.3088 3.20638 58.1567 2.72726 58.3963 1.62161ZM34.2673 52.4816C33.9908 52.0946 34.0092 51.7629 33.6774 51.855C33.5668 51.8919 33.4009 52.1683 33.4378 52.2236C33.5484 52.3894 33.7143 52.5553 33.8986 52.6106C34.0092 52.6474 34.1751 52.5 34.2488 52.4816H34.2673ZM38.9309 8.80834C38.6912 8.66092 38.5622 8.53193 38.3963 8.47665C38.0645 8.34766 38.0092 8.69778 37.9355 8.8452C37.8064 9.12161 37.9723 9.23218 38.2673 9.12161C38.47 9.02947 38.6544 8.93734 38.9309 8.80834ZM76.4977 36.6155C76.6267 36.4865 76.7373 36.3759 76.8295 36.2838C76.7373 36.2285 76.6452 36.1179 76.5714 36.1179C76.424 36.1548 76.3134 36.2469 76.1659 36.3206C76.2581 36.4128 76.3502 36.4865 76.4977 36.6155ZM52.2212 30.9951C52.2212 30.9951 52.3134 31.1241 52.3687 31.1978C52.4055 31.1609 52.4608 31.1056 52.4608 31.0688C52.4424 30.9951 52.3687 30.9214 52.3318 30.8477C52.2949 30.8845 52.2765 30.9398 52.2396 30.9766L52.2212 30.9951Z" fill="#25201D"/>
<path d="M3.05991 41.5172C2.94931 42.4201 3.92627 42.6781 4.12903 42.4017C5.12442 41.0565 5.78802 42.9914 6.61751 42.5491C6.78341 43.3415 6.43318 43.968 6.13825 44.6867C5.60369 45.9766 5.06912 47.3956 5.12442 48.7592C5.17972 50.1965 6.58064 51.0258 7.7235 51.7813C8.46083 52.2604 9.45622 52.4447 8.97696 53.6978C8.84792 54.0295 8.90322 54.1216 8.42396 54.3059C7.48387 54.6376 6.78341 58.0467 7.35484 59.0233C8 60.129 8.79263 61.1793 10.3594 60.7555C10.9493 61.5847 10.3594 62.3771 10.2673 63.1695C9.84332 63.925 9.25346 64.6806 9.95392 65.5835C10.2673 65.9889 9.88018 65.9705 9.73272 66.1732C8.60829 67.6658 8.57143 69.3059 9.08756 71.0381C9.16129 71.2592 9.16129 71.5725 9.43779 71.554C11.0046 71.425 10.0645 72.457 10.3041 72.9361C11.0599 74.484 10.0645 75.7371 10.2857 77.0454C10.4332 77.9484 11.2811 78.7223 12.1659 79.2383C12.1659 80.2334 13.3825 80.0675 13.6774 80.8046C13.53 82.0209 12.682 83.2739 13.9355 84.3796C14.0645 84.6007 14.1014 84.9508 14.5069 84.7297L14.3963 84.785C14.1567 86.296 13.9539 87.8255 13.6774 89.3366C13.6221 89.6499 13.2719 89.8341 12.8848 89.6499C11.7788 89.0786 10.6728 88.5442 9.58525 87.9361C9.19815 87.715 9.14286 87.3096 9.14286 86.8489C9.17972 84.914 9.47465 82.9238 8.1106 81.2285C7.9447 81.0258 7.8341 80.6388 7.8894 80.3808C8.35023 78.2801 7.20737 76.3083 7.46544 74.2445C7.59447 73.2678 7.5023 72.2911 7.22581 71.3698C6.50691 68.9742 7.00461 66.468 6.50691 64.054C6.24885 62.7825 5.43779 61.7137 5.47465 60.3132C5.58525 56.8304 4.01843 53.4766 4.55299 49.9017C4.71889 48.7776 3.74193 47.7273 3.63134 46.4558C3.48387 44.8157 3.79723 43.1019 3.09677 41.5356L3.05991 41.5172Z" fill="#25201D"/>
<path d="M44.7558 77.7457C44.0553 78.7408 44.9954 80.1228 43.8894 81.0626C44.4977 79.828 42.7097 78.6118 44.0184 77.3956H43.9631C44.0369 77.6351 43.9631 78.0405 44.4424 77.7457C44.553 77.672 44.6452 77.672 44.7558 77.7457Z" fill="#D0D7C9"/>
<path d="M71.0783 35.9889C70.6359 35.473 70.1935 34.9386 69.493 34.1093C71.1336 34.4963 71.9815 35.3624 72.8663 36.1548C72.6267 36.6523 72.2765 36.726 71.8341 36.4128C71.8894 35.6388 71.3364 36.0626 71.023 35.9889H71.0783Z" fill="#D0D7C9"/>
<path d="M35.5392 53.9005C35.2996 53.6241 34.5807 53.7715 34.7281 53.2187C34.9493 52.3894 35.5208 53.8821 35.8341 53.1081C35.871 53.4214 36.0184 53.7715 35.5392 53.9005Z" fill="#D0D7C9"/>
<path d="M71.0231 35.9705C71.3364 36.0442 71.9079 35.6204 71.8341 36.3943C71.5945 36.1732 71.0968 36.4865 71.0231 35.9705Z" fill="#25201D"/>
<path d="M47.2443 84.656C47.6867 84.6376 47.6867 84.8218 47.4839 85.1167C47.4286 85.0614 47.3733 85.0245 47.318 84.9693C47.318 84.8403 47.318 84.7297 47.318 84.6007L47.2627 84.656H47.2443Z" fill="#25201D"/>
<path d="M22.5991 83.016C22.5807 83.1081 22.5438 83.2187 22.5254 83.3108C22.1751 83.0712 22.5622 83.1081 22.636 83.0344L22.5991 83.016Z" fill="#3F75BB"/>
<path d="M44.424 77.7641C43.9631 78.059 44.0184 77.6351 43.9447 77.414C44.3687 77.1929 44.3134 77.5798 44.424 77.7641Z" fill="#25201D"/>
<path d="M63.0783 6.08108C64.1659 7.24201 65.8617 6.72604 67.1152 7.53685C68.4608 8.42138 69.1981 9.65602 69.8986 11.0381C70.2304 11.6646 70.8571 12.6044 71.2995 12.7334C72.4608 13.0835 72.3133 13.8575 72.4424 14.6499C72.5161 15.0921 72.5161 15.7924 72.7926 15.9398C75.1336 17.2297 74.5438 19.699 74.8202 21.5971C75.2626 24.5086 74.9861 27.5307 75.023 30.516C75.0414 32.0639 73.8617 30.516 73.5115 31.1056C73.235 31.1056 72.9401 31.1425 72.6636 31.1425C72.4424 31.1978 72.2212 31.2346 72 31.2899C71.6129 30.7924 71.2258 30.2948 70.7465 29.6867C72.553 29.3366 71.9078 28.1388 71.9078 27.07C71.9078 25.7985 70.8571 26.8489 70.4885 26.2039C70.7465 25.6695 72.1106 26.0012 71.7788 24.9509C71.7419 24.8403 71.2442 24.8771 70.9493 24.8587H70.9677C72.0737 23.5872 72.4055 22.0946 72.5714 20.4177C72.6267 19.9017 72.7557 19.4595 72.5161 18.9803C72.2212 18.4091 71.8341 17.8931 72.2396 17.1744C72.3502 16.9902 72.5161 16.6769 72.1474 16.4189C70.6912 15.4054 69.917 13.4889 67.7972 13.3415C67.0046 13.2862 66.3226 12.973 67.0414 11.8305C67.447 11.2039 66.8571 10.6511 66.0829 10.5221C65.1981 10.3747 64.3318 10.2088 63.447 10.0246C62.6728 9.87715 62.3594 9.28747 62.894 8.78993C63.8894 7.86855 63.3179 6.98403 63.0967 6.06265L63.0783 6.08108Z" fill="#FDFDFD"/>
<path d="M30.1936 53.3661C31.1152 54.4349 30.341 55.6142 30.4332 56.7383C30.5991 58.6732 30.6728 60.645 32 62.2482C32.4793 62.8194 32.6452 63.4459 32.6268 64.2383C32.6268 65.6388 33.1798 66.8366 34.4701 67.629C35.5208 68.274 34.9493 69.6744 35.6129 70.5221C33.8618 70.0246 32.7189 71.0012 31.6682 72.1622C31.5761 72.07 31.4839 71.9779 31.3733 71.9042C31.871 70.817 32.5162 69.4349 31.3733 68.6978C30.4516 68.1081 29.1982 66.6892 27.7973 68.2187C27.5392 68.4951 27.0415 68.2924 27.1337 68.1081C27.8341 66.7076 26.4701 65.1044 27.7604 63.7224C28.553 62.8931 28.6821 61.7506 28.4977 60.4791C28.2397 58.7654 28.8295 56.9963 29.4931 55.4484C29.788 54.7666 29.0876 53.7346 30.1936 53.3845V53.3661Z" fill="#FDFDFD"/>
<path d="M9.95391 24.011C10.4147 23.9558 10.894 23.9189 11.3548 23.8452C11.9816 23.7715 12.9217 24.0479 12.4424 22.7948C12.3871 22.6474 12.7189 22.3526 12.8664 22.1314C12.9217 22.5368 13.7327 22.5184 13.4931 23.0344C13.1244 23.8452 13.4931 23.8083 14.1751 24.0848C15.3364 24.5454 16.5346 24.9877 17.659 25.5958C18.5806 26.0934 18.7834 26.7752 18.5622 27.4201C17.5668 30.3133 18.2304 33.3169 17.8433 36.2469C17.6774 37.5553 18.9677 38.0897 18.9677 39.2137C17.7696 39.0295 17.3825 37.113 15.7972 37.7395L15.8341 37.7764C15.6313 36.9472 16.5346 37.1683 16.8664 36.6707C16.2765 36.468 15.4839 37.1867 15.1152 35.9889C14.765 34.8649 15.447 34.9386 15.8894 34.4226C16.4608 33.7408 17.0507 32.4693 16.4608 31.4742C15.9816 30.645 15.318 29.5762 13.9539 30.0368C13.7511 30.1106 13.4931 30.0368 13.2535 30.0553C13.0507 29.1155 14.1198 29.6314 14.2673 28.8943C12.4977 27.9914 11.2074 26.4251 10.0461 24.7481C9.51152 23.9742 8.71889 24.7113 8.09216 24.4902C8.51613 23.9558 9.14285 24.1769 9.67742 24.0663L9.82488 24.1032L9.95391 24.011Z" fill="#FDFDFD"/>
<path d="M42.507 10.7248C43.8341 9.63757 45.5116 9.21374 46.9862 8.40293C47.4839 8.12652 48.1291 8.20023 47.7604 7.31571C47.5577 6.85502 47.9263 6.78131 48.1659 7.07615C48.8664 7.92381 49.659 7.20514 50.1567 7.00244C52.7742 5.85993 55.4655 5.28868 58.3226 5.45453C58.8203 6.63389 57.2351 6.89187 57.2166 8.03438C57.2166 8.84519 56.848 9.84028 56.3134 10.6879C56 11.1855 55.742 10.9644 55.5576 10.8722C54.9125 10.4668 54.3411 9.95084 53.6959 9.54544C53.2719 9.28745 53.0323 8.66092 52.2397 9.34273C51.4286 10.043 50.9309 8.93733 50.4701 8.43979C49.8249 7.77639 49.53 7.6474 48.6636 8.36608C47.4655 9.36116 46.4332 10.1904 46.636 11.941C46.7097 12.5307 45.6959 12.715 45.2351 12.07C44.5346 11.0565 43.5576 10.8538 42.507 10.7064V10.7248Z" fill="#FDFDFD"/>
<path d="M28.5714 27.2727C28.4976 27.1253 28.3317 26.8673 28.3502 26.8489C30.0829 25.7432 30.046 23.6978 30.9308 22.1499C31.9446 20.3808 33.364 18.8329 34.7465 17.285C35.3179 16.64 34.8571 15.1658 36.3686 15.3132C36.7004 15.7555 36.4976 16.2899 36.5529 16.769C36.4976 16.8612 36.4239 16.9717 36.3686 17.0823L36.6082 17.1191H36.5714C36.2027 17.9484 37.0322 19.4042 35.0783 19.5147C34.6543 19.5331 34.0276 21.3575 34.0092 22.3526C33.9539 24.3796 32.4055 25.7985 32.1474 27.6965C32.0921 28.0651 31.576 28.1756 31.3548 27.7518C30.6175 26.425 29.5852 27.1069 28.6082 27.2543L28.5714 27.2727Z" fill="#FDFDFD"/>
<path d="M37.4747 74.3734C37.7143 74.5393 38.1383 73.9312 38.2673 74.7051C38.6544 76.9717 40.2581 78.7592 40.8664 80.9889C41.1244 81.9472 41.7696 83.2187 41.1797 83.7162C40.3871 84.3796 39.0968 83.8268 38.1383 83.2187C37.3825 82.1683 36.6452 81.1363 35.8894 80.086C35.8341 79.5516 35.7972 78.9988 35.7419 78.4644C36 78.2248 36.2028 77.9668 36.0737 77.5798V77.5983C36.4608 77.4324 36.2949 77.0639 36.3871 76.8059C36.6267 76.3083 36.0184 76.5479 35.9631 76.3268C36.4793 75.6818 36.9954 75.0184 37.5115 74.3734H37.4747Z" fill="#FDFDFD"/>
<path d="M66.4147 29.6867C66.2673 29.4656 66.1751 29.0786 65.9908 29.0418C63.9816 28.5442 62.2304 27.2359 60.2212 27.0147C59.3364 26.9226 58.3779 26.6462 57.4562 26.812C56.7926 26.941 56.4793 26.683 56.2212 26.1855C56.5161 26.1118 56.7926 25.9828 57.0875 26.0012C58.5438 26.1118 58.765 23.9926 59.8341 24.1769C60.8848 24.3612 61.7696 25.5037 63.0783 24.8587C63.2627 24.7666 63.6129 24.7113 63.7235 24.8034C64.8111 25.7432 65.9355 25.6695 67.023 24.8956C67.3733 25.4115 66.2304 25.4668 66.7834 25.559C67.7788 25.7248 67.9263 26.2039 67.8894 26.9963H67.9078C66.5622 27.586 66.894 28.6916 67.0968 29.7604C66.8571 29.7236 66.6175 29.6867 66.3779 29.6683L66.4147 29.7052V29.6867Z" fill="#FDFDFD"/>
<path d="M45.106 32.3587C44.9585 33.2617 43.1521 33.5934 44.2396 34.9017C44.0737 34.9386 43.9263 34.9939 43.7604 35.0123C42.212 35.3256 41.235 36.5971 39.9078 37.2789C40.424 35.602 40.2212 33.7961 41.4009 32.1929C42.1936 31.1241 42.6728 31.4189 43.5023 31.769C44.0184 31.9902 44.424 32.5799 45.106 32.3587Z" fill="#FDFDFD"/>
<path d="M37.2903 39.7113C36.1105 40.6879 34.2857 40.9828 33.8986 42.8255C34.341 43.2494 34.5806 42.0884 35.2442 42.9361C33.4009 43.4152 32.682 44.9447 31.8893 46.4373C30.6912 44.226 32.5345 42.2543 32.4239 40.1167C32.387 39.3612 33.235 39.5823 33.6958 39.7113C34.894 40.0614 36.0921 39.9877 37.2718 39.7113H37.2903Z" fill="#FDFDFD"/>
<path d="M38.5623 13.6916C39.3733 12.1253 40.7005 11.2592 42.3779 10.8907C42.7835 13.2125 41.9171 14.1892 39.7788 13.7838C39.3733 13.7101 38.9678 13.7285 38.5623 13.6916Z" fill="#FDFDFD"/>
<path d="M10.2673 63.188C10.3595 62.3772 10.9494 61.6032 10.3595 60.774C10.636 59.7604 11.3918 59.2445 12.3318 58.8943C12.9217 60.3317 11.7604 61.4558 11.6498 62.7826C11.5761 63.8145 10.6913 62.8747 10.2673 63.2064V63.188Z" fill="#FDFDFD"/>
<path d="M52.7189 26.1302C52.4424 26.4435 53.1428 27.2359 52.682 27.07C50.765 26.3882 50.1014 28.4521 48.6451 28.6732C49.4931 27.8256 48.9216 26.0012 50.8018 25.817C51.5207 25.7432 52 26.6093 52.7189 26.1302Z" fill="#FDFDFD"/>
<path d="M4.03684 28.2309C3.72347 27.2911 3.66817 26.5356 4.82946 26.0565C5.52992 25.7617 5.38246 24.1032 6.78338 24.7666C5.97232 26.0012 5.52992 27.5307 4.0184 28.2309H4.03684Z" fill="#D0D7C9"/>
<path d="M35.7419 78.4644C35.7972 78.9988 35.8341 79.5516 35.8894 80.086C34.9431 80.4422 34.0645 80.4729 33.2534 80.1781C33.8801 79.2752 34.8018 78.8698 35.7235 78.4644H35.7419Z" fill="#D0D7C9"/>
<path d="M19.7234 40.043C20.2396 40.172 20.7373 40.2826 21.2534 40.4116C20.9769 40.7801 21.6589 41.4251 20.8663 41.6462C20.2211 41.812 19.4101 42.4386 18.9493 41.9042C18.3041 41.1302 19.3917 40.6695 19.7234 40.043Z" fill="#FDFDFD"/>
<path d="M13.659 80.7862C13.3641 80.0676 12.1475 80.2334 12.1475 79.2199C13.0876 79.2199 13.7696 78.6486 14.4885 78.1695H14.47C14.7834 78.8882 13.6405 79.6806 14.5991 80.4914C14.765 80.6388 14.0092 80.7678 13.659 80.7862Z" fill="#FDFDFD"/>
<path d="M35.9263 76.3268C36.0001 76.5479 36.5899 76.3268 36.3503 76.8059C36.0185 76.9902 35.8895 77.2482 36.0369 77.5983V77.5798C35.4102 77.414 34.1752 79.4779 34.1567 77.0823C34.8203 77.027 34.7466 75.258 35.8895 76.3268H35.9263Z" fill="#D0D7C9"/>
<path d="M17.2166 67.1867C17.8433 66.468 18.3963 66.0442 18.599 65.3255C18.6912 64.9754 19.0599 64.5147 19.5391 64.8648C19.9815 65.1965 19.5391 65.4729 19.3179 65.7309C18.8018 66.339 18.7834 67.5737 17.2166 67.2051V67.1867Z" fill="#D0D7C9"/>
<path d="M30.4885 83.1081C29.6405 83.5319 28.8664 83.2924 28.1475 82.7948C28.682 82.5921 29.235 82.3894 29.7696 82.1867C30.0645 82.0762 30.4147 81.6708 30.6912 82.0025C30.9309 82.3157 30.8387 82.7764 30.4885 83.1081Z" fill="#FDFDFD"/>
<path d="M54.9493 25.688C54.2304 26.0565 53.4562 26.1486 52.6636 26.1486C53.0322 24.8464 53.7941 24.6929 54.9493 25.688Z" fill="#FDFDFD"/>
<path d="M13.7143 71.0565C13.6037 72.07 14.9124 71.3698 15.0415 72.1622C14.2857 72.5123 13.2166 71.5356 12.7189 72.8624C12.129 71.5909 13.3272 71.5725 13.7327 71.0749L13.7143 71.0565Z" fill="#D0D7C9"/>
<path d="M11.7787 51.5786C11.8156 52.1314 12.1474 52.6658 11.6313 53.0897C11.4285 53.2555 11.1151 53.2371 11.0598 52.9607C10.9492 52.4447 10.8755 51.8735 11.7787 51.5786Z" fill="#D0D7C9"/>
<path d="M10.9862 45.4054C11.4839 45.9582 11.8342 46.4373 11.3365 47.0823C11.2627 47.1929 11.0231 47.1744 10.8756 47.2113C10.7466 46.64 10.3964 46.0504 10.9862 45.4054Z" fill="#D0D7C9"/>
<path d="M12.3503 30.3133C12.7742 30.2395 12.8295 30.6081 12.8848 30.8477C13.0139 31.382 12.4424 31.2715 12.2213 31.4373C11.7789 31.7506 11.7973 31.1793 11.7604 31.0135C11.6683 30.6081 12.166 30.5712 12.3503 30.3133Z" fill="#D0D7C9"/>
<path d="M15.152 36.9287C14.6543 37.5369 14.1198 36.9287 13.7327 37.371C13.5668 36.6155 13.9907 36.6339 14.3041 36.5786C14.599 36.5233 14.894 36.5602 15.152 36.9287Z" fill="#FDFDFD"/>
<path d="M39.576 37.6474C39.1336 38.0344 38.9493 38.6978 38.3041 38.8636C38.1198 37.8133 38.6912 37.5553 39.576 37.6474Z" fill="#FDFDFD"/>
<path d="M36.3502 15.3317C35.9631 14.2629 36.9585 14.5946 37.364 14.3366C37.1059 14.7604 37.0875 15.4054 36.3502 15.3317Z" fill="#FDFDFD"/>
<path d="M15.8157 37.7396C15.7235 38.0528 15.5208 38.1818 15.2074 38.1265C15.1521 38.1265 15.1152 37.9975 15.0599 37.9423C15.318 37.887 15.5761 37.8317 15.8341 37.7764L15.7973 37.7396H15.8157Z" fill="#FDFDFD"/>
<path d="M31.9078 46.4005C31.7235 46.64 33.0322 47.2113 31.7234 47.2113C31.7234 46.9349 31.3179 46.5479 31.9078 46.4005Z" fill="#FDFDFD"/>
<path d="M36.5345 16.769C36.5345 16.769 36.7004 16.8243 36.7926 16.8612C36.7189 16.9349 36.6451 17.027 36.5714 17.1007H36.6083C36.6083 16.9717 36.5714 16.8612 36.553 16.7322L36.5345 16.769Z" fill="#FDFDFD"/>
<path d="M14.4884 84.7113C14.0829 84.914 14.046 84.5823 13.917 84.3612C14.1751 84.3612 14.4884 84.3059 14.4884 84.7113Z" fill="#FDFDFD"/>
<path d="M56.9585 11.2224C56.9585 11.2224 56.8663 11.1486 56.8295 11.1118C56.8663 11.0749 56.9216 11.0012 56.9585 11.0012C56.9954 11.0012 57.0507 11.0749 57.0875 11.1118C57.0507 11.1486 56.9954 11.1855 56.9585 11.2408V11.2224Z" fill="#FDFDFD"/>
<path d="M33.3272 77.2481C33.3272 77.2481 33.4193 77.3219 33.4562 77.3587C33.4193 77.3956 33.3825 77.4693 33.3272 77.4693C33.2903 77.4693 33.235 77.414 33.1797 77.3771C33.2166 77.3403 33.2534 77.285 33.3087 77.2481H33.3272Z" fill="#D0D7C9"/>
<path d="M34.1935 77.0823C34.1935 77.0823 34.0645 77.0086 33.9907 76.9533C34.0276 76.9533 34.0645 76.9349 34.1013 76.9533C34.1382 76.9902 34.1751 77.027 34.1935 77.0639V77.0823Z" fill="#D0D7C9"/>
<path d="M14.4885 78.1695C14.4885 78.1695 14.5438 78.1143 14.5623 78.0958C14.5254 78.1143 14.4885 78.1327 14.4517 78.1511H14.4701L14.4885 78.1695Z" fill="#FDFDFD"/>
<path d="M31.6682 72.1806C31.5392 72.2174 31.4102 72.2727 31.2627 72.3096C31.2996 72.1806 31.3364 72.0516 31.3733 71.9226C31.4655 72.0147 31.5576 72.1069 31.6682 72.1806Z" fill="#FDFDFD"/>
<path d="M13.7327 71.0749C13.7327 71.0749 13.7695 71.0012 13.788 70.9644C13.7695 71.0012 13.7511 71.0381 13.7142 71.0749H13.7327Z" fill="#D0D7C9"/>
<path d="M70.9125 24.8403C70.9125 24.8403 70.8572 24.9324 70.8203 24.9693C70.8203 24.9693 70.765 24.9693 70.7281 24.9693C70.8019 24.9324 70.8756 24.8956 70.9309 24.8587L70.9125 24.8403Z" fill="#FDFDFD"/>
<path d="M67.8894 26.9779C67.8894 26.9779 68 27.0147 68.0369 27.0516C68.0553 27.0516 68.0369 27.1069 68.0553 27.1437C68 27.0884 67.9631 27.0147 67.9078 26.9594L67.8894 26.9779Z" fill="#FDFDFD"/>
<path d="M37.4746 39.6376C37.4746 39.6376 37.3456 39.7113 37.2719 39.7297C37.2719 39.6376 37.3087 39.527 37.3272 39.4349C37.3825 39.5086 37.4193 39.5823 37.4746 39.656V39.6376Z" fill="#FDFDFD"/>
<path d="M39.9078 37.2789C39.9447 37.5368 39.7419 37.6106 39.5576 37.6658C39.4286 37.2973 39.4839 37.113 39.9078 37.2789Z" fill="#FDFDFD"/>
<path d="M9.95396 24.011L9.82492 24.1032L9.67746 24.0663C9.64059 23.3292 8.29497 23.9005 8.57147 23.1449C8.90327 22.242 10.1014 22.7211 10.7097 22.0761C11.2074 23.1634 9.52999 23.1081 9.95396 24.011Z" fill="#D0D7C9"/>
<path d="M44.1106 88.1572C44.9217 88.0835 45.7327 88.231 46.5069 87.8993C46.6544 87.973 46.8018 88.0467 46.9677 88.102C46.0461 89.0971 45.0876 89.742 43.9447 88.3968C44 88.3231 44.0553 88.231 44.1106 88.1572Z" fill="#FDFDFD"/>
<path d="M58.3964 1.62161C58.1567 2.74569 57.3088 3.20638 57.4747 4.0909C57.3518 3.1081 57.659 2.285 58.3964 1.62161Z" fill="#D0D7C9"/>
<path d="M72.6451 31.1425C72.9216 31.1425 73.2166 31.1057 73.4931 31.1057C72.7373 31.8428 74.1198 31.8796 73.9539 32.4324C72.7189 32.801 72.682 31.9717 72.6451 31.1425Z" fill="#D0D7C9"/>
<path d="M34.2672 52.4816C34.2672 52.4816 34.0092 52.6659 33.917 52.6106C33.7327 52.5369 33.5668 52.3894 33.4562 52.2236C33.4193 52.1683 33.5852 51.8919 33.6958 51.855C34.0276 51.7629 34.0092 52.0946 34.2857 52.4816H34.2672Z" fill="#D0D7C9"/>
<path d="M38.9309 8.80834C38.6544 8.93734 38.4701 9.02947 38.2673 9.12161C37.9724 9.2506 37.8249 9.12161 37.9355 8.8452C38.0093 8.69778 38.0646 8.34765 38.3964 8.47665C38.5438 8.53193 38.6729 8.6425 38.9309 8.80834Z" fill="#FDFDFD"/>
<path d="M35.0784 55.7617C34.8572 55.7248 34.636 55.7064 34.4148 55.6695C34.507 55.5405 34.5807 55.3563 34.7097 55.2641C35.1153 54.9877 35.1153 55.4484 35.2627 55.6143C35.189 55.6511 35.1337 55.7064 35.06 55.7432L35.0784 55.7617Z" fill="#FDFDFD"/>
<path d="M43.9447 88.3968C43.6867 88.3047 43.2811 88.102 43.447 87.8808C43.6867 87.5491 43.9447 87.8808 44.1106 88.1572C44.0553 88.2309 44 88.3231 43.9447 88.3968Z" fill="#FDFDFD"/>
<path d="M39.6866 67.8686C39.6866 68.2003 39.4838 68.403 39.1889 68.4214C39.0783 68.4214 38.8755 68.274 38.8755 68.1634C38.8202 67.8133 39.0967 67.6843 39.3732 67.6106C39.4838 67.7027 39.576 67.7764 39.6866 67.8686Z" fill="#FDFDFD"/>
<path d="M46.507 87.8993C46.5807 87.5307 46.8572 87.3464 47.1337 87.5491C47.3365 87.6966 47.189 87.973 46.9494 88.102C46.8019 88.0283 46.6544 87.9545 46.4885 87.8993H46.507Z" fill="#FDFDFD"/>
<path d="M47.2996 84.6007C47.2996 84.7297 47.2996 84.8403 47.2996 84.9693C47.189 84.8955 47.0784 84.8034 46.9678 84.7297C47.0784 84.6928 47.189 84.656 47.2996 84.6007Z" fill="#FDFDFD"/>
<path d="M41.7327 72.328C41.5852 72.4386 41.4009 72.4939 41.3087 72.2912C41.2719 72.199 41.4378 72.0332 41.5115 71.9042C41.5852 72.0332 41.659 72.1806 41.7327 72.3096V72.328Z" fill="#FDFDFD"/>
<path d="M38.0645 66.3391C38.0276 66.6523 37.917 66.9288 37.5483 66.7076C37.2903 66.5602 37.4009 66.3575 37.6221 66.2101C37.7695 66.2469 37.917 66.3022 38.0645 66.3391Z" fill="#FDFDFD"/>
<path d="M37.6221 66.2285L37.8801 65.9705C37.9354 66.0995 37.9907 66.2285 38.0645 66.3575C37.917 66.3206 37.7695 66.2654 37.6221 66.2285Z" fill="#FDFDFD"/>
<path d="M52.2212 30.9951C52.2212 30.9951 52.2949 30.9029 52.3134 30.8661C52.3502 30.9398 52.424 30.9951 52.4424 31.0872C52.4424 31.1241 52.3871 31.1609 52.3502 31.2162C52.2949 31.1425 52.2581 31.0688 52.2028 31.0135L52.2212 30.9951Z" fill="#FDFDFD"/>
<path d="M66.3778 29.6499C66.3778 29.6499 66.3041 29.8157 66.2672 29.8894C66.2488 29.8341 66.2119 29.7604 66.1935 29.7052C66.2672 29.7052 66.3409 29.7052 66.4147 29.7052L66.3778 29.6683V29.6499Z" fill="#FDFDFD"/>
<path d="M36.5346 16.7506C36.5346 16.8796 36.5714 16.9902 36.5899 17.1192C36.5161 17.1192 36.424 17.1007 36.3502 17.0823C36.4055 16.9717 36.4793 16.8612 36.5346 16.7506Z" fill="#3F75BB"/>
<path d="M36.0552 77.6167C35.8893 77.2481 36.0184 76.9902 36.3686 76.8243C36.2764 77.1007 36.4423 77.4693 36.0552 77.6167Z" fill="#3F75BB"/>
</g>
<defs>
<clipPath id="clip0_82_387">
<rect width="80" height="90" fill="white"/>
</clipPath>
</defs>
</svg>
