<svg width="78" height="88" viewBox="0 0 78 88" fill="none" xmlns="http://www.w3.org/2000/svg">
<g clip-path="url('#clip0_85_683')">
<path d="M32.6103 12.2082C32.7535 10.3869 34.1854 9.5213 35.3667 8.51147C36.4763 7.55573 38.1946 7.5377 39.0358 6.07704C39.3758 5.49999 40.1992 5.60819 40.6108 5.64425C41.8995 5.73442 42.5796 4.92294 43.4566 4.29179C44.4052 3.62458 45.2285 2.56065 46.6425 2.99343C46.8036 3.04753 47.1078 2.84917 47.2331 2.68688C48.7545 0.847532 50.8843 1.11802 52.8889 0.973762C53.1037 0.973762 53.4438 0.973762 53.5153 0.865565C54.6071 -0.919681 56.4685 1.13606 57.6856 0.018024C58.5447 1.22622 59.5649 -0.613124 60.4598 0.234417C60.6746 0.793434 59.8692 0.613106 59.7797 1.00983C60.4598 1.31638 61.301 1.51475 61.8738 1.15409C62.9477 0.486876 63.771 1.04589 64.3258 1.64097C64.9164 2.27212 65.5608 2.36229 66.2767 2.52458C66.8136 2.65081 68.0307 2.01966 67.458 3.58852C67.3685 3.84098 68.3529 3.98524 68.8719 4.09343C69.5163 4.21966 69.6058 4.41802 69.2657 5.0672C69.0867 5.42786 69.1404 5.59016 69.4984 5.66229C71.3777 6.04098 72.0041 7.84425 72.6842 9.12458C73.5791 10.8197 74.6172 12.3705 75.7985 13.8492C76.0312 14.1377 76.246 14.4443 76.1207 14.8049C75.5121 16.3738 76.765 17.4557 77.1051 18.7902C77.2662 19.4033 77.463 20.0164 77.3019 20.6656C77.1588 21.2606 77.3377 21.6033 77.9821 21.6393L78.0179 21.982C77.0156 21.6754 76.9082 22.8115 76.8366 23.118C76.6039 23.9475 77.284 23.1902 77.4988 23.3344C77.6062 23.4065 77.7315 23.659 77.6957 23.7311C76.5502 25.3541 78.4116 27.1754 77.3556 28.7984C77.0335 29.3033 77.8031 29.4295 77.7852 29.9705C77.7673 31.1426 77.3377 32.1164 76.8545 33.1082C76.7292 33.3787 76.5502 33.6131 76.3712 33.8656C76.3712 33.8836 76.2639 33.8656 76.2102 33.8475C75.8701 33.8115 75.6374 34.0459 75.5121 34.2803C75.0289 35.2361 74.2414 36.0295 73.4897 35.777C71.8788 35.218 70.268 35.4705 68.6572 35.3262C67.8517 35.2541 66.8673 35.3443 66.6347 34.1541C66.5452 33.7213 66.0619 33.8295 65.7398 33.8656C64.2184 34.0279 64.111 33.9918 62.9835 32.3328C62.9119 32.2246 62.6613 32.1164 62.5897 32.1525C61.1578 32.982 60.2271 31.5393 59.028 31.3049C58.5268 31.1967 57.1487 31.5574 57.5961 30.0787C57.5961 30.0787 57.2919 29.8623 57.1666 29.9164C55.2694 30.6016 53.1932 30.1869 51.2602 30.8541C50.3474 31.1787 50.5801 32.0984 50.0968 32.2967C48.0385 33.1443 46.9288 34.8213 45.855 36.6246C45.6044 37.0393 45.0853 37.3459 44.5126 37.0213C43.7609 36.4443 43.0986 37.0754 42.3827 37.1656C42.4185 37.4361 42.3469 37.7607 42.7228 37.8688C42.8123 37.9229 42.687 38.2295 42.9555 38.0852C42.8839 38.0131 42.7944 37.941 42.7228 37.8869C43.1702 37.3639 43.6535 36.9492 44.3694 37.418C43.9936 39.7082 41.9353 40.4475 40.4139 41.6197C38.9642 42.7377 37.7829 44.0721 36.7985 45.5869C36.5121 46.0197 36.7269 46.777 35.7783 46.0377C35.2414 45.6229 35.2235 46.7049 35.3309 46.9574C35.7783 48.0213 35.3846 48.9229 34.8297 49.6984C34.1317 50.6902 35.1519 51.6098 34.7223 52.7279C34.436 53.4672 33.9885 54.5672 34.3286 55.7393C34.7402 57.1639 35.5993 58.6246 35.0803 60.2295C36.3332 60.6082 36.4226 61.7803 36.7448 62.7541C37.5502 65.1164 39.3937 66.9016 40.2886 69.1918C40.396 69.4803 40.7898 69.8951 40.396 70.2918C40.1813 70.5262 39.8054 70.8508 40.2528 71.0672C40.754 71.3197 40.7003 70.7967 40.7361 70.4902C41.3625 70.382 41.3983 70.8328 41.3625 71.2475C41.3088 72.1492 41.7921 72.8164 42.2753 73.4475C43.2418 74.6738 43.4566 76.2426 44.2441 77.541C44.4768 77.9197 44.7811 78.3344 44.1188 78.6049C44.2799 78.9115 43.6535 79.5967 44.7095 79.5426C45.5686 79.5066 45.3001 80.6246 45.5686 81.1656C46.0876 82.2115 45.9802 83.4557 46.7499 84.5377C47.2331 85.241 46.553 86.1787 45.8908 86.7918C44.4947 88.0721 42.4543 88 41.1299 86.5574C40.8614 86.2689 40.5392 86.2508 40.4139 86.377C39.1074 87.7115 38.2483 86.2328 37.2281 85.8902C37.0849 85.8541 36.888 85.6377 36.8522 85.6738C35.5098 86.9902 33.9169 84.8984 32.5567 86.0344C32.4851 86.0885 32.324 86.0705 32.2345 86.0344C30.4984 85.3852 29.6572 85.4033 27.8673 85.9262C26.6503 86.2689 25.3616 86.6475 24.1266 86.6295C23.4286 86.6295 23.1422 86.8098 22.7127 87.2066C21.5135 88.3246 19.8669 87.4049 18.5245 88.018C18.4887 88.018 18.2024 87.6934 18.1666 87.5131C18.0055 86.4131 17.8444 85.3131 17.7728 84.2131C17.737 83.6361 18.095 83.5459 18.5782 83.7623C19.0794 83.9607 19.7416 83.7443 19.8848 84.7361C19.9743 85.3492 20.6365 85.818 21.5314 85.0426C22.5516 84.159 23.0349 82.9508 23.8761 81.977C25.0215 82.3918 25.3974 80.9852 26.3281 80.9131C26.5787 81.0393 27.0261 81.1475 27.044 81.2918C27.2051 82.9508 28.5833 83.3836 29.7109 84.0328C31.5007 85.0787 31.9839 83.3475 32.8251 82.4279C33.1294 82.0852 33.1473 82.0672 33.6484 82.3918C34.6507 83.059 35.6172 84.4115 37.1386 83.4197C37.2102 83.7623 37.0133 83.8344 36.8522 83.8164C36.5121 83.7984 35.9931 83.3295 35.9394 83.9967C35.9036 84.4656 36.4226 84.6459 36.9238 84.5918C37.3355 84.5377 37.5681 84.3934 37.7829 83.9607C38.123 83.2393 38.6241 82.6262 39.0716 81.959C40.2886 82.1574 40.575 81.6525 40.0918 80.0295C39.3937 77.7033 38.2483 75.5754 37.2102 73.3934C37.5681 72.582 37.3712 71.5541 36.8164 71.2475C35.9752 70.7787 36.1363 70.2016 36.2079 69.6246C36.5658 66.3787 35.3309 66.3967 32.9683 66.018C32.4135 64.7557 31.5544 63.6197 31.8049 62.0869C31.8407 61.8164 31.966 61.0049 31.1964 60.9147C31.4649 59.7246 31.7512 58.5344 32.1271 57.3984C32.6461 55.8295 32.2345 54.1705 32.9683 52.5836C33.4337 51.5738 34.436 50.5098 34.0064 49.2656C33.6663 48.2918 33.7737 47.3721 33.8632 46.4344C33.9527 45.5147 34.5076 44.4328 32.7356 44.559C31.9481 44.6131 32.4851 43.7115 32.2345 43.3148C32.6461 42.4672 34.9729 42.8279 33.72 40.9164C33.6484 40.8082 33.8632 40.5197 33.9527 40.3033C34.4181 40.3033 34.6328 39.9246 34.9192 39.6541C35.4204 39.1492 36.2258 39.4016 36.7269 38.7885C38.0514 37.1656 39.877 36.0836 41.3267 34.6049C41.8995 34.0279 42.3827 33.8475 43.1702 34.4426C42.5438 33.4328 42.687 32.982 43.4924 32.1525C44.6379 30.9984 46.3382 30.1869 46.6246 28.3115H46.5709C46.9646 28.1672 47.3584 27.9869 47.7522 27.8246C47.9669 27.8967 48.1459 27.8606 48.2175 27.6082C48.3786 27.4459 48.6292 27.3557 48.5576 27.0492V27.0852C49.3809 26.6705 50.4906 26.5803 51.117 26.1295C52.7099 24.9393 53.9986 25.1557 55.3768 26.2738C55.6631 26.7065 55.9674 27.1213 56.218 27.5721C56.6117 28.3115 56.4685 28.1311 57.2203 27.6443C57.9362 27.1754 59.0459 26.8508 59.7976 27.0672C60.3524 27.2295 59.6902 27.8246 59.1891 28.0049C59.1354 28.0229 59.0996 28.1311 59.0638 28.2033C60.5851 27.8967 59.8513 29.5197 60.5672 29.9705C62.6434 31.2688 62.8761 31.2508 64.5764 29.159C65.7756 29.6098 67.2074 29.0869 68.2992 30.0246C68.6214 30.818 68.7645 32.0984 69.5163 32.2066C70.8765 32.3869 72.3621 32.5672 73.4181 30.9262C74.134 29.8262 74.7604 28.6721 75.4763 27.5721C76.0133 26.7426 76.1207 26.7065 75.3332 26.3639C75.0647 26.2557 74.9573 26.0574 74.9752 25.9492C75.3153 24.2541 73.8834 24.5967 73.0601 24.2361C72.6126 24.0738 74.8499 23.5328 72.9706 23.5508C72.6484 23.5508 72.899 23.1902 72.8453 23.0098C72.8453 22.7393 72.8453 22.4508 72.8453 22.1803C72.9169 22.1082 73.078 22 73.078 21.982C72.1115 19.9803 73.2033 17.2393 70.8944 15.6885C70.7154 15.5623 70.6617 15.1656 70.6617 14.8951C70.6975 13.5606 70.0353 12.6951 68.9614 12.0459C68.9793 11.9197 68.9614 11.8295 68.8719 11.7393C69.1046 10.9279 68.1381 11.3065 67.977 10.8016C67.637 9.66557 67.0821 8.6377 66.0977 7.93442C65.9724 7.86229 65.8472 7.79016 65.7219 7.71803C64.988 7.06884 64.2363 6.40163 63.1266 6.70819C63.8068 5.98688 62.9119 5.35573 62.9298 4.63442C62.9298 4.1295 63.4309 2.90327 62.0527 2.9213C61.1757 2.9213 59.8871 2.07376 60.0124 4.03934C60.0303 4.41802 59.5112 4.38196 59.2427 4.52622C58.7416 4.81475 57.9183 4.41802 57.6856 5.26557C56.8444 5.30163 55.9495 5.1754 55.1441 5.26557C53.1932 5.48196 51.117 5.44589 49.4525 6.81639H49.4883C49.0229 6.81639 48.5934 7.08688 48.0743 6.87048C47.5016 6.65409 47.8953 7.15901 47.8058 7.3213C47.6985 7.3213 47.609 7.33934 47.5374 7.41147C47.2152 7.19507 47.0899 6.49179 46.6425 6.72622C46.2845 6.92458 46.7141 7.4295 46.7499 7.80819C44.8527 8.79999 42.6333 9.19671 41.0762 10.8197C40.2349 10.6213 39.6264 10.8738 39.2863 11.7033C38.8568 11.8836 37.765 11.3246 38.3019 12.5869C37.6218 12.8574 37.5681 13.8311 36.6195 13.9033C35.3488 14.0115 34.7044 14.8951 34.2749 16.1393C33.9348 17.1131 33.2547 18.0869 32.4493 18.718C31.268 19.6738 30.6953 21.0082 29.8361 22.1623C29.2634 22.9197 29.8361 24.2902 29.0128 24.7951C27.8852 25.4803 27.7063 26.4361 27.5989 27.5361C26.2386 26.2377 26.525 28.4377 25.7196 28.3475C26.3997 28.5098 26.8651 27.6443 27.581 28.0229C26.6503 29.6098 25.6838 31.1787 26.0059 33.1623C25.827 33.4328 25.6659 33.7033 25.4869 33.9738C24.9142 34.9656 23.8582 35.7049 24.0729 37.0754C23.8761 37.1656 23.5718 37.2197 23.4823 37.3639C22.9096 38.518 21.9252 37.6885 21.1914 37.7787C20.3859 37.8688 20.6365 36.7869 20.6723 36.4623C20.7797 35.0918 20.3322 34.5147 18.9899 34.118C18.2561 33.9016 17.8086 33.7393 17.2359 34.5328C17.3254 33.7754 17.8444 33.2164 17.2359 32.6934C18.5782 32.1344 17.2001 31.2328 17.5222 30.5295C18.2024 29.9525 18.4708 31.1787 19.4194 30.8541C18.1308 30.4574 19.7058 28.4738 17.7191 28.6721C17.5938 27.482 19.2226 26.0574 17.2359 25.1377C16.86 23.9475 17.6833 22.4147 15.8219 21.6033C14.8017 21.1525 14.2111 20.6656 13.2804 21.6033C12.9761 21.9098 12.3139 21.8557 11.8306 22C10.882 22.2705 9.95133 22.5951 9.53968 23.6229C8.26891 23.4066 7.15923 24.1639 5.96005 24.3984C5.38731 24.5065 4.13444 25.3361 4.20604 26.5984C3.79438 27.8246 3.38272 29.0508 3.41852 30.3852C3.45432 31.7016 4.08075 33.1262 5.17254 33.2705C6.33591 33.4328 6.85496 33.9738 7.4456 34.7131C7.14133 34.9115 6.72967 35.0016 7.08763 35.5787C7.28451 35.8672 7.33821 36.4443 7.17712 36.7328C6.62228 37.6525 6.83706 37.5623 7.10553 38.5C7.374 39.4377 8.71636 40.2672 7.76776 41.3852C7.28451 41.9623 7.08763 42.1607 7.67827 42.8279C9.25331 44.6311 8.28681 46.7951 8.3763 48.8328C8.44789 50.2754 7.67827 49.3016 7.33821 49.482L7.06974 48.977C6.89075 49.2295 6.98024 49.4639 7.10553 49.6984C8.64477 50.9246 9.55757 52.4393 9.2712 54.5131C9.25331 54.6574 9.52178 54.8377 9.64706 55C9.41439 55.8475 8.3405 56.8934 10.6852 57.4525C8.23311 57.4885 9.41439 58.8229 9.46808 59.5803C9.57547 61.582 9.82604 63.5836 10.1661 65.5672C10.4167 67.0279 11.1147 68.3984 10.7746 69.9492C10.5957 70.7787 11.0073 71.1033 11.8127 70.7066C11.8485 70.6885 11.8485 70.5984 11.8664 70.5443C11.8127 70.5443 11.759 70.5082 11.1505 70.2918C12.6897 72.4016 10.1661 74.8 12.5466 76.5131C12.6718 76.6033 12.7613 76.8377 12.7434 76.9639C12.4034 78.4066 13.3162 79.6688 13.352 80.9492C13.3878 81.9229 13.4057 82.5721 14.1932 83.1311C13.2625 84.4475 13.9784 86.0705 13.3878 87.441H13.4415C12.2423 88.0361 11.5622 86.8279 10.5957 86.5754C9.41439 86.2869 9.23541 85.4574 9.14592 84.141C9.03853 82.5902 9.2712 80.8049 8.10783 79.3623C7.58878 78.7131 7.28451 77.6672 7.91095 76.8197C8.60897 75.8459 7.4098 75.2688 7.53509 74.4393C7.78566 73.9885 8.14362 75.1246 8.3942 74.3852C8.50158 74.0607 8.75216 73.6639 8.50158 73.4115C8.08993 73.0328 8.00044 73.6459 7.74986 73.7721C7.60668 73.8443 7.35611 73.682 7.14133 73.6459C7.57088 72.582 7.3919 71.518 7.23082 70.4C6.81916 67.641 6.99814 64.7197 6.19273 62.1049C5.35152 59.3459 5.81687 56.4066 4.5998 53.7557C4.17024 52.818 4.5998 51.6459 4.63559 50.618C4.76088 47.7869 3.15005 45.2623 3.43642 42.4131C3.50801 41.7098 3.36482 41.3492 4.24183 41.4033C4.40292 41.4033 4.61769 40.7541 4.88617 40.2492C2.97107 41.0066 2.95317 39.9066 2.84578 38.5721C2.6668 36.5705 1.93298 34.659 2.11196 32.5672C2.30884 30.3311 2.00457 28.077 0.733802 26.0393C-0.429576 24.182 0.0178771 22.9377 1.7003 21.3688C3.6333 19.5656 6.08534 18.4836 8.42999 18.9344C10.2198 19.2951 11.7411 18.0869 12.9045 18.5016C15.2134 19.3492 17.9518 19.0246 19.8848 20.9541C21.1735 22.2525 21.9789 23.8033 22.4084 25.5525C22.4979 25.9131 22.1936 25.859 22.0326 25.9672C21.9073 25.5885 21.9431 25.0295 21.2808 25.1377C21.1377 25.1377 20.9229 25.0475 20.8871 25.1016C20.7618 25.3 20.8334 25.4803 21.0303 25.6246C21.2629 25.877 21.245 26.4541 21.8357 26.2377C22.301 26.6164 21.4419 27.5721 22.2831 27.6082C22.7485 27.6082 23.2138 26.941 23.2138 26.3098C23.2138 25.7328 23.6971 25.6426 24.0193 25.5344C24.4488 25.3902 24.8963 25.1918 24.7352 24.777C24.4488 24.0197 23.9656 24.8311 23.3749 24.777C23.8045 23.8754 23.6613 22.7213 24.95 22.541C25.3616 22.4869 25.3616 22.2525 25.4153 21.9639C25.6659 20.1967 25.7912 19.9984 27.4199 18.5197C27.4915 18.4475 27.6347 18.3393 27.6168 18.2852C27.0619 16.1754 29.854 15.941 29.9077 14.0115C29.9256 13.0918 30.8921 14.4984 31.4112 13.9754C32.0197 13.9574 32.7356 13.2541 33.2189 14.2279C33.3084 14.4082 33.4158 14.5885 33.5053 14.7688C33.5411 14.6606 33.5947 14.5705 33.5947 14.4623C33.5768 14.2098 33.4695 14.0475 33.201 14.2639C33.201 12.9475 31.6975 13.8311 31.3575 13.0016C31.089 11.577 32.5925 12.8934 32.7356 12.1C32.4135 12.641 32.9504 12.6229 33.1831 12.7131C33.3621 12.7852 33.4158 12.5508 33.38 12.3885C33.2905 11.9377 32.9325 12.1902 32.6998 12.1541L32.6103 12.2082ZM68.1381 33.5951C68.1381 33.5951 67.977 33.4508 67.8875 33.3967C67.8875 33.541 67.9054 33.6852 67.9233 33.8295C68.4245 34.3525 68.7466 35.1459 69.6774 34.9656C69.7489 34.9656 69.8742 34.641 69.8205 34.5328C69.4984 33.7934 68.7467 33.8115 68.1202 33.577L68.1381 33.5951ZM8.44789 68.6689C8.08993 69.5885 7.62458 70.0033 7.96464 70.6164C8.23311 70.1115 8.91324 70.7607 9.14592 70.2197C9.43229 69.5705 8.62687 69.4803 8.44789 68.6508V68.6689ZM42.2932 86.0164C43.8504 87.4951 44.3873 87.4951 45.3717 86.1787C44.3694 86.2869 43.4208 86.359 42.2932 86.0164ZM73.7044 13.6147C74.0624 13.6147 74.2056 13.3623 74.2056 13.0557C74.2056 12.8393 74.0803 12.641 74.0087 12.4246C73.9729 12.8213 73.5433 12.8754 73.4002 13.1279C73.2749 13.3623 73.5075 13.5066 73.7223 13.6147H73.7044ZM72.8453 15.1115C72.9348 14.6787 72.9706 14.2639 72.2189 14.2098C72.4516 14.5525 72.6484 14.8229 72.8453 15.1115ZM37.246 64.918C37.0312 64.5574 36.8701 64.2148 36.4942 64.2869C35.9573 64.3951 36.6016 64.6656 36.4584 64.882C36.2258 65.2066 36.53 65.459 36.7448 65.441C36.9417 65.4229 37.0849 65.0984 37.246 64.9V64.918ZM3.6154 36.6066C3.38272 36.9852 2.59521 37.0213 3.02476 37.6705C3.15005 37.8508 3.47221 38.2475 3.68699 38.0131C4.09865 37.5984 3.77648 37.0934 3.5975 36.6066H3.6154ZM29.3529 84.159C29.2455 84.2672 29.1023 84.3574 29.0307 84.5016C28.8696 84.8082 29.2097 84.8984 29.335 84.9885C29.6751 85.1689 29.6393 84.8803 29.6214 84.682C29.6035 84.5016 29.6751 84.2311 29.3529 84.177V84.159ZM8.69846 72.4557C8.64477 72.3656 8.60897 72.2754 8.55528 72.1852C8.51948 72.2754 8.42999 72.3656 8.44789 72.4377C8.46579 72.5639 8.57318 72.6541 8.62687 72.7623C8.64477 72.6721 8.68057 72.5639 8.69846 72.4738V72.4557ZM35.5277 61.8525C35.5277 61.8525 35.3488 61.7443 35.2593 61.7984C35.0803 61.8885 34.7581 61.9066 34.8476 62.2492C34.8834 62.3754 35.0445 62.5738 35.134 62.5557C35.3667 62.5377 35.5456 62.3754 35.5098 61.8705L35.5277 61.8525ZM34.6328 84.123C34.7581 84.0689 34.8655 84.0328 34.955 83.9787C34.8297 83.9426 34.7044 83.8705 34.5791 83.8525C34.4897 83.8525 34.4002 83.9246 34.3107 83.9607C34.436 84.0148 34.5433 84.0688 34.6507 84.1049L34.6328 84.123ZM45.6939 86.0164C45.855 85.8541 45.9802 85.7639 46.0697 85.6377C46.0697 85.6197 45.9265 85.4213 45.8729 85.4213C45.7297 85.4574 45.6044 85.5656 45.4791 85.6377C45.5507 85.7459 45.6044 85.8541 45.7118 86.0164H45.6939ZM25.0036 24.3082C25.0036 24.3082 25.0752 24.218 25.111 24.1639C25.0215 24.1279 24.95 24.0918 24.8605 24.0738C24.8247 24.0738 24.7889 24.1459 24.7531 24.2C24.8247 24.2361 24.9142 24.2721 24.9858 24.2902L25.0036 24.3082ZM77.0872 24.0557C77.0872 24.0557 76.9977 23.9295 76.9619 23.8754C76.9261 23.9115 76.8724 23.9656 76.8724 23.9836C76.8903 24.0557 76.944 24.1098 76.9977 24.182C77.0335 24.1459 77.0514 24.1098 77.0872 24.0557Z" fill="#25201D"></path>
<path d="M48.1996 27.6082C48.128 27.8607 47.949 27.8967 47.7342 27.8246C46.9288 27.0492 46.7677 27.7344 46.553 28.3475L46.6067 28.3295C46.0339 28.4197 45.318 28.7803 44.9421 28.5459C43.0628 27.4279 42.9017 29.0328 42.2932 30.0426C42.0784 30.4033 42.0068 30.782 41.8279 31.1246C41.094 32.6033 40.0559 34.2082 38.3198 33.9377C36.1363 33.6131 36.0826 34.9295 35.9036 36.2639C35.7604 37.2738 35.8141 38.3197 34.776 38.9328C34.078 39.1131 33.8811 39.6361 33.899 40.2852C32.3598 40.7361 31.9302 41.818 32.1987 43.2967C32.4671 43.6934 31.9302 44.5951 32.6998 44.541C34.4717 44.4148 33.899 45.4967 33.8274 46.4164C33.7379 47.3541 33.6305 48.2738 33.9706 49.2475C34.4001 50.4918 33.3978 51.5557 32.9325 52.5656C32.1987 54.1525 32.5924 55.7934 32.0913 57.3803C31.7154 58.5164 31.4291 59.7066 31.1606 60.8967C30.0867 61.9426 30.4268 63.0066 31.1069 64.1066C31.3933 64.5754 31.8765 64.9902 31.8407 65.6213C31.7512 67.1361 32.5387 65.982 32.9325 66C35.295 66.3787 36.5479 66.3607 36.1721 69.6066C36.1005 70.1836 35.9394 70.7607 36.7806 71.2295C37.3354 71.5361 37.5323 72.5639 37.1743 73.3754C36.4942 73.9885 35.9394 74.5475 36.8701 75.4672C37.4607 76.0443 37.3712 77.1262 37.1207 77.559C36.6732 78.3705 37.0133 78.6049 37.3712 79.2C37.9082 80.1197 39.3579 80.5164 39.0358 81.941C38.6062 82.6082 38.0872 83.2393 37.7471 83.9426C37.5502 84.3754 37.2996 84.5197 36.888 84.5738C36.4047 84.6279 35.8678 84.4475 35.9036 83.9787C35.9573 83.3115 36.4763 83.7623 36.8164 83.7984C36.9596 83.7984 37.1743 83.7262 37.1028 83.4016C35.5814 84.3934 34.6328 83.059 33.6126 82.3738C33.1294 82.0492 33.0936 82.0672 32.7893 82.4098C31.9481 83.3475 31.4648 85.0607 29.675 84.0148C28.5475 83.3656 27.1693 82.9328 27.0082 81.2738C27.0082 81.1295 26.5429 81.0213 26.2923 80.8951C24.4488 81.0033 25.1647 79.1279 24.2877 78.2443C23.8402 79.5246 23.0706 80.6246 23.8402 81.941C22.999 82.9147 22.5158 84.1229 21.4956 85.0066C20.6007 85.782 19.9206 85.3131 19.849 84.7C19.7058 83.7082 19.0615 83.9246 18.5424 83.7262C17.9697 83.2393 18.7572 82.3016 17.9518 81.8869C16.4483 83.9607 15.6787 84.2131 14.1395 83.1852C13.3699 82.6262 13.3341 81.977 13.2983 81.0033C13.2625 79.7049 12.3676 78.4426 12.6897 77.018C12.7255 76.8918 12.6181 76.6393 12.4928 76.5672C10.1124 74.8361 12.636 72.4377 11.0968 70.3459C11.7232 70.5623 11.7769 70.5803 11.8127 70.5984C11.7948 70.6525 11.7948 70.7426 11.759 70.7607C10.9536 71.1574 10.5419 70.8328 10.7209 70.0033C11.0431 68.4525 10.3451 67.082 10.1124 65.6213C9.77233 63.6377 9.53965 61.6361 9.41437 59.6344C9.37857 58.877 8.1794 57.5426 10.6314 57.5066C8.30468 56.9475 9.36067 55.9016 9.59335 55.0541C10.0229 54.1164 9.96921 53.0705 10.2377 52.0967C10.4525 51.3213 10.8641 49.7885 10.3093 49.482C9.0922 48.7967 9.66494 47.9492 9.62914 47.1377C9.55755 45.9115 9.80812 44.5951 9.43226 43.477C8.57315 40.9344 7.66035 38.5 9.64704 35.6508C8.1615 36.4623 7.66035 35.8131 7.37398 34.7672C6.78334 34.0279 6.2643 33.4869 5.10092 33.3246C4.00913 33.1623 3.4006 31.7557 3.3469 30.4393C3.31111 29.1049 3.72276 27.8787 4.13442 26.6525C4.59977 26.5443 5.02933 27.1754 5.54837 26.6525C6.37169 25.7869 7.40978 25.8951 8.37627 26.3639C9.0743 26.7066 9.32488 26.3639 9.46806 25.8229C9.62914 25.1197 10.0408 24.3984 9.46806 23.6951C9.89762 22.6672 10.8104 22.3246 11.759 22.0721C12.2423 21.9279 12.9045 22 13.2088 21.6754C14.1395 20.7197 14.7301 21.2246 15.7503 21.6754C17.6117 22.4869 16.7884 24.0197 17.1643 25.2098C17.039 25.7508 16.3767 25.9492 16.502 26.7066C16.8063 28.7082 16.9495 30.7459 17.1643 32.7656C17.7907 33.2705 17.2537 33.8475 17.1643 34.6049C17.7549 33.8295 18.1844 33.9918 18.9183 34.1902C20.2606 34.5688 20.726 35.1639 20.6007 36.5344C20.5828 36.859 20.3143 37.941 21.1197 37.8508C21.8715 37.7607 22.838 38.5902 23.4107 37.4361C23.4823 37.2738 23.7866 37.2377 24.0013 37.1475C24.6099 37.5082 24.8425 38.1393 25.0394 38.6803C26.6145 37.2738 25.4511 35.6147 25.4153 34.0459C25.5943 33.7754 25.7553 33.5049 25.9343 33.2344C26.9008 32.5672 27.581 31.5574 27.8315 30.5295C28.2611 28.6902 28.7443 29.682 29.3708 30.2951C29.6392 29.7 30.4447 28.7262 29.7824 28.4557C29.0128 28.1311 29.2992 27.7525 29.3708 27.4639C29.4961 27.0311 29.8719 26.6705 30.4089 26.7246C30.6236 26.7426 31.1248 27.0311 31.0174 26.7967C30.4447 25.6967 31.7333 25.1016 31.5722 24.1639C31.6259 24.1098 31.6617 24.0377 31.7154 23.9836C32.3061 23.641 33.0578 23.3344 32.1987 22.541C31.8228 22.1803 32.0376 21.7475 32.1987 21.6574C33.3084 21.0082 33.5589 19.7459 34.1138 18.7721C34.7939 17.6 35.8499 16.7525 36.3868 15.4721C36.8343 14.4082 36.9417 15.7246 37.3712 15.7607C37.4786 14.5344 37.765 13.3984 39.1431 12.9115C39.9307 12.641 38.8389 12.1541 39.1789 11.7754C39.519 10.9459 40.1275 10.6934 40.9687 10.8918C41.8458 11.4328 43.1344 11.2164 43.564 12.5869C43.6893 12.9656 44.5305 12.8213 44.7631 12.4426C45.6402 11.0361 47.0183 9.80983 46.6425 7.88032C47.072 8.07868 47.2152 7.7 47.43 7.4836C47.5016 7.41147 47.5911 7.39344 47.6984 7.39344C48.2891 7.30327 48.9155 7.37541 49.3809 6.87049H49.3451C50.2758 7.03278 50.3474 8.6377 51.2602 8.36721C52.6204 7.95245 54.0165 8.27705 55.2872 7.93442C56.4327 7.60983 57.4529 6.74426 57.5782 5.30164C57.793 4.45409 58.6163 4.85082 59.1353 4.56229C59.4038 4.4 59.9408 4.43606 59.905 4.07541C59.7618 2.12786 61.0683 2.97541 61.9453 2.95737C63.3235 2.93934 62.8402 4.16557 62.8224 4.67049C62.8045 5.3918 63.6994 6.00491 63.0192 6.74426C62.9297 7.28524 62.8403 7.82623 62.6792 8.81803C63.6457 7.66393 64.7375 8.20491 65.6145 7.77213C65.7397 7.84426 65.865 7.91639 65.9903 7.98852C66.044 8.8 64.9343 8.36721 64.8448 9.08852C64.5764 11.5229 64.9164 11.9197 67.4043 11.8656C67.8696 11.8656 68.3171 11.8115 68.7824 11.7934C68.8719 11.8836 68.9077 11.9738 68.8719 12.1C68.6392 13.5607 69.4089 15.1836 68.1381 16.4639C67.1179 16.8787 67.279 17.6721 67.619 18.3934C67.977 19.1688 68.4245 18.6639 68.8182 18.3393C69.3015 18.6279 68.9435 19.6377 69.7489 19.5836C71.664 19.4574 72.201 20.8459 72.7737 22.2164C72.7737 22.4869 72.7737 22.7754 72.7737 23.0459C71.9862 23.2803 72.2726 22.0541 71.5208 22.1262C71.3419 22.8836 72.0936 23.6951 71.1987 24.4705L73.0064 24.2721C73.8297 24.6328 75.2615 24.2721 74.9215 25.9852C74.9036 26.0934 75.011 26.2738 75.2794 26.4C76.067 26.7426 75.9775 26.7607 75.4226 27.6082C74.7067 28.7082 74.0803 29.8623 73.3643 30.9623C72.3084 32.6033 70.8228 32.4229 69.4626 32.2426C68.7108 32.1525 68.5856 30.8541 68.2455 30.0607C68.514 28.041 66.6168 28.7082 65.7755 28.1311C64.8985 27.5361 64.9164 28.7623 64.5227 29.177C62.8224 31.2688 62.5897 31.2869 60.5135 29.9885C59.7976 29.5377 60.5135 27.8967 59.0101 28.2213C59.0459 28.1492 59.0816 28.059 59.1353 28.0229C59.6186 27.8426 60.2987 27.2475 59.7439 27.0852C58.9922 26.8508 57.8825 27.1934 57.1665 27.6623C56.4148 28.1492 56.558 28.3295 56.1642 27.5902C55.9137 27.1393 55.6094 26.7246 55.323 26.2918C55.2693 24.2 56.2537 22.3066 56.6296 20.3049C56.9518 18.6098 56.7549 17.2213 56.039 15.7426C55.7168 16.518 55.2335 17.4016 55.4662 18.0508C56.0569 19.7279 55.2693 21.6213 53.4437 22.0361C53.05 22.1262 52.9963 22.2525 52.9784 22.541C52.9426 23.8213 51.7434 24.7229 50.6874 24.1098C50.1505 23.8033 49.9536 23.9836 49.524 24.1459C47.9311 24.741 48.8797 26.1475 48.5039 27.1033V27.0672C48.1459 27.1033 48.1638 27.3738 48.1638 27.6262L48.1996 27.6082ZM35.4203 79.5607C36.5121 78.8934 35.8141 78.2262 35.3845 77.0361C35.1877 78.1721 35.6172 78.8393 35.295 79.4525C35.2592 79.5607 35.2235 79.6869 35.1877 79.7951C35.2592 79.7229 35.3487 79.6328 35.4203 79.5607ZM14.3363 47.0295C14.1574 46.8492 14.2111 46.4525 13.8173 46.4705C13.7815 46.4705 13.7099 46.5607 13.7099 46.5967C13.7636 46.9754 14.1216 46.8852 14.3363 47.0115C14.5153 47.6967 14.2827 48.7246 15.7861 48.418C15.1418 47.9852 15.0523 47.2279 14.3185 47.0295H14.3363ZM27.0798 42.0705H27.0977C27.044 41.1869 28.1179 40.3393 27.0261 39.1492C26.5787 40.4475 26.1491 41.6016 25.809 42.7918C25.7553 42.9361 26.1133 43.3869 26.3102 43.4049C26.9187 43.477 27.0082 42.5393 27.6525 42.5934C27.6346 42.2328 27.3662 42.1426 27.0798 42.0705ZM18.5782 64.4131C19.0972 62.8262 18.9004 60.3377 18.1307 59.3279C18.0413 59.2197 17.8265 59.1115 17.7012 59.1475C17.4327 59.2197 17.0211 59.4541 17.1464 59.7066C17.9518 61.1672 18.1307 62.7902 18.4171 64.377C18.4171 64.3951 18.5245 64.4131 18.5782 64.4131ZM27.4736 36.318C27.4736 35.3803 28.9949 34.8754 28.2432 33.6852C27.7301 34.2503 27.4736 35.1279 27.4736 36.318ZM30.5878 78.3344C30.5878 78.1902 31.268 77.9738 30.6236 77.9197C30.1404 77.8656 29.9256 78.4787 29.9077 78.9295C29.9077 79.5066 30.4626 79.2902 30.6594 79.2361C31.8944 78.8393 30.0509 78.7131 30.5878 78.3344ZM70.8586 24.9934C70.8586 24.9934 70.787 25.0656 70.7691 25.1016C70.8049 25.1377 70.8407 25.1918 70.8765 25.1918C70.9123 25.1918 70.9481 25.1197 70.966 25.0836C70.9302 25.0475 70.8944 25.0295 70.8586 24.9934Z" fill="#F5CC43"></path>
<path d="M44.3516 37.418C43.6356 36.9492 43.1524 37.3639 42.7049 37.8869C42.3291 37.7607 42.4186 37.4361 42.3649 37.1656C43.0629 37.0574 43.743 36.4443 44.4947 37.0213C44.5663 37.1115 44.6379 37.2016 44.7095 37.2738C44.5842 37.3098 44.4589 37.3639 44.3337 37.418H44.3516Z" fill="#6EBD6C"></path>
<path d="M33.1294 14.3C32.6461 13.3262 31.9302 14.0295 31.3216 14.0475C31.3216 13.7229 31.2858 13.3984 31.2679 13.0738C31.608 13.9033 33.1115 13.0197 33.1115 14.3361V14.3H33.1294Z" fill="#D0D7C9"></path>
<path d="M7.0697 73.7C7.26658 73.7541 7.51715 73.8984 7.67824 73.8262C7.92881 73.7 8.0362 73.0869 8.42996 73.4656C8.68053 73.7 8.42996 74.1148 8.32257 74.4393C8.072 75.1787 7.71403 74.0426 7.46346 74.4934C7.0518 74.3672 7.0876 74.0066 7.0697 73.682V73.7Z" fill="#D0D7C9"></path>
<path d="M13.3341 87.5131C13.3341 87.6213 13.3341 87.7475 13.3341 87.8557C13.2804 87.8557 13.2446 87.8197 13.1909 87.8016C13.2625 87.6934 13.3162 87.5852 13.3878 87.4771H13.352L13.3341 87.5131Z" fill="#25201D"></path>
<path d="M44.7095 37.2738C45.3717 37.2197 45.0316 37.6344 44.9958 37.9049H44.96C44.8885 37.6885 44.799 37.4721 44.7274 37.2557L44.7095 37.2738Z" fill="#25201D"></path>
<path d="M39.2506 11.7393C38.8926 12.118 39.9844 12.6049 39.2148 12.8754C37.8367 13.3443 37.5324 14.4803 37.4429 15.7246C37.0133 15.7066 36.906 14.3902 36.4585 15.4361C35.9216 16.7164 34.8656 17.5639 34.1854 18.7361C33.6306 19.6918 33.38 20.9721 32.2703 21.6213C32.1093 21.7115 31.8945 22.1623 32.2703 22.5049C33.1294 23.2984 32.3598 23.6049 31.7871 23.9475C31.7155 23.8213 31.6797 23.641 31.4828 23.7672C31.4649 23.7672 31.5902 24.0016 31.6439 24.1279C31.805 25.0656 30.5163 25.6607 31.0891 26.7607C31.2144 26.9951 30.7132 26.7066 30.4805 26.6885C29.9615 26.6344 29.5677 26.9951 29.4424 27.4279C29.3708 27.6984 29.0845 28.0951 29.8541 28.4197C30.5163 28.7082 29.7288 29.682 29.4424 30.259C28.816 29.6459 28.3328 28.6541 27.9032 30.4934C27.6526 31.5213 26.9725 32.5312 26.006 33.1984C25.6659 31.2148 26.6503 29.6459 27.581 28.059C27.581 27.8967 27.581 27.7344 27.581 27.5721C27.6884 26.4721 27.8674 25.5164 28.995 24.8312C29.8183 24.3262 29.2277 22.9557 29.8183 22.1984C30.6953 21.0623 31.2501 19.7098 32.4314 18.7541C33.2189 18.123 33.917 17.1312 34.257 16.1754C34.6866 14.9312 35.3309 14.0475 36.6017 13.9393C37.5503 13.8672 37.604 12.8934 38.2841 12.623C37.7651 11.3607 38.8389 11.9197 39.2685 11.7393H39.2506Z" fill="#FDFDFD"></path>
<path d="M34.776 38.9328C35.7962 38.3197 35.7604 37.2738 35.9036 36.2639C36.1005 34.9295 36.1363 33.6131 38.3198 33.9377C40.0559 34.2082 41.094 32.6033 41.8279 31.1246C41.9889 30.782 42.0784 30.4033 42.2932 30.0426C42.9017 29.0328 43.0628 27.4098 44.9421 28.5459C45.318 28.7803 46.0518 28.4197 46.6067 28.3295C46.3024 30.2049 44.6021 31.0344 43.4745 32.1705C42.6691 32.982 42.5259 33.4508 43.1523 34.4606C42.3469 33.8475 41.8637 34.0459 41.3088 34.6229C39.8591 36.1016 38.0335 37.1836 36.709 38.8065C36.2079 39.4197 35.4024 39.1852 34.9013 39.6721C34.8655 39.4377 34.8297 39.1852 34.7939 38.9508L34.776 38.9328Z" fill="#FDFDFD"></path>
<path d="M7.39195 34.7672C7.67832 35.7951 8.17946 36.4443 9.66501 35.6508C7.66042 38.5 8.57322 40.9344 9.45023 43.477C9.82609 44.5951 9.57552 45.9115 9.64711 47.1377C9.7008 47.9492 9.12806 48.7967 10.3272 49.482C10.8821 49.7885 10.4525 51.3213 10.2556 52.0967C9.98717 53.0705 10.0409 54.1344 9.61131 55.0541C9.48603 54.8918 9.21755 54.7115 9.23545 54.5672C9.52182 52.4934 8.60902 50.9787 7.06978 49.7525C7.15927 49.6803 7.23086 49.6082 7.30246 49.5361C7.64252 49.3557 8.39424 50.3295 8.34055 48.8869C8.25106 46.8492 9.21755 44.6852 7.64252 42.882C7.05188 42.2148 7.24876 42.0164 7.73201 41.4393C8.68061 40.3213 7.33825 39.4918 7.06978 38.5541C6.80131 37.6164 6.58653 37.7066 7.14137 36.7869C7.30246 36.4984 7.24876 35.9213 7.05188 35.6328C6.69392 35.0738 7.10558 34.9836 7.40984 34.7672H7.39195Z" fill="#FDFDFD"></path>
<path d="M48.5217 27.0672C48.8976 26.1115 47.9669 24.7049 49.5419 24.1098C49.9894 23.9475 50.1863 23.7672 50.7053 24.0738C51.7613 24.6688 52.9426 23.7672 52.9963 22.5049C52.9963 22.2164 53.0679 22.0901 53.4616 22C55.2872 21.6033 56.0747 19.7098 55.4841 18.0147C55.2514 17.3656 55.7526 16.482 56.0568 15.7065C56.7728 17.1852 56.9696 18.5738 56.6475 20.2688C56.2716 22.2885 55.2872 24.1639 55.3409 26.2557C53.9628 25.1377 52.692 24.9213 51.0812 26.1115C50.4547 26.5803 49.345 26.6524 48.5217 27.0672Z" fill="#FDFDFD"></path>
<path d="M68.1739 16.4279C69.4447 15.1475 68.675 13.5246 68.9077 12.0639C69.9816 12.6951 70.6617 13.5787 70.608 14.9131C70.608 15.1836 70.6617 15.5803 70.8407 15.7066C73.1496 17.2574 72.0578 19.9803 73.0243 22C73.0243 22.018 72.8811 22.1262 72.7916 22.1984C72.2189 20.8279 71.6819 19.4393 69.7668 19.5656C68.9793 19.6197 69.3194 18.6098 68.8361 18.3213C69.3552 17.4197 69.5342 16.6443 68.156 16.4459L68.1739 16.4279Z" fill="#FDFDFD"></path>
<path d="M57.6319 5.2836C57.5067 6.72622 56.4865 7.59179 55.341 7.91638C54.0702 8.27704 52.6742 7.93442 51.3139 8.34917C50.419 8.61966 50.3295 7.01474 49.3988 6.85245C51.0633 5.48196 53.1395 5.51802 55.0904 5.30163C55.8779 5.21147 56.7728 5.3377 57.6319 5.30163V5.2836Z" fill="#FDFDFD"></path>
<path d="M39.0179 81.941C39.3579 80.4983 37.9082 80.1197 37.3534 79.2C36.9954 78.6049 36.6553 78.3524 37.1028 77.559C37.3534 77.1082 37.4429 76.0442 36.8522 75.4672C35.9215 74.5656 36.4764 73.9885 37.1565 73.3754C38.1946 75.5574 39.3401 77.6852 40.0381 80.0115C40.5213 81.6344 40.235 82.1393 39.0179 81.941Z" fill="#FDFDFD"></path>
<path d="M46.7141 7.84427C47.1079 9.79181 45.7118 11 44.8348 12.4066C44.6021 12.7853 43.7609 12.9295 43.6356 12.5508C43.2061 11.1803 41.9174 11.3967 41.0404 10.8557C42.5975 9.21476 44.8169 8.83607 46.7141 7.84427Z" fill="#FDFDFD"></path>
<path d="M9.486 23.659C10.0587 24.3623 9.66498 25.0836 9.486 25.7869C9.34281 26.3459 9.09224 26.6705 8.39421 26.3279C7.42771 25.859 6.38962 25.7508 5.56631 26.6164C5.04726 27.1574 4.61771 26.5262 4.15236 26.6164C4.08076 25.3541 5.33363 24.5246 5.90637 24.4164C7.08765 24.182 8.19733 23.4246 9.486 23.641V23.659Z" fill="#FDFDFD"></path>
<path d="M68.8183 11.7754C68.3529 11.7934 67.9055 11.8295 67.4401 11.8475C64.9523 11.9016 64.6122 11.5049 64.8807 9.07049C64.9702 8.33115 66.0799 8.76393 66.0262 7.97049C67.0106 8.6918 67.5654 9.71967 67.9055 10.8377C68.0665 11.3426 69.033 10.9639 68.8004 11.7754H68.8183Z" fill="#FDFDFD"></path>
<path d="M17.1822 32.7115C16.9674 30.6918 16.8242 28.6541 16.52 26.6525C16.3947 25.8951 17.0748 25.6967 17.1822 25.1557C19.1689 26.0934 17.5402 27.518 17.6655 28.6902C17.1464 28.7623 17.1285 29.2131 17.4149 29.3574C18.2024 29.7902 17.2359 30.1688 17.4507 30.5295C17.1285 31.2147 18.5067 32.1344 17.1643 32.6934L17.1822 32.7115Z" fill="#FDFDFD"></path>
<path d="M32.9146 65.9819C32.5208 65.9639 31.7333 67.118 31.8228 65.6033C31.8586 64.9901 31.3753 64.5754 31.089 64.0885C30.4088 62.9885 30.0867 61.9246 31.1427 60.8787C31.9123 60.9688 31.8049 61.7803 31.7512 62.0508C31.5006 63.5836 32.3597 64.7196 32.9146 65.9819Z" fill="#FDFDFD"></path>
<path d="M25.469 34.0098C25.5047 35.5787 26.6681 37.2377 25.0931 38.6443C24.8962 38.1033 24.6814 37.4721 24.055 37.1115C23.8402 35.759 24.8962 35.0016 25.469 34.0098Z" fill="#D0D7C9"></path>
<path d="M23.8403 81.959C23.0707 80.6246 23.8403 79.5426 24.2877 78.2623C25.1647 79.1279 24.4488 81.0213 26.2923 80.9131C25.3616 80.9852 24.9858 82.3738 23.8403 81.977V81.959Z" fill="#FDFDFD"></path>
<path d="M64.5585 29.159C64.9522 28.7443 64.9164 27.518 65.8113 28.1131C66.6705 28.6902 68.5677 28.0229 68.2813 30.0426C67.1895 29.1049 65.7576 29.6279 64.5585 29.177V29.159Z" fill="#FDFDFD"></path>
<path d="M32.1986 43.3148C31.9302 41.8361 32.3597 40.7361 33.899 40.3033C33.8095 40.5197 33.6126 40.8082 33.6663 40.9164C34.9192 42.8279 32.6103 42.4853 32.1807 43.3148H32.1986Z" fill="#D0D7C9"></path>
<path d="M65.6503 7.73605C64.7732 8.18687 63.6994 7.64589 62.715 8.78196C62.876 7.79015 62.9655 7.24917 63.055 6.70819C64.1647 6.40163 64.8985 7.06884 65.6503 7.71802V7.73605Z" fill="#D0D7C9"></path>
<path d="M73.0243 24.2361L71.2166 24.4344C72.1115 23.659 71.3597 22.8656 71.5387 22.0902C72.3083 22 72.0041 23.2443 72.7916 23.0098C72.8453 23.1902 72.5947 23.5508 72.9169 23.5508C74.7962 23.5508 72.5589 24.0738 73.0064 24.2361H73.0243Z" fill="#D0D7C9"></path>
<path d="M17.4685 30.5475C17.2358 30.1688 18.2023 29.7901 17.4327 29.3754C17.1463 29.2131 17.1642 28.7803 17.6833 28.7082C19.67 28.5098 18.077 30.4934 19.3836 30.8901C18.4171 31.1967 18.1665 29.9885 17.4864 30.5656L17.4685 30.5475Z" fill="#D0D7C9"></path>
<path d="M8.4479 68.6689C8.62688 69.4984 9.4144 69.5705 9.14593 70.2377C8.91325 70.7607 8.23312 70.1295 7.96465 70.6344C7.62459 70.0213 8.08994 69.6066 8.4479 68.6869V68.6689Z" fill="#D0D7C9"></path>
<path d="M42.2932 86.0164C43.4387 86.359 44.3694 86.2869 45.3717 86.1787C44.3694 87.5131 43.8503 87.4951 42.2932 86.0164Z" fill="#FDFDFD"></path>
<path d="M68.1382 33.5951C68.7646 33.8115 69.5163 33.7934 69.8385 34.5508C69.8922 34.659 69.7669 34.9656 69.6953 34.9836C68.7646 35.1639 68.4424 34.3705 67.9413 33.8475C68.0129 33.7754 68.0845 33.7033 68.1561 33.6131L68.1382 33.5951Z" fill="#D0D7C9"></path>
<path d="M27.5631 27.5721C27.5631 27.7344 27.5631 27.8967 27.5631 28.059C26.8471 27.6803 26.3997 28.5459 25.7017 28.3836C26.4892 28.4738 26.2028 26.2738 27.581 27.5721H27.5631Z" fill="#D0D7C9"></path>
<path d="M34.7761 38.9328C34.8119 39.1672 34.8477 39.4197 34.8835 39.6541C34.5971 39.9246 34.3823 40.3213 33.917 40.3033C33.8812 39.636 34.0781 39.1311 34.794 38.9508L34.7761 38.9328Z" fill="#D0D7C9"></path>
<path d="M73.7045 13.6148C73.4897 13.5246 73.257 13.3623 73.3823 13.1279C73.5434 12.8574 73.955 12.8033 73.9908 12.4246C74.0624 12.641 74.1877 12.8393 74.1877 13.0557C74.1877 13.3623 74.0624 13.6148 73.6866 13.6148H73.7045Z" fill="#D0D7C9"></path>
<path d="M72.8453 15.1115C72.6484 14.841 72.4515 14.5525 72.2189 14.2098C72.9706 14.2639 72.9348 14.6787 72.8453 15.1115Z" fill="#D0D7C9"></path>
<path d="M49.4525 6.83441C48.9871 7.3213 48.3607 7.24917 47.7701 7.35736C47.8595 7.19507 47.4658 6.67212 48.0385 6.90654C48.5576 7.1049 48.9871 6.83441 49.4525 6.83441Z" fill="#FDFDFD"></path>
<path d="M47.5016 7.44753C47.2689 7.66393 47.1436 8.04262 46.714 7.84426C46.6961 7.46557 46.2666 6.96065 46.6067 6.76229C47.0541 6.52786 47.1794 7.23114 47.5016 7.44753Z" fill="#FDFDFD"></path>
<path d="M37.246 64.918C37.0849 65.0984 36.9238 65.4229 36.7448 65.459C36.53 65.477 36.2258 65.2246 36.4584 64.9C36.6016 64.6836 35.9573 64.4131 36.4942 64.3049C36.8701 64.2328 37.0312 64.5754 37.246 64.9361V64.918Z" fill="#FDFDFD"></path>
<path d="M3.61541 36.6066C3.7765 37.0935 4.11656 37.5984 3.70491 38.0131C3.47223 38.2476 3.16796 37.8508 3.04267 37.6705C2.59522 37.0213 3.38274 36.9672 3.63331 36.6066H3.61541Z" fill="#FDFDFD"></path>
<path d="M46.553 28.3475C46.7678 27.7525 46.9288 27.0672 47.7343 27.8246C47.3405 28.0049 46.9467 28.1672 46.553 28.3475Z" fill="#FDFDFD"></path>
<path d="M40.7182 70.5082C40.6824 70.8148 40.7182 71.3377 40.235 71.0852C39.7875 70.8689 40.1634 70.5443 40.3781 70.3098C40.4855 70.382 40.6108 70.4541 40.7182 70.5262V70.5082Z" fill="#FDFDFD"></path>
<path d="M29.3529 84.159C29.6751 84.2312 29.6035 84.4836 29.6214 84.6639C29.6572 84.8623 29.6751 85.1689 29.335 84.9705C29.1918 84.8984 28.8696 84.7902 29.0307 84.4836C29.1023 84.3393 29.2455 84.2492 29.3529 84.141V84.159Z" fill="#FDFDFD"></path>
<path d="M21.1735 25.1918C21.8357 25.0836 21.7999 25.6246 21.9252 26.0213C21.8536 26.1115 21.782 26.2016 21.7104 26.2918C21.1198 26.5082 21.1377 25.9311 20.905 25.6787C20.9945 25.5164 21.0661 25.3541 21.1556 25.1918H21.1735Z" fill="#FDFDFD"></path>
<path d="M33.1115 14.3361C33.3799 14.1197 33.4873 14.282 33.5052 14.5344C33.5052 14.6246 33.4515 14.7328 33.4157 14.841C33.3262 14.6607 33.2188 14.4803 33.1293 14.3L33.1115 14.3361Z" fill="#D0D7C9"></path>
<path d="M8.69845 72.4557C8.68055 72.5639 8.64476 72.6541 8.62686 72.7443C8.55527 72.6361 8.46577 72.5279 8.44788 72.4197C8.44788 72.3475 8.51947 72.2574 8.55527 72.1672C8.60896 72.2574 8.64476 72.3475 8.69845 72.4557Z" fill="#D0D7C9"></path>
<path d="M32.6103 12.2082C32.8609 12.2442 33.2009 12.0098 33.2904 12.4426C33.3262 12.6049 33.2904 12.8393 33.0935 12.7672C32.8609 12.677 32.3418 12.6951 32.6461 12.1541L32.5924 12.1901L32.6103 12.2082Z" fill="#FDFDFD"></path>
<path d="M35.5277 61.8524C35.5456 62.3574 35.3846 62.5196 35.1519 62.5377C35.0624 62.5377 34.9013 62.3574 34.8655 62.2311C34.7581 61.9065 35.0982 61.8705 35.2772 61.7803C35.3667 61.7262 35.5635 61.8524 35.5456 61.8344L35.5277 61.8524Z" fill="#FDFDFD"></path>
<path d="M34.6328 84.123C34.5433 84.0869 34.418 84.0328 34.2927 83.9787C34.3822 83.9426 34.4717 83.8525 34.5612 83.8705C34.6865 83.8705 34.8118 83.9426 34.9371 83.9967C34.8476 84.0328 34.7402 84.0869 34.6149 84.141L34.6328 84.123Z" fill="#F5CC43"></path>
<path d="M45.6939 86.0164C45.6044 85.8541 45.5328 85.7459 45.4612 85.6377C45.5865 85.5656 45.7118 85.4574 45.8549 85.4213C45.9086 85.4213 46.0697 85.6197 46.0518 85.6377C45.9623 85.7639 45.8549 85.8541 45.676 86.0164H45.6939Z" fill="#FDFDFD"></path>
<path d="M7.06971 49.7524C6.94443 49.518 6.85494 49.2836 7.03392 49.0311L7.30239 49.536C7.30239 49.536 7.1592 49.6983 7.06971 49.7524Z" fill="#FDFDFD"></path>
<path d="M42.687 37.8869C42.687 37.8869 42.8481 38.0311 42.9197 38.0852C42.6512 38.2295 42.7765 37.9229 42.687 37.8688V37.8869Z" fill="#6EBD6C"></path>
<path d="M25.0037 24.3082C25.0037 24.3082 24.8426 24.2361 24.771 24.218C24.8068 24.182 24.8426 24.0918 24.8784 24.0918C24.9679 24.0918 25.0395 24.1459 25.129 24.182C25.0932 24.218 25.0574 24.2721 25.0216 24.3262L25.0037 24.3082Z" fill="#D0D7C9"></path>
<path d="M20.9229 25.6787C20.726 25.5344 20.6544 25.3541 20.7797 25.1557C20.8155 25.1016 21.0303 25.1738 21.1735 25.1918C21.084 25.3541 21.0124 25.5164 20.9229 25.6787Z" fill="#FDFDFD"></path>
<path d="M48.1996 27.6082C48.1996 27.3557 48.1996 27.0852 48.5397 27.0492C48.6112 27.3557 48.3428 27.4459 48.1996 27.6082Z" fill="#FDFDFD"></path>
<path d="M77.0872 24.0557C77.0872 24.0557 77.0156 24.1459 76.9977 24.182C76.9619 24.1098 76.9082 24.0557 76.8724 23.9836C76.8724 23.9656 76.9261 23.9115 76.9619 23.8754C76.9977 23.9475 77.0514 24.0016 77.0872 24.0557Z" fill="#FDFDFD"></path>
<path d="M67.9234 33.8295C67.9234 33.6853 67.9055 33.541 67.8876 33.3967C67.9771 33.4689 68.0487 33.541 68.1381 33.5951C68.0666 33.6853 68.0129 33.7574 67.9234 33.8295Z" fill="#D0D7C9"></path>
<path d="M18.5783 64.4131C18.5783 64.4131 18.4172 64.3951 18.4172 64.3771C18.1308 62.7902 17.9519 61.1672 17.1464 59.7066C17.0212 59.4721 17.4328 59.2197 17.7013 59.1475C17.8266 59.1115 18.0413 59.2197 18.1308 59.3279C18.9005 60.3377 19.0973 62.8262 18.5783 64.4131Z" fill="#D0D7C9"></path>
<path d="M27.0798 42.0705C27.3661 42.1426 27.6346 42.2328 27.6525 42.5934C26.9903 42.5393 26.9008 43.477 26.3102 43.4049C26.1133 43.3869 25.7732 42.9361 25.809 42.7918C26.167 41.6016 26.5786 40.4475 27.0261 39.1492C28.1179 40.3213 27.0261 41.1869 27.0977 42.0885C26.9545 42.1246 26.8292 42.1426 26.686 42.1787C26.7218 42.2508 26.7576 42.3049 26.7934 42.377C26.8829 42.2688 26.9724 42.1787 27.0619 42.0705H27.0798Z" fill="#FDFDFD"></path>
<path d="M68.1739 16.4279C69.552 16.6262 69.3551 17.4016 68.854 18.3033C68.4602 18.6279 68.0128 19.1508 67.6548 18.3574C67.3327 17.6361 67.1537 16.8426 68.1739 16.4279Z" fill="#D0D7C9"></path>
<path d="M27.4736 36.318C27.4736 35.1158 27.7302 34.2382 28.2433 33.6852C28.995 34.8754 27.4736 35.3803 27.4736 36.318Z" fill="#D0D7C9"></path>
<path d="M30.5879 78.3344C30.0509 78.7131 31.8944 78.8393 30.6595 79.2361C30.4626 79.2902 29.8899 79.5066 29.9078 78.9295C29.9078 78.4787 30.1404 77.8656 30.6237 77.9197C31.268 77.9918 30.5879 78.1902 30.5879 78.3344Z" fill="#D0D7C9"></path>
<path d="M14.3364 47.0295C15.0702 47.2279 15.1597 47.9852 15.8041 48.418C14.2827 48.7426 14.5333 47.6967 14.3543 47.0115L14.3364 47.0295Z" fill="#D0D7C9"></path>
<path d="M35.2772 79.4344C35.5994 78.8213 35.1698 78.1541 35.3667 77.018C35.8142 78.2082 36.4943 78.8754 35.4025 79.5426L35.2772 79.4344Z" fill="#D0D7C9"></path>
<path d="M14.3364 47.0115C14.1216 46.8852 13.7458 46.9574 13.71 46.5967C13.71 46.5606 13.7816 46.4705 13.8173 46.4705C14.2111 46.4524 14.1574 46.8492 14.3364 47.0295V47.0115Z" fill="#D0D7C9"></path>
<path d="M35.4203 79.5606C35.4203 79.5606 35.2592 79.7229 35.1876 79.7951C35.2234 79.6869 35.2592 79.5607 35.295 79.4525L35.4203 79.5606Z" fill="#D0D7C9"></path>
<path d="M70.8587 24.9934C70.8587 24.9934 70.9302 25.0475 70.966 25.0836C70.9302 25.1197 70.9123 25.1918 70.8765 25.1918C70.8408 25.1918 70.805 25.1377 70.7692 25.1016C70.805 25.0656 70.8408 25.0295 70.8587 24.9934Z" fill="#D0D7C9"></path>
<path d="M31.608 24.1279C31.5543 24.0016 31.429 23.7852 31.4469 23.7672C31.6259 23.6229 31.6796 23.8213 31.7512 23.9475C31.6975 24.0197 31.6617 24.0738 31.608 24.1279Z" fill="#F5CC43"></path>
<path d="M27.0798 42.0705C26.9903 42.1787 26.9009 42.2689 26.8114 42.3771C26.7756 42.3049 26.7398 42.2508 26.704 42.1787C26.8472 42.1426 26.9725 42.1246 27.1156 42.0885L27.0977 42.0705H27.0798Z" fill="#F5CC43"></path>
</g>
<defs>
<clipPath id="clip0_85_683">
<rect width="78" height="88" fill="white"></rect>
</clipPath>
</defs>
</svg>
