<?xml version="1.0" encoding="UTF-8"?>
<svg id="_图层_2" data-name="图层 2" xmlns="http://www.w3.org/2000/svg" viewBox="0 0 106.49 76.25">
  <defs>
    <style>.cls-1 {
  fill: #fefefe;
}

.cls-1, .cls-2, .cls-3, .cls-4, .cls-5, .cls-6, .cls-7, .cls-8 {
  stroke-width: 0;
}

.cls-2 {
  fill: #13ae67;
}

.cls-3 {
  fill: #fff34b;
}

.cls-4 {
  fill: #036eb8;
}

.cls-5 {
  fill: #3b3532;
}

.cls-6 {
  fill: #25211e;
}

.cls-7 {
  fill: #2ea7e0;
}

.cls-8 {
  fill: #fff;
}
</style>
  </defs>
  <g id="_図" data-name="図">
    <g>
      <path class="cls-6" d="M106.32,37.91c.04.35.03.68-.17.99-.22.25-.33.47.15.52-.25,1.16-.31,2.41-.8,3.46-.44.95-.33,2-.92,2.94-.86,1.37-2.15,1.76-3.53,2.27-.91.34-1.83.28-2.73.53-.58.16-1.42.17-2.19-.32-.59-.38-1.34-1.66-2.21-.64-.75.89-2.03.63-2.66,1.56-.11,0-.23-.02-.34-.02-.09,0-.18-.01-.26-.02-.01-.22-.11-.38-.35-.32-.3.07-.22.34-.23.55h0c-.29.04-.67-.14-.78.33-.72.24-1.46.43-2.15.74-.46.21-.92.03-1.33.03-.7,0-1.35.22-2.01.31-.6.08-.74.66-1.03,1.17-.66,1.14-.94,2.42-1.57,3.58-.75,1.39-1.3,2.92-1.99,4.37-1.04,2.16-2.27,4.2-3.59,6.21-1.24,1.9-3.11,3.2-4.36,5.06-.12.18-.59.22-.31.55.16.19.65.4.74.32.82-.72,1.35.17,1.93.38.57.2,1.17.7.94,1.53-.27.97-.89,1.63-1.8,2.08-1.02.5-1.97-.06-2.95-.09-.75-.02-1.49-.23-2.28-.16-.82.07-1.61-.09-2.4-.46-.69-.33-1.46-.57-2.2-.8-1.5-.47-2.98-.6-4.5-.72-.63-.05-1.17-1.14-.77-1.73.4-.59.65-1.25,1.01-1.85.36-.6.8-.59,1.25-.5.74.13,1.47.38,2.18.62.42.14.79.12.89-.33.18-.75.68-1.5.71-2.14.05-.99.57-1.79.66-2.74.15-1.66.53-3.27,1.09-4.85.22-.61.18-.99-.71-1.27-1.51-.48-3.21-.42-4.54-1.45-.4-.31-.45.06-.49.28-.09.56-.12,1.15-.87.48-.05-.05-.21-.06-.26-.02-1.02.74-1.37-.42-2.03-.7l.02.03c.06-1.01.22-1.15,1.03-.84.56.22.78.32,1.07-.52.46-1.37.25-2.93,1.22-4.16.14-.17-.19-.7,0-1.09.02-.03-.16-.22-.27-.23-.07,0-.22.15-.24.24-.14.91-.69,1.67-.91,2.58-.21.85-.08,1.92-.98,2.52-.33.22-.73.47-1.08.19-.31-.25-.3-.63-.09-1.05.76-1.52.83-3.27,1.6-4.8.04-.08.05-.19.05-.28-.09-1.04.39-1.4,1.49-1.16.47.1.92.29,1.38.41.94.24,1,1.04.68,1.55-.71,1.14.3,1.1.79,1.28.4.14.87.06,1.13.52.07.12.2.13.34.07.89-.43,1.82-.27,2.75-.16.41.05.51.02.49-.52-.04-.89.43-1.82.29-2.67-.19-1.1.44-2.17-.06-3.26-.13-.27.27-.67.71-.8-.86-.74-1.7-1.37-2.42-2.11-.44-.44-1.2-.22-1.48-.85.07-.1.14-.19.22-.29-.18-.02-.37-.05-.55-.07-.58-.47-1.07,0-1.01.4.15,1.07-.75,1.99-.29,3.12.2.49-.55.89-.78,1.36-1.08-1.1-2.11-2.1-3.78-2.21-.95-.06-1.84-.62-2.8-.83-1.16-.25-2.29-.65-3.46-.9-.91-.19-1.6-1.17-1.57-2.1.03-1.21.71-2.22.9-3.39.12-.74-.32-.74-.56-.71-1.74.21-3.34-.4-4.95-.83-1.08-.29-2.17-.77-3.06-1.42-.8-.58-1.36-1.5-2-2.29-.09-.12-.09-.33-.29-.34-.98-.06-1.88-.61-2.8-.69-1.1-.1-1.9-.74-2.86-.99-1.21-.31-2.15-1.01-3.14-1.69-.42-.29-.53-.63-.58-1.01-.07-.54-.12-.85-.84-1.01-2.01-.46-3.92-1.71-3.7-4.32.02-.21-.06-.45-.34-.57-.8-.34-1.45-1.62-2.46-.63-.51.5-1.05.77-1.65,1.04-.89.41-1.61,1.1-2.04,1.88-.49.89-1.34,1.21-1.97,1.83-1.29,1.27-3.01,1.82-4.42,2.89-.52.4-1.1.73-1.68,1.06-.65.36-1.31.22-1.86-.21-.55-.43-.66-1.05-.51-1.74.23-1.06.91-1.86,1.39-2.78.67-1.3,1.84-2.11,2.74-3.17.65-.76,1.75-1.14,2.62-1.71.48-.31.93-.68,1.38-1.03.13-.1.44-.09.3-.38-.12-.23-.35-.28-.58-.21-.39.11-.79.2-1.15.37-2.24,1.13-4.61,1.27-7.04,1.01-.47-.05-.87-.38-1.34-.53-2.18-.68-4.24-1.64-6.14-2.91-.47-.31-.52-.95-.74-1.45-.69-1.58-.92-3.18-.17-4.77.31-.66.85-1.22,1.36-1.77.79-.85,1.77-1.55,2.93-1.59,1.7-.06,3.34-.45,5-.66.66-.08,1.08.39,1.36.57,1.92,1.27,4.36,1.21,6.23,2.58-.78-1.14-1.62-2.15-2.62-3.06-.79-.72-1.85-1.13-2.37-2.21-.18-.39-.28-.73-.33-1.12-.22-1.95,1.72-3.49,3.62-2.9.37.11.74.24,1.12.27,1.12.08,1.82.92,2.56,1.55,1.2,1.01,2.39,2.05,3.45,3.24.61.69.61,1.55.87,2.32.28.83.99,1.21,1.42,1.87.29.45.76.82.27,1.4-.06.08-.09.23-.01.21.92-.27.46.54.67.79.61.71.71,1.52.76,2.38,0,.07.09.18.15.19.27.04.41-.16.52-.36.41-.71.97-1.01,1.77-.64.18.08.35.05.48-.17.2-.32.42-.67.91-.57.06.01.21-.1.21-.11-.31-.96.35-.89.99-1.12,1.32-.47,1.54-.52,2.54.51.13.14.2.28.42.36.55.18.62.5.04.71-.28.1-.27.34-.38.49-.24.33-.4.34-.66.07-.09-.09-.17-.2-.27-.28-1.09-.86-1.85-.8-2.29.46-.22.64-.63,1.08-.9,1.64-.22-.07-.45-.32-.67-.03-.22.29,0,.45.23.59.19.96-.52,1.63-.73,2.42-.18.68-.59,1.26-.71,1.98-.19,1.12-.96,2.13-.53,3.36.13.36,1.3,1.49,1.67,1.47.92-.06.94-.9,1.04-1.44.26-1.34.76-2.6,1.07-3.93.37-1.56,1.3-2.9,2.04-4.29.93-1.76,2.27-3.33,4.06-4.24,1.09-.55,2.45-1.01,3.69-.04-.01.24.06.41.34.41.32.37.92,0,1.2.46-.07.16-.35.27-.2.48.08.11.3.19.42.16.25-.06.16-.31.18-.49.56.1,1.12.22,1.45.76.11,0,.22,0,.33,0,.06.03.12.05.18.08.28.36.44.84.98.91.02.37.22.56.58.59h0c-.69.55-.81,1.36-.97,2.15-.22,0-.44-.01-.66-.02,0-.54.52-.96.36-1.56-.05-.21.01-.57-.22-.54-.78.08-1.28-.66-2.03-.6,0-.13,0-.27,0-.4.05-.07.09-.14.14-.21,0,0-.05-.03-.07-.05-.03.08-.06.17-.08.25-.16,0-.3.05-.38.2-.47-.49-1.03-.74-1.71-.76-.02,0-.03-.23-.04-.36-.04-.2-.11-.33-.34-.2-.43.15-.8-.1-1.2-.17-.32-.06-.75-.17-.97-.02-1.14.78-1.98,1.95-3.27,2.55-.06.03-.08.17-.09.26-.08.86-.57,1.56-.99,2.26-.93,1.53-1.42,3.25-1.9,4.92-.32,1.11-.69,2.29-.37,3.67.22.98.34,1.69,1.18,2.28.31.22.66.2.99.41.74.48,1.64.8,2.51,1.01.85.21,1.64.68,2.56.61.23-.02.41.12.49.27.29.55.74.29,1.15.29.48.02.91.12.82.75-.02.12-.47.08-.24.35.18.21.41-.02.61-.1-.02.91.59,1.41,1.3,1.7,1.22.49,2.38,1.17,3.76,1.27-.1-.63.6-.94.77-1.6.6-2.39,1.41-4.72,2.02-7.1.21-.81.65-1.55.76-2.33.2-1.36.76-2.61.95-3.95.13-.88.78-1.59.98-2.39.29-1.12.55-2.29,1.07-3.28.56-1.04-.05-1.81-.56-1.97-1.36-.44-2.52-1.33-3.97-1.58-.57-.1-.82.01-.94.39-.28.85-.91,1.63-.65,2.62l-1.36.39c.25-.3.09-.59,0-.89.03-.58-.05-1.2.13-1.72.31-.87.47-1.76.6-2.66.05-.38.27-.61.66-.43.86.41,1.98.3,2.61,1.14.37.49.82-.23,1.12.2-.07.33.24.52.31.79.19.74,1.24,1.08,1.88.6.46.66,1.34.71,1.86,1.36.64.81,1.63,1.09,2.66,1.17.16.01.61-.86.55-1.03-.42-1.12.48-2.74,1.67-3.02.3-.07.53.06.51.38-.04.51.3.67.65.83.51.24,1.23.13,1.45.86.75-.31,1.42.23,2.14.18.19-.01.32-.09.51.03,1.16.72,2.58.62,3.79,1.14.75.32,1.83.41,1.8,1.73-.02.82.83.64,1.33.71.59.08,1.25-.02,1.7.43.36.37.39-.23.76-.14,1.19.31,2.48-.15,3.69.47.43.22,1.03-.01,1.56.11,1.72.4,3.43.83,5.22.92.73.03,1.39.62,2.13.88,1.11.4,2.29.91,2.91,2.11.22.42.86.17,1.2.5.73.72,1.61,1.23,2.36,1.94.57.55,1.37.78,1.93,1.46.62.77,1.22,1.6,1.61,2.44.39.84,1.17,1.52,1.23,2.55.01.21.43.46.89.43,1.12-.07,2.25-.14,3.37.06.48.08.98-.28,1.45.14.55.5,1.17.93,1.72,1.44.34.32.23,2-.08,2.33-.07.07-.13.14-.19.21.93.58,0,1.37.22,2.06.17.55,0,1.21,0,1.81-.11.15-.49.13-.33.44.09.16.28.03.42-.02ZM79.67,50.37c-.23.01-.39.1-.39.36-.13.07-.17-.02-.2-.12-.02-.15-.04-.29-.05-.44-.19.08-.1.25-.13.38-.56-.26-1.26-.09-1.77-.54-.06-.17.18-.42-.19-.51-.32-.08-.42.16-.59.3-.62.5-.37,1.16-.14,1.65.28.6.41,1-.29,1.33-.23.11-.48.34-.34.61.55,1.05-.46,1.84-.42,2.84.04,1.05-1.13,1.89-.84,3.1.01.05-.12.14-.19.21-.26.24-.28.58-.3.88-.04.96-.47,1.82-.69,2.72-.31,1.29-.86,2.57-.52,3.95.03.1.07.2.1.3.44-.67.79-1.43,1.35-1.98,1.25-1.24,1.87-2.87,2.85-4.27.8-1.16.92-2.69,2.05-3.65.18-.15.18-.39.11-.54-.23-.49.13-.82.28-1.2.12-.32.63-.34.63-.77h0c-.12-.64.12-1.19.54-1.62.22-.22.37-.42.53-.68.33-.52-.31-1.47.77-1.58-.25-.29-.75-.02-.79-.5.12-.05.23-.12.36-.15.18-.04.53.16.39-.27-.08-.23-.32-.33-.55-.21-.24.13-.38.34-.36.64-.37.29-.77.15-1.17.08,0-.09,0-.19,0-.28.03-.03.05-.07.08-.1-.03.03-.07.05-.1.08ZM73.41,51.75c-.14.03-.31.02-.3.24,0,.02.04.06.06.06.22.02.22-.15.24-.3.03-.03.06-.06.08-.09-.03.03-.06.06-.09.09ZM69.73,16.67c.14-.25.14-.5-.04-.74.33-.69.17-1.01-.57-1.45-1.66-.97-3.58-.93-5.32-1.59-.9-.34-2.04-.33-3.01-.8-.08-.04-.43-.34-.59.24-.16.55-.1,1.18-.29,1.6-.45.98-.29,2.25-1.3,2.98-.16.12.06.21.11.29.22.31.16.61-.02.91-.3.5-.05,1.26-.74,1.58-.03.01,0,.26.02.26.6.13.33.56.14.69-.39.26-.34.67-.37.97-.26,2.28-1.11,4.37-1.97,6.45-.26-.12-.51-.31-.79-.07-.11.09-.1.21-.06.34.15.46.5-.24.65.12-.33.74-.54,1.52-.75,2.31-.4,1.53-1.02,3-1.39,4.53-.44,1.81-1.35,3.46-1.73,5.29-.07.32-.28.83.2.98,1.28.39,2.61.62,3.87,1.1,1.15.44,2.49.36,3.49,1.24.33.29,1.61.17,1.6-.1-.04-1.24,1.09-2.35.4-3.67-.08-.15.09-.28.22-.39.78-.58.85-1.56,1.16-2.35.58-1.45.94-2.99,1.5-4.47.71-1.86,1.23-3.8,1.85-5.7.48-1.48.95-2.95,1.56-4.4.58-1.36.65-2.97,1.31-4.37.22-.12.24-.25.02-.4.21-.46.43-.91.64-1.37.04.01.07.02.11.03.02.32.04.64.23.93.08.11.16.21.31.14.08-.04.13-.13.19-.2-.36-.21.04-.95-.65-.93ZM73.37,51.17c.62.28,1.19.51.97-.59-.03-.17.02-.36.04-.54.06-.53.08-.92-.71-.93-.82-.01-1.37-.8-2.21-1.05-.73-.22-1.36-.93-2.13-1.28-.17-.08-.26-.16-.38.02-.28.4-.22,2.4.12,2.78.73.8,1.66,1.21,2.76,1.23.04.41.25.42.54.23.27-.21.55-.09.83-.04.05.06.11.12.16.18ZM68.93,74.47c-.22.02-.55-.11-.52.31.01.14.09.34.27.33.3-.02.43-.22.4-.52.26-.58.64-.22,1.02-.17.79.09,1.65.57,2.34-.12.15-.15.61-.09.47-.42-.1-.23-.41-.23-.7-.28-.97-.17-2.05-.04-2.88-.71-.7-.57-1.62-.57-2.28-.46-1.49.25-2.89-1.04-4.36-.15-.01,0-.05-.03-.08-.05-.65-.35-1.44-.3-2.08-.71-.4-.26-.95,0-1.03.17-.28.59.53.45.7.79,0,.01.2-.09.24-.06.46.45,1.15-.22,1.59.31.17.42.4.85.84.93.41.07.15-.47.36-.64.7.22,1.48.31,2.08.69.98.62,1.94.72,3.01.4.31-.1.6-.06.59.38ZM55.77,23.89c.06-.18.12-.36.18-.54.31.05.65.16.74-.3.09-.46-.13-.66-.57-.68.02-.06.03-.13.05-.19.05-.08.11-.15.16-.23.06-.35.18-.69.25-1.05.27-1.45.54-2.91.97-4.32.18-.59.41-1.11.2-1.72-.04-.1.11-.46-.15-.26-.61.45-1.13-.11-1.68-.04-.27.03-.62-.25-.8.25-.19.57-.48,1.11-.73,1.67-.01-.08-.04-.17-.14-.1-.02.02.02.13.03.2.03.13.11.28.07.38-.57,1.42-.88,2.92-1.28,4.4-.38,1.37-1.23,2.56-1.2,4.1.02.69-.54,1.46-.78,2.22-.25.8-.39,1.64-.56,2.42-.18.85-.59,1.62-.68,2.5-.04.4-.09.93-.31,1.28-.39.62-.43.54.18.95.31.21.71.21.99.54.52.61,1.01.46,1.25-.28.43-1.36.76-2.75,1.21-4.11.23-.7.63-1.31.81-2.01.38-1.45.75-2.9,1.44-4.25.43-.24.87-.48,1.38-.76-.41-.03-.73-.06-1.04-.08ZM99.21,40.39c.05.03.15.08.14.09-.44,1.11-1.36,1.89-1.96,2.89-.45.74-.8,1.68-1.82,1.92-.01,0,0,.17.02.25.11.5,1.46,1.54,1.97,1.49,1.35-.13,2.69-.27,3.98-.73,1.21-.43,2.14-1.8,2.41-3.09.32-1.51.39-3.08.98-4.54.02-.18,0-.35-.19-.45l.05-.39c.18-.24.75-.41.13-.79-.07-.14-.23-.32-.19-.42.52-1.4-.08-2.86.28-4.27.11-.45-.15-1.33-.39-1.23-1.09.46-2.01-1.02-3.05-.19-.02.02-.11-.05-.16-.08-.63-.37-1.12.39-1.74.23-.08-.02-.28.19-.17.45.31.74-.12,1.7.16,2.21.33.59-.41.75-.2.78.87.12.44.95.48,1.19.24,1.35-.04,2.72-.36,4.07-.3-.03-.5-.54-.91-.17.18.26.35.51.52.77ZM14.99,4.62c.08.22-.41.31-.15.54.15.14.4.27.56-.04.19.03.4-.08.55.1.79,1,1.78,1.8,2.57,2.83.65.84,1.65,1.4,2.25,2.42.34.58.22,1.01.07,1.39-.13.32-.76.47-1.11.28-.77-.4-1.62-.57-2.37-1.02-.94-.57-2-.99-3-1.34-1.17-.4-2.3-.88-3.43-1.36-.18-.08-.37-.12-.54-.19-.89-.36-1.8-.27-2.7-.11-1.42.25-2.87.24-4.19,1.09-1.59,1.03-2.5,3.71-1.48,5.25.9,1.35,2.28,2.11,3.79,2.66,1.02.38,2.02.79,3.06,1.09,1.6.47,3.17.36,4.74-.11.67-.2,1.33-.45,1.99-.68.14-.05.18.3.36.04.7-1,1.75-.59,2.56-.39,1.1.28,1.28,2.31.29,3-.53.37-1.03.81-1.63,1.12-1.03.55-2.13,1.14-2.88,2-1.18,1.32-2.63,2.45-3.42,4.11-.15.31-.16.57.04.79.23.26.47.02.67-.11,1.09-.68,2.43-1.01,3.29-1.96.82-.91,2-1.27,2.78-2.25.65-.81,1.24-1.72,2.15-2.32.81-.53,1.65-1,2.53-1.42.76-.36,1.37-.97,2.19-1.21.18-.05.02-.26,0-.4-.08-1.27.33-2.01,1.26-2.33-.01.04-.02.09-.04.13.04,0,.08,0,.12,0-.04-.04-.07-.07-.11-.11-.26-.8-.65-1.54-.69-2.42-.03-.6-.05-1.44-.33-1.75-1.1-1.16-1.17-2.9-2.43-3.92-.07-.06-.07-.24-.06-.36.03-.59-.9-.9-.46-1.6-.77-.3-1.03-1.14-1.71-1.57-.97-.62-1.92-1.29-2.78-2.05-.81-.71-1.72-.89-2.72-.84-.57.03-1.43,1.11-1.2,1.44.44.61.82,1.3,1.59,1.59ZM85.47,49.02c.89.09,1.48-.48,2.23-.61,1.34-.24,2.71-.42,3.93-1.1.64-.35,1.35-.65,1.86-1.15.63-.62,1.05-1.43,1.6-2.13.71-.9,1.52-1.77,2.08-2.72,1.03-1.75,1.52-3.69,1.27-5.81-.08-.63-.34-1.22-.33-1.84.04-1.38-.14-2.66-.72-3.96-.46-1.02-.92-2.02-1.47-2.98-.46-.82-.94-1.68-1.67-2.27-1.22-.98-2.54-1.81-3.72-2.86-1.2-1.06-2.66-1.95-4.22-2.47-1.69-.56-3.41-1.1-5.21-1.24-.73-.06-1.55-.04-2.17-.36-1.2-.62-2.47.03-3.74-.43-.77-.29-1.92.05-2.91-.17-.51-.12-1.27-.15-1.4.3-.17.56-.52,1.11-.45,1.73.05.52-.32,1.01-.48,1.37-.48,1.06-.67,2.24-1.28,3.23-.23.38.09.79-.12,1.03-1,1.15-.96,2.69-1.48,4-.46,1.18-.76,2.53-.99,3.83-.1.58-.68.66-.68,1.02-.02,1.97-1.28,3.56-1.6,5.45-.17,1.03.16,2.05,1.16,2.51,1.31.59,2.59,1.35,3.45,2.43,1.33,1.66,3.22,2.35,4.9,3.4,1.01.63,2.26.59,3.36,1.12,1.02.49,2.23.75,3.49.77,1.11.02,2.25.21,3.4.23.69.01,1.29-.56,1.91-.3ZM74.05,53.61c.06-.4-.04-.92-.51-.9-1.22.05-2.26-.52-3.37-.83-.44-.13-1.07-.28-1.36-.08-.32.22-.17.83.14,1.22.32.4-.13.45-.27.5-.64.24-.54.82-.56,1.28-.03.54.55.27.82.43.65.39,1.47.41,2.2.56.49.1,1.22-.02,1.83-.15,1.16-.24,1.1-1.14,1.08-2.03ZM65.73,57.56c.06-.01.33-.09.33-.41-.01-.88.3-1.65.71-2.4.06-.12.09-.17-.08-.26-.74-.38-1.57-.26-2.34-.36-.93-.11-1.97.2-2.74-.51-.42-.39-.46.22-.7.11.12.48-.27.79-.43,1.16-.23.52-.1.8.29,1.1,1.4,1.08,3.11,1.26,4.96,1.57ZM73.18,57.64c0-.27-.17-.41-.42-.46-.09-.02-1.02.1-1.17.07-.81-.15-1.65.17-2.46-.24-.42-.22-.88-.61-1.43-.06-.5.5-.49.88,0,1.33.07.07.19.21.02.31-.89.54,0,.76.23.78.97.09,1.74.96,2.79.67.15-.04.22.04.33.11.5.31,1.43-.03,1.61-.56.22-.64,0-1.38.51-1.94ZM65.98,64.1c.07.67-.08,1.24-.34,1.74-.44.86-.32,1.27.59,1.53.97.27,1.9.63,2.95.61,1-.01,2.24-1.45,1.87-2.39-.03-.07-.12-.15-.2-.17-.51-.15-1.13.15-1.54-.55-.15-.26-.94-.14-1.38-.18-.7-.07-1.27-.28-1.95-.57ZM67.35,60.75c-1.01.19-.48,1.01-.7,1.5-.15.32-.03.57.42.64,1.03.14,1.92.81,2.98.83.46.01,1.12.16,1.31-.15.24-.37.5-.88.46-1.41-.01-.19-.1-.35-.27-.34-1.06.06-1.97-.82-3.07-.48-.26.08-.39-.19-.58-.29-.19-.1-.39-.21-.55-.29ZM67.99,70.96c.37-.21.8-.07,1.14-.19.37-.13.74-.55.73-.93-.01-.45-.52-.25-.83-.32-1.21-.28-2.46-.16-3.66-.72-.76-.35-.32.91-.85,1.21-.26.15-.15.45.19.56.12.04.22.05.35.04.25-.01.5.04.75.1.31.07.41.65.88.33.4-.27.86-.08,1.3-.08ZM28.61,15.58c-.46.39-1.18.37-1.59.81-.68.72-.92,1.69-1.23,2.6-.19.56.1,1.18.59,1.38.63.26.72-.38.87-.84.44-1.32.9-2.64,1.35-3.96ZM72.59,51.71c.03-.16-.04-.23-.2-.23-.15,0-.32-.05-.38.17-.04.13-.05.26.12.28.19.02.39.02.46-.22ZM43.92,13.53c.06.04.18.15.2.13.09-.08.16-.18.21-.28,0-.01-.13-.15-.18-.14-.12.02-.23.1-.23.29ZM71.98,67.16c.03-.2.07-.29.05-.38-.02-.14-.06-.39-.26-.22-.18.15.02.33.21.59ZM29.95,14.52c.14.01.26-.03.29-.18.01-.06,0-.16-.02-.17-.16-.08-.19.1-.28.16-.07.05-.15.14,0,.19ZM63.63,38.18c-.07-.24.09-.41-.22-.62.05.23-.09.4.22.62ZM56.72,14.42c-.07-.06-.13-.13-.21-.18-.11-.07-.18,0-.16.1.03.12.1.24.26.22.04,0,.07-.08.11-.14ZM63.52,41.3c-.04.05-.09.1-.09.15,0,.05.05.11.08.16.03-.05.09-.1.09-.15,0-.05-.05-.11-.08-.17ZM62.62,38.66s-.06.03-.07.05c0,.02.02.05.04.07l.11-.09-.08-.04ZM63.27,38.52l.05.04v-.06s-.05.02-.05.02Z"></path>
      <path class="cls-5" d="M53.67,10.99c-.64.48-1.69.14-1.88-.6-.07-.27-.38-.46-.31-.79.61.11,1.03.68,1.71.67.35,0,.44.39.48.72Z"></path>
      <path class="cls-5" d="M46.36,13.96c-.55-.07-.71-.55-.98-.91.33-.23.65.18.98.02.09.3.26.59,0,.89,0,0,0,0,0,0Z"></path>
      <path class="cls-5" d="M29.86,15.91c-.23-.14-.44-.3-.23-.59.22-.29.45-.04.67.03-.15.19-.3.38-.44.57Z"></path>
      <path class="cls-5" d="M43.41,12.22c-.02.18.07.43-.18.49-.13.03-.35-.05-.42-.16-.15-.21.13-.31.2-.48.14.05.27.1.41.14Z"></path>
      <path class="cls-5" d="M90.07,49.4c0-.21-.07-.48.23-.55.24-.06.34.09.35.32-.1.33-.38.18-.58.23Z"></path>
      <path class="cls-5" d="M106.32,37.91c-.14.05-.33.18-.42.02-.17-.31.22-.29.33-.44.21.1.32.22.09.42Z"></path>
      <path class="cls-5" d="M89.28,49.72c.11-.47.49-.29.78-.32-.02.7-.49.29-.78.32Z"></path>
      <path class="cls-5" d="M106.3,39.42c-.49-.05-.37-.27-.15-.52.49.04.25.3.15.52Z"></path>
      <path class="cls-5" d="M63.68,42.15c.18.02.37.05.55.07-.07.1-.14.19-.22.29-.11-.12-.22-.24-.34-.36Z"></path>
      <path class="cls-5" d="M41.8,11.61c-.28,0-.35-.17-.34-.41.19.08.42.12.34.41Z"></path>
      <path class="cls-5" d="M90.92,49.19c.11,0,.23.02.34.02-.12.13-.25.35-.34-.02Z"></path>
      <path class="cls-5" d="M45.19,12.98c-.11,0-.22,0-.33,0,.11-.1.22-.25.33,0Z"></path>
      <path class="cls-6" d="M56.55,57.62s-.06.09-.1.13c-.01-.04-.02-.09-.03-.13.05,0,.1.01.15.02,0,0-.02-.02-.02-.02Z"></path>
      <path class="cls-2" d="M85.47,49.02c-.61-.26-1.22.32-1.91.3-1.14-.02-2.29-.21-3.4-.23-1.26-.03-2.47-.28-3.49-.77-1.1-.53-2.35-.49-3.36-1.12-1.68-1.05-3.57-1.75-4.9-3.4-.86-1.07-2.15-1.83-3.45-2.43-1-.45-1.33-1.48-1.16-2.51.32-1.89,1.58-3.48,1.6-5.45,0-.37.58-.45.68-1.02.22-1.29.52-2.65.99-3.83.52-1.32.48-2.86,1.48-4,.2-.23-.12-.65.12-1.03.61-.99.8-2.17,1.28-3.23.16-.36.53-.84.48-1.37-.06-.62.29-1.18.45-1.73.14-.45.89-.42,1.4-.3.98.23,2.13-.12,2.91.17,1.27.47,2.53-.18,3.74.43.62.32,1.44.31,2.17.36,1.8.15,3.52.68,5.21,1.24,1.56.52,3.02,1.41,4.22,2.47,1.19,1.05,2.5,1.88,3.72,2.86.73.59,1.21,1.45,1.67,2.27.55.97,1.01,1.97,1.47,2.98.58,1.3.76,2.58.72,3.96-.02.62.25,1.21.33,1.84.26,2.12-.24,4.06-1.27,5.81-.56.96-1.37,1.82-2.08,2.72-.55.7-.98,1.52-1.6,2.13-.51.5-1.22.8-1.86,1.15-1.22.68-2.59.86-3.93,1.1-.75.14-1.34.71-2.23.61ZM93.39,37.11l.2-.46c.16.05.22-.02.21-.17.07-.72.36-1.44-.05-2.15.03-.13,0-.2-.16-.17-.25-.05-.21-.24-.2-.41h.06s.05-.02.05-.02c.37.01.42-.31.41-.52-.07-1.17-.69-2.09-1.4-2.97-.07-.09-.27-.1-.24-.26.23-.98-.63-1.52-.89-2.3-.27-.8-.88-.85-1.52-.68-.25.07-.43.2-.49-.12-.22-1.09-.94-.35-1.36-.3-.47.05-.33.62-.23.92.29.87.11,1.76.11,2.63,0,.71.05,1.4.23,2.05.54,1.94,1.28,3.79.37,5.9-.31.72-.73,1.57-.65,2.48.04.43-.02.83-.29,1.27-.32.53.11,1.15.31,1.7.14.38.58.33.75.22.65-.39,1.64.46,2.08-.59,1.29,0,1.36-1.07,1.67-1.92v-.03c.52-.49.82-1.08.73-1.82.41-.31.25-.75.25-1.15,0-.34.82-.47.26-.96.05-.2-.19-.04-.2-.16ZM84.72,44.56c-.79,0-.8.75-1.18,1.13-1.24,1.21-1.17,1.41.17,1.98.58.24.69-.06.92-.3.37-.38.89-.87.6-1.36-.29-.47-.38-.96-.5-1.44Z"></path>
      <path class="cls-3" d="M68.88,18.47c-.66,1.4-.73,3.01-1.31,4.37-.61,1.45-1.08,2.92-1.56,4.4-.62,1.9-1.14,3.83-1.85,5.7-.56,1.48-.92,3.02-1.5,4.47-.31.79-.38,1.77-1.16,2.35-.14.1-.3.24-.22.39.7,1.31-.43,2.43-.4,3.67,0,.27-1.27.39-1.6.1-1-.89-2.34-.81-3.49-1.24-1.26-.48-2.59-.72-3.87-1.1-.48-.14-.26-.65-.2-.98.37-1.82,1.28-3.47,1.73-5.29.37-1.53.98-3.01,1.39-4.53.21-.79.42-1.57.75-2.31.07-.13.13-.26.2-.39.87-2.09,1.72-4.17,1.97-6.45.03-.3-.01-.71.37-.97.19-.13.46-.56-.14-.69-.03,0-.05-.25-.02-.26.7-.32.45-1.08.74-1.58.18-.3.24-.6.02-.91-.06-.08-.27-.17-.11-.29,1.01-.73.85-2,1.3-2.98.19-.42.14-1.05.29-1.6.16-.58.52-.27.59-.24.97.47,2.1.45,3.01.8,1.74.66,3.66.62,5.32,1.59.74.43.89.76.57,1.45-.44.18-.05.52-.15.77-.21.46-.43.91-.64,1.37-.28.12-.28.25-.02.4Z"></path>
      <path class="cls-7" d="M25.8,16.1c-.93.32-1.34,1.06-1.26,2.33,0,.14.17.35,0,.4-.83.24-1.44.85-2.19,1.21-.87.42-1.72.89-2.53,1.42-.92.6-1.51,1.51-2.15,2.32-.78.98-1.97,1.34-2.78,2.25-.85.95-2.2,1.28-3.29,1.96-.21.13-.44.37-.67.11-.2-.22-.18-.48-.04-.79.79-1.67,2.24-2.79,3.42-4.11.76-.85,1.85-1.45,2.88-2,.6-.32,1.1-.75,1.63-1.12.99-.69.81-2.72-.29-3-.8-.21-1.86-.61-2.56.39-.18.26-.23-.09-.36-.04-.66.24-1.32.48-1.99.68-1.57.47-3.14.58-4.74.11-1.04-.31-2.04-.72-3.06-1.09-1.51-.56-2.89-1.31-3.79-2.66-1.02-1.54-.11-4.22,1.48-5.25,1.31-.85,2.77-.84,4.19-1.09.9-.16,1.81-.25,2.7.11.18.07.37.11.54.19,1.13.48,2.26.96,3.43,1.36,1,.34,2.06.77,3,1.34.75.45,1.6.62,2.37,1.02.35.19.98.04,1.11-.28.15-.38.27-.81-.07-1.39-.6-1.02-1.6-1.58-2.25-2.42-.79-1.02-1.78-1.83-2.57-2.83-.15-.19-.36-.08-.55-.1-.07-.22-.19-.4-.41-.5-.77-.29-1.15-.98-1.59-1.59-.24-.32.62-1.41,1.2-1.44.99-.05,1.91.13,2.72.84.86.76,1.81,1.44,2.78,2.05.68.43.94,1.27,1.71,1.57-.44.7.48,1.02.46,1.6,0,.12,0,.3.06.36,1.26,1.02,1.33,2.77,2.43,3.92.29.3.3,1.15.33,1.75.05.87.43,1.62.69,2.42l.03-.02Z"></path>
      <path class="cls-3" d="M41.02,30.78c-.41,0-.86.26-1.15-.29-.08-.15-.26-.28-.49-.27-.91.07-1.71-.41-2.56-.61-.87-.21-1.76-.53-2.51-1.01-.33-.21-.68-.2-.99-.41-.85-.58-.96-1.3-1.18-2.28-.31-1.37.05-2.55.37-3.67.49-1.67.98-3.39,1.9-4.92.42-.7.91-1.4.99-2.26,0-.09.03-.23.09-.26,1.29-.6,2.13-1.77,3.27-2.55.22-.15.65-.04.97.02.4.08.77.32,1.19.17-.15.51.2.18.34.2.01.12.02.36.04.36.67.03,1.24.28,1.71.76.13.07.26.14.39.21.75-.06,1.25.69,2.03.6.23-.03.16.34.22.54.16.6-.36,1.02-.36,1.56-.41.52-.44,1.16-.53,1.77-.66,1.09-.52,2.49-1.33,3.53-.03.04.15.25.23.39,0,.07,0,.15,0,.22-.09.02-.18.03-.27.05-.15-.07-.18,0-.15.13-.49,1.58-1.02,3.14-1.43,4.74-.08.31-.59.78.02,1.13-.5.62-.89,1.29-.83,2.14Z"></path>
      <path class="cls-4" d="M47.72,13.57c-.27-.99.37-1.77.65-2.62.13-.38.38-.49.94-.39,1.45.25,2.61,1.15,3.97,1.58.51.16,1.12.94.56,1.97-.53.98-.78,2.15-1.07,3.28-.21.8-.85,1.51-.98,2.39-.2,1.34-.75,2.6-.95,3.95-.12.78-.55,1.52-.76,2.33-.61,2.38-1.42,4.72-2.02,7.1-.17.66-.87.97-.77,1.6-1.39-.1-2.54-.78-3.76-1.27-.71-.29-1.31-.79-1.3-1.7.6-1.01.63-2.14.73-3.26.53-.1.48-.34.16-.65-.02-.09-.04-.17-.06-.26.91-.12.28-1.27,1.01-1.5-.24-.89.29-1.61.51-2.41.2-.72.7-1.4.52-2.21.03-.03.06-.07.09-.1.06-.7,1.02-1.2.46-2.04.7.08.6-.6.62-.87.06-.59.68-1.17.1-1.79.47-.52.94-.99.97-1.82.02-.53-.35-.15-.4-.33h0c.44-.19.71-.51.78-.99Z"></path>
      <path class="cls-7" d="M104.8,37.85l-.05.39c-.43.35-.08.39.19.45-.59,1.45-.66,3.03-.98,4.54-.27,1.29-1.21,2.66-2.41,3.09-1.29.46-2.63.6-3.98.73-.51.05-1.87-.99-1.97-1.49-.02-.09-.03-.25-.02-.25,1.02-.25,1.37-1.18,1.82-1.92.6-1,1.52-1.79,1.96-2.89,0,0-.09-.06-.14-.09.13-.2.26-.4.38-.59.32-1.34.6-2.72.36-4.07-.04-.24.39-1.07-.48-1.19-.21-.03.53-.19.2-.78-.28-.51.15-1.47-.16-2.21-.11-.26.09-.47.17-.45.62.16,1.11-.6,1.74-.23.05.03.14.1.16.08,1.05-.83,1.96.65,3.05.19.24-.1.5.78.39,1.23-.36,1.41.24,2.88-.28,4.27-.04.1.12.28.19.42-.3.22-.1.52-.13.79Z"></path>
      <path class="cls-2" d="M55.43,24.73c-.69,1.34-1.06,2.8-1.44,4.25-.18.7-.58,1.31-.81,2.01-.45,1.36-.77,2.75-1.21,4.11-.23.74-.72.89-1.25.28-.28-.32-.67-.32-.99-.54-.61-.41-.57-.34-.18-.95.22-.35.27-.88.31-1.28.09-.88.51-1.66.68-2.5.16-.79.3-1.63.56-2.42.24-.76.8-1.53.78-2.22-.04-1.55.82-2.74,1.2-4.1.4-1.47.71-2.97,1.28-4.4.04-.1-.04-.25-.07-.38.04-.03.07-.07.11-.1.25-.55.53-1.09.73-1.67.17-.51.53-.22.8-.25.55-.07,1.07.49,1.68.04.26-.19.11.16.15.26.21.61-.02,1.13-.2,1.72-.43,1.41-.7,2.87-.97,4.32-.07.36-.18.69-.25,1.05-.05.08-.11.15-.16.23-.02.06-.03.13-.05.19-.3.28-.12.66-.18.98-.06.18-.12.36-.18.54-.24.23-.33.52-.34.84Z"></path>
      <path class="cls-2" d="M32.46,18.4c-.18.7-.58,1.31-.81,2.01-.45,1.36-.77,2.75-1.21,4.11-.78,1.23-2.03.34-1.99-.13.02-.24-.7-.49-.68-1.62,0-.4.09-.33.13-.73-.12-.81.82-1.86.75-2.48-.07-.65.68-1.66.94-2.45.21-.65.28-.56.28-.96,0-.16.06-.32.15-.45.61-.91,1.18-2.75,2.14-3.05.81-.26,1.61.87,2.3,1.69-1.08,1.39-1.5,2.95-2,4.06Z"></path>
      <path class="cls-3" d="M79.08,50.6c.03.1.07.19.2.12.14-.02.27-.03.41-.05.4.06.8.21,1.17-.08h.09s.09,0,.09,0c.04.49.54.21.79.5-1.08.11-.44,1.05-.77,1.58-.16.26-.31.46-.53.68-.43.43-.66.98-.54,1.62-.14,0-.27,0-.41,0l.02.09c.13-.03.26-.06.39-.09,0,.43-.51.45-.63.77-.15.38-.51.71-.28,1.2.07.15.07.39-.11.54-1.14.96-1.25,2.5-2.05,3.65-.98,1.4-1.6,3.03-2.85,4.27-.56.55-.9,1.31-1.35,1.98.1-.15.09-.25-.1-.3-.33-1.38.22-2.66.52-3.95.22-.91.65-1.76.69-2.72.01-.3.03-.64.3-.88.07-.06.2-.16.19-.21-.29-1.21.88-2.05.84-3.1-.04-1,.97-1.79.42-2.84-.14-.27.11-.5.34-.61.7-.33.57-.73.29-1.33-.23-.49-.48-1.15.14-1.65.18.37.54.07.78.21.51.45,1.21.27,1.77.54.06.02.13.04.19.06Z"></path>
      <path class="cls-4" d="M74.05,53.61c.02.89.08,1.79-1.08,2.03-.61.13-1.34.25-1.83.15-.72-.15-1.55-.17-2.2-.56-.28-.17-.86.11-.82-.43.03-.46-.08-1.04.56-1.28.14-.05.6-.11.27-.5-.31-.38-.46-.99-.14-1.22.3-.21.92-.05,1.36.08,1.11.31,2.15.88,3.37.83.47-.02.57.5.51.9Z"></path>
      <path class="cls-3" d="M65.73,57.56c-1.85-.31-3.56-.48-4.96-1.57-.39-.3-.52-.58-.29-1.1.16-.36.55-.68.43-1.16.24.11.28-.5.7-.11.76.71,1.8.4,2.74.51.77.09,1.6-.03,2.34.36.17.09.14.14.08.26-.4.75-.72,1.53-.71,2.4,0,.33-.27.4-.33.41Z"></path>
      <path class="cls-7" d="M62.03,72.71c-.44-.54-1.12.13-1.59-.31-.03-.03-.23.08-.24.06-.17-.34-.99-.2-.7-.79.09-.18.64-.43,1.03-.17.63.41,1.42.37,2.08.71.03.02.07.06.08.05,1.47-.89,2.86.41,4.36.15.66-.11,1.59-.11,2.28.46.82.68,1.91.55,2.88.71.29.05.6.05.7.28.14.33-.32.27-.47.42-.7.69-1.55.2-2.34.12-.38-.04-.76-.4-1.02.17-.05-.04-.1-.08-.15-.11,0-.44-.28-.48-.59-.38-1.07.32-2.03.22-3.01-.4-.6-.38-1.38-.47-2.08-.69-.4-.09-.8-.19-1.2-.28Z"></path>
      <path class="cls-7" d="M73.18,57.64c-.51.56-.29,1.31-.51,1.94-.18.53-1.11.87-1.61.56-.11-.07-.19-.15-.33-.11-1.04.29-1.82-.57-2.79-.67-.23-.02-1.12-.24-.23-.78.17-.1.06-.25-.02-.31-.48-.45-.49-.83,0-1.33.55-.54,1.01-.15,1.43.06.81.42,1.65.1,2.46.24.15.03,1.07-.09,1.17-.07.25.05.41.19.42.46Z"></path>
      <path class="cls-7" d="M65.98,64.1c.68.3,1.26.51,1.95.57.44.04,1.23-.08,1.38.18.42.71,1.03.4,1.54.55.08.02.17.1.2.17.37.94-.87,2.38-1.87,2.39-1.05.01-1.98-.34-2.95-.61-.91-.26-1.03-.66-.59-1.53.26-.5.41-1.07.34-1.74Z"></path>
      <path class="cls-7" d="M71.84,50.8c-1.09-.02-2.02-.43-2.76-1.23-.34-.37-.4-2.37-.12-2.78.12-.17.21-.1.38-.02.77.36,1.4,1.06,2.13,1.28.83.25,1.38,1.03,2.21,1.05.79.01.77.4.71.93-.02.18-.08.37-.04.54.22,1.1-.35.87-.97.59.04-.14-.02-.2-.16-.18-.28-.05-.56-.18-.83.04-.18-.08-.36-.16-.54-.23Z"></path>
      <path class="cls-4" d="M67.35,60.75c.16.08.35.19.55.29.19.1.32.37.58.29,1.1-.34,2.01.55,3.07.48.16,0,.25.15.27.34.04.53-.22,1.04-.46,1.41-.2.31-.86.16-1.31.15-1.06-.03-1.95-.69-2.98-.83-.46-.06-.57-.32-.42-.64.22-.49-.3-1.31.7-1.5Z"></path>
      <path class="cls-4" d="M67.99,70.96c-.44,0-.9-.19-1.3.08-.48.32-.58-.26-.88-.33-.25-.05-.5-.11-.75-.1-.13,0-.23,0-.35-.04-.34-.11-.45-.41-.19-.56.52-.3.09-1.56.85-1.21,1.2.56,2.45.44,3.66.72.31.07.82-.13.83.32.01.38-.36.81-.73.93-.35.12-.78-.02-1.14.19Z"></path>
      <path class="cls-4" d="M28.61,15.58c-.45,1.32-.92,2.63-1.35,3.96-.15.46-.24,1.1-.87.84-.49-.2-.78-.82-.59-1.38.3-.91.55-1.88,1.23-2.6.41-.44,1.13-.42,1.59-.81Z"></path>
      <path class="cls-5" d="M42.95,28.52c-.1,1.12-.13,2.25-.73,3.26-.2.08-.43.31-.61.1-.23-.28.23-.23.24-.35.09-.63-.34-.73-.82-.75-.06-.84.33-1.51.83-2.14.38.07.66-.71,1.09-.12Z"></path>
      <path class="cls-5" d="M46.94,14.55c.05.18.42-.2.4.33-.04.82-.5,1.29-.97,1.82-.13,0-.27,0-.4,0h0c.16-.79.28-1.6.97-2.14Z"></path>
      <path class="cls-5" d="M44.77,18.45c.1-.62.12-1.25.53-1.77.22,0,.44.01.66.02,0,0,0,0,0,0,.34.91-.81,1.2-.85,1.97,0,.07-.21-.16-.35-.22ZM45.63,17.21s0-.05-.02-.06c-.02-.01-.05-.01-.08-.02,0,.04.01.07.02.11.02,0,.05-.02.07-.03Z"></path>
      <path class="cls-5" d="M47.72,13.57c-.06.48-.34.8-.78.98-.36-.03-.57-.22-.58-.59,0,0,0,0,0,0,.45-.13.91-.26,1.36-.39Z"></path>
      <path class="cls-5" d="M55.95,23.36c.06-.33-.12-.7.18-.98.43.02.66.22.57.68-.1.46-.43.35-.74.3Z"></path>
      <path class="cls-5" d="M62.03,72.71c.4.09.8.19,1.2.28-.21.18.05.71-.36.64-.45-.07-.68-.51-.84-.93Z"></path>
      <path class="cls-5" d="M69.73,16.67c.69-.02.29.72.65.93-.06.07-.11.16-.19.2-.14.08-.23-.02-.31-.14-.19-.28-.2-.61-.23-.93.02-.02.05-.05.08-.06Z"></path>
      <path class="cls-5" d="M55.43,24.73c.01-.32.1-.61.34-.84.31.02.63.05,1.04.08-.51.28-.95.52-1.38.76Z"></path>
      <path class="cls-5" d="M81.04,50.58h-.09s-.09,0-.09,0c-.02-.29.13-.51.36-.64.24-.13.48-.02.55.21.14.43-.21.23-.39.27-.12.03-.24.1-.36.15Z"></path>
      <path class="cls-5" d="M99.6,39.8c-.13.2-.26.4-.38.59-.17-.25-.35-.51-.52-.77.41-.37.61.14.91.17Z"></path>
      <path class="cls-5" d="M55.78,28.06c-.07.13-.13.26-.2.39-.16-.36-.51.34-.65-.12-.04-.13-.05-.25.06-.34.29-.24.54-.04.79.07Z"></path>
      <path class="cls-5" d="M68.93,74.47c.05.04.1.08.15.11.03.3-.1.5-.4.52-.19.01-.26-.19-.27-.33-.03-.42.3-.29.52-.31Z"></path>
      <path class="cls-5" d="M77.13,50c-.24-.14-.6.16-.78-.21.17-.14.27-.38.59-.3.37.09.13.34.19.51Z"></path>
      <path class="cls-5" d="M72.59,51.71c-.07.24-.27.24-.46.22-.17-.02-.16-.15-.12-.28.06-.22.23-.17.38-.17.16,0,.23.07.2.23Z"></path>
      <path class="cls-5" d="M14.99,4.62c.21.1.34.28.41.5-.17.3-.41.17-.56.04-.26-.23.24-.31.15-.54Z"></path>
      <path class="cls-5" d="M104.8,37.85c.03-.27-.17-.57.13-.79.62.38.05.55-.13.79Z"></path>
      <path class="cls-5" d="M43.92,13.53c0-.18.1-.27.23-.29.06,0,.19.12.18.14-.05.11-.12.21-.21.28-.02.01-.14-.09-.2-.13Z"></path>
      <path class="cls-5" d="M71.98,67.16c-.19-.27-.39-.44-.21-.59.2-.17.24.07.26.22.01.09-.02.18-.05.38Z"></path>
      <path class="cls-5" d="M69.54,16.71c.1-.25-.29-.59.15-.77.17.24.18.48.04.74-.03.02-.05.04-.08.06-.04,0-.07-.02-.11-.03Z"></path>
      <path class="cls-5" d="M29.95,14.52c-.15-.06-.08-.14,0-.19.09-.06.12-.24.28-.16.03.02.03.12.02.17-.04.15-.15.19-.29.18Z"></path>
      <path class="cls-5" d="M63.63,38.18c-.31-.22-.17-.39-.22-.62.31.21.15.38.22.62Z"></path>
      <path class="cls-5" d="M41.28,12.64c-.14-.03-.49.31-.34-.2.23-.13.3,0,.34.2Z"></path>
      <path class="cls-5" d="M43.42,13.97c-.13-.07-.26-.14-.39-.21.08-.16.22-.2.38-.2h.01c0,.14,0,.28,0,.41Z"></path>
      <path class="cls-5" d="M104.94,38.69c-.27-.06-.62-.1-.19-.45.18.1.21.27.19.45Z"></path>
      <path class="cls-5" d="M73.41,51.75c-.03.14-.03.31-.24.3-.02,0-.06-.04-.06-.06-.01-.22.16-.21.3-.24h0Z"></path>
      <path class="cls-5" d="M71.84,50.8c.18.08.36.16.54.23-.3.19-.5.17-.54-.23Z"></path>
      <path class="cls-5" d="M79.7,50.68c-.14.02-.27.03-.41.05,0-.26.16-.34.39-.36l.02.02c0,.09,0,.19,0,.28Z"></path>
      <path class="cls-5" d="M68.88,18.47c-.25-.15-.25-.28.02-.4.21.15.19.28-.02.4Z"></path>
      <path class="cls-1" d="M56.72,14.42c-.05.06-.08.13-.11.14-.16.02-.23-.1-.26-.22-.02-.1.05-.18.16-.1.08.05.14.12.21.18Z"></path>
      <path class="cls-5" d="M63.52,41.3c.03.06.08.11.08.17,0,.05-.06.1-.09.15-.03-.05-.08-.11-.08-.16,0-.05.06-.1.09-.15Z"></path>
      <path class="cls-5" d="M79.08,50.6c-.06-.02-.13-.04-.19-.06.03-.13-.05-.31.13-.38.02.15.04.29.05.44Z"></path>
      <path class="cls-5" d="M62.62,38.66s.05.02.08.04c-.04.03-.07.06-.11.09-.01-.02-.04-.06-.04-.07,0-.02.05-.04.07-.05Z"></path>
      <path class="cls-5" d="M72.61,67.08c.19.05.21.15.1.3-.03-.1-.07-.2-.1-.3Z"></path>
      <path class="cls-5" d="M43.41,13.56c.03-.08.06-.17.08-.25.02.02.07.05.07.05-.04.07-.09.14-.14.21,0,0-.01-.01-.01-.01Z"></path>
      <path class="cls-5" d="M56.18,22.18c.05-.08.11-.15.16-.23-.05.08-.11.15-.16.23Z"></path>
      <path class="cls-5" d="M73.21,50.99c.14-.02.2.03.16.18-.05-.06-.11-.12-.16-.18Z"></path>
      <path class="cls-1" d="M54.31,16.59c-.01-.07-.06-.19-.03-.2.1-.07.12.02.14.1-.03.04-.07.07-.11.1Z"></path>
      <path class="cls-5" d="M73.41,51.75s.06-.06.09-.09c-.03.03-.06.06-.08.09,0,0,0,0,0,0Z"></path>
      <path class="cls-1" d="M25.77,16.11s.07.07.11.11c-.04,0-.08,0-.12,0,.01-.04.02-.09.04-.13,0,0-.03.02-.03.02Z"></path>
      <polygon class="cls-5" points="63.27 38.52 63.33 38.5 63.32 38.56 63.27 38.52"></polygon>
      <path class="cls-5" d="M79.67,50.37s.07-.05.1-.08c-.03.03-.05.07-.08.1,0,0-.02-.02-.02-.02Z"></path>
      <path class="cls-6" d="M92.36,41.23c-.31.85-.38,1.92-1.67,1.92-.44,1.05-1.43.19-2.08.59-.17.1-.61.15-.75-.22-.2-.56-.63-1.18-.31-1.7.27-.44.33-.83.29-1.27-.08-.91.34-1.76.65-2.48.9-2.11.17-3.96-.37-5.9-.18-.65-.23-1.34-.23-2.05,0-.86.18-1.76-.11-2.63-.1-.29-.24-.87.23-.92.42-.04,1.14-.79,1.36.3.07.32.24.19.49.12.65-.18,1.25-.12,1.52.68.26.78,1.12,1.32.89,2.3-.04.15.17.17.24.26.71.87,1.33,1.8,1.4,2.97.01.22-.04.54-.41.52-.04-.04-.09-.08-.13-.12,0,.05.02.09.03.14-.01.18-.05.36.2.41.05.06.11.12.16.17.4.71.12,1.43.05,2.15-.07.06-.14.12-.21.17-.07.15-.13.31-.2.46.07.05.13.11.2.16.57.49-.25.62-.26.96-.56.28-.33.73-.25,1.15.09.74-.21,1.32-.74,1.82-.41-.19-.52-.47-.38-.91.11-.35.17-.74-.09-1.07-.14-.32.37-.46.21-.78.05-.07.09-.13.14-.2h0c.18-.05.18-.12,0-.19-.08-.67-.15-1.34.22-1.96.37-.21.74-.52.82-.88.06-.28-.4-.31-.7-.28-.14-.12-.16-.28-.13-.44.2-1.15-.37-2.17-.76-3.14-.3-.74-.84-1.46-1.32-2.15-.15-.21-.07-.64-.51-.52-.41.11-.33.47-.32.78.02,1.04.06,2.03.47,3.05.55,1.38.45,2.89.35,4.37-.06.87-.4,1.65-.59,2.48-.16.68-.34,1.36-.64,1.99-.16.33-.08.71.1.88.2.19.4-.26.64-.3.45-.07.58-.72,1.13-.58.47.15.95.34,1.37-.12ZM93.11,32.61c-.16-.01-.26.05-.27.2,0,.18.05.33.27.26.12-.04.3-.12.3-.19.02-.18-.19-.2-.31-.27ZM91.26,29.88c-.03.09-.06.16-.07.24,0,.02.08.05.13.07.03-.08.07-.15.09-.23,0-.02-.08-.05-.14-.09Z"></path>
      <path class="cls-6" d="M84.72,44.56c.13.49.22.97.5,1.44.29.49-.23.98-.6,1.36-.23.24-.34.55-.92.3-1.33-.57-1.4-.78-.17-1.98.39-.38.39-1.14,1.18-1.13Z"></path>
      <path class="cls-5" d="M92.36,41.23c-.42.46-.9.27-1.37.12-.09-.13-.3-.31-.17-.4.62-.43.57-1.23,1.05-1.73.26.34.2.72.09,1.07-.14.44-.02.72.38.91,0,0,0,.03,0,.03Z"></path>
      <path class="cls-5" d="M93.09,39.39c-.08-.42-.31-.87.25-1.15,0,.4.16.84-.25,1.15Z"></path>
      <path class="cls-5" d="M93.59,37.27c-.07-.05-.13-.11-.2-.16.01.12.25-.04.2.16Z"></path>
      <path class="cls-5" d="M93.4,33.73s-.02-.09-.03-.14c.04.04.09.08.13.12,0,0-.05.03-.05.03h-.06Z"></path>
      <path class="cls-5" d="M93.59,36.65c.07-.06.14-.12.21-.17,0,.15-.05.23-.21.17Z"></path>
      <path class="cls-5" d="M93.76,34.32c-.05-.06-.11-.12-.16-.17.15-.03.19.04.16.17Z"></path>
      <path class="cls-6" d="M44.77,18.45c.13.06.34.28.35.22.03-.77,1.19-1.06.85-1.97.13,0,.27,0,.4,0,.58.62-.04,1.2-.1,1.79-.03.27.08.95-.62.87.56.84-.4,1.34-.46,2.04-.03-.05-.06-.09-.1-.14-.08.08-.07.16,0,.24.18.82-.32,1.49-.52,2.21-.22.8-.75,1.51-.51,2.41-.73.23-.11,1.38-1.01,1.5-.13.02-.35-.2-.37.06-.02.25.25.2.43.2.32.31.37.55-.16.65-.43-.59-.72.2-1.09.12-.61-.35-.1-.83-.02-1.13.41-1.6.94-3.16,1.43-4.74.05-.04.1-.09.15-.13.09-.02.18-.03.27-.05.08-.04.16-.08.24-.12l-.25-.1c-.08-.13-.26-.34-.23-.39.81-1.04.67-2.44,1.33-3.53Z"></path>
      <path class="cls-5" d="M43.68,22.37l.25.1c-.08.04-.16.08-.24.12,0-.07,0-.15,0-.22Z"></path>
      <path class="cls-5" d="M43.42,22.64s-.1.09-.15.13c-.03-.13,0-.2.15-.13Z"></path>
      <path class="cls-5" d="M43.11,27.87c-.18,0-.45.05-.43-.2.02-.26.24-.03.37-.06.02.09.04.17.06.26Z"></path>
      <path class="cls-6" d="M79.98,54.96c-.13.03-.26.06-.39.09l-.02-.09c.14,0,.27,0,.41,0,0,0,0,0,0,0Z"></path>
      <path class="cls-6" d="M45.63,17.21s-.05.02-.07.03c0-.04-.01-.07-.02-.11.03,0,.06,0,.08.02.01,0,.01.04.02.06Z"></path>
      <path class="cls-8" d="M91.88,39.22c-.48.5-.43,1.3-1.05,1.73-.13.09.08.27.17.4-.54-.14-.68.5-1.13.58-.24.04-.43.49-.64.3-.18-.17-.26-.55-.1-.88.31-.63.48-1.31.64-1.99.2-.83.54-1.61.59-2.48.09-1.48.2-2.99-.35-4.37-.41-1.02-.46-2.02-.47-3.05,0-.31-.09-.67.32-.78.45-.12.36.3.51.52.48.7,1.03,1.42,1.32,2.15.39.97.96,1.99.76,3.14-.03.16-.01.32.13.44-.39.35-.31.75-.12,1.16-.37.62-.3,1.29-.22,1.96.01.06,0,.13,0,.19h0c-.14,0-.25.02-.14.2.16.32-.35.46-.21.78Z"></path>
      <path class="cls-5" d="M92.45,36.09c-.18-.41-.27-.81.12-1.16.3-.03.76,0,.7.28-.08.36-.45.67-.82.88Z"></path>
      <path class="cls-5" d="M93.11,32.61c.12.07.32.09.31.27,0,.07-.19.15-.3.19-.22.07-.28-.08-.27-.26,0-.15.11-.21.27-.2Z"></path>
      <path class="cls-1" d="M91.26,29.88c.06.04.15.07.14.09-.02.08-.06.15-.09.23-.05-.02-.13-.05-.13-.07,0-.08.04-.16.07-.24Z"></path>
      <path class="cls-5" d="M92.09,38.43c-.12-.18,0-.19.14-.2-.05.07-.09.13-.14.2Z"></path>
      <path class="cls-5" d="M92.22,38.24c.02-.06.02-.13,0-.19.17.07.17.14,0,.19Z"></path>
      <path class="cls-1" d="M45.1,21.5c-.08-.08-.09-.16,0-.24.03.05.06.09.1.14-.03.03-.06.07-.09.1Z"></path>
    </g>
  </g>
</svg>