<svg width="37" height="28" viewBox="0 0 37 28" fill="none" xmlns="http://www.w3.org/2000/svg">
<g clip-path="url('#clip0_84_66')">
<path d="M34.9129 15.5135C36.3862 16.906 36.7545 18.7525 37 20.6292C37.0307 20.8108 37 21.0681 36.8773 21.2043C36.555 21.5979 32.7951 21.9006 32.3347 21.6433C31.6288 21.2649 30.9843 21.5525 30.3397 21.8249C29.5417 22.173 28.759 22.4454 27.8536 22.1276C27.5313 22.0216 27.0096 22.0216 26.7794 22.2184C25.6744 23.1114 24.4007 23.0962 23.1116 23.0811C21.3314 23.0508 19.7661 24.1254 18.032 24.1103C17.3107 24.1103 16.3899 24.6552 16.3132 24.5946C14.5637 22.96 13.2899 25.987 11.6632 25.0335C11.433 24.2768 12.5687 24.5946 12.538 23.8681C11.7246 23.7016 11.2642 24.0195 11.0187 24.7611C10.3588 25.2908 9.76029 25.9719 8.77812 25.3968C9.02366 25.3665 9.33059 25.427 9.37663 25.0638C9.39198 24.867 9.23851 24.7914 9.0697 24.8368C8.73208 24.9125 8.71674 25.1546 8.80881 25.427C7.91873 25.4422 7.2128 25.9719 6.7831 26.6076C6.06182 27.667 5.11035 28 3.92868 28.0152C2.07178 28.0606 0.705953 27.4097 0.138139 25.533C-0.306905 24.0497 0.55249 22.4908 2.05643 21.8249C3.0386 21.386 2.76236 20.2054 3.08463 19.4033C3.33018 18.7827 3.52968 18.2984 4.0668 17.8746C4.80342 17.2995 5.20243 16.5579 5.55539 15.6346C6.13855 14.0908 7.8113 13.3946 9.17713 12.5168C9.56078 12.2746 9.56079 12.7135 9.66821 12.9103C9.77563 13.1222 9.85237 13.2887 10.1133 13.107C10.2667 13.0011 10.5429 12.9557 10.4509 12.6681C9.65286 10.0043 12.0929 9.23245 13.4434 7.88542C13.7043 7.62813 14.0419 7.4011 14.2568 7.05299C14.5176 6.59894 14.6404 6.11461 15.3924 6.78056C16.1597 7.47678 16.5587 7.17407 16.5127 6.06921C16.482 5.32759 16.9424 5.05515 17.5255 4.91894C18.6765 4.66164 19.9349 4.6011 20.6255 3.40542C22.3596 4.55569 21.9453 1.77083 23.4185 1.96759C24.6616 2.13407 25.7972 1.15029 26.9635 0.62056C27.8996 0.196776 29.066 0.696235 30.0021 0.0605597C30.1249 -0.0302511 30.4471 0.0605597 30.6313 0.166506C31.859 0.877857 32.5342 3.57191 31.813 4.9038C31.6442 5.22164 31.2298 5.67569 31.7362 5.78164C32.7031 5.9784 32.3961 6.76542 32.5342 7.24975C32.8105 8.2184 32.7184 9.32326 33.9154 9.80759C32.8872 11.1092 35.7723 12.1838 34.1303 13.5914C33.7773 13.8941 34.207 14.3784 34.6981 14.4843C35.8184 14.7265 34.959 15.0595 34.7441 15.3773C34.6367 15.4984 34.5293 15.6043 34.4218 15.7254C34.3911 15.8465 34.3605 15.9676 34.3298 16.0887C34.4679 16.0433 34.5906 16.013 34.7134 15.9676C34.7902 15.8314 34.8669 15.6952 34.9436 15.5589L34.9129 15.5135ZM10.0212 19.1157C10.0212 19.1157 10.0979 19.1611 10.1286 19.1914C10.0826 19.1762 10.0519 19.146 10.0058 19.1308C9.95979 19.1157 9.9291 19.1006 9.88306 19.0703C9.9291 19.0703 9.97514 19.1006 10.0058 19.1157H10.0212ZM18.6305 5.28218C18.4463 5.22164 18.3849 5.28218 18.477 5.4638C18.523 5.40326 18.5691 5.32759 18.6151 5.26705C18.6765 5.17624 18.7532 5.08542 18.8146 4.99461C18.7686 4.97948 18.7225 4.96434 18.6765 4.94921C18.6612 5.05515 18.6458 5.1611 18.6151 5.28218H18.6305ZM14.8553 11.8357C14.932 12.1384 14.978 12.5622 15.4077 12.0627C17.9399 10.6703 20.5334 9.35353 23.0042 7.87029C24.1858 7.15894 25.3215 7.82488 26.4724 7.61299C26.7794 9.20218 28.268 8.99029 29.5417 9.77732C28.6363 8.36975 27.4853 7.34056 27.3625 6.20542C27.1784 4.63137 26.5492 5.04002 25.6898 5.31245C25.613 5.25191 25.521 5.19137 25.4289 5.13083C25.3215 4.9038 25.3215 4.31353 24.9532 4.93407C24.7997 5.20651 25.1066 5.70596 24.5541 5.82705C23.3111 6.08434 22.2062 6.68975 21.0398 7.15894C19.9656 7.58272 19.6894 8.58164 18.83 9.06596C17.6483 9.74705 16.083 9.86813 15.3617 11.2757C15.331 11.3362 15.1622 11.3514 15.0701 11.3816C14.9934 11.0335 15.2696 10.5492 14.8553 10.3676C14.4409 10.186 14.4102 10.7006 14.2261 10.8973C14.0112 11.1243 13.7964 11.3816 13.4281 11.3362C13.2593 10.9276 13.8731 10.2768 13.1672 10.1406C12.8756 10.08 12.3692 10.5643 12.3078 11.0941C12.2464 11.6087 11.9395 12.0022 11.5251 12.4562C12.5533 12.5319 12.6607 11.3968 13.4281 11.3362C13.5662 12.3957 14.0573 12.4562 14.7785 11.7752L14.8706 11.8508L14.8553 11.8357ZM7.39695 16.1795C5.70886 16.4216 7.2128 18.2681 6.09251 18.8281C6.06182 18.8281 6.49152 19.267 6.69102 19.0854C7.09003 18.707 7.8113 18.0562 7.4123 17.7081C6.66033 17.0573 7.4123 16.6941 7.42765 16.2097C7.48903 16.1038 7.56576 15.9827 7.62715 15.8616C7.62715 15.8616 7.56576 15.8011 7.51972 15.7708C7.48903 15.907 7.44299 16.0433 7.4123 16.1946L7.39695 16.1795ZM30.5853 17.7384C31.859 17.8141 32.212 17.5416 31.6288 16.2249C31.1531 15.1503 30.1095 14.1665 30.5546 12.7892C29.8179 12.9254 30.263 11.533 29.6031 11.9416C29.1427 12.2292 28.2066 12.8346 28.8051 13.5611C29.5877 14.4995 29.6031 15.4681 29.3729 16.5125C29.1427 17.6022 29.2655 18.2379 30.5699 17.7535L30.5853 17.7384ZM6.89052 20.4476C6.82914 20.1903 6.72171 19.8573 6.41479 19.9935C6.12321 20.1297 5.61678 20.1752 5.67816 20.6595C5.7242 21.053 6.03113 21.0984 6.38409 21.053C6.76775 21.0076 6.96725 20.8562 6.89052 20.4476ZM27.8229 1.77083C27.915 1.36218 27.4546 1.55894 27.1784 1.55894C26.9175 1.55894 26.5031 1.68002 26.7333 1.95245C26.9328 2.19461 27.0709 2.69407 27.5313 2.6184C27.915 2.55786 27.7462 2.19461 27.8229 1.77083ZM10.4969 21.0076C10.2514 20.3416 10.19 19.8876 9.62217 19.9935C9.4994 20.0087 9.31524 20.266 9.34594 20.3416C9.4994 20.7352 9.95979 20.6746 10.4969 21.0227V21.0076ZM13.6736 23.5806C13.4434 23.5957 13.2746 23.7168 13.2439 23.9438C13.2286 24.1103 13.3206 24.2616 13.5201 24.1557C13.6583 24.0952 13.781 23.9892 13.8731 23.8681C13.9959 23.6865 13.8424 23.6108 13.6889 23.5806H13.6736ZM29.0967 1.5438C29.0813 1.28651 28.9125 1.28651 28.7744 1.31678C28.6823 1.33191 28.5595 1.40759 28.5288 1.48326C28.4675 1.66488 28.5902 1.8011 28.759 1.77083C28.8818 1.75569 29.0046 1.61948 29.0967 1.5438ZM5.17173 17.8292C5.07966 17.7989 4.97223 17.7233 4.91085 17.7535C4.80342 17.7989 4.58857 17.8595 4.81877 18.026C4.88015 18.0714 5.00293 18.0714 5.07966 18.026C5.1257 18.0108 5.14104 17.8897 5.17173 17.8141V17.8292ZM27.0863 3.4811C27.0863 3.37515 27.1016 3.32975 27.1016 3.26921C27.0709 3.28434 27.0249 3.29948 27.0249 3.31461C27.0249 3.36002 27.0556 3.39029 27.0863 3.4811Z" fill="#F5CC43"></path>
<path d="M10.988 24.7611C11.2336 24.0346 11.694 23.7016 12.5073 23.8681C12.538 24.5795 11.4024 24.2616 11.6326 25.0335C11.4177 24.9427 11.2029 24.8519 10.988 24.7611Z" fill="#D0D7C9"></path>
<path d="M15.0547 11.3816C15.1622 11.3514 15.3156 11.3362 15.3463 11.2757C16.0676 9.86813 17.6176 9.74705 18.8146 9.06597C19.674 8.56651 19.9656 7.58273 21.0245 7.15894C22.1754 6.68975 23.2804 6.08435 24.5388 5.82705C25.0912 5.70597 24.7843 5.20651 24.9378 4.93408C25.3061 4.31354 25.3214 4.90381 25.4135 5.13083C25.1987 5.23678 25.0452 5.46381 25.26 5.61516C25.5056 5.79678 25.567 5.46381 25.6744 5.31246C26.5338 5.04002 27.1783 4.61624 27.3471 6.20543C27.4699 7.3557 28.6209 8.38489 29.5263 9.77732C28.2526 8.99029 26.764 9.20219 26.4571 7.613C25.3214 7.82489 24.1858 7.15894 22.9888 7.87029C20.518 9.35354 17.9245 10.6854 15.3923 12.0627C15.2849 11.7903 15.0701 11.8054 14.8399 11.8357L14.7478 11.76C14.8399 11.6389 14.9473 11.5027 15.0394 11.3816H15.0547Z" fill="#FDFDFD"></path>
<path d="M30.5853 17.7384C29.2808 18.2379 29.1581 17.5871 29.3883 16.4973C29.6031 15.453 29.6031 14.4995 28.8204 13.546C28.2219 12.8346 29.1734 12.2141 29.6185 11.9265C30.2783 11.5179 29.8333 12.9103 30.5699 12.7741C30.1249 14.1514 31.1684 15.1352 31.6442 16.2098C32.2273 17.5265 31.8744 17.8141 30.6006 17.7233L30.5853 17.7384Z" fill="#FDFDFD"></path>
<path d="M7.42763 16.1946C7.39694 16.679 6.66032 17.0271 7.41229 17.693C7.82664 18.0563 7.09002 18.6919 6.69101 19.0703C6.49151 19.2671 6.06181 18.8282 6.0925 18.813C7.22813 18.253 5.70885 16.4217 7.39694 16.1644H7.42763V16.1946Z" fill="#D0D7C9"></path>
<path d="M13.4127 11.3211C12.63 11.3816 12.538 12.5168 11.5098 12.4411C11.9241 11.987 12.231 11.5935 12.2924 11.0789C12.3538 10.5492 12.8449 10.08 13.1518 10.1254C13.8578 10.2616 13.2439 10.9276 13.4127 11.3211Z" fill="#D0D7C9"></path>
<path d="M15.0548 11.3817C14.9627 11.5027 14.8553 11.639 14.7632 11.76C14.0419 12.4411 13.5508 12.3806 13.4127 11.3211C13.7964 11.3968 13.9959 11.1244 14.2107 10.8973C14.4102 10.6854 14.4256 10.1708 14.8399 10.3676C15.2543 10.5492 14.978 11.0336 15.0548 11.3817Z" fill="#D0D7C9"></path>
<path d="M6.89047 20.4476C6.9672 20.8411 6.7677 21.0076 6.38404 21.053C6.03107 21.0984 5.7088 21.053 5.67811 20.6595C5.63207 20.1752 6.1385 20.1298 6.41473 19.9936C6.72166 19.8573 6.82908 20.1903 6.89047 20.4476Z" fill="#FDFDFD"></path>
<path d="M27.8229 1.77084C27.7462 2.20976 27.8996 2.55787 27.5313 2.61841C27.0709 2.69408 26.9482 2.19462 26.7333 1.95246C26.5031 1.68003 26.9175 1.55895 27.1784 1.55895C27.4546 1.55895 27.8996 1.36219 27.8229 1.77084Z" fill="#D0D7C9"></path>
<path d="M10.4969 21.0076C9.94445 20.6595 9.49941 20.72 9.34595 20.3265C9.31525 20.2509 9.51475 20.0087 9.62218 19.9784C10.2053 19.8876 10.2514 20.3417 10.4969 20.9925V21.0076Z" fill="#D0D7C9"></path>
<path d="M13.6736 23.5806C13.8271 23.6108 13.9805 23.6865 13.8578 23.8681C13.781 23.9892 13.6429 24.0952 13.5048 24.1557C13.3053 24.2465 13.2132 24.1103 13.2286 23.9438C13.2593 23.7168 13.4281 23.5957 13.6583 23.5806H13.6736Z" fill="#D0D7C9"></path>
<path d="M29.0967 1.5438C28.9893 1.61947 28.8818 1.74055 28.7591 1.77083C28.5903 1.8011 28.4675 1.66488 28.5289 1.48326C28.5596 1.40758 28.6823 1.34704 28.7744 1.31677C28.9125 1.2865 29.0813 1.2865 29.0967 1.5438Z" fill="#D0D7C9"></path>
<path d="M8.7781 25.4119C8.68602 25.1395 8.70137 24.8973 9.03899 24.8216C9.2078 24.7913 9.36126 24.867 9.34591 25.0486C9.29987 25.4119 8.99295 25.3513 8.74741 25.3816L8.7781 25.4119Z" fill="#FDFDFD"></path>
<path d="M14.8552 11.8357C15.0854 11.8054 15.3003 11.8054 15.4077 12.0627C14.978 12.5622 14.932 12.1384 14.8552 11.8357Z" fill="#D0D7C9"></path>
<path d="M5.17176 17.8292C5.17176 17.8292 5.12573 18.0108 5.07969 18.0411C5.00296 18.0714 4.88018 18.0714 4.8188 18.0411C4.5886 17.8746 4.8188 17.8141 4.91088 17.7687C4.97226 17.7384 5.07969 17.8141 5.17176 17.8443V17.8292Z" fill="#FDFDFD"></path>
<path d="M7.39694 16.1795C7.42763 16.0432 7.47367 15.907 7.50436 15.7557C7.53505 15.7859 7.61179 15.8314 7.61179 15.8465C7.5504 15.9676 7.48902 16.0735 7.41228 16.1946L7.38159 16.1795H7.39694Z" fill="#D0D7C9"></path>
<path d="M27.0863 3.48112C27.0556 3.39031 27.0402 3.36004 27.0249 3.31463C27.0249 3.31463 27.0709 3.28436 27.1016 3.26923C27.1016 3.32977 27.1016 3.39031 27.0863 3.48112Z" fill="#D0D7C9"></path>
<path d="M18.6151 5.28216C18.6151 5.28216 18.523 5.41838 18.477 5.47892C18.3849 5.2973 18.4463 5.23676 18.6305 5.2973H18.6151V5.28216Z" fill="#FDFDFD"></path>
<path d="M18.6305 5.28219C18.6458 5.17625 18.6612 5.0703 18.6919 4.94922C18.7379 4.96435 18.784 4.97949 18.83 4.99462C18.7686 5.08543 18.6919 5.17625 18.6305 5.26706H18.6458L18.6305 5.28219Z" fill="#FDFDFD"></path>
<path d="M34.3759 15.68C34.4833 15.5589 34.5907 15.453 34.6981 15.3319C34.7749 15.3924 34.8362 15.453 34.913 15.5135C34.8362 15.6497 34.7595 15.786 34.6828 15.9222C34.5754 15.8465 34.4833 15.7557 34.3759 15.68Z" fill="#FDFDFD"></path>
<path d="M34.6827 15.9222C34.5446 15.9676 34.4218 15.9978 34.2991 16.0432C34.3298 15.9222 34.3605 15.8011 34.3911 15.68C34.4986 15.7557 34.5907 15.8465 34.6981 15.9222H34.6827Z" fill="#FDFDFD"></path>
<path d="M10.0212 19.1157C10.0212 19.1157 9.92913 19.0854 9.89844 19.0703C9.94448 19.0854 9.97517 19.1006 10.0212 19.1309V19.1157Z" fill="#D0D7C9"></path>
<path d="M10.0211 19.1309C10.0211 19.1309 10.0978 19.1763 10.1439 19.1914C10.1132 19.1611 10.0672 19.146 10.0365 19.1157L10.0211 19.1309Z" fill="#D0D7C9"></path>
<path d="M25.6744 5.31248C25.567 5.46383 25.5056 5.79681 25.2601 5.61518C25.0452 5.46383 25.1987 5.25194 25.4136 5.13086C25.5056 5.1914 25.5824 5.25194 25.6744 5.31248Z" fill="#F5CC43"></path>
</g>
<defs>
<clipPath id="clip0_84_66">
<rect width="37" height="28" fill="white"></rect>
</clipPath>
</defs>
</svg>
