<svg width="53" height="72" viewBox="0 0 53 72" fill="none" xmlns="http://www.w3.org/2000/svg">
<g clip-path="url(#clip0_84_92)">
<path d="M25.6383 42.1354C25.5665 42.3141 25.5126 42.4748 25.4408 42.6534C23.6274 42.5641 22.0116 43.9931 20.0366 43.5644C20.1623 44.2788 20.3239 45.1719 20.4855 46.0471C20.9882 46.7259 21.06 47.226 20.27 47.869C19.3005 48.6728 18.2233 49.3515 17.0563 49.6016C16.2484 49.7802 15.9791 50.316 15.0634 50.9233L17.1461 50.6911L17.1102 50.6554C16.769 51.5485 16.392 52.4594 15.1711 52.2272C14.5786 52.1201 14.3632 52.6023 14.453 52.7988C14.9736 54.0848 13.7348 54.2992 13.2321 54.9601C11.2213 57.6572 9.30019 60.3721 7.72025 63.3907C6.35575 65.9806 6.06849 68.6956 5.65555 71.4284C5.56578 72.0714 5.17079 72 4.68603 71.9464C2.11862 71.6428 0.430953 69.4637 0.6464 66.8201C0.700262 66.2128 0.6464 65.5162 0.359137 64.9804C-0.68219 62.9442 0.664354 61.9975 2.06476 61.0509C3.55494 60.0506 4.68603 58.6753 4.75785 56.907C4.79376 55.8531 5.06307 55.1387 5.6735 54.3885C6.21212 53.7276 6.44552 53.0489 6.30189 52.0843C6.01463 50.2267 8.04342 49.3872 8.56408 47.7976C8.88725 46.7616 9.62336 46.6008 10.1081 47.9226C10.4852 47.3332 10.3774 46.9223 10.1979 46.5294C9.51564 45.0112 9.5695 43.5465 10.3236 42.0283C10.8442 40.9923 11.5265 40.0278 11.0956 38.6703C10.8442 37.8844 11.6881 38.2059 12.1369 38.2238C12.5139 38.2595 12.9448 38.2773 13.0526 37.7951C13.1244 37.5093 12.9448 37.2771 12.7294 37.0092C11.8137 35.8839 12.0831 35.098 13.5014 34.8301C13.8964 34.7586 14.04 34.705 14.0759 34.3478C14.2196 32.8296 14.2555 32.8474 15.2429 31.1327C15.3686 30.9184 15.9611 30.0074 14.848 29.936L14.8839 29.9717C14.3093 28.5071 15.7457 27.6676 16.0868 26.453C16.7152 24.2382 17.3615 21.6839 20.0726 20.7194C20.306 20.6301 20.4316 20.2193 20.6112 19.9514C19.9469 19.4512 19.4442 20.2907 18.7799 20.1657C19.1389 19.2726 19.3005 18.3617 20.4137 18.2367C20.9702 18.1831 21.3114 17.7187 21.1139 17.3257C20.5214 16.2362 21.473 15.8075 21.9577 15.2538C22.6938 14.4143 23.1247 12.9854 23.6274 12.5924C24.8842 11.5922 24.9201 9.32374 27.0207 9.25229C27.2003 9.25229 27.5414 8.96651 27.5414 8.82361C27.3798 4.85834 31.186 4.28677 32.9635 2.19697C34.2562 2.50062 32.5146 3.42942 33.4841 3.53659C34.3459 3.62589 33.9868 2.73282 34.1843 2.26841C35.2077 -0.160759 37.9726 -0.785914 40.0732 0.910935C42.2277 2.64351 42.3713 2.91143 43.4665 6.84098C43.5204 7.00173 43.682 7.19821 43.8256 7.25179C45.1183 7.78764 45.8364 8.85934 46.5546 9.98462C47.5959 11.61 49.7683 11.5922 51.0969 13.0568C52.228 14.3071 53.5387 16.7542 52.7846 18.3081C52.5871 18.7189 52.7128 20.3265 51.2765 19.094C50.8815 18.7546 50.1992 19.8442 50.0736 20.4872C49.912 21.3446 49.4631 21.934 48.745 22.1841C47.8293 22.5056 47.3446 23.1843 47.0932 23.9702C46.6803 25.292 46.3032 25.0598 45.8903 23.9345C45.1901 24.8097 45.6749 26.06 44.6874 26.5244C44.2744 26.7209 44.4181 25.8993 43.9872 25.7207C43.6461 26.8995 42.1738 27.5783 41.9404 28.2213C41.1146 30.3647 39.2473 30.3647 37.7392 31.1327C37.6854 31.1684 37.6135 31.1684 37.5776 31.222C37.0749 31.6864 35.7463 30.972 35.9079 31.74C36.1234 32.7938 37.0929 31.222 37.7213 31.8829C37.2724 32.8296 35.9618 33.0082 35.4411 34.0442C35.3154 34.2942 34.7948 34.2406 34.5255 33.812C34.328 33.4904 35.1538 32.6152 34.0587 32.8653C33.3764 33.026 33.0173 33.9906 33.1251 34.3121C33.8432 36.5448 32.8557 36.2947 31.0424 35.2766C32.0837 36.9199 31.4553 37.6879 30.2345 38.1166C28.7263 38.6524 27.9184 40.0099 26.7514 40.9566C26.1051 41.0995 24.8483 40.6887 25.6383 42.1533V42.1354ZM6.31984 54.4063C6.15826 54.4957 6.01463 54.6385 6.21212 54.7814C6.28393 54.835 6.49938 54.71 6.66097 54.6564C6.66097 54.5314 6.69687 54.3885 6.71483 54.2635C6.58915 54.317 6.46347 54.3528 6.3378 54.4063H6.31984ZM20.3239 27.4711C20.9523 28.4713 21.2216 27.8819 21.4909 27.221C21.6705 26.7924 22.0834 26.1851 21.437 25.9886C20.8984 25.81 20.665 26.3637 20.7009 26.9531C20.7009 27.1139 20.4496 27.3103 20.306 27.489C19.7853 26.453 18.8696 26.5959 17.559 26.7566C18.4747 27.1853 18.2592 28.0427 18.8517 28.3999C19.4801 28.1677 19.6417 27.4175 20.3239 27.4711ZM24.0583 15.7003C24.956 15.1823 25.4767 14.4143 25.5126 13.3605C25.5126 12.8961 25.2612 12.6281 24.8842 12.6103C24.4533 12.5924 24.5251 12.9854 24.5431 13.289C24.6149 14.1285 24.0404 14.7894 23.8608 15.5574C23.7172 15.6646 23.6454 15.7896 23.8608 15.9147C23.8788 15.9147 23.9865 15.7896 24.0583 15.7182V15.7003ZM23.1247 22.2734C22.4604 22.8271 21.7602 23.3451 21.1677 23.9702C20.9164 24.2203 19.8391 23.738 20.3957 24.7026C20.7907 25.3992 21.1857 24.5418 21.6166 24.5597C21.832 24.5597 22.0475 24.3453 22.2629 24.2203C22.4425 24.9883 23.2324 25.167 23.3402 24.5597C23.5736 23.22 25.0997 22.6842 25.0637 21.3089C25.8537 21.3267 26.3026 20.8802 26.6796 20.2372C27.7748 18.3081 30.1088 17.2721 30.3781 14.6465C30.4858 13.6462 31.0065 13.6998 30.2524 12.8246C30.1447 12.6996 30.037 12.5924 29.9831 12.5388C27.703 15.1109 25.4587 17.6294 24.8663 21.1302C24.2917 21.5232 23.7172 21.9161 23.1427 22.3091L23.1247 22.2734ZM37.2904 8.94864C38.4035 8.62714 39.4448 8.05556 39.6603 6.94815C39.7321 6.55519 38.1342 6.53733 37.9367 5.50136C37.9367 5.44777 37.0929 5.44778 36.7158 5.59067C36.3029 5.75142 36.6799 6.10865 36.7158 6.37658C36.8954 7.21607 37.0749 8.0377 37.2545 8.94864H37.2904ZM44.059 14.7179C43.8256 14.9323 43.5204 15.2359 43.2152 15.486C42.9279 15.7182 43.0895 15.9861 43.2511 16.0933C44.2565 16.6827 45.244 17.29 46.3032 17.7723C46.5366 17.8794 46.9496 17.3436 46.788 16.9685C46.3032 15.8253 45.3876 15.1109 44.059 14.7179ZM17.164 33.937C16.7152 35.0801 17.7206 36.3483 15.8175 36.7591C17.5231 37.1878 17.8283 36.1697 18.2053 35.3659C18.6542 34.4192 17.577 34.5621 17.164 33.937ZM43.1433 18.0402C43.4306 17.29 44.0949 18.326 44.4719 17.5401C43.8974 17.29 43.4127 16.8613 42.7484 17.2721C42.4611 17.4508 42.3713 17.7723 42.4791 18.1116C42.7304 18.9333 43.4306 18.7368 44.059 18.8082C43.8256 18.3974 43.1793 18.4689 43.1613 18.0402H43.1433ZM18.8876 22.8271C18.8876 23.9166 18.349 24.6668 17.3974 25.2741C18.6422 25.4766 19.1389 24.6609 18.8876 22.8271ZM48.4218 21.2553C48.1525 21.2017 47.9909 21.1302 47.8293 21.166C47.7575 21.166 47.6677 21.3624 47.6677 21.4696C47.6498 21.7197 47.8293 21.7911 48.0089 21.7018C48.1525 21.6304 48.2423 21.4696 48.4218 21.2553Z" fill="#F5CC43"/>
<path d="M20.4855 46.0471C20.3239 45.1719 20.1623 44.2788 20.0366 43.5644C22.0295 43.9931 23.6274 42.5641 25.4408 42.6534C25.4408 43.618 23.8429 43.1178 24.0044 44.2253C22.5861 44.1895 21.1857 44.1895 20.8266 46.0293H20.665L20.5034 46.0471H20.4855Z" fill="#D0D7C9"/>
<path d="M20.8087 46.0293C21.1678 44.1895 22.5682 44.1895 23.9866 44.2252C23.1427 45.2076 22.1553 45.9221 20.8087 46.0293Z" fill="#F5CC43"/>
<path d="M25.6383 42.1354C24.8483 40.6708 26.1051 41.0995 26.7514 40.9387C26.7335 41.6532 26.141 41.8675 25.6383 42.1354Z" fill="#D0D7C9"/>
<path d="M17.164 50.6912C17.2717 50.5661 17.3794 50.4411 17.4692 50.3339C17.523 50.4054 17.5589 50.459 17.6128 50.5304C17.4512 50.584 17.2896 50.6197 17.1281 50.6733L17.164 50.709V50.6912Z" fill="#F5CC43"/>
<path d="M14.8479 29.9717C14.7941 30.061 14.7582 30.1682 14.7043 30.2575C14.5248 30.0253 14.6504 29.9717 14.8659 29.9896L14.83 29.9539L14.8479 29.9717Z" fill="#F5CC43"/>
<path d="M24.8483 21.0945C25.4407 17.6115 27.685 15.0752 29.9651 12.5031C30.019 12.5567 30.1447 12.6639 30.2344 12.7889C30.9885 13.6641 30.4678 13.6105 30.3601 14.6108C30.0908 17.2364 27.7568 18.2724 26.6616 20.2015C26.2846 20.8623 25.8357 21.3089 25.0458 21.2731C24.9739 21.2196 24.9201 21.1481 24.8483 21.0767V21.0945Z" fill="#FDFDFD"/>
<path d="M37.2904 8.94864C37.0929 8.0377 36.9134 7.21607 36.7518 6.37657C36.6979 6.10865 36.3209 5.75142 36.7518 5.59067C37.1288 5.44777 37.9726 5.44777 37.9726 5.50136C38.1522 6.53733 39.768 6.55519 39.6962 6.94814C39.4808 8.05556 38.4395 8.62713 37.3263 8.94864H37.2904Z" fill="#FDFDFD"/>
<path d="M44.059 14.718C45.3876 15.093 46.3032 15.8075 46.788 16.9685C46.9495 17.3615 46.5366 17.8795 46.3032 17.7723C45.2439 17.29 44.2385 16.7006 43.251 16.0933C43.0894 16.004 42.9279 15.7182 43.2151 15.486C43.5383 15.2181 43.8256 14.9323 44.059 14.718Z" fill="#FDFDFD"/>
<path d="M25.0458 21.291C25.0817 22.6663 23.5556 23.22 23.3222 24.5418C23.2145 25.1491 22.4245 24.9704 22.245 24.2024C23.2684 23.8809 23.2684 23.1128 23.1247 22.2733C23.6993 21.8804 24.2738 21.4874 24.8483 21.0945C24.9022 21.1659 24.974 21.2195 25.0458 21.291Z" fill="#FDFDFD"/>
<path d="M17.164 33.937C17.559 34.5622 18.6542 34.4193 18.2054 35.3659C17.8283 36.1697 17.5231 37.1878 15.8175 36.7591C17.7206 36.3483 16.7152 35.0802 17.164 33.937Z" fill="#D0D7C9"/>
<path d="M23.1247 22.2734C23.2683 23.1128 23.2683 23.8809 22.2449 24.2024C22.0295 24.3274 21.814 24.5596 21.5986 24.5418C21.1677 24.5418 20.7727 25.3813 20.3777 24.6847C19.8391 23.7201 20.8984 24.2203 21.1498 23.9523C21.7602 23.345 22.4604 22.8271 23.1067 22.2555L23.1247 22.2734Z" fill="#D0D7C9"/>
<path d="M43.1433 18.0402C43.1613 18.4688 43.8076 18.3974 44.041 18.8082C43.4126 18.7368 42.7124 18.9332 42.4611 18.1116C42.3534 17.7722 42.4611 17.4507 42.7304 17.2721C43.3947 16.8613 43.8974 17.2721 44.454 17.54C44.0949 18.3259 43.4306 17.29 43.1254 18.0402H43.1433Z" fill="#D0D7C9"/>
<path d="M23.8608 15.5574C24.0404 14.7894 24.6149 14.1285 24.5431 13.289C24.5251 12.9854 24.4354 12.5924 24.8842 12.6103C25.2612 12.6281 25.5126 12.9139 25.5126 13.3605C25.4767 14.4143 24.974 15.1823 24.0583 15.7003C24.0045 15.6467 23.9327 15.5932 23.8788 15.5396L23.8608 15.5574Z" fill="#D0D7C9"/>
<path d="M20.3239 27.4711C19.6416 27.4175 19.48 28.1498 18.8516 28.3999C18.2592 28.0427 18.4746 27.1853 17.559 26.7566C18.8876 26.6138 19.7852 26.453 20.3059 27.489L20.3239 27.4711Z" fill="#D0D7C9"/>
<path d="M18.8876 22.8271C19.139 24.6609 18.6423 25.4766 17.3975 25.2741C18.3311 24.6668 18.8876 23.9166 18.8876 22.8271Z" fill="#D0D7C9"/>
<path d="M20.3239 27.4889C20.4675 27.3103 20.7368 27.1138 20.7188 26.9531C20.665 26.3636 20.9163 25.8278 21.455 25.9886C22.1013 26.185 21.6884 26.7923 21.5088 27.221C21.2395 27.8819 20.9702 28.4713 20.3418 27.4711L20.3239 27.4889Z" fill="#D0D7C9"/>
<path d="M48.4218 21.2553C48.2422 21.4696 48.1525 21.6304 48.0088 21.7018C47.8293 21.7911 47.6318 21.7197 47.6677 21.4696C47.6677 21.3625 47.7575 21.1838 47.8293 21.166C47.9729 21.1481 48.1525 21.2017 48.4218 21.2553Z" fill="#FDFDFD"/>
<path d="M6.64307 54.6564C6.49944 54.71 6.26604 54.8351 6.19422 54.7815C6.01468 54.6386 6.14036 54.4957 6.30195 54.4064C6.40967 54.4957 6.51739 54.585 6.62512 54.6564H6.64307Z" fill="#FDFDFD"/>
<path d="M6.31982 54.4063C6.4455 54.3527 6.57118 54.317 6.69686 54.2634C6.69686 54.3885 6.66095 54.5314 6.643 54.6564C6.53527 54.5671 6.42755 54.4778 6.31982 54.4063Z" fill="#FDFDFD"/>
<path d="M24.0583 15.7003C24.0583 15.7003 23.8788 15.9146 23.8608 15.8968C23.6633 15.7896 23.7351 15.6467 23.8608 15.5396C23.9147 15.5931 23.9865 15.6467 24.0403 15.7003H24.0583Z" fill="#D0D7C9"/>
</g>
<defs>
<clipPath id="clip0_84_92">
<rect width="53" height="72" fill="white"/>
</clipPath>
</defs>
</svg>
