<?xml version="1.0" encoding="UTF-8"?>
<svg id="_图层_2" data-name="图层 2" xmlns="http://www.w3.org/2000/svg" viewBox="0 0 74.5 98.3">
  <defs>
    <style>
      .cls-1 {
        fill: #00a0e9;
      }

      .cls-1, .cls-2, .cls-3, .cls-4, .cls-5, .cls-6, .cls-7 {
        stroke-width: 0px;
      }

      .cls-2 {
        fill: #727171;
      }

      .cls-3 {
        fill: #172a88;
      }

      .cls-4 {
        fill: #000;
      }

      .cls-5 {
        fill: #5cb5dd;
      }

      .cls-6 {
        fill: #b5b5b6;
      }

      .cls-7 {
        fill: #fff;
      }
    </style>
  </defs>
  <g id="_図" data-name="図">
    <g>
      <path class="cls-4" d="M65.36,49.52c-.14.12-.31.21-.42.35-.77,1.04-1.76,1.72-3.01,2.15-1.28.44-2.5.53-3.78.1-.13-.05-.29-.06-.43-.04-.84.13-1.57-.17-2.2-.63-1.17-.86-2.44-1.45-3.83-1.83-.28-.08-.52-.31-.84-.51-1.12.47-2.1,1.3-3.06,2.15-.55.48-1.08.67-1.88.65-1.4-.03-2.67-.55-4.02-.72-.97-.95-2.31-.5-3.5-1.02-.01-.12-.04-.36-.07-.57-.55-.4-1.04-.86-1.62-1.17-.78-.42-1.62-.73-2.45-1.06-1.16-.47-2.34-.92-3.6-1.41-.72.71-.29,1.93-.95,2.78.56.47,1.19.47,1.78.56.21.03.46-.06.65.01.53.19,1.02.51,1.56.65.56.15,1.15.15,1.73.21.24.03.55-.11.6.3,0,.05.15.12.16.11.59-.59,1.05.19,1.6.15.55-.04,1.12.05,1.66.16.72.15,1.44.35,2.13.61.41.15.63.51.82.96.4.93.67,1.87.7,2.87.02.67-.04,1.35-.14,2.02-.05.34-.27.66-.46,1.1.12.21.52.43.34.94-.1.28.04.65.07.98.12,1.26.3,2.5.64,3.72,0,.03,0,.08,0,.11-.54,1.15.17,2.28.09,3.43-.02.27.25.57-.19.73-.05.02-.1.15-.09.17.68.71-.04,1.42.03,2.13.07.72.2,1.44.23,2.17.01.3-.16.61-.22.92,0,.05.12.11.16.19.07.15.21.33.18.45-.18.67.08,1.31.06,1.95-.03,1.34.29,2.63.31,3.96.01.79.18,1.58.3,2.37.09.65.37,1.32.29,1.95-.14,1.13.39,2.23,0,3.34.52,1.21.11,2.63.92,3.82.37.56.32,1.4.46,2.12.11.62.28,1.25.3,1.87.02.5-.07,1.04-.26,1.5-.16.39-.53.65-1.06.64-.61,0-1.22.17-1.83.26-.29.05-.58.12-.87.13-1.07.02-2.15.05-3.22.01-.29-.01-.56-.27-.85-.39-.4-.17-.39-.43-.18-.74-.76-.36.06-1.28-.58-1.68.08-1.35-.15-2.75.46-4.04.1-.22.26-.46.25-.69-.07-1.5-.17-3-.27-4.5-.08-1.27-.12-2.55-.46-3.8-.16-.56-.15-1.17-.22-1.81-.32-.02-.73-.1-1.11-.04-.33.06-.61.36-.94.42-1.09.2-2.18.34-3.32.52-.23,1.65-.36,3.34-.74,4.97-.19.82-.18,1.64-.3,2.45-.13.93-.42,1.85-.46,2.79-.07,1.56-.66,3.01-.81,4.55-.1.97-.76,1.48-1.72,1.63-1.66.26-3.32.3-4.81-.72-.09-.06-.2-.09-.31-.12-1.01-.36-1.4-.95-1.07-1.95.25-.75.08-1.5.21-2.25.17-1.01.26-2.05.54-3.03.09-.33.61-.58.99-.79.25-.14.57-.13.85-.19.06-.08.13-.14.14-.2.16-1.27.28-2.55.47-3.82.15-.99.36-1.98.62-2.95.14-.5-.01-.78-.38-1.05-.62-.46-1.16-1-2-1.15-.45-.08-.84-.53-1.26-.8-.11-.07-.24-.15-.37-.15-.44,0-.7-.14-.6-.61l-1.55-.28c-.31.63-.68,1.37-1.03,2.13-.49,1.06-.96,2.13-1.44,3.2-.26.59-.53,1.17-.8,1.76-.44.96-.87,1.93-1.33,2.88-.28.59-.57,1.18-.94,1.71-.42.6-.9,1.18-1.43,1.69-.8.77-1.81.85-2.77.34-.95-.5-1.91-1-2.88-1.46-1.02-.49-1.28-1.53-.53-2.39.14-.16.34-.11.16-.45-.23-.45-.14-.49.47-.73-.41-1.06.11-2,1.44-2.5-.01-.29-.03-.61-.05-.99.42-.02.77-.04,1.18-.07.47-.92.92-1.85,1.41-2.76.62-1.17,1.24-2.35,1.93-3.48.49-.8,1.15-1.5,1.65-2.3.61-.97,1.17-1.97,1.69-2.99.33-.64.55-1.33.83-2,.8-1.95,1.48-3.96,2.44-5.83.61-1.19.96-2.55,1.95-3.55.27-.27.33-.79.39-1.21.09-.67.46-1.15.85-1.66.27-.35.39-.82.6-1.28.43.24.81.44,1.34.73-.45.88-.84,1.8-1.39,2.6-.19.27-.32.49-.41.81-.2.69-.46,1.38-.82,2-.24.42-.89.67-.98,1.09-.11.5-.17,1-.4,1.48-.18.37-.21.82-.62,1.06.32.55-.31.77-.42,1.16-.18.61-.44,1.2-.58,1.82-.45,1.9-1.45,3.55-2.46,5.17-.34.55-.66,1.08-.95,1.66-.36.71-.97,1.29-1.41,1.97-.45.71-.85,1.45-1.23,2.2-.55,1.07-1,2.21-1.64,3.23-.28.45-.31.75-.03,1.08.28.33.62.64.99.85.62.33,1.29.56,2,.87.12-.23.31-.44.35-.68.12-.66.37-1.24.68-1.84.99-1.93,1.9-3.9,2.83-5.86.1-.22.18-.49.15-.72-.08-.59.09-.92.63-1.24.44-.26.83-.73,1.05-1.2.59-1.26,1.15-2.54,1.75-3.8.6-1.26.99-2.62,1.46-3.95.38-1.08.72-2.17,1.11-3.24.24-.66.51-1.31.82-1.94.24-.49.56-.94.87-1.44-.01-.03-.13-.19-.09-.3.28-.95.58-1.9.89-2.85.19-.57.15-.61-.47-.75-1.11-.25-2.24-.46-3.32-.81-.52-.17-1.01-.56-1.42-.95-.2-.19-.29-.61-.27-.91.07-1.05.69-1.88,1.17-2.77.13-.24.29-.47.41-.72.37-.79,1.56-1.48,2.47-1.4,1.06.09,2.12.2,3.22.3.08-.62.12-1.24.25-1.84.12-.56.32-1.11.45-1.53-.74-.53-1.39-.9-1.9-1.41-.22-.22-.16-.71-.7-.66-.08,0-.32-.35-.28-.43.22-.47-.02-.58-.38-.79-.18-.1-.3-.57-.22-.8.31-.9.72-1.77,1.1-2.67-.84-.36-1.75-.76-2.68-1.13-.61-.24-1.25-.39-1.87-.63-.82-.31-1.64-.41-2.53.08-.04-.48-.07-.79-.1-1.07-.67-.45-1.41-.63-2.01-1.13-.37-.31-1.04-.23-1.54-.42-.99-.38-1.97-.81-2.94-1.24-.24-.1-1.84-.52-2.15-.55-.14-.01-.27-.13-.41-.14-1.25-.13-2.49-.29-3.75-.35-1.6-.08-2.7-1.09-3.94-1.9-1.3-.86-1.58-2.25-2.08-3.54-.09-.24-.13-.5-.21-.75-.27-.8-.43-1.6-.48-2.47-.11-1.69-.14-3.33.48-4.94.05-.12-.02-.28-.01-.42.09-1.42.62-2.7,1.28-3.93.14-.25.2-.54.3-.81.42-1.14.74-2.33,1.29-3.39.47-.89,1.16-1.69,1.85-2.44,1.32-1.45,2.71-2.83,4.08-4.24.28-.29.53-.61.84-.86.35-.28.77-.46,1.11-.75.33-.28.87.24,1.14-.44.14-.33.8-.48,1.25-.65.75-.28,1.48-.52,2.35-.27.98.29,2.04.32,3.06.49.36.06.74.15,1.06.33,1.32.73,2.57,1.63,3.94,2.23,1.16.5,1.97,1.32,2.81,2.17.19.2.47.31.72.45.68.4,1.33.73,1.76,1.52.29.55,1.02,1.03,1.65,1.2,1.33.36,2.53.88,3.58,1.77.26.22.67.23.99.39.78.42,1.53.89,2.32,1.29.79.41,1.63.71,2.4,1.15,1.24.7,2.44,1.47,3.67,2.19.63.37,1.36.61,1.91,1.07.62.51,1.39.56,2.06.9.68.35,1.37.7,2.05,1.02.72.34,1.71.43,2.17,1.31.08.15.53.07.76.19.9.48,1.79.98,2.65,1.52,1.44.9,2.81,1.91,4.29,2.72,1.07.59,2,1.41,3.14,1.9.6.26,1.12.71,1.68,1.06.94.58,2.02,1.02,2.79,1.78.91.9,2.14,1.64,2.31,3.17.05.42.42.86.58,1.36.41,1.29.16,2.49-.14,3.72-.13.55.03.92.43,1.27.32.28.6.61.9.92.07.07.15.2.23.2.91.04,1.22.91,1.84,1.35.54.39.44,1.13.45,1.76,0,.2,0,.42.09.59.46.89.42,1.56-.19,2.61-.05.09,0,.24,0,.37,0,.14.09.35.03.42-.82.88-.73,2.13-1.31,3.1-.31.51-.63,1-1,1.46-.15.19-.44.35-.67.36-1.31.04-2.92.27-4.05-1.05-.36-.42-1.05-.56-1.63-.85ZM34.37,11.67c-.11.3-.17.4-.18.51-.04.65.18,1.34-.31,1.93-.06.08.06.28.05.42-.06.83-.08,1.66-.22,2.48-.07.4-.36.76-.51,1.07-.04.51,0,.99-.12,1.43-.12.5-.08,1.11-.65,1.41.22,1.01-.67,1.73-.71,2.7-.02.53-.31,1.06-.53,1.56-.19.43-.73.71-.56,1.29-.69.67-.83,1.67-1.42,2.41-.39.48-.74,1-1.11,1.5-.29.39-.57.78-.88,1.15-.47.56-1.02,1.07-1.41,1.68-.6.95-1.38,1.67-2.33,2.31,1.31.63,2.65,1.1,3.9,1.81.96.55,2.02.9,3.03,1.37.86.41,1.69.91,2.57,1.26.46.18,1.05.29,1.5.16.66-.19,1.38-.5,1.86-.98,1.17-1.19,2.31-2.43,3.28-3.78.9-1.25,1.53-2.67,2.43-3.94.92-1.29,1.7-2.68,2.1-4.27.38-1.5,1.02-2.93,1.16-4.5.02-.25.13-.5.21-.75.04-.12.18-.23.17-.34-.08-.91-.12-1.83-.29-2.72-.08-.43-.31-.98-.65-1.2-1.42-.92-2.72-2.03-4.26-2.78-1.68-.82-3.31-1.71-4.96-2.58-.35-.18-.7-.37-1.13-.61ZM25.95,6.13c.47,1.52.85,2.92.71,4.43-.12,1.37-.24,2.74-.31,4.11-.07,1.42-.95,2.54-1.39,3.83-.45,1.31-1.31,2.47-1.94,3.71-.59,1.15-1.57,1.94-2.5,2.76-1.28,1.12-2.87,1.81-4.12,2.99-.48.45-1.04.86-1.63,1.15-1.01.51-2.08.92-3.12,1.39-.18.08-.34.21-.51.32.1.13.14.25.18.24.84-.08,1.56.27,2.31.54,1.1.4,2.1,1.15,3.35,1.1.06,0,.13.07.2.1,1.21.61,2.43,1.22,3.83,1.93.77-.39,1.77-.74,2.59-1.33,1.59-1.14,2.51-2.92,3.78-4.38,1.01-1.16,1.51-2.76,2.24-4.16.76-1.45,1.29-2.98,1.71-4.57.34-1.28.81-2.52.92-3.85.03-.43.23-.85.36-1.27.03-.09.14-.22.13-.23-.5-.42.06-.87-.03-1.31-.1-.49-.04-1.02-.05-1.53,0-.95-.26-1.66-1.28-2.07-.98-.39-1.91-.98-2.77-1.61-.94-.69-1.78-1.52-2.67-2.28ZM51.7,20.66c.11.77.22,1.34.27,1.92.05.57-.19,1.1-.22,1.68-.06,1.07-.02,2.25-.93,3.1-.12.11-.16.31-.2.48-.11.54-.29,1.08-.27,1.62.02.56-.44.88-.47,1.46-.04.67-.57,1.32-.93,1.95-.71,1.22-1.41,2.46-2.2,3.63-.49.73-.71,1.67-1.56,2.16-.16.09-.26.35-.3.54-.23,1.08-.93,1.89-1.55,2.73-.52.71-1.19,1.31-2.14,1.48-.04,0-.06.12-.15.33.56.17,1.18.22,1.62.53,1.3.9,2.86,1.16,4.21,1.92.6.34,1.16.06,1.63-.33.71-.58,1.4-1.18,2.09-1.79.51-.46,1.13-.87,1.47-1.44.91-1.53,1.71-3.14,2.54-4.72.84-1.6,1.73-3.19,2.5-4.83.36-.76.7-1.54.72-2.44.02-.67.09-1.39.51-1.78-.48-1.49-.37-2.97-.64-4.45-1.91-1.19-3.85-2.41-6-3.76ZM10.22,3.77c-.18.33-.31.68-.53.97-.26.36-.61.96-.88.94-.73-.06-.43.68-.79.8-.8.26-1.09,1.02-1.55,1.59-.68.85-1.4,1.71-1.89,2.68-.94,1.86-1.51,3.88-2.25,5.83-.1.28-.31.54-.34.82-.16,1.53-.31,3.07-.42,4.6-.08,1.08.07,2.14.39,3.17.2.64.53,1.26.61,1.92.1.83.63,1.35,1.18,1.8,1.26,1.02,2.8,1.32,4.37,1.45.18.02.38,0,.55-.06,1.5-.53,2.79-1.54,4.37-1.89.03,0,.06-.04.09-.06.62-.4,1.26-.79,1.87-1.2.52-.35,1.03-.7,1.52-1.08.61-.47,1.17-1,1.8-1.44,1.33-.93,2.51-1.98,3.45-3.35.94-1.37,1.49-2.92,2.26-4.36.54-1,.81-2.05.93-3.16.04-.32,0-.66.06-.97.22-1.07.18-2.16.07-3.23-.08-.79-.33-1.56-.49-2.35-.24-1.23-1.28-2.71-2.34-3.25-.66-.34-1.51-.47-2-.97-.8-.81-1.77-.87-2.74-1.09-.53-.12-1.06-.25-1.6-.31-.93-.11-1.8.24-2.63.54-.7.25-1.29.8-1.95,1.18-.34.2-.72.32-1.13.5ZM36.52,56.67c-.18.46-.22.9-.45,1.04-.83.52-.72,1.32-.77,2.09-.02.25-.13.5-.19.75-.05.23-.12.46-.13.7-.04,1.17.07,2.36-.69,3.39-.09.12-.08.31-.09.47-.04.71-.07,1.42-.12,2.13-.02.22-.63.13-.32.52.25.32.06.51-.06.79-.16.39-.19.83-.24,1.26-.08.79-.1,1.59-.21,2.38-.15,1.04-.36,2.07-.57,3.23,1.35-.02,2.67-.04,4.09-.06.12-.27.36-.56.37-.86.08-1.33.11-2.66.13-3.99.02-1.55.03-3.1,0-4.65-.01-.83-.49-1.66.06-2.48.02-.03,0-.14-.05-.17-.55-.47-.42-1.2-.49-1.76-.1-.85.17-1.74.29-2.61.77-.22.64-1,.91-1.52.71.2,2.74.11,3.23-.22.24-.16.47-.5.48-.78.04-.55-.04-1.11-.13-1.66-.22-1.43-.99-2.16-2.24-2.36-1.61-.25-3.2-.57-4.79-.9-.65-.13-1.27-.44-1.92-.53-.75-.11-1.57.11-2.22-.49-.05-.04-.19.01-.29.02-1.76.2-3.43-.32-5.26-.69-.2.2-.54.45-.75.78-.37.58-.63,1.23-1,1.82-.54.85-.46,1.09.49,1.42,1.82.63,3.72.9,5.6,1.23,1.86.33,3.74.47,5.53,1.15.57.22,1.16.37,1.8.57ZM65.28,29.18c.54,1.52-.37,2.62-.5,3.87-.09.92-.35,1.81-1.15,2.42-.07.05-.1.21-.08.31.16.79-.52,1.27-.7,1.94-.04.17-.35.28-.53.41.39.48-.14.61-.31.89-.19.31-.38.64-.49.99-.47,1.63-1.46,2.98-2.28,4.43-.62,1.08-1.58,1.9-2.19,2.99-.21.38-.71.63-1.13.85-.62.31-1.28.54-1.97.82.88.05,1.57.43,2.24.86.34.22.69.48,1.07.56.91.18,1.84.27,2.77.38.22.03.44.04.66,0,1.52-.24,2.6-1.29,3.53-2.31.92-1,1.46-2.37,2.07-3.63.54-1.13.97-2.31,1.41-3.49.35-.93.87-1.82.63-2.88-.04-.16,0-.39.1-.53.48-.76.42-1.62.59-2.45.27-1.38-.29-2.58-.85-3.71-.55-1.12-1.49-2.02-2.9-2.74ZM43.43,90.58c-.04-1.11-.07-2.14-.12-3.16-.02-.48-.08-.95-.1-1.42-.03-.92.13-1.88-.08-2.74-.25-1.01-.48-2-.49-3.04-.01-.64.08-1.3-.02-1.93-.24-1.55-.5-3.08-.43-4.66.08-1.88.11-3.76.04-5.64-.04-1.13.03-2.27-.22-3.4-.13-.6-.36-1.31.02-1.73-.59-1.43-.89-2.77-.7-4.14-1.13.06-2.16.12-3.27.17.12.46.32.84.29,1.19-.11,1.42.18,2.8.28,4.2.04.57-.02,1.17-.19,1.71-.08.25-.18.41-.04.67.13.25.16.55.24.83.2.73-.14,1.46.05,2.23.17.73-.05,1.55-.04,2.33.01,1.14-.15,2.3-.06,3.39.13,1.63-.38,3.3.23,4.9.04.1.02.22,0,.33-.13.75.05,1.52.24,2.2.41,1.46.43,2.95.6,4.43.14,1.21.15,2.43.22,3.65,1.25-.13,2.39-.25,3.57-.37ZM31.29,56.9c.05.31.17.58.11.79-.36,1.26-.74,2.52-.82,3.84-.03.44.05.9-.07,1.3-.14.44-.55.81-.68,1.25-.13.47-.02,1-.09,1.49-.07.46.06,1.03-.51,1.32.53.47-.03.87-.09,1.29-.04.32-.14.63-.17.95-.06.71-.04,1.43-.16,2.13-.21,1.27-.49,2.53-.73,3.8-.24,1.26-.48,2.51-.72,3.77-.11.57-.31,1.14-.29,1.71.06,1.63-.27,3.22-.58,4.79-.2,1.02-.21,2.06-.42,3.07-.1.49.15.67.59.76.61.12,1.2.29,1.81.41.24.05.49,0,.73,0,.05-.22.12-.37.11-.51-.07-1.57.45-3.06.63-4.6.15-1.28.61-2.52.57-3.83-.01-.44.07-.89.12-1.33.12-.97.24-1.94.36-2.91.13-.98.26-1.98.44-2.93.19-.96.43-1.93.59-2.91.23-1.35.43-2.7.69-4.05.15-.8.44-1.57.54-2.37.1-.82-.11-1.7.6-2.36.02-.02-.05-.11-.06-.17-.21-.86-.17-1.71.02-2.57.13-.57.32-1.16-.04-1.67l-2.48-.44ZM49.43,47.04c.54.15,1.01.14,1.31.37,1.12.87,2.2.62,3.31.05.26-.13.58-.18.82-.34.54-.35,1.19-.65,1.55-1.15.96-1.35,1.82-2.77,2.64-4.2.8-1.41,1.76-2.75,2.23-4.34.03-.1.09-.2.15-.3.66-1.1,1.32-2.19,1.56-3.48.05-.25.13-.51.25-.73.19-.36.56-.62.33-1.15-.07-.15.36-.48.35-.71-.07-.88-.22-1.75-.36-2.62-.03-.2-.12-.46-.28-.57-.7-.5-1.43-.97-2.16-1.42-.51-.31-1.06-.58-1.58-.85-.06.86-.11,1.58-.15,2.29,0,.1.09.21.09.32,0,.8.14,1.64-.07,2.38-.24.85-.71,1.61-.77,2.54-.06.86-.89,1.42-1.13,2.27-.16.54-.51,1.04-.83,1.51-.57.83-.48,2.06-1.51,2.5.09.2.22.4.18.45-.53.6-.82,1.33-1.21,2.02-.49.88-1.17,1.64-1.66,2.53-.13.24-.42.41-.67.58-.51.36-1.06.67-1.55,1.06-.3.24-.52.59-.86.97ZM47.07,18.66c-.1.85-.33,1.57-.24,2.25.17,1.35.06,2.61-.65,3.79-.06.09-.16.22-.14.29.19.62-.15,1.16-.22,1.73-.06.5-.74.8-.41,1.4.02.04-.13.17-.18.26-.22.46-.43.93-.66,1.39-.35.72-.65,1.48-1.09,2.14-.93,1.39-1.79,2.83-2.8,4.18-.6.8-1.12,1.69-1.81,2.44-.57.62-1.18,1.2-1.8,1.78-.3.29-.65.52-1.03.82,1.11.59,2.07,1.11,3.03,1.63.51-.24,1.06-.61,1.66-.73.77-.16,1.21-.64,1.65-1.2.62-.8.81-1.88,1.65-2.54.08-.06.09-.2.14-.3.93-1.54,1.71-3.17,2.83-4.6.58-.75,1.04-1.63,1.42-2.5.32-.74.44-1.56.67-2.34.36-1.21.71-2.41,1.1-3.61.07-.23.31-.4.32-.41-.14-1.66-.09-3.19-.8-4.71-.76-.33-1.67-.73-2.64-1.16ZM46.2,47.36c-.86-.27-1.74-.51-2.59-.83-.35-.13-.61-.55-.95-.59-1.54-.21-2.75-1.15-4.08-1.8-.78-.38-1.46-.99-2.26-1.32-1.55-.65-3.16-1.16-4.73-1.76-.56-.21-1.13-.42-1.62-.74-.74-.48-1.52-.83-2.27-1.04,0,.39.05.74-.02,1.06-.12.57-.31,1.12-.47,1.67,1.43.99,2.55,2.25,4.26,2.55.64.11.95.93,1.7.81.88.87,2.13.73,3.16,1.16.72.3,1.57.43,2.09,1.18.28.39.73.76,1.18.91.89.29,1.66.92,2.67.89.27,0,.55.2.83.29.58.21,1.15.49,1.75.6.69.12,1.42.1,2.01-.41.5-.43,1.03-.83,1.49-1.29.1-.1,0-.4,0-.67-.66.35-1.18.62-1.79.95-.11-.54-.21-1.01-.34-1.62ZM25.4,63.05c.05.94-.18,1.79-.84,2.5-.07.08-.06.25-.08.37-.05.23-.08.47-.14.7-.14.48-.3.95-.44,1.43-.21.7-.36,1.42-.62,2.1-.33.88-.74,1.72-1.12,2.6,1.46.79,2.71,1.86,4.53,1.65.06-.43.11-.79.15-1.15.02-.22-.01-.45.04-.66.34-1.51.71-3.02,1.02-4.53.24-1.17.2-2.42.63-3.5.46-1.15.05-2.49.93-3.5.03-.03,0-.13-.01-.19-.36-1.09.1-2.09.34-3.12.08-.35.16-.69.27-1.17l-2.02-.36c.12,1.12-.18,2.06-.61,2.92-.15.29-.23.56-.33.86-.31.97-.57,1.96-1.23,2.77-.11.13-.3.19-.44.28ZM69.86,39.95c-.39,1.07-.68,2.16-1.19,3.15-.73,1.41-.88,3.08-2.01,4.31-.27.29-.15.61.07.98.5.85,1.36,1.14,2.16,1.45,1.18.47,2.11.04,2.6-1.14.5-1.19.98-2.4,1.37-3.62.54-1.71-.11-3.4-1.58-4.44-.17-.12-.22-.4-.33-.61-.29-.02-.62-.04-1.09-.08ZM28.84,91.07c-1.39-.25-2.56-.39-3.69-.68-.79-.2-1.28.02-1.28.96,0,.82-.19,1.55-.64,2.22-.15.23-.05,1.99.12,2.2.28.34.53.73,1.1.56.16-.05.36.04.55.07.39.07.78.18,1.18.23.4.05.8.05,1.2.05.52,0,.78-.24.84-.79.11-.98.24-1.94.58-2.89.21-.59.04-1.31.04-1.91ZM44.96,96.19c-.06-1.16-.67-2.32-.57-3.59.01-.14-.33-.38-.55-.47-.33-.12-.71-.25-1.04-.19-1.18.2-2.35.48-3.48.71-.1,1.11-.17,2.14-.29,3.16-.06.5.12.8.59.87.81.11,1.55.5,2.46.21.49-.16,1.03-.57,1.7-.23.23.12.72-.29,1.17-.49ZM9.14,84.84c-.01.39.08.72-.47.92-.46.17-.77.9-1.01,1.44-.2.45-.2.99-.28,1.41.19.32.36.61.39.67.99.39,1.8.67,2.57,1.02.46.21,1.01.23,1.3-.13.61-.77,1.23-1.55,1.75-2.38.1-.16-.12-.73-.34-.86-1.24-.72-2.53-1.37-3.92-2.1ZM26.35,76.15c-.53-.31-1.29-.14-1.63-.8-1.05-.06-1.99-.39-2.88-.97-.36-.23-.72,0-.88.45-.17.48-.32.96-.48,1.43.7.58,1.19,1.4,2.16,1.56.23.04.44.19.67.26.72.22,1.27.62,1.57,1.34.27-.03.53-.05.89-.09l.57-3.19ZM37.14,78.82c0-.66,0-1.24,0-1.77-.47-.17-.86-.39-1.26-.43-.37-.04-.76.13-1.15.19-.44.07-.88.19-1.31.18-.48-.02-.88.05-1.12.34-.05.86-.1,1.62-.15,2.42.95.02,1.91.17,2.82.02.73-.12,1.41-.6,2.17-.95Z"/>
      <path class="cls-2" d="M34.37,11.67c.43.23.78.42,1.13.61,1.65.86,3.29,1.76,4.96,2.58,1.54.75,2.84,1.86,4.26,2.78.34.22.57.77.65,1.2.17.89.21,1.81.29,2.72,0,.11-.13.22-.17.34-.08.25-.19.49-.21.75-.14,1.57-.78,3-1.16,4.5-.4,1.6-1.18,2.98-2.1,4.27-.9,1.27-1.54,2.7-2.43,3.94-.97,1.35-2.11,2.59-3.28,3.78-.47.48-1.19.79-1.86.98-.45.13-1.05.02-1.5-.16-.88-.35-1.71-.86-2.57-1.26-1-.47-2.07-.82-3.03-1.37-1.24-.71-2.59-1.18-3.9-1.81.95-.64,1.73-1.36,2.33-2.31.39-.61.95-1.11,1.41-1.68.31-.37.59-.76.88-1.15.37-.5.72-1.02,1.11-1.5.59-.73.73-1.73,1.42-2.41-.16-.59.37-.86.56-1.29.22-.51.51-1.04.53-1.56.04-.97.93-1.69.71-2.7.58-.3.53-.91.65-1.41.11-.44.08-.92.12-1.43.15-.3.44-.67.51-1.07.14-.82.16-1.65.22-2.48.01-.14-.11-.35-.05-.42.48-.59.26-1.28.31-1.93,0-.1.07-.21.18-.51Z"/>
      <path class="cls-6" d="M25.95,6.13c.88.77,1.72,1.6,2.67,2.28.86.63,1.78,1.22,2.77,1.61,1.03.41,1.28,1.12,1.28,2.07,0,.51-.06,1.04.05,1.53.09.45-.47.89.03,1.31.01.01-.11.15-.13.23-.13.42-.32.84-.36,1.27-.11,1.34-.58,2.58-.92,3.85-.42,1.59-.95,3.12-1.71,4.57-.73,1.4-1.23,3-2.24,4.16-1.27,1.45-2.19,3.23-3.78,4.38-.82.59-1.82.95-2.59,1.33-1.4-.71-2.62-1.32-3.83-1.93-.07-.03-.13-.1-.2-.1-1.25.05-2.25-.7-3.35-1.1-.76-.27-1.48-.62-2.31-.54-.04,0-.08-.11-.18-.24.18-.11.33-.24.51-.32,1.04-.46,2.11-.87,3.12-1.39.59-.3,1.15-.7,1.63-1.15,1.25-1.18,2.84-1.87,4.12-2.99.93-.81,1.91-1.61,2.5-2.76.64-1.25,1.5-2.41,1.94-3.71.44-1.29,1.32-2.41,1.39-3.83.07-1.37.19-2.74.31-4.11.13-1.51-.25-2.91-.71-4.43Z"/>
      <path class="cls-2" d="M51.7,20.66c2.16,1.35,4.1,2.56,6,3.76.27,1.48.16,2.96.64,4.45-.42.39-.5,1.11-.51,1.78-.02.89-.36,1.68-.72,2.44-.77,1.64-1.65,3.22-2.5,4.83-.83,1.58-1.63,3.19-2.54,4.72-.34.57-.96.98-1.47,1.44-.68.61-1.38,1.21-2.09,1.79-.48.39-1.03.67-1.63.33-1.35-.76-2.92-1.02-4.21-1.92-.44-.31-1.07-.36-1.62-.53.09-.21.11-.33.15-.33.94-.16,1.61-.77,2.14-1.48.62-.84,1.32-1.65,1.55-2.73.04-.2.15-.46.3-.54.85-.49,1.07-1.43,1.56-2.16.79-1.17,1.49-2.41,2.2-3.63.37-.63.89-1.28.93-1.95.04-.58.49-.9.47-1.46-.02-.54.16-1.08.27-1.62.03-.17.08-.37.2-.48.92-.85.88-2.04.93-3.1.03-.58.28-1.11.22-1.68-.05-.58-.16-1.15-.27-1.92Z"/>
      <path class="cls-3" d="M10.22,3.77c.41-.18.79-.3,1.13-.5.66-.38,1.25-.93,1.95-1.18.84-.29,1.71-.64,2.63-.54.54.06,1.07.19,1.6.31.96.22,1.94.29,2.74,1.09.49.49,1.33.63,2,.97,1.07.54,2.1,2.03,2.34,3.25.15.79.41,1.56.49,2.35.11,1.07.15,2.15-.07,3.23-.06.31-.02.65-.06.97-.12,1.11-.39,2.16-.93,3.16-.77,1.44-1.31,2.99-2.26,4.36-.94,1.37-2.11,2.42-3.45,3.35-.63.44-1.19.97-1.8,1.44-.49.38-1,.74-1.52,1.08-.62.41-1.25.8-1.87,1.2-.03.02-.06.05-.09.06-1.58.35-2.87,1.36-4.37,1.89-.17.06-.37.08-.55.06-1.57-.13-3.12-.43-4.37-1.45-.55-.45-1.07-.97-1.18-1.8-.08-.65-.41-1.28-.61-1.92-.32-1.03-.47-2.1-.39-3.17.11-1.54.26-3.07.42-4.6.03-.28.23-.54.34-.82.74-1.95,1.3-3.97,2.25-5.83.49-.97,1.21-1.83,1.89-2.68.46-.57.76-1.32,1.55-1.59.37-.12.06-.86.79-.8.27.02.62-.58.88-.94.21-.29.35-.64.53-.97ZM6.18,25.6c.24.29.41.7.71.85,1.41.74,2.84,1.48,4.45.51.28-.17.57-.33.85-.51.83-.52,1.55-1.23,2.56-1.47.19-.05.36-.25.52-.4.44-.45.9-.9,1.31-1.38.64-.75,1.4-1.46,1.82-2.33.35-.71.75-1.33,1.24-1.93.76-.92,1.44-1.88,1.77-3.07.4-1.43.9-2.84,1.16-4.31.23-1.28.06-2.54-.45-3.63-.38-.82-.88-1.61-1.21-2.46-.62-1.58-2.08-2.4-3.8-2.16-.51.07-1.03.03-1.54.1-.72.1-1.48.05-2.12.56-.31.24-.75.3-1.13.45-.85.34-1.7.68-2.55,1.02-.06.03-.16.1-.16.14.1.62-.66.67-.76,1.15-.08.41-.2.79-.64.98-.09.04-.18.28-.15.38.07.19.19.28-.11.39-.62.23-.76.86-1.04,1.37-.12.22-.14.55-.31.68-1.11.88-1.08,2.24-1.42,3.41-.35,1.23-.42,2.55-.62,3.83-.18,1.18-.49,2.31.13,3.52.62,1.21.49,2.61.58,3.94,0,.14.07.28.12.47.28-.04.52-.08.78-.11Z"/>
      <path class="cls-7" d="M36.52,56.67c-.64-.2-1.23-.36-1.8-.57-1.78-.68-3.67-.82-5.53-1.15-1.88-.33-3.78-.6-5.6-1.23-.95-.33-1.03-.56-.49-1.42.37-.58.63-1.24,1-1.82.21-.33.55-.58.75-.78,1.83.37,3.5.88,5.26.69.1-.01.24-.07.29-.02.65.6,1.47.38,2.22.49.65.1,1.27.4,1.92.53,1.59.33,3.19.65,4.79.9,1.25.2,2.03.93,2.24,2.36.08.55.16,1.11.13,1.66-.02.28-.25.62-.48.78-.49.33-2.52.42-3.23.22-.27.52-.14,1.3-.91,1.52-.12.87-.39,1.77-.29,2.61.07.56-.06,1.29.49,1.76.04.03.07.14.05.17-.54.82-.07,1.65-.06,2.48.02,1.55.02,3.1,0,4.65-.02,1.33-.05,2.66-.13,3.99-.02.3-.25.59-.37.86-1.42.02-2.74.04-4.09.06.21-1.16.42-2.19.57-3.23.11-.79.13-1.59.21-2.38.04-.43.08-.87.24-1.26.11-.28.31-.47.06-.79-.3-.39.31-.3.32-.52.05-.71.08-1.42.12-2.13.01-.16,0-.35.09-.47.76-1.02.65-2.22.69-3.39,0-.23.08-.47.13-.7.06-.25.17-.5.19-.75.05-.77-.06-1.57.77-2.09.23-.14.26-.59.45-1.04Z"/>
      <path class="cls-2" d="M65.28,29.18c1.41.72,2.35,1.62,2.9,2.74.55,1.12,1.12,2.33.85,3.71-.16.83-.11,1.69-.59,2.45-.09.14-.14.37-.1.53.24,1.06-.28,1.96-.63,2.88-.44,1.17-.86,2.36-1.41,3.49-.61,1.26-1.15,2.63-2.07,3.63-.93,1.02-2.02,2.07-3.53,2.31-.21.03-.44.02-.66,0-.92-.11-1.85-.2-2.77-.38-.38-.08-.73-.34-1.07-.56-.67-.43-1.36-.82-2.24-.86.69-.28,1.35-.51,1.97-.82.42-.21.92-.47,1.13-.85.6-1.1,1.57-1.91,2.19-2.99.82-1.44,1.81-2.8,2.28-4.43.1-.35.29-.68.49-.99.17-.28.71-.41.31-.89.18-.14.49-.24.53-.41.17-.67.85-1.16.7-1.94-.02-.1.01-.26.08-.31.8-.61,1.06-1.51,1.15-2.42.13-1.25,1.05-2.35.5-3.87Z"/>
      <path class="cls-7" d="M43.43,90.58c-1.18.12-2.32.24-3.57.37-.07-1.23-.08-2.45-.22-3.65-.17-1.48-.19-2.97-.6-4.43-.19-.68-.36-1.44-.24-2.2.02-.11.04-.24,0-.33-.61-1.6-.1-3.26-.23-4.9-.09-1.09.07-2.26.06-3.39,0-.78.22-1.6.04-2.33-.18-.77.15-1.5-.05-2.23-.08-.28-.11-.57-.24-.83-.13-.26-.04-.41.04-.67.17-.54.23-1.14.19-1.71-.1-1.4-.39-2.78-.28-4.2.03-.36-.17-.73-.29-1.19,1.1-.06,2.14-.11,3.27-.17-.19,1.37.11,2.72.7,4.14-.38.42-.15,1.13-.02,1.73.25,1.13.18,2.27.22,3.4.07,1.88.04,3.76-.04,5.64-.07,1.58.19,3.11.43,4.66.1.63,0,1.28.02,1.93.02,1.04.24,2.03.49,3.04.22.87.06,1.83.08,2.74.01.48.08.95.1,1.42.05,1.03.08,2.05.12,3.16Z"/>
      <path class="cls-7" d="M31.29,56.9l2.48.44c.36.51.17,1.1.04,1.67-.2.86-.24,1.71-.02,2.57.02.06.08.15.06.17-.71.66-.5,1.54-.6,2.36-.1.8-.39,1.57-.54,2.37-.25,1.34-.46,2.7-.69,4.05-.16.98-.4,1.95-.59,2.91-.19.95-.31,1.95-.44,2.93-.13.97-.25,1.94-.36,2.91-.05.44-.13.89-.12,1.33.04,1.31-.42,2.55-.57,3.83-.18,1.54-.7,3.03-.63,4.6,0,.14-.06.29-.11.51-.24,0-.5.05-.73,0-.61-.12-1.21-.29-1.81-.41-.43-.09-.69-.27-.59-.76.22-1.01.22-2.05.42-3.07.31-1.57.64-3.16.58-4.79-.02-.56.19-1.14.29-1.71.24-1.26.48-2.51.72-3.77.24-1.27.53-2.53.73-3.8.11-.7.09-1.42.16-2.13.03-.32.13-.63.17-.95.05-.43.62-.83.09-1.29.57-.28.43-.85.51-1.32.08-.49-.04-1.02.09-1.49.12-.44.54-.81.68-1.25.13-.4.05-.87.07-1.3.09-1.32.46-2.58.82-3.84.06-.21-.06-.48-.11-.79Z"/>
      <path class="cls-6" d="M49.43,47.04c.33-.39.55-.73.86-.97.49-.39,1.04-.7,1.55-1.06.24-.17.53-.34.67-.58.49-.89,1.17-1.65,1.66-2.53.38-.69.68-1.42,1.21-2.02.04-.05-.1-.25-.18-.45,1.03-.44.94-1.67,1.51-2.5.32-.48.68-.97.83-1.51.24-.84,1.08-1.41,1.13-2.27.06-.94.54-1.7.77-2.54.21-.74.06-1.58.07-2.38,0-.11-.09-.21-.09-.32.04-.71.09-1.43.15-2.29.52.28,1.06.54,1.58.85.74.45,1.46.92,2.16,1.42.15.11.24.37.28.57.14.87.29,1.74.36,2.62.02.23-.41.55-.35.71.23.52-.14.79-.33,1.15-.12.23-.2.48-.25.73-.24,1.29-.91,2.38-1.56,3.48-.06.1-.12.19-.15.3-.47,1.59-1.42,2.93-2.23,4.34-.82,1.44-1.69,2.85-2.64,4.2-.35.5-1.01.8-1.55,1.15-.24.16-.56.2-.82.34-1.12.57-2.2.82-3.31-.05-.29-.23-.76-.23-1.31-.37Z"/>
      <path class="cls-6" d="M47.07,18.66c.98.43,1.89.83,2.64,1.16.71,1.52.66,3.04.8,4.71-.01.01-.24.19-.32.41-.39,1.19-.75,2.4-1.1,3.61-.23.78-.35,1.6-.67,2.34-.38.88-.84,1.75-1.42,2.5-1.12,1.44-1.9,3.06-2.83,4.6-.06.09-.06.24-.14.3-.84.66-1.03,1.74-1.65,2.54-.44.56-.88,1.04-1.65,1.2-.6.13-1.15.5-1.66.73-.96-.52-1.93-1.03-3.03-1.63.37-.29.72-.53,1.03-.82.61-.58,1.23-1.16,1.8-1.78.69-.75,1.21-1.64,1.81-2.44,1.02-1.35,1.87-2.79,2.8-4.18.44-.66.74-1.42,1.09-2.14.23-.46.43-.93.66-1.39.05-.1.2-.22.18-.26-.33-.6.35-.89.41-1.4.07-.57.41-1.11.22-1.73-.02-.08.08-.2.14-.29.7-1.18.82-2.44.65-3.79-.09-.68.14-1.4.24-2.25Z"/>
      <path class="cls-7" d="M46.2,47.36c.13.61.23,1.07.34,1.62.62-.32,1.13-.6,1.79-.95,0,.27.11.57,0,.67-.47.46-1,.86-1.49,1.29-.59.51-1.32.53-2.01.41-.6-.1-1.17-.39-1.75-.6-.28-.1-.56-.3-.83-.29-1.01.03-1.78-.61-2.67-.89-.45-.15-.91-.51-1.18-.91-.53-.75-1.37-.87-2.09-1.18-1.03-.43-2.28-.29-3.16-1.16-.75.12-1.05-.7-1.7-.81-1.71-.3-2.83-1.56-4.26-2.55.16-.55.35-1.1.47-1.67.07-.32.02-.67.02-1.06.75.21,1.53.56,2.27,1.04.49.32,1.06.53,1.62.74,1.58.59,3.18,1.11,4.73,1.76.8.33,1.48.94,2.26,1.32,1.33.65,2.54,1.58,4.08,1.8.34.05.61.47.95.59.86.31,1.74.56,2.59.83Z"/>
      <path class="cls-7" d="M25.4,63.05c.14-.09.33-.15.44-.28.66-.81.92-1.8,1.23-2.77.09-.3.18-.57.33-.86.43-.86.73-1.8.61-2.92l2.02.36c-.11.48-.19.82-.27,1.17-.24,1.03-.7,2.03-.34,3.12.02.06.04.15.01.19-.88,1-.47,2.35-.93,3.5-.43,1.08-.39,2.34-.63,3.5-.31,1.52-.69,3.02-1.02,4.53-.05.21-.01.44-.04.66-.04.36-.09.72-.15,1.15-1.81.21-3.06-.86-4.53-1.65.38-.88.79-1.72,1.12-2.6.26-.68.41-1.4.62-2.1.14-.48.3-.95.44-1.43.07-.23.1-.46.14-.7.03-.13,0-.29.08-.37.66-.71.89-1.56.84-2.5Z"/>
      <path class="cls-3" d="M69.86,39.95c.48.03.8.06,1.09.08.11.21.16.49.33.61,1.47,1.04,2.12,2.73,1.58,4.44-.39,1.23-.87,2.43-1.37,3.62-.49,1.18-1.42,1.61-2.6,1.14-.8-.32-1.65-.61-2.16-1.45-.22-.37-.33-.69-.07-.98,1.12-1.23,1.28-2.9,2.01-4.31.51-.98.8-2.08,1.19-3.15Z"/>
      <path class="cls-3" d="M28.84,91.07c0,.6.17,1.33-.04,1.91-.34.95-.47,1.92-.58,2.89-.07.56-.32.79-.84.79-.4,0-.8,0-1.2-.05-.4-.05-.79-.15-1.18-.23-.18-.03-.39-.12-.55-.07-.57.18-.82-.21-1.1-.56-.17-.21-.28-1.97-.12-2.2.46-.67.65-1.41.64-2.22,0-.94.49-1.17,1.28-.96,1.13.29,2.3.43,3.69.68Z"/>
      <path class="cls-3" d="M44.96,96.19c-.45.2-.94.6-1.17.49-.67-.35-1.22.07-1.7.23-.91.29-1.65-.1-2.46-.21-.47-.07-.65-.37-.59-.87.12-1.03.19-2.06.29-3.16,1.13-.24,2.3-.51,3.48-.71.33-.06.71.07,1.04.19.22.08.56.32.55.47-.11,1.27.5,2.43.57,3.59Z"/>
      <path class="cls-3" d="M9.14,84.84c1.38.73,2.67,1.38,3.92,2.1.22.13.44.7.34.86-.52.83-1.14,1.6-1.75,2.38-.29.36-.83.34-1.3.13-.77-.35-1.58-.63-2.57-1.02-.03-.06-.2-.34-.39-.67.08-.42.08-.96.28-1.41.24-.54.55-1.27,1.01-1.44.55-.2.46-.53.47-.92Z"/>
      <path class="cls-2" d="M26.35,76.15l-.57,3.19c-.36.04-.62.06-.89.09-.3-.72-.86-1.12-1.57-1.34-.23-.07-.44-.22-.67-.26-.97-.16-1.46-.98-2.16-1.56.16-.47.31-.95.48-1.43.15-.45.52-.68.88-.45.89.57,1.83.91,2.88.97.34.67,1.1.49,1.63.8Z"/>
      <path class="cls-2" d="M37.14,78.82c-.76.35-1.44.83-2.17.95-.91.15-1.88,0-2.82-.02.05-.8.09-1.56.15-2.42.24-.28.64-.35,1.12-.34.44.01.88-.11,1.31-.18.38-.06.78-.23,1.15-.19.4.04.79.26,1.26.43,0,.53,0,1.11,0,1.77Z"/>
      <path class="cls-4" d="M6.18,25.6c-.26.04-.5.07-.78.11-.05-.19-.11-.33-.12-.47-.09-1.33.04-2.74-.58-3.94-.62-1.21-.31-2.34-.13-3.52.2-1.28.26-2.6.62-3.83.34-1.17.31-2.53,1.42-3.41.17-.14.19-.46.31-.68.28-.51.42-1.14,1.04-1.37.3-.11.18-.2.11-.39-.04-.1.05-.34.15-.38.44-.19.56-.57.64-.98.1-.49.86-.53.76-1.15,0-.04.09-.11.16-.14.85-.34,1.7-.68,2.55-1.02.38-.15.83-.21,1.13-.45.64-.51,1.4-.46,2.12-.56.51-.07,1.03-.03,1.54-.1,1.72-.24,3.18.58,3.8,2.16.34.86.83,1.65,1.21,2.46.51,1.09.68,2.35.45,3.63-.27,1.47-.76,2.88-1.16,4.31-.33,1.18-1.01,2.14-1.77,3.07-.49.6-.9,1.22-1.24,1.93-.42.87-1.18,1.58-1.82,2.33-.41.48-.86.93-1.31,1.38-.15.16-.32.35-.52.4-1,.24-1.72.95-2.56,1.47-.28.18-.57.34-.85.51-1.61.97-3.05.22-4.45-.51-.3-.16-.47-.56-.71-.85ZM13.03,8.92c-.3.51-.51.95-.81,1.31-.3.36-.47.93-1.09.93.3.72-.6.74-.73,1.23-.07.27-.28.49-.4.75-.65,1.44-1.32,2.87-1.92,4.33-.35.86-.62,1.75-.88,2.64-.14.48-.19,1-.28,1.49-.06.32-.09.65-.17.97-.22.83.36,1.4.69,2.02.65,1.22,1.43,1.54,2.73,1.12.56-.18,1.04-.4,1.49-.85.47-.47,1.24-.63,1.81-1.02.66-.44,1.31-.92,1.86-1.49.6-.62,1.11-1.34,1.61-2.05.51-.72.89-1.54,1.47-2.2.5-.58.94-1.17,1.21-1.88.21-.57.49-1.09.63-1.7.31-1.42.87-2.79.95-4.27.02-.42,0-.76-.18-1.11-.49-.97-1.16-1.85-1.35-2.97-.05-.28-.35-.51-.46-.67-1.01.38-1.85.83-2.74,1.01-.88.17-1.41.74-1.89,1.34-.45.56-1,.84-1.56,1.08ZM6.09,17.95c.07,0,.15,0,.22-.01.48-1.11.92-2.23,1.43-3.32.79-1.68,1.7-3.28,2.94-4.68.78-.88,1.51-1.8,2.28-2.68.29-.33.61-.71,1-.85.67-.24.94-.93,1.55-1.2.04-.02.02-.2.02-.33-.36.13-.7.25-1.03.37-.72.26-1.51.42-2.16.81-1.3.78-2.66,1.52-3.28,3.08-.13.34-.35.67-.51,1.03-.27.57-.68,1.11-1.43,1.31.23,1.12-.39,2.09-.61,3.12-.24,1.14-.41,2.23-.42,3.36Z"/>
      <path class="cls-5" d="M13.03,8.92c.56-.24,1.11-.52,1.56-1.08.48-.6,1-1.16,1.89-1.34.89-.18,1.73-.62,2.74-1.01.12.16.41.39.46.67.19,1.12.86,2,1.35,2.97.18.35.2.69.18,1.11-.08,1.49-.64,2.85-.95,4.27-.13.61-.42,1.14-.63,1.7-.26.71-.7,1.3-1.21,1.88-.57.66-.96,1.48-1.47,2.2-.5.71-1.01,1.43-1.61,2.05-.55.57-1.2,1.05-1.86,1.49-.58.38-1.35.54-1.81,1.02-.45.46-.93.67-1.49.85-1.3.42-2.08.09-2.73-1.12-.33-.62-.91-1.19-.69-2.02.08-.32.11-.65.17-.97.09-.5.14-1.01.28-1.49.26-.89.53-1.78.88-2.64.6-1.46,1.27-2.89,1.92-4.33.12-.26.33-.49.4-.75.12-.49,1.03-.5.73-1.23.62,0,.78-.56,1.09-.93.3-.36.5-.8.81-1.31ZM11.18,17.84c1.06-.5,1.89-1.16,2.51-2.08,1.23-1.84,3.08-2.96,4.85-4.17.78-.53.93-2.13.26-2.82-.32-.33-.62-.68-.98-1.06-1.25.86-2.89,1.27-3.44,2.86-.32.22-.67.36-.87.62-.66.85-1.34,1.69-1.87,2.62-.52.91-1.18,1.77-1.19,2.94,0,.6.17.89.73,1.09ZM8.55,20.08c.12.38.19.9.45,1.28.17.26.62.42.95.45.8.08,1.3-.69,1.33-1.93.01-.53-.21-.7-1.1-.8-.09.25-.19.51-.31.83-.48-.72-.86-.39-1.32.16Z"/>
      <path class="cls-1" d="M6.09,17.95c.01-1.13.18-2.22.42-3.36.22-1.04.85-2,.61-3.12.74-.19,1.16-.74,1.43-1.31.16-.35.38-.69.51-1.03.62-1.56,1.99-2.3,3.28-3.08.65-.39,1.43-.55,2.16-.81.33-.12.66-.24,1.03-.37,0,.13.02.31-.02.33-.61.27-.88.96-1.55,1.2-.39.14-.71.52-1,.85-.78.88-1.5,1.81-2.28,2.68-1.25,1.4-2.15,3-2.94,4.68-.51,1.09-.96,2.21-1.43,3.32-.07,0-.15,0-.22.01Z"/>
      <path class="cls-4" d="M11.18,17.84c-.55-.2-.73-.49-.73-1.09.01-1.16.67-2.03,1.19-2.94.53-.93,1.21-1.77,1.87-2.62.2-.26.55-.4.87-.62.55-1.59,2.19-2,3.44-2.86.36.39.66.73.98,1.06.66.68.52,2.28-.26,2.82-1.77,1.21-3.62,2.33-4.85,4.17-.61.92-1.45,1.58-2.51,2.08ZM15.26,11.75c1.27.05,1.85-.8,2.41-1.8-.86-.39-1.06.65-1.73.69-.53.04-.48.72-.67,1.13-.46-.07-.54.17-.51.6.43-.07.48-.33.49-.62Z"/>
      <path class="cls-4" d="M8.55,20.08c.46-.56.84-.88,1.32-.16.12-.32.22-.58.31-.83.89.1,1.12.27,1.1.8-.03,1.24-.54,2.01-1.33,1.93-.34-.04-.78-.2-.95-.45-.26-.38-.33-.9-.45-1.28Z"/>
      <path class="cls-7" d="M15.28,11.78c.19-.41.14-1.1.67-1.13.66-.04.86-1.08,1.73-.69-.57,1-1.15,1.85-2.41,1.8l.02.03Z"/>
      <path class="cls-7" d="M15.26,11.75c0,.29-.06.55-.49.62-.03-.43.05-.67.51-.6,0,0-.02-.03-.02-.03Z"/>
    </g>
  </g>
</svg>