<?xml version="1.0" encoding="UTF-8"?>
<svg id="_图层_2" data-name="图层 2" xmlns="http://www.w3.org/2000/svg" viewBox="0 0 160.86 43.16">
  <defs>
    <style>
      .cls-1 {
        fill: #1d1e1e;
        stroke-width: 0px;
      }
    </style>
  </defs>
  <g id="_レイヤー_1" data-name="レイヤー 1">
    <g>
      <path class="cls-1" d="m14.72,3.6c.41.49.84,1.16,1.28,2,.44.85.75,1.59.92,2.23.14.5.28.84.44,1.01.15.17.39.26.71.26.64,0,.96-.43.96-1.3V1.16c0-.41-.07-.7-.2-.88-.13-.18-.36-.26-.67-.26s-.56.14-.77.43c-.3.4-.49.64-.59.73-.1.09-.24.13-.42.13-.19,0-.47-.08-.82-.24C14.37.55,12.84.2,10.99.03v1.84c.86.05,1.59.2,2.17.47.58.27,1.1.69,1.57,1.25Z"/>
      <path class="cls-1" d="m18.41,11.96h-6.81c-.5,0-.88.08-1.13.24-.26.16-.38.39-.38.68,0,.5.27.82.82.96.44.1.71.17.78.2.08.03.16.1.24.21.17.19.26.51.26.96v4.98c0,.55-.1,1-.29,1.35-.11.2-.25.36-.42.48-.16.11-.41.21-.74.29v1.93c.57,0,1.23-.07,1.97-.22.74-.15,1.42-.34,2.04-.58.67-.27,1.38-.65,2.14-1.12.76-.47,1.36-.94,1.82-1.39v-5.82c0-.36.03-.61.09-.75.06-.14.2-.28.43-.44.23-.16.38-.31.47-.45.09-.14.13-.32.13-.54,0-.35-.11-.6-.32-.74-.21-.14-.57-.21-1.08-.21Z"/>
      <path class="cls-1" d="m5.02,1.54c-1.62,1.07-2.86,2.54-3.72,4.42-.86,1.88-1.3,4.03-1.3,6.45s.48,4.67,1.45,6.5c.63,1.17,1.42,2.18,2.39,3.02.97.84,2.05,1.47,3.24,1.88.5.17.9.28,1.2.34.3.06.63.09,1,.09v-1.93c-.48-.19-.79-.43-.94-.7-.17-.33-.26-.8-.26-1.42V4.3c0-1.35.5-2.15,1.5-2.39V.02c-.6,0-1.13.06-1.57.17-1.07.27-2.07.72-3,1.35Z"/>
      <path class="cls-1" d="m36.11.77c-1.02-.44-2.14-.69-3.37-.75v1.84c.35.13.62.26.81.39.19.14.35.32.49.56.2.35.31.83.31,1.43v15.25c0,.94-.15,1.65-.46,2.12-.14.2-.29.36-.45.47-.16.11-.4.2-.69.26v1.88c2.54-.19,4.66-1.14,6.36-2.85,2.22-2.21,3.33-5.28,3.33-9.23s-1.16-7.17-3.48-9.43c-.88-.85-1.82-1.5-2.84-1.94Z"/>
      <path class="cls-1" d="m25.15,2.71c-1.15,1.11-2.02,2.47-2.6,4.07-.59,1.6-.88,3.39-.88,5.37,0,3.95,1.11,7.02,3.33,9.23,1.71,1.69,3.82,2.64,6.35,2.85v-1.88c-.57-.15-.96-.39-1.18-.73-.27-.41-.41-1.11-.41-2.12V4.25c0-.68.12-1.2.36-1.55.24-.35.65-.63,1.23-.84V.02c-1.23.06-2.35.31-3.36.75-1.01.44-1.96,1.09-2.83,1.94Z"/>
      <path class="cls-1" d="m67.14,21.98c-.24-.1-.43-.25-.58-.44-.15-.19-.29-.46-.43-.83l-5.15-13.48,1.18-1.62c.64-.85,1.17-1.46,1.6-1.83.58-.48,1.06-.78,1.43-.92l.9-.36c.52-.2.78-.55.78-1.02,0-.32-.11-.57-.33-.74-.22-.18-.53-.26-.93-.26h-6.07c-.36,0-.63.06-.78.19-.24.19-.36.44-.36.75,0,.38.19.64.58.8l.61.26c.28.11.51.31.68.58.17.27.26.57.26.89,0,.58-.19,1.14-.58,1.67l-4.08,5.75c-.33.47-.49.9-.49,1.3,0,.42.1.93.31,1.54l2.18,6.52c.09.28.14.47.14.55-.01.15-.06.26-.15.35-.09.09-.27.19-.53.32-.42.2-.63.49-.63.85,0,.32.11.56.33.73.22.17.54.26.95.26h8.58c.85,0,1.28-.3,1.28-.9,0-.26-.08-.47-.24-.63-.07-.06-.22-.14-.46-.26Z"/>
      <path class="cls-1" d="m55.88,22.88c0-.48-.22-.78-.65-.92l-.53-.17c-.33-.11-.49-.49-.49-1.13V3.58c0-.4.07-.69.2-.87.07-.1.13-.17.2-.2.06-.03.28-.1.66-.23.45-.15.68-.45.68-.92,0-.28-.11-.5-.33-.66-.22-.15-.54-.23-.95-.23h-8.5c-.41,0-.73.08-.95.23-.22.15-.33.37-.33.66,0,.47.23.77.68.92.38.13.59.2.66.23.06.03.13.09.2.2.14.18.2.47.2.87v17.08c0,.4-.07.69-.2.87-.07.1-.13.17-.2.2-.06.03-.28.11-.66.23-.46.15-.68.46-.68.92,0,.28.11.5.33.66.22.15.54.23.95.23h8.5c.81,0,1.21-.3,1.21-.89Z"/>
      <path class="cls-1" d="m87.39,21.45c.84-1.23,1.26-2.8,1.26-4.71V5.6c0-.72.14-1.36.43-1.92.28-.56.68-.98,1.18-1.25.43-.25.68-.4.73-.46.18-.17.27-.38.27-.63,0-.3-.15-.53-.44-.7-.11-.07-.23-.11-.35-.13s-.36-.03-.71-.03h-4.18c-.49,0-.84.06-1.06.19-.22.13-.32.34-.32.63,0,.25.05.44.16.57.11.13.34.29.69.47,1.19.61,1.79,1.7,1.79,3.26v11.12c0,1.68-.43,2.97-1.3,3.87-.76.78-1.71,1.25-2.85,1.4v2.24c.8-.13,1.48-.32,2.05-.6,1.15-.55,2.03-1.27,2.64-2.18Z"/>
      <path class="cls-1" d="m79.59,20.95c-.16-.31-.26-.65-.32-1.03-.05-.38-.08-1.05-.08-2.02V3.58c0-.4.07-.69.2-.87.07-.1.13-.17.2-.2.06-.03.28-.1.66-.23.45-.15.68-.45.68-.9,0-.2-.06-.38-.19-.53-.13-.15-.28-.25-.48-.31l-.61-.07h-8.5c-.41,0-.73.08-.95.23-.22.15-.33.38-.33.67,0,.46.23.76.68.9.38.13.59.2.66.23.06.03.13.09.2.2.14.18.2.47.2.87v13.38c0,1.52.19,2.68.58,3.48.36.75.98,1.43,1.84,2.03.86.6,1.87,1.06,3.02,1.36.98.26,2.21.39,3.69.39h.38v-2.24c-.51-.16-.86-.3-1.04-.43-.18-.13-.35-.33-.49-.61Z"/>
      <path class="cls-1" d="m110.73,16.99c-.25,0-.45.08-.61.23-.15.15-.29.41-.4.78-.2.66-.51,1.27-.92,1.82-.41.55-.88.99-1.4,1.32-.98.6-1.91.94-2.8,1.01v2.08c.99-.05,1.88-.25,2.67-.61.79-.36,1.56-.92,2.31-1.67.61-.61,1.12-1.29,1.51-2.01.39-.73.59-1.35.59-1.86,0-.31-.09-.56-.27-.77-.18-.2-.41-.31-.68-.31Z"/>
      <path class="cls-1" d="m103.2,22.15c-.35-.03-.63-.1-.84-.2-.2-.1-.4-.26-.58-.49-.17-.2-.31-.45-.42-.74-.11-.29-.16-.57-.16-.83V5.07c0-.91.16-1.61.49-2.1.33-.49.83-.78,1.5-.89V.02l-.39-.02c-1.17,0-2.39.34-3.66,1.01-1.27.67-2.36,1.56-3.27,2.66-.9,1.09-1.58,2.38-2.06,3.86-.47,1.48-.71,3.09-.71,4.8,0,2.34.36,4.37,1.09,6.08.73,1.71,1.81,3.07,3.24,4.09,1.63,1.15,3.54,1.72,5.75,1.72v-2.08Z"/>
      <path class="cls-1" d="m107.21,3.62c.63.67,1.18,1.55,1.67,2.63.23.51.46,1.22.7,2.12.1.4.24.69.4.86.16.18.38.26.66.26s.49-.1.7-.31c.2-.2.31-.53.31-.99V1.09c0-.35-.08-.62-.25-.8-.17-.18-.4-.27-.71-.27-.38,0-.63.14-.77.41l-.22.41c-.17.3-.42.44-.75.44-.19,0-.58-.1-1.16-.31-.91-.33-1.54-.55-1.89-.65-.35-.1-.8-.2-1.36-.29v2.06c.51.07.98.22,1.4.47.42.24.84.59,1.26,1.05Z"/>
      <path class="cls-1" d="m135.93,2.71c.07-.1.13-.17.2-.2.06-.03.28-.1.66-.23.45-.15.68-.45.68-.92,0-.59-.43-.89-1.28-.89h-8.5c-.82,0-1.23.3-1.23.89,0,.48.22.78.65.92l.55.17c.33.11.49.49.49,1.13v7.44h-2.78v1.69h2.78v7.88c0,.66-.16,1.04-.49,1.14l-.55.19c-.43.15-.65.46-.65.94,0,.6.4.9,1.19.9h8.53c.85,0,1.28-.3,1.28-.9,0-.48-.23-.79-.68-.94l-.55-.19c-.34-.14-.51-.52-.51-1.14V3.58c0-.4.07-.69.2-.87Z"/>
      <path class="cls-1" d="m124.94,21.96l-.53-.17c-.33-.11-.49-.49-.49-1.13V3.58c0-.64.16-1.01.49-1.13l.53-.17c.43-.14.65-.44.65-.92,0-.59-.4-.89-1.21-.89h-8.5c-.41,0-.73.08-.95.23-.22.15-.33.37-.33.66,0,.47.23.77.68.92.38.13.59.2.66.23.06.03.13.09.2.2.14.18.2.47.2.87v17.08c0,.4-.07.69-.2.87-.07.1-.13.17-.2.2-.06.03-.28.11-.66.23-.46.15-.68.46-.68.92,0,.28.11.5.33.66.22.15.54.23.95.23h8.5c.81,0,1.21-.3,1.21-.89,0-.48-.22-.78-.65-.92Z"/>
      <path class="cls-1" d="m145.6,22.06l-.6-.27c-.67-.31-1.01-.82-1.01-1.54,0-.27.05-.57.14-.89l3.02-11.02-.87-3.53-3.86,14.06c-.2.77-.47,1.39-.78,1.86-.2.28-.42.51-.64.67-.22.17-.57.35-1.03.55-.5.22-.75.49-.75.82,0,.31.12.55.37.73.24.18.58.26,1,.26h4.33c.83,0,1.25-.28,1.25-.85,0-.4-.19-.68-.56-.85Z"/>
      <path class="cls-1" d="m160.68,22.37c-.11-.12-.32-.25-.61-.38-.35-.14-.58-.31-.68-.53-.11-.27-.22-.59-.31-.94L154.34.48h-6.88l-.43,1.67,3.14,13.87h-3.82l-.46,2.03h4.76l.55,2.47c.03.15.05.32.05.51,0,.2-.05.38-.14.51-.09.14-.25.26-.48.38-.32.17-.52.31-.61.43-.09.11-.14.28-.14.51,0,.27.1.49.31.66.2.16.48.25.82.25h8.51c.89,0,1.33-.3,1.33-.89,0-.22-.06-.39-.17-.51Z"/>
      <path class="cls-1" d="m62.98,33.98c-.2-.2-.36-.31-.62-.45-.09-.05-.19-.06-.26-.06s-.16,0-.22.05c-.11.06-.16.14-.16.23,0,.08.03.17.14.26.17.16.33.34.48.5.17.19.33.4.48.62.09.14.17.26.3.28h.02c.12,0,.26-.12.34-.28.06-.11.09-.19.09-.31,0-.03,0-.05-.02-.08-.03-.26-.28-.55-.58-.76Z"/>
      <path class="cls-1" d="m64.27,33.04c-.22-.19-.37-.28-.64-.44-.09-.05-.19-.08-.26-.08s-.16.02-.22.06c-.11.06-.16.16-.16.23s.03.17.14.25c.17.17.33.37.48.51.17.17.33.42.48.62.09.12.19.25.3.26h.02c.12,0,.26-.12.34-.26.06-.09.09-.17.09-.31,0-.03,0-.06-.02-.09-.03-.25-.28-.53-.56-.76Z"/>
      <path class="cls-1" d="m61.33,35.08h-.16c-.22,0-.47.03-.7.03h-2.26c-.87.02-1.7.02-2.2.02-.31,0-.62-.2-.92-.2h-.05c-.25.02-.39.2-.5.42-.09.17-.26.51-.26.76,0,.11.03.22.12.3.11.11.23.16.37.16.09,0,.22-.02.31-.05.3-.06.69-.14,1.03-.19.75-.08,1.29-.14,1.99-.16h.87c.42,0,.78,0,1.26.02.11,0,.48.05.58.16.09.11.16.25.17.51.02.31.03.61.03.98v.16c0,.44-.02.79-.02,1.14v.14c0,.14-.02.3-.14.42-.05.05-.16.05-.36.05h-.22c-.59-.02-1.31-.02-2.16-.02-.47,0-1.34.02-2.15.03-.16,0-.3-.06-.45-.11-.11-.05-.22-.12-.34-.12,0,0-.02,0-.03.02-.31.03-.72.42-.83.7-.06.14-.08.26-.08.37,0,.14.03.28.12.37.09.16.25.25.47.25h.11c.22-.03.39-.11.58-.16.26-.06.51-.14.69-.16.7-.08,1.04-.11,1.93-.11.73,0,1.48,0,2.06.05.17.02.56.12.69.17.23.11.47.22.7.22.11,0,.26-.03.42-.12.22-.14.28-.45.28-.76,0-.36-.06-.72-.08-.97-.02-.22-.02-.5-.02-.76,0-.47.02-.98.02-1.56,0-.2.05-.61.09-.89,0-.03.02-.06.02-.09,0-.5-.64-.98-1-1.01Z"/>
      <path class="cls-1" d="m76.6,35.1h-.03c-.26,0-.48.14-.75.16-.36.02-.83.03-1.28.03h-.05c-.36,0-.79.03-1.15.03h-.09c.14-.23.25-.39.39-.65.09-.22.2-.36.28-.47.11-.11.26-.39.26-.56v-.05c-.05-.2-.31-.36-.51-.44-.17-.05-.44-.11-.62-.11-.06,0-.12.02-.19.03-.11.06-.16.17-.16.33,0,.06,0,.14.02.23v.06c0,.16-.05.33-.09.48-.06.25-.25.69-.4.93-.34.55-.62.93-1.11,1.46-.14.17-.67.64-.97.86-.17.12-.48.31-.7.42-.09.05-.39.16-.4.28,0,.2.39.53.7.69.16.08.31.14.45.14h.09c.25-.06.62-.41.9-.73.67-.7,1.03-1.18,1.49-1.92.56-.06.95-.09,1.51-.12.26,0,.58-.02.86-.02.16,0,.33,0,.5.02.17,0,.4.02.5.09.06.05.09.11.09.2,0,.06-.02.12-.03.2-.03.17-.09.34-.19.58-.06.17-.17.33-.22.44-.55,1.18-1.51,2.27-2.62,3.05-.17.14-.42.26-.65.37-.23.11-.5.2-.72.33-.28.14-.58.22-.87.31-.14.05-.31.08-.44.12-.16.03-.28.08-.3.14v.05c0,.23.47.56.65.7.26.16.48.23.7.23.31,0,.61-.14.95-.33,1-.5,1.88-1.25,2.55-1.96,1.09-1.12,1.79-2.46,2.3-3.86.14-.37.23-.58.3-.7.03-.09.05-.14.05-.23,0-.05,0-.09-.02-.16-.03-.23-.48-.67-1.01-.67Z"/>
      <path class="cls-1" d="m93.03,36.72s-.06-.02-.11-.02c-.14,0-.34.03-.44.08-.2.05-.62.12-.83.12-.19.02-.39.02-.56.02h-.62c-.59-.02-.98-.02-1.48-.03v-1.76c.5-.05.86-.12,1.31-.16.22-.02.62-.08.81-.09.23-.03.33-.05.45-.19.03-.06.06-.16.06-.25,0-.16-.06-.33-.19-.48-.23-.33-.45-.48-.75-.48-.05,0-.08,0-.12.02-.16.02-.25.09-.36.17-.14.09-.23.16-.36.19-.76.23-1.45.33-2.26.39-.89.06-1.64.14-2.52.17-.22.02-.98-.03-1,.37v.02c0,.34.39.45.98.55.25.03.5.03.78.03.19,0,.37,0,.56-.02.47-.02.9-.08,1.43-.11.05.28.08.78.08,1.17,0,.19,0,.34-.02.47-.56.02-1.4.06-2.23.06h-.58c-.22,0-.44,0-.67-.02-.23-.02-.53-.12-.76-.12-.03,0-.05,0-.08.02-.16.02-.39.28-.53.54-.09.16-.16.36-.16.51,0,.12.05.23.16.31.09.08.25.12.4.12.05,0,.09,0,.14-.03.14-.03.53-.12.76-.19.47-.09.81-.12,1.15-.14,1.01-.05,1.46-.05,2.38-.06-.02.45-.06.89-.17,1.34-.12.37-.28.73-.48,1.07-.22.3-.59.58-.92.78-.25.16-.69.3-1.03.4-.17.05-.59.09-.62.28v.05c0,.11.11.25.25.36.14.12.33.22.5.31.22.12.37.2.58.22h.02c.23,0,.72-.26,1.14-.56.51-.39.9-.86,1.23-1.45.25-.42.36-.78.44-1.29.08-.45.14-1.06.17-1.51.84.02,1.65.12,2.51.19.09.02.25.05.4.06.11.03.26.05.36.05h.03c.26-.03.5-.33.61-.59.09-.22.22-.53.22-.75,0-.08-.02-.14-.08-.14Z"/>
      <path class="cls-1" d="m104.95,36.83h-.03c-.22,0-.37.2-.59.28-.51.12-.93.22-1.39.31-.61.14-1.17.28-1.71.39-.11-.33-.25-.79-.36-1.09-.05-.12-.06-.26-.11-.42-.06-.33-.2-.51-.5-.51-.08,0-.2.02-.31.06-.2.05-.5.17-.5.42,0,.11.05.19.11.25.11.16.16.22.22.4.11.37.33.78.47,1.07l-1.48.26s-.05.02-.08.02c-.11,0-.2-.06-.33-.06-.02,0-.05,0-.09.02-.3.05-.42.34-.47.61-.02.06-.02.14-.02.22,0,.19.05.37.19.48.08.08.14.09.22.09.11,0,.22-.05.33-.09.2-.06.37-.17.59-.23.47-.22.97-.3,1.46-.42.36,1.07.69,2.12.97,3.18.09.36.19.55.22.7.05.12.09.22.16.28.09.08.23.12.39.12.08,0,.16,0,.23-.03.26-.09.37-.22.42-.39v-.09c0-.08-.03-.14-.05-.23-.05-.12-.12-.36-.23-.62-.26-.62-.47-1.31-.58-1.64l-.53-1.49c.79-.19,1.6-.34,2.41-.56.06-.02.26-.08.36-.08.02,0,.05.02.05.02.02.02.03.03.03.06,0,.06-.08.16-.17.28-.31.28-.64.56-1.07.81-.12.08-.56.22-.56.42v.02c.02.17.31.33.59.44.14.05.3.08.44.08.06,0,.12-.02.19-.03.22-.06.44-.26.64-.47.34-.33.59-.73.89-1.07.11-.14.19-.33.3-.44.14-.09.25-.14.28-.3v-.08c0-.2-.14-.39-.31-.56-.23-.23-.55-.37-.67-.37Z"/>
    </g>
  </g>
</svg>