<svg width="77" height="89" viewBox="0 0 77 89" fill="none" xmlns="http://www.w3.org/2000/svg">
<g clip-path="url('#clip0_85_401')">
<path d="M4.94319 10.0217C5.19035 9.69906 5.39949 9.14862 5.70369 9.0727C7.69998 8.57921 8.1943 7.04178 8.51751 5.3525C8.44146 4.70716 10.0385 4.74513 9.29702 4.23265C8.17529 3.43546 9.18294 2.96095 9.43011 2.75216C10.2666 2.04988 11.2363 1.51843 12.1679 0.949007C12.7002 0.626337 12.9664 0.835124 13.3466 1.30964C14.3733 2.60032 14.2783 4.65022 16.1795 5.3525C16.3126 5.39047 16.2936 5.92192 15.9894 6.14969C15.7232 6.58624 15.8943 7.23158 15.362 7.55425C15.3239 7.45935 15.2669 7.38343 15.2289 7.28852C15.1908 7.34547 15.1528 7.40241 15.1338 7.47833C15.2289 7.47833 15.3049 7.49731 15.4 7.51629C15.2479 8.75003 14.3353 9.81294 14.4874 11.2744C15.6852 9.90785 18.3659 9.35741 18.48 10.2495C18.6511 11.6161 19.6778 12.1855 20.4192 12.7929C21.56 13.7609 21.8642 14.4632 20.7424 15.4881C20.3622 15.8298 20.6854 16.1335 20.7995 16.2284C22.2064 17.2154 21.2748 18.0885 20.4953 18.582C19.6587 19.1134 19.5257 19.569 19.982 20.3092C20.096 20.499 20.4763 20.6698 20.2862 20.8596C18.4229 22.7008 20.7805 22.3591 21.3508 22.9475C21.4079 22.9475 21.4649 22.9096 21.522 22.8716L21.617 22.8147C22.8148 23.2322 23.3662 25.0164 22.5106 25.1872C20.7425 25.5289 21.3699 26.7057 21.1227 27.5978C20.2481 27.8445 19.3926 28.2621 19.7728 29.306C20.077 30.1601 19.7538 30.6726 19.3926 31.299C18.7081 32.5137 19.6778 32.1721 20.2671 32.1911C20.4192 33.4438 20.8375 34.5826 20.4953 35.9872C20.2101 37.2019 19.3165 38.3598 19.6968 39.7453C18.9363 40.4286 19.2405 41.4726 18.8792 42.2128C17.9286 44.1488 18.8792 44.5095 20.4953 44.5854C21.2368 45.0599 21.0466 45.6863 20.5523 46.0659C20.096 46.4075 20.115 46.7112 20.2481 47.1288C19.0313 48.1917 18.518 49.4824 18.9933 51.0957C19.0504 51.3235 19.1264 51.6082 19.0313 51.798C18.1758 53.5822 19.1644 53.734 20.5523 53.5252C21.1797 53.6012 21.8071 53.6581 22.4155 53.734L22.4536 53.8669C22.2064 55.4423 23.4992 56.9797 22.5296 58.5551C22.3205 58.7639 21.8832 59.0486 21.9212 59.1625C22.2824 60.1495 22.2444 61.0226 21.4839 61.8388C21.3889 61.9337 21.7501 62.617 22.0353 62.8827C22.4345 63.2813 22.6057 62.6929 22.8718 62.541C23.2331 62.3322 23.5943 62.1235 23.9555 61.9147C25.0202 61.2503 25.9518 61.2883 26.9595 62.1614C27.701 62.8068 26.6553 63.1864 26.9024 63.6988C27.1496 64.8567 25.8948 65.502 25.7807 66.7737C26.7123 66.0904 27.4538 65.5589 28.2143 65.0085C29.3931 64.6858 30.0775 66.0524 31.2183 65.8437C31.7316 66.9825 32.7963 66.7927 33.7469 66.8876C34.9827 67.0205 36.2755 66.8117 36.8079 68.5199C37.0741 69.374 35.6481 69.45 36.3706 70.3041C36.96 70.9874 36.4276 71.8415 36.1044 72.6387C37.7965 72.5818 37.5113 71.4429 37.6064 70.5129C38.8992 70.6457 38.6711 69.6398 38.8232 68.8995C40.5153 69.393 42.1694 69.7916 42.8918 67.495C43.4052 67.0015 43.8615 66.3182 44.698 66.9255C45.1543 67.5519 45.6106 68.5579 46.4662 68.1023C47.3217 67.6658 47.4168 66.6219 47.0175 65.6918C46.9795 65.5779 46.8654 65.502 46.7894 65.4071C47.2076 64.2872 47.816 63.3762 49.1849 63.3382C49.4891 63.3003 49.8123 63.3382 50.0975 63.2433C51.2192 62.8447 53.6528 63.6229 52.2269 60.9087C52.1508 60.7569 52.398 60.4342 52.379 60.2064C52.2459 58.8208 52.455 57.3783 51.9607 56.0307V56.0686C52.5311 55.689 53.919 56.5432 53.7859 55.1006C53.4817 51.7031 53.0824 48.3246 52.6262 44.946C52.2459 42.2128 51.7326 39.5176 51.2763 36.8033L51.2192 36.8793C51.5615 36.6515 51.7896 36.2909 51.5425 35.9682C50.0215 33.8993 51.9607 31.3749 50.6299 29.287C50.5538 29.1731 50.9721 28.7935 50.896 28.6607C50.5538 27.9204 51.2573 26.8196 50.1165 26.364C50.1165 26.1363 50.0785 25.8895 50.0595 25.6617C50.5918 25.7756 50.82 25.5858 50.7629 25.0354C50.6869 24.3331 50.6299 23.6498 50.5728 22.9475C50.7439 22.8336 50.915 22.7387 51.0671 22.6248C51.0291 22.5869 50.9911 22.5299 50.9341 22.511C50.6679 22.473 50.5538 22.6248 50.4778 22.8526C49.8123 22.8906 50.5348 25.2631 48.9378 23.7637C49.5652 21.9985 49.5842 21.7517 49.2039 21.3531C47.9681 20.0814 47.8731 18.4491 48.1773 16.8927C48.3104 16.2284 48.0442 14.9757 49.337 14.8048C50.4017 14.8238 51.5044 14.9757 52.5501 14.8428C53.6528 14.7099 54.1471 15.0895 54.2042 16.1335C54.1852 16.1904 54.1662 16.2474 54.1281 16.2853C54.1471 16.2284 54.1662 16.1714 54.1852 16.1145C55.459 15.7728 54.6795 14.8808 54.6795 14.1975C54.8696 14.1975 55.0407 14.1975 54.8696 13.9317C54.8126 14.0266 54.7555 14.1215 54.6985 14.2164C54.5844 14.1785 54.3943 14.1405 54.3943 14.0836C54.1281 11.9008 56.1815 10.2305 58.2158 10.9708C58.7101 11.1416 59.1664 11.2934 59.5847 10.9518C60.06 10.5532 59.8508 10.0977 59.5086 9.69906C59.4136 9.62314 59.3185 9.54722 59.2044 9.49027C59.3185 9.03474 59.4516 8.59819 59.5657 8.14265C59.6797 7.78202 59.9079 7.42139 59.4896 7.1177L59.4706 7.15566C60.9536 6.07377 62.4745 6.18765 64.0336 6.96586C63.9575 7.8959 64.2997 8.40838 65.3264 8.31348C65.9728 8.25654 66.6192 8.31348 67.2657 8.31348C68.4254 8.67411 68.7296 9.24353 68.2733 9.35741C66.7903 9.68008 67.76 10.705 67.779 11.1795C67.836 12.9068 68.3874 14.653 68.4824 16.3043C68.5775 18.1454 69.1669 20.1004 68.8817 21.7517C68.3874 24.4849 70.3457 26.8955 69.357 29.5338C69.0148 29.8944 69.1099 30.331 69.1479 30.7485C69.338 33.1401 69.6042 35.5316 69.6992 37.9422C69.7182 38.6824 69.9844 38.9102 70.5738 39.062C70.7639 39.5745 72.1518 39.5745 71.3153 40.4476C70.7259 41.074 70.821 41.6244 70.9921 42.2508C71.6195 44.4715 71.8666 46.6353 71.7336 49.0079C71.6385 50.8869 71.9237 52.9179 72.1518 54.8539C72.3229 56.1636 71.6575 56.4293 70.916 56.9038C70.0795 57.2644 69.2049 57.9667 68.4064 57.8908C66.9424 57.7579 66.8664 58.4412 66.8094 59.5421C66.7333 61.2504 66.4101 63.2053 65.3264 64.2872C63.9955 65.5969 63.2541 66.6598 63.6153 68.5389C63.8434 69.7347 63.2731 70.8925 62.1894 71.4999C61.3718 71.9554 60.4212 72.2781 59.4326 71.5568C58.482 70.8735 57.4743 71.4809 56.8469 72.5818C56.1624 73.7965 56.4857 75.4668 55.1928 76.3209C53.976 77.1181 53.6338 78.3519 53.1965 79.5666C52.379 80.193 51.9417 81.3698 50.6679 81.3318C50.3066 80.9712 49.9264 80.6295 49.5271 80.2499C49.4131 80.9712 48.5385 81.161 48.4815 81.9202C48.3484 82.3568 47.9301 82.2998 47.6069 82.4327C46.5232 82.9072 45.1353 82.8882 44.3368 83.7803C43.101 85.1469 41.9032 84.6724 40.6484 84.065C40.021 83.7613 39.4696 83.3438 38.8802 82.9641C38.6521 82.5086 39.1654 81.5786 38.2528 81.6165C37.4733 81.6545 37.1881 82.3378 37.2832 83.116C35.8192 83.4766 34.4313 82.6415 33.0624 82.7174C31.2943 82.7933 29.5642 82.0151 27.6629 83.0401C26.7313 83.5336 24.8681 82.3188 23.9365 81.3508C23.1 80.4777 22.8148 80.6106 22.1304 81.2749C21.0657 82.2998 19.7728 82.3947 18.5941 81.6165C17.5104 80.9142 16.959 79.6236 17.0541 78.4468C17.1491 77.213 17.1111 76.1501 16.4266 75.1441C16.4647 74.8025 16.5597 74.4229 16.0084 74.4419C16.2365 73.2461 15.5521 73.2651 14.7345 73.4928C14.2783 73.4928 13.7269 73.6257 13.4037 73.4169C11.9207 72.5248 11.3313 69.9814 12.0728 68.2352C12.1679 68.0074 12.32 67.6658 11.9017 67.476C11.0271 67.0774 11.5215 66.489 11.7306 65.9386C12.4341 65.521 12.7383 67.2103 13.3276 66.3371C13.6889 65.8057 13.3276 64.9705 12.9284 64.3632C12.415 63.566 12.0348 64.4201 11.5785 64.515C10.4378 63.7558 10.0195 62.579 9.63924 61.3263C9.08788 59.5041 9.90541 57.644 9.27801 55.8599C9.44912 55.5372 9.71529 55.2335 9.79134 54.8919C10.3047 52.5383 8.74566 49.9949 10.3617 47.7172C10.3617 47.6982 10.0575 47.5084 10.0195 47.3755C9.7343 46.2936 9.41109 45.1738 10.2666 44.2248C11.5785 42.7822 11.5595 41.6624 9.96245 40.4286C9.01183 39.6884 8.3464 38.7773 8.59356 37.6385C8.85973 36.4048 9.22097 34.9243 10.0765 34.165C11.1412 33.216 9.65825 32.5897 10.2286 31.6976C10.7229 30.9194 12.2249 31.1092 11.9778 29.7615C8.1943 31.5837 8.17529 30.5398 6.78739 29.0213C4.65801 27.9014 3.95455 26.3071 4.8101 23.9535C5.00023 23.403 5.45652 22.2452 4.20171 21.8656C4.77208 20.3662 3.93554 19.3222 3.15603 18.1834C3.00393 17.9556 3.40319 17.5001 3.55529 17.1774C4.60097 14.8808 5.66566 12.5461 4.94319 9.90785V10.0217ZM34.7355 78.7315C34.0321 79.4717 34.0321 80.2879 34.2412 81.5786C34.9257 80.3828 34.8876 79.5666 34.7545 78.7315C35.2489 78.5037 35.0968 78.2 34.7545 77.7445C34.7545 78.1621 34.7545 78.4468 34.7545 78.7315H34.7355ZM55.8963 18.2593C55.7062 17.7089 55.6871 17.0445 54.9076 16.9117C54.6415 16.8737 54.4513 16.9117 54.3563 17.1964C54.0901 17.8987 54.1852 18.4681 54.7936 18.9426C54.9837 19.0755 55.1358 19.2653 55.2879 19.4171C55.2499 20.1574 55.2118 20.9166 55.1738 21.6568C54.1471 21.9036 54.0711 22.5869 54.3943 23.441C54.5464 23.8586 54.8696 24.0104 55.2499 23.7447C56.0864 23.1183 55.2689 22.5869 55.1358 22.0175C55.1168 21.9036 55.1548 21.7897 55.1738 21.6758C57.056 21.0874 56.2575 19.5879 56.2575 18.3732C56.2575 18.3352 56.0294 18.2973 55.9153 18.2783L55.8963 18.2593ZM17.9096 74.29C18.2708 74.2141 18.5941 74.0812 18.7081 73.6826C19.5447 74.1761 19.982 73.4928 20.4953 73.0563C19.1074 72.7146 20.8945 70.7786 19.2025 70.4939C19.3165 71.1392 19.7538 71.6517 18.8602 72.1832C18.2518 72.5248 17.9096 73.4549 17.9286 74.328C17.7765 74.4798 17.6244 74.6506 17.4723 74.8025C17.5294 74.8405 17.5864 74.8974 17.6244 74.8974C17.9476 74.8215 17.8526 74.5368 17.9286 74.328L17.9096 74.29ZM62.4175 56.1446C62.5506 57.0177 62.1133 57.4922 61.562 58.0236C61.3718 58.1945 60.8775 59.1625 61.7331 59.3143C62.4555 59.4472 62.2464 57.7959 63.4252 58.1565C63.5392 58.1945 63.4822 57.3783 63.102 57.1316C62.7217 56.8848 63.2731 56.3534 62.4175 56.1446ZM58.0637 33.9942C57.9496 33.0072 57.9116 32.248 57.7785 31.4888C57.7215 31.1661 57.4173 30.9953 57.075 31.1661C56.7328 31.3369 56.6568 31.7925 56.8849 31.9253C57.6834 32.3429 57.3032 33.2919 58.0827 33.9942H58.0637ZM21.7691 68.6718C21.636 69.7726 20.8945 70.3421 21.4269 71.1582C21.4839 71.2341 21.8452 71.2341 21.8832 71.1582C22.3015 70.4749 22.4536 69.7537 21.7881 68.6718H21.7691ZM65.3454 59.7319C65.1743 59.4472 65.0602 58.9347 64.5469 58.7829C64.3568 58.7259 63.9765 58.9347 64.0906 59.2004C64.3187 59.656 64.2237 60.3962 64.9652 60.4532C65.2503 60.4721 65.2884 60.1495 65.3454 59.7509V59.7319ZM20.039 69.2222C19.8299 69.2412 19.9629 68.444 19.5257 69.0514C19.2975 69.374 18.4229 68.9375 18.6321 69.7726C18.7462 70.2661 19.0504 69.9814 19.3165 69.8865C19.6587 69.7537 20.2481 69.9435 20.039 69.2222ZM14.7916 64.2872C14.6585 64.0025 14.5444 63.6988 14.1642 63.7748C13.879 63.8317 13.5368 63.9836 13.6508 64.3632C13.7079 64.534 13.9931 64.7618 14.1832 64.7618C14.4494 64.7618 14.7916 64.6858 14.8106 64.2872H14.7916ZM14.6015 65.2173C14.6015 65.2173 14.5254 65.1224 14.4874 65.1414C14.4494 65.1414 14.4113 65.1983 14.3733 65.2363C14.4113 65.2742 14.4494 65.3312 14.4874 65.3312C14.5254 65.3312 14.5634 65.2742 14.6015 65.2363V65.2173Z" fill="#F5CC43"></path>
<path d="M38.9182 83.078C39.5076 83.4387 40.059 83.8752 40.6864 84.1789C41.9412 84.7673 43.139 85.2608 44.3748 83.8942C45.1733 83.0021 46.5612 83.0211 47.6449 82.5466C47.9681 82.4137 48.3864 82.4707 48.5195 82.0341C49.4891 82.7744 50.1736 82.4327 50.7059 81.4647C51.9987 81.5027 52.417 80.3259 53.2345 79.6995C54.3943 79.3009 55.459 79.1491 56.4286 77.9533C57.9306 76.1312 60.4212 75.258 62.0943 73.4359C63.1019 72.316 64.6039 71.7087 65.5736 70.4749C66.3911 69.45 66.4101 67.9695 67.6269 67.2103C66.6763 65.4071 68.4634 64.9706 69.2239 64.0215C69.376 63.8317 70.1555 63.566 69.5471 63.3382C68.5015 62.9396 69.1289 62.5031 69.376 62.1425C70.4217 60.605 70.6879 58.8398 70.954 57.0557C71.6955 56.5811 72.3419 56.3154 72.1898 55.0058C71.9427 53.0697 71.6765 51.0388 71.7716 49.1597C71.8856 46.8061 71.6575 44.6234 71.0301 42.4026C70.859 41.7763 70.7639 41.2258 71.3533 40.5995C72.1898 39.7264 70.8019 39.7264 70.6118 39.2139C71.2582 37.3728 70.1935 35.6835 70.1365 33.8804C70.1175 33.1211 71.0491 33.0832 70.7639 32.8174C69.8323 31.9443 70.2886 30.5208 69.395 29.6667C70.3647 27.0284 68.4254 24.6178 68.9197 21.8846C69.2239 20.2333 68.6345 18.2783 68.5205 16.4372C68.4254 14.7859 67.874 13.0207 67.817 11.3124C67.817 10.8379 66.8284 9.81296 68.3113 9.49029C68.7486 9.39538 68.4634 8.80699 67.3037 8.44635C66.4671 7.4214 65.9158 5.71315 64.0526 7.07975C62.4935 6.30155 60.9726 6.20665 59.4896 7.26956C59.7368 6.45339 58.9382 6.26359 58.577 5.80805C58.501 5.75111 58.4439 5.67519 58.3679 5.61825C58.4059 5.58029 58.4439 5.54233 58.4819 5.52334L58.558 5.80805C58.9573 6.22563 57.7024 7.74407 59.5086 7.25058C59.9269 7.57325 59.6987 7.93388 59.5847 8.27553C58.52 8.29451 57.8165 9.2815 56.7708 9.33844C56.5427 9.33844 55.8773 9.50927 56.3906 9.01577C56.9039 8.52228 56.6187 8.46534 56.2765 8.35145C55.9533 8.25655 55.516 8.14267 55.554 8.76903C55.6111 9.92684 54.9647 10.2875 53.9 10.3444C53.1775 10.4014 52.4931 10.6861 51.7706 10.7999C49.4131 11.1796 48.6906 12.3564 49.337 14.8808C48.0442 15.0516 48.3103 16.3043 48.1773 16.9686C47.8731 18.5061 47.9681 20.1574 49.2039 21.4291C49.5842 21.8277 49.5652 22.0744 48.9377 23.8396C48.7666 24.2572 48.5765 24.8456 49.28 24.7317C50.3637 24.5609 49.8123 25.396 50.0405 25.7187C50.0405 25.9465 50.0785 26.1932 50.0975 26.421C49.375 26.6677 48.9568 26.9904 49.5271 27.8255C50.5538 29.363 50.858 31.6406 50.4017 32.8364C49.6792 34.7345 50.7629 35.6266 51.2002 36.9362L51.2573 36.8603C50.877 37.164 49.7743 37.0501 50.0785 37.5246C50.5728 38.2839 50.6869 39.0241 50.896 39.8403C51.4474 42.061 52.2649 44.2058 51.2573 46.5024C51.1812 46.3506 51.1052 46.1798 51.0291 46.0279C50.5538 45.7812 51.0671 44.5854 49.9834 44.965C49.7743 45.0409 49.6412 45.2687 49.4701 45.4206C50.1165 45.4016 49.9074 46.6733 50.801 46.2937C50.915 46.5214 50.9721 46.8441 51.2763 46.4455C51.4094 48.0019 52.8923 49.6342 51.0291 51.0958C51.8656 52.6901 51.6185 54.4553 51.9037 56.1256V56.0876C51.2573 56.3724 50.7249 56.7709 50.9531 57.5681C51.6375 59.9217 50.6489 61.7439 49.1279 63.3952C47.759 63.4142 47.1506 64.3252 46.7323 65.4451C46.295 66.3182 45.5726 66.7737 44.641 66.9635C43.7854 66.3561 43.3481 67.0394 42.8348 67.5329C41.9792 67.8366 40.9906 67.2862 40.5343 67.0205C39.0133 66.1474 37.5303 67.1913 35.9903 66.6598C35.1158 66.3561 34.7736 65.4641 33.975 65.4641C33.0244 65.4641 32.0738 65.7108 31.1232 65.8437C29.9824 66.0335 29.298 64.6859 28.1192 65.0085C28.5185 63.7558 27.1876 64.1924 26.8264 63.6989C26.5792 63.1864 27.6249 62.8258 26.8834 62.1614C25.8758 61.2883 24.9442 61.2314 23.8795 61.9147C23.3091 60.8328 22.6437 59.7889 22.4536 58.5551C23.4232 56.9797 22.1303 55.4423 22.3775 53.8669C22.8718 54.2465 23.3471 53.8669 23.4232 53.5632C23.7654 52.4434 23.7084 52.4244 24.8301 53.0697C24.3548 52.8609 25.0773 52.0638 24.3928 52.1397C23.4802 52.2536 22.4155 52.4244 22.3205 53.7151C21.6931 53.6391 21.0656 53.5822 20.4573 53.5063C20.1721 52.1207 20.5143 50.6212 19.5066 49.3495C18.9553 48.6473 19.6968 48.6852 20.1531 48.5903C20.5713 48.5144 21.0466 48.3815 20.9516 47.8121C20.8945 47.3945 20.7615 46.939 20.134 47.1098C20.001 46.6923 19.9819 46.4075 20.4382 46.0469C20.9326 45.6673 21.1227 45.022 20.3812 44.5664C20.3052 43.8072 19.5447 43.2188 19.7348 42.3837C19.8489 41.9471 19.8108 40.0111 19.5827 39.7264C19.2024 38.3598 20.096 37.183 20.3812 35.9682C20.7234 34.5637 20.3052 33.4248 20.1531 32.1721C20.3242 31.5837 21.0086 31.0522 20.2481 30.3689C20.1531 30.274 20.02 29.1352 20.6854 29.5338C21.541 30.0463 21.4269 29.4958 21.4079 29.1162C21.3698 28.6037 21.5029 27.9964 21.0086 27.5788C21.2558 26.6867 20.6284 25.5099 22.3965 25.1683C23.2521 24.9974 22.7007 23.2133 21.5029 22.7957C21.8071 22.0554 21.7311 21.3152 21.5029 20.575C21.0847 19.3602 21.8642 20.0245 22.2634 20.1004C22.3585 20.1384 22.4345 20.1953 22.5296 20.2523C22.5106 20.1764 22.4916 20.1004 22.4726 20.0245C22.3965 20.0815 22.3205 20.1194 22.2444 20.1764C22.2444 19.0565 21.9022 17.8987 22.5486 16.8548C20.9135 16.2284 22.0543 15.0326 22.1874 14.2544C22.4916 12.4323 21.4079 10.0217 19.7728 9.07272C18.3849 8.27553 16.959 7.45936 15.9513 6.13072C16.2555 5.90296 16.2555 5.39048 16.1415 5.33354C14.2592 4.63126 14.3353 2.58135 13.3086 1.29067C12.9284 0.816157 12.6622 0.58839 12.1298 0.930041C11.1982 1.51844 10.2286 2.03092 9.39207 2.7332C9.14491 2.94198 8.13725 3.4165 9.25898 4.21368C10.0005 4.72616 8.40343 4.6882 8.47948 5.33354C8.2133 5.33354 8.04219 5.06781 7.68096 5.25762C6.19799 6.03582 2.92787 5.25762 2.0533 3.92897C1.9012 3.68223 1.78713 3.24567 2.39553 2.94198C3.34614 2.46747 4.14466 1.76519 4.81009 0.873099C5.93182 -0.531465 7.64293 0.208778 9.01182 0.0759139C12.1489 -0.208795 15.3239 0.569409 18.0617 1.97397C19.9059 2.923 21.8832 4.08082 23.2331 5.82703C24.1456 7.00383 25.9898 7.00383 26.4842 8.67412C26.6933 9.39539 27.2637 9.94582 26.9215 10.8379C26.3511 12.3184 26.9215 13.8558 27.1116 15.2984C27.4158 17.557 26.5792 19.6259 26.6173 21.7897C26.6173 22.7957 26.1039 23.8586 26.7884 24.8646C27.0165 25.2252 26.9405 26.0414 26.8264 26.2122C25.8758 27.7117 25.9328 29.4199 25.6476 31.0522C25.5335 31.6976 24.8681 32.1152 25.6476 32.8744C25.9328 33.1401 25.7237 34.26 25.3815 34.7724C24.2597 36.5376 24.7921 38.5496 24.2787 40.4097C23.7084 42.4975 24.4689 44.6234 24.4498 46.7302C24.4118 49.7292 25.3624 52.5003 25.8187 55.3664C26.3131 58.4412 28.7847 59.7129 31.3703 60.7759C31.6175 61.3263 30.2296 61.5161 31.0661 62.1804C31.2373 62.3133 31.5605 62.4841 31.6555 62.4082C32.1879 62.0096 32.1118 61.5161 31.7696 61.0226C33.6708 61.2883 35.534 61.7059 37.4923 61.4022C38.7852 61.1934 39.9259 62.2374 41.3518 62.1614C43.8234 62.0476 45.8197 60.4911 46.295 58.0426C46.4661 57.0936 46.257 55.9548 47.5118 55.4992C47.5879 55.4613 47.7019 55.2525 47.6829 55.2335C45.9148 53.3165 47.6069 50.9059 46.7323 48.875C46.5802 48.5334 46.6563 48.1727 46.6753 47.8121C46.7513 46.4835 47.2647 45.1548 46.4471 43.8262C46.1239 43.2947 45.8007 42.6114 46.3521 41.8332C47.1316 40.7323 46.6373 39.5745 46.257 38.3977C45.8958 37.2399 45.5726 35.9682 45.6676 34.7724C45.7817 33.216 45.7817 31.6027 45.3444 30.2551C44.66 28.1862 44.5079 26.3071 45.3444 24.3331C45.3064 23.479 46.276 22.8906 45.9528 21.9795C46.219 21.9416 46.4852 21.9036 46.7703 21.8656C46.5802 21.6568 46.3901 21.4291 46.2 21.2203C46.1049 21.467 46.0098 21.7138 45.9148 21.9605C45.5155 22.2452 45.0973 22.5489 44.698 22.8336C45.2113 19.1704 44.2417 15.5261 44.4508 11.8629C44.5269 10.3824 46.0669 8.5982 47.3977 8.38941C47.7019 8.33247 47.8921 8.19961 47.835 7.97184C47.721 7.47834 47.0365 8.06674 46.8274 7.40242C48.9758 6.1497 51.3713 5.69417 53.7669 5.61825C55.2118 5.58029 55.3259 4.04286 56.5237 3.85305C56.98 3.77713 57.3412 3.13179 57.9876 3.34058C59.7558 3.89101 60.9726 2.39155 62.5696 2.12582C64.4708 1.82213 66.22 1.51844 68.1402 2.18276C71.4484 3.3216 72.2469 6.28257 72.9313 8.99679C73.2926 10.4203 73.1215 12.2804 72.9313 13.8748C72.7982 14.8808 73.5587 15.3173 73.5587 16.0766C73.5587 19.3982 73.7108 22.7008 74.3382 25.9654C74.4903 26.7436 73.5397 26.4779 73.7298 27.37C74.034 28.8315 74.9656 30.0463 74.9276 31.6406C74.8706 34.0322 75.9923 36.3858 75.1748 38.8533C75.0037 39.3657 75.9543 38.8533 76.0113 39.3847C76.0874 40.2009 76.5056 41.0171 76.0113 41.8142C75.2698 42.9721 75.6881 44.1299 76.1444 45.2118C76.5437 46.1418 76.7148 48.1538 76.3345 49.1218C76.2775 49.2546 76.1824 49.4444 76.2395 49.5393C77.3612 51.836 76.1634 54.3794 77.038 56.695C77.2281 57.2075 76.7338 57.4732 76.5057 57.7769C75.6121 59.0107 75.479 60.4342 75.2128 61.8577C75.0227 62.9017 74.3763 63.8697 73.939 64.7618C72.5131 67.7227 71.6385 71.0444 69.1098 73.4169C68.9387 73.5878 68.7676 73.7396 68.5775 73.8914C68.3494 74.0812 67.874 73.6637 67.798 74.0433C67.7029 74.5178 68.3684 74.1761 68.4254 74.3849C68.6155 75.1442 67.5889 75.6566 67.4938 75.6566C66.334 75.6946 65.9348 76.6816 65.2313 77.289C64.5469 77.8774 63.9005 78.5796 62.8928 78.7125C61.619 78.8644 62.1323 80.6106 60.9916 80.9712C60.8015 81.0281 60.6874 81.4837 60.5163 81.5027C58.0637 81.6545 56.6568 83.7044 54.8316 84.8812C53.1775 85.9441 51.4284 86.7033 49.6792 87.4246C47.5498 88.3167 45.5345 89.7972 42.7968 88.4875C41.9222 88.0699 40.059 87.9181 38.9753 88.1648C34.9827 89.0759 31.4654 87.083 27.701 86.8742C27.6439 86.8742 27.5679 86.9311 27.5298 86.8931C26.7313 86.3996 25.8758 85.9441 25.4385 84.6724C25.0202 86.058 24.3358 85.8682 23.3852 85.5455C20.6474 84.6155 17.9096 83.6285 15.8563 81.5976C15.0387 80.8004 14.2402 80.0791 13.2706 79.5287C12.6432 79.187 12.5481 78.6176 12.415 78.0102C12.1489 76.6626 11.4834 75.6377 10.4377 74.6507C9.52515 73.7965 9.03083 72.4299 8.53651 71.2152C7.96614 69.7916 7.96614 67.9885 7.05355 66.8876C5.34244 64.7808 5.60861 62.2753 5.19034 59.9787C4.60096 56.8089 3.87849 53.6392 4.06861 50.2986C4.18269 48.0778 2.98491 45.8381 2.8138 43.5605C2.54762 39.9921 1.71108 36.4617 2.14836 32.7985C2.30046 31.5647 1.63503 30.0842 1.4259 28.6797C1.2738 27.6737 1.4259 26.6677 1.21676 25.6807C1.10269 25.0923 1.21676 24.7886 1.92022 25.0734C2.5096 25.3011 2.45256 24.7507 2.5096 24.447C2.56664 24.1053 2.33849 23.7257 2.03429 23.8776C0.456266 24.6558 0.9696 23.1943 0.836513 22.7008C0.665402 22.0934 0.836513 21.3721 0.855525 20.7078C1.40688 21.0684 1.48293 22.1124 2.49059 21.8846C2.33849 21.3911 2.12935 20.9356 2.0533 20.4801C1.97725 20.0435 1.93923 19.4551 1.44491 19.4931C0.798488 19.55 1.00762 20.2333 0.931575 20.6699C0.057007 19.4931 -3.00344e-05 18.1454 0.0760193 16.7409C0.190093 14.8998 0.760464 13.0586 0.0760193 11.1606C-0.228178 10.3065 0.627377 9.35742 1.36886 9.90786C2.5096 10.743 3.28911 10.2495 4.23972 9.88888C4.42985 9.81296 4.71503 9.9648 4.94318 10.0217C5.66565 12.66 4.60096 15.0136 3.55528 17.2913C3.40318 17.614 2.98491 18.0695 3.15602 18.2973C3.91651 19.4171 4.77207 20.4801 4.2017 21.9795C5.45651 22.3591 5.00022 23.5169 4.81009 24.0674C3.95454 26.421 4.65799 28.0153 6.78738 29.1352C6.73034 30.1602 5.93182 31.0902 6.42614 32.248C6.48318 32.3809 6.27404 33.6716 5.32343 33.7665C5.20935 33.6905 5.03824 33.5197 5.00022 33.5387C4.79108 33.7095 4.82911 33.8804 5.01923 34.0512C6.27404 35.1521 7.03454 36.4617 6.9775 38.2079C6.93948 39.1759 6.9775 40.1819 7.30071 41.074C7.56688 41.7953 8.46046 42.4026 6.88244 42.5735C6.54022 42.6114 6.19799 42.8961 6.27404 43.3327C6.31207 43.5794 6.40713 44.035 6.80639 43.9021C8.17528 43.4656 7.5859 44.7562 7.96614 45.1738C6.48318 46.5784 8.65059 48.5713 7.20565 50.0139C7.16762 50.0518 7.66195 50.7541 7.69997 50.7351C9.10688 50.0139 8.70762 51.5892 8.6696 51.7221C8.17528 53.2595 9.20195 54.5502 9.27799 55.9548C9.92441 57.739 9.08787 59.5991 9.63923 61.4212C10.0195 62.6739 10.4377 63.8317 11.5785 64.6099C10.799 65.1604 11.7876 65.54 11.7306 66.0335C11.5405 66.5649 11.0271 67.1533 11.9017 67.5709C12.32 67.7607 12.1679 68.0834 12.0728 68.3301C11.3313 70.0763 11.9207 72.6387 13.4037 73.5118C13.7459 73.7206 14.2973 73.5688 14.7345 73.5878C14.4874 74.0623 14.2592 74.5178 14.0121 74.9923C14.8486 75.4478 15.0768 73.5498 16.0084 74.5368C15.8943 74.9164 15.9703 75.2011 16.4266 75.2391C17.1111 76.264 17.1491 77.3079 17.054 78.5417C16.978 79.7185 17.5294 81.0092 18.594 81.7114C19.7728 82.4896 21.0656 82.4137 22.1303 81.3698C22.8148 80.7055 23.1 80.5726 23.9365 81.4457C24.8681 82.4137 26.7313 83.6475 27.6629 83.135C29.5642 82.11 31.2943 82.8882 33.0624 82.8123C34.4313 82.7554 35.8192 83.5715 37.2832 83.2299C37.8726 83.7803 38.3289 82.8693 38.8802 83.078H38.9182ZM72.0377 63.0915C72.0377 63.0915 72.0948 63.2054 72.1328 63.2623C72.0948 63.2244 72.0568 63.1674 72.0377 63.1294C71.5624 62.7688 72.7792 62.1045 71.8476 61.8767C71.2582 61.7439 71.0681 62.2753 70.859 62.6929C71.2773 62.8258 71.6765 62.9586 72.0568 63.0915H72.0377ZM3.19404 25.8705C2.43355 26.0793 3.00392 26.7816 2.8138 27.2182C2.73775 27.4269 2.69972 28.0913 3.21306 28.0153C4.18269 27.8635 2.90886 26.7436 3.80244 26.44C3.85948 26.44 3.61232 25.9275 3.19404 25.8705ZM30.0205 62.579C29.2219 61.9337 28.8797 61.2124 27.6249 61.4212C28.4995 61.8577 28.6326 62.8068 30.0205 62.579ZM23.2711 10.8379C22.9098 10.9328 22.8148 11.1416 22.8908 11.3694C22.9289 11.4643 23.157 11.5402 23.2901 11.5212C23.4992 11.4833 23.7464 11.3694 23.5943 11.0657C23.5182 10.9518 23.3471 10.8759 23.2711 10.8189V10.8379ZM71.5434 60.586C71.5434 60.586 71.3723 60.7569 71.2963 60.8328C71.3913 60.8897 71.5054 61.0036 71.6005 60.9846C71.6955 60.9846 71.7716 60.8328 71.8476 60.7569C71.7526 60.6999 71.6385 60.643 71.5434 60.586ZM24.6019 11.5971C24.6019 11.5971 24.5449 11.4073 24.5069 11.3314C24.5069 11.4453 24.4689 11.5402 24.4689 11.6541C24.4689 11.711 24.4879 11.768 24.5069 11.8059C24.5449 11.73 24.5639 11.6731 24.6019 11.5971ZM25.0773 8.71208L24.9822 8.56024C24.9442 8.67412 24.8871 8.76903 24.8681 8.88291C24.8681 8.92087 24.9442 8.97781 24.9822 9.01577C25.0202 8.92087 25.0392 8.80699 25.0773 8.71208ZM25.0392 10.3824C24.9822 10.2875 24.9442 10.1166 24.8681 10.0977C24.659 10.0407 24.5829 10.1926 24.621 10.3824C24.64 10.4773 24.754 10.5342 24.8301 10.6101C24.9061 10.5342 24.9632 10.4583 25.0392 10.3824ZM23.6133 13.0207C23.6323 12.9258 23.6703 12.8119 23.6703 12.717C23.6703 12.679 23.5943 12.66 23.5373 12.6221C23.5373 12.717 23.4802 12.8119 23.4992 12.9068C23.4992 12.9448 23.5753 12.9827 23.6133 13.0207ZM23.8795 12.0906C23.8795 12.0906 23.9555 11.9957 23.9935 11.9578C23.9175 11.9198 23.8415 11.8818 23.7654 11.8629C23.7464 11.8629 23.7084 11.9388 23.6703 11.9767C23.7464 12.0147 23.8224 12.0527 23.8795 12.0716V12.0906ZM46.219 35.3988C46.219 35.3988 46.1239 35.3229 46.0859 35.3039C46.0479 35.3798 46.0098 35.4557 45.9908 35.5317C45.9908 35.5506 46.0669 35.5886 46.1049 35.6266C46.1429 35.5506 46.181 35.4747 46.219 35.3988ZM4.39182 50.0328C4.39182 50.0328 4.29676 49.919 4.25874 49.919C4.22071 49.919 4.18269 49.9949 4.14466 50.0328C4.22071 50.0708 4.27775 50.0898 4.3538 50.1277C4.3538 50.0898 4.39182 50.0518 4.39182 50.0139V50.0328Z" fill="#25201D"></path>
<path d="M0.855468 20.7078C0.931518 20.2713 0.722382 19.5879 1.3688 19.531C1.86312 19.493 1.90115 20.0625 1.9772 20.518C2.05325 20.9735 2.26238 21.4291 2.41448 21.9226C1.38781 22.1313 1.33078 21.1064 0.779419 20.7458L0.855468 20.7268V20.7078Z" fill="#D0D7C9"></path>
<path d="M44.66 22.7957C45.0592 22.511 45.4775 22.2073 45.8768 21.9226L45.9148 21.9416C46.238 22.8526 45.2684 23.441 45.3064 24.2952C44.3748 24.1053 44.698 23.3841 44.66 22.7957Z" fill="#6EBD6C"></path>
<path d="M70.954 57.0367C70.6878 58.8019 70.4217 60.586 69.376 62.1235C69.1288 62.4841 68.5014 62.9207 69.5471 63.3193C70.1365 63.547 69.376 63.8128 69.2239 64.0026C68.4634 64.9516 66.6952 65.3881 67.6268 67.1913C66.4101 67.9315 66.391 69.431 65.5735 70.456C64.5849 71.6897 63.1019 72.3161 62.0942 73.4169C60.4212 75.258 57.9496 76.1122 56.4286 77.9343C55.4589 79.1111 54.3752 79.263 53.2345 79.6805C53.6718 78.4658 54.014 77.232 55.2308 76.4348C56.5236 75.5997 56.2004 73.9104 56.8849 72.6957C57.4933 71.6138 58.5199 70.9874 59.4705 71.6707C60.4592 72.392 61.4288 72.0693 62.2273 71.6138C63.311 71.0064 63.8814 69.8486 63.6533 68.6528C63.292 66.7737 64.0335 65.7108 65.3644 64.4011C66.4481 63.3193 66.7713 61.3643 66.8473 59.656C66.9044 58.5551 66.9804 57.8718 68.4444 58.0047C69.2429 58.0806 70.1175 57.3783 70.954 57.0177V57.0367Z" fill="#FDFDFD"></path>
<path d="M5.32348 33.7665C6.2741 33.6716 6.48324 32.3809 6.4262 32.248C5.93188 31.0902 6.74941 30.1601 6.78743 29.1352C8.17534 30.6536 8.19435 31.6976 11.9778 29.8754C12.225 31.2231 10.723 31.0333 10.2287 31.8115C9.6583 32.7035 11.1413 33.3299 10.0766 34.2789C9.22102 35.0382 8.87879 36.5186 8.59361 37.7524C8.34645 38.8912 9.01188 39.8023 9.9625 40.5425C11.5595 41.7763 11.5976 42.8771 10.2667 44.3386C9.39213 45.2877 9.73435 46.4075 10.0195 47.4894C10.0576 47.6223 10.3808 47.8121 10.3618 47.8311C8.72669 50.1087 10.3047 52.6521 9.79139 55.0057C9.71534 55.3474 9.46818 55.6511 9.27805 55.9738C9.202 54.5502 8.17534 53.2785 8.66966 51.7411C8.70768 51.6082 9.10694 50.0328 7.70003 50.7541C7.662 50.7541 7.16768 50.0708 7.20571 50.0328C8.65064 48.5903 6.50225 46.5973 7.9662 45.1928C7.56694 44.7752 8.17534 43.4845 6.80645 43.9211C6.38818 44.0539 6.31213 43.6174 6.2741 43.3517C6.19805 42.9341 6.55929 42.6304 6.8825 42.5924C8.44151 42.4216 7.54793 41.8332 7.30077 41.093C6.99657 40.2009 6.95855 39.1759 6.97756 38.2269C7.0346 36.4807 6.25509 35.171 5.01929 34.0701C5.11435 33.9752 5.20941 33.8803 5.32348 33.7854V33.7665Z" fill="#FDFDFD"></path>
<path d="M22.3014 20.1384C21.9022 20.0435 21.1226 19.3981 21.5409 20.6129C21.7881 21.3531 21.8641 22.0934 21.5409 22.8336L21.4459 22.8906C21.4078 22.9475 21.3508 22.9665 21.2747 22.9665C20.7044 22.3971 18.3468 22.7197 20.2101 20.8786C20.4002 20.6888 20.0199 20.518 19.9059 20.3282C19.4686 19.569 19.5826 19.1134 20.4192 18.601C21.1987 18.1075 22.1303 17.2344 20.7234 16.2474C20.6093 16.1525 20.2861 15.8488 20.6664 15.5071C21.7881 14.4822 21.4839 13.7799 20.3431 12.8119C19.6017 12.1855 18.575 11.6161 18.4039 10.2685C18.2898 9.37639 15.6091 9.92683 14.4113 11.2934C14.2782 9.83192 15.1908 8.75003 15.3239 7.53527V7.57323C15.8182 7.25056 15.6471 6.60522 15.9323 6.16867C16.9399 7.49731 18.3849 8.2945 19.7538 9.11066C21.3888 10.0597 22.4725 12.4702 22.1683 14.2924C22.0352 15.0706 20.8945 16.2663 22.5296 16.8927C21.8831 17.9556 22.2444 19.1134 22.2254 20.2143V20.1574L22.3014 20.1384Z" fill="#FDFDFD"></path>
<path d="M49.337 14.8808C48.6906 12.3564 49.413 11.1796 51.7706 10.8C52.493 10.6861 53.1775 10.3824 53.9 10.3444C54.9456 10.2685 55.6111 9.92685 55.554 8.76904C55.516 8.16166 55.9533 8.25656 56.2765 8.35147C56.6187 8.46535 56.9039 8.52229 56.3906 9.01579C55.8772 9.50928 56.5427 9.33846 56.7708 9.33846C57.8165 9.28151 58.52 8.29452 59.5847 8.27554C59.4706 8.73108 59.3375 9.16763 59.2234 9.62317C59.1474 9.88889 58.634 10.1546 59.0713 10.4014C59.3185 10.5532 59.4706 10.1167 59.5276 9.85093C59.8698 10.2495 60.079 10.7051 59.6037 11.1037C59.1854 11.4453 58.7291 11.2935 58.2348 11.1226C56.2005 10.3824 54.1661 12.0717 54.4133 14.2354C54.4133 14.2924 54.6224 14.3114 54.7175 14.3683L54.6985 14.3493C54.6985 15.0326 55.459 15.9057 54.2042 16.2664C54.1471 15.2224 53.6528 14.8428 52.5501 14.9757C51.4854 15.1086 50.4017 14.9757 49.337 14.9377V14.8808Z" fill="#FDFDFD"></path>
<path d="M51.9037 56.1256C51.5995 54.4553 51.8467 52.6711 51.0291 51.0957C52.8923 49.6342 51.4094 48.0019 51.2763 46.4455L51.2383 46.5024C52.2459 44.2248 51.4284 42.061 50.877 39.8402C50.6679 39.0241 50.5538 38.2838 50.0595 37.5246C49.7553 37.0501 50.858 37.145 51.2383 36.8603C51.6946 39.5745 52.2079 42.2887 52.5881 45.003C53.0444 48.3815 53.4437 51.7601 53.7479 55.1576C53.881 56.6001 52.4931 55.746 51.9037 56.1256Z" fill="#FDFDFD"></path>
<path d="M31.1422 65.8626C32.0928 65.7298 33.0434 65.483 33.9941 65.483C34.7926 65.483 35.1348 66.3751 36.0094 66.6788C37.5494 67.2103 39.0323 66.1663 40.5533 67.0394C41.0096 67.3052 41.9793 67.8556 42.8538 67.5519C42.1314 69.8486 40.4773 69.45 38.7852 68.9565C37.6825 68.8616 37.5684 69.0134 37.5684 70.5698C37.4733 71.4809 37.7585 72.6387 36.0664 72.6957C36.3896 71.8795 36.922 71.0443 36.3326 70.361C35.5911 69.5069 37.036 69.45 36.7699 68.5769C36.2185 66.8686 34.9257 67.0774 33.7089 66.9445C32.7583 66.8496 31.6936 67.0394 31.1802 65.9006L31.1422 65.8626Z" fill="#FDFDFD"></path>
<path d="M49.1469 63.3952C50.6678 61.7439 51.6565 59.9217 50.972 57.5681C50.7439 56.7709 51.2762 56.3724 51.9227 56.0876C52.417 57.4542 52.2078 58.8778 52.3409 60.2634C52.3599 60.4911 52.1128 60.7948 52.1888 60.9657C53.6148 63.6799 51.1812 62.9207 50.0594 63.3003C49.7743 63.3952 49.451 63.3762 49.1469 63.3952Z" fill="#FDFDFD"></path>
<path d="M51.1812 36.9173C50.744 35.6076 49.6602 34.7155 50.3827 32.8175C50.839 31.6407 50.5348 29.344 49.5082 27.8066C48.9378 26.9714 49.3561 26.6488 50.0785 26.402C51.2383 26.8575 50.5158 27.9584 50.858 28.6987C50.9151 28.8315 50.5158 29.2111 50.5919 29.325C51.9227 31.4129 49.9835 33.9373 51.5044 36.0062C51.7516 36.3289 51.5235 36.6895 51.1812 36.9173Z" fill="#D0D7C9"></path>
<path d="M69.395 29.6477C70.2696 30.5018 69.8133 31.9064 70.7639 32.7985C71.0491 33.0642 70.1175 33.1021 70.1365 33.8614C70.1935 35.6455 71.2392 37.3538 70.6118 39.1949C70.0414 39.0431 69.7753 38.8153 69.7372 38.0751C69.6612 35.6835 69.395 33.273 69.1859 30.8814C69.1479 30.4638 69.0528 30.0273 69.395 29.6667V29.6477Z" fill="#FDFDFD"></path>
<path d="M20.1721 47.1288C20.7805 46.958 20.9135 47.4135 20.9896 47.8311C21.0847 48.4195 20.5903 48.5524 20.1911 48.6093C19.7158 48.6852 18.9743 48.6662 19.5447 49.3685C20.5523 50.6402 20.2101 52.1397 20.4953 53.5253C19.0884 53.7341 18.1187 53.5822 18.9743 51.798C19.0694 51.6082 18.9933 51.3235 18.9363 51.0958C18.461 49.4824 18.9553 48.1917 20.1911 47.1288H20.1721Z" fill="#FDFDFD"></path>
<path d="M19.6207 39.7454C19.8488 40.0301 19.8868 41.9471 19.7728 42.4026C19.5636 43.2188 20.3241 43.8072 20.4192 44.5854C18.8221 44.5285 17.8525 44.1678 18.8031 42.2318C19.1644 41.4916 18.8602 40.4476 19.6207 39.7643V39.7454Z" fill="#FDFDFD"></path>
<path d="M21.0656 27.5978C21.5409 28.0154 21.4268 28.6038 21.4649 29.1352C21.4839 29.5148 21.5979 30.0653 20.7424 29.5528C20.077 29.1542 20.191 30.293 20.3051 30.3879C21.0656 31.0712 20.3812 31.6027 20.21 32.1911C19.6207 32.1911 18.651 32.5138 19.3355 31.299C19.6967 30.6726 20.0389 30.1602 19.7157 29.306C19.3355 28.2621 20.21 27.8445 21.0656 27.5978Z" fill="#FDFDFD"></path>
<path d="M22.4726 58.5551C22.6627 59.8078 23.3281 60.8328 23.8985 61.9147C23.5373 62.1235 23.176 62.3323 22.8148 62.541C22.5486 62.6929 22.3775 63.2813 21.9783 62.8827C21.6931 62.598 21.3318 61.9337 21.4269 61.8388C22.1874 61.0226 22.2254 60.1495 21.8642 59.1625C21.8262 59.0486 22.2634 58.7639 22.4726 58.5551Z" fill="#FDFDFD"></path>
<path d="M17.9286 74.309C17.8905 73.4359 18.2518 72.5248 18.8602 72.1642C19.7537 71.6517 19.3165 71.1203 19.2024 70.4749C20.9135 70.7596 19.1263 72.6957 20.4952 73.0373C19.9819 73.4928 19.5446 74.1572 18.7081 73.6637C18.594 74.0623 18.2708 74.1951 17.9095 74.271L17.9286 74.309Z" fill="#D0D7C9"></path>
<path d="M64.0526 7.06078C65.8968 5.69417 66.4482 7.40243 67.3037 8.42738C66.6573 8.42738 66.0109 8.35146 65.3645 8.42738C64.3378 8.52228 63.9956 8.00981 64.0716 7.07976L64.0526 7.06078Z" fill="#FDFDFD"></path>
<path d="M62.4175 56.1446C63.273 56.3534 62.7407 56.8848 63.1019 57.1316C63.4822 57.3783 63.5392 58.1945 63.4251 58.1565C62.2654 57.7959 62.4745 59.4472 61.733 59.3144C60.8585 59.1435 61.3718 58.1945 61.5619 58.0237C62.0943 57.5112 62.5506 57.0367 62.4175 56.1446Z" fill="#D0D7C9"></path>
<path d="M11.7496 66.0335C11.8067 65.54 10.818 65.1604 11.5975 64.6099C12.0538 64.515 12.4341 63.6799 12.9474 64.4581C13.3467 65.0655 13.7079 65.9006 13.3467 66.4321C12.7573 67.3052 12.4531 65.6159 11.7496 66.0335Z" fill="#D0D7C9"></path>
<path d="M44.6599 66.9635C45.5915 66.7737 46.333 66.3182 46.7513 65.4451C46.8273 65.54 46.9224 65.6159 46.9794 65.7298C47.3787 66.6788 47.2836 67.7038 46.4281 68.1403C45.5725 68.5769 45.1162 67.5899 44.6599 66.9635Z" fill="#FDFDFD"></path>
<path d="M26.8455 63.7178C27.2257 64.2113 28.5376 63.7748 28.1383 65.0275C27.3968 65.5779 26.6363 66.1094 25.7047 66.7927C25.8378 65.502 27.0926 64.8757 26.8264 63.7178H26.8455Z" fill="#D0D7C9"></path>
<path d="M55.1738 21.6758C55.2119 20.9356 55.2499 20.1763 55.2879 19.4361C56.2195 19.4361 56.0864 18.8667 55.9153 18.2593C56.0294 18.2973 56.2575 18.3352 56.2575 18.3732C56.2575 19.588 57.0751 21.0684 55.1738 21.6758Z" fill="#D0D7C9"></path>
<path d="M55.1548 21.6569C55.1548 21.7707 55.0978 21.9036 55.1168 21.9985C55.2499 22.5679 56.0674 23.1184 55.2308 23.7257C54.8696 23.9915 54.5464 23.8586 54.3753 23.4221C54.0521 22.5869 54.1281 21.9036 55.1548 21.6379V21.6569Z" fill="#D0D7C9"></path>
<path d="M55.2879 19.4361C55.1168 19.2653 54.9647 19.0945 54.7936 18.9616C54.1852 18.4871 54.0901 17.9177 54.3563 17.2154C54.4704 16.9307 54.6415 16.8737 54.9077 16.9307C55.6682 17.0635 55.7062 17.7279 55.8963 18.2783C54.8506 18.2214 55.2689 18.9616 55.2689 19.4551L55.2879 19.4361Z" fill="#D0D7C9"></path>
<path d="M22.3395 53.7341C22.4345 52.4434 23.4992 52.2725 24.4118 52.1587C25.0773 52.0827 24.3738 52.8609 24.8491 53.0887C23.7274 52.4434 23.7844 52.4624 23.4422 53.5822C23.3471 53.8669 22.8718 54.2655 22.3965 53.8859L22.3585 53.753L22.3395 53.7341Z" fill="#D0D7C9"></path>
<path d="M50.706 81.4647C50.1926 82.4517 49.5082 82.7933 48.5195 82.0341C48.5576 81.2939 49.4321 81.0851 49.5652 80.3638C49.9645 80.7434 50.3447 81.1041 50.706 81.4457V81.4647Z" fill="#FDFDFD"></path>
<path d="M50.0214 25.7187C49.7933 25.3771 50.3256 24.5609 49.2609 24.7317C48.5575 24.8456 48.7666 24.2572 48.9187 23.8396C50.5157 25.3391 49.7933 22.9665 50.4587 22.9286L50.5347 23.0045C50.5918 23.7068 50.6488 24.409 50.7249 25.0923C50.8009 25.6618 50.5538 25.8516 50.0214 25.7187Z" fill="#D0D7C9"></path>
<path d="M38.9182 83.078C38.3669 82.8693 37.9106 83.7803 37.3212 83.2299C37.2261 82.4517 37.5113 81.7684 38.2908 81.7304C39.2224 81.6925 38.6901 82.6225 38.9182 83.078Z" fill="#FDFDFD"></path>
<path d="M37.5493 70.5509C37.5493 68.9944 37.6824 68.8426 38.7661 68.9375C38.614 69.6588 38.8422 70.6837 37.5493 70.5509Z" fill="#D0D7C9"></path>
<path d="M58.0637 33.9942C57.2842 33.292 57.6644 32.3429 56.8659 31.9254C56.6377 31.8115 56.7138 31.337 57.056 31.1661C57.3982 30.9953 57.7024 31.1661 57.7595 31.4888C57.8926 32.2291 57.9496 32.9883 58.0447 33.9942H58.0637Z" fill="#D0D7C9"></path>
<path d="M21.7691 68.6718C22.4345 69.7537 22.2825 70.4749 21.8642 71.1582C21.8262 71.2342 21.4649 71.2342 21.4079 71.1582C20.8755 70.3611 21.617 69.7727 21.7501 68.6718H21.7691Z" fill="#FDFDFD"></path>
<path d="M65.3454 59.7319C65.2884 60.1305 65.2503 60.4722 64.9652 60.4342C64.2237 60.3773 64.3187 59.637 64.0906 59.1815C63.9575 58.9157 64.3568 58.7259 64.5469 58.7639C65.0602 58.9157 65.1743 59.4282 65.3454 59.7129V59.7319Z" fill="#D0D7C9"></path>
<path d="M34.7545 78.7505C34.9066 79.5856 34.9446 80.4208 34.2412 81.5976C34.032 80.3069 34.032 79.4717 34.7355 78.7505H34.7545Z" fill="#D0D7C9"></path>
<path d="M16.0463 74.5368C15.1147 73.5308 14.8866 75.4478 14.05 74.9923C14.2972 74.5178 14.5254 74.0623 14.7725 73.5877C15.59 73.379 16.2935 73.341 16.0463 74.5368Z" fill="#D0D7C9"></path>
<path d="M58.596 5.78906C58.9573 6.2446 59.7368 6.4344 59.5086 7.25057L59.5276 7.21261C57.7215 7.7061 58.9763 6.18765 58.577 5.77008L58.596 5.78906Z" fill="#D0D7C9"></path>
<path d="M20.0389 69.2222C20.229 69.9625 19.6397 69.7537 19.3165 69.8865C19.0503 69.9814 18.7651 70.2661 18.632 69.7727C18.4229 68.9185 19.2974 69.3741 19.5256 69.0514C19.9629 68.444 19.8298 69.2602 20.0389 69.2222Z" fill="#D0D7C9"></path>
<path d="M14.7915 64.2873C14.7915 64.6858 14.4303 64.7807 14.1641 64.7618C13.974 64.7618 13.6888 64.534 13.6318 64.3632C13.5177 63.9836 13.8599 63.8507 14.1451 63.7748C14.5253 63.6989 14.6584 64.0025 14.7725 64.2873H14.7915Z" fill="#D0D7C9"></path>
<path d="M17.9095 74.29C17.8335 74.4988 17.9095 74.7835 17.6053 74.8595C17.5673 74.8595 17.5103 74.8025 17.4532 74.7646C17.6053 74.6127 17.7574 74.4419 17.9095 74.29Z" fill="#D0D7C9"></path>
<path d="M34.7355 78.7315C34.7355 78.4468 34.7355 78.1811 34.7355 77.7445C35.0777 78.2 35.2488 78.5037 34.7355 78.7315Z" fill="#D0D7C9"></path>
<path d="M16.4647 75.2391C16.0084 75.1821 15.9513 74.9164 16.0464 74.5368C16.5978 74.5368 16.5027 74.8974 16.4647 75.2391Z" fill="#D0D7C9"></path>
<path d="M50.4587 22.9096C50.5158 22.6818 50.6489 22.511 50.915 22.5679C50.9531 22.5679 50.9911 22.6438 51.0481 22.6818C50.877 22.7957 50.7059 22.8906 50.5538 23.0045L50.4777 22.9286L50.4587 22.9096Z" fill="#D0D7C9"></path>
<path d="M54.7365 14.3303C54.7365 14.3303 54.8506 14.1405 54.9076 14.0456C55.0788 14.3114 54.9077 14.3114 54.7175 14.3114L54.7365 14.3303Z" fill="#FDFDFD"></path>
<path d="M54.2041 16.2094C54.2041 16.2094 54.1661 16.3233 54.1471 16.3802C54.1661 16.3233 54.1851 16.2664 54.2231 16.2284L54.2041 16.2094Z" fill="#D0D7C9"></path>
<path d="M21.2938 22.9475C21.2938 22.9475 21.4269 22.9475 21.4649 22.8716C21.4079 22.9096 21.3509 22.9286 21.2938 22.9475Z" fill="#25201D"></path>
<path d="M15.3809 7.51631C15.3809 7.51631 15.2098 7.49733 15.1147 7.47835C15.1528 7.42141 15.1908 7.36447 15.2098 7.28854C15.2478 7.38345 15.3049 7.45937 15.3429 7.55427V7.51631H15.3809Z" fill="#FDFDFD"></path>
<path d="M14.6014 65.2173C14.6014 65.2173 14.5254 65.3122 14.4874 65.3122C14.4493 65.3122 14.4113 65.2553 14.3733 65.2173C14.4113 65.1793 14.4493 65.1224 14.4874 65.1224C14.5254 65.1224 14.5634 65.1793 14.6014 65.2173Z" fill="#D0D7C9"></path>
<path d="M3.19404 25.8705C3.61232 25.9275 3.85948 26.421 3.80244 26.44C2.90886 26.7437 4.18269 27.8825 3.21306 28.0154C2.71874 28.0913 2.73775 27.427 2.8138 27.2182C2.98491 26.7816 2.43355 26.0793 3.19404 25.8705Z" fill="#D0D7C9"></path>
<path d="M30.0204 62.579C28.6325 62.8068 28.4994 61.8577 27.6249 61.4212C28.8797 61.2124 29.2219 61.9147 30.0204 62.579Z" fill="#D0D7C9"></path>
<path d="M72.0377 63.0915C71.6385 62.9586 71.2582 62.8447 70.84 62.6929C71.0491 62.2563 71.2582 61.7249 71.8286 61.8767C72.7792 62.1045 71.5434 62.7688 72.0187 63.1294V63.0915H72.0377Z" fill="#D0D7C9"></path>
<path d="M50.7819 46.2937C49.9073 46.6733 50.0975 45.4016 49.451 45.4206C49.6222 45.2687 49.7743 45.0409 49.9644 44.965C51.0481 44.5854 50.5348 45.7812 51.0101 46.0279C50.934 46.1039 50.858 46.1988 50.7819 46.2937Z" fill="#D0D7C9"></path>
<path d="M45.8767 21.9226C45.9718 21.6758 46.0668 21.4291 46.1619 21.1823C46.352 21.3911 46.5421 21.6189 46.7323 21.8277C46.4661 21.8656 46.1999 21.9036 45.9147 21.9416L45.8767 21.9226Z" fill="#6EBD6C"></path>
<path d="M31.7695 61.0036C32.1118 61.4971 32.1878 61.9906 31.6555 62.3892C31.5604 62.4651 31.2372 62.2753 31.0661 62.1614C30.2486 61.4971 31.6174 61.3073 31.3703 60.7569C31.5034 60.8328 31.6365 60.9277 31.7695 61.0036Z" fill="#FDFDFD"></path>
<path d="M23.2711 10.8379C23.2711 10.8379 23.5183 10.9518 23.5943 11.0847C23.7654 11.3694 23.5183 11.5022 23.2901 11.5402C23.1571 11.5592 22.9289 11.4833 22.8909 11.3884C22.8148 11.1606 22.8909 10.9518 23.2711 10.8569V10.8379Z" fill="#D0D7C9"></path>
<path d="M71.5434 60.586C71.6385 60.643 71.7526 60.6999 71.8476 60.7569C71.7716 60.8328 71.6955 60.9657 71.6005 60.9846C71.5054 60.9846 71.3913 60.8897 71.2963 60.8328C71.3723 60.7569 71.4484 60.662 71.5434 60.586Z" fill="#D0D7C9"></path>
<path d="M24.602 11.5971C24.602 11.5971 24.5449 11.73 24.5069 11.8059C24.5069 11.749 24.4689 11.692 24.4689 11.6541C24.4689 11.5402 24.4879 11.4453 24.5069 11.3314C24.5449 11.4263 24.5639 11.5212 24.602 11.5971Z" fill="#D0D7C9"></path>
<path d="M25.0773 8.71209C25.0393 8.80699 25.0203 8.92087 24.9822 9.01578C24.9442 8.97781 24.8682 8.92087 24.8682 8.88291C24.8682 8.76903 24.9442 8.67413 24.9822 8.56024C25.0203 8.61718 25.0393 8.65514 25.0773 8.71209Z" fill="#D0D7C9"></path>
<path d="M58.577 5.77009L58.5009 5.48538C58.5009 5.48538 58.4249 5.5613 58.3868 5.58028C58.4629 5.63723 58.5199 5.71315 58.596 5.77009V5.75111L58.577 5.77009Z" fill="#D0D7C9"></path>
<path d="M25.0392 10.3824C25.0392 10.3824 24.9061 10.5342 24.8301 10.6102C24.754 10.5342 24.6399 10.4773 24.6209 10.3824C24.5639 10.1926 24.6589 10.0597 24.8681 10.0977C24.9441 10.0977 24.9822 10.2685 25.0392 10.3824Z" fill="#D0D7C9"></path>
<path d="M23.5943 13.0207C23.5943 13.0207 23.4802 12.9447 23.4802 12.9068C23.4802 12.8119 23.5182 12.717 23.5182 12.6221C23.5563 12.66 23.6513 12.679 23.6513 12.717C23.6513 12.8119 23.6133 12.9258 23.5943 13.0207Z" fill="#D0D7C9"></path>
<path d="M22.2825 20.1953C22.2825 20.1953 22.4346 20.1004 22.5106 20.0435C22.5296 20.1194 22.5486 20.1953 22.5677 20.2713C22.4726 20.2143 22.3965 20.1764 22.3015 20.1194L22.2825 20.1764V20.1953Z" fill="#FDFDFD"></path>
<path d="M23.8794 12.0906C23.8794 12.0906 23.7463 12.0337 23.6703 11.9957C23.7083 11.9578 23.7463 11.8818 23.7654 11.8818C23.8414 11.8818 23.9174 11.9388 23.9935 11.9767C23.9555 12.0147 23.9174 12.0527 23.8794 12.1096V12.0906Z" fill="#D0D7C9"></path>
<path d="M5.01924 34.0512C4.82912 33.8803 4.79109 33.7095 5.00023 33.5387C5.03825 33.5197 5.20936 33.6905 5.32344 33.7665C5.22838 33.8614 5.13332 33.9563 5.01924 34.0512Z" fill="#FDFDFD"></path>
<path d="M46.219 35.3988C46.219 35.3988 46.1429 35.5506 46.1049 35.6266C46.0669 35.5886 45.9908 35.5506 45.9908 35.5317C45.9908 35.4557 46.0479 35.3798 46.0859 35.3039C46.1239 35.3419 46.162 35.3608 46.219 35.3988Z" fill="#FDFDFD"></path>
<path d="M4.39181 50.0328C4.39181 50.0328 4.35379 50.1088 4.35379 50.1467C4.27774 50.1088 4.2207 50.0898 4.14465 50.0518C4.18268 50.0139 4.2207 49.9379 4.25873 49.9379C4.29675 49.9379 4.33478 50.0139 4.39181 50.0518V50.0328Z" fill="#FDFDFD"></path>
<path d="M51.01 46.0279C51.0861 46.1798 51.1621 46.3506 51.2382 46.5024L51.2762 46.4455C50.972 46.8441 50.896 46.5214 50.8009 46.2937C50.877 46.1987 50.953 46.1228 51.0291 46.0279H51.01Z" fill="#D0D7C9"></path>
<path d="M72.0188 63.1105L72.1139 63.2433C72.1139 63.2433 72.0568 63.1294 72.0188 63.0725V63.1105Z" fill="#D0D7C9"></path>
<path d="M59.5277 9.79399C59.4706 10.0597 59.3376 10.4963 59.0714 10.3444C58.6531 10.1167 59.1474 9.83195 59.2235 9.56622C59.3185 9.64215 59.4136 9.71807 59.5087 9.77501L59.5277 9.79399Z" fill="#F5CC43"></path>
<path d="M55.2878 19.4361C55.2878 18.9236 54.8696 18.2024 55.9152 18.2403C56.0863 18.8477 56.2384 19.4171 55.2878 19.4361Z" fill="#F5CC43"></path>
</g>
<defs>
<clipPath id="clip0_85_401">
<rect width="77" height="89" fill="white"></rect>
</clipPath>
</defs>
</svg>
