<?xml version="1.0" encoding="UTF-8"?>
<svg id="_图层_2" data-name="图层 2" xmlns="http://www.w3.org/2000/svg" viewBox="0 0 134.88 105.05">
  <defs>
    <style>.cls-1 {
  fill: #efefef;
}

.cls-1, .cls-2, .cls-3, .cls-4, .cls-5, .cls-6 {
  stroke-width: 0;
}

.cls-2 {
  fill: #000;
}

.cls-3 {
  fill: #25201d;
}

.cls-4 {
  fill: #9fa0a0;
}

.cls-5 {
  fill: #fdfdfd;
}

.cls-6 {
  fill: #dcdddd;
}
</style>
  </defs>
  <g id="_図" data-name="図">
    <g>
      <path class="cls-4" d="M113.47,92.18c.53-.03.34-.36.34-.59,0-.9,1.03-1.06,1.42-1.69.32-.52.93-.94,1.18-1.42.32-.61.59-1.2,1.2-1.56.55-.32.46-.96.9-1.3.34-.27.66-.52.63-.99,0-.12.11-.31.19-.27.78.41.3-.3.46-.43-.44-.36.1-.6.11-.91,0-.11.29-.05.15-.24-.6-.82.24-1.61,0-2.43-.02-.07.04-.2.11-.24.18-.1.16-.18-.03-.2-.46-.07-.32-.38-.31-.62.02-.58.2-1.13.42-1.68-.55,0-.06.56-.56.62-.05-.79-.85-1.33-.91-2.14-.17.06-.4.29-.59.1-.37-.37-1.08-.54-.95-1.23.02-.12-.07-.32-.13-.25-.35.38-.29-.01-.38-.14-.39-.57-1-.95-1.41-1.55-.3-.43-.6-.78-.65-1.3-.01-.11.07-.41-.11-.31-.65.34-.39-.3-.58-.44-.21-.14-.07-.47-.39-.64-.55-.29-1.14-.62-1.01-1.36.02-.12-.1-.22-.17-.18-.39.25-.37-.15-.55-.24-.3-.15-.34-.6-.65-.56-.79.08-1.08-.73-1.79-.81-.12-.02-.07-.87-.78-.42-.04.03-.11-.12-.09-.22.02-.17,0-.34,0-.62-.48.79-1.61.32-2.73-.97.28-.12.53.18.88.09-.24-.14-.26-.41-.67-.33-.48.09-.97-.07-1.31-.55-.16-.22-.09-.54-.25-.63-.69-.37-1.13-.91-1.48-1.54-.12-.22-.32-.27-.52-.16-.75.41-1.63.43-2.41.72-.52.19-.98.31-1.56-.27.19.48.13.66-.23.72-1.11.2-2.12.74-3.3.72-.47,0-.89-.27-1.27-.27-.83.02-1.32-.21-1.52-.94-.14-.49-.4-.92-.73-1.34-.3-.39-.58-.91-.57-1.36,0-.57-.68-.99-.33-1.58-.84-.78-.42-1.84-.77-2.73-.02-.06-.13-.3.14-.28.38.03.3-.22.36-.42-.24-.09-.29.34-.52.12-.16-.15.06-.24.09-.37.03-.16.1-.33.09-.49-.06-.69-.42-1.36-.06-2.09.09-.17.24-.46.23-.66-.11-1.18-.07-2.31.35-3.46.31-.84.47-1.68,1.2-2.33.35-.31.86-.56,1.03-.91.6-1.2,1.73-.96,2.78-1,.23,0,.65-.24.59.3,0,.01.23.08.35.07.04,0,.12-.18.09-.23-.27-.41.15-.38.35-.42.68-.14,1.36-.29,2.05-.36.53-.06,1.29,0,1.47.34.32.59.5-.57.63.04.05-.03.11-.07.16-.1-.35-.37.17-.89-.14-1.16-.3-.25-.13-.46-.18-.68-.09-.37.54-.74-.11-1.14-.2-.13.02-.68.03-1.03,0-.53.68-.86.4-1.47-.23.25-.33.55-.41.85-.65-.51.46-1.44-.62-1.8.56-.82-.36-1.39-.53-2.08-.1-.41-.56-.75-.17-1.22.03-.04,0-.12,0-.2-.47.27-.54.27-.59-.05-.03-.23-.2-.16-.29-.25-.82-.89-1.86-1.56-2.82-2.31-.52-.4-.93-.94-1.48-1.35-.64-.48-1.05-1.17-1.64-1.72-.56-.51-.91-1.21-1.66-1.61-.85-.45-1.39-1.33-2.45-1.5-.1-.02-.18-.03-.25-.14-.23-.39-.22-.34-.63-.23-.43.11-.95.4-1.32.04-.38-.37-.8-.25-1.1-.16-.41.13-.7.07-1.08-.05-.32-.1-.52-.38-.88-.44-.44-.07-.79-.3-.41-.89-.66.27-1.1.62-1.77.52-.64-.1-1.26-.44-1.96-.23-.32.1-.26-.17-.23-.37.06-.42-.3-.48-.54-.36-.54.26-.5.23-1,.12-.37-.08-.72-.56-1.17-.13-.07.06-.11-.03-.13-.15-.07-.43-.4-.26-.44-.06-.06.25-.26.28-.37.24-.66-.24-1.26-.07-1.91,0-.56.06-1.17-.04-1.75.11-.17.05-.36.12-.26-.2.07-.24-.24-.2-.28-.14-.5.81-1.8.14-2.29,1.01.06-.31.11-.62.17-.98-.37.16-.18.42-.26.61-.29.68-.54.82-.8.43-.66.69-1.39,1.26-2.49,1.25-.15,0-.35-.13-.44,0-.56.82-1.76.64-2.41,1.3-.03.03-.17.04-.2,0-.48-.51-.42-.2-.35.18.03.15-.18.12-.27.2-.4.36-1,.21-1.48.66-.55.52-1.42.77-1.85,1.48-.02.04-.07.08-.12.09-.83.08-1.18.79-1.82,1.13-.2.1-.52.15-.58.3-.21.52-.51.21-.85,0,.07.84.35,1.69-1.13,1.73.36.21.65-.02.76.26-.41.04-.48.3-.51.63-.05.68-.69,1.06-1.02,1.6-.23.38-.36-.18-.59-.04.04.13.04.26.1.36.37.58.33,1.15.03,1.74-.22.42-.46.86-.2,1.35-.07.03-.12.06-.17.06-.64.04-.61.03-.34.54.12.23.22.57-.12.77-.25.14-.32.35-.32.6,0,.16-.29.55-.52.85-.1.12,0,.21.09.35.48.67,1.08,1.09,1.96,1.25.33.06.88.08.93.65.01.15.4.31.6.23.67-.28,1.27-.16,1.83.21.21.13.46.16.61.09.43-.2.74-.02,1.08.19.54.33,1.06.7,1.73.88-.29,0-.49.08-.64.25.17.23.4.12.59.13.52.03,1.01.4,1.13.67.31.75.24,1.6.59,2.37.08.18-.14.19-.26.26-.26.17-.83.37-.01.61.1.03.22.37.16.43-.52.57.18,1.39-.46,1.93-.03.02.11.29.15.29.47-.04.19.35.34.48-.49.42-.07.93-.07,1.38,0,.51-.08.95-.23,1.43-.12.4-.83.55-.48,1.09.28-.12.41-.37.62-.68-.04.62-.04.63-.49,1.26-.09.12-.03.28.03.32.61.39-.05.78.04,1.16.06.25-.45-.02-.3.28.24.45.65.9-.09,1.27.4.85-1.05,1.03-.78,1.85.03.1-.16.04-.26.04-.2,0-.39-.13-.58-.05-.19.42.63.04.42.52-.42.98-1.51,1.67-2.81,1.68.31-.2.6-.38.88-.57-.23.05-.47-.12-.69.11-.52.56-1.27.7-1.91.31-.67-.41-1.42-.56-2.1-.89-.41-.2-.56-.68-.85-.85-.59-.35-1.19-.68-1.58-1.2-.36-.48-1.02-.35-1.35-.7-.39-.41-.79-.69-1.38-.69-.13,0-.25-.06-.27-.21.06-.23.34.07.42-.15-.34-.22-.7-.56-1.11-.42-.75.26-1.72.48-2.1,1.01-.43.6-1.29.33-1.55.95-.38-.3-.46.05-.66.22-.09.08-.24.27-.41,0-.17-.27-.31-.31-.43-.09-.49.88-1.76.39-2.31,1.14-.02.03-.1.02-.15.01-.2-.05-.31,0-.45.07-.14.08-.25.48-.48.06-.12-.21-.15,0-.24.04-.76.29-1.36.86-2.19,1.04-.1.02-.26.08-.26.13-.03.77-.8.95-1.26,1.4.06-.25.16-.48-.18-.84.05.47-.33.68-.16,1.09.1.24-.04.6-.45.19-.08-.09-.2-.04-.26.04-.03.04,0,.15.03.17.41.26.08.37-.09.55-.34.37-.97.38-1.14,1.03-.09.34-.66.64-.78,1.12-.02.07-.63.24-.76.24-.07,0-.17,0-.19.04-.03.05,0,.14,0,.2.06.22.41.03.46.26-.3.32-.49.72-.99.8-.12.02-.3.15-.12.22.6.24.07.4-.03.55-.18.26-.64.6-.57.7.45.74-1.13,1.22-.23,1.97-.06.05-.16.09-.16.14,0,.37-.58.67-.35.97.49.63-.18,1.27.18,1.86-.6.3-.14.48.18.68-.26.17-.46.3-.67.44.77-.13.85-.07,1.43,2.27-.23-.18-.43-.34-.68-.53.06.32.1.49.41.61.6.24.96.69.89,1.34,0,.07-.16.11-.05.23.58.63,1.21,1.23,1.27,2.12,1.19.69.73,2.13,1.66,2.98.24.22.31.63.74.75.12.03.28.1.24.24-.05.2-.28-.07-.39.1.44.66,1.83.38,1.79,1.51.07-.03.13-.08.21-.1.65-.11.88.61,1.46.65-.43.83.5.2.63.48.07.16.36.41.43.38.78-.29,1.07.31,1.48.66.1.09.12.28.3.29.78.05,1.2.61,1.79,1.04-.24.01-.42,0-.59.03-.26.04-.16.18-.07.3.05.06.11.23.12.18.05-.55.68.19.74-.28.15.1.72-.28.44.34-.09.21.12.36.25.14.21-.33.42-.15.54-.03.32.31.97.3,1.01.89,0,.06.21.15.24.04.12-.34.22-.22.37-.02.29.38.76.54,1.16.78.23.14.45.51.38.76-.05.19,0,.22.23.21.37,0,.11-.4.36-.43.4.28.73.59.84,1.05.02.08.07.25.12.19.55-.62.78.13.86.28.35.68,1.48.42,1.66,1.23,0,0,.18,0,.21-.03.29-.46.74-.19,1.01-.07.5.22.88-.29,1.14-.16.61.29,1.32-.54,1.83.22,0,.01.11,0,.14-.04.24-.25.54-.17.84-.21,1.48-.21,2.68.82,4.1.7.31-.03.48.3.94.19.41-.1,1.04-.32,1.46-.04.51.35.95.21,1.44.12.17-.03.33-.11.53-.02.81.36,1.67.61,2.57.56.93-.05,1.77.46,2.73.31.23-.04.94.02.97.22.11.74.46.24.75.22.51-.03,1.01-.42,1.54.05.19.17.55.06.82-.08.42-.23,1.86-.09,2.25.19.1.07.25.12.21.27-.16.56.17.21.29.13.31-.22.57-.6.9-.66.8-.15,1.67.03,2.41-.46.2-.13.26.08.26.28,0,.18.1.39.37.35.1-.01.34.01.29-.14-.17-.55.4-.41.52-.37.5.15,1.21.15,1.45.39.37.37.41-.36.53-.03.04.11-.08.28.15.31.19.02.26-.11.32-.25.06-.13.22-.17.33-.13.62.22,1.3-.07,1.9.24.09-.2-.23-.18-.21-.4.66.15,1.33.16,1.97-.06.08-.03.2-.03.22.12.07.58.45.18.56.1.76-.61,1.88-.11,2.64-.69.01,0,.05.02.07,0,.47-.15.97,0,1.45-.02.49-.02.79-.33,1.24-.35.73-.04,1.41.18,2.14.33-.11-.43-.55-.11-.73-.41.81-.5,1.88-.25,2.68-.72.17.13.05.47.47.45-.21-.57.18-.66.63-.64.35.01.72-.29,1.05.08.06.06.27.08.24,0-.2-.64.31-.27.51-.3.59-.1,1.23-.21,1.75-.39.58-.2,1.04-.37,1.64-.15.09.03.36.25.28-.05-.1-.39.2-.26.34-.28.58-.08,1.15-.13,1.68-.41.3-.16.72-.46,1.12-.03.09.1.31-.01.32-.09.03-.54.54-.3.81-.45.29-.16.6.14.66.06.3-.35.58-.6,1.12-.62.29-.01.76-.49.82-.44.85.75.32-.45.68-.39.13.02.15.1.22.14.16.09.32.16.48.24-.83-.32-.21-.49.02-.78.43-.52,1.04-.79,1.58-1.15.15.24-.08.4-.14.65Z"></path>
      <path class="cls-2" d="M8.29,104.99c-1.26.26-2.37-.38-3.52-.68-.68-.18-1.15-.94-1.63-1.53-1.49-1.85-2.3-4.01-2.65-6.31-.16-1.05-.67-2.09-.42-3.16.08-.37-.22-1.06.57-1.13.07,0,.15-.21.18-.33.03-.14-.14-.13-.2-.21-.1-.14-.48.37-.37-.18.08-.42-.05-.96.4-1.19.22-.12.6-.09.44-.42-.18-.36-.29.38-.56.13.19-1.41,1.05-2.32,2.25-2.97.27-.14.2-.49.48-.63.21-.11.44-.27.64-.16.19.12.47.33.25.65-.12.18-.01.28.09.4.61.72.63.88-.18,1.37-.54.33-.88.72-1.14,1.29-.09.19-.08.68-.61.68-.31,0-.25.4-.15.63.21.49.34.96.01,1.45-.11.16-.15.36-.02.53.49.66.05,1.38.13,2.07.04.33.04,1-.84.55,1.59.66,1.28,2.39,2.18,3.41-.13.11-.28.24-.43.37-.12.1-.15.22.01.31.1.06.1.23.27.22.47-.03.66.05.61.38-.11.74.4,1.01.84,1.43.72.7,1.64.65,2.5.87.25.06.67-.3.61-.16-.26.58.37.48.45.74.13.45.46.86.28,1.37l-.44.18Z"></path>
      <path class="cls-2" d="M123.16,19.25c.56-.68.79-1.42.86-2.23.04-.41.4-.7.59-1.03.34-.58.3-1.12.07-1.6-.24-.51-.53-1.03-1.09-1.35-.86-.48-1.5-1.29-2.3-1.83-.47-.32-1.14-.41-1.65-.78-.33-.23-.67-.46-1.03-.61-.49-.21.23-.59-.17-.82-.46-.27-.23.68-.7.35-.27-.19-.6-.31-1-.52.3-.11.5-.19.85-.31-.41-.15-.71-.15-1.01-.41.03.31.05.48.08.75-.33-.2-.65-.2-.94-.28-.76-.2-.82-.19-.86.59-.01.25-.04.4-.33.39-.61-.03-1.5-.8-1.61-1.46-.12-.73.16-1.23.85-1.6,1.31-.69,2.68-.49,3.57.4.6.59,1.32.39,1.69.75.66.64,1.48.74,2.2,1.12.35.18.56.58.93.81.29.18.41.58-.06,1.05,1.47-.37,2.33.29,3.05,1.25.08.1.28.12.43.16.29.08.39.16.21.49-.25.46-.2.49.42.47.27,0,.76.79.69,1.13-.12.65-.6,1.22-.39,1.95.02.09-.07.13-.22.09-.34-.08-.4.18-.2.34.45.39.17.6-.05.96-.21.34-.27.79-.33,1.2-.21,1.42-.61,1.65-1.83.9-.22-.14-.48-.1-.71-.31Z"></path>
      <path class="cls-2" d="M12.64,93.48c.93.11,1.63.3,2.2.84.24.23.65.5,1.08-.07,0,.39,0,.57,0,.75,0,.14.02.29.2.27.12-.02.32-.11.32-.17,0-.6.4-.51.7-.35.5.27.97.29,1.47.05.11-.05.15-.04.19.11.15.46.45.22.46-.01.02-.44.33-.29.51-.32.29-.05.33.19.34.42.02.5.22,1.09.02,1.48-.15.29-.83.02-1.25.1-.95.17-1.89.22-2.84.17-.85-.05-1.58-.42-2.33-.73-1.07-.44-1.5-1.45-2.11-2.36-.43-.65-1-1.17-1.19-1.98-.12-.48-.61-.92,0-1.39.07-.05.04-.24.05-.36-.13-.01-.31-.08-.37-.02-.28.26-.33.04-.38-.17-.36-1.41-.87-2.81.05-4.24.3-.47.79-.87.79-1.51,0-.02.04-.04.05-.06.16-.24.52-.33.57-.09.15.77,1.43.28,1.29,1.2-.05.29-.2.69-.42.9-.49.48-.46,1.1-.6,1.68-.06.22.37.63-.26.61.01.23.08.41.25.61.31.36.64.73.58,1.3-.04.36.15.62.44.89.58.55.36,1.46.8,2.1-.14.09-.29.18-.61.37Z"></path>
      <path class="cls-2" d="M130.28,4.92c-.72-.66-1.7-.92-2.45-1.53-.29-.23-.75-.42-.63-.95-.58.5-.72-.47-1.22-.36-.28.07-.6-.16-.62-.45-.02-.2.07-.55.45-.53.14,0,.19-.1.19-.2-.03-.38.08-.9.37-.91.42-.02.98.18,1.25.49.64.7,1.58.92,2.24,1.56.15.14.56.14.26.56-.06.09.34.32.65.36.73.1,1.35.37,1.64,1.15.05.13.2.27.33.3,1.25.28,1.17,1.46,1.59,2.3.18.36.24.6-.31.4,0,.46.41.45.59.68.52.68.18,1.29.02,1.95-.13.53-.67.99-.28,1.58-.27.23-.49-.03-.73.03-.27.07-.21.26-.24.43-.05.29.13.1.22.13.4.15.16.49.06.68-.2.36-.69.47-.88.89-.02.04-.28.03-.28.02-.1-.66-1.29-.53-1.08-1.02.32-.72.5-1.49.88-2.21.46-.88.89-1.99.43-2.93-.28-.56-.99-1.01-1.44-1.55-.18-.22-.94-.41-.34-.98.03-.02-.11-.33-.22-.36-.36-.11-.26.31-.44.45Z"></path>
      <path class="cls-2" d="M83.64,60.3c.28-.07.53-.3.5.22-.04.75-.66,1.27-.85,1.96-.16.57-.62,1.05-.63,1.67,0,.25-.28.39-.38.44-.66.34.04.89-.34,1.37-.81,1.01-1.95,1.51-3.3,1.17-.45-.11-.94-.26-1.43-.02-.55.26-1.02-.23-1.58-.25-.58-.02-1.2.28-1.73-.01-.66-.37-1.41.13-2.1-.35-.29-.2-.96.05-1.46.12-.42.06-.71-.04-.95-.4-.33-.49-.91-.81-1.17-1.35-.51-1.08-1.11-2.11-1.25-3.32-.13-1.07-.62-2.12-.69-3.18-.09-1.36-.27-2.76.24-4.1.07-.18.06-.34-.01-.58-.29-.86.08-1.72.19-2.58.02-.2.2-.01.3,0,.18.04.21-.08.26-.19.03-.09.05-.18-.04-.26q-.55-.49-.34-1.19c.28.02.23.35.72.52-.39-.41.02-.8-.41-1.05-.17-.1-.13.23-.3.25-.34-.66.69-3.9,1.33-4.49.87-.79,2.13-.93,2.97-.69.76.22,1.6.05,2.32.49.17.1.46.06.68.04.46-.03.86.03,1.27.29.74.47,1.62.55,2.48.73,1.34.27,2.72.48,3.81,1.41.58.49,1.3.84,1.88,1.36.39.36.74.72.85,1.24.09.44.05.88.3,1.34.19.35.25.96-.16,1.32-.44.39-.03.79-.07,1.18-.1,1-.33,2-.3,3.02,0,.22.03.41.11.62.14.37.24.77-.08,1.13-.13.14-.11.35-.12.56-.02.54-.05,1.11-.52,1.58ZM69.33,46.3c-.02.76-.46,1.45-.29,2.24.06.28-.07.83-.25.88-.58.18-.27.44-.23.73.06.38.41.78.16,1.12-.21.29-.34.59-.21.84.43.8-.16,1.43-.28,2.14-.05.3-.13.6-.68.29.65.71.82,1.41.61,2.23-.03.11-.31.47.01.7.38.28.41.48-.15.54-.12.01-.32.1-.24.29.04.08.05.23.24.22.56-.03.5.36.44.65-.05.23-.11.43-.06.68.06.3.44.65-.06.95-.14.08.13.23.18.23.54.02.63.44.51.71-.2.46.15.71.36.94.12.14.29.32.28.43-.03.71.66,1.01.97,1.52.03.05.1.07.15.11.33-.57.7.12,1.05-.01.29-.11.23.42.38.27.52-.53,1.08-.03,1.6-.04.17,0,.9-.36.88.37,0,.01.18.07.2.05.62-.6.7.03.92.49,0-.94.49-1.02,2.71-.6-.07.32-.48.22-.81.46.34,0,.58.07.67,0,.39-.35.82-.49,1.37-.43.18.02.35-.1.39-.28.12-.69.75-1.23.59-2-.03-.15.05-.33.14-.47.49-.84.97-1.65,1.02-2.68.01-.24-.14-.41-.11-.64.11-.77.32.19.44-.02.04-.06.05-.13.07-.2.05-.19,0-.37-.07-.55-.29-.82-.02-1.67-.12-2.51-.02-.2-.13-.64-.04-.64.83-.02.08-.49.23-.64.41-.41-.13-.88.05-1.22.41-.79.19-1.62.31-2.42.09-.6-.17-.97-.49-1.4-.19-.25-.66-.32-.59-.75.01-.09-.17-.17-.22-.07-.12.22-.18.19-.36.02-.79-.76-2.16-1.27-3.28-1.25-.03,0-.06-.09-.11-.1-1.1-.31-2.04.06-2.89-.86-.03-.04-.45-.52-.48-.49-.48.58-2.75.15-3.09-.25-.58-.68-2.14-.67-1.83.42Z"></path>
      <path class="cls-2" d="M79.59,77.31c.06.3.52.52-.08.56-1.41.09-2.81.24-4.23.09-.03,0-.06,0-.08,0-1.12-.87-2.3.19-3.46-.13-.26-.07-.62-.06-.93-.08-.47-.04-.92-.37-1.45-.08-.54.3-.97-.31-1.5-.36-.78-.07-1.58-.16-2.33-.36-.7-.19-1.39-.45-2.08-.68-1.17-.4-2.34-.81-3.51-1.21-.32-.11-.7-.1-1.02-.26-1.08-.52-2.16-1.03-3.21-1.58-.29-.16-.58-.03-.88-.18-1.18-.59-2.18-1.4-3.07-2.29-.83-.84-2.03-1.15-2.89-1.94-.38-.35-.62-.54-.64-.99,0-.08-.08-.17-.15-.23-.12-.12-.24-.06-.32.05-.08.11-.05.4-.32.16-.79-.68-1.89-1-2.52-1.87-.38-.52-.78-1.01-1.41-1.34-.2-.1-.5-.35-.39-.63.09-.22.29-.43.65-.28.09.04.31-.02.34-.09.39-.93.95-.53,1.28-.02.5.74,1.35,1.1,1.94,1.73.16.17.55.23.21.56-.04.04.24.29.51.33.48.08.99.15,1.31.59.26.35.63.51,1.06.68.73.28,1.1.98,1.61,1.51.15.16-.29.17-.44.27.06.06.11.12.14.12,1.3-.18,2,.62,2.83,1.34.28.25.51.22.36.65-.09.27.36.31.47.14.26-.4.67-.15.75-.04.36.5.84.72,1.44.8.16.02.08.1.06.2-.09.44.34.18.5.3,0-.56.38-.18.49-.11.92.64,2.06.62,3.08.94.49.16,1.12.05,1.36.64.06.14.2.2.31.16.64-.24.97.21,1.35.52.05.04.14.12.16.11.63-.36,1.1.28,1.68.26.22,0,.37.07.5.38.28.65.26-.44.6-.11.23.13.15.43.32.64.16-.5.85-.73,1.75-.54.65.14,1.32.18,1.94.29.86.15,1.6,0,2.4-.07.23-.02.45.08.67.12,1.01.17,2.23.39,3.02.09.97-.36,2.04.1,2.83-.64.1.33-.23.32-.18.44.03.07.34.12.4.07.69-.64,1.7-.21,2.52-.62.58-.3,1.52-.03,2.29,0,.24,0,.56.32.68-.16,0-.04.39,0,.59.01.48.05,1.49-.21,2.13-.27,1.04-.1,1.8-.85,2.85-.88.39,0,.79-.09,1.2-.13-.14-.24-.45,0-.6-.24.48-.09.93-.27,1.27-.6.36-.34.74-.44,1.35-.02-.71-.86-.18-.97.46-1.07.18-.03.54,0,.26-.41-.12-.18.32-.37.54-.51.37-.25.8-.39.98-.88.12-.33.46-.66.95-.53.23-.29-.48-.3-.13-.61.22-.2.43-.32.75-.23.1.03.21.01.31.04.35.08.84-.11,1.05.26.23.41-.12,1.59-.49,1.81-.98.56-1.59,1.48-2.48,2.11-.96.68-1.82,1.5-2.98,1.92-.37.14-.62.39-.93.6-.46.32-1.09.33-1.62.47-.81.22-1.58.48-2.29.88-.13.07-.29.16-.42.14-1.46-.25-2.85.38-4.32.18-.47-.06-1.03.09-1.51.4-.3.2-.8.28-1.3.08-.7-.28-1.53.2-2.34-.36Z"></path>
      <path class="cls-2" d="M82.27,42.18c-.19-.81.61-.48.93-.64.22-.12.6-.02.9.02.51.06.96,0,1.48-.13.83-.21,1.51-.53,2.15-1.01.2-.15.44-.28.72-.18.25.1.43,0,.55-.15.62-.73,1.55-.7,2.42-.82.1-.01.26-.02.28-.08.32-.7,1.21-.22,1.65-.66.19.23.21,0,.3-.08.07-.07.15-.13.23-.19.27-.19.29.57.69.15.2-.21.09-.61.51-.65.08,0,.15-.06.22-.06.49-.02.8-.24.99-.65.09-.18.56-.06.85.24.26.27.48.57.69.87.06.08.19.25.05.31-.54.23-.7.98-1.16,1.02-1.08.11-1.84,1.13-3.02.68-.08.44.3.1.32.28.02.21-.19.2-.33.22-1.37.23-2.7.54-3.98,1.07-.19.08-.68.21-1.05-.27.13.51-.02.67-.42.85-.66.29-1.39.5-1.94.99-.32.29-.81.17-1.11.11-.87-.16-1.75.54-2.64-.1-.11-.08-.72-.1-1.15.02-.52.15-1.19.22-1.73-.15-.03-.02-.08-.08-.08-.08-.77.5-1.61-.29-2.42.09-.32.15-.79.1-1.14-.19-.2-.17-.42-.22-.71-.14-.77.2-1.45-.36-2.21-.32-1.25.07-2.34-.65-3.54-.7-1.26-.05-2.37-.75-3.66-.68-.4.02-.82-.24-1.23-.38-1.04-.37-2.19-.3-3.21-.69-.3-.11-1.01-.06-.88-.73.01-.06-.16-.18-.27-.23-.13-.06-.2.07-.2.15,0,.52-.4.27-.58.19-.56-.23-1.13-.33-1.71-.46-.62-.15-1.13-.56-1.66-1-.55-.46-.49-.81-.32-1.18.17-.38.43-.75.67-1.1.23-.34.62-.21.72.1.22.71.94.89,1.45,1.28.23.18.58.11.69.57.09.39.75-.05,1.12.19.03.02.17-.09.2-.07.71.47,1.55.44,2.34.63.34.08.56.42.97.42.11,0,.25.17.34.28.32.39.34.44.82.22.73-.33,1.38.11,2.06.16.09,0,.18.15.33.08.5-.25.74-.19.73.41,0,.3.38.31.47.1.15-.36.51-.26.62-.19.53.35,1.05.64,1.72.56.11.88.36.12.58.06.43-.11.77.24,1.27.22.94-.03,1.9.16,2.86.19.36.01.8-.06.98.41.07.17.29.04.4-.01.48-.2.75-.16,1.33.22.05.03.16.07.17.06.66-.67,1.52.23,2.21-.19.1-.06.21.05.21.13,0,.56.18.43.51.17.27-.21.32-.16.68.42Z"></path>
      <path class="cls-1" d="M102.58,53.26c-.09-.14-.12-.2-.17-.26-.39-.42-.39-.42-.09-.84.03-.04.02-.15-.02-.18-.59-.44-.24-1.1-.3-1.58-.1-.83.06-1.68-.22-2.53-.02-.07-.23-.59.35-.45.14.03.25-.31.17-.33-.89-.22-.63-.93-.79-1.45-.07-.23-.12-.26-.39-.34-.82-.25-1.65-.23-2.48-.26-.22,0-.42.09-.63-.21-.19-.27-.44.11-.67.23-.52.27-1.21.15-1.74.26-.75.16-1.56.36-2.3.72-.04-.15-.08-.31-.13-.46-.23.75-.14,1.59-.7,2.26-.19.22-.27.47-.1.81.15.3-.16.21-.36.2-.17-.01-.4-.02-.39.23,0,.12-.02.39.07.36.71-.24.35.3.33.43-.06.52-.86.91-.3,1.56.03.03-.1.05-.15.08-.35.15-.37.33-.05.39.32.05.29.26.24.33-.28.42-.06.86.01,1.26.11.58.02,1.16.13,1.74.09.48.54.96.02,1.47-.15.15.09.34.24.36.15.02.29.04.24.17-.35.92.48,1.64.53,2.5.01.25.45.51-.07.73-.08.03-.1.28.17.28.25,0,.29.1.38.32.19.51,1.49,1.09,1.81.82.32-.27.7-.23,1.01-.22.48.02.85-.08,1.24-.31.29-.18.63-.44.98-.31.44.16.69-.02.97-.23.22-.17.46-.39.74-.34.49.08.91-.15,1.36-.21.42-.06.78-.42.87-.84.16-.77-.39-1.55-.07-2.33.17-.42-.4-.73-.25-1.2.14.12.24.21.33.3.04-.17.17-.29.09-.52-.16-.45-.61-.92-.23-1.39.25-.31,0-.48-.03-.71-.02-.12-.32-.19-.11-.34.07-.05.26.04.49.08Z"></path>
      <path class="cls-2" d="M102.27,39.17c.27.04.37-.28.61-.08.22.18-.13.26-.1.42.2,1.08.15,2.17.35,3.26.25,1.37.63,2.74.54,4.15-.01.18.07.31.15.46.24.44.42.92.16,1.4-.3.54.18,1.01.13,1.53-.12,1.32.22,2.61.39,3.91.11.88-.14,1.86-.47,2.74.4.2.08-.37.44-.21.18.19.07.48.01.7-.24.83-.06,1.63.1,2.44.09.46.42.91-.01,1.36-.07.08-.05.39.11.34.61-.19.61.34.8.56.62.75,1.6,1.18,2.08,2.04.09.16.13,0,.21-.02.3-.07.67.09.72.24.26.74.92.74,1.53.98.41.16,1.3.03,1.27.85,0,.02.04.05.05.05.92-.15,1.27.75,1.99.95.61.17,1.01.53,1.12,1.13.03.14,0,.29.18.37.63.3.86.84,1.2,1.38.68,1.1,1.29,2.26,2.28,3.19.14.13.34.25.25.48-.01.04,0,.09,0,.14.93-.34.68.66,1.18.91.91.45,1.45,1.35,2.11,2.1.02.02.05.04.04.06-.2.88.23,1.7.38,2.55.19,1.13-.22,2.26.11,3.39.1.36.11.76-.19,1.06-.54.55-.4,1.46-1.16,1.88-.12,1.36-1.52,1.9-2.22,2.89-.22.31-.31.95-1.02.85.24.43-.14.21-.29.25-.05.01-.11.13-.1.14.58.51-.15.62-.33.85-.83,1.12-1.95,2-2.93,2.99-.17.18-.34.23-.58.27-.58.1-1.02.38-1.46.76-.37.33-.8.85-1.52.63-.02,0-.06-.03-.06-.03-.43.78-1.54.34-2.06.95-.09.1-.25.2-.39.21-.98.08-1.86.51-2.83.63-1.1.14-2.2.35-3.29.58-1.56.33-3.11.72-4.74.71-.1,0-.28.03-.28.05-.01.45-.5.49-.73.49-1.01,0-1.97.24-2.91.46-1.07.24-2.21.11-3.22.6-.26.13-.55.41-.9.2-.53-.32-1.02.06-1.55,0-.57-.06-1.2.34-1.74.23-.97-.19-1.94.04-2.89-.21-1.03-.27-2.09-.15-3.13-.16-1.28-.02-2.49.47-3.77.29-1.09-.15-2.11.16-3.17.19-.65.02-1.04-.35-1.44-1.05.06.94-.39.91-.96.8-.89-.17-1.82.13-2.69-.32-.59-.31-1.27-.17-1.91-.24-1.23-.14-2.45-.4-3.67-.62-.2-.04-.49,0-.49-.34,0-.11-.22-.12-.24-.06-.14.65-.7.27-1,.26-1.01-.04-2.08,0-3.01-.36-.71-.28-1.46-.14-2.18-.57-.67-.4-1.66.14-2.5.24-1.03.12-2.05.02-3.08.08-.51.03-1.06-.6-1.61-.88-1.28-.65-2.13-1.78-3.35-2.5-.54-.32-1.11-.62-1.42-1.17-.87.22-1.28-.54-1.86-.86-.69-.38-1.39-.71-2.11-1.01-.07-.03-.2-.05-.21-.09-.2-.94-1.22-1.09-1.89-1.33-1.28-.46-2.27-1.33-3.53-1.77-.16-.06-.32-.06-.4-.28-.14-.35-.37-.65-.78-.85-.58-.27-.77-.85-.96-1.4-.36.19.04.34-.14.5-.04-.01-.13-.02-.17-.06-.82-.89-.92-2.06-1.41-3.08-.25-.52-.93-1.03-.41-1.72.01-.02-.03-.11-.05-.11-1.08.02-.89-.93-1.23-1.43-.47-.7-.93-1.46-.83-2.35.02-.14-.08-.12-.17-.16-.39-.2-.56-.47-.47-.91.11-.52-.05-1-.29-1.51-.23-.47-.3-1.07-.22-1.58.08-.53.26-1.16.17-1.6-.25-1.27.36-2.3.69-3.4.14-.45.57-.85.86-1.24.33-.43.65-.89.94-1.34.52-.78,1.13-1.52,1.79-2.17.55-.53,1.04-1.21,1.83-1.51.53-.2.3-.82.73-1.06.08-.04.08-.22.15-.23.95-.23,1.41-.97,2.05-1.53.14-.12.66-.34,1.05-.39,1-.12,1.88-.51,2.68-1.05.48-.32,1.1-.3,1.62-.36,1.03-.12,1.71-.79,2.59-1.12.7-.26,1.37-.76,1.98-1.27.91-.76,1.06-1.83,1.52-2.78.06-.12.05-.26.12-.39.24-.44.49-.9.23-1.42-.13-.27-.06-.5.13-.72.35-.39.29-.84.25-1.32-.05-.51-.21-1.07.23-1.52.13-.14.02-.19-.04-.28-.17-.29-.19-.61.06-.86.19-.2.11-.43.08-.6-.12-.72,0-1.3.45-1.95.21-.3.68-.52.68-.96-.23-.12-.35.38-.57.09-.15-.21.12-.34.24-.47.22-.24.12-.53.22-.78.22-.56.19-1.15.55-1.71.57-.88.43-1.99.76-2.96.44-1.28.66-2.64,1.44-3.8.16-.24.09-.46.11-.69.09-.84.75-1.45,1.15-2.16.05-.08.14-.12.25-.03.22.18.49.05.51-.1.04-.2-.18-.26-.43-.24-.24.02-.08-.16-.07-.25.04-.45.29-.79.73-1.09.02.25.03.45.05.64.14-.25.69-.49.04-.76-.16-.07-.07-.12-.04-.21.34-.93.94-1.17,2.04-1.45.37-.09.96-.34,1.35-.71.47-.46,1.08-.79,1.68-1.11.12-.06.81.25.43-.35.05-.02.09-.04.14-.05.84-.11,1.4-.83,2.25-.85.63-.01.65-.65,1.15-.77.13-.03.23-.23.36-.24,2.11-.27,3.8-1.36,5.56-2.31.11-.06.23-.18.33-.17,1.06.21,2.14-.67,3.26.23-.12-.34-.32-.62.21-.55,1.13.14,2.26.19,3.39.39.69.12,1.41.3,2.15.14.42-.09.92.1,1.24.25,1.07.49,2.27.22,3.32.68,1.17.52,2.47.44,3.68.76.32.09,0,.73.63.62-.11-.63.32-.63.83-.51.81.2,1.72-.03,2.44.53.3.24.75.37.67.86.51-.05.63.51.91.59,1.22.36,1.78,1.3,2.49,2.13.33.38.79.67.72,1.24-.01.09.11.28.13.28.82-.22.91.55,1.34.84.55.37,1.08.76,1.62,1.14.46.31.92.62,1.38.93.18.12.27.27.28.48.03.58.5.9.86,1.32.34.4.99.81.75,1.49-.06.16.06.18.15.27.28.26.56.5.38.95-.07.17.1.47.25.64.46.5.44,1.02.44,1.64,0,.5.17.97-.37,1.37ZM113.47,92.18c.53-.03.34-.36.34-.59,0-.9,1.03-1.06,1.42-1.69.32-.52.93-.94,1.18-1.42.32-.61.59-1.2,1.2-1.56.55-.32.46-.96.9-1.3.34-.27.66-.52.63-.99,0-.12.11-.31.19-.27.78.41.3-.3.46-.43-.44-.36.1-.6.11-.91,0-.11.29-.05.15-.24-.6-.82.24-1.61,0-2.43-.02-.07.04-.2.11-.24.18-.1.16-.18-.03-.2-.46-.07-.32-.38-.31-.62.02-.58.2-1.13.42-1.68-.55,0-.06.56-.56.62-.05-.79-.85-1.33-.91-2.14-.17.06-.4.29-.59.1-.37-.37-1.08-.54-.95-1.23.02-.12-.07-.32-.13-.25-.35.38-.29-.01-.38-.14-.39-.57-1-.95-1.41-1.55-.3-.43-.6-.78-.65-1.3-.01-.11.07-.41-.11-.31-.65.34-.39-.3-.58-.44-.21-.14-.07-.47-.39-.64-.55-.29-1.14-.62-1.01-1.36.02-.12-.1-.22-.17-.18-.39.25-.37-.15-.55-.24-.3-.15-.34-.6-.65-.56-.79.08-1.08-.73-1.79-.81-.12-.02-.07-.87-.78-.42-.04.03-.11-.12-.09-.22.02-.17,0-.34,0-.62-.48.79-1.61.32-2.73-.97.28-.12.53.18.88.09-.24-.14-.26-.41-.67-.33-.48.09-.97-.07-1.31-.55-.16-.22-.09-.54-.25-.63-.69-.37-1.13-.91-1.48-1.54-.12-.22-.32-.27-.52-.16-.75.41-1.63.43-2.41.72-.52.19-.98.31-1.56-.27.19.48.13.66-.23.72-1.11.2-2.12.74-3.3.72-.47,0-.89-.27-1.27-.27-.83.02-1.32-.21-1.52-.94-.14-.49-.4-.92-.73-1.34-.3-.39-.58-.91-.57-1.36,0-.57-.68-.99-.33-1.58-.84-.78-.42-1.84-.77-2.73-.02-.06-.13-.3.14-.28.38.03.3-.22.36-.42-.24-.09-.29.34-.52.12-.16-.15.06-.24.09-.37.03-.16.1-.33.09-.49-.06-.69-.42-1.36-.06-2.09.09-.17.24-.46.23-.66-.11-1.18-.07-2.31.35-3.46.31-.84.47-1.68,1.2-2.33.35-.31.86-.56,1.03-.91.6-1.2,1.73-.96,2.78-1,.23,0,.65-.24.59.3,0,.01.23.08.35.07.04,0,.12-.18.09-.23-.27-.41.15-.38.35-.42.68-.14,1.36-.29,2.05-.36.53-.06,1.29,0,1.47.34.32.59.5-.57.63.04.05-.03.11-.07.16-.1-.35-.37.17-.89-.14-1.16-.3-.25-.13-.46-.18-.68-.09-.37.54-.74-.11-1.14-.2-.13.02-.68.03-1.03,0-.53.68-.86.4-1.47-.23.25-.33.55-.41.85-.65-.51.46-1.44-.62-1.8.56-.82-.36-1.39-.53-2.08-.1-.41-.56-.75-.17-1.22.03-.04,0-.12,0-.2-.47.27-.54.27-.59-.05-.03-.23-.2-.16-.29-.25-.82-.89-1.86-1.56-2.82-2.31-.52-.4-.93-.94-1.48-1.35-.64-.48-1.05-1.17-1.64-1.72-.56-.51-.91-1.21-1.66-1.61-.85-.45-1.39-1.33-2.45-1.5-.1-.02-.18-.03-.25-.14-.23-.39-.22-.34-.63-.23-.43.11-.95.4-1.32.04-.38-.37-.8-.25-1.1-.16-.41.13-.7.07-1.08-.05-.32-.1-.52-.38-.88-.44-.44-.07-.79-.3-.41-.89-.66.27-1.1.62-1.77.52-.64-.1-1.26-.44-1.96-.23-.32.1-.26-.17-.23-.37.06-.42-.3-.48-.54-.36-.54.26-.5.23-1,.12-.37-.08-.72-.56-1.17-.13-.07.06-.11-.03-.13-.15-.07-.43-.4-.26-.44-.06-.06.25-.26.28-.37.24-.66-.24-1.26-.07-1.91,0-.56.06-1.17-.04-1.75.11-.17.05-.36.12-.26-.2.07-.24-.24-.2-.28-.14-.5.81-1.8.14-2.29,1.01.06-.31.11-.62.17-.98-.37.16-.18.42-.26.61-.29.68-.54.82-.8.43-.66.69-1.39,1.26-2.49,1.25-.15,0-.35-.13-.44,0-.56.82-1.76.64-2.41,1.3-.03.03-.17.04-.2,0-.48-.51-.42-.2-.35.18.03.15-.18.12-.27.2-.4.36-1,.21-1.48.66-.55.52-1.42.77-1.85,1.48-.02.04-.07.08-.12.09-.83.08-1.18.79-1.82,1.13-.2.1-.52.15-.58.3-.21.52-.51.21-.85,0,.07.84.35,1.69-1.13,1.73.36.21.65-.02.76.26-.41.04-.48.3-.51.63-.05.68-.69,1.06-1.02,1.6-.23.38-.36-.18-.59-.04.04.13.04.26.1.36.37.58.33,1.15.03,1.74-.22.42-.46.86-.2,1.35-.07.03-.12.06-.17.06-.64.04-.61.03-.34.54.12.23.22.57-.12.77-.25.14-.32.35-.32.6,0,.16-.29.55-.52.85-.1.12,0,.21.09.35.48.67,1.08,1.09,1.96,1.25.33.06.88.08.93.65.01.15.4.31.6.23.67-.28,1.27-.16,1.83.21.21.13.46.16.61.09.43-.2.74-.02,1.08.19.54.33,1.06.7,1.73.88-.29,0-.49.08-.64.25.17.23.4.12.59.13.52.03,1.01.4,1.13.67.31.75.24,1.6.59,2.37.08.18-.14.19-.26.26-.26.17-.83.37-.01.61.1.03.22.37.16.43-.52.57.18,1.39-.46,1.93-.03.02.11.29.15.29.47-.04.19.35.34.48-.49.42-.07.93-.07,1.38,0,.51-.08.95-.23,1.43-.12.4-.83.55-.48,1.09.28-.12.41-.37.62-.68-.04.62-.04.63-.49,1.26-.09.12-.03.28.03.32.61.39-.05.78.04,1.16.06.25-.45-.02-.3.28.24.45.65.9-.09,1.27.4.85-1.05,1.03-.78,1.85.03.1-.16.04-.26.04-.2,0-.39-.13-.58-.05-.19.42.63.04.42.52-.42.98-1.51,1.67-2.81,1.68.31-.2.6-.38.88-.57-.23.05-.47-.12-.69.11-.52.56-1.27.7-1.91.31-.67-.41-1.42-.56-2.1-.89-.41-.2-.56-.68-.85-.85-.59-.35-1.19-.68-1.58-1.2-.36-.48-1.02-.35-1.35-.7-.39-.41-.79-.69-1.38-.69-.13,0-.25-.06-.27-.21.06-.23.34.07.42-.15-.34-.22-.7-.56-1.11-.42-.75.26-1.72.48-2.1,1.01-.43.6-1.29.33-1.55.95-.38-.3-.46.05-.66.22-.09.08-.24.27-.41,0-.17-.27-.31-.31-.43-.09-.49.88-1.76.39-2.31,1.14-.02.03-.1.02-.15.01-.2-.05-.31,0-.45.07-.14.08-.25.48-.48.06-.12-.21-.15,0-.24.04-.76.29-1.36.86-2.19,1.04-.1.02-.26.08-.26.13-.03.77-.8.95-1.26,1.4.06-.25.16-.48-.18-.84.05.47-.33.68-.16,1.09.1.24-.04.6-.45.19-.08-.09-.2-.04-.26.04-.03.04,0,.15.03.17.41.26.08.37-.09.55-.34.37-.97.38-1.14,1.03-.09.34-.66.64-.78,1.12-.02.07-.63.24-.76.24-.07,0-.17,0-.19.04-.03.05,0,.14,0,.2.06.22.41.03.46.26-.3.32-.49.72-.99.8-.12.02-.3.15-.12.22.6.24.07.4-.03.55-.18.26-.64.6-.57.7.45.74-1.13,1.22-.23,1.97-.06.05-.16.09-.16.14,0,.37-.58.67-.35.97.49.63-.18,1.27.18,1.86-.6.3-.14.48.18.68-.26.17-.46.3-.67.44.77-.13.85-.07,1.43,2.27-.23-.18-.43-.34-.68-.53.06.32.1.49.41.61.6.24.96.69.89,1.34,0,.07-.16.11-.05.23.58.63,1.21,1.23,1.27,2.12,1.19.69.73,2.13,1.66,2.98.24.22.31.63.74.75.12.03.28.1.24.24-.05.2-.28-.07-.39.1.44.66,1.83.38,1.79,1.51.07-.03.13-.08.21-.1.65-.11.88.61,1.46.65-.43.83.5.2.63.48.07.16.36.41.43.38.78-.29,1.07.31,1.48.66.1.09.12.28.3.29.78.05,1.2.61,1.79,1.04-.24.01-.42,0-.59.03-.26.04-.16.18-.07.3.05.06.11.23.12.18.05-.55.68.19.74-.28.15.1.72-.28.44.34-.09.21.12.36.25.14.21-.33.42-.15.54-.03.32.31.97.3,1.01.89,0,.06.21.15.24.04.12-.34.22-.22.37-.02.29.38.76.54,1.16.78.23.14.45.51.38.76-.05.19,0,.22.23.21.37,0,.11-.4.36-.43.4.28.73.59.84,1.05.02.08.07.25.12.19.55-.62.78.13.86.28.35.68,1.48.42,1.66,1.23,0,0,.18,0,.21-.03.29-.46.74-.19,1.01-.07.5.22.88-.29,1.14-.16.61.29,1.32-.54,1.83.22,0,.01.11,0,.14-.04.24-.25.54-.17.84-.21,1.48-.21,2.68.82,4.1.7.31-.03.48.3.94.19.41-.1,1.04-.32,1.46-.04.51.35.95.21,1.44.12.17-.03.33-.11.53-.02.81.36,1.67.61,2.57.56.93-.05,1.77.46,2.73.31.23-.04.94.02.97.22.11.74.46.24.75.22.51-.03,1.01-.42,1.54.05.19.17.55.06.82-.08.42-.23,1.86-.09,2.25.19.1.07.25.12.21.27-.16.56.17.21.29.13.31-.22.57-.6.9-.66.8-.15,1.67.03,2.41-.46.2-.13.26.08.26.28,0,.18.1.39.37.35.1-.01.34.01.29-.14-.17-.55.4-.41.52-.37.5.15,1.21.15,1.45.39.37.37.41-.36.53-.03.04.11-.08.28.15.31.19.02.26-.11.32-.25.06-.13.22-.17.33-.13.62.22,1.3-.07,1.9.24.09-.2-.23-.18-.21-.4.66.15,1.33.16,1.97-.06.08-.03.2-.03.22.12.07.58.45.18.56.1.76-.61,1.88-.11,2.64-.69.01,0,.05.02.07,0,.47-.15.97,0,1.45-.02.49-.02.79-.33,1.24-.35.73-.04,1.41.18,2.14.33-.11-.43-.55-.11-.73-.41.81-.5,1.88-.25,2.68-.72.17.13.05.47.47.45-.21-.57.18-.66.63-.64.35.01.72-.29,1.05.08.06.06.27.08.24,0-.2-.64.31-.27.51-.3.59-.1,1.23-.21,1.75-.39.58-.2,1.04-.37,1.64-.15.09.03.36.25.28-.05-.1-.39.2-.26.34-.28.58-.08,1.15-.13,1.68-.41.3-.16.72-.46,1.12-.03.09.1.31-.01.32-.09.03-.54.54-.3.81-.45.29-.16.6.14.66.06.3-.35.58-.6,1.12-.62.29-.01.76-.49.82-.44.85.75.32-.45.68-.39.13.02.15.1.22.14.16.09.32.16.48.24-.83-.32-.21-.49.02-.78.43-.52,1.04-.79,1.58-1.15.15.24-.08.4-.14.65ZM102.58,53.26c-.09-.14-.12-.2-.17-.26-.39-.42-.39-.42-.09-.84.03-.04.02-.15-.02-.18-.59-.44-.24-1.1-.3-1.58-.1-.83.06-1.68-.22-2.53-.02-.07-.23-.59.35-.45.14.03.25-.31.17-.33-.89-.22-.63-.93-.79-1.45-.07-.23-.12-.26-.39-.34-.82-.25-1.65-.23-2.48-.26-.22,0-.42.09-.63-.21-.19-.27-.44.11-.67.23-.52.27-1.21.15-1.74.26-.75.16-1.56.36-2.3.72-.04-.15-.08-.31-.13-.46-.23.75-.14,1.59-.7,2.26-.19.22-.27.47-.1.81.15.3-.16.21-.36.2-.17-.01-.4-.02-.39.23,0,.12-.02.39.07.36.71-.24.35.3.33.43-.06.52-.86.91-.3,1.56.03.03-.1.05-.15.08-.35.15-.37.33-.05.39.32.05.29.26.24.33-.28.42-.06.86.01,1.26.11.58.02,1.16.13,1.74.09.48.54.96.02,1.47-.15.15.09.34.24.36.15.02.29.04.24.17-.35.92.48,1.64.53,2.5.01.25.45.51-.07.73-.08.03-.1.28.17.28.25,0,.29.1.38.32.19.51,1.49,1.09,1.81.82.32-.27.7-.23,1.01-.22.48.02.85-.08,1.24-.31.29-.18.63-.44.98-.31.44.16.69-.02.97-.23.22-.17.46-.39.74-.34.49.08.91-.15,1.36-.21.42-.06.78-.42.87-.84.16-.77-.39-1.55-.07-2.33.17-.42-.4-.73-.25-1.2.14.12.24.21.33.3.04-.17.17-.29.09-.52-.16-.45-.61-.92-.23-1.39.25-.31,0-.48-.03-.71-.02-.12-.32-.19-.11-.34.07-.05.26.04.49.08ZM59.58,53.77c-.25,0-.33.24-.54.12-.05-.03-.1-.15-.07-.18.63-.76.05-1.68.36-2.52.13-.35.12-.88.07-1.36-.07-.63-.37-1.26-.19-1.91.21-.79-.12-1.52-.33-2.27-.1-.33-.39-.68-.65-.64-.69.13-1.23-.2-1.83-.35-.44-.11-1.05,0-1.05-.71,0-.12-.39-.31-.43-.03-.08.53-.45.29-.67.24-.35-.08-.7-.16-1.05-.26-.76-.21-1.65-.24-2.06-1.04-.04-.09-.08-.1-.15-.06-.43.25-.77.61-.71,1.08.09.67.07.96-.52,1.3-.17.1-.15.2-.09.26.27.24.06.47.07.7.01.36-.46.59-.3.78.49.59-.1,1.09-.02,1.63.02.14.06.4.04.4-.99.18.01.57-.1.84-.24.08-.48.16-.81.27.65.12.66.12.68.25.18,1.35-.32,2.57-.74,3.81-.09.25-.43.13-.47.41-.05.41-.18.82-.3,1.22-.08.25-.1.43.23.56.48.2.74.68,1.42.68.52,0,.79.68,1.26.91.9.43,1.54,1.12,2.26,1.72.22.18.57.48.29.94.35-.32.6-.23.92.01.7.52,1.57.42,2.4.5.5.05.15-.48.46-.51.86-.1.9-.76,1.17-1.33.49-1.03.84-2.03.57-3.17-.05-.2-.17-.43.05-.67.42-.46.22-1.21.83-1.63Z"></path>
      <path class="cls-1" d="M69.33,46.3c-.02.76-.46,1.45-.29,2.24.06.28-.07.83-.25.88-.58.18-.27.44-.23.73.06.38.41.78.16,1.12-.21.29-.34.59-.21.84.43.8-.16,1.43-.28,2.14-.05.3-.13.6-.68.29.65.71.82,1.41.61,2.23-.03.11-.31.47.01.7.38.28.41.48-.15.54-.12.01-.32.1-.24.29.04.08.05.23.24.22.56-.03.5.36.44.65-.05.23-.11.43-.06.68.06.3.44.65-.06.95-.14.08.13.23.18.23.54.02.63.44.51.71-.2.46.15.71.36.94.12.14.29.32.28.43-.03.71.66,1.01.97,1.52.03.05.1.07.15.11.33-.57.7.12,1.05-.01.29-.11.23.42.38.27.52-.53,1.08-.03,1.6-.04.17,0,.9-.36.88.37,0,.01.18.07.2.05.62-.6.7.03.92.49,0-.94.49-1.02,2.71-.6-.07.32-.48.22-.81.46.34,0,.58.07.67,0,.39-.35.82-.49,1.37-.43.18.02.35-.1.39-.28.12-.69.75-1.23.59-2-.03-.15.05-.33.14-.47.49-.84.97-1.65,1.02-2.68.01-.24-.14-.41-.11-.64.11-.77.32.19.44-.02.04-.06.05-.13.07-.2.05-.19,0-.37-.07-.55-.29-.82-.02-1.67-.12-2.51-.02-.2-.13-.64-.04-.64.83-.02.08-.49.23-.64.41-.41-.13-.88.05-1.22.41-.79.19-1.62.31-2.42.09-.6-.17-.97-.49-1.4-.19-.25-.66-.32-.59-.75.01-.09-.17-.17-.22-.07-.12.22-.18.19-.36.02-.79-.76-2.16-1.27-3.28-1.25-.03,0-.06-.09-.11-.1-1.1-.31-2.04.06-2.89-.86-.03-.04-.45-.52-.48-.49-.48.58-2.75.15-3.09-.25-.58-.68-2.14-.67-1.83.42Z"></path>
      <g>
        <path class="cls-3" d="M82.29,60.32c-.17-.41-.07-.67.11-1.04.12-.23.05-.63-.16-.92,0-.09-.02-.96-.12-1.28-.15.25-.78.59-1,.59-.34,0-.34-.29-.26-.45.48-.94.58-2,1.03-2.95.27-.56.19-1.18.24-1.77.06-.71.05-1.41-.14-2.1-.24-.87-1.19-1.66-1.95-1.63-.87.03-1.74.07-2.6.14-1.17.1-2.05.68-2.65,1.68-.68,1.13-.45,2.32-.02,3.43.29.76.8,1.43,1.07,2.21.25.72.9,1.14,1.4,1.66.5.52,1.09.83,1.88.53.24-.09.62.07.79.29.2.27,0,.55-.22.77-.08.08-.16.18-.25.25-.38.27-.56.65-.61,1.1-.11.99-.16,1.98-.13,2.97.02.69.09,1.41.49,2.03.09.13.19.27.39.25.2-.02.21-.2.3-.34.56-.88,2.39-4.72,2.41-5.43ZM79.04,57.98c-.64.24-1.21.06-1.67-.5-.19-.24-.41-.45-.65-.64-.53-.41-.67-1.06-.89-1.62-.22-.56-.62-1.02-.79-1.61-.28-.98-.44-1.95.12-2.87.62-1.02,1.58-1.48,2.77-1.45.65.03,1.29-.1,1.94-.1.5,0,1.36.36,1.57.82.38.82.33,1.69.31,2.57-.03,1.31-.65,2.46-.95,3.7-.23.94-.94,1.38-1.76,1.69ZM80.58,61.19c-.1-.16-.04-.47-.34-.44-.3.03-.29.32-.3.51-.02.48-.31.86-.4,1.31-.06.28-.03.58-.17.84-.06.11.05.2.13.25.12.06.25.08.37-.04.12-.12.17-.27.22-.42.24-.74.69-1.33,1.26-1.85.19.2,0,.48.17.67.02.02-.03.14-.06.14-.56.14-.64.64-.8,1.07-.24.65-.73,1.18-.92,1.85-.03.11-.13.19-.09.33.03.1-.1.08-.15.1-.08.04-.06-.05-.08-.1-.14-.36-.21-.73-.26-1.11-.13-1.01,0-2.02.03-3.03.01-.58.22-1.01.64-1.38.23-.2.41-.45.51-.75.18-.52.07-.73-.47-.88-.05-.01-.09-.06-.15-.1.19-.13.41-.18.52-.39.06-.12.19-.12.25-.03.14.19.34.22.54.3.23.1.34.13.52-.07.19-.22.3-.03.29.14-.02.4-.04.8-.12,1.21-.08.4-.23.82-.05,1.26.04.09.1.44-.3.41-.3-.02-.53.21-.69.47-.07.2-.25.3-.42.45-.08-.33.11-.45.35-.53-.01-.06,0-.12-.03-.17Z"></path>
        <path class="cls-6" d="M77.93,49.3c.65.03,1.29-.1,1.94-.1.5,0,1.36.36,1.57.82.38.82.33,1.69.31,2.57-.03,1.31-.65,2.46-.95,3.7-.23.94-.94,1.38-1.76,1.69-.64.24-1.21.06-1.67-.5-.19-.24-.41-.45-.65-.64-.53-.41-.67-1.06-.89-1.62-.22-.56-.62-1.02-.79-1.61-.28-.98-.44-1.95.12-2.87.62-1.02,1.58-1.48,2.77-1.45ZM77.29,51.45c-.64-.06-1.3.22-1.38.59-.1.49-.21.98-.18,1.49.05.84.27,1.61,1.1,2.02.5.25.91.03.98-.52.04-.35.08-.69.11-1.04.06-.69.14-1.38-.41-1.95-.03-.03-.1-.1-.03-.18.42-.46-.08-.33-.2-.41ZM78.85,52.81c-.09.7-.08,1.35.16,1.98.17.44.56.55.91.25.41-.36.73-.78,1.04-1.24.38-.57.33-1.38-.14-1.86-.31-.32-.67-.47-1.06-.63-.42-.17-.91.06-.86.48.05.38-.15.71-.06,1.03Z"></path>
        <path class="cls-3" d="M77.29,51.45c.12.07.62-.05.2.41-.08.08,0,.15.03.18.55.57.47,1.26.41,1.95-.03.35-.06.7-.11,1.04-.07.55-.47.77-.98.52-.83-.42-1.05-1.18-1.1-2.02-.03-.51.08-1,.18-1.49.08-.38.73-.66,1.38-.59ZM76.17,52.76c-.07.81-.06,1.56.49,2.2.16.18.37.27.57.25.19-.02.15-.28.22-.43.11-.26-.05-.5.03-.77.22-.67.08-1.31-.31-1.88-.14-.2-.36-.33-.64-.17-.32.2-.35.51-.36.8Z"></path>
        <path class="cls-3" d="M78.85,52.81c-.09-.32.11-.65.06-1.03-.05-.42.44-.65.86-.48.39.16.75.31,1.06.63.46.48.52,1.28.14,1.86-.3.46-.63.88-1.04,1.24-.35.31-.74.19-.91-.25-.24-.63-.26-1.28-.16-1.98ZM79.22,52.69c.06.26-.11.54-.04.84.06.28.06.56.11.84.03.19.09.51.35.34.48-.31.95-.76,1.12-1.26.24-.72-.09-1.46-.98-1.74-.26-.08-.51-.05-.49.34,0,.2-.04.41-.06.64Z"></path>
        <path class="cls-5" d="M76.17,52.76c0-.29.04-.6.36-.8.28-.17.5-.03.64.17.4.57.53,1.22.31,1.88-.09.27.08.51-.03.77-.07.15-.03.41-.22.43-.2.02-.41-.06-.57-.25-.56-.63-.57-1.39-.49-2.2Z"></path>
        <path class="cls-5" d="M79.22,52.69c.02-.24.07-.44.06-.64-.02-.39.22-.42.49-.34.89.28,1.21,1.01.98,1.74-.16.51-.64.95-1.12,1.26-.25.17-.31-.16-.35-.34-.05-.28-.05-.57-.11-.84-.06-.3.1-.58.04-.84Z"></path>
        <path class="cls-6" d="M80.58,61.19c-.1-.16-.04-.47-.34-.44-.3.03-.29.32-.3.51-.02.48-.31.86-.4,1.31-.06.28-.03.58-.17.84-.06.11.05.2.13.25.12.06.25.08.37-.04.12-.12.17-.27.22-.42.24-.74.69-1.33,1.26-1.85.19.2,0,.48.17.67.02.02-.03.14-.06.14-.56.14-.64.64-.8,1.07-.24.65-.73,1.18-.92,1.85-.03.11-.13.19-.09.33.03.1-.1.08-.15.1-.08.04-.06-.05-.08-.1-.14-.36-.21-.73-.26-1.11-.13-1.01,0-2.02.03-3.03.01-.58.22-1.01.64-1.38.23-.2.41-.45.51-.75.18-.52.07-.73-.47-.88-.05-.01-.09-.06-.15-.1.19-.13.41-.18.52-.39.06-.12.19-.12.25-.03.14.19.34.22.54.3.23.1.34.13.52-.07.19-.22.3-.03.29.14-.02.4-.04.8-.12,1.21-.08.4-.23.82-.05,1.26.04.09.1.44-.3.41-.3-.02-.53.21-.69.47-.07.2-.25.3-.42.45-.08-.33.11-.45.35-.53-.01-.06,0-.12-.03-.17Z"></path>
      </g>
      <path class="cls-1" d="M59.58,53.77c-.25,0-.33.24-.54.12-.05-.03-.1-.15-.07-.18.63-.76.05-1.68.36-2.52.13-.35.12-.88.07-1.36-.07-.63-.37-1.26-.19-1.91.21-.79-.12-1.52-.33-2.27-.1-.33-.39-.68-.65-.64-.69.13-1.23-.2-1.83-.35-.44-.11-1.05,0-1.05-.71,0-.12-.39-.31-.43-.03-.08.53-.45.29-.67.24-.35-.08-.7-.16-1.05-.26-.76-.21-1.65-.24-2.06-1.04-.04-.09-.08-.1-.15-.06-.43.25-.77.61-.71,1.08.09.67.07.96-.52,1.3-.17.1-.15.2-.09.26.27.24.06.47.07.7.01.36-.46.59-.3.78.49.59-.1,1.09-.02,1.63.02.14.06.4.04.4-.99.18.01.57-.1.84-.24.08-.48.16-.81.27.65.12.66.12.68.25.18,1.35-.32,2.57-.74,3.81-.09.25-.43.13-.47.41-.05.41-.18.82-.3,1.22-.08.25-.1.43.23.56.48.2.74.68,1.42.68.52,0,.79.68,1.26.91.9.43,1.54,1.12,2.26,1.72.22.18.57.48.29.94.35-.32.6-.23.92.01.7.52,1.57.42,2.4.5.5.05.15-.48.46-.51.86-.1.9-.76,1.17-1.33.49-1.03.84-2.03.57-3.17-.05-.2-.17-.43.05-.67.42-.46.22-1.21.83-1.63Z"></path>
    </g>
  </g>
</svg>