<?xml version="1.0" encoding="UTF-8"?>
<svg id="_图层_2" data-name="图层 2" xmlns="http://www.w3.org/2000/svg" viewBox="0 0 230 41.84">
  <defs>
    <style>
      .cls-1 {
        fill: #ebbf3f;
        stroke-width: 0px;
      }
    </style>
  </defs>
  <g id="_図" data-name="図">
    <path class="cls-1" d="M10.33,41.84c-.01-.22-.19-.31-.34-.29-1.1.17-2.19-.14-3.29-.13-1.11,0-2.27-.13-3.28-.73-.18-.11-.36-.14-.56-.18-.45-.09-.93-.36-1.08-.68-.3-.66-.96-.91-1.34-1.49-.41-.63-.57-1.15-.33-1.85.06-.17.05-.37.16-.53.17-.23.03-.74.42-.7.32.03.62.33.91.55.16.12.05.31,0,.46-.08.28-.19.55-.19.87.02.94.82,1.24,1.36,1.75.09.09.25.1.36.17,1.13.76,1.13.83,2.33.92.44.03.74.43,1.31.23.4-.14,1.01.18,1.54.12.49-.05,1-.15,1.48-.1,1.02.09,2.03-.01,3.03-.13.97-.12,2,.04,2.91-.47.54-.31,1.17-.2,1.75-.33,1.3-.29,2.5-.88,3.76-1.26,1.07-.33,2.1-.77,3.11-1.24,1.36-.64,2.79-1.12,4.07-1.92.22-.14.35-.26.44-.49.25-.65.64-1.22.98-1.82.58-1.01,1.58-1.56,2.27-2.43.1-.13.31-.19.38-.32.56-1.03,1.55-1.67,2.34-2.49.85-.89,1.86-1.75,3.25-1.79.7-.02,1.16.28,1.33.97.14.59.12,1.14-.21,1.72-.71,1.23-1.65,2.28-2.59,3.32-1.32,1.47-3.17,2.15-4.81,3.15-.25.15-.59.19-.66.65.42.1.89.13,1.31.16,1.35.09,2.7.07,4.05.08.13,0,.26-.07.38-.13.82-.4,1.74-.45,2.61-.58.77-.12,1.45-.45,2.19-.63,1.34-.35,2.6-1.03,3.95-1.32.98-.22,1.81-.67,2.69-1.07.06-.03.13-.04.19-.06.52-.17,1.17.12,1.57-.27.41-.41.92-.5,1.37-.77.2-.12.35-.33.59-.08.03.03.17.03.18.01.3-.86,1.28-.53,1.82-1.05.53-.51,1.26-.82,1.94-1.14.93-.44,1.75-1.04,2.64-1.53.39-.22.51-.4.34-.76-.22-.47-.2-.88.09-1.32.16-.24.21-.56.26-.86.23-1.37,1.26-2.1,2.29-2.75.34-.21.6-.47.9-.71.8-.63,1.72-1.07,2.65-1.37.58-.19,1.28-.28,1.93-.3.94-.03,1.39.59,1.62,1.5.34,1.38-.56,2.03-1.43,2.56-1.54.93-2.95,2.06-4.52,2.94-.55.31-.97.85-1.61,1.07-.24.08-.26.31-.12.58.37.74,1.03,1.08,1.7,1.44,1.34.73,2.8.87,4.27.99.21.02.47.18.57.12.33-.19.44.61.84.12.24-.3.61.25,1.02.03.28-.15.69.26,1.06.03.13-.08.24-.03.38,0,1.24.34,2.45-.18,3.7-.13,1.42.05,2.79-.41,4.19-.64,1.22-.2,2.45-.46,3.65-.83.88-.27,1.8-.38,2.67-.67.78-.26,1.57-.51,2.37-.67,1.22-.25,2.3-.91,3.54-1.1.36-.06.69-.29,1.06-.38,1.4-.35,2.76-.84,4.13-1.29.81-.26,1.59-.72,2.42-1.04,1.1-.43,2.17-.96,3.25-1.44.21-.09.47-.14.4-.47-.1-.47.24-.8.47-1.06.56-.64,1.04-1.33,1.7-1.9.64-.56,1.32-1.17,1.77-1.89.58-.92,1.51-1.48,2.13-2.35.39-.54,1.17-.63,1.85-.56.51.06.9.6.94,1.15.05.69-.12,1.36-.43,1.93-.45.83-.91,1.69-1.72,2.26-.2.14-.38.25-.49.48-.19.38-.62.5-.91.78-.28.28-.81.04-1.03.62-.11.29-.68.42-1,.72-.2.2-.53.26-.81.39.03.19.07.4.31.42,1.03.1,1.98.59,3.01.68,1.11.1,2.18.57,3.34.29.55-.13,1.12.11,1.68.15,1.37.09,2.71-.12,4.05-.19,1.9-.09,3.82-.24,5.67-.78.74.23,1.41-.43,2.13-.17.35.13.44-.2.69-.26,1.17-.29,2.38-.4,3.53-.8.81-.28,1.66-.43,2.51-.56,1.1-.17,2.15-.45,3.17-.9.06-.03.13-.04.2-.04.48,0,1.03.14,1.41-.06.41-.21.8-.45,1.25-.59.33-.1.64-.4,1.01-.11.2-.36.53-.35.89-.43.58-.13,1.13-.42,1.67-.69.42-.21.49-.7.19-1.15-.13-.2-.26-.4-.23-.65.25-2.09.99-3.89,3.01-4.89.68-.34,1.35-.74,2.02-1.05.79-.36,1.66-.63,2.51-.87,1.28-.36,2.6-.53,3.84-1.03.39-.16.79-.08,1.19-.14,1.35-.21,2.69-.53,4.08-.36.55.07,1.08.13,1.33.71.23.53.02.92-.33,1.36-.52.66-.91,1.41-1.92,1.34-.07.59-.68.6-1,.91-.29.28-.67.44-1.07.52-.77.16-1.31.76-2.02,1.06-1.13.48-2.22,1.06-3.35,1.55-.61.27-1.18.66-1.76,1.01-1.06.63-2.27,1-3.18,1.92.21.33.41.59,1.03.52.52-.06,1.15.36,1.69.42.69.08,1.36.39,2.06.32,1.06-.1,2.1.05,3.15.06.73.01,1.47.01,2.21.05,1.64.08,3.26-.14,4.87-.27,1.53-.13,3.07-.47,4.61-.62,1.65-.16,3.27-.52,4.89-.8,1.71-.3,3.38-.88,5.06-1.35,1.09-.31,2.16-.74,3.27-.95.95-.18,1.85-.44,2.69-.9.06-.03.13-.04.19-.05.55-.07,1.21.12,1.63-.24.46-.4,1.02-.57,1.52-.65.56-.09.98-.47,1.56-.53.58-.06,1.15-.39,1.68-.68,1.13-.62,2.41-.83,3.57-1.32,1.13-.48,2.41-.63,3.38-1.55-.13-.26-.44-.48-.62-.76-.61-.96-1.49-1.8-1.66-2.97-.18-1.31.34-2.42,1.36-3.29,1.35-1.15,2.99-1.59,4.68-1.85.78-.12,1.52-.38,2.31-.49,1.12-.15,2.27-.28,3.38-.38,1.18-.1,2.45-.09,3.64.24.47.13.81.66.84,1.23.1,1.61-.78,2.69-1.98,3.56-.54.39-1.16.66-1.63,1.15-.16.16-.46.22-.57.4-.21.35-.79-.29-.91.41-.05.27-.62.45-.96.67-.14.09-.27.22-.42.26-1.54.44-2.72,1.67-4.34,1.98,1.87.69,3.73,1.22,5.69,1.44,1.01.11,2.03.21,3.01.43.76.17,1.47-.05,2.2.1.77.16,1.59,0,2.36.08,1.03.1,2.08.02,3.11.22.7.14,1.46-.01,2.19,0,1.3.03,2.59-.2,3.87-.21,1.33-.01,2.62-.29,3.95-.31.75-.01,1.52-.12,2.28-.18.31-.02.65-.11.88.05.3.21.49.06.74-.02.7-.21,1.43-.22,2.13-.14.89.1.89.17.85,1.24-.78.06-1.57.26-2.36,0l-1.44.23c-.13.03-.27.09-.39.07-1.54-.27-3.05.43-4.6.15-.42-.08-.82.24-1.27.23-1.08,0-2.15.16-3.25.11-.88-.04-1.8-.03-2.67.1-.78.11-1.54,0-2.27-.07-1.83-.18-3.67-.21-5.5-.32-1.69-.1-3.35-.52-5.05-.42-.47.03-.8-.31-1.24-.36-1.13-.13-2.2-.47-3.25-.9-.19-.08-.41-.11-.55-.23-.56-.52-1.17-.39-1.77-.17-1.01.38-2.03.76-3.01,1.2-1.67.74-3.42,1.23-5.15,1.8-.98.32-1.88.84-2.87,1.14-.99.3-1.96.66-2.93.99-.1.03-.21.05-.28.11-.32.25-.76-.27-1.1.24-.18.27-.71.31-1.08.45-.12.05-.24.14-.37.16-1.73.24-3.33,1-5.01,1.34-1.78.36-3.53.89-5.32,1.21-1.92.34-3.85.6-5.78.79-1.4.14-2.8.43-4.2.45-1.06.01-2.12.06-3.17.1-1.77.07-3.5-.17-5.25-.41-.86-.12-1.72-.14-2.57-.33-1.08-.24-2.07-.7-3.07-1.13-.4-.17-.8-.27-1.16-.11-.88.41-1.86.51-2.7,1.05-.52.33-1.2.43-1.79.58-.91.22-1.81.46-2.67.8-.42.16-.87-.31-1.29.25-.21.28-.85.37-1.29.44-.79.12-1.56.36-2.33.51-1.47.3-2.96.54-4.41.86-1.64.36-3.34.45-4.92,1.04-.41.15-.79-.04-1.19.03-2.04.39-4.12.18-6.18.32-.82.05-1.67.07-2.53-.16-.61-.17-1.3-.05-1.97-.12-1.9-.2-3.71-.71-5.47-1.38-.35-.13-.63-.08-.96.03-.89.3-1.71.76-2.58,1.1-1.59.63-3.2,1.22-4.8,1.85-1.95.77-4.03,1.17-5.99,1.92-.06.02-.12.06-.19.07-.81.15-1.58.44-2.36.68-.81.25-1.63.57-2.48.71-.17.03-.36.01-.49.09-1.01.64-2.22.51-3.31.9-.89.32-1.91.36-2.87.38-.49.01-.89.21-1.35.29-.85.14-1.74.28-2.54.21-.97-.08-1.9.08-2.85.07-2.2-.01-4.35-.35-6.5-.77-1.03-.2-1.92-.75-2.83-1.19-.5-.24-.96-.81-1.31-1.32-.26-.38-.49-.34-.72-.09-.81.86-1.99,1.08-2.96,1.7-.78.5-1.78.71-2.63,1.16-1.18.63-2.36,1.21-3.66,1.57-.51.14-.97.44-1.46.64-.27.11-.56.1-.86,0-.05-.02-.19.39-.5.5-.69.25-1.34.56-2.08.69-.79.14-1.45.66-2.25.81-1.56.28-3.01,1.01-4.57,1.18-.95.1-1.89.25-2.85.33-1.56.12-3.09-.03-4.62-.24-.26-.04-.55-.07-.78-.19-.79-.4-1.47-.12-2.13.28-.95.57-1.96,1.06-2.96,1.45-1.41.55-2.81,1.19-4.3,1.57-1.4.35-2.74.99-4.15,1.19-1.13.16-2.24.54-3.4.51-.42-.01-.79.09-1.06.44h-.2c-.58-.46-.63-.46-1.21,0h-.2ZM104.72,20.64c.58-.31,1.13-.65,1.67-1.02.32-.22.46-.59.79-.74.41-.19.78-.48,1.25-.54.01-.55.38-.91.7-1.29.17-.2.16-.59.56-.54-.33-.47.24-.8.25-1.25-.46-.02-.76.21-.97.48-.28.37-.65.66-.95,1.02-.8.94-1.65,1.85-2.61,2.66-.32.28-.81.62-.7,1.22-.08-.1-.15-.2-.24-.29-.07-.06-.18-.1-.25,0-.03.03.01.12.03.18.03.09,0,.29.2.15.08-.05.16-.1.26-.04ZM192.62,5.73c.12.62.3,1.24.74,1.69.37.39.72.78,1.04,1.22.27.37.69.8,1.11.54.52-.31,1.07-.57,1.6-.79.89-.36,1.66-.94,2.53-1.32.62-.28,1.31-.46,1.86-.82.87-.56,1.59-1.35,2.66-1.58.12-.03.31-.1.34-.18.19-.67.88-.87,1.27-1.36.25-.31.3-.67.53-.96.22-.28-.03-.64-.37-.64-.64,0-1.33-.27-1.88-.16-1.74.38-3.56.01-5.26.63-.13.05-.26.02-.35-.11-.07-.11-.14-.26-.27-.04-.25.43-.71.41-1.09.44-1.02.09-1.92.52-2.78,1-.94.52-1.59,1.31-1.67,2.44ZM157.78,9.27c-.61.15-1.1-.44-1.65.02-.41-.29-.93-.16-1.25,0-1.18.58-2.49.68-3.72,1.05-.44.13-.86.34-1.33.39-1.04.11-2.05.35-2.97.88-.16.09-.3.15-.47.06-.13-.07-.23-.12-.32.07-.24.51-.75.66-1.21.87-.41.19-.77.45-1.09.77-.98.98-1.05,2.23-1.1,3.49-.01.31.54.56.8.34.93-.82,2.21-1.01,3.17-1.77.77.05,1.17-1.04,2.05-.66.02,0,.11-.08.11-.13.08-.54.58-.66.94-.75,1.13-.29,2.04-1.02,3.06-1.5.94-.44,1.77-1.1,2.84-1.27.08-.01.17-.1.22-.17.51-.64,1.33-.91,1.91-1.67ZM60.52,25.93c.34-.64,1.03-.69,1.54-1.06,1.17-.87,2.4-1.68,3.62-2.48.49-.32,1.07-.58,1.44-1.11.21-.3.38-.59.15-.89-.2-.26-.53-.33-.89-.19-.56.22-1.18.32-1.68.62-.56.34-1.19.51-1.7,1-.38.37-.86.7-1.28,1.06-.91.77-1.4,1.74-1.21,3.06ZM31.11,33.58c.11-.05.25-.14.41-.2.49-.17.76-.72,1.31-.78.23-.02.31-.23.48-.33.17-.1.36-.18.53-.28.22-.13.47-.03.67-.1.21-.07-.35-.27,0-.41.18-.08.44-.08.54-.21.75-.99,1.95-1.59,2.41-2.83.08-.21.26-.38.41-.56.13-.16.3-.31.24-.52-.04-.14.09-.35-.15-.42-.13-.04-.24-.05-.38.02-1.05.52-1.9,1.36-2.63,2.19-1.25,1.41-2.64,2.65-4.03,3.9-.17.15-.13.28-.11.42.01.1.14.11.3.1Z"/>
  </g>
</svg>