<svg width="31" height="80" viewBox="0 0 31 80" fill="none" xmlns="http://www.w3.org/2000/svg">
<g clip-path="url(#clip0_85_753)">
<path d="M0.549643 14.0974C-0.329789 12.2492 -0.0366451 10.5096 0.586286 8.60704C0.787823 8.00907 0.714537 6.90375 0.476357 6.07023C0.274821 5.38167 -0.0916096 4.62063 0.476357 4.1495C0.842788 3.84146 1.77718 3.47906 2.18026 4.43942C3.05969 3.89582 4.30555 4.36694 5.00177 3.38846C5.23995 3.0623 5.67967 2.71802 4.83688 2.62742C4.28723 2.57306 4.15898 2.17442 4.21395 1.73954C4.28723 1.2503 4.76359 1.4315 5.07506 1.37714C7.56678 0.942256 10.0768 0.507375 12.5686 0.0724941C12.7334 0.036254 12.9716 -0.0724662 13.0449 -0.0181061C13.7228 0.579855 14.932 -0.163066 15.4084 0.906016C15.445 0.978496 15.6283 1.08722 15.6832 1.05098C18.4681 -0.308027 19.6223 2.10194 21.0881 3.47906C22.5538 4.87431 23.3416 6.75879 23.5981 8.78824C23.6348 9.13252 23.6714 9.16876 24.0195 9.2956C24.8256 9.60364 25.3753 10.6184 25.1921 11.162C24.3493 13.4994 25.9616 15.5108 25.8517 17.6489C25.76 19.3522 26.4379 21.0374 25.8333 22.795C25.6684 23.2662 25.5035 24.0997 25.9616 24.7882C26.2547 25.2412 26.4196 26.111 26.1631 26.4553C25.1371 27.8686 25.76 29.4088 25.5402 30.8585C25.0821 33.7758 25.5952 36.6025 25.9249 39.4292C26.3097 42.7633 27.1158 46.0612 26.6761 49.4315C26.5296 50.5368 27.867 50.9536 27.7388 52.0408C27.7021 52.3488 28.1602 52.8199 28.0502 52.983C26.6944 55.0125 28.1418 57.0419 28.5999 58.6908C29.3144 61.2639 29.2595 64.0362 30.6519 66.4643C31.6229 68.1857 30.0473 69.8347 29.974 71.5742C29.9374 72.5889 29.5709 73.6761 27.9769 74.3828C29.1495 74.4372 29.6259 74.5459 29.1312 75.47C28.0136 77.5719 25.87 78.2786 24.0012 79.239C22.1507 80.1993 19.9704 80 17.9368 79.8188C17.2222 79.7644 16.1229 79.4202 15.7565 78.2786C15.3901 79.0396 15.0053 79.2933 14.1259 79.0034C12.7518 78.5504 11.3593 78.188 9.9669 77.6988C7.40189 76.7928 6.59574 74.9264 6.24763 72.5345C6.17435 72.0091 5.27659 71.701 4.98345 70.9762C4.69031 70.2877 4.70863 69.6535 5.02009 69.1823C5.69799 68.1495 5.29492 67.0623 4.91016 66.3194C3.84752 64.2174 4.1773 61.9706 3.9208 59.8143C3.82919 59.0351 3.88416 58.0929 3.53605 57.4406C2.87648 56.2446 2.69326 55.1393 3.26123 53.9253C3.46276 53.4723 3.53605 53.0917 3.13298 52.6569C3.02305 52.5481 2.34515 51.4247 3.64598 51.8777C3.64598 51.8777 3.81087 51.5878 3.81087 51.4247C3.84752 50.9717 3.59101 51.0261 3.24291 51.0985C2.76655 51.1891 2.41844 51.171 2.65662 50.4825C3.18794 48.8879 2.96808 47.3296 2.32683 45.8075C2.30851 45.7531 2.29019 45.6988 2.30851 45.6444C3.04137 42.6365 2.05201 39.7373 1.74054 36.8018C1.53901 34.7724 1.15425 32.6342 1.22754 30.7316C1.33747 27.5968 0.952717 24.5708 0.696215 21.4904C0.549643 19.7871 0.861109 19.1167 1.79551 18.1019C1.9604 17.9207 2.03369 17.6308 2.16194 17.3953C1.61229 17.1597 1.11761 17.3953 0.567965 17.5583C0.494679 16.3805 0.14657 15.2571 0.513 14.1155C1.09929 14.4598 1.00768 15.5289 2.08865 15.5289C1.90544 14.9491 1.74054 14.4598 1.63061 13.9887C1.55733 13.6806 1.68558 13.1914 1.1909 13.1733C0.659572 13.1733 0.787823 13.7894 0.531322 14.0612L0.549643 14.0974ZM4.67198 19.5878C4.74527 19.3341 4.91016 19.0261 4.48877 18.9536C4.39716 18.9536 4.1773 19.1529 4.15898 19.2797C4.0857 19.8233 4.52541 19.4428 4.70863 19.5515C4.91016 19.9864 5.13002 20.4213 5.34988 20.8924C5.82624 20.5119 6.28428 20.1676 6.72399 19.8415C6.0461 19.2979 5.3682 19.4066 4.67198 19.5878ZM23.4882 53.1823C24.0195 53.436 23.8363 54.5957 25.0821 54.1427C24.3859 53.9071 23.7447 53.7803 23.5065 53.1642C22.5171 52.1857 21.8942 52.7112 21.2896 53.5991C22.2606 54.2695 22.9385 53.9796 23.4882 53.1823ZM21.8026 44.4847C20.6667 44.5934 20.3735 45.3001 20.3186 46.2967C20.3186 46.5685 19.2559 46.2786 19.6407 47.0759C19.8972 47.5833 20.3735 47.2027 20.74 47.2933C21.1247 47.3839 21.5278 47.3477 21.9858 47.3839C22.2423 46.3692 21.6377 45.427 21.766 44.4304C22.5355 44.9196 22.3706 43.3069 23.1584 43.8143C23.3233 43.923 23.0301 44.4485 23.5248 44.1948C23.5981 44.1586 23.5248 43.8686 23.5248 43.7056C23.5248 43.4519 23.4332 43.2526 23.1217 43.3613C22.5538 43.5787 21.8026 43.5787 21.7843 44.4666L21.8026 44.4847ZM7.05378 45.2276C6.92553 45.2458 6.77896 45.2639 6.65071 45.282C6.72399 45.3364 6.79728 45.4088 6.88889 45.4632C7.45685 46.7497 6.92553 48.3443 7.98818 49.5583C8.18971 49.2503 8.55614 48.9423 8.53782 48.6705C8.5195 48.3081 8.28132 48 8.42789 47.5651C9.12411 45.427 9.10579 45.4088 7.0721 45.2276H7.05378ZM15.5 5.00115C15.2435 4.94679 15.0236 5.00115 14.932 5.25483C14.8404 5.50851 14.932 5.78031 15.1702 5.81655C16.2145 6.01587 16.0313 6.99435 16.4527 7.59231C17.0573 8.4802 16.4527 9.658 17.2955 10.4009C17.4787 10.5459 17.2039 10.9445 17.5703 10.872C17.7535 10.8358 17.9001 10.5821 18.0284 10.4009C18.1749 10.2197 18.2849 9.98416 17.9001 9.98416C17.6436 9.98416 17.2589 10.2197 17.2589 9.7486C17.2589 9.2956 17.6986 9.27748 18.0467 9.22312C18.7429 9.13252 19.6407 8.91508 18.7063 8.15403C18.01 7.59231 17.7535 6.92187 17.4238 6.23331C17.0207 5.38167 16.3061 5.12799 15.5 4.98303V5.00115ZM22.0774 42.7452C21.8026 42.0385 21.766 41.6036 22.0408 41.0782C22.3706 40.4621 21.3995 40.4258 21.2346 39.9004C21.1064 39.4836 20.7216 39.7192 20.4285 39.991C20.2453 40.1722 19.7506 40.299 20.0254 40.5527C20.7216 41.1688 20.8499 42.2741 22.0774 42.7452ZM20.1353 78.1518C21.4362 78.5323 21.8576 78.1518 22.0774 77.3726C22.1507 77.1189 22.169 76.8652 21.9309 76.829C21.1064 76.6659 21.6743 77.735 21.0697 77.8256C20.8682 77.8618 20.685 77.9524 20.1353 78.1699V78.1518ZM25.6868 52.6387C25.6868 52.9649 25.6318 53.1823 25.6868 53.3817C25.6868 53.436 25.9249 53.436 26.0532 53.4723C26.0532 53.3273 26.1082 53.1642 26.0532 53.0193C26.0165 52.8924 25.8517 52.8018 25.6684 52.6206L25.6868 52.6387ZM22.682 42.4009C22.5538 42.5821 22.4439 42.7452 22.3156 42.9264C22.4072 42.9626 22.5721 43.0351 22.5904 43.017C22.737 42.872 22.8469 42.6908 22.9569 42.5278C22.8652 42.4915 22.792 42.4553 22.6637 42.4009H22.682ZM25.7234 54.4145C25.7234 54.4145 25.6318 54.2333 25.5952 54.1427C25.5768 54.1971 25.5219 54.2514 25.5219 54.2877C25.5402 54.3783 25.5952 54.4689 25.6318 54.5595C25.6501 54.5051 25.6868 54.4689 25.7051 54.4145H25.7234Z" fill="#25201D"/>
<path d="M0.549633 14.0974C0.806134 13.8256 0.696205 13.2095 1.20921 13.2095C1.70389 13.2095 1.55732 13.6988 1.64892 14.0249C1.77717 14.5142 1.94207 14.9853 2.10696 15.5651C1.02599 15.5651 1.1176 14.4961 0.531311 14.1518V14.0974H0.549633Z" fill="#D0D7C9"/>
<path d="M15.5 5.00114C16.3245 5.1461 17.0207 5.39978 17.4238 6.25142C17.7352 6.92186 18.0101 7.61043 18.7063 8.17215C19.6407 8.91507 18.7429 9.15063 18.0467 9.24123C17.6986 9.29559 17.2589 9.31371 17.2589 9.76671C17.2589 10.2378 17.6619 9.98415 17.9001 10.0023C18.3032 10.0023 18.175 10.2378 18.0284 10.419C17.9001 10.6002 17.7536 10.8539 17.5703 10.8902C17.2039 10.9626 17.4787 10.564 17.2955 10.419C16.4344 9.67611 17.039 8.49831 16.4527 7.61043C16.0497 7.01246 16.2145 6.03398 15.1702 5.83466C14.932 5.7803 14.8404 5.52662 14.932 5.27294C15.0237 5.00114 15.2435 4.9649 15.4817 5.01926L15.5 5.00114Z" fill="#FDFDFD"/>
<path d="M7.05376 45.2276C9.08745 45.4088 9.10577 45.427 8.40955 47.5651C8.26298 48.0181 8.50116 48.308 8.51948 48.6704C8.5378 48.9422 8.17137 49.2503 7.96984 49.5583C6.90719 48.3443 7.43851 46.7678 6.87054 45.4632C6.94383 45.3907 6.99879 45.3001 7.05376 45.2276Z" fill="#D0D7C9"/>
<path d="M21.766 44.4304C21.6377 45.427 22.2423 46.3692 21.9858 47.3839C21.5278 47.3658 21.1247 47.3839 20.74 47.2933C20.3735 47.2027 19.8972 47.5832 19.6407 47.0759C19.2376 46.2786 20.3003 46.5685 20.3186 46.2967C20.3919 45.3001 20.685 44.5753 21.8026 44.4847L21.766 44.4304Z" fill="#FDFDFD"/>
<path d="M22.0774 42.7452C20.8316 42.2741 20.7033 41.1687 20.0254 40.5527C19.7323 40.299 20.2269 40.1721 20.4285 39.9909C20.7216 39.7191 21.1064 39.4836 21.2346 39.9003C21.3995 40.4258 22.3706 40.4621 22.0408 41.0781C21.766 41.6036 21.8026 42.0385 22.0774 42.7452Z" fill="#D0D7C9"/>
<path d="M23.4882 53.1823C22.9385 53.9796 22.2607 54.2695 21.2896 53.5991C21.8942 52.7112 22.5172 52.1857 23.5065 53.1642L23.4882 53.1823Z" fill="#D0D7C9"/>
<path d="M20.1353 78.1518C20.685 77.9524 20.8682 77.8437 21.0697 77.8075C21.6743 77.7169 21.1064 76.6478 21.9308 76.8109C22.169 76.8652 22.1507 77.1008 22.0774 77.3545C21.8575 78.1518 21.4361 78.5142 20.1353 78.1336V78.1518Z" fill="#D0D7C9"/>
<path d="M4.672 19.5878C5.36821 19.4066 6.04611 19.2979 6.72401 19.8415C6.28429 20.1857 5.84457 20.53 5.34989 20.8924C5.13004 20.4213 4.91018 19.9864 4.70864 19.5515L4.672 19.5878Z" fill="#D0D7C9"/>
<path d="M21.8026 44.4847C21.8026 43.6149 22.5538 43.5968 23.1401 43.3794C23.4516 43.2707 23.5432 43.4519 23.5432 43.7237C23.5432 43.8867 23.5981 44.1767 23.5432 44.2129C23.0485 44.4485 23.3416 43.923 23.1767 43.8324C22.3889 43.325 22.5538 44.9377 21.7843 44.4485L21.8209 44.4847H21.8026Z" fill="#D0D7C9"/>
<path d="M23.5065 53.1642C23.7447 53.7803 24.3859 53.9071 25.0821 54.1427C23.8363 54.5776 24.0195 53.436 23.4882 53.1823L23.5065 53.1642Z" fill="#6EBD6C"/>
<path d="M25.6868 52.6387C25.87 52.8199 26.0166 52.9105 26.0715 53.0374C26.1265 53.1642 26.0715 53.3273 26.0715 53.4904C25.9433 53.4541 25.7051 53.4541 25.7051 53.3998C25.6684 53.2005 25.7051 52.983 25.7051 52.6569L25.6868 52.6387Z" fill="#6EBD6C"/>
<path d="M22.682 42.4009C22.8103 42.4553 22.9019 42.4915 22.9752 42.5277C22.8469 42.6908 22.7553 42.872 22.6087 43.017C22.5721 43.0532 22.4255 42.9626 22.3339 42.9264C22.4622 42.7452 22.5721 42.5821 22.7004 42.4009H22.682Z" fill="#D0D7C9"/>
<path d="M4.70862 19.5515C4.52541 19.4428 4.08569 19.8233 4.15898 19.2797C4.1773 19.1529 4.39716 18.9355 4.48876 18.9536C4.91016 19.0442 4.74526 19.3341 4.67198 19.5878L4.70862 19.5515Z" fill="#D0D7C9"/>
<path d="M25.7234 54.4145C25.7234 54.4145 25.6684 54.5051 25.6501 54.5595C25.6134 54.4689 25.5585 54.3783 25.5402 54.2877C25.5402 54.2514 25.5768 54.1971 25.6134 54.1427C25.6501 54.2333 25.7051 54.3239 25.7417 54.4145H25.7234Z" fill="#6EBD6C"/>
<path d="M6.88888 45.4813C6.88888 45.4813 6.7423 45.3545 6.6507 45.3001C6.77895 45.282 6.92552 45.2639 7.05377 45.2458C6.9988 45.3364 6.94384 45.4088 6.87055 45.4813H6.88888Z" fill="#D0D7C9"/>
</g>
<defs>
<clipPath id="clip0_85_753">
<rect width="31" height="80" fill="white"/>
</clipPath>
</defs>
</svg>
