<?xml version="1.0" encoding="UTF-8"?>
<svg id="_图层_2" data-name="图层 2" xmlns="http://www.w3.org/2000/svg" viewBox="0 0 110.67 73.83">
  <defs>
    <style>
      .cls-1 {
        fill: #f39800;
        stroke-width: 0px;
      }
    </style>
  </defs>
  <g id="_図" data-name="図">
    <path class="cls-1" d="M3.13,44.68c.38.19.44.63.64.94.37.58-.31.34-.58.51.37.18.57.57,1.05.42.07-.02.2.06.28.13.37.3-.42.31-.15.58.19.2.47-.24.66.07.12.2.2.46.38.58.27.19.21.44.23.68.66-.12.74.6,1.17.83.42.22.99.35.6,1.13-.11.22.62.52.65,1.21.49-.78-.63-1.04-.13-1.62.25.33.64.53.74.98.02.08.08.64.35.08.06-.13.23.01.32.11.53.59,1.23.91,1.92,1.26.13.07.32.16.35.28.12.44.2.75.72.28.07-.07.64.37.93.63.05.04.07.27.19.2.74-.49,1.28.52,1.98.24.14.67.74.28,1.07.47.16.09.2.01.31-.01.89-.2,1.83-.12,2.6.2.56.23.96-.35,1.45.03.52.4,1.12.15,1.69.01.37-.09.76-.26,1.12.07.16.15.36.09.52,0,.78-.47,1.61-.2,2.42-.14.13.01.26.09.36-.01.54-.57,1.19-.17,1.79-.2.11,0,.17.02.22-.09.08-.19.25-.28.45-.25.32.05-.03.27.06.33.26.18.49,0,.71-.13.22-.12.33-.46.65-.35.84.28,1.41-.47,2.19-.57.8-.1.89-.96.78-1.61-.1-.62-.07-1.15.4-1.53.35-.28.12-.62.25-.92.67-1.61,1.7-2.82,3.49-3.2,1.01-.21,1.99.59,2.26,1.59.34,1.26.02,2.42-.42,3.52-.34.85-1.03,1.56-1.58,2.32-.05.07-.18.1-.28.1-.98,0-1.45,1.04-2.38,1.17-.14.02-.18.22-.1.33.18.29.06.39-.21.39-.2,0-.36.13-.23.26.68.63-.04.69-.43.94.51-.04.72.08.71.61,0,.48,0,.95,0,1.43-.03,1.29-.21,2.6.35,3.84.09.19.14.38.09.6-.14.64.82,2.62,1.28,3.05.34.32.8.5,1.03.99.3.65,1.13.73,1.58,1.25.15.17.46.17.36.57-.04.19.29.25.59.24.47-.02,1.08-.15,1.34.49.06.15.21.2.32.16.79-.27,1.43.23,2.13.42.39.11.67.31.63.86.69-.98,1.71-.86,2.67-.94.33-.03.41-.35.67-.45.24.09.17.37.33.51.16.14.29.08.41-.02.1-.09.29-.1.03-.34-.18-.16.27-.42.52-.43.57-.02,1.15.08,1.52-.52.05-.08.15,0,.23.09.22.27.24.08.37-.13.41-.71-.07-1.3-.21-1.93-.16-.69-.29-1.37-.11-2.08.08-.32.09-.67.52-.74-.18-.37-.33.03-.57-.14.74-1.05,1.13-2.41,2.71-2.63.37-.05.47-.49.83-.55.59-.1,1.18-.2,1.71.17.58.41,1.33.32,1.93.67.05.03.2,0,.2,0,.01.73,1.06.85.98,1.6-.09.9-.36,1.74-.89,2.49-.03.04-.11.06-.12.1-.18,1.35-1.57,1.59-2.28,2.46-.19.23-.72.18-1.1.26.09.22.38.28.44.3.49.16.38,1.46,1.31.71.04.06.07.14.13.17.47.26.84.57,1.5.57.42,0,1.3-.03,1.65.65.07.15.15.18.31.14.59-.16.59-.16.77.44.21-.51.95-.71,1.83-.5.64.15,1.34.2,1.94.33,1,.21,1.94-.08,2.84.07,1.16.19,2.29-.41,3.41.06.66-.71,1.74.01,2.41-.7.1-.1.29-.17.39,0,.03.05-.12.2-.18.3.08.11.21.07.26.01.66-.76,1.84-.44,2.5-1.21.09-.1.63-.37.18.2-.09.12.16.14.18.11.21-.56.7-.64,1.19-.7.87-.1,1.25-1.14,2.25-1.08.37.02.46-.77,1.04-.85-.9-.01-1.68-.48-2.58-.45-.56.02-1.13-.07-1.67-.2-.97-.23-1.48-1.8-1.58-2.92-.08-.82.38-1.52.44-2.31.01-.15.12-.31.3-.32.33,0,.34.05.15-.32-.14-.28.35.06.63-.05-.49-.42-.26-.72.05-1.05.98-1,1.85-2.15,3.37-2.38.21-.03.11-.19.16-.25.31-.35.74-.72,1.17-.47.54.32,1.14-.06,1.3-.17,1.13-.83,2.34-.52,3.33-.08.82.37,1.81.96,2.16,1.87.33.88.47,1.92.37,2.86-.11,1-.32,2.06-.99,2.91-.08.1-.19.24.01.3.56.19.08.47.04.86.33-.37.72-.35.95-.81.34-.65.42.12.6.29.66-1.41,1.77-.43,2.66-.58-.1-.27-.43-.13-.62-.38.64-.03,1.23-.09,1.74-.5.14-.11.51.07.77.12-.04.15-.02.28.17.2.07-.03.13-.18.13-.27-.01-.33.34-.73.65-.63.35.11.51-.16.7-.21.94-.28,1.73-.88,2.66-1.12.32-.08.85.39.76-.45,0-.1.78-.3.9-.25.5.21.56-.15.64-.39.17-.54.92-.06,1.05-.63.26.07.41-.67.75-.09.08.13.18-.05.22-.12.67-1.04,1.72-1.68,2.57-2.52.57-.56,1.49-1.06,1.57-2.09.02-.27.06-.64.48-.72.24-.05.21-.29.2-.46-.05-.56.04-1.07.36-1.56.43-.66.03-1.37.08-2.05.08-.93.1-1.87.15-2.81.01-.25-.22-.62.3-.68.02,0,.06-.54,0-.57-.37-.14-.36-.59-.35-.72.13-.99-.42-1.92-.24-2.89.07-.39,0-.78.13-1.17.13-.39.27-.38.54-.19.08-.15.02-.29-.07-.35-.92-.63-.96-1.61-1.01-2.57-.02-.36-.48-.32-.45-.75.04-.14.33-.07.46-.25.08-.12.13-.23.02-.34-.06-.06-.08-.19-.23-.14-.52.18-.67-.37-.55-.51.52-.6-.15-.75-.34-1.1.26-.13.49,0,.83.18-.17-.47-.56-.11-.67-.4-.05-.14-.7-.04-.15-.42.12-.08-.03-.29-.15-.27-.61.1-.68-.26-.66-.73,0-.13-.07-.23-.19-.32-.63-.49-1.03-1.15-1.3-1.89-.08-.21-.26-.11-.38-.19-.16-.1-.35,0-.37.17-.1.78-.23,1.53-1.13,1.79.18.41-.27.55-.35.85-.14.54-.74.49-1.05.8.15.35.36-.21.56.15-.83.95-1.71,1.93-2.75,2.72-.42.31-.77,1.07-1.53.59-.02.48-.19.28-.37.09-.03-.03-.18,0-.2.04-.5,1.14-1.53.61-2.31.67-.97.07-1.93-.2-2.61-1.03-.15-.18-.31.23-.53.02-.34-.31-.87-.4-.77-1.11.02-.15-.49-.73-.88-.98-.64-.41-.92-1.15-.86-1.71.05-.42-.2-.84-.05-1.12.57-1.03-.17-2.29.69-3.31.27-.32.47-.81.89-1.08-.26-.24-.45.2-.61-.04-.16-.25.15-.33.24-.49.48-.89.91-1.8,1.51-2.63.6-.82,1.3-1.41,2.22-1.89,1.13-.59,2.22-.38,3.29-.14.57.13.94-.4,1.44-.16.13.06.38-.07.46,0,.76.76,1.88.91,2.69,1.66.47.43.8,1,1.32,1.36.15.1.29.34.48.05.09-.13.25-.12.13-.44-.15-.42.11-.99.2-1.49.06-.36.35-.64.22-1.08-.16-.51.49-.06.54-.39-.43-.31-.46-1.18-.03-1.76.09-.12.32-.16.26-.34-.06-.18-.26.08-.31-.02-.13-.25.21-.42.17-.65-.13-.71.24-1.43-.1-2.13-.05-.09.05-.25.06-.38.07-.52.1-.98-.08-1.55-.29-.94-.27-1.99-.72-2.92-.1-.21-.27-.34.06-.56.13-.09-.21-.51-.32-.47-.35.15-.5-.2-.56-.28-.68-.97-1.84-1.34-2.63-2.17-.26-.27-.4-.53.09-.71-.14-.17-.3-.15-.39-.09-.92.57-1.73.02-2.57-.24-.09-.03-.16-.12-.26-.06-.47.29-.72.25-.62-.39.01-.07-.09-.22-.16-.24-.14-.04-.23.07-.3.2-.23.41-.48.44-.89.16-.37-.25-.82-.44-1.31-.18-.2.11-.13-.1-.17-.21-.1-.3-.4-.22-.45-.06-.16.6-.48.38-.8.21-.13-.07-.23-.05-.36-.02-.78.2-1.57.35-2.36.04-.18-.07-.2.14-.29.16-.19.05-.54.57-.55-.18,0-.29-.36-.05-.52,0-.21.07-.41.37-.58.35-.74-.08-1.46-.14-2.16.21.08-.12.16-.24.25-.37-.08-.02-.14-.06-.16-.05-.39.27-.67.72-1.31.38-.12-.06-.95-.36-1.27.28-.06.11-.48.15-.67.07-.73-.33-1.33.18-1.99.26-.68.08-.58.84-.69,1.33-.03.15-.02.41-.09.56-.42.97-.79,1.94-.95,2.99-.02.15-.06.36-.16.42-.62.36-.83,1.01-1.19,1.56-.18.28-.56.42-.91.51.16.34.35-.15.48.11.09.19-.09.28-.16.4-.25.42-.85.54-1.05.9-.56,1-1.61,1.39-2.4,2.08-.85.75-1.86,1.48-3.33,1.1-.69-.18-1.54-.03-2.16-.52-.68-.55-1.15-1.2-1.35-2.18-.15-.75-.31-1.45-.13-2.16.33-1.33.78-2.61,1.83-3.6.55-.52,1.04-1.06,1.88-1.15.08,0,.58-.36.79-.64.98-1.31,2.5-1.74,3.87-2.4.91-.44,1.91-.6,2.89-.79.34-.06.28-.17.28-.45.02-.86-.45-1.49-.85-2.16-.14-.24-.36-.44-.35-.77,0-.12-.14-.25-.22-.37-.16.15.14.33-.15.57-.22-.84-1.1-.97-1.63-1.11-.89-.25-1.75-.67-2.71-.79-1.06-.13-2.27-.17-3.15-.68-.78-.45-1.28-.21-1.92-.08-.14.03-.31-.05-.45-.1-.47-.18-.91-.2-1.43-.04-.67.21-1.3-.28-1.96-.36-.4-.04-.59-.16-.2-.49-.16-.13-.28-.09-.33-.01-.66.9-1.69.67-2.58.81-.15.02-.3-.04-.44.11-.26.27-.51.4-.61-.14-.03-.16-.17-.3-.35-.22-.15.07-.51.14-.15.42-.35.24-.21.75-.03.69.55-.17.47.18.62.45.09.16.49.22.43-.06-.12-.64.34-.44.55-.41,1.08.15,2.29-.26,3.21.47.44.35,1.18-.18,1.37.61.04.18.11-.06.17-.08.61-.23,1.16,0,1.52.42,1.13,1.31,1.41,2.78.64,4.4-.13.28-.25.72-.36.86-.59.69-1.15,1.52-2.06,1.8-.61.18-.77.77-1.26,1.02-.16.08-.25.32-.44.29-.67-.11-1.16.23-1.7.54-.85.48-1.87.52-2.79.82-.43.14-.87.21-1.27.48-.4.28-.91.3-1.44.1-.27-.1-.69.17-1.06.1-.78-.15-1.47.35-2.31.17-.97-.21-2-.27-3.01-.36-.2-.02-.35-.05-.47-.19-.08-.09-.11-.32-.17-.33-.2-.02-.06.27-.13.27-.36-.02-.02-.4-.29-.55-.21.27-.4.35-.83.19-1.07-.41-1.61-1.26-2.17-2.13-.13-.2-.03-.4-.04-.6-.05-.64.31-1.25.09-1.92-.06-.18-.1-.49.09-.67.71-.62.88-1.48,1.13-2.54-1.11.73-2.25.97-3.45.95.35.23.69.16,1.22.16-.58.23-.84.78-1.42.43-.15-.09-.27.04-.29.16-.11.71-.61.75-1.17.69-.06,0-.17.08-.17.11.05.83-.87.74-1.17,1.24-.12.2-.21.76-.66.24-.08-.1-.2.05-.2.15.06.93-.53.36-.95.35.55.26.48.5.22.9-.22.35-.47.65-.75.94-.74.76-1.51,1.65-1.74,2.58-.23.92-1.13,1.67-.8,2.74.04.12-.09.29-.15.43-.25.6-.57,1.15-.4,1.89.09.4.13.91-.13,1.37-.35.6.38,1.19.11,1.84-.04.1.2,0,.28,0,.42.05,1.08-.62,1.23.37.02.16.17.08.29-.03.77-.67,1.67-.29,2.52-.28.35,0,.51.3.52.71.56-1.09,1.57-1.33,2.61-1.5.19-.03.22-.21.31-.33.15-.2.29-.33.45-.02.1.19.17.44.44.33.24-.1.35-.26.05-.48-.04-.03.39-.46.48-.41.55.32.91.17,1.2-.34.27.39.61-.48.87.05.04-.03.13-.06.13-.08-.14-1,.9-.62,1.28-1.07.27-.32.85-.4,1.11.24.17.42.37.83.57,1.3-.78-.06-1.22.66-1.99.67-.76,0-1.47.55-2.01.93-1.06.75-2.34.84-3.42,1.47-.44.25-1.05.3-1.58.28-1.12-.04-2.17.6-3.27.34-.32-.08-1.12.25-1-.65,0-.06-.19-.17-.31-.21-.03-.01-.19.16-.18.23.09.76-.5.35-.67.31-1.49-.32-2.38-1.55-2.11-3.07.18-.99.07-1.98.17-2.97.1-.97.52-1.83.71-2.76.05-.25.42-.44.66-.64.05-.04.18-.05.14-.12-.62-1.02.38-1.6.62-2.39.26-.8.77-1.42,1.48-1.88.21-.14-.09-.2-.05-.29.15-.34.23-.72.68-.85.59-.17.97-.55,1.19-1.15.15-.41.61-.83.9-.91.67-.18.8-1.1,1.6-1.01.12.01.31-.25.42-.42.44-.66,1.02-1.09,1.85-1.04.35.02.33-.31.53-.44.58-.37,1.27-.4,1.88-.68,1.26-.59,2.67-.69,3.95-1.15.68-.25,1.42-.32,2.07-.71.89-.53,1.94-.79,2.9-1.13.79-.28,1.7-.52,2.58-.67.58-.1,1.05-.47,1.68-.52,1.65-.13,3.26-.61,4.98-.29.59.11,1.31-.2,1.97-.07.57.11,1.39-.36,1.61.66.03.12.43.18.38-.09-.13-.72.38-.39.62-.4.24,0,.49.1.75.17-.08.3-.44.27-.59.54.31,0,.56,0,.81,0,.16,0,.35.04.4-.15.07-.24-.29-.16-.31-.43.87.01,1.74-.08,2.43.68.05.05.66.15.96.12,1.55-.17,2.71.85,4.07,1.24.17.05.29.22.45.3.42.19.83.51,1.1.77.69.64,1.47,1.36,1.56,2.41.12,1.4,1.05,1.95,2.4,1.44.54-.2,1.17-.22,1.75-.28.69-.07,1.46.1,2.07-.22,1.04-.54,2.11-.02,3.14-.28.44-.11.76.37,1.2.35.11-.32-.4-.14-.28-.51.24,0,.53-.05.79,0,1.55.36,3.15.49,4.69.45,1.35-.03,2.52.61,3.83.61.55,0,1.09.43,1.51.74.82.6,1.91.66,2.61,1.48,1.19,1.41,2.83,2.51,2.95,4.61.01.21-.37.69.27.69-.17.42-.07.77.09,1.2.36.96.04,2,.15,3,.1.9-.1,1.8-.23,2.66-.13.8-.14,1.7-.63,2.43-.33.49.18.98-.02,1.48-.08.2.01.46-.18.66-.68.73-.51,1.69-.67,2.56-.07.37.47.57.64.95.17.37.47.71.86.95.16.1.24.34.32.53.5,1.21,1.07,2.39,1.67,3.55.57,1.12.96,2.32,1.24,3.55.03.13.05.26-.14.38-.35.24-.15.5.04.74.31-.21-.12-.39.05-.58.2.14.35.27.32.56-.07.72-.03,1.46.03,2.16.05.67.41,1.33.32,2.06-.06.48.38,1.13-.44,1.38-.06.02-.11.19-.1.28.03.17.2.18.31.13.21-.1.31-.14.32.17.02,1.03.32,2.05.2,3.09-.02.2.11.65-.38.65-.04,0-.08.04-.11.06.92.25-.03.86.26,1.38.42.77,0,1.77-.25,2.64-.12.42-.26.85-.42,1.26-.1.25-.16.77-.7.63-.19-.05-.26.18-.17.22.61.34.08.62-.05.86-.64,1.14-1.35,2.23-2.55,2.86-.19.1-.06.2-.1.28-.19.4-.43.79-.95.75-.57-.05-.77.45-1.11.71-.16.12-.26.35-.49.45-.55.27-1.05.8-1.57.92-1.1.27-1.62,1.66-2.92,1.4-.35-.07-.36.36-.66.45-1.79.54-3.53,1.23-5.33,1.77-.95.29-1.91.41-2.86.5-.85.08-1.61.3-2.36.64-.11.05-.18.02-.29-.02-1.1-.36-1.96.06-2.79.78-.24.21-.5.52-.9.58-.29.04-.56.17-.59.6-.01.19-.31.46-.52.52-.91.28-1.64.87-2.42,1.37-1.04.66-2.32.83-3.34,1.58-.3.22-.63.42-1.06.35-.85-.15-1.65.69-2.54.09.15.28.45.53-.11.55-1.16.05-2.33.09-3.49.15-.59.03-1.17.02-1.71-.27-.08-.04-.09-.21-.22-.15-1.28.56-3.4.56-4.62,0-.11-.05-.18-.21-.29,0-.21.4-.73.24-.83.15-.73-.71-1.66-.48-2.51-.59-1.03-.14-1.95-.63-2.94-.81-.8-.15-1.49-.3-2.06-.96-.3-.35-1.09-.27-.82-1.19-.15.48-.25.76-.72.51-.19-.1-.4.02-.63.09-1.2.42-2.22,1.3-3.42,1.55-1.54.33-3.1.86-4.77.3-.72-.24-1.59.05-2.35-.37-.43-.24-1.13-.11-1.06-.93.01-.11-.12-.3-.34-.18q-.69.39-1.4-.18c.02-.24.19-.08.29-.11.11-.04.23-.05.6-.13-.55-.18-.89-.36-1.22-.36-.24,0-.03.29-.04.5-.78-.39-1.68-.58-1.75-1.67-.63.19-.67-.49-1.04-.69-1.18-.65-1.69-1.73-2.02-2.99-.16-.59-.25-1.12-.07-1.69.03-.08.23-.17.09-.22-.9-.32-.55-1.13-.7-1.73-.23-.95-.33-1.91-.03-2.86.06-.18-.09-.19-.13-.28-.15-.33-.41-.74-.03-1.03.48-.36.23-.87.29-1.28.08-.51-.54-.5-.8-.32-1.09.77-2.38.28-3.5.61-1.6.48-3.21.2-4.8.35-.03,0-.06.03-.07.02-.63-.44-1.25-.13-1.89,0-.74.14-1.51-.1-2.27.12-.32.09-.52-.3-.88-.22-.4.09-.8-.23-1.26,0-.34.18-.7,0-1.02-.33-.26-.27-.8-.24-1.14-.2-.75.09-1.36-.05-1.92-.52-.12-.1-.18,0-.27.01-.42.09-.8.09-1.1-.33-.09-.13-.37-.17-.57-.18-.82-.02-1.49-.29-1.94-1.01-.16-.26-.48-.07-.71-.24-1.54-1.2-3.2-2.28-4.47-3.79-.25-.3-.66-.31-.78-.6-.19-.45-.49-.79-.8-1.14-.26-.29-.45-.63-.56-1-.15-.49-.79-.46-.97-.92-.05-.14-.3-.28-.27-.36.28-.94-.57-1.5-.74-2.26-.18-.81-.22-1.66-.3-2.5-.05-.5-.02-1.01-.3-1.47-.1-.17-.18-.48-.09-.6.65-.88-.16-2.11.8-2.86-.32-.22-.29.26-.49.14-.19-.12-.1-.34-.06-.5.29-1.35.5-2.72.59-4.1,0-.11.11-.23.2-.32.25-.26.46-.46.12-.86-.23-.27-.02-.71.05-1.05.24-1.14.17-2.37.85-3.4.07-.11-.04-.16-.09-.24-.2-.32-.16-.74.08-.95.56-.49.54-1.06.6-1.73.04-.47-.06-1.21.6-1.52.02-.01.06-.04.06-.04-.39-.89.65-1.47.48-2.34-.09-.46.08-.92.5-1.23.28-.21.36-.46.38-.84.04-.73.74-1.17.99-1.84.46-1.19,1.32-2.12,2.08-3.11.36-.47.53-1.07,1.03-1.47,1.23-.99,2.21-2.26,3.72-2.95.58-.27.98-.98,1.61-1.32.47-.25.84-.89,1.47-.26.06.06.28.06.34-.07.04-.07,0-.21-.05-.29-.07-.12-.43-.17-.08-.35.97-.48,1.89-1.14,3.03-1.15.36,0,.85-.12.95.47,0,.02.02.05.04.07.43-.56.87.08,1.28-.01.3-.07.6-.1.79.14.19.24.14.53-.13.75-.08.06-.17.15-.18.23,0,.35.15.84-.23.96-.35.11-.83-.01-1.2-.15-.56-.21-1.08-.23-1.66-.1-.22.05-.52.29-.89-.09-.36-.37-.72.46-.76.56-.34.78-.76.51-1.23.17-.04.63-.35,1.09-.78,1.36-.39.25-.89.33-1.32.56-.14.07-.79.52-.69-.31-.05.06-.14.12-.14.18,0,1.13-.92,1.58-1.64,2.15-.13.11-.22.17-.24.33-.05.39-.15.65-.54.21-.09-.1-.32-.16-.41,0-.07.13-.38.46.15.4-.04.32-.07.63-.48.75-.51.14-.74.57-.89,1.03-.05.17-.1.12-.2.08-.49-.2-.4.32-.32.36.44.2.13.5.03.58-.49.42-.63.99-.77,1.57-.02.1-.05.21-.12.29-.36.42-.61.85-.68,1.43-.04.34-.12.87-.72.89-.17,0-.16.19-.15.31.08.78.07.84-.55,1.3-.08.06-.1.12-.07.17.42.69-.18,1.21-.27,1.82-.05.33,0,.71-.53.65-.07,0-.15.15-.23.23,1.14.87-.38.42-.32.8.43,0,.5.23.45.72-.04.41-.11.82-.2,1.2-.15.59-.62,1.07-.39,1.79.13.44-.48.71-.47,1.28,0,.7-.07,1.45-.17,2.17-.14.99-.49,2.07-.37,2.99.12.87-.49,1.71.03,2.53.06.09.11.31-.26.2-.37-.11-.23.33-.15.5.27.53.25.97.04,1.56-.12.33.18,1,.32,1.48.11.4-.22.6-.08,1,.33.94.69,1.94.29,2.97-.03.07-.05.15.07.17.11.01.22-.01.21-.15-.01-.2-.12-.4.03-.59ZM47.13,8.25c.03.36.62-.08.5.39-.13.51,0,1.06-.26,1.57-.13.25-.19.59-.15.86.21,1.26,1.46,1.15,2.26,1.48.43.18,1.21.01,1.77.22.55.21.99-.16,1.46-.11.54.06,1.05.23,1.56-.11.08-.06.2-.07.28.03.33.4.39.45.62.18.34-.4.75-.31,1.15-.28.17.01.25.06.42-.06.51-.36,1.06-.37,1.68-.15.13.05.16-.06.22-.15.17-.28.45-.3.75-.3.1,0,.3.19.3.01-.01-.66.54-.5.84-.54.43-.07.79-.1,1.13-.44.21-.21.56-.35.83-.47.5-.21.27.42.48.73.15-.45.57-.66.44-1.14-.03-.1.14-.27.25-.37.47-.48,1.14-.69,1.45-1.42.33-.79.22-1.89-.56-2.17-.81-.29-1.61-.65-2.51-.66-.39,0-1.05-.08-1.11-.27-.18-.59-.46-.3-.77-.25-.64.1-1.39.74-1.84-.48.18.45.21.51-.25.45-.44-.05-.88.37-1.42.18-.55-.2-1.13-.3-1.71-.45-.02-.23.2-.35.3-.54-.29-.09-.45.09-.63.24-.26.22-.61.63-.82.58-1.06-.27-2,.47-3.03.26-.07-.01-.25.11-.24.14.1.57-.47.61-.7.66-.44.09-.64.25-.67.67,0,.15-.07.18-.24.21-.54.1-.47,1-1.17.93.39.78-.32.49-.61.57ZM90.76,35.18c.59-.12.67.39.97.58.94.56,1.62,1.58,2.9,1.53.25,0,2.38-.24,2.47-.45.22-.49.6-.76,1.06-.99.56-.28.64-.94,1.01-1.33.39-.41.84-.73.95-1.33.02-.13.12-.29.25-.22.66.35.54-.29.52-.49-.04-.34.06-.58.3-.75.69-.48.6-1.34.87-2,.2-.47.43-.1.59-.31-.26-.13-.4-.35-.67-.52-.6-.36.34-.16.2-.47-.34-.04-1-.16-.94-.37.2-.72-.81-.61-.68-1.18-.77.12-.94-.53-1.28-.98-.07-.09-.14-.05-.27,0-.5.17-1.19-.15-1.53-.6-.13-.17-.22-.28-.35.05-.12.3-.38.74-.6.02-.05-.16-.28-.18-.3-.08-.16.76-.8.44-1.15.41-.7-.05-1.06.31-1.41.77-.08.11-.21.22-.25.29-.33.57-.63,1.15-1.24,1.48-.02,0-.03.06-.02.07.51.46-.11.7-.23,1.02-.09.23-.26.39-.26.69,0,.49.09,1.07-.57,1.29-.16.05-.19.26-.12.32.42.39.13.83-.05,1.09-.39.58.06,1.08.05,1.61,0,.29.25.58-.23.85ZM86.98,64.04c-.52-.49-.84-.92,0-1.21.04-.01.05-.19.02-.28-.18-.66.12-1.22.4-1.76.13-.26.21-.42.07-.65-.32.15-.24.49-.48.87-.04-.51-.24-.81-.05-1.16.14-.25.11-.42-.23-.31-.15.05-.24.07-.29-.11-.26-.96-1.04-.76-1.72-.74-.07,0-.22.19-.24.11-.27-.96-.87.33-1.18-.18-.55.85-1.55.86-2.35,1.32.04-.32.19-.52.39-.74-.28-.02-.42-.06-.51.3-.11.45-.27,1-.85,1.1-.42.07-.67.33-.78.65-.28.78-1.24,1.26-1.01,2.27.02.08-.08.18-.11.28-.31.89.04,1.38.99,1.39.1,0,.24,0,.3.05.37.37.37.39.83.17.38-.18.72,0,1.07.09.12.03.14.1.32.05.29-.08.56-.51.85-.22.07.07-.22.54-.46.75-.03.03,0,.13,0,.23.7-.74.7-.72,1.59-.73.22,0,.45-.23.66-.21.82.09,1.3-.37,1.6-1.01.25-.53.59-.51,1.18-.31ZM70.57,19.53c.21.16.06.61.4.61.48,0-.03-.4.16-.56.1-.08.19-.21.3-.25q1.23-.44,1.88-1.27c.05-.06.1-.16.16-.17.34-.05.44-.28.62-.55.18-.27.27-.65.48-.82.46-.35.85-.7.94-1.3.01-.08.15-.2.21-.19.17.03,0,.3.21.34.52-.57.15-1.59.99-2,0,0-.02-.05-.02-.07q.13-.82.79-1.57s.06-.11.05-.14c-.3-.46.12-.76.27-1.1-.51-.39-1.16.2-1.56-.25-.29.75-1.28.38-1.62,1.02-.06.12-.67.25-.84-.23-.35.3.39.53.08.66-.28.12-.52.55-.95.28-.04-.02-.5-.08-.38.14.24.45-.17.46-.32.63-.61.7-1.62.87-2.18,1.67-.15.21-.64.53-.75.47-.69-.33-.38.17-.5.44-.12.28.09.62-.22.83-.39.26-.31.6-.27,1.02.06.71,0,1.45-.52,2.1.89-.36,1.63.84,2.58.27ZM57.33,64.92c0-.55,0-1.03-.49-1.49-.43-.4-.82-.14-1.2-.17-1.05-.07-1.8.8-2.14,1.66-.25.65.17,1.2-.06,1.8-.06.16.26.54.48.73.29.24.39-.26.5-.25.47.05.44-.76.75-.55.56.38.6-.02.62-.34.02-.31.22-.41.4-.52.36-.22.6-.48.72-.93.17-.65.26.09.42.06ZM38.23,50.82c.03-.33-.43-.23-.31-.51.19-.45.14-1.07.75-1.26.36-.11.11-.1,0-.13-.32-.09-.64-.24-.95-.23-.15,0-.43-.23-.46.03-.09.75-.96,1.1-.89,1.93.02.23-.11.66-.26.7-.89.27.13.87-.25,1.2.23.25.43-.1.65-.04.05.01.11.01.16,0,.14-.01.23.28.39.06.03-.04.01-.16-.02-.21-.14-.21-.27.03-.41.02-.12,0-.25.06-.32-.1.46-.42,1.09-.75,1.32-1.27.21-.46.38-.21.61-.2Z"/>
  </g>
</svg>