<?xml version="1.0" encoding="UTF-8"?>
<svg id="_图层_2" data-name="图层 2" xmlns="http://www.w3.org/2000/svg" viewBox="0 0 57.53 38.45">
  <defs>
    <style>
      .cls-1 {
        fill: #dae000;
        stroke-width: 0px;
      }
    </style>
  </defs>
  <g id="_図" data-name="図">
    <path class="cls-1" d="M1.92,26.29c.21.08.26.3.38.45.22.28-.14.19-.27.3.2.08.33.26.56.16.04-.02.11.02.15.05.2.14-.2.18-.05.31.11.09.23-.15.34,0,.07.1.13.22.22.28.15.09.13.21.15.34.33-.1.41.27.64.36.23.09.53.13.37.55-.04.12.34.24.4.59.21-.43-.38-.5-.15-.83.15.15.36.24.43.47.01.04.08.32.18.02.03-.07.12,0,.17.04.3.27.68.41,1.05.54.07.03.17.07.2.13.09.22.14.38.39.11.03-.04.35.16.51.27.03.02.05.14.11.09.35-.29.69.2,1.03.02.11.34.39.11.57.19.09.04.1,0,.16-.02.45-.15.93-.16,1.35-.03.3.09.47-.23.75-.06.29.18.58.02.87-.08.19-.07.38-.18.58-.02.09.07.19.03.27-.03.38-.29.82-.19,1.24-.2.07,0,.14.03.19-.02.25-.32.6-.15.91-.2.06,0,.09,0,.11-.06.03-.1.12-.16.22-.15.17,0,0,.14.05.17.14.08.25-.03.36-.1.1-.07.14-.25.32-.21.45.1.7-.32,1.09-.41.41-.1.41-.54.32-.87-.09-.31-.1-.59.13-.81.17-.16.03-.33.08-.49.26-.86.72-1.54,1.63-1.83.51-.16,1.05.2,1.24.7.24.63.14,1.24-.03,1.83-.13.45-.45.85-.69,1.28-.02.04-.09.06-.14.07-.5.05-.69.61-1.16.73-.07.02-.08.12-.04.17.11.14.05.2-.09.21-.1.01-.18.09-.1.14.38.29.02.35-.17.51.26-.05.37,0,.4.27.02.24.05.49.07.74.05.67.03,1.35.38,1.96.05.09.09.19.08.31-.04.34.56,1.3.82,1.5.19.14.44.21.58.46.19.32.62.32.88.56.09.08.25.06.22.27-.01.1.16.11.32.09.24-.04.55-.13.72.18.04.07.12.09.17.06.39-.18.75.04,1.12.1.21.03.36.13.37.41.3-.54.84-.53,1.32-.63.17-.03.19-.2.32-.27.13.03.1.18.2.25.09.06.15.03.21-.03.05-.05.14-.07,0-.18-.1-.07.12-.23.25-.25.29-.04.6-.02.76-.35.02-.05.07-.01.12.04.13.13.13.03.18-.09.17-.39-.1-.66-.21-.98-.12-.35-.22-.69-.16-1.07.03-.17.01-.35.23-.41-.11-.18-.17.03-.3-.04.33-.58.46-1.3,1.26-1.49.19-.05.22-.27.4-.33.3-.08.6-.16.89,0,.32.18.7.1,1.03.24.03.01.1,0,.1,0,.05.38.59.38.59.77,0,.47-.1.92-.33,1.33-.01.02-.06.04-.06.06-.02.7-.72.9-1.04,1.38-.08.13-.36.13-.55.19.06.11.21.12.24.13.26.05.27.73.71.29.02.03.04.07.08.08.25.11.46.25.8.22.22-.02.67-.08.88.25.05.07.09.08.16.05.29-.11.3-.11.42.18.08-.27.45-.41.92-.35.34.04.7.03,1.01.07.52.06.99-.14,1.46-.12.61.04,1.16-.33,1.76-.15.3-.4.9-.09,1.2-.49.04-.06.14-.1.2-.02.02.02-.05.11-.08.17.04.05.11.02.13,0,.3-.42.92-.32,1.22-.75.04-.06.3-.22.1.09-.04.06.09.07.1.05.08-.3.32-.37.58-.42.44-.1.58-.65,1.1-.67.19,0,.2-.42.49-.49-.46.04-.89-.16-1.35-.1-.29.04-.58.02-.87-.02-.51-.07-.85-.85-.96-1.42-.08-.42.12-.8.1-1.21,0-.08.05-.17.14-.18.17-.02.18,0,.06-.17-.09-.14.18.01.32-.06-.27-.19-.17-.36-.03-.54.45-.57.84-1.2,1.61-1.4.11-.03.04-.1.07-.14.14-.2.34-.41.58-.3.29.14.58-.09.66-.16.54-.49,1.18-.39,1.71-.21.44.15.98.4,1.21.85.22.44.34.96.34,1.45,0,.52-.06,1.07-.36,1.55-.03.06-.09.13.02.16.3.07.07.24.07.44.15-.21.35-.22.45-.46.14-.35.22.04.32.12.27-.76.89-.31,1.34-.44-.06-.14-.23-.04-.34-.16.33-.05.63-.11.87-.35.07-.06.27,0,.4.02-.01.08,0,.14.1.1.03-.02.06-.1.05-.14-.02-.17.14-.39.3-.36.19.04.26-.11.35-.14.47-.19.84-.54,1.31-.71.16-.06.45.15.37-.27-.01-.05.38-.19.45-.17.27.08.28-.1.31-.23.06-.29.47-.08.51-.38.14.02.18-.37.38-.09.05.07.09-.04.11-.07.29-.57.8-.96,1.19-1.43.27-.32.71-.62.7-1.15,0-.14,0-.33.21-.4.12-.04.09-.16.08-.24-.05-.29-.04-.55.1-.82.19-.36-.06-.7-.06-1.06,0-.48-.05-.97-.07-1.45,0-.13-.15-.31.12-.36.01,0,0-.28-.03-.29-.2-.05-.22-.28-.22-.35.02-.52-.32-.97-.28-1.47.02-.2-.04-.4,0-.61.05-.21.12-.21.27-.13.03-.08,0-.15-.06-.18-.5-.28-.58-.78-.65-1.27-.03-.18-.27-.14-.27-.36.01-.07.17-.05.22-.15.04-.07.06-.12,0-.18-.03-.03-.05-.09-.12-.06-.26.12-.36-.16-.31-.23.24-.34-.11-.38-.23-.55.13-.08.25-.02.44.05-.11-.23-.3-.03-.36-.17-.03-.07-.36.01-.1-.21.06-.05-.03-.15-.09-.13-.31.08-.36-.1-.38-.34,0-.07-.05-.12-.11-.16-.35-.22-.59-.54-.76-.9-.05-.11-.14-.05-.21-.08-.09-.04-.18.02-.18.11,0,.41-.04.8-.49.98.11.2-.11.3-.14.45-.05.28-.35.29-.5.47.1.17.17-.12.29.05-.38.53-.78,1.08-1.27,1.54-.2.18-.34.59-.76.38.02.25-.08.15-.19.07-.02-.01-.09.01-.1.03-.2.61-.76.39-1.15.47-.5.09-1,0-1.39-.39-.09-.09-.14.14-.27.04-.19-.14-.47-.16-.45-.53,0-.08-.29-.35-.5-.46-.35-.18-.54-.54-.53-.84,0-.22-.15-.42-.09-.57.24-.56-.21-1.17.18-1.74.12-.18.2-.44.4-.6-.15-.11-.22.13-.32.01-.1-.12.06-.18.1-.26.2-.48.37-.97.64-1.43.26-.45.59-.79,1.04-1.09.55-.36,1.12-.31,1.68-.24.3.04.46-.25.73-.16.07.02.19-.06.23-.02.43.35,1.01.37,1.47.71.26.2.46.47.75.63.08.04.17.16.25,0,.04-.07.12-.07.05-.23-.1-.21,0-.51.02-.78.01-.19.15-.35.05-.57-.11-.25.25-.06.26-.23-.24-.14-.3-.58-.11-.91.04-.06.16-.1.12-.19-.04-.09-.13.06-.16,0-.08-.12.09-.23.05-.34-.11-.36.05-.75-.17-1.09-.03-.05.01-.13.01-.2,0-.27,0-.51-.12-.79-.2-.47-.24-1.01-.52-1.46-.06-.1-.16-.16,0-.29.06-.05-.14-.25-.19-.22-.17.09-.27-.08-.3-.12-.4-.46-1.02-.59-1.47-.98-.15-.12-.23-.25.01-.37-.08-.08-.16-.06-.21-.03-.44.34-.89.1-1.33.01-.05,0-.09-.05-.14-.02-.23.17-.36.17-.34-.17,0-.04-.06-.11-.09-.12-.07-.01-.11.05-.14.12-.1.22-.22.25-.45.13-.2-.11-.44-.18-.68-.02-.1.07-.07-.04-.1-.1-.07-.15-.22-.09-.23,0-.05.32-.23.22-.4.15-.07-.03-.12-.02-.19,0-.39.14-.79.26-1.21.14-.1-.03-.1.08-.14.1-.09.03-.25.32-.29-.06-.02-.15-.19,0-.27.03-.11.05-.19.21-.28.21-.38,0-.76,0-1.1.22.04-.07.07-.13.11-.2-.04,0-.07-.03-.08-.02-.18.16-.31.4-.65.26-.06-.03-.51-.13-.64.21-.02.06-.24.1-.34.07-.39-.13-.67.16-1.01.24-.35.08-.25.46-.29.72,0,.08.01.21-.01.29-.17.52-.31,1.04-.33,1.59,0,.08,0,.19-.06.23-.3.22-.37.56-.53.86-.08.15-.27.25-.44.31.1.16.17-.1.25.03.06.09-.03.15-.06.21-.11.23-.41.32-.49.52-.23.54-.76.8-1.12,1.2-.4.43-.88.86-1.65.74-.36-.06-.8.07-1.14-.16-.38-.25-.66-.55-.81-1.05-.12-.38-.24-.73-.18-1.11.1-.7.27-1.38.75-1.94.26-.3.48-.6.9-.69.04,0,.28-.22.37-.37.43-.73,1.19-1.03,1.86-1.44.44-.27.95-.41,1.44-.56.17-.05.13-.1.12-.25-.03-.44-.31-.74-.55-1.06-.09-.12-.21-.21-.22-.38,0-.06-.09-.12-.13-.18-.07.09.09.16-.05.3-.15-.42-.62-.44-.9-.49-.47-.08-.93-.25-1.44-.26-.55-.01-1.18.03-1.65-.18-.42-.19-.67-.04-.99.06-.07.02-.16,0-.24-.03-.25-.07-.48-.06-.74.05-.33.14-.68-.08-1.03-.08-.21,0-.31-.05-.13-.24-.09-.06-.15-.03-.17.01-.29.5-.83.43-1.28.55-.08.02-.15,0-.22.08-.12.15-.24.23-.32-.04-.02-.08-.1-.15-.19-.1-.07.04-.25.1-.05.22-.17.14-.07.4.02.36.27-.12.25.07.34.2.05.08.26.09.22-.05-.1-.32.15-.24.26-.24.56.02,1.16-.25,1.68.07.25.16.6-.15.74.24.03.09.05-.04.08-.05.3-.15.6-.06.81.14.65.61.87,1.35.56,2.23-.05.15-.09.38-.14.46-.27.39-.51.84-.96,1.03-.3.13-.35.44-.59.59-.08.05-.11.18-.21.17-.35-.02-.58.18-.85.37-.41.29-.93.37-1.39.57-.21.09-.43.15-.63.31-.19.16-.45.2-.74.13-.14-.04-.35.12-.54.11-.41-.04-.74.26-1.18.21-.51-.05-1.04-.03-1.57-.03-.11,0-.18,0-.25-.07-.05-.04-.07-.16-.11-.16-.11,0-.02.14-.05.14-.19,0-.03-.2-.18-.27-.09.15-.19.2-.42.14-.57-.15-.89-.56-1.23-.98-.08-.1-.03-.21-.05-.31-.06-.33.1-.66-.05-.99-.04-.09-.08-.25.01-.35.33-.36.37-.81.45-1.36-.53.43-1.11.62-1.72.67.19.1.36.04.64.02-.29.15-.39.44-.71.3-.08-.04-.14.03-.14.1-.02.37-.27.42-.56.42-.03,0-.08.05-.08.07.07.42-.41.42-.54.7-.05.11-.07.4-.33.16-.05-.05-.1.04-.09.09.08.48-.25.21-.47.23.29.11.27.23.16.45-.1.19-.21.36-.34.52-.34.43-.69.93-.76,1.42-.07.49-.49.92-.27,1.45.02.06-.03.15-.05.23-.1.32-.23.62-.11.99.07.2.12.46,0,.71-.15.33.26.59.15.94-.02.05.1-.01.15-.01.22,0,.52-.37.65.13.02.08.09.03.15-.03.36-.38.84-.24,1.28-.28.18-.02.28.13.31.34.23-.59.74-.77,1.27-.91.1-.03.1-.12.14-.19.07-.11.13-.18.23-.03.06.09.11.22.24.15.12-.06.17-.15,0-.25-.02-.01.18-.25.22-.23.3.13.48.04.6-.24.16.19.29-.28.45-.02.02-.02.06-.04.06-.05-.12-.51.43-.37.6-.62.12-.18.42-.25.58.07.11.21.23.41.36.64-.41.01-.59.4-.99.45-.39.04-.73.36-.99.58-.51.44-1.16.55-1.68.93-.21.15-.53.21-.8.23-.58.04-1.08.42-1.66.34-.17-.02-.56.19-.55-.28,0-.03-.11-.08-.17-.09-.02,0-.09.09-.08.13.09.39-.24.21-.33.2-.78-.09-1.3-.67-1.24-1.47.04-.52-.07-1.02-.07-1.53,0-.5.17-.97.22-1.46.01-.13.19-.25.31-.36.02-.02.09-.04.06-.07-.37-.49.11-.84.2-1.26.09-.43.32-.77.66-1.05.1-.08-.06-.1-.04-.14.06-.18.08-.38.31-.47.29-.12.47-.33.55-.65.06-.22.27-.46.41-.51.33-.13.35-.61.77-.6.06,0,.14-.15.19-.24.19-.36.47-.61.9-.63.18,0,.15-.18.25-.26.28-.22.63-.27.93-.45.62-.37,1.33-.49,1.97-.8.34-.16.71-.24,1.03-.47.43-.32.95-.51,1.43-.73.39-.19.85-.35,1.29-.48.29-.08.52-.3.84-.35.84-.15,1.65-.49,2.54-.41.31.03.66-.17,1.01-.14.3.03.69-.26.86.25.02.06.23.07.19-.07-.11-.37.17-.22.3-.24.12-.02.26.03.4.05-.03.16-.21.16-.28.31.16-.02.29-.03.42-.04.08,0,.18,0,.2-.1.02-.13-.16-.07-.18-.21.45-.04.89-.13,1.28.22.03.03.35.04.5.01.79-.17,1.44.29,2.16.42.09.02.16.1.25.13.22.07.45.22.61.34.39.29.83.62.93,1.15.14.71.64.95,1.31.62.27-.13.59-.17.89-.23.35-.07.76-.03,1.05-.22.51-.33,1.08-.12,1.6-.31.22-.08.41.15.64.11.04-.17-.21-.05-.17-.25.12-.01.27-.05.41-.04.81.1,1.64.09,2.44-.01.69-.09,1.33.18,2,.11.28-.03.58.16.82.3.45.26,1.02.24,1.42.62.69.66,1.59,1.14,1.76,2.22.02.11-.15.37.17.34-.06.22,0,.4.11.61.24.47.12,1.02.23,1.53.1.46.05.93.02,1.38-.02.42.02.88-.2,1.28-.14.27.14.49.07.76-.03.11.03.23-.06.35-.31.41-.17.9-.21,1.35-.02.19.27.27.38.45.11.18.28.34.49.44.09.04.14.16.19.26.32.6.68,1.17,1.04,1.74.35.55.62,1.14.83,1.76.02.07.04.13-.05.2-.17.14-.05.26.06.38.15-.12-.08-.2,0-.3.11.06.19.12.19.27,0,.37.06.75.13,1.11.06.34.28.66.27,1.04,0,.25.26.56-.15.73-.03.01-.05.1-.04.15.02.09.11.08.16.05.1-.06.15-.09.17.07.06.53.27,1.04.26,1.58,0,.1.09.33-.16.36-.02,0-.04.03-.05.04.48.08.03.44.2.69.26.37.09.91.01,1.37-.04.22-.09.45-.15.67-.04.14-.04.4-.33.36-.1-.01-.12.1-.08.12.33.14.07.31.02.45-.27.62-.57,1.22-1.16,1.61-.09.06-.02.11-.04.15-.08.21-.18.43-.45.43-.3,0-.37.27-.53.42-.08.07-.12.19-.23.26-.27.17-.5.47-.76.56-.55.19-.74.94-1.43.87-.18-.02-.17.21-.31.27-.89.37-1.75.82-2.65,1.19-.47.2-.96.31-1.44.41-.43.09-.81.24-1.18.45-.05.03-.09.02-.15,0-.58-.13-1,.13-1.39.55-.11.12-.23.29-.43.34-.15.04-.28.12-.27.34,0,.1-.13.25-.24.3-.45.19-.8.53-1.17.83-.5.4-1.15.55-1.63.99-.14.13-.3.25-.52.23-.45-.03-.81.44-1.3.18.09.14.26.25-.03.29-.6.09-1.19.17-1.79.26-.3.05-.6.07-.89-.05-.04-.02-.06-.1-.12-.06-.63.35-1.72.47-2.38.24-.06-.02-.1-.1-.15.02-.09.22-.36.16-.42.12-.41-.33-.88-.16-1.32-.17-.54-.02-1.04-.22-1.55-.26-.42-.03-.78-.07-1.11-.39-.17-.16-.57-.08-.49-.57-.05.25-.09.4-.34.3-.1-.04-.2.03-.32.08-.59.28-1.07.78-1.68.98-.78.25-1.55.6-2.44.4-.38-.09-.82.11-1.23-.07-.23-.1-.59,0-.59-.42,0-.06-.08-.15-.18-.07q-.34.23-.73-.02c0-.12.09-.05.14-.07.06-.02.12-.04.3-.1-.29-.06-.47-.14-.65-.12-.12.01,0,.15,0,.26-.42-.16-.89-.21-.99-.77-.31.13-.37-.22-.57-.3-.64-.27-.96-.8-1.2-1.43-.11-.3-.19-.56-.12-.87,0-.04.11-.1.04-.12-.48-.12-.34-.55-.45-.85-.17-.47-.27-.96-.17-1.47.02-.1-.05-.09-.08-.13-.09-.16-.25-.36-.07-.53.23-.21.07-.46.08-.67.01-.27-.3-.23-.43-.12-.52.45-1.21.27-1.77.5-.8.33-1.64.27-2.45.43-.01,0-.03.02-.04.02-.35-.19-.65,0-.97.09-.37.11-.78.03-1.16.18-.16.06-.28-.13-.47-.07-.2.06-.42-.07-.65.07-.17.11-.36.04-.54-.12-.15-.13-.43-.08-.59-.04-.38.08-.7.04-1.02-.17-.06-.04-.09,0-.14.02-.21.07-.41.09-.58-.11-.05-.06-.2-.07-.3-.06-.42.03-.78-.07-1.05-.42-.1-.13-.25,0-.38-.09-.86-.54-1.76-1-2.49-1.71-.14-.14-.36-.12-.43-.27-.12-.22-.29-.38-.47-.54-.15-.14-.26-.3-.34-.48-.1-.24-.43-.2-.55-.42-.04-.07-.17-.13-.16-.17.09-.5-.37-.74-.5-1.12-.14-.41-.2-.84-.28-1.27-.05-.26-.06-.52-.23-.74-.06-.08-.12-.24-.08-.3.29-.48-.19-1.07.26-1.51-.18-.1-.14.15-.24.1-.1-.05-.07-.17-.06-.25.08-.71.11-1.42.09-2.14,0-.06.05-.12.09-.18.11-.15.21-.26.02-.45-.13-.13-.05-.36-.03-.54.06-.6-.04-1.23.26-1.79.03-.06-.03-.08-.06-.12-.12-.16-.12-.37,0-.49.26-.28.22-.57.22-.92,0-.24-.1-.62.23-.81.01,0,.03-.02.03-.03-.25-.44.26-.79.13-1.23-.07-.23,0-.48.19-.66.13-.12.16-.26.15-.45-.02-.38.32-.64.41-1,.17-.63.57-1.16.91-1.71.16-.26.21-.58.45-.81.58-.57,1.02-1.28,1.76-1.71.28-.17.45-.56.76-.76.23-.15.39-.5.74-.21.04.03.14.02.17-.06.02-.04-.01-.11-.04-.15-.04-.06-.23-.07-.06-.18.48-.3.91-.69,1.5-.75.19-.02.43-.1.51.19,0,.01.02.02.02.03.19-.31.45,0,.66-.07.15-.05.3-.08.41.03.11.12.1.27-.03.39-.04.04-.08.09-.08.13.01.18.12.42-.07.5-.18.07-.43.04-.63-.02-.3-.08-.57-.06-.86.04-.11.04-.25.18-.46,0-.2-.17-.34.27-.36.33-.13.42-.37.3-.62.15.01.33-.12.58-.33.74-.19.15-.44.22-.65.36-.07.04-.38.31-.37-.12-.02.03-.06.07-.06.1.06.58-.39.86-.73,1.19-.06.06-.11.1-.11.18,0,.21-.04.34-.27.13-.05-.05-.17-.07-.21.02-.03.07-.17.26.1.2,0,.17,0,.33-.21.41-.25.1-.35.33-.4.57-.02.09-.05.07-.1.05-.26-.08-.19.19-.15.2.23.08.09.25.05.3-.23.24-.27.54-.31.85,0,.05-.02.11-.05.15-.16.23-.27.47-.27.77,0,.18-.02.46-.32.49-.09.01-.07.1-.06.17.08.39.08.43-.21.7-.04.04-.05.07-.03.09.25.33-.03.63-.04.95,0,.17.04.36-.24.36-.04,0-.07.09-.11.13.63.39-.17.24-.12.43.22-.02.27.09.27.35,0,.21-.01.43-.04.63-.04.31-.26.58-.11.94.09.22-.21.39-.18.69.04.36.04.75.02,1.12-.02.52-.14,1.09-.03,1.55.11.44-.16.91.15,1.3.03.04.07.15-.12.12-.2-.04-.1.18-.05.26.17.26.18.48.1.8-.04.18.15.5.24.74.08.2-.08.32,0,.52.22.47.45.96.3,1.51-.01.04-.02.08.04.08.06,0,.11-.02.1-.09-.02-.1-.08-.2-.01-.31ZM22.63,5.25c.04.18.31-.07.28.18-.04.27.06.55-.05.82-.05.13-.07.31-.03.45.17.64.81.52,1.24.64.23.07.62-.06.92.02.3.08.5-.13.74-.13.28,0,.55.06.79-.14.04-.03.1-.05.14,0,.19.19.22.21.33.06.16-.22.37-.2.58-.2.09,0,.13.02.22-.06.25-.21.52-.24.86-.16.07.02.08-.04.1-.09.07-.16.21-.18.37-.19.05,0,.16.08.15,0-.04-.34.25-.28.4-.32.22-.06.4-.1.56-.29.1-.12.27-.21.4-.28.25-.13.16.2.29.35.06-.24.26-.37.17-.61-.02-.05.06-.14.11-.21.22-.27.55-.41.67-.81.13-.42.02-.99-.4-1.09-.43-.11-.86-.25-1.33-.21-.2.02-.54.01-.59-.08-.12-.29-.25-.13-.41-.09-.32.09-.68.45-.97-.15.12.22.13.25-.1.25-.23,0-.44.24-.72.17-.29-.07-.6-.09-.9-.14-.02-.11.08-.19.13-.29-.15-.03-.23.07-.31.16-.12.13-.28.36-.39.34-.56-.08-1,.35-1.54.3-.04,0-.12.07-.12.09.08.29-.21.34-.33.38-.22.07-.32.16-.31.38,0,.08-.03.1-.11.12-.27.08-.19.54-.55.54.24.38-.14.27-.28.33ZM46.48,16.81c.3-.1.36.17.53.24.51.24.92.73,1.57.64.13-.02,1.21-.25,1.25-.36.08-.26.27-.42.49-.56.27-.17.28-.52.45-.74.18-.23.4-.42.42-.73,0-.07.05-.15.12-.13.36.14.26-.18.24-.28-.04-.17,0-.3.11-.4.33-.28.24-.72.34-1.07.08-.25.22-.07.29-.19-.14-.05-.22-.16-.37-.23-.33-.16.17-.1.08-.25-.18,0-.52-.03-.5-.14.06-.38-.45-.27-.41-.57-.39.1-.51-.22-.71-.43-.04-.04-.08-.02-.14.01-.25.12-.62-.02-.82-.23-.07-.08-.13-.13-.18.05-.04.16-.16.4-.31.04-.03-.08-.15-.08-.16-.03-.04.4-.39.27-.57.27-.36,0-.53.22-.69.47-.04.06-.09.12-.11.16-.14.31-.26.62-.56.83,0,0-.01.03,0,.04.29.21-.02.36-.06.53-.03.12-.11.21-.1.37.02.25.1.55-.23.69-.08.04-.08.14-.04.17.24.18.11.42.03.56-.17.32.09.55.11.82.01.15.16.28-.07.45ZM46.04,31.84c-.29-.23-.48-.43-.06-.62.02,0,.01-.1,0-.14-.13-.33,0-.64.11-.93.06-.14.09-.23,0-.34-.16.09-.1.26-.2.47-.05-.26-.17-.4-.09-.59.06-.14.04-.22-.13-.15-.08.03-.12.05-.15-.04-.18-.48-.57-.34-.92-.29-.04,0-.1.11-.12.07-.19-.48-.43.21-.62-.03-.24.47-.75.52-1.14.8,0-.17.07-.28.16-.4-.15,0-.22,0-.25.18-.03.24-.09.53-.38.61-.21.06-.33.21-.37.37-.1.42-.57.71-.4,1.22.01.04-.03.1-.04.15-.11.47.09.71.58.66.05,0,.12-.02.16.01.21.17.21.18.44.05.19-.11.37-.04.55-.01.06,0,.08.04.17,0,.14-.06.26-.29.43-.16.04.03-.08.29-.2.41-.02.02,0,.07,0,.12.32-.42.32-.41.78-.46.11-.01.22-.14.33-.14.43,0,.65-.26.77-.6.1-.29.28-.29.59-.22ZM35.27,9.82c.12.07.06.31.24.29.25-.03-.03-.21.05-.29.05-.05.09-.12.14-.14q.61-.29.9-.75s.04-.09.07-.1c.17-.04.21-.17.29-.32.08-.15.1-.35.2-.45.22-.21.4-.4.42-.72,0-.04.07-.11.1-.11.09,0,.01.15.13.16.24-.32,0-.83.41-1.08,0,0-.01-.02-.01-.04q.02-.43.32-.85s.03-.06.02-.07c-.18-.22.02-.39.08-.58-.28-.17-.59.17-.82-.05-.11.4-.64.26-.78.61-.03.07-.33.16-.44-.07-.16.17.23.25.07.34-.14.07-.24.31-.47.19-.02,0-.26-.01-.19.09.14.22-.06.24-.13.34-.28.39-.79.53-1.04.97-.06.11-.3.3-.36.28-.37-.13-.19.11-.23.25-.05.15.08.31-.07.44-.19.16-.13.33-.09.54.07.36.07.75-.16,1.11.44-.23.88.35,1.34,0ZM30.85,33.85c-.03-.28-.05-.53-.33-.74-.24-.18-.43-.03-.63-.02-.55.02-.89.5-1.01.97-.1.35.15.61.06.93-.02.09.16.26.29.35.16.11.19-.16.24-.16.25,0,.19-.41.36-.32.31.17.31-.04.3-.21,0-.16.09-.22.18-.29.18-.13.29-.28.32-.52.05-.34.14.03.22,0ZM20.29,27.6c0-.17-.23-.1-.19-.25.07-.24.02-.56.32-.68.18-.07.05-.06-.01-.07-.17-.03-.34-.09-.5-.07-.07.01-.23-.09-.23.04,0,.39-.44.62-.36,1.04.02.12-.02.34-.1.37-.44.18.11.44-.06.63.13.12.21-.07.33-.05.03,0,.05,0,.08,0,.07-.01.13.13.2.01.01-.02,0-.08-.02-.11-.08-.1-.14.03-.21.03-.06,0-.13.05-.17-.03.22-.24.52-.44.61-.72.08-.25.18-.13.3-.14Z"/>
  </g>
</svg>