<svg width="89" height="93" viewBox="0 0 89 93" fill="none" xmlns="http://www.w3.org/2000/svg">
<g clip-path="url(#clip0_85_115)">
<path d="M52.7144 67.5108C52.8056 69.3276 51.3104 70.3268 50.1434 70.7447C48.9035 71.1989 48.32 72.1799 47.9918 72.8885C47.3901 74.1602 46.3872 75.3047 46.1867 76.8127C46.0773 77.6302 43.9074 79.3016 42.941 79.5741H42.9957C42.8316 79.4106 43.1234 78.7384 42.4669 79.0654C41.9564 79.3198 41.3729 79.556 40.9717 79.9557C39.7865 81.1365 38.1272 80.6642 36.7779 81.2274C36.4133 80.9367 36.6868 80.5734 36.6685 80.2463C36.6321 78.8838 34.8998 77.5757 33.5323 77.8845C33.3135 77.939 33.1129 77.9572 32.8941 77.9936C33.277 79.7013 31.4719 79.4651 30.7972 80.2463C30.5602 80.537 29.922 80.6824 30.5055 81.0094C31.636 81.6452 30.9066 82.0631 30.6513 82.808C29.9767 84.6974 28.755 86.2053 27.6974 87.8586C26.5669 89.6208 24.7617 90.184 23.0478 90.9471C22.6284 91.1287 22.0267 90.9471 22.519 91.7101C22.7925 92.128 22.3913 92.4005 22.0631 92.455C20.6409 92.673 19.1275 93.4724 17.7781 92.5458C16.6112 91.7464 15.0795 91.5284 14.2407 90.293C13.8031 89.6572 13.3108 89.7298 12.9279 90.0932C12.2168 90.7472 11.4874 90.8199 10.594 90.6927C9.49992 90.5655 8.33294 89.8388 7.29361 90.9107C7.29361 90.9107 6.29074 91.4194 6.74659 90.4747C6.87423 90.2749 6.89246 90.075 6.65542 89.9297C6.40014 89.7843 6.27251 89.9297 6.23604 90.184C5.81666 90.4384 6.49131 91.2377 5.85312 91.2377C4.79555 91.2377 3.64681 91.0742 2.86275 90.3112C1.45874 88.9123 1.05759 87.1319 0.929953 85.1516C0.63821 80.973 3.02686 78.1389 5.48844 75.2866C5.81666 74.9232 5.999 74.6325 5.65255 74.251C5.30611 73.8695 4.83202 73.7787 4.37617 73.924C1.60461 74.8142 -0.382893 73.2155 0.0182546 70.236C0.309998 68.183 0.838783 66.1483 2.3522 64.5495C2.46161 64.4223 2.49807 64.2407 2.57101 64.0772C2.64395 64.1862 2.75335 64.2952 2.78982 64.4223C3.00863 65.0037 3.28214 65.4034 3.90209 64.8039C4.08443 64.6222 4.59498 64.8039 4.46734 64.3678C4.285 63.6956 3.73798 63.5685 2.95392 63.6411C3.77445 62.4239 4.77732 61.57 5.81666 60.7707C6.1084 60.8978 6.38191 61.025 6.67365 61.134C5.68902 61.1522 6.25427 62.1332 5.81666 62.5147C5.90783 62.5874 5.98076 62.6964 6.07193 62.6964C6.78306 62.6964 6.63718 61.9879 6.89246 61.6064C6.92893 61.5519 6.94716 61.5155 6.98363 61.461C7.47595 61.1158 8.0959 60.8433 7.80416 59.9531C7.11127 60.2438 6.45485 60.4981 5.79842 60.7707C7.36654 58.0455 11.8156 56.0289 13.1649 57.9183C12.4903 55.9199 14.0037 56.3923 14.6601 55.9381C13.4385 52.4862 14.0766 50.6513 17.2129 48.5802C17.5958 48.3258 17.5411 47.363 18.3799 47.908C18.4528 48.0533 18.471 48.3622 18.7445 48.1623C18.9633 48.017 18.8539 47.799 18.7081 47.6355C18.4893 47.4356 18.234 46.9814 18.3981 46.9451C20.6226 46.6363 20.2762 43.5296 22.6101 43.1844C23.2119 43.0936 23.5765 41.513 24.0689 40.6046C24.4882 39.8597 24.0142 38.2973 25.7464 38.7697C25.9287 37.9703 25.8376 37.2618 25.4182 36.5169C24.9441 35.6812 24.2694 34.8091 24.5429 33.7918C24.78 32.8834 24.8894 32.9197 23.9595 32.8289C23.9048 32.8289 23.8501 32.8834 23.7953 32.9015C24.0142 31.6116 23.7771 31.5208 22.0449 32.1385C22.4096 32.6835 23.3213 32.4655 23.5218 33.1741C23.4124 33.2649 23.303 33.3376 23.1936 33.4284C23.1207 33.3921 23.0478 33.3739 22.9748 33.3376C23.0113 33.4102 23.0295 33.4829 23.066 33.5556C20.7503 33.5919 18.471 33.8826 16.3012 34.8091C15.2801 35.2633 14.4049 34.4095 13.4932 34.1369C11.9615 33.6827 9.22641 30.6124 8.75233 29.1227C8.69762 28.9592 8.46058 28.7957 8.49705 28.7048C9.24464 26.5065 8.53352 23.8541 9.66402 22.0191C10.6669 20.3841 11.4874 18.5128 13.2926 17.0775C15.0248 15.6968 16.9211 15.4243 18.6716 14.8248C20.2033 14.2979 21.8078 13.7892 23.4124 13.3169C24.7435 12.9172 26.2387 13.226 27.6245 12.8263C27.8068 12.7718 28.0621 12.9898 28.2991 13.008C28.8462 13.0443 28.9191 14.7703 29.8308 13.4259C29.7579 13.9527 30.9248 13.4804 30.5055 14.1889C30.2502 14.6249 29.8308 14.9338 30.5419 15.2608C30.7607 15.3698 30.8701 15.824 31.2166 15.5515C31.6542 15.2063 31.5448 14.7339 31.4536 14.2616C31.4354 14.1707 31.5083 14.0436 31.5266 13.9527C32.2012 14.0436 32.8941 14.1344 33.5688 14.2252C33.1676 15.7876 33.1676 15.7876 34.9181 15.5151C35.5198 15.4243 36.1397 15.4061 36.7597 15.3516C36.9603 15.3335 37.2885 15.3335 37.0697 15.0064C36.9603 14.8429 36.705 14.7703 36.5044 14.6613C37.4161 14.1889 37.5073 14.2252 38.2731 14.8429C39.7501 16.042 40.1695 17.5681 39.8412 19.403C39.7501 19.9117 39.2578 20.7656 39.8959 20.9109C40.37 21.0199 41.3364 20.8746 41.7193 20.275C42.4669 19.0942 43.9257 18.6581 44.6732 17.6771C45.3844 16.7142 46.2596 16.0965 47.0619 15.3335C47.6271 14.7884 48.1012 14.4796 48.7941 14.4251C50.1981 14.3161 50.964 13.0262 51.8027 12.3176C53.4803 10.8824 55.6136 10.8097 57.3276 9.68333C57.9658 9.26548 58.7863 9.39265 59.3881 8.4661C60.0992 7.37604 61.722 7.19437 62.9437 6.64934C63.8554 6.24965 64.84 5.9408 65.8064 5.74096C65.9887 5.70462 66.554 4.95975 66.6087 5.77729C66.6634 6.52217 66.9551 6.74018 67.6298 6.81285C67.8304 6.83102 67.9398 6.81285 67.9762 6.64934C68.1586 5.97714 67.7574 5.57745 66.9916 5.08692C68.2862 4.99609 69.1068 3.79702 70.3284 4.57823C70.529 5.05059 69.5991 5.63195 70.292 5.9408C71.0213 6.24965 71.3131 4.97792 72.1518 5.10509C72.553 5.1596 72.7718 4.90525 72.7353 4.46923C72.6988 4.17854 72.7353 3.85153 72.2977 4.14221C71.7689 4.46923 71.5501 3.63352 71.0578 3.83336C72.8083 2.85231 74.6681 2.19827 76.6556 1.79859C77.4762 1.63508 77.3303 2.32545 77.7314 2.7433C77.622 1.50791 78.1143 1.10822 79.1719 1.14455C79.7372 1.16272 80.2295 0.872039 80.74 0.581357C81.597 0.108999 82.7275 -0.672208 83.4569 1.05372C83.5663 1.30806 84.6603 2.61613 85.8455 1.4534C87.0125 0.290675 87.6872 1.03555 88.3436 2.56163C89.4559 5.2141 88.3071 7.88474 88.9088 10.5372C89.1277 11.5183 88.7812 13.2623 88.1066 13.662C87.3954 14.0799 86.7937 14.3161 86.9213 15.0973C87.0672 15.9148 86.7755 16.9685 86.9396 17.3682C87.6142 18.967 85.6267 19.512 85.9002 20.7837C84.0951 20.8746 85.0615 22.2917 84.8062 23.1092C84.6056 23.7451 84.3504 24.2538 83.858 24.7443C82.7275 25.8707 81.6882 27.0879 80.8312 28.505C80.5759 28.2325 80.503 27.4149 79.9013 27.7238C79.4089 27.9781 79.8101 28.4505 79.9377 28.8865C80.3754 30.5397 79.3725 31.8115 78.6249 33.1377C77.9685 34.3004 76.6009 35.0998 76.9291 36.7531C77.0568 37.4071 76.3274 37.3163 76.1086 37.0619C75.5981 36.4806 74.9963 36.4987 74.6499 36.9529C74.3217 37.3889 74.6681 37.716 75.2516 38.043C75.7986 38.3518 75.4157 39.3147 75.124 39.8234C74.7411 40.4956 73.957 40.6046 73.0818 40.1504C73.2823 41.0951 73.2641 41.8218 73.1 42.6212C72.9359 43.4388 72.8812 43.2026 72.5712 42.7484C72.48 43.8021 71.7689 44.2563 70.8208 44.4561C72.2065 46.2366 70.529 46.5999 69.5808 47.5446C68.1586 48.9617 69.2526 50.5968 71.7507 50.942C73.4464 51.1782 74.9781 51.6142 75.7439 53.3583C76.3092 54.6482 75.4157 55.9199 75.7075 57.2461C75.8351 57.7912 74.1758 56.5921 74.7046 58.0092C75.051 58.9357 75.361 59.8804 75.7622 60.7888C76.0721 61.4792 75.8716 63.5321 75.2698 64.1135C74.6316 64.7312 74.9599 65.7304 75.1057 66.0393C75.8169 67.3655 75.1057 68.3102 74.5222 69.2549C73.6105 70.672 73.2276 72.3616 71.933 73.5243C71.7142 73.2336 71.933 72.5069 71.1854 72.2526C70.3831 72.9248 70.9484 74.142 71.076 74.5599C71.6595 76.7218 70.1279 77.7574 69.0885 78.9928C68.7056 79.447 68.7421 79.9193 68.4503 80.2827C68.0127 80.8277 67.0828 81.1547 66.7181 80.8277C65.6423 79.8285 64.5665 80.5188 63.5272 80.5734C62.7066 80.6097 62.3784 80.3553 62.6337 79.6831C62.8525 79.0836 63.0531 78.5022 62.4696 78.1571C61.9955 77.8845 61.4667 77.83 61.4485 78.7929C61.4485 79.1199 58.6769 77.4667 58.5675 76.7763C58.3669 75.4137 58.4581 74.0148 57.6741 72.7795C57.4553 72.4343 58.1481 70.9627 58.5493 70.7628C59.0781 70.4722 58.9504 70.127 58.604 69.7818C57.3823 68.5464 57.4188 68.5101 58.4034 66.8568C58.6952 66.3663 58.9322 65.5487 58.1481 65.2036C57.3094 64.8039 56.2153 64.7312 55.9236 65.7486C55.5954 66.9476 55.3583 66.7296 54.8113 65.9848C54.2825 65.2762 54.0637 65.8031 53.8996 66.2573C53.6991 66.8023 53.0244 67.5472 52.6233 67.5653C52.5686 67.0203 52.1309 66.8568 51.748 66.9658C51.4745 67.0385 51.511 67.529 51.6751 67.7107C52.0215 68.0559 52.3133 67.4927 52.6597 67.529L52.7144 67.5108ZM70.8572 57.337C70.8572 57.337 70.6931 57.1008 70.6202 57.119C70.4196 57.1553 70.3831 57.3188 70.4561 57.5005C70.6566 57.773 70.7843 58.1909 71.0578 58.2999C71.4225 58.4452 71.386 59.1901 71.933 58.9357C72.3159 58.754 72.2977 58.3362 71.9877 58.1C71.623 57.8275 71.9877 56.4649 70.8572 57.3188V57.337ZM17.4499 81.2274C17.3588 81.3364 17.2676 81.4454 17.1764 81.5544C17.2311 81.5726 17.2676 81.6089 17.3223 81.6271C17.3588 81.4999 17.3952 81.3546 17.4499 81.2274C16.757 81.0094 16.1006 80.5734 15.3166 80.864C14.9701 80.9912 14.6054 81.0639 14.6966 81.5181C14.7878 81.9904 15.0977 82.1721 15.5901 81.9723C16.21 81.7179 16.8482 81.4817 17.4682 81.2456L17.4499 81.2274ZM21.352 28.0326C21.352 27.9054 21.4067 27.8146 21.5161 27.7419C22.6648 28.287 23.8501 28.5776 25.1082 28.1235C25.2176 28.1961 25.3999 28.3596 25.4182 28.3415C25.6187 28.1598 25.5093 27.9963 25.3635 27.8328C24.5065 27.6511 23.7771 26.7609 22.7925 27.4513C22.7013 27.3604 22.5919 27.2514 22.5007 27.1606C22.519 27.0697 22.5554 26.9971 22.5919 26.9244C23.0842 26.7609 23.5765 26.5792 24.0871 26.4157C26.2387 25.7253 29.1197 26.8336 29.3932 28.8865C29.5391 29.9584 30.1408 30.1037 30.5602 30.0856C31.326 30.0492 31.9095 29.704 32.5294 28.8865C34.4075 26.4157 33.3135 23.6179 33.9699 21.0744C34.0246 21.2198 34.0611 21.4014 34.2616 21.2561C34.3164 21.2198 34.2069 20.9836 34.1705 20.8382C33.7146 20.275 34.8998 18.8761 33.7146 19.076C32.7847 19.2395 31.5813 18.8943 31.3077 19.076C30.1955 19.8027 29.539 19.294 28.5909 18.9306C28.2262 18.7853 27.588 18.1131 26.9498 18.6581C26.0381 19.4393 24.9988 19.185 23.9412 18.9851C22.756 18.7671 21.5343 18.8943 20.1303 19.294C20.7867 18.6945 20.4585 18.0949 20.732 17.5499C20.4585 17.5499 20.2762 17.5499 20.1121 17.6044C19.9662 17.6589 19.7292 17.7861 19.7109 17.8951C19.5468 19.8027 18.1611 20.6566 16.6659 21.4014C16.0824 21.6921 15.663 22.3462 15.6995 22.764C15.7906 24.0176 15.5171 24.3446 14.3137 23.7996C14.0402 23.6724 13.4202 23.7451 13.4202 24.3446C13.4202 24.6534 13.2196 25.1258 13.6573 25.2348C13.8031 25.2711 14.0766 24.817 14.4231 24.4718C14.4231 25.5073 15.1342 26.5429 14.3319 27.1242C13.6026 27.6329 13.9125 28.4323 14.0402 28.4505C14.8789 28.5776 14.9519 29.9584 16.3377 29.4679C17.8875 28.9228 19.4192 28.0145 21.1879 28.178C21.3155 28.2325 21.4249 28.2688 21.5526 28.3233C21.4796 28.2325 21.4067 28.1235 21.3338 28.0326H21.352ZM65.5876 55.175C65.3688 54.8843 65.8611 54.3575 65.4417 54.2848C64.2748 54.0668 63.6366 54.9389 62.7431 55.6292C63.9101 55.9562 64.6759 55.1024 65.6058 55.1387C65.2229 56.1742 64.7306 57.2643 63.4907 57.2643C62.3055 57.2643 62.1961 57.446 62.5061 58.6087C62.7431 59.5171 62.9801 60.0258 63.8189 60.4981C64.8582 61.0977 65.2776 62.0969 65.0588 63.4413C64.7853 65.1127 63.6001 66.3481 63.3266 68.0559C63.1078 69.5093 62.3602 70.781 62.816 72.4161C63.126 73.5062 63.7642 73.9967 64.53 74.4145C65.3141 74.8324 65.6788 73.8877 66.1893 73.5425C66.6634 73.2336 67.0099 72.7068 67.3381 72.2344C67.9763 71.3442 69.1615 70.3087 69.0338 69.5093C68.6144 66.8931 70.3831 64.7494 70.2555 62.2604C70.2373 61.8244 70.4743 61.8244 70.7843 62.0424C71.4589 62.4784 71.623 61.7699 71.9877 61.4974C72.1336 61.3884 72.2248 61.2612 72.0424 61.134C71.5683 60.807 71.0943 60.6617 70.6202 61.1522C70.529 61.2612 70.3284 61.3339 70.2373 61.1522C70.2008 59.8986 69.9638 58.645 70.2008 57.4823C70.5108 55.9926 68.2862 56.2651 68.6327 54.8298C68.7056 54.521 68.031 54.7027 67.9762 54.8662C67.6845 55.7564 67.3016 55.502 66.9004 55.0115C66.3717 54.3575 66.007 55.066 65.5694 55.1387L65.5876 55.175ZM43.1416 71.435C43.2328 71.4895 43.3239 71.5622 43.4151 71.6167C43.4151 71.4895 43.4151 71.3442 43.3969 71.217C43.5063 70.7628 41.9381 70.5267 43.2692 69.909C43.8162 69.6546 43.5063 69.3639 43.1781 69.0188C42.0658 67.8197 40.9353 66.6025 40.1148 65.1491C39.9689 64.8765 39.8595 64.4587 39.4219 64.4223C36.2492 64.1135 34.9545 61.461 33.1311 59.4626C32.9853 59.2991 32.7118 59.0992 33.0764 58.9902C34.2616 58.645 33.4958 57.882 33.587 57.3733C32.6753 57.0281 32.3835 59.2627 31.253 57.664C29.4114 55.066 26.5122 53.1766 25.8558 49.7792C25.7282 49.107 24.7435 49.7974 24.8165 49.0162C24.3788 48.9799 24.1418 49.3251 24.0506 49.6157C23.9595 49.9791 23.8136 50.2698 23.5218 50.4696C22.0449 51.5233 20.6773 52.6497 19.9297 54.3938C19.8203 54.6663 19.3098 54.9752 19.9297 55.0479C21.2608 55.2114 20.6956 56.9918 21.9355 57.2098C22.0449 57.228 22.1908 57.9002 22.0996 58.1909C21.7349 59.3899 22.2455 60.0985 23.2301 60.6617C23.8501 61.025 24.1236 61.6427 24.4518 62.2967C25.0535 63.4958 25.1447 65.0582 26.5304 65.8031C26.2569 65.8576 25.8193 65.8394 25.7464 65.9848C25.5823 66.3299 24.8165 66.0029 25.0353 66.6751C25.2358 67.2565 25.7099 66.9113 26.0564 67.0203C26.4757 67.1657 26.6945 66.8205 27.0228 66.766C28.5544 66.8931 29.4296 68.0014 30.4325 68.9461C30.9431 69.4184 30.7425 70.4358 31.8183 70.563C32.0371 70.5993 34.4258 70.2905 33.1676 72.1981C33.0947 72.3253 33.4411 72.5251 33.6964 72.4706C35.1733 72.1254 36.3403 72.4706 37.1791 73.8332C37.3432 74.1057 37.8902 74.3237 38.2367 74.2874C38.5649 74.251 38.7654 73.7423 38.9295 74.5054C39.2395 76.086 40.2424 75.0686 40.3518 74.5962C40.68 73.3245 42.0293 72.7976 42.2846 71.5259C42.394 71.0172 42.8498 71.3805 43.1598 71.4169L43.1416 71.435ZM82.8916 12.4085C82.8005 13.226 83.8398 13.6439 83.6392 14.5159C83.6392 14.5704 83.8763 14.7521 84.0039 14.7703C84.2774 14.7703 84.4233 14.5704 84.4051 14.3342C84.3686 13.9527 84.1133 13.5167 84.2045 13.1897C84.3686 12.6447 84.4598 12.1178 83.9674 11.7908C83.2745 11.3366 83.5116 12.6628 82.8734 12.4448C82.7093 10.4464 82.5087 8.44793 83.9674 6.77651C82.5634 5.50478 81.1594 6.77651 79.7189 6.83102C77.7861 6.88552 76.5827 8.64778 74.6499 8.5206C73.957 8.48427 73.4829 9.22914 72.553 8.28442C71.9148 7.63039 70.6931 9.21097 69.8726 9.86501C69.2162 10.3737 68.6509 10.7552 67.8851 10.8824C67.1557 9.71967 68.7968 10.4464 68.7968 9.93768C68.2315 9.31998 67.8668 10.41 67.3381 9.93768C67.0828 9.7015 66.7181 9.50165 66.4264 9.8105C66.0617 10.2284 66.9916 10.3192 66.7363 10.7734C65.1865 11.8453 63.8918 13.4259 61.6673 13.0988C61.4303 13.0625 60.9744 13.553 60.8468 13.88C60.6644 14.3706 61.3026 14.0617 61.485 14.3342C62.0502 15.2245 63.1078 15.4425 63.9283 15.9693C64.6394 16.4235 64.0742 17.6589 65.2047 17.8588C65.387 17.8951 66.0435 18.4583 65.5511 18.9488C64.6759 19.8027 65.8611 20.1842 66.007 20.1115C66.9552 19.6392 67.3016 20.7474 68.1586 20.7837C69.3803 20.8201 69.3803 22.6732 70.5837 23.0547C69.7814 24.3264 71.1854 24.3264 71.6048 24.4173C72.48 24.5989 72.863 25.1985 73.337 25.7617C74.0846 26.67 74.6134 27.6874 74.7228 28.9592C76.0174 26.9062 78.0414 25.5255 78.479 22.8367C78.8072 20.9109 80.3754 19.2213 81.3782 17.4227C81.8158 16.6597 81.8158 17.0049 82.0529 17.3501C82.6364 18.2221 83.1104 17.3319 83.1469 17.1139C83.3657 15.8422 82.3629 16.3508 81.5606 16.4235C82.4176 15.0609 82.3811 13.6802 82.9281 12.4448L82.8916 12.4085ZM26.1293 72.3071C25.6734 72.6159 25.6005 72.2708 25.4364 71.9619C24.4518 70.2178 23.1389 68.4737 21.6073 67.4927C19.1457 65.9121 18.471 63.5321 17.3041 61.2793C15.2801 61.7517 13.1285 62.2059 11.3051 63.6048C10.7945 63.9863 10.1381 64.6222 9.02583 64.0045C8.49705 63.7138 7.73122 65.6577 7.56712 66.4753C7.36654 67.4563 6.83776 68.1104 6.25427 68.4374C5.85312 68.6554 5.81666 68.9643 5.87136 69.0188C6.81952 69.5638 6.07193 70.454 6.25427 71.217C6.81952 70.9082 7.05657 70.4903 7.34831 70.0906C7.76769 69.4911 8.26001 68.4919 8.73409 68.4919C9.95577 68.4919 10.8857 67.529 12.1621 67.7652C13.7484 68.0559 13.9855 69.5819 14.9883 70.3995C15.5901 70.89 15.2619 71.2352 14.8789 71.8166C14.3137 72.6704 12.8914 72.7613 12.9461 74.1602C12.9826 74.9232 12.8003 75.9224 11.7062 74.7234C11.4692 74.469 10.7763 74.3964 10.4663 74.8869C10.3022 75.1412 10.1746 75.6318 10.3022 75.8498C10.7581 76.6491 10.9404 77.2305 10.4846 77.5575C9.8646 78.0117 9.17171 78.7929 8.24177 77.83C8.33294 78.8293 8.47882 79.7921 7.43948 80.3735C7.36654 80.2645 7.29361 80.1555 7.22067 80.0283C7.16597 80.1373 7.05657 80.2645 7.09303 80.3372C7.20244 80.5552 7.34831 80.3735 7.47595 80.3372C7.1295 81.3001 6.94716 82.3719 6.38191 83.1895C6.0537 83.68 5.85312 83.898 6.19957 84.4249C6.52778 84.9154 6.91069 84.9699 7.47595 85.0244C8.86173 85.1879 9.93753 84.0615 11.2868 84.2069C11.3598 83.1713 12.8185 83.4257 12.9644 82.3901C13.2743 80.2282 14.8607 78.8474 16.5929 79.4106C17.5411 79.7195 18.471 80.4462 19.1092 81.2092C19.6927 81.9178 19.1457 82.7535 18.5987 83.462C18.4528 83.6437 18.8357 84.1887 18.7263 84.4249C18.3069 85.2061 20.0392 86.7685 17.6687 86.8775C19.0728 86.8412 20.3127 86.9865 21.352 86.0418C21.8443 85.6058 22.0996 85.8056 21.8078 86.4415C21.8261 87.0774 20.9509 87.3317 21.1514 88.4036C21.4796 87.5679 22.8289 87.8222 22.1178 86.6413C22.6466 85.4423 23.1936 84.2977 24.2147 83.3348C24.7253 82.8443 25.0535 84.3159 25.2541 83.1895C25.564 81.4272 25.5823 79.5378 26.9498 78.1026C27.1504 77.8846 26.2934 77.3395 27.1322 77.3032C27.7339 77.285 27.9527 77.2305 27.9892 76.6673C28.0803 75.3047 27.8433 74.0512 26.6034 73.2155C26.9863 73.1246 27.278 72.7068 27.7339 72.9066C27.9892 73.0156 28.2809 73.5243 28.5362 72.9611C28.8097 72.3616 28.1897 72.5796 27.9709 72.4343C27.6062 72.1617 27.2963 71.7802 26.8951 71.5986C26.0381 71.217 26.1111 71.8529 26.1111 72.3979L26.1293 72.3071ZM61.7585 22.5823C62.1961 21.4196 62.7978 22.8912 63.3813 22.5097C63.5454 22.4007 64.0195 22.655 64.0377 22.1463C64.0377 21.9465 61.722 20.4567 61.5397 20.5294C61.2114 20.6566 61.1203 20.8382 61.2661 21.1834C61.4303 21.6013 61.5032 22.0555 61.6308 22.4733C60.9015 21.8375 60.4456 20.9654 59.461 20.5112C58.6952 20.1479 58.3487 19.1487 57.6558 18.5491C57.3094 18.2403 57.8929 16.5507 56.6165 18.0404C56.5071 17.8406 56.4342 17.6226 56.3065 17.4409C55.413 16.3327 54.7019 16.696 53.6079 17.4954C52.7327 18.1313 51.9304 18.6581 51.4745 19.6392C51.4745 19.6392 50.8728 19.512 50.7634 19.3303C49.9611 17.9859 49.4141 18.5128 48.8671 19.5665C49.0494 19.5847 49.2135 19.6028 49.3776 19.621C49.5235 19.6573 49.6876 19.6937 49.8517 19.7482C49.0312 21.0381 49.0494 21.0381 47.5542 21.5104C47.0072 21.6921 46.5513 22.0555 46.3143 22.4915C45.8949 23.2909 44.7826 23.3272 44.5274 24.2356C44.3815 24.1629 44.2539 24.1084 44.108 24.0357H44.1445C44.4544 23.4907 44.108 23.4362 43.7068 23.4907C43.0869 23.5816 42.9957 24.2356 43.1598 24.5081C43.798 25.58 42.5946 26.1432 42.3393 26.125C40.7347 25.9797 40.8441 27.5784 40.2789 28.2506C39.4948 29.159 37.2885 32.2293 36.3221 31.975C35.0457 31.6298 34.6993 32.7017 33.35 32.8834C35.0092 33.3557 35.9392 32.7017 37.0879 32.2112C35.4469 34.3549 35.1186 34.6456 34.3711 34.7001C33.6052 34.7607 33.3013 35.233 33.4594 36.1172V36.0809C33.4594 36.3534 31.5083 38.3518 31.4171 38.2246C30.706 37.2436 30.9248 38.2973 30.9066 38.479C30.8519 39.0604 30.9066 39.6417 30.8701 40.2231C30.8519 40.7499 31.0525 41.5675 30.0314 40.8953C29.9767 40.859 29.6485 41.1133 29.5755 41.295C28.7732 43.1299 29.1379 44.8013 30.0496 46.5272C30.9978 48.3077 32.6206 49.5794 33.4958 51.378C33.6052 51.6142 33.9517 51.7595 33.824 52.1229C33.4411 53.1948 33.6599 52.9222 34.6446 53.7035C35.4833 54.3757 36.7597 54.4483 37.2156 55.6837C37.6349 56.8283 38.3461 57.7912 39.7501 58.0092C40.2789 58.0818 40.5524 58.5905 40.8806 59.0266C41.9564 60.4073 43.1416 61.7154 44.2903 63.0598C43.7251 63.0961 43.1416 63.0779 42.4122 63.6411C44.5456 64.0953 46.4966 64.4768 48.3747 65.1309C48.6665 65.2399 49.0859 64.8402 49.3958 64.7312C50.9093 64.168 51.0734 62.5329 52.1856 61.6245C54.0273 60.1166 55.7048 58.3544 57.2547 56.5013C57.7835 55.8836 57.7288 55.1205 58.1117 54.4665C59.0598 52.7587 61.5579 52.6497 61.9773 50.5241C62.2508 50.7785 61.4485 51.6142 62.3602 51.4143C63.0348 51.269 63.436 50.4333 64.2383 50.3788C64.2565 50.3788 64.2383 49.9609 64.2565 49.7247C64.1654 49.7247 64.0195 49.7247 64.0012 49.7247C63.746 51.1055 62.4514 49.8883 61.9226 50.5605C62.1414 50.1608 61.6126 49.6157 62.4696 49.2524C62.9619 49.0344 63.3995 48.017 63.7642 47.4538C64.6759 46.1094 65.0224 44.3471 66.6634 43.3297C68.031 42.4759 68.4503 40.6046 69.3985 39.3329C70.3102 38.1338 69.6355 36.5351 70.8937 35.5903C71.2219 35.3542 70.7843 30.9213 70.4743 30.7759C68.0492 29.704 66.9552 27.3604 65.2959 25.58C65.4235 25.035 66.5905 25.4892 66.2805 24.5444C66.1893 24.2719 66.007 23.8541 65.8429 23.8359C65.2229 23.7814 65.0406 24.1266 64.9494 24.7806C64.8765 25.362 64.4936 24.8896 64.2201 24.7443C63.199 24.2174 62.6337 23.2 61.7402 22.546L61.7585 22.5823ZM3.99326 67.311C4.01149 66.5116 3.59211 66.4026 3.30037 66.5843C2.62571 67.0203 2.55278 67.8197 2.3522 68.5282C2.2428 68.9097 2.71688 68.8552 2.77158 68.7826C3.24567 68.2557 3.68328 67.6925 3.99326 67.3292V67.311ZM9.42698 86.7685C9.46345 86.6777 9.51815 86.5868 9.55462 86.496C9.09877 86.169 8.66116 85.8238 8.16884 85.5513C7.87709 85.3878 7.51242 85.3151 7.1842 85.5513C6.94716 85.733 6.9654 85.9691 7.0748 86.169C7.23891 86.496 7.54888 86.6413 7.9318 86.6595C8.42411 86.6595 8.93467 86.7322 9.42698 86.7503V86.7685ZM32.0371 55.8109C31.4354 54.8662 30.4325 54.6118 30.0131 53.7943C29.9767 53.7216 29.4843 53.8488 29.2291 53.9215C29.1926 53.9215 29.2291 54.3575 29.2655 54.3575C30.2866 54.5392 30.5237 56.0107 32.0371 55.8109ZM76.7833 32.1385C76.6921 31.3573 77.7314 31.2846 77.385 30.4307C77.1844 29.922 77.2026 30.2309 76.8927 30.2672C75.8898 30.3944 76.6921 31.3028 76.1998 31.6116C76.3456 31.757 76.5097 31.8842 76.765 32.1385H76.7833ZM15.1342 52.7769C14.0402 53.6671 15.5718 54.1758 15.2436 54.9025C15.1524 55.0842 14.5507 55.7201 15.4989 55.5747C15.9365 55.502 16.3012 55.3204 16.0459 54.7753C15.7542 54.1213 15.4442 53.4854 15.116 52.7769H15.1342ZM23.8865 63.9682C22.9931 64.168 22.2637 64.2043 21.589 63.3323C22.0631 65.5487 22.0814 65.5487 23.8865 63.9682ZM37.4708 59.3173C37.9814 59.9895 38.7654 60.4436 38.8019 61.4429C38.6925 60.5163 38.6925 59.5353 37.4708 59.3173ZM70.7478 27.5058C71.2401 29.4315 72.2612 28.7593 73.2094 28.2688C73.4464 28.1416 73.3006 27.8691 73.2094 27.6511C73.1182 27.4149 72.8994 27.4513 72.8265 27.5603C72.1518 28.7412 71.4954 27.5603 70.7296 27.4876L70.7478 27.5058ZM59.4975 16.805C59.771 15.9875 60.4274 17.2592 60.9379 16.9504C61.4303 16.6597 61.0838 16.3145 60.8103 16.1692C59.9715 15.6786 59.8804 16.8959 59.4792 16.8232L59.4975 16.805ZM24.6888 16.0057C22.3731 15.4425 23.3942 16.8595 23.4671 18.2766C23.6677 17.0594 23.9048 16.3872 24.6888 16.0057ZM27.9345 38.6607C29.2291 38.6062 30.0678 38.4063 29.8673 37.0256C29.7761 38.0793 28.7732 38.0793 27.9345 38.6607ZM82.144 19.6573C81.8158 20.0389 81.3417 20.3659 81.7247 20.9472C81.7794 21.0381 82.1258 21.0744 82.1805 21.0199C82.454 20.6384 82.8369 20.2569 82.144 19.6573ZM82.5452 22.5278C82.9099 22.2008 83.3292 21.9828 83.1469 21.4378C83.1287 21.3651 82.764 21.2924 82.6911 21.3651C82.3811 21.6558 82.3811 22.0191 82.5452 22.5278ZM5.41551 90.0387C5.59785 90.0932 5.76195 90.1477 5.92606 90.1659C5.94429 90.1659 5.999 89.9842 6.03546 89.8933C5.87136 89.857 5.72549 89.7843 5.56138 89.7662C5.52491 89.7662 5.47021 89.9297 5.41551 90.0387ZM40.1695 21.2016C40.0601 21.0926 39.9506 20.9654 39.9142 20.9836C39.7683 21.0381 39.6224 21.1471 39.4766 21.2379C39.5677 21.2924 39.6589 21.4196 39.7318 21.4014C39.8777 21.3833 40.0053 21.2743 40.1512 21.1834L40.1695 21.2016ZM80.2112 26.9789C80.2112 26.9789 80.1018 26.8154 80.0654 26.7246C80.0289 26.8154 79.956 26.9062 79.956 26.9971C79.956 27.0879 80.0471 27.1606 80.1018 27.2514C80.1383 27.1606 80.193 27.0697 80.2295 26.9789H80.2112ZM54.5196 60.3165C54.5196 60.3165 54.4649 60.4073 54.4831 60.4436C54.5561 60.6071 54.6472 60.589 54.7019 60.4436C54.7019 60.4073 54.6655 60.3528 54.629 60.3346C54.6108 60.3346 54.5561 60.3346 54.5196 60.3346V60.3165ZM21.899 51.4143C21.899 51.4143 22.0084 51.3235 22.0084 51.2872C22.0084 51.2508 21.9355 51.2145 21.899 51.16C21.8625 51.1963 21.7896 51.2508 21.7896 51.2872C21.7896 51.3235 21.8625 51.3598 21.899 51.4143ZM26.2205 49.2524C26.2205 49.2524 26.1293 49.3432 26.1293 49.3796C26.1293 49.4159 26.2022 49.4522 26.2569 49.4886L26.3481 49.2887C26.3481 49.2887 26.2569 49.2524 26.2205 49.2524ZM82.217 22.6005C82.217 22.6005 82.1258 22.5278 82.0893 22.4915C82.0529 22.5642 82.0164 22.6368 81.9982 22.7277C81.9982 22.7458 82.0711 22.8003 82.1076 22.8185C82.144 22.7458 82.1805 22.6732 82.217 22.6005Z" fill="#25201D"/>
<path d="M36.5774 14.7158C36.7779 14.8248 37.0332 14.8974 37.1426 15.0609C37.3614 15.388 37.0332 15.388 36.8326 15.4061C36.2127 15.4606 35.5927 15.4788 34.991 15.5696C33.2223 15.8421 33.2406 15.8603 33.6417 14.2797C34.1705 13.5894 34.754 13.7529 35.2098 14.2797C35.611 14.7521 36.0486 14.7703 36.5774 14.7158Z" fill="#D0D7C9"/>
<path d="M71.076 3.83335C71.5684 3.6335 71.7872 4.46922 72.3159 4.1422C72.7718 3.85152 72.7353 4.17853 72.7536 4.46922C72.79 4.90524 72.5712 5.15958 72.1701 5.10508C71.3313 4.97791 71.0396 6.24964 70.3102 5.94079C69.6173 5.65011 70.5655 5.06875 70.3467 4.57822C70.6567 4.39654 70.4014 3.68801 71.0578 3.83335H71.076Z" fill="#D0D7C9"/>
<path d="M23.613 33.2285C23.4124 32.52 22.5007 32.738 22.136 32.193C23.8683 31.5753 24.1053 31.6843 23.8865 32.956C23.7953 33.0469 23.7042 33.1377 23.613 33.2285Z" fill="#D0D7C9"/>
<path d="M42.9592 79.5741C42.9592 79.5741 43.0139 79.7195 43.0322 79.7921C42.9592 79.7921 42.8863 79.7921 42.8134 79.7921C42.8681 79.7195 42.941 79.665 42.9957 79.5923L42.941 79.5741H42.9592Z" fill="#25201D"/>
<path d="M23.1571 33.6101C23.1571 33.6101 23.1024 33.4647 23.066 33.3921C23.1389 33.4284 23.2119 33.4466 23.2848 33.4829L23.2483 33.5919L23.1389 33.6282L23.1571 33.6101Z" fill="#D0D7C9"/>
<path d="M61.9773 50.5423C61.5579 52.6679 59.0416 52.7769 58.1117 54.4847C57.747 55.1569 57.7835 55.9017 57.2547 56.5194C55.7048 58.3725 54.0273 60.1166 52.1857 61.6427C51.0734 62.5511 50.9093 64.1862 49.3959 64.7494C49.0859 64.8584 48.6665 65.258 48.3748 65.149C46.4967 64.495 44.5274 64.1135 42.4123 63.6593C43.1416 63.0961 43.7433 63.1143 44.2904 63.0779C43.1416 61.7335 41.9564 60.4255 40.8806 59.0447C40.5524 58.6087 40.2789 58.1 39.7501 58.0273C38.3461 57.8275 37.6349 56.8464 37.2156 55.7019C36.7597 54.4665 35.4651 54.3938 34.6446 53.7216C33.6599 52.9404 33.4411 53.2129 33.824 52.141C33.9517 51.7777 33.6235 51.6323 33.4958 51.3962C32.6206 49.5976 30.9978 48.3258 30.0496 46.5454C29.1197 44.8013 28.7732 43.1299 29.5755 41.3131C29.6485 41.1315 29.9767 40.8771 30.0314 40.9134C31.0525 41.5856 30.8519 40.7681 30.8701 40.2412C30.8884 39.6599 30.8701 39.0785 30.9066 38.4972C30.9066 38.3155 30.6878 37.2799 31.4172 38.2428C31.5083 38.37 33.4594 36.3715 33.4594 36.099C33.5688 36.1717 33.6782 36.2444 33.8058 36.2989C33.8241 36.1899 33.8423 36.099 33.8605 35.99C33.7329 36.0264 33.6052 36.0809 33.4594 36.1172C33.3013 35.233 33.6052 34.7607 34.3711 34.7001C35.1004 34.6456 35.4286 34.3549 37.0879 32.2112C35.9392 32.7017 35.0093 33.3557 33.35 32.8834C34.6993 32.7017 35.0457 31.6298 36.3221 31.975C37.2885 32.2293 39.4948 29.159 40.2789 28.2506C40.8624 27.5784 40.753 25.9797 42.3393 26.125C42.6128 26.1432 43.798 25.58 43.1598 24.5081C42.9957 24.2356 43.0869 23.5815 43.7069 23.4907C44.108 23.4362 44.4545 23.4907 44.1445 24.0357C44.1992 24.1447 44.2356 24.2356 44.2721 24.3446C44.3086 24.3264 44.3815 24.2901 44.3815 24.2719C44.3998 24.0539 44.2721 24.0176 44.0898 24.0539C44.2356 24.1266 44.3633 24.1811 44.5092 24.2537C44.7644 23.3454 45.8767 23.2909 46.2961 22.5097C46.5331 22.0736 46.989 21.7103 47.536 21.5286C49.0129 21.0562 49.0129 21.0381 49.8335 19.7663C49.6694 19.73 49.5235 19.6755 49.3594 19.6392C49.1953 19.6028 49.0312 19.6028 48.8488 19.5847C49.3959 18.5309 49.9611 18.0041 50.7452 19.3485C50.8546 19.5302 51.4563 19.6755 51.4563 19.6573C51.9304 18.6763 52.7327 18.1676 53.5897 17.5136C54.6837 16.7142 55.4131 16.3508 56.2883 17.4591C56.4342 17.6226 56.5071 17.8587 56.5983 18.0586C57.8564 16.5688 57.2729 18.2584 57.6376 18.5673C58.3305 19.1668 58.6769 20.166 59.4428 20.5294C60.4092 20.9836 60.8833 21.8556 61.6126 22.4915V22.6005H61.722C62.6155 23.2545 63.1807 24.2719 64.2018 24.7988C64.4753 24.9441 64.84 25.4165 64.9312 24.8351C65.0224 24.1992 65.2047 23.8359 65.8247 23.8904C65.9888 23.8904 66.1711 24.3264 66.2623 24.5989C66.5723 25.5436 65.4053 25.0895 65.2776 25.6345C66.9369 27.4149 68.0492 29.7585 70.4561 30.8304C70.7661 30.9758 71.1854 35.4087 70.8755 35.6448C69.6173 36.5896 70.292 38.1883 69.3803 39.3874C68.4139 40.6591 68.0127 42.5304 66.6452 43.3842C65.0224 44.4016 64.6759 46.1457 63.746 47.5083C63.3631 48.0533 62.9437 49.0889 62.4514 49.3069C61.6126 49.6702 62.1232 50.2153 61.9044 50.5968L61.9408 50.5604L61.9773 50.5423ZM63.436 25.9252C63.4725 25.5981 63.436 25.362 63.0349 25.58L63.0896 25.5436C63.0896 24.9259 62.5243 24.6716 62.1779 24.7261C60.5915 24.9623 59.5157 23.7451 58.604 23.0183C57.2182 21.9101 55.8325 21.6921 54.2826 21.6739C51.7298 21.6376 49.8882 22.8548 48.6665 25.035H48.703C48.5753 25.035 48.4295 25.0713 48.3018 25.0895C47.4813 25.4165 47.4448 26.234 47.1348 26.9062C46.1137 27.7783 45.9679 29.0863 45.4209 30.3581C46.0773 29.9039 46.5878 29.7585 47.1348 30.3762C47.5907 30.9031 47.0072 30.8486 46.8796 31.0666C46.2596 32.1748 45.7855 30.9939 45.1838 30.9576C45.1291 31.8841 45.4391 32.8834 44.6368 33.6646C44.5274 33.7736 44.5092 33.9916 44.5092 34.1733C44.418 37.4071 46.3143 39.9869 47.4266 42.821C47.536 43.0754 47.7366 43.3661 47.9736 43.4751C50.1799 44.3835 51.6204 46.8361 54.4102 46.5454C56.1607 46.3637 57.9658 47.0904 59.6251 46.7998C62.2143 46.3637 63.6366 44.0383 65.2594 42.2033C65.7153 41.6947 65.6059 40.6409 66.0982 40.2412C66.7911 39.678 65.9523 39.1149 66.4993 38.4608C67.5387 37.2073 67.3199 35.2815 66.9916 33.9371C66.4993 31.9023 65.2959 30.0674 65.2412 27.8328C65.2412 27.6148 64.913 26.7427 64.1654 26.7609C64.2201 26.6519 64.2018 26.561 64.1107 26.4884C64.0195 26.343 64.0742 26.016 63.7278 26.1795L63.7825 26.2158C63.8736 25.8343 63.7095 25.7435 63.3631 25.8707H63.3995L63.436 25.9252Z" fill="#6EBD6C"/>
<path d="M7.45774 80.319C8.47884 79.7376 8.33297 78.7566 8.26004 77.7755C9.18997 78.7384 9.88286 77.9572 10.5028 77.503C10.9769 77.176 10.7763 76.5765 10.3205 75.7953C10.1928 75.5773 10.3205 75.0867 10.4846 74.8324C10.7946 74.36 11.4874 74.4145 11.7245 74.6689C12.8368 75.8679 13.0009 74.8687 12.9644 74.1057C12.9097 72.7068 14.3319 72.6159 14.8972 71.7621C15.2801 71.1807 15.5901 70.8355 15.0066 70.345C14.0037 69.5275 13.7667 68.0014 12.1803 67.7107C10.904 67.4745 9.97403 68.4374 8.75235 68.4374C8.27827 68.4374 7.78595 69.4366 7.36657 70.0361C7.09306 70.4358 6.83779 70.8537 6.27253 71.1625C6.10843 70.3995 6.83779 69.5093 5.88962 68.9643C5.81668 68.9279 5.87139 68.6009 6.27253 68.3829C6.85602 68.074 7.3848 67.42 7.58538 66.4208C7.74948 65.6032 8.51531 63.6593 9.0441 63.95C10.1746 64.5677 10.8128 63.95 11.3233 63.5503C13.1467 62.1514 15.2983 61.6972 17.3223 61.2249C18.4893 63.4958 19.1639 65.8758 21.6255 67.4382C23.1754 68.4192 24.47 70.1633 25.4547 71.9074C25.637 72.2163 25.6917 72.5614 26.1476 72.2526V72.1981C26.0017 72.6159 26.4028 72.5433 26.5852 72.6704C26.5669 72.7068 26.494 72.7613 26.5122 72.7976C26.5487 72.8885 26.6216 72.9793 26.6581 73.0701C27.898 73.924 28.1351 75.1594 28.0439 76.522C28.0074 77.0852 27.7886 77.1215 27.1869 77.1578C26.3664 77.1942 27.2051 77.7574 27.0046 77.9572C25.637 79.3925 25.6188 81.2819 25.3088 83.0442C25.1082 84.1887 24.78 82.7171 24.2695 83.1895C23.2484 84.1524 22.7013 85.2969 22.1726 86.496C22.0631 86.4233 21.972 86.3507 21.8626 86.278C22.1543 85.6421 21.899 85.4423 21.4067 85.8783C20.3674 86.823 19.1092 86.6777 17.7235 86.714C20.0939 86.605 18.3617 85.0426 18.781 84.2614C18.9087 84.0252 18.5258 83.4802 18.6534 83.2985C19.1822 82.59 19.7474 81.7724 19.1639 81.0457C18.5258 80.2645 17.5958 79.5378 16.6477 79.2471C14.9154 78.6839 13.3291 80.0647 13.0191 82.2266C12.8732 83.2622 11.4145 83.0078 11.3416 84.0434C9.99226 83.9162 8.91646 85.0244 7.53068 84.8609C6.96542 84.7882 6.56428 84.7337 6.2543 84.2614C5.90785 83.7527 6.10843 83.5165 6.43664 83.026C6.98366 82.2084 7.18423 81.1366 7.53068 80.1737L7.49421 80.21L7.45774 80.319Z" fill="#3F75BB"/>
<path d="M67.8669 10.8642C68.6509 10.737 69.2162 10.3555 69.8544 9.84683C70.6567 9.21097 71.8966 7.63039 72.5348 8.26625C73.4647 9.21097 73.9388 8.4661 74.6317 8.50243C76.5645 8.6296 77.7679 6.86735 79.7007 6.81284C81.1412 6.77651 82.5452 5.48661 83.9492 6.75834C82.4905 8.42976 82.6911 10.4464 82.8552 12.4266V12.3903C82.3446 13.6075 82.3629 15.0064 81.5241 16.369C82.3082 16.2963 83.3293 15.8058 83.1105 17.0594C83.074 17.2774 82.5999 18.1676 82.0164 17.2956C81.7794 16.9504 81.7794 16.6052 81.3418 17.3682C80.3207 19.1668 78.7525 20.8564 78.4426 22.7822C77.9867 25.471 75.981 26.8517 74.6864 28.9047C74.577 27.6329 74.0299 26.6155 73.3006 25.7072C72.8447 25.144 72.4436 24.5444 71.5684 24.3628C71.1672 24.2719 69.745 24.2719 70.5472 23.0002C69.3438 22.6187 69.3256 20.7656 68.1221 20.7292C67.2834 20.6929 66.9369 19.5847 65.9705 20.057C65.8247 20.1297 64.6394 19.7482 65.5147 18.8943C66.0252 18.4038 65.3688 17.8406 65.1682 17.8042C64.0377 17.6044 64.603 16.369 63.8919 15.9148C63.0713 15.388 62.0138 15.1699 61.4485 14.2797C61.2662 14.0072 60.628 14.3161 60.8103 13.8255C60.9379 13.4985 61.3938 13.008 61.6308 13.0443C63.8554 13.3714 65.15 11.7908 66.6999 10.7189C67.0281 11.2639 67.4475 10.9551 67.8304 10.8461L67.8669 10.8642Z" fill="#E60012"/>
<path d="M26.5122 65.8031C25.1264 65.04 25.0535 63.4958 24.4335 62.2967C24.1053 61.6427 23.8318 61.025 23.2118 60.6616C22.2272 60.0984 21.7167 59.3717 22.0813 58.1908C22.1725 57.9002 22.0266 57.228 21.9172 57.2098C20.6773 56.9918 21.2426 55.2113 19.9115 55.0478C19.3098 54.9752 19.8203 54.6663 19.9115 54.3938C20.6408 52.6497 22.0266 51.5233 23.5036 50.4696C23.7953 50.2516 23.9412 49.9791 24.0324 49.6157C24.1053 49.325 24.3606 48.9799 24.7982 49.0162C24.7253 49.8156 25.7099 49.107 25.8375 49.7792C26.494 53.1766 29.3932 55.066 31.2348 57.664C32.3653 59.2627 32.657 57.0281 33.5687 57.3733C33.4776 57.882 34.2252 58.6269 33.0582 58.9902C32.6935 59.0992 32.9488 59.2991 33.1129 59.4626C34.9363 61.461 36.2309 64.1135 39.4036 64.4223C39.823 64.4587 39.9506 64.8765 40.0965 65.149C40.8988 66.6024 42.0475 67.8015 43.1598 69.0187C43.488 69.3639 43.798 69.6546 43.251 69.9089C41.9199 70.5266 43.488 70.781 43.3786 71.217C43.2874 71.2715 43.1963 71.3442 43.1233 71.435C42.8134 71.4169 42.3575 71.0535 42.2481 71.544C41.9746 72.7976 40.6253 73.3426 40.3153 74.6144C40.1877 75.0867 39.203 76.0859 38.893 74.5235C38.7472 73.7605 38.5284 74.2692 38.2002 74.3055C37.8537 74.3418 37.3067 74.142 37.1426 73.8513C36.3038 72.5069 35.1368 72.1617 33.6599 72.4888C33.4046 72.5433 33.0399 72.3434 33.1311 72.2162C34.3893 70.3086 32.0006 70.6175 31.7818 70.5811C30.706 70.4358 30.9066 69.4366 30.396 68.9642C29.3749 68.0195 28.5179 66.9113 26.9863 66.7841C27.0045 66.3663 26.7492 66.0937 26.5122 65.8212V65.8031Z" fill="#E60012"/>
<path d="M21.2061 28.1779C19.4374 27.9963 17.9058 28.9047 16.3559 29.4678C14.9701 29.9584 14.8972 28.5958 14.0584 28.4505C13.949 28.4323 13.639 27.6329 14.3502 27.1242C15.1524 26.5429 14.4596 25.5073 14.4413 24.4718C14.0949 24.8351 13.8214 25.2711 13.6755 25.2348C13.2379 25.1258 13.4385 24.6534 13.4385 24.3446C13.4385 23.7269 14.0584 23.6724 14.3319 23.7996C15.5354 24.3446 15.7906 24.0176 15.7177 22.764C15.6812 22.3461 16.1006 21.6921 16.6841 21.4014C18.1611 20.6566 19.5468 19.8027 19.7292 17.8951C19.7292 17.7861 19.9662 17.6589 20.1303 17.6044C20.2944 17.5499 20.4768 17.5681 20.7503 17.5499C20.4585 18.0949 20.805 18.6945 20.1486 19.294C21.5526 18.8943 22.756 18.749 23.9595 18.9851C25.017 19.185 26.0381 19.4393 26.9681 18.6581C27.6063 18.1131 28.2444 18.7853 28.6091 18.9306C29.5573 19.2758 30.2137 19.8027 31.326 19.076C31.6177 18.8943 32.8029 19.2213 33.7329 19.076C34.9181 18.8761 33.7329 20.275 34.1887 20.8382C34.1158 20.9109 34.0611 20.9836 33.9881 21.0562C33.3317 23.6179 34.4258 26.4157 32.5477 28.8683C31.9095 29.704 31.3442 30.0492 30.5784 30.0674C30.1408 30.0674 29.5573 29.9402 29.4114 28.8683C29.1379 26.8154 26.2569 25.7072 24.1053 26.3975C23.613 26.561 23.1207 26.7245 22.6101 26.9062C21.9173 26.7609 21.7167 27.2332 21.5161 27.7238C21.4067 27.7964 21.352 27.8873 21.352 28.0144C21.2426 28.0144 21.2061 28.0689 21.2061 28.1598V28.1779Z" fill="#F5CC43"/>
<path d="M65.5876 55.175C66.0252 55.1024 66.3899 54.3938 66.9187 55.0479C67.3198 55.5384 67.7028 55.7927 67.9945 54.9025C68.0492 54.739 68.7239 54.5573 68.6509 54.8662C68.3045 56.2833 70.529 56.0289 70.219 57.5187C69.982 58.6814 70.219 59.9168 70.2555 61.1885C70.3467 61.352 70.5473 61.2794 70.6384 61.1885C71.1125 60.698 71.5866 60.8433 72.0607 61.1703C72.243 61.2975 72.1518 61.4247 72.006 61.5337C71.6413 61.8062 71.4772 62.5148 70.8025 62.0787C70.4743 61.8789 70.2555 61.8789 70.2737 62.2967C70.4014 64.7857 68.6327 66.9295 69.0521 69.5456C69.1797 70.345 67.9763 71.3805 67.3563 72.2708C67.0281 72.7431 66.6817 73.27 66.2076 73.5788C65.697 73.924 65.3323 74.8687 64.5483 74.4509C63.7825 74.033 63.126 73.5425 62.8343 72.4524C62.3784 70.8174 63.126 69.5456 63.3448 68.0922C63.6001 66.3663 64.8035 65.1491 65.0771 63.4776C65.2959 62.1151 64.8765 61.134 63.8371 60.5345C62.9984 60.0621 62.7613 59.5534 62.5243 58.6451C62.2143 57.4823 62.3237 57.3007 63.5089 57.3007C64.7489 57.3007 65.2412 56.1924 65.6241 55.175L65.5876 55.2114V55.175Z" fill="#F5CC43"/>
<path d="M61.7584 22.5823H61.649V22.4733C61.5396 22.0373 61.4485 21.5831 61.2844 21.1834C61.1385 20.8382 61.2297 20.6566 61.5579 20.5294C61.7402 20.4567 64.0742 21.9283 64.0559 22.1463C64.0195 22.6732 63.5636 22.4007 63.3995 22.5097C62.816 22.8912 62.2143 21.4014 61.7767 22.5823H61.7584Z" fill="#D0D7C9"/>
<path d="M21.4979 27.742C21.6984 27.2514 21.899 26.7609 22.5919 26.9244C22.5554 26.9971 22.519 27.0879 22.5007 27.1606C22.3184 27.2151 22.1725 27.3241 22.3366 27.4876C22.4096 27.5603 22.6284 27.4876 22.7925 27.4513C23.7771 26.7609 24.5065 27.6511 25.3635 27.8328C25.2723 27.9236 25.1811 28.0326 25.09 28.1235C23.8318 28.5777 22.6466 28.287 21.4979 27.742Z" fill="#D0D7C9"/>
<path d="M82.8734 12.4448C83.5116 12.6628 83.2746 11.3366 83.9674 11.7908C84.4598 12.1178 84.3686 12.6265 84.2045 13.1897C84.1133 13.5167 84.3504 13.9527 84.4051 14.3343C84.4415 14.5886 84.2774 14.7884 84.0039 14.7703C83.8763 14.7703 83.621 14.5704 83.6392 14.5159C83.8398 13.6439 82.8187 13.226 82.8916 12.4085L82.8734 12.4448Z" fill="#D0D7C9"/>
<path d="M26.6399 73.1246C26.6399 73.1246 26.5305 72.9429 26.494 72.8521C26.494 72.8158 26.5487 72.7613 26.5669 72.7249C26.6581 72.6159 26.8222 72.4524 26.804 72.3979C26.6581 72.0891 26.4028 72.1436 26.1475 72.2526V72.3071C26.1475 71.7802 26.0564 71.1262 26.9316 71.5077C27.3328 71.6894 27.6427 72.0709 28.0074 72.3434C28.2262 72.5069 28.8462 72.2708 28.5727 72.8703C28.3174 73.4335 28.0439 72.9248 27.7704 72.8158C27.3145 72.6341 27.0228 73.0338 26.6399 73.1246Z" fill="#D0D7C9"/>
<path d="M65.6058 55.1387C64.6759 55.1024 63.9283 55.9562 62.7431 55.6292C63.6183 54.9207 64.2748 54.0486 65.4417 54.2848C65.8429 54.3575 65.3506 54.9025 65.5876 55.175L65.6241 55.1387H65.6058Z" fill="#D0D7C9"/>
<path d="M61.9773 50.5423L61.9408 50.5786C62.4696 49.9064 63.7642 51.1237 64.0195 49.7429C64.0195 49.7429 64.1836 49.7429 64.2748 49.7429C64.2748 49.9791 64.2748 50.397 64.2565 50.397C63.4542 50.4696 63.0531 51.3053 62.3784 51.4325C61.4667 51.6142 62.269 50.7966 61.9955 50.5423H61.9773Z" fill="#D0D7C9"/>
<path d="M3.99328 67.311C3.6833 67.6925 3.26392 68.2557 2.77161 68.7644C2.7169 68.8371 2.22459 68.8734 2.35222 68.51C2.57103 67.8197 2.64397 67.0021 3.30039 66.5661C3.5739 66.3844 4.01152 66.4934 3.99328 67.2928V67.311Z" fill="#D0D7C9"/>
<path d="M9.427 86.7685C8.93468 86.7322 8.42413 86.6777 7.93182 86.6777C7.5489 86.6777 7.23893 86.5323 7.07482 86.1872C6.98365 85.9873 6.94718 85.7511 7.18422 85.5695C7.51243 85.3151 7.87711 85.4059 8.16886 85.5695C8.66117 85.842 9.09879 86.1872 9.55464 86.5142C9.51817 86.605 9.46347 86.6959 9.427 86.7867V86.7685Z" fill="#D0D7C9"/>
<path d="M67.8669 10.8642C67.4657 10.9732 67.0463 11.3003 66.7364 10.7371C66.9916 10.301 66.0617 10.192 66.4264 9.77418C66.7181 9.44716 67.0828 9.66517 67.3381 9.90135C67.8669 10.3737 68.2133 9.30182 68.7968 9.90135C68.7968 10.41 67.1375 9.68334 67.8851 10.8461L67.8669 10.8642Z" fill="#D0D7C9"/>
<path d="M26.5122 65.8031C26.7493 66.0938 27.0045 66.3663 26.9863 66.766C26.6581 66.8205 26.4575 67.1657 26.0199 67.0203C25.6735 66.9113 25.1994 67.2565 24.9988 66.6751C24.7618 66.0029 25.5458 66.3118 25.7099 65.9848C25.7829 65.8213 26.2205 65.8576 26.494 65.8031H26.5122Z" fill="#D0D7C9"/>
<path d="M32.0371 55.8109C30.5237 56.0107 30.2867 54.5392 29.2656 54.3575C29.2291 54.3575 29.1926 53.9215 29.2291 53.9215C29.4844 53.8488 29.9767 53.7216 30.0132 53.7943C30.4325 54.6118 31.4354 54.8662 32.0371 55.8109Z" fill="#FDFDFD"/>
<path d="M17.4499 81.2274C16.83 81.4636 16.1918 81.6997 15.5718 81.9541C15.0795 82.1539 14.7695 81.9541 14.6784 81.4999C14.5872 81.0457 14.9519 80.973 15.2983 80.8459C16.1006 80.5552 16.7388 80.9912 17.4317 81.2092H17.4499V81.2274Z" fill="#FDFDFD"/>
<path d="M76.7833 32.1385C76.5098 31.8841 76.3639 31.757 76.218 31.6116C76.7103 31.3209 75.908 30.3944 76.9109 30.2672C77.2209 30.2309 77.1844 29.922 77.4032 30.4307C77.7497 31.2846 76.6921 31.3391 76.8015 32.1385H76.7833Z" fill="#D0D7C9"/>
<path d="M15.1342 52.7769C15.4624 53.4855 15.7724 54.1213 16.0641 54.7754C16.3012 55.3204 15.9547 55.5202 15.5171 55.5747C14.5507 55.7201 15.1707 55.1024 15.2618 54.9025C15.59 54.1758 14.0584 53.6671 15.1524 52.7769H15.1342Z" fill="#D0D7C9"/>
<path d="M23.8865 63.9682C22.0814 65.5487 22.0814 65.5487 21.5891 63.3323C22.2637 64.2043 22.9931 64.168 23.8865 63.9682Z" fill="#D0D7C9"/>
<path d="M37.4708 59.3172C38.7107 59.5353 38.6925 60.5163 38.8019 61.4429C38.7654 60.4618 37.9814 59.9894 37.4708 59.3172Z" fill="#D0D7C9"/>
<path d="M70.7478 27.5058C71.5136 27.5966 72.1701 28.7593 72.8447 27.5784C72.9176 27.4513 73.1365 27.4331 73.2276 27.6693C73.3006 27.8873 73.4464 28.1598 73.2276 28.287C72.2795 28.7775 71.2401 29.4497 70.766 27.5239L70.7478 27.5058Z" fill="#D0D7C9"/>
<path d="M59.4974 16.805C59.8803 16.8959 59.9715 15.6605 60.8285 16.151C61.102 16.3145 61.4485 16.6415 60.9562 16.9322C60.4274 17.2411 59.7709 15.9875 59.5157 16.7869L59.4974 16.805Z" fill="#D0D7C9"/>
<path d="M24.6888 16.0057C23.9047 16.369 23.6677 17.0412 23.4671 18.2766C23.376 16.8595 22.3731 15.4606 24.6888 16.0057Z" fill="#FDFDFD"/>
<path d="M27.9344 38.6607C28.755 38.0793 29.7761 38.0793 29.8672 37.0256C30.0678 38.4063 29.2291 38.6062 27.9344 38.6607Z" fill="#D0D7C9"/>
<path d="M70.8572 57.337C71.9877 56.4831 71.623 57.8457 71.9877 58.1182C72.2977 58.3544 72.3159 58.7722 71.933 58.9539C71.386 59.2082 71.4225 58.4634 71.0578 58.318C70.8025 58.209 70.6566 57.8093 70.4561 57.5186C70.5837 57.4641 70.7296 57.4096 70.8572 57.3551V57.337Z" fill="#D0D7C9"/>
<path d="M5.8349 60.8252C6.49132 60.5526 7.14775 60.2801 7.84064 60.0076C8.11415 60.8797 7.49419 61.1522 7.02011 61.5155C6.9107 61.4065 6.81953 61.2975 6.71013 61.1885C6.41839 61.0613 6.14488 60.9342 5.85313 60.8252L5.8349 60.8433V60.8252Z" fill="#FDFDFD"/>
<path d="M82.1441 19.6573C82.8187 20.2569 82.4358 20.6384 82.1805 21.0199C82.1441 21.0744 81.7976 21.0381 81.7247 20.9472C81.3418 20.3659 81.8159 20.0389 82.1441 19.6573Z" fill="#D0D7C9"/>
<path d="M7.02012 61.5155C7.02012 61.5155 6.96542 61.6064 6.92895 61.6609C6.67368 62.0424 6.81955 62.7328 6.10842 62.7509C6.01725 62.7509 5.94432 62.6237 5.85315 62.5692C6.29076 62.2059 5.72551 61.2248 6.71015 61.1885C6.81955 61.2975 6.91072 61.4065 7.02012 61.5155Z" fill="#FDFDFD"/>
<path d="M22.1543 86.5868C22.8654 87.7677 21.5161 87.5134 21.1879 88.3491C21.0055 87.2772 21.8808 87.0229 21.8443 86.387C21.9537 86.4597 22.0449 86.5323 22.1543 86.605V86.5868Z" fill="#FDFDFD"/>
<path d="M82.5452 22.5278C82.3993 22.0191 82.381 21.6558 82.691 21.3651C82.764 21.2924 83.1286 21.3651 83.1469 21.4378C83.311 21.9828 82.9098 22.1826 82.5452 22.5278Z" fill="#D0D7C9"/>
<path d="M52.7144 67.5108C52.368 67.4745 52.0762 68.0377 51.7298 67.6925C51.5657 67.529 51.5292 67.0203 51.8027 66.9476C52.2039 66.8386 52.6233 67.0022 52.678 67.5472L52.7144 67.5108Z" fill="#FDFDFD"/>
<path d="M5.41553 90.0387C5.47023 89.9297 5.52493 89.7662 5.5614 89.7662C5.7255 89.7662 5.87138 89.8388 6.03548 89.8933C5.99901 89.9842 5.96255 90.1659 5.92608 90.1659C5.76197 90.1477 5.59787 90.0932 5.41553 90.0387Z" fill="#FDFDFD"/>
<path d="M40.1695 21.2016C40.0236 21.2743 39.8777 21.3833 39.7501 21.4196C39.6772 21.4196 39.586 21.3106 39.4948 21.2561C39.6407 21.1652 39.7683 21.0562 39.9324 21.0017C39.9689 21.0017 40.0783 21.1289 40.1877 21.2198L40.1695 21.2016Z" fill="#FDFDFD"/>
<path d="M80.2113 26.9789C80.2113 26.9789 80.1201 27.1606 80.0836 27.2514C80.0289 27.1606 79.956 27.0879 79.9377 26.9971C79.9377 26.9062 80.0107 26.8154 80.0472 26.7245C80.1019 26.8154 80.1566 26.8881 80.193 26.9789H80.2113Z" fill="#FDFDFD"/>
<path d="M54.5196 60.3165C54.5196 60.3165 54.6107 60.2983 54.629 60.3165C54.6654 60.3346 54.7019 60.4073 54.7019 60.4255C54.6472 60.589 54.556 60.6071 54.4831 60.4255C54.4831 60.3891 54.5013 60.3528 54.5196 60.2983V60.3165Z" fill="#FDFDFD"/>
<path d="M43.3969 71.217C43.3969 71.3442 43.3969 71.4896 43.4151 71.6167C43.3239 71.5622 43.2328 71.4896 43.1416 71.4351C43.2145 71.3442 43.3057 71.2715 43.3969 71.217Z" fill="#FDFDFD"/>
<path d="M70.456 57.5005C70.3831 57.3188 70.4196 57.1553 70.6202 57.119C70.6749 57.119 70.766 57.2643 70.8572 57.337C70.7296 57.3915 70.5837 57.446 70.456 57.5005Z" fill="#D0D7C9"/>
<path d="M7.49421 80.2827C7.36657 80.3372 7.2207 80.5188 7.11129 80.2827C7.07483 80.21 7.18423 80.0828 7.23893 79.9738C7.31187 80.0828 7.3848 80.1918 7.45774 80.319L7.49421 80.2827Z" fill="#FDFDFD"/>
<path d="M17.4317 81.2274C17.3952 81.3546 17.3588 81.4999 17.3041 81.6271C17.2494 81.6089 17.2129 81.5726 17.1582 81.5544C17.2494 81.4454 17.3405 81.3364 17.4317 81.2274Z" fill="#FDFDFD"/>
<path d="M6.25427 90.2022C6.29074 89.9478 6.41838 89.8025 6.67365 89.9478C6.9107 90.075 6.89246 90.2749 6.76482 90.4929C6.60072 90.402 6.41838 90.293 6.25427 90.2022Z" fill="#FDFDFD"/>
<path d="M21.899 51.4143C21.899 51.4143 21.7896 51.3416 21.7896 51.2871C21.7896 51.2508 21.8625 51.1963 21.899 51.16C21.9355 51.1963 22.0084 51.2326 22.0084 51.2871C22.0084 51.3235 21.9355 51.378 21.899 51.4143Z" fill="#FDFDFD"/>
<path d="M26.2204 49.2524C26.2204 49.2524 26.3116 49.2887 26.3481 49.2887C26.3116 49.3614 26.2934 49.4159 26.2569 49.4886C26.2204 49.4522 26.1293 49.4159 26.1293 49.3796C26.1293 49.3432 26.184 49.2887 26.2204 49.2524Z" fill="#FDFDFD"/>
<path d="M18.7628 47.69C18.9087 47.8535 18.9998 48.0715 18.7993 48.2168C18.5257 48.4167 18.5075 48.1078 18.4346 47.9625C18.544 47.8716 18.6534 47.7808 18.781 47.69H18.7628Z" fill="#FDFDFD"/>
<path d="M34.1705 20.8383C34.207 20.9836 34.3164 21.2198 34.2617 21.2561C34.0793 21.4015 34.0246 21.2016 33.9699 21.0744C34.0246 21.0018 34.0975 20.9109 34.1705 20.8564V20.8383Z" fill="#FDFDFD"/>
<path d="M21.2061 28.178C21.2061 28.069 21.2426 28.0326 21.352 28.0326C21.4249 28.1235 21.4979 28.2325 21.5708 28.3233C21.4432 28.2688 21.3338 28.2325 21.2061 28.178Z" fill="#D0D7C9"/>
<path d="M25.3635 27.8328C25.5094 27.9963 25.6188 28.1598 25.4182 28.3415C25.3817 28.3596 25.2176 28.1961 25.1082 28.1234C25.1994 28.0326 25.2906 27.9236 25.3817 27.8328H25.3635Z" fill="#D0D7C9"/>
<path d="M82.217 22.6005C82.217 22.6005 82.144 22.7458 82.1076 22.8185C82.0711 22.7822 81.9799 22.7458 81.9982 22.7277C81.9982 22.655 82.0529 22.5823 82.0893 22.4915C82.1258 22.5278 82.1805 22.5642 82.217 22.6005Z" fill="#D0D7C9"/>
<path d="M48.6665 25.0531C49.8882 22.8548 51.7481 21.6558 54.2826 21.6921C55.8325 21.7103 57.2182 21.9283 58.604 23.0365C59.5157 23.7632 60.5915 24.9805 62.1779 24.7443C62.5243 24.6898 63.1078 24.9441 63.0896 25.5618C62.9072 25.6708 62.7067 25.7617 62.5243 25.8707C63.3996 26.4702 63.0531 27.7964 63.983 28.3778C64.7671 27.9236 64.0195 27.3059 64.2201 26.7972C64.9677 26.7609 65.2959 27.6511 65.2959 27.8691C65.3506 30.0856 66.554 31.9387 67.0464 33.9734C67.3746 35.2997 67.5934 37.2436 66.554 38.4972C66.007 39.1512 66.8275 39.7144 66.1529 40.2776C65.6606 40.6773 65.77 41.731 65.3141 42.2397C63.6913 44.0746 62.2691 46.4001 59.6798 46.8361C58.0205 47.1086 56.2154 46.4001 54.4649 46.5817C51.6751 46.8543 50.2164 44.4198 48.0283 43.5114C47.7913 43.4206 47.5725 43.1117 47.4813 42.8574C46.3508 40.0232 44.4727 37.4434 44.5639 34.2096C44.5639 34.0461 44.5639 33.8099 44.6915 33.7009C45.4938 32.9379 45.2021 31.9205 45.2385 30.9939C45.822 31.0121 46.3143 32.2112 46.9343 31.1029C47.0619 30.8849 47.6454 30.9394 47.1896 30.4126C46.6425 29.7767 46.132 29.922 45.4756 30.3944C46.0226 29.1227 46.1502 27.8146 47.1896 26.9426C47.5725 27.2514 49.013 26.9062 49.3959 26.561C50.7269 25.3438 49.4141 25.362 48.7212 25.0895L48.6665 25.0531ZM60.4639 32.8652C59.8439 31.866 60.6462 30.3762 59.151 30.0856C57.8747 29.8312 57.2 28.9228 56.3065 28.1598C55.796 27.7238 54.9937 27.1242 54.0638 27.9781C53.4803 28.5231 52.5139 29.5405 51.9851 29.1953C50.5811 28.3051 50.9275 29.4497 50.9822 29.9402C51.0734 31.0484 50.9275 32.0477 50.5446 33.1014C50.3805 33.5556 49.4688 34.0643 50.2346 34.8636C51.5475 36.1899 50.417 38.0248 51.0369 39.5872C51.2375 40.0777 51.2193 40.4956 51.7663 40.4593C53.0244 40.3866 54.082 41.077 55.249 41.295C56.89 41.6038 58.4582 41.186 59.9533 40.2594C60.5004 39.9142 61.3209 39.8234 61.485 39.133C62.0502 36.8076 61.9591 34.5185 60.9015 32.3202C60.8286 32.1567 60.8286 31.8115 60.5733 32.193C60.5004 32.3202 60.5186 32.52 60.4821 32.8652H60.4639Z" fill="#25201D"/>
<path d="M48.6665 25.0531C49.3594 25.3256 50.6722 25.3075 49.3411 26.5247C48.9582 26.888 47.4995 27.2151 47.1348 26.9062C47.4266 26.2522 47.4813 25.4165 48.3018 25.0895C48.2289 25.3438 48.32 25.5255 48.5753 25.471C48.8306 25.4346 48.8671 25.2348 48.7029 25.0168H48.6665V25.0531Z" fill="#D0D7C9"/>
<path d="M64.2018 26.8154C64.0012 27.3059 64.7488 27.9418 63.9648 28.396C63.0348 27.8146 63.3995 26.4884 62.506 25.8888C62.6884 25.7798 62.889 25.689 63.0713 25.58L63.0166 25.6163C62.9619 25.9615 63.126 26.0523 63.4177 25.9615H63.3813C63.3448 26.2522 63.5454 26.3067 63.8007 26.2885L63.746 26.2522C63.8736 26.3612 64.0012 26.452 64.1289 26.561C64.22 26.6337 64.2383 26.7245 64.1836 26.8336L64.2018 26.8154Z" fill="#D0D7C9"/>
<path d="M33.4229 36.1354C33.5506 36.099 33.6782 36.0445 33.8241 36.0082C33.8058 36.1172 33.7876 36.2081 33.7694 36.3171C33.66 36.2444 33.5506 36.1899 33.4229 36.1172V36.1535V36.1354Z" fill="#25201D"/>
<path d="M44.0898 24.0721C44.2539 24.0539 44.3998 24.0721 44.3815 24.2901C44.3815 24.3083 44.3086 24.3446 44.2721 24.3628C44.2357 24.2719 44.181 24.1629 44.1445 24.0539H44.0898V24.0721Z" fill="#25201D"/>
<path d="M48.7029 25.0531C48.867 25.253 48.8306 25.4528 48.5753 25.5073C48.32 25.5437 48.2106 25.3801 48.3018 25.1258C48.4294 25.1076 48.5753 25.0895 48.7029 25.0713V25.0531Z" fill="#25201D"/>
<path d="M64.1471 26.5429C64.0195 26.4339 63.8919 26.343 63.7642 26.234C64.1107 26.0705 64.056 26.3975 64.1471 26.5429Z" fill="#25201D"/>
<path d="M63.8189 26.2522C63.5637 26.2522 63.3631 26.2159 63.3996 25.907C63.746 25.7798 63.9101 25.8707 63.8189 26.2522Z" fill="#25201D"/>
<path d="M63.436 25.9252C63.126 26.016 62.9619 25.9252 63.0348 25.58C63.4542 25.362 63.4907 25.58 63.436 25.9252Z" fill="#25201D"/>
<path d="M26.1293 72.2526C26.3846 72.1436 26.6581 72.1072 26.7857 72.3979C26.8222 72.4524 26.6398 72.6159 26.5487 72.7249C26.3846 72.5978 25.9652 72.6704 26.1111 72.2526H26.1293Z" fill="#25201D"/>
<path d="M22.7925 27.4513C22.6284 27.4513 22.4095 27.5603 22.3366 27.4876C22.1725 27.3241 22.3184 27.2151 22.5007 27.1606C22.5919 27.2514 22.7013 27.3604 22.7925 27.4513Z" fill="#25201D"/>
<path d="M60.4639 32.8652C60.5003 32.5019 60.4639 32.3202 60.555 32.193C60.8103 31.8115 60.7921 32.1567 60.8832 32.3202C61.9408 34.5185 62.032 36.8076 61.4667 39.133C61.3026 39.8234 60.4821 39.9142 59.9351 40.2594C58.4399 41.186 56.8718 41.6038 55.2307 41.295C54.082 41.077 53.0244 40.3866 51.748 40.4593C51.201 40.4956 51.2192 40.0778 51.0187 39.5872C50.3987 38.0248 51.5292 36.1899 50.2164 34.8636C49.4323 34.0824 50.3622 33.5737 50.5263 33.1014C50.9093 32.0477 51.0551 31.0484 50.964 29.9402C50.9275 29.4497 50.5628 28.3051 51.9668 29.1954C52.5138 29.5405 53.462 28.5232 54.0455 27.9781C54.9754 27.1424 55.7777 27.7419 56.2883 28.1598C57.1817 28.9228 57.8564 29.8312 59.1328 30.0856C60.628 30.3762 59.8257 31.866 60.4456 32.8652H60.4639Z" fill="#F5CC43"/>
</g>
<defs>
<clipPath id="clip0_85_115">
<rect width="89" height="93" fill="white"/>
</clipPath>
</defs>
</svg>
