<svg width="194" height="79" viewBox="0 0 194 79" fill="none" xmlns="http://www.w3.org/2000/svg">
<path d="M1.632 35.44L13.44 34.336C13.632 35.872 13.92 36.592 14.592 37.456C15.6 38.704 17.328 39.376 19.392 39.376C22.416 39.376 24.192 38.128 24.192 35.968C24.192 34.672 23.568 33.712 22.416 33.232C21.648 32.896 19.68 32.368 15.888 31.504C10.896 30.4 9.6 29.968 7.824 28.816C4.464 26.608 2.592 23.008 2.592 18.688C2.592 10.768 8.88 5.968 19.2 5.968C23.136 5.968 27.168 6.928 29.664 8.464C31.728 9.712 33.312 11.44 34.416 13.648C34.944 14.656 35.28 15.712 35.76 17.776L23.52 19.072C23.328 17.92 23.088 17.344 22.608 16.768C21.84 15.904 20.496 15.376 18.864 15.376C16.32 15.376 14.592 16.528 14.592 18.304C14.592 19.456 15.36 20.32 16.8 20.752C17.616 20.992 19.056 21.328 24.816 22.528C32.688 24.352 36.48 28.48 36.48 35.44C36.48 40.336 34.368 44.224 30.48 46.576C27.984 48.064 23.568 49.024 19.104 49.024C14.448 49.024 10.08 47.968 7.344 46.144C5.232 44.752 3.696 42.88 2.736 40.384C2.208 39.184 1.968 37.888 1.632 35.44ZM63.5963 17.248V40.144C63.5963 43.264 63.6923 45.472 63.9803 48.016H51.3563C51.6443 45.52 51.7403 43.312 51.7403 40.144V17.248H46.5563C43.4363 17.248 41.3242 17.344 38.8763 17.584V6.688C41.3723 6.928 43.5323 7.024 46.4603 7.024H68.6843C71.9483 7.024 74.0123 6.928 76.4123 6.688V17.584C73.9643 17.344 72.1403 17.248 68.6843 17.248H63.5963ZM88.9136 39.376L88.0016 42.736C87.5696 44.416 87.1856 46.24 86.9456 48.016H73.5056C74.1296 46.576 74.4656 45.712 75.7136 42.064L85.9376 12.448C86.7536 10.096 87.2336 8.368 87.4736 7.024H102.594C102.882 8.464 103.41 10.24 104.178 12.448L114.45 42.064C115.842 46.048 116.034 46.672 116.658 48.016H103.218C102.978 46.096 102.594 44.416 102.162 42.736L101.25 39.376H88.9136ZM98.5616 29.776L95.0576 17.008L91.5536 29.776H98.5616ZM131.69 33.376V40.144C131.69 43.936 131.786 45.856 132.074 48.016H119.642C119.978 45.664 120.074 43.84 120.074 40.336V14.416C120.074 10.864 119.978 9.232 119.69 6.88C121.946 7.024 123.146 7.024 127.322 7.024H142.634C146.282 7.024 148.154 6.928 150.41 6.688V17.488C148.106 17.248 146.138 17.152 142.682 17.152H131.69V23.728H140.474C144.074 23.728 145.946 23.632 148.202 23.392V33.712C145.898 33.472 143.93 33.376 140.474 33.376H131.69ZM166.05 33.376V40.144C166.05 43.936 166.146 45.856 166.434 48.016H154.002C154.338 45.664 154.434 43.84 154.434 40.336V14.416C154.434 10.864 154.338 9.232 154.05 6.88C156.306 7.024 157.506 7.024 161.682 7.024H176.994C180.642 7.024 182.514 6.928 184.77 6.688V17.488C182.466 17.248 180.498 17.152 177.042 17.152H166.05V23.728H174.834C178.434 23.728 180.306 23.632 182.562 23.392V33.712C180.258 33.472 178.29 33.376 174.834 33.376H166.05Z" fill="#F4C53A"/>
<path d="M97 79L60.6269 58.75H133.373L97 79Z" fill="#F4C53A"/>
</svg>
