<svg width="121" height="127" viewBox="0 0 121 127" fill="none" xmlns="http://www.w3.org/2000/svg">
<g clip-path="url(#clip0_84_3)">
<path d="M109.011 40.3975C110.117 40.9454 111.042 41.3106 112.076 39.9957C112.947 38.8634 112.185 38.8269 111.514 38.5347C111.586 37.8772 111.858 37.6215 112.493 38.005C113.056 38.7903 114.017 39.4661 113.128 40.6714C113.056 40.7627 112.13 42.2055 113.727 42.3881C114.688 42.4977 113.981 43.1369 113.799 43.5022C113.69 43.7213 109.718 43.4656 109.754 43.3378C110.099 42.1872 108.176 41.6759 108.974 40.4523L109.029 40.3975H109.011Z" fill="#D0D7C9"/>
<path d="M46.4157 44.2509C47.9756 44.0135 47.4858 45.8033 48.5016 46.2233C47.5221 46.6434 46.6152 46.479 45.7627 46.5521C45.6357 45.6754 46.5971 45.1275 46.4157 44.2509Z" fill="#D0D7C9"/>
<path d="M37.5279 53.492C36.6936 53.6928 37.147 55.5191 35.7141 54.953C35.0067 54.679 34.5351 54.259 34.9342 53.4006C35.7867 53.5467 36.6936 52.3414 37.5279 53.4737V53.492Z" fill="#D0D7C9"/>
<path d="M44.2391 118.124C43.5317 118.015 42.915 117.85 43.5861 116.955C43.9126 116.517 44.1666 116.042 44.4386 115.567C45.0372 115.768 44.8921 116.7 45.6357 116.645C45.0916 117.065 45.146 118.051 44.221 118.124H44.2391Z" fill="#D0D7C9"/>
<path d="M45.8716 47.1182C45.8716 47.1182 45.9804 47.246 46.0348 47.3191C45.9804 47.3374 45.926 47.3556 45.8716 47.3739C45.8353 47.2826 45.8353 47.1913 45.8716 47.0999V47.1182Z" fill="#D0D7C9"/>
<path d="M99.6151 43.5387C100.54 43.63 101.465 43.7213 102.372 43.8492C102.989 43.9222 103.515 43.9587 103.805 43.2465C104.476 41.6211 104.911 44.5797 105.619 43.3378C105.982 42.6986 105.873 41.548 107.034 41.6759C108.303 41.8037 107.85 43.3561 107.795 43.5752C107.36 45.0362 105.709 45.6937 105.129 47.1547C103.515 46.2781 103.841 48.5427 103.605 48.3966C101.81 47.3374 102.227 49.4011 101.393 49.8394C100.667 49.5106 100.54 48.8167 100.848 48.1592C101.574 46.6616 100.885 45.7485 99.742 44.9267C100.05 44.4336 100.123 43.9587 99.5969 43.5569L99.6151 43.5387Z" fill="#FDFDFD"/>
<path d="M99.6151 43.5387C100.141 43.9405 100.05 44.4153 99.7602 44.9084C99.2886 45.2189 98.817 45.5659 98.3091 45.8398C97.0032 46.552 95.28 45.8763 94.7178 45.4015C93.4299 44.3057 92.1059 44.6892 90.8362 44.2327C91.3259 43.8309 91.6887 43.1552 91.9426 42.4429C93.9015 44.6527 96.3865 43.7213 98.6356 43.9222C98.69 42.8995 97.6561 43.5021 97.3659 42.8264C98.2728 42.7168 98.9984 42.9177 99.5969 43.5387H99.6151Z" fill="#D0D7C9"/>
<path d="M40.031 111.55C40.0854 112.079 39.9585 112.828 40.2668 113.321C41.5546 115.494 39.8315 116.261 38.5981 117.266C38.4349 117.394 38.453 117.85 38.0902 117.631C37.8726 117.503 37.7275 117.266 37.8363 116.992C37.9089 116.809 38.1447 116.572 38.0902 116.499C36.9838 114.8 37.5461 113.851 39.3599 113.266C39.6683 113.175 40.0673 112.335 39.0153 112.098C38.4711 111.988 38.6344 111.239 38.7432 110.783C38.8339 110.436 39.233 110.454 39.5594 110.454C40.2668 110.472 40.158 110.947 40.0492 111.513L40.031 111.55ZM37.9451 114.49C37.9451 114.49 38.0177 114.399 38.054 114.344C37.9633 114.307 37.8907 114.271 37.8 114.253C37.7638 114.253 37.7275 114.326 37.6912 114.38C37.7638 114.417 37.8544 114.453 37.927 114.49H37.9451Z" fill="#FDFDFD"/>
<path d="M85.032 44.2509C86.2291 44.7075 87.3174 45.438 88.6415 45.6024C89.367 45.6937 89.494 46.2964 89.3851 46.9173C89.2763 47.5748 88.7321 47.4104 88.315 47.3556C87.2811 47.2278 86.2835 47.2095 85.2133 47.2826C83.9437 47.3739 83.1456 46.205 82.8191 44.5796C83.6534 45.0545 84.1795 46.0224 85.032 45.3467C85.304 45.1275 84.9594 44.7805 84.8687 44.4883C84.9231 44.4153 84.9775 44.324 85.0138 44.2509H85.032Z" fill="#FDFDFD"/>
<path d="M91.9064 87.2052C90.9088 86.7669 91.5436 86.1642 91.6162 85.5067C91.725 84.6119 92.5594 83.1874 90.7274 82.8221C91.3078 82.2194 92.9221 82.0003 91.8883 80.3749C92.7045 80.8497 92.3236 82.0003 93.2123 82.2742C93.2849 82.2925 93.3937 82.5664 93.3575 82.5847C91.5074 84.1736 93.3575 85.7259 93.3937 87.2782C93.3937 87.6252 93.8835 88.4105 92.8677 88.2462C92.9584 87.5157 92.2692 87.5157 91.9064 87.2052Z" fill="#D0D7C9"/>
<path d="M12.9689 61.1076C12.9326 61.6372 12.9507 62.5321 12.6424 62.2216C11.9531 61.5093 10.3207 62.1668 10.4839 61.0893C10.5928 60.3953 9.83097 58.7516 11.3727 58.7882C12.6968 58.8247 12.5517 60.3405 12.9507 61.1258L12.9689 61.1076Z" fill="#FDFDFD"/>
<path d="M85.5398 78.5486C86.6099 77.9094 87.4443 77.4711 88.2242 76.9597C88.5326 76.7588 88.587 75.937 89.1493 76.5214C89.4395 76.8319 89.5121 77.4163 89.0586 77.7268C87.9885 78.439 86.483 78.8408 87.3355 80.6854C87.3355 80.7036 87.0634 80.941 86.9002 80.9593C86.483 80.9958 86.2653 80.6854 86.4104 80.3566C86.7369 79.5165 86.1928 79.0782 85.5579 78.5486H85.5398Z" fill="#D0D7C9"/>
<path d="M98.7081 101.249C97.7831 99.2587 99.2341 98.1081 100.486 96.7019C100.939 98.7473 100.304 100.208 98.7081 101.249Z" fill="#D0D7C9"/>
<path d="M67.6738 41.548C67.3291 39.9774 67.7826 38.4068 67.7463 36.7997C67.6919 38.2424 69.8503 38.5529 69.3425 40.1418C69.1067 40.8723 68.4174 41.3289 67.6556 41.5298H67.6738V41.548Z" fill="#FDFDFD"/>
<path d="M39.8859 100.318C39.5776 99.5509 39.505 98.93 39.8859 98.4734C40.5026 97.7612 40.9198 97.2498 39.8134 96.5558C39.4325 96.3184 39.6864 95.5879 39.9041 95.1313C39.9585 95.0035 40.2487 94.8574 40.3575 94.8939C41.0468 95.113 40.6115 95.7522 40.7747 96.1358C41.4096 97.7246 40.8291 98.9665 39.8859 100.318Z" fill="#D0D7C9"/>
<path d="M59.5296 17.7697C59.0218 17.7697 58.7316 17.7515 58.7316 17.1671C58.7316 15.706 60.0919 15.9983 60.8175 15.5417C61.3072 15.2312 61.5793 16.1626 61.4886 16.3818C61.1621 17.2949 60.1282 17.3132 59.5115 17.7697H59.5296Z" fill="#FDFDFD"/>
<path d="M88.7503 101.87C90.292 103.167 88.6959 104.719 89.8567 106.29C87.6801 104.902 87.9703 103.477 88.7503 101.87Z" fill="#FDFDFD"/>
<path d="M91.9064 87.2052C92.2691 87.5157 92.9584 87.5157 92.8677 88.2462C92.7407 88.4653 92.5956 88.7028 92.4687 88.9402H92.4324C91.4529 89.2324 91.725 90.3464 91.1264 91.0404C90.4009 89.4698 90.9813 88.301 91.8882 87.2052H91.9064Z" fill="#FDFDFD"/>
<path d="M64.2637 20.8562C65.8599 21.6232 65.5697 23.5591 66.6579 24.5818C65.2432 25.221 65.0981 25.1662 65.2069 23.6139C65.2613 22.993 65.352 22.5364 64.5358 22.3172C63.7014 22.0798 64.1005 21.4224 64.2637 20.8562Z" fill="#D0D7C9"/>
<path d="M79.6087 60.1944C79.4454 59.0438 79.0464 58.0211 80.0803 57.0715C80.3161 56.8706 80.9328 55.7931 79.8082 55.3547C79.5361 55.2452 79.3366 54.7886 79.6631 54.5694C80.0259 54.3138 80.4249 54.6608 80.5881 54.953C81.1504 55.9209 80.9328 57.6193 80.5881 57.802C79.4817 58.4229 80.3705 59.5004 79.6087 60.1761V60.1944Z" fill="#D0D7C9"/>
<path d="M61.4341 72.047C61.3616 70.7503 61.8513 69.7276 62.0871 68.6136C63.4475 69.4172 63.3386 70.0016 61.4341 72.047Z" fill="#D0D7C9"/>
<path d="M79.2821 49.2367C80.5518 49.1088 80.8058 49.5654 80.969 50.1681C81.1867 51.0082 80.0077 51.2639 80.2072 52.0857C79.6086 51.4647 79.5905 50.6064 79.264 49.8759C79.0282 49.3463 79.4091 49.2184 79.264 49.2367H79.2821Z" fill="#D0D7C9"/>
<path d="M56.8815 47.4469C56.9541 47.6843 56.9903 47.7391 56.9722 47.7939C56.9178 48.6705 56.2467 49.0723 55.6118 49.4376C55.4123 49.5472 55.1402 49.2915 55.104 49.0175C54.9951 47.9218 56.1378 48.3053 56.5369 47.8122C56.6276 47.7209 56.7001 47.6296 56.8634 47.4469H56.8815Z" fill="#D0D7C9"/>
<path d="M84.9231 95.9714C84.3427 95.4783 83.4721 95.387 83.599 94.3642C83.6534 93.9259 83.9981 93.9442 84.3246 94.0355C85.304 94.3277 85.304 95.0034 84.9231 95.9531V95.9714Z" fill="#D0D7C9"/>
<path d="M65.6241 92.5197C65.2795 92.0449 64.4088 91.6796 65.0618 90.9856C65.2795 90.7665 65.8417 90.3464 66.2408 90.73C67.1296 91.6066 65.4064 91.7527 65.6241 92.5197Z" fill="#D0D7C9"/>
<path d="M74.7294 54.5695C74.5117 55.8296 74.3122 57.0715 74.0946 58.3316C73.8225 56.9984 73.7499 55.6835 74.7294 54.5695Z" fill="#D0D7C9"/>
<path d="M80.4067 82.6943C81.5494 82.7673 81.1685 84.1736 82.0391 84.3745C81.9484 84.5023 81.8578 84.6484 81.7671 84.7762C81.5857 85.0502 81.5313 85.105 81.3862 84.7215C81.1322 84.0275 80.3886 83.5709 80.4067 82.6943Z" fill="#D0D7C9"/>
<path d="M64.6083 75.6083C64.6809 76.6493 64.7353 77.5259 64.4451 78.4573C63.9856 77.6294 64.04 76.6797 64.6083 75.6083Z" fill="#D0D7C9"/>
<path d="M53.7798 63.1895C54.1789 63.92 54.7956 64.6323 54.0882 65.5089C52.9818 64.8514 54.1607 63.8835 53.7798 63.1895Z" fill="#D0D7C9"/>
<path d="M102.1 106.984C101.538 107.404 101.066 107.97 100.341 107.769C100.286 107.769 100.268 107.276 100.359 107.093C100.83 106.272 101.52 107.075 102.1 106.984Z" fill="#D0D7C9"/>
<path d="M95.6066 111.677C96.2958 111.075 96.8218 110.216 97.7832 111.55C97.0395 111.824 96.4591 112.262 95.6066 111.677Z" fill="#FDFDFD"/>
<path d="M100.304 114.526C100.613 113.778 100.794 112.81 101.973 113.12C101.864 114.106 100.921 114.143 100.304 114.526Z" fill="#D0D7C9"/>
<path d="M79.8807 95.4052C80.1165 95.6609 80.443 95.8618 80.4611 96.0992C80.5155 96.848 81.9303 96.1358 81.5857 97.2133C81.5313 97.3959 81.3499 97.3594 81.1322 97.268C80.4248 96.9576 79.7356 96.6654 79.8444 95.6792C79.8444 95.6244 79.8444 95.5513 79.8807 95.4052Z" fill="#D0D7C9"/>
<path d="M65.1706 34.1881C64.7897 33.4758 63.5382 33.1653 64.3 31.9235C65.2976 32.3252 65.0437 33.348 65.1706 34.1881Z" fill="#D0D7C9"/>
<path d="M63.5926 79.7357C63.9191 80.6123 63.5926 81.1967 63.0847 81.6898C63.0303 81.7446 62.6132 81.5985 62.6132 81.562C62.6132 80.8132 62.9941 80.2836 63.5926 79.7539V79.7357Z" fill="#D0D7C9"/>
<path d="M60.6724 94.1451C60.4366 94.7295 59.5841 95.1313 60.3096 95.9714C59.4934 96.0079 59.2032 95.6975 59.2576 95.0948C59.3301 94.2547 60.0738 94.2729 60.6361 94.1086L60.6724 94.1451Z" fill="#D0D7C9"/>
<path d="M108.956 40.4705C108.321 40.5253 107.723 40.507 107.487 39.6304C108.321 39.4295 108.72 39.813 109.011 40.4157L108.956 40.4705Z" fill="#D0D7C9"/>
<path d="M91.4348 93.5607C91.4166 93.8894 91.3441 94.1816 90.9269 94.1633C90.6367 94.1633 90.4553 93.9442 90.4553 93.6885C90.4553 93.3598 90.6367 93.1224 91.0176 93.1041C91.3441 93.0858 91.4166 93.305 91.4348 93.5607Z" fill="#D0D7C9"/>
<path d="M94.2825 110.162C94.2099 109.851 94.1192 109.614 94.1374 109.413C94.1736 109.084 94.4457 109.084 94.6996 109.121C94.9898 109.175 95.1712 109.34 94.9717 109.614C94.8266 109.796 94.5908 109.924 94.3006 110.143L94.2825 110.162Z" fill="#D0D7C9"/>
<path d="M36.6573 104.975C37.1471 104.975 37.5824 105.048 37.4192 105.706C37.3829 105.852 37.1471 106.071 37.0745 106.052C36.4397 105.888 36.875 105.304 36.6755 104.957L36.6573 104.993V104.975Z" fill="#FDFDFD"/>
<path d="M93.9197 108.518C93.5932 108.554 93.6295 108.335 93.6113 108.171C93.6113 107.897 93.6839 107.66 93.9741 107.641C94.228 107.623 94.482 107.824 94.4094 108.061C94.355 108.262 94.0648 108.39 93.9197 108.5V108.518Z" fill="#D0D7C9"/>
<path d="M103.297 49.9855C103.261 49.8759 103.116 49.6933 103.152 49.6019C103.206 49.4741 103.406 49.3828 103.533 49.2915C103.587 49.4011 103.66 49.5106 103.678 49.6202C103.678 49.8028 103.624 50.0037 103.297 49.9855Z" fill="#FDFDFD"/>
<path d="M84.8687 44.4883C84.6873 44.3605 84.5241 44.2144 84.3608 44.0683C84.3608 44.0683 84.4697 43.8491 84.5422 43.8309C84.8506 43.7761 84.9413 44.0135 85.0138 44.2509C84.9594 44.324 84.905 44.397 84.8687 44.4883Z" fill="#FDFDFD"/>
<path d="M60.6361 94.1086C60.7086 93.8163 60.7993 93.5241 61.1258 93.4328C61.1621 93.4328 61.3072 93.5789 61.289 93.652C61.2528 94.0355 60.9625 94.0903 60.6542 94.1268L60.6179 94.0903L60.6361 94.1086Z" fill="#D0D7C9"/>
<path d="M9.10547 63.3904C9.39568 63.5548 10.0668 63.4452 9.90355 63.847C9.72217 64.3036 9.17802 64.0844 8.79712 63.8105C8.88781 63.6644 8.99664 63.5365 9.08733 63.3904H9.10547Z" fill="#FDFDFD"/>
<path d="M91.5436 95.04C91.5436 95.04 91.4529 95.0217 91.4529 95.0034C91.4529 94.9669 91.4529 94.9121 91.471 94.8756C91.5073 94.8756 91.5617 94.8939 91.5617 94.9121C91.5617 94.9487 91.5617 95.0035 91.5436 95.04Z" fill="#D0D7C9"/>
<path d="M92.4324 88.9402H92.4687C92.5231 88.9584 92.5956 88.9767 92.6319 89.0132C92.65 89.0498 92.6319 89.1228 92.6319 89.1776C92.5775 89.1046 92.5231 89.0132 92.4505 88.9402H92.4324Z" fill="#D0D7C9"/>
<path d="M67.2021 27.6682C67.1295 27.5404 67.057 27.4126 67.0026 27.303C67.1477 27.303 67.3109 27.3395 67.456 27.3395C67.3653 27.4491 67.2928 27.5587 67.2021 27.6682Z" fill="#FDFDFD"/>
<path d="M40.2124 120.864L40.1399 120.754L40.2487 120.736L40.2124 120.864Z" fill="#FDFDFD"/>
<path d="M46.1976 49.1271L46.2516 49.2177H46.1437L46.1976 49.1271Z" fill="#FDFDFD"/>
<path d="M77.432 103.441C77.5046 103.24 77.6134 103.13 77.8129 103.331C77.8129 103.331 77.6678 103.477 77.5953 103.569C77.5408 103.532 77.4864 103.477 77.432 103.441Z" fill="#FDFDFD"/>
<path d="M55.0132 105.377C54.9407 105.541 54.85 105.724 54.6686 105.578C54.6142 105.541 54.7049 105.285 54.7411 105.139C54.8318 105.212 54.9225 105.304 55.0132 105.395V105.377Z" fill="#FDFDFD"/>
<path d="M54.723 105.121C54.977 104.865 55.2309 104.591 55.2672 105.249L55.2853 105.212C55.2128 105.304 55.1221 105.359 54.9951 105.377C54.9044 105.285 54.8137 105.212 54.723 105.139V105.121Z" fill="#FDFDFD"/>
<path d="M21.53 73.0149C21.53 73.0149 21.4575 73.1245 21.4212 73.1245C21.3849 73.1245 21.3487 73.0697 21.3124 73.0332C21.3487 72.9967 21.3849 72.9419 21.4212 72.9419C21.4575 72.9419 21.4938 72.9967 21.53 73.0332V73.0149Z" fill="#FDFDFD"/>
<path d="M22.2556 73.2341C22.2556 73.2341 22.2738 73.3254 22.2556 73.3437C22.2375 73.3802 22.165 73.4167 22.1468 73.4167C21.9654 73.3619 21.9654 73.2706 22.1287 73.1976C22.165 73.1976 22.2194 73.2158 22.2556 73.2341Z" fill="#FDFDFD"/>
<path d="M67.6555 41.5298C67.6555 41.5298 67.6193 41.6211 67.6193 41.6759C67.6374 41.6393 67.6555 41.5845 67.6918 41.548L67.6737 41.5298H67.6555Z" fill="#FDFDFD"/>
<path d="M116.175 2.41071C116.03 2.4655 115.794 2.59334 115.722 2.53855C115.54 2.39245 115.667 2.24634 115.831 2.15503C115.94 2.24634 116.048 2.33766 116.157 2.41071H116.175Z" fill="#FDFDFD"/>
<path d="M115.849 2.15501C115.976 2.10023 116.103 2.0637 116.23 2.00891C116.23 2.13675 116.193 2.28285 116.175 2.41069C116.066 2.31938 115.958 2.22807 115.849 2.15501Z" fill="#FDFDFD"/>
<path d="M37.9451 114.49C37.9451 114.49 37.7819 114.417 37.7094 114.38C37.7456 114.344 37.7819 114.253 37.8182 114.253C37.9089 114.253 37.9814 114.307 38.0721 114.344C38.0358 114.38 37.9996 114.435 37.9633 114.49H37.9451Z" fill="#F5CC43"/>
<path d="M37.5279 53.492C37.5642 53.3641 37.6005 53.1267 37.6005 53.1267C39.5776 53.4006 41.2463 52.0857 43.1689 52.0127C44.5474 51.9579 44.6925 50.2777 45.7627 49.7481C44.2391 48.8897 45.7627 48.1775 45.8715 47.3922C45.9259 47.3739 45.9804 47.3556 46.0348 47.3374C45.9804 47.2643 45.9259 47.2095 45.8715 47.1365C45.8353 46.9539 45.7808 46.753 45.7446 46.5703C46.6152 46.4973 47.504 46.6616 48.4834 46.2416C47.4677 45.8216 47.9574 44.0318 46.3975 44.2692C46.724 42.6986 46.9417 41.0732 47.4133 39.5391C48.1751 37.0736 48.7011 34.5351 49.7894 32.1792C50.007 31.7226 50.261 31.4487 50.7688 31.3756C51.2404 31.3208 51.6032 30.8277 51.3493 30.6086C50.134 29.4763 51.313 28.764 51.7664 28.0153C52.9636 26.0429 53.1812 23.7417 53.943 21.6415C54.1244 21.1484 54.3239 20.7649 54.6323 20.3631C55.1583 19.6691 56.9721 19.176 55.0676 17.8976C54.6686 17.6419 55.2308 16.601 55.4304 15.907C56.1015 15.98 55.7931 16.8749 57.0809 17.1123C56.0108 16.4001 57.6976 15.213 55.7206 14.9756C55.2127 14.9208 55.1402 13.5145 55.4666 13.1128C56.7 11.5787 55.4122 9.13145 57.4256 7.9261C57.6976 7.76173 57.1716 7.59737 57.1535 7.37821C57.0991 6.66596 57.4618 5.82587 58.0241 5.88066C59.1668 5.99024 60.237 6.61117 61.5067 6.28244C61.7062 6.22765 62.6494 7.85305 62.6856 8.72967C62.7582 10.2455 63.1028 11.5787 63.8646 12.8571C64.0823 13.2041 64.2093 13.7337 64.1186 14.1355C63.7195 15.8522 64.4451 17.0393 65.7147 18.0437C65.878 18.1716 66.0231 18.6281 65.9324 18.7377C64.699 20.4362 66.4403 20.911 67.1476 21.8059C67.8913 22.7373 68.0546 26.2803 67.4016 27.3578C67.2565 27.3578 67.0932 27.3213 66.9481 27.3213C67.0207 27.4491 67.0932 27.5769 67.1476 27.6865C69.1429 28.4718 69.4875 30.5173 70.2674 32.1609C70.5032 32.6358 70.5576 33.1289 71.0474 33.4211C71.1562 33.4941 71.2287 33.5854 71.3194 33.6767C69.4149 35.5761 72.5891 35.5213 72.4259 36.5623C72.1719 38.1512 73.9132 39.1373 73.5142 40.7262C73.4779 40.8723 74.0764 41.3654 74.1671 41.3106C75.328 40.6714 76.7246 41.0915 77.7766 41.128C80.0983 41.2193 82.3112 40.0505 84.7054 40.8906C86.1202 41.3837 87.8433 41.3472 89.3488 41.0915C92.9402 40.5253 96.5678 40.1053 100.159 39.6487C101.792 39.4478 103.624 38.9182 105.365 39.5209C105.474 39.5574 105.673 39.5939 105.728 39.5391C107.396 37.8589 109.464 38.5895 111.405 38.5164C112.058 38.8086 112.838 38.8451 111.967 39.9774C110.951 41.3106 110.008 40.9271 108.902 40.3792C108.612 39.7765 108.231 39.393 107.378 39.5939C107.614 40.4705 108.213 40.4888 108.847 40.434C108.049 41.6759 109.972 42.1872 109.627 43.3195C109.591 43.4291 113.563 43.7031 113.672 43.4839C113.854 43.1187 114.561 42.4612 113.6 42.3699C112.003 42.1872 112.928 40.7627 113.001 40.6532C113.908 39.4478 112.947 38.7721 112.366 37.9868C114.162 37.6033 115.958 37.2197 117.753 36.8728C118.443 36.7266 119.295 36.6171 119.64 37.3293C120.202 38.4251 121.236 39.2287 120.728 40.9271C119.894 43.7213 117.808 45.0545 115.758 46.6616C112.638 49.1089 109.301 51.2639 106.054 53.5102C102.916 55.6652 101.139 59.0621 98.0552 61.1258C97.4747 61.5094 98.037 61.7833 97.9282 62.0572C97.7287 62.6234 97.8194 63.5548 97.0394 63.6096C95.6065 63.7192 95.28 65.2715 95.2256 65.8011C94.9898 68.157 93.3029 69.5815 92.1421 71.2435C91.1264 72.7045 91.8337 74.0012 91.7793 75.3344C91.7612 75.9553 92.6681 76.5762 91.9244 77.3433C91.87 77.3981 91.9789 77.5807 91.997 77.7085C93.9015 77.1424 92.922 79.06 93.6113 79.6079C94.5182 80.3384 94.5001 81.635 95.0805 82.6212C96.3139 84.7032 97.3296 86.913 98.2728 89.1411C98.7807 90.3282 99.0346 91.6431 99.4699 92.8667C99.9597 94.2182 100.359 95.5696 101.465 96.5741C101.556 96.6654 101.701 96.775 101.683 96.8845C101.52 100.281 104.367 102.473 105.075 105.523C105.329 106.619 105.818 107.861 106.616 108.609C108.321 110.235 107.723 112.244 107.759 114.07C107.777 115.22 106.979 116.535 105.528 116.572C103.225 116.645 100.957 116.663 98.9077 115.129C97.4566 114.033 95.6972 113.358 94.0466 112.554C93.1941 112.134 92.3053 111.842 91.9426 110.819C91.87 110.618 91.7793 110.143 91.3077 110.289C88.3694 111.148 86.483 108.902 84.4515 107.605C82.7465 106.527 81.2592 105.468 79.137 105.632C77.7222 105.742 77.0511 105.012 77.4502 103.514C77.5227 103.423 77.6678 103.277 77.6678 103.277C77.4864 103.076 77.3776 103.185 77.2869 103.386C76.4707 102.911 75.8359 102.236 74.6387 102.363C73.9132 102.436 73.4416 101.176 73.2602 100.318C72.8975 98.6743 72.0994 97.469 70.4669 96.9576C69.3061 96.5923 68.8889 95.5514 68.2359 94.7113C67.4016 93.652 66.3496 93.9077 65.8961 94.8026C64.8441 96.9028 63.2117 98.583 61.7969 100.373C60.0919 102.51 57.7339 104.117 55.1402 105.194C55.1039 104.537 54.8499 104.829 54.596 105.066C54.5597 105.212 54.469 105.468 54.5235 105.505C54.7048 105.651 54.8137 105.468 54.8681 105.304C54.995 105.304 55.0857 105.231 55.1583 105.139C55.4304 106.345 54.3239 106.418 53.7072 106.838C52.1836 107.915 51.4037 109.522 50.3517 110.983C49.2996 112.481 48.3202 114.526 45.2004 113.851C47.2682 115.166 46.1436 115.841 45.5088 116.572C44.7651 116.627 44.9102 115.695 44.3116 115.494C44.0214 115.969 43.7675 116.444 43.4591 116.882C42.788 117.796 43.4047 117.942 44.1121 118.051C42.6248 120.097 40.8472 121.667 38.2172 121.959C37.8 122.014 37.8363 122.361 37.6549 122.562C36.748 123.512 35.8592 122.891 35.0067 122.033C32.9753 119.951 34.5714 118.051 34.8072 116.042C35.2244 112.28 35.8048 108.573 36.5485 104.865C36.748 105.212 36.3127 105.797 36.9475 105.961C37.0382 105.979 37.2559 105.76 37.2922 105.614C37.4554 104.957 37.0019 104.884 36.5303 104.884C37.6005 102.016 37.9088 99.003 38.1991 96.0079C38.2716 95.1861 38.7613 94.7661 39.1241 94.2182C39.5594 93.579 40.7203 93.1772 38.9609 92.6293C38.2716 92.4101 38.6888 91.2596 38.9065 90.5108C39.5594 90.1821 39.505 91.3144 40.2124 91.0587C40.0673 90.4195 40.1399 89.5246 39.7227 89.1593C38.453 87.9905 38.0902 87.8444 38.7251 86.5112C39.3962 85.105 38.8158 83.6257 39.4506 82.1829C39.7227 81.5803 38.9246 79.8818 37.5279 79.6261C35.1518 79.1696 32.9753 78.1286 30.581 77.6537C27.6608 77.0693 24.9219 75.7727 22.3281 74.0925C18.8456 71.8461 15.2361 69.8007 12.4609 66.6778C11.7717 65.9107 11.6991 64.7236 10.103 65.3263C9.46814 65.5637 8.86958 64.121 7.92639 63.9383C8.07149 63.5183 8.4524 63.8835 8.67006 63.7192C9.03282 64.0114 9.5951 64.2123 9.77649 63.7557C9.93973 63.3539 9.26862 63.4452 8.9784 63.2991C8.76075 63.153 8.52495 62.8791 8.36171 62.9156C7.52735 63.08 6.81996 63.7922 5.82236 62.9887C4.31688 61.7468 3.26487 60.2127 2.46679 58.496C2.12216 57.7472 4.5164 55.1721 5.35076 55.5009C6.54788 55.9757 7.56362 55.4644 8.65192 55.4644C9.54069 55.4644 10.7015 54.8799 11.3726 56.0853C11.4271 56.1949 11.8987 56.2131 12.0982 56.0853C15.1817 54.3138 18.501 54.9165 21.7658 55.0443C22.0742 55.0443 22.4914 55.0443 22.6546 55.2269C23.6522 56.3775 24.4684 55.6835 25.2302 54.9713C26.3548 53.9303 27.8784 54.7338 29.1118 54.0581C29.3658 53.912 30.0006 54.0946 30.3996 53.6929C30.7987 53.2911 31.0889 53.2728 31.3791 53.8937C31.8325 54.8617 32.2316 55.2452 32.7032 53.8024C33.0297 52.798 34.0091 53.0171 34.8254 53.2911C34.4263 54.1494 34.8979 54.5512 35.6053 54.8434C37.0382 55.4096 36.5848 53.5833 37.4191 53.3824L37.5279 53.492ZM60.636 94.1086C60.0556 94.273 59.3301 94.2547 59.2575 95.0948C59.2031 95.6975 59.4933 96.0079 60.3095 95.9714C59.584 95.113 60.4365 94.7295 60.6723 94.1269C60.9807 94.0903 61.2709 94.0173 61.3071 93.652C61.3071 93.579 61.1802 93.4329 61.1439 93.4329C60.7993 93.5242 60.7267 93.8164 60.6542 94.1086H60.636ZM92.4686 88.9219C92.5956 88.6845 92.7407 88.4654 92.8676 88.2279C93.8834 88.3923 93.4118 87.607 93.3936 87.26C93.3574 85.7077 91.5073 84.1553 93.3574 82.5665C93.3755 82.5482 93.2848 82.2742 93.2123 82.256C92.3235 81.982 92.7044 80.8315 91.8882 80.3566C92.922 82.0003 91.3259 82.2012 90.7273 82.8039C92.5593 83.1874 91.7249 84.6119 91.6161 85.4885C91.5435 86.1642 90.9087 86.7487 91.9063 87.187C90.9813 88.2827 90.419 89.4516 91.1445 91.0222C91.7431 90.3282 91.471 89.2141 92.4505 88.9219C92.5049 88.995 92.5593 89.0863 92.6318 89.1593C92.6318 89.1046 92.6681 89.0315 92.6318 88.995C92.6137 88.9585 92.523 88.9402 92.4686 88.9219ZM67.6555 41.5298C68.4355 41.3289 69.1247 40.8723 69.3424 40.1418C69.8502 38.5529 67.6918 38.2425 67.7462 36.7997C67.7825 38.4251 67.329 39.9774 67.6737 41.548C67.6555 41.5846 67.6374 41.6394 67.6011 41.6759C67.6011 41.6211 67.6374 41.5846 67.6374 41.5298H67.6555ZM85.0138 44.251C84.9231 44.0318 84.8324 43.7761 84.5422 43.8309C84.4696 43.8309 84.3427 44.0683 84.3608 44.0683C84.524 44.2144 84.7054 44.3423 84.8687 44.4884C84.9594 44.7623 85.3221 45.1093 85.0319 45.3467C84.1794 46.0224 83.6534 45.0545 82.8191 44.5797C83.1455 46.2051 83.9436 47.3739 85.2133 47.2826C86.2835 47.2095 87.2811 47.2278 88.3149 47.3556C88.714 47.4104 89.2581 47.5748 89.3851 46.9173C89.4939 46.2964 89.367 45.6937 88.6414 45.6024C87.3173 45.438 86.229 44.6893 85.0319 44.251H85.0138ZM99.742 44.9084C100.885 45.712 101.556 46.6434 100.848 48.1409C100.54 48.7984 100.667 49.4924 101.393 49.8211C102.227 49.3828 101.81 47.3374 103.605 48.3784C103.859 48.5245 103.533 46.2599 105.129 47.1365C105.691 45.6755 107.36 45.018 107.795 43.557C107.868 43.3378 108.303 41.8037 107.034 41.6576C105.873 41.5298 105.982 42.6986 105.619 43.3195C104.911 44.5614 104.476 41.6028 103.805 43.2282C103.515 43.9222 102.989 43.904 102.372 43.8309C101.447 43.7031 100.522 43.63 99.615 43.5204C99.0165 42.8995 98.291 42.6986 97.384 42.8082C97.6743 43.5022 98.7081 42.8995 98.6537 43.904C96.3864 43.7031 93.9196 44.6345 91.9607 42.4247C91.7068 43.1369 91.344 43.8126 90.8543 44.2144C92.124 44.671 93.4299 44.2875 94.7359 45.3832C95.2981 45.8763 97.0394 46.5521 98.3272 45.8216C98.8351 45.5476 99.2886 45.2006 99.7783 44.8902L99.742 44.9084ZM40.031 111.55C40.1399 110.983 40.2487 110.509 39.5413 110.49C39.2148 110.49 38.8158 110.472 38.7251 110.819C38.6162 111.276 38.453 112.006 38.9971 112.134C40.0492 112.353 39.6501 113.193 39.3418 113.303C37.5279 113.887 36.9657 114.819 38.0721 116.535C38.1265 116.608 37.8907 116.846 37.8182 117.028C37.7093 117.302 37.8544 117.54 38.0721 117.668C38.4349 117.887 38.4167 117.43 38.58 117.302C39.8134 116.298 41.5546 115.531 40.2487 113.358C39.9585 112.865 40.0854 112.116 40.0129 111.586L40.031 111.55ZM12.9688 61.1076C12.5698 60.3223 12.6967 58.8065 11.3908 58.7699C9.84904 58.7334 10.6108 60.3771 10.502 61.0711C10.3388 62.1486 11.9712 61.4911 12.6605 62.2034C12.9688 62.5138 12.9507 61.6372 12.9869 61.0893L12.9688 61.1076ZM85.5398 78.5486C86.1746 79.06 86.7369 79.5166 86.3923 80.3566C86.2653 80.6854 86.483 80.9958 86.882 80.9593C87.0453 80.9593 87.3173 80.7219 87.3173 80.6854C86.483 78.8408 87.9885 78.439 89.0405 77.7268C89.4939 77.4163 89.4214 76.8319 89.1312 76.5214C88.5689 75.937 88.5145 76.7589 88.2061 76.9598C87.4262 77.4711 86.6099 77.9094 85.5217 78.5486H85.5398ZM98.7081 101.249C100.304 100.208 100.939 98.7474 100.486 96.7019C99.2523 98.1082 97.8012 99.2587 98.7081 101.249ZM39.8859 100.318C40.8291 98.9665 41.4095 97.7246 40.7747 96.1358C40.6114 95.7522 41.0468 95.113 40.3575 94.8939C40.2305 94.8574 39.9585 95.0035 39.9041 95.1313C39.7045 95.5879 39.4325 96.3184 39.8134 96.5558C40.9198 97.2498 40.5026 97.7794 39.8859 98.4734C39.4869 98.93 39.5776 99.5509 39.8859 100.318ZM59.5296 17.7698C60.1282 17.3132 61.162 17.295 61.5067 16.3818C61.5792 16.1627 61.3071 15.2312 60.8356 15.5417C60.11 15.9983 58.7315 15.7061 58.7497 17.1671C58.7497 17.7515 59.0399 17.7698 59.5477 17.7698H59.5296ZM88.7503 101.87C87.9703 103.477 87.6801 104.902 89.8567 106.29C88.6958 104.719 90.292 103.167 88.7503 101.87ZM64.2637 20.8562C64.1004 21.4041 63.7014 22.0798 64.5357 22.3172C65.3338 22.5364 65.2431 22.993 65.2069 23.6139C65.098 25.1663 65.2431 25.221 66.6579 24.5818C65.5696 23.5591 65.8598 21.6233 64.2637 20.8562ZM79.6086 60.1944C80.3704 59.5187 79.4816 58.4229 80.5881 57.8203C80.9327 57.6376 81.1322 55.9209 80.5881 54.9713C80.4248 54.6791 80.0258 54.3321 79.663 54.5877C79.3365 54.8069 79.536 55.2817 79.8081 55.373C80.9327 55.8113 80.316 56.8706 80.0802 57.0897C79.0463 58.0394 79.4454 59.0621 79.6086 60.2127V60.1944ZM61.4341 72.047C63.3386 70.0016 63.4475 69.4172 62.0871 68.6136C61.8513 69.7094 61.3797 70.7504 61.4341 72.047ZM79.2821 49.2367C79.4091 49.2367 79.0282 49.3463 79.2821 49.8759C79.6086 50.6064 79.6267 51.483 80.2253 52.0857C80.0076 51.2639 81.1866 51.0082 80.9871 50.1681C80.8239 49.5654 80.5881 49.1089 79.3002 49.2367H79.2821ZM56.8814 47.447C56.7182 47.6296 56.6275 47.7209 56.5549 47.8122C56.1378 48.3053 55.0132 47.9035 55.122 49.0176C55.1583 49.3098 55.4122 49.5654 55.6299 49.4376C56.2647 49.0723 56.954 48.6706 56.9902 47.7939C56.9902 47.7392 56.954 47.6661 56.8996 47.447H56.8814ZM84.9231 95.9714C85.304 95.0035 85.304 94.346 84.3245 94.0538C84.0162 93.9625 83.6716 93.9442 83.599 94.3825C83.472 95.4053 84.3427 95.4966 84.9231 95.9897V95.9714ZM65.624 92.5197C65.4064 91.7527 67.1295 91.6066 66.2407 90.73C65.8417 90.3464 65.2794 90.7665 65.0618 90.9856C64.4088 91.6796 65.2794 92.0266 65.624 92.5197ZM74.7294 54.5695C73.75 55.6835 73.8225 56.9984 74.0946 58.3316C74.3122 57.0715 74.5118 55.8296 74.7294 54.5695ZM80.4067 82.6943C80.3885 83.5709 81.1503 84.0457 81.3861 84.7215C81.5312 85.105 81.5857 85.0502 81.767 84.7763C81.8577 84.6302 81.9484 84.5023 82.0391 84.3745C81.1503 84.1736 81.5494 82.7673 80.4067 82.6943ZM64.6083 75.6083C64.0521 76.6797 63.9976 77.6294 64.4451 78.4573C64.7353 77.5442 64.6627 76.6493 64.6083 75.6083ZM53.7798 63.1895C54.1425 63.8835 52.9817 64.8515 54.0881 65.5089C54.7955 64.6323 54.197 63.9201 53.7798 63.1895ZM102.1 106.984C101.52 107.075 100.83 106.272 100.359 107.093C100.25 107.276 100.286 107.751 100.341 107.769C101.066 107.97 101.538 107.404 102.1 106.984ZM95.6065 111.677C96.459 112.262 97.0394 111.842 97.7831 111.55C96.8218 110.198 96.2957 111.075 95.6065 111.677ZM100.304 114.526C100.939 114.143 101.864 114.125 101.973 113.12C100.776 112.81 100.595 113.778 100.304 114.526ZM79.8807 95.4053C79.8625 95.5514 79.8625 95.6061 79.8444 95.6792C79.7356 96.6654 80.4067 96.9576 81.1322 97.2681C81.3499 97.3594 81.5312 97.3776 81.5857 97.2133C81.9484 96.1358 80.5336 96.848 80.4611 96.0992C80.443 95.8618 80.0983 95.6609 79.8807 95.4053ZM65.1706 34.1881C65.0436 33.348 65.2976 32.3253 64.2999 31.9235C63.5381 33.1471 64.7897 33.4576 65.1706 34.1881ZM63.5926 79.7357C62.994 80.2836 62.595 80.8132 62.6131 81.5437C62.6131 81.5985 63.0303 81.7446 63.0847 81.6716C63.5926 81.1785 63.9009 80.5941 63.5926 79.7174V79.7357ZM91.4528 93.5607C91.4347 93.305 91.3622 93.0859 91.0357 93.1041C90.6548 93.1224 90.4734 93.3598 90.4734 93.6885C90.4734 93.9442 90.6548 94.1451 90.945 94.1634C91.3622 94.1634 91.4347 93.8894 91.4528 93.5607ZM94.2824 110.162C94.5908 109.924 94.8266 109.815 94.9535 109.632C95.1712 109.34 94.9717 109.194 94.6815 109.139C94.4275 109.084 94.1554 109.084 94.1192 109.431C94.101 109.65 94.1917 109.869 94.2643 110.18L94.2824 110.162ZM93.9196 108.518C94.0647 108.39 94.355 108.262 94.4094 108.08C94.4819 107.842 94.228 107.623 93.9741 107.66C93.6839 107.678 93.6113 107.934 93.6113 108.189C93.6113 108.354 93.5932 108.555 93.9196 108.536V108.518ZM103.297 49.9855C103.642 49.9855 103.696 49.8029 103.678 49.6202C103.678 49.5107 103.587 49.4011 103.533 49.2915C103.388 49.4011 103.206 49.4741 103.152 49.602C103.116 49.6933 103.243 49.8759 103.297 49.9855ZM91.5435 95.04C91.5435 95.04 91.5617 94.9487 91.5617 94.9122C91.5617 94.9122 91.5073 94.8939 91.471 94.8756C91.471 94.9122 91.4528 94.9669 91.4528 95.0035C91.4528 95.0035 91.5073 95.0217 91.5435 95.04ZM40.2124 120.864L40.2487 120.736H40.1398L40.2124 120.864ZM46.198 49.1271L46.1436 49.2367H46.2706L46.198 49.1271ZM21.53 73.015C21.53 73.015 21.4575 72.9237 21.4212 72.9237C21.3849 72.9237 21.3487 72.9967 21.3124 73.015C21.3487 73.0515 21.3849 73.1063 21.4212 73.1063C21.4575 73.1063 21.4938 73.0332 21.53 72.9967V73.015ZM22.2556 73.2341C22.2556 73.2341 22.1467 73.1793 22.1286 73.1976C21.9654 73.2889 21.9654 73.3802 22.1467 73.4168C22.183 73.4168 22.2374 73.3802 22.2556 73.3437C22.2556 73.3254 22.2556 73.2706 22.2556 73.2341Z" fill="#F5CC43"/>
<path d="M111.115 53.3276C110.752 53.1084 110.462 52.9441 110.444 52.9258C109.791 53.6928 109.21 54.3868 108.63 55.0808C108.648 55.0808 108.684 55.1173 108.702 55.1356C108.213 55.7748 107.85 56.7793 107.233 56.9802C105.528 57.528 105.111 59.2813 103.95 60.304C103.424 60.7606 103.043 61.3815 102.572 61.9477L102.39 60.304L101.139 60.4501C101.538 60.6145 101.792 60.724 101.864 60.7606C101.828 61.8016 101.792 62.7512 101.755 63.5731C101.084 63.5183 100.613 63.5 100.123 63.4635C100.25 63.8653 100.395 64.2853 100.649 65.0341C99.3793 65.5454 97.9101 66.1481 96.2777 66.8238C96.2777 67.7918 93.5388 70.4034 92.3779 70.1659C92.7407 70.4947 93.1035 70.8234 93.5751 71.2435C93.1397 71.7365 92.5774 72.3758 92.0696 72.9419C93.4481 74.7682 91.8338 76.8684 92.6863 78.8408C92.8132 78.1286 92.9402 77.4346 93.0672 76.7223C93.1397 76.7041 93.2304 76.6675 93.303 76.6493C93.5569 77.672 93.829 78.6764 94.0829 79.6992C93.956 79.7905 93.829 79.8818 93.6839 79.9731C94.2099 80.1557 94.7359 80.3384 95.2075 80.5027C95.7879 81.8359 95.3526 83.5526 97.0939 84.4658C97.6924 84.7762 97.8738 86.0181 98.2003 86.8582C98.4724 87.5705 98.6356 88.301 98.8533 89.0315C98.7082 89.1045 98.5449 89.1959 98.3998 89.2689C98.9077 89.5063 99.3974 89.7437 100.032 90.0359C99.742 90.3282 99.5425 90.4925 99.3611 90.7117C99.1798 90.9308 99.0165 91.1865 98.817 91.4605C100.25 91.1317 101.61 92.4101 102.245 94.6747C102.644 96.0627 102.717 97.4689 103.896 98.656C104.621 99.3865 104.531 100.994 104.857 102.181C104.966 102.564 105.256 102.893 105.383 103.258C106.417 106.454 108.902 109.248 107.922 112.974C107.795 113.485 107.614 114.179 107.251 114.362C105.691 115.147 104.295 116.298 102.445 116.426C101.121 116.517 99.8327 117.01 98.3635 117.375C98.5631 117.047 98.7082 116.791 99.0891 116.152C98.164 116.426 97.4385 116.499 96.8581 116.846C95.3526 117.722 94.1011 117.522 92.9221 116.17C92.777 115.987 92.2691 116.17 91.9426 116.115C91.3622 116.006 90.7999 115.841 90.2195 115.677C89.7298 115.531 89.24 115.348 88.6596 115.147C88.7503 114.91 88.8773 114.618 88.9861 114.307C86.4649 114.179 83.8711 114.38 81.8034 112.371C79.0101 113.285 77.1237 110.892 74.6025 110.216C74.7476 109.815 74.8746 109.431 75.1104 108.81C72.9338 109.504 72.4078 107.66 71.3013 106.6C70.3944 105.724 69.0341 105.359 67.9095 104.701C67.3109 104.354 66.7668 103.879 66.2771 103.386C66.1864 103.295 66.5128 102.802 66.6398 102.491C66.3677 102.272 66.0957 102.053 65.8236 101.834C65.5334 102.29 65.2432 102.729 64.953 103.185C65.0799 103.386 65.1888 103.587 65.3157 103.806C64.5358 102.747 63.7558 101.688 62.9759 100.61C62.5043 102.144 59.2394 101.523 59.9105 104.555C58.7497 105.413 57.0447 105.815 56.8089 107.934C56.7363 108.536 55.4123 108.938 54.7049 109.504C54.4147 109.742 54.2151 110.089 53.8886 110.49C53.6347 110.344 53.2538 110.143 52.7097 109.851C52.6734 110.527 52.6371 111.02 52.6008 111.604C51.9479 111.422 51.3674 111.257 50.8052 111.093L50.6782 111.44C51.0047 111.586 51.3312 111.732 51.9479 112.006C50.8414 113.321 49.7894 114.636 48.7011 115.878C47.6854 117.047 46.7785 118.49 45.5269 119.238C44.0577 120.115 42.8243 121.138 41.6091 122.306C41.1012 122.8 40.158 122.763 39.4688 123.073C37.3829 123.968 34.9886 124.188 33.3381 126.178C32.812 126.817 31.5424 127.256 30.7624 127.073C29.9825 126.89 29.0574 125.904 28.8216 125.082C28.3319 123.366 28.0054 121.558 28.8216 119.768C29.0574 119.257 28.7854 118.508 28.7854 117.869C28.8035 116.572 28.2956 115.184 29.8374 114.216C30.1457 114.033 29.6741 112.444 29.529 111.513C29.5109 111.349 29.2207 111.148 29.257 111.075C30.2908 108.92 29.1119 106.509 29.9281 104.318C30.3271 103.258 30.6717 102.181 31.0708 101.03C31.4335 101.322 31.8326 101.651 32.3405 102.053C32.2316 101.596 32.2498 101.195 32.0684 100.939C30.4178 98.7839 31.3429 96.5923 31.8689 94.3825C32.014 93.7798 31.76 93.0858 31.6693 92.3553C32.1953 92.3553 32.6851 92.3371 33.2836 92.3188C33.5376 91.0769 31.3247 90.1821 32.9572 88.721C33.7371 88.027 33.9366 86.6208 34.4626 85.4154C35.4058 85.452 35.424 84.7945 34.2812 81.9455C33.5194 82.1099 32.7758 82.256 31.9051 82.4203C32.0502 81.7629 32.1409 81.4159 32.1409 81.3976C29.5653 80.6854 27.1167 80.0096 24.3234 79.2426C24.9582 78.9321 25.1759 78.8225 25.7019 78.5851C24.5954 78.4938 23.7974 78.4208 22.8904 78.3477C23.0356 77.9459 23.1444 77.6355 23.1262 77.672C22.1105 77.1789 21.2036 76.6858 20.2604 76.2657C19.8251 76.0648 19.1358 76.1562 18.8819 75.8457C17.576 74.202 15.6896 74.3481 14.0027 73.855C13.3316 73.6542 12.6968 73.2524 12.4247 73.1245C12.461 72.4488 12.4791 72.0105 12.4973 71.6818C11.5722 71.9192 10.8467 72.1201 10.0123 72.3392C10.1211 71.4443 10.1937 70.9878 10.2481 70.5129L8.67009 70.6956C8.10781 69.7459 7.36414 68.4858 6.54792 67.1343C6.7293 67.043 6.52978 67.2074 6.47537 67.1708C5.26011 66.1298 4.04485 65.0706 2.84773 63.9748C2.48496 63.6461 2.28544 63.08 1.90454 62.8425C0.181411 61.8016 -0.181353 59.3178 1.16087 57.2358C1.34226 56.9619 1.68688 56.7975 1.97709 56.5784L1.61433 56.1583C1.17901 56.4688 0.743695 56.761 0.308378 57.0715C0.217687 56.9071 0.145134 56.761 0.0544434 56.5966C0.779972 56.2496 1.46922 55.7565 2.23103 55.5556C3.86347 55.1356 5.53218 54.6973 7.21904 54.6242C8.23478 54.5695 9.28679 55.2452 10.3569 55.4461C10.7741 55.5191 11.2639 55.2269 11.681 54.9164C12.86 55.0443 13.8758 56.0122 15.3994 54.9164C16.4514 54.1677 18.1201 54.3686 19.9158 54.0764C20.2604 53.0902 21.0222 52.7432 22.1286 54.2772C21.9473 53.9302 21.7659 53.5833 21.4757 53.0536C24.6136 51.4282 27.9329 50.6977 31.4154 50.1316C34.7166 49.602 37.8726 48.1409 41.2826 47.0269C41.7179 45.4563 42.2439 43.5022 42.7881 41.4932C42.8606 41.5663 43.0601 41.7854 43.0783 41.7854C43.8582 38.5894 44.6926 35.2656 45.5451 31.7957C46.0711 32.1061 46.3069 32.234 46.3432 32.2705C46.6515 31.4121 46.978 30.5355 47.3408 29.5311C47.3952 29.0562 47.2682 28.1979 47.6128 27.8326C48.8462 26.4812 48.8099 24.7097 49.2271 23.1025C49.4085 22.4085 49.5536 21.7145 50.0071 21.4771C50.3698 21.2945 50.7326 21.1119 50.9865 20.984C50.5149 20.1805 50.1522 19.5778 49.608 18.6647C50.4243 18.7742 50.8052 18.829 51.7665 18.9751C49.5536 17.3132 51.1679 16.1444 51.5307 14.9755C51.6939 14.4825 52.6734 14.2998 53.272 13.9894C53.2357 13.9346 53.0724 13.6241 52.8004 13.1127C52.6734 13.1858 52.3106 13.3867 52.1292 13.4963C52.4195 12.2726 52.619 10.9212 53.0543 9.67932C53.5803 8.20003 54.2514 6.77552 54.9951 5.40581C55.2127 5.02229 55.9564 4.9675 56.6638 4.69355C56.2466 4.56571 55.775 4.51092 55.7569 4.40135C55.6662 3.41515 55.5755 2.39243 55.6118 1.40624C55.6662 0.146099 56.5368 -0.237421 57.5526 0.383516C58.0786 0.712248 58.6953 1.09577 59.2576 1.07751C60.9807 1.00445 61.0351 2.62985 61.5611 3.56126C62.3773 5.00402 62.8489 6.64768 63.3749 8.21829C63.52 8.63833 63.1391 9.25927 63.2842 9.64279C63.6289 10.5011 64.173 11.2682 64.6265 12.09C64.8804 12.5283 65.1343 12.9484 65.352 13.3867C65.7873 14.245 66.2045 15.1217 66.5854 16.0165C66.9482 16.8201 67.4198 17.6237 67.5286 18.482C67.6737 19.6691 67.5286 20.8745 67.5286 22.0798C67.5286 22.5181 67.456 23.1938 67.6737 23.3582C69.5057 24.6731 69.2517 26.7368 69.6689 28.5814C69.7959 29.111 70.4488 29.4945 70.9204 30.0242C70.4851 30.2981 69.9591 30.4625 69.7959 30.8095C69.6689 31.0651 70.0498 31.9235 70.1586 31.9052C71.4827 31.7774 71.6278 32.581 71.4464 33.6037C71.1018 35.4848 72.5529 36.9093 74.4392 36.6901C75.8903 36.5257 77.3776 36.6536 78.8468 36.6536C79.1733 36.6536 79.4998 36.5805 79.8263 36.5623C81.0234 36.5075 82.2205 36.4709 83.3995 36.4344L83.5628 36.9823C83.6897 36.6353 83.8167 36.2701 83.9981 35.8135C84.9231 35.8865 85.9389 35.9596 86.9546 36.0509C86.9546 36.2153 86.9546 36.3614 86.9546 36.5257C87.5894 36.0144 88.2424 35.503 88.6777 35.156C90.3465 35.2291 91.7975 35.2839 93.3211 35.3386C94.482 35.2108 95.8061 35.0647 97.112 34.9186C99.4518 34.6447 101.774 34.2611 104.113 34.115C105.365 34.0237 106.453 33.7133 107.596 33.1471C108.412 32.7453 109.5 32.7453 110.462 32.7636C111.695 32.7818 113.055 32.6905 114.126 33.2019C115.686 33.9507 117.191 35.0282 118.461 36.2518C119.168 36.9275 119.458 38.1694 119.767 39.2104C120.057 40.1966 119.984 41.0184 119.114 41.9681C118.225 42.9177 117.953 44.4883 117.372 45.8215C117.173 45.6389 116.955 45.438 116.611 45.1093C116.284 45.9494 116.03 46.6616 115.74 47.3556C115.54 47.8122 115.395 48.5792 115.087 48.6705C113.074 49.2002 113.146 51.7935 111.423 52.5788C111.242 52.6701 111.205 53.0902 111.06 53.4189L111.115 53.3276ZM109.899 36.5988C109.627 36.9275 109.373 37.5119 109.011 37.6032C106.87 38.1877 104.694 38.6808 102.517 39.1191C101.665 39.2834 100.576 38.9364 99.9234 39.3565C98.7444 40.1418 97.7831 39.9592 96.6404 39.4295C95.9874 39.1373 95.1894 38.973 94.5001 39.046C93.0128 39.2286 91.4892 39.4478 90.0744 39.9592C88.587 40.4888 86.7188 39.4113 85.5035 41.0915C85.3947 41.2376 85.0682 41.2376 84.8506 41.2376C83.1819 41.2741 81.5131 41.2923 79.8444 41.3471C77.7404 41.4019 75.6182 41.7124 73.5686 41.4567C72.2627 41.3106 70.6121 40.6714 69.9047 39.6487C68.5081 37.658 67.583 35.3021 66.6398 33.0193C66.005 31.4852 65.6785 29.8233 65.2069 28.2161C64.9167 27.2482 64.5902 26.2803 64.3725 25.2941C63.7558 22.5364 63.2298 19.7604 61.7969 17.2767C61.4341 16.674 61.5248 15.7791 61.3979 15.0303C62.1415 14.939 62.4499 14.4825 61.9783 13.8798C61.8332 13.6971 61.1077 13.9894 60.7086 14.0624C60.0194 12.4553 59.3301 10.8664 58.532 9.02185C57.5344 11.3595 56.7001 13.2954 56.0652 14.7747C56.1015 15.5052 56.2466 15.9435 56.1196 16.1992C54.9407 18.4455 53.9975 20.7101 53.9068 23.3765C53.8705 24.6914 53.0362 25.9515 52.619 27.2482C52.4013 27.9057 52.3469 28.6362 52.1111 29.2754C51.3493 31.2478 50.4424 33.1471 49.7713 35.156C49.3178 36.5257 49.5899 38.352 48.8099 39.3747C47.3952 41.201 47.5947 43.3013 47.0687 45.2737C46.5971 47.0634 46.0529 48.8532 45.4544 50.5881C45.2911 51.063 44.8195 51.6291 44.3842 51.7387C41.7905 52.3962 39.1604 53.2545 36.476 52.1405C36.349 52.5423 36.3309 53.1997 36.1132 53.2728C33.9366 53.985 31.7238 54.6242 29.5109 55.2087C28.6221 55.4461 27.1892 55.0991 26.8627 55.6104C25.9558 57.0715 24.9945 56.9619 23.6341 56.6697C22.963 56.5236 21.9291 56.8523 21.4757 57.3637C19.6437 59.4456 17.0137 59.2265 14.7464 59.7926C13.7851 60.0301 12.5879 59.8292 11.4815 60.1944C10.7923 60.4136 9.92163 60.3223 9.21424 60.1214C7.92643 59.7561 6.71117 59.19 5.13314 58.569C6.7293 60.724 8.12595 62.6234 9.50445 64.4862C9.50445 64.4497 9.66769 64.2123 9.97604 63.7374C10.3207 64.5592 10.4658 65.3628 10.9374 65.8924C11.8987 67.0065 12.9144 68.5588 14.1116 68.8145C15.5082 69.125 16.8867 69.0336 17.9569 70.2573C18.2108 70.5495 18.7187 70.8782 19.027 70.8051C20.9497 70.3851 22.1649 71.974 23.6341 72.6862C25.4479 73.5628 27.0441 74.896 29.1663 74.9873C29.6379 75.0056 30.1095 75.2795 30.5448 75.4987C31.3066 75.8822 32.0502 76.3388 32.812 76.7223C33.465 77.0328 34.1543 77.2702 34.5352 77.4163C36.1313 76.3753 37.274 77.4163 38.1447 77.7085C38.3623 78.7495 38.5256 79.48 38.6707 80.2288C38.7795 80.2105 38.8702 80.1923 38.979 80.1557C39.0153 79.754 39.0697 79.3704 39.1423 78.7678C40.5026 80.7949 39.7408 82.603 39.1967 84.3014C38.58 86.2007 37.4373 87.9357 36.9657 89.8716C36.3127 92.6475 36.349 95.6244 35.5509 98.3456C34.6259 101.542 34.6621 104.774 34.3175 108.007C34.2268 108.828 34.0636 109.669 33.7552 110.417C33.6283 110.728 32.9934 110.801 32.5944 110.965C33.0297 111.184 33.465 111.404 33.8822 111.586C33.7915 114.253 33.7008 116.919 33.6101 119.494L38.3442 118.964C38.7251 118.636 39.2692 118.179 39.8315 117.722C40.7022 117.028 41.7179 116.462 42.4616 115.64C44.6382 113.212 46.4883 110.49 49.1364 108.536C49.862 107.988 50.3517 107.093 51.0228 106.454C52.5646 104.993 54.324 103.751 55.5029 101.925C56.6457 100.172 57.6977 98.3273 58.786 96.5193C58.8585 96.4097 59.0218 96.3549 59.2031 96.2453C59.2031 96.5741 59.2031 96.7932 59.185 97.0854C59.9468 96.7019 60.6542 96.3366 61.5248 95.9166C60.8356 95.8253 60.3459 95.7522 59.8561 95.6792C59.8561 95.4965 59.8561 95.2957 59.8561 95.113C60.6542 95.0217 61.5611 94.6382 62.2141 94.9121C63.4475 95.4418 64.5539 96.3366 65.6785 97.1402C67.2746 98.2725 68.9071 99.4048 70.4307 100.665C71.4464 101.505 73.2965 101.322 73.5142 103.569C73.75 103.021 73.877 102.71 74.0221 102.382C74.4937 102.875 74.929 103.203 75.2192 103.642C76.4344 105.413 77.6134 107.057 79.9714 107.313C81.5494 107.477 83.073 108.08 84.6148 108.554C87.4443 109.413 90.2376 110.326 93.0672 111.166C94.3187 111.55 95.6065 111.824 96.8943 112.097C99.1253 112.554 100.994 110.947 103.134 111.02C102.953 109.395 102.789 107.897 102.644 106.582C102.209 106.034 101.683 105.541 101.356 104.938C99.7058 101.87 99.1979 98.2542 97.0213 95.4418C96.7492 95.0948 96.8399 94.4373 96.7311 93.9442C96.6404 93.5607 96.5497 93.1589 96.3865 92.8119C95.4977 90.9674 94.5908 89.1228 93.6476 87.2965C93.0309 86.1277 92.3417 84.9771 91.6161 83.8814C90.9994 82.9317 90.1651 82.1281 89.6753 81.1419C89.1856 80.174 89.0042 79.06 88.7321 78.1651C88.9135 77.5807 89.0768 77.051 89.24 76.5032C89.0949 76.4301 88.9498 76.3753 88.8228 76.3023C88.714 76.6675 88.6233 77.051 88.5145 77.4163C88.0066 75.4074 87.2811 73.4898 87.7527 71.9922C88.4964 69.6728 89.8749 67.4813 91.3622 65.5454C92.6137 63.9018 94.0466 62.3677 96.2958 61.765C97.5292 61.4363 98.8714 60.1214 99.4337 58.8795C100.05 57.5098 100.522 56.2679 101.9 55.5739C102.408 55.3182 102.934 54.9712 103.297 54.5147C104.24 53.3641 105.057 52.0857 106.036 50.9351C106.87 49.9489 107.904 49.1271 108.72 48.1227C109.519 47.1547 110.045 45.9128 110.897 45.018C112.203 43.63 113.708 42.4246 115.486 40.7992C114.634 40.9819 114.289 41.0549 113.817 41.1462C114.18 40.3427 114.452 39.7035 114.634 39.2834C113.563 37.1101 110.716 39.0095 109.936 36.6353L109.899 36.5988Z" fill="black"/>
</g>
<defs>
<clipPath id="clip0_84_3">
<rect width="121" height="127" fill="white"/>
</clipPath>
</defs>
</svg>
