<svg width="55" height="55" viewBox="0 0 55 55" fill="none" xmlns="http://www.w3.org/2000/svg">
<path d="M13.524 37.8926C20.9931 37.8926 27.048 31.8323 27.048 24.3565C27.048 16.8807 20.9931 10.8203 13.524 10.8203C6.05491 10.8203 0 16.8807 0 24.3565C0 31.8323 6.05491 37.8926 13.524 37.8926Z" fill="#EFEFEF"/>
<path d="M31.8769 54.9999C36.9979 54.9999 41.1493 50.8448 41.1493 45.7192C41.1493 40.5936 36.9979 36.4385 31.8769 36.4385C26.7559 36.4385 22.6045 40.5936 22.6045 45.7192C22.6045 50.8448 26.7559 54.9999 31.8769 54.9999Z" fill="#EFEFEF"/>
<path d="M36.3416 19.5449C41.2856 19.5449 45.2935 15.5334 45.2935 10.585C45.2935 5.63651 41.2856 1.625 36.3416 1.625C31.3976 1.625 27.3896 5.63651 27.3896 10.585C27.3896 15.5334 31.3976 19.5449 36.3416 19.5449Z" fill="#EFEFEF"/>
<path d="M35.6578 33.4875C38.6903 33.4875 41.1486 31.027 41.1486 27.9918C41.1486 24.9566 38.6903 22.4961 35.6578 22.4961C32.6253 22.4961 30.167 24.9566 30.167 27.9918C30.167 31.027 32.6253 33.4875 35.6578 33.4875Z" fill="#EFEFEF"/>
<path d="M14.6987 51.0651C17.6485 51.0651 20.0399 48.6716 20.0399 45.7191C20.0399 42.7665 17.6485 40.373 14.6987 40.373C11.7488 40.373 9.35742 42.7665 9.35742 45.7191C9.35742 48.6716 11.7488 51.0651 14.6987 51.0651Z" fill="#EFEFEF"/>
<path d="M21.4717 8.72473C23.8788 8.72473 25.8302 6.77163 25.8302 4.36236C25.8302 1.9531 23.8788 0 21.4717 0C19.0646 0 17.1133 1.9531 17.1133 4.36236C17.1133 6.77163 19.0646 8.72473 21.4717 8.72473Z" fill="#EFEFEF"/>
<path d="M50.9559 22.4966C52.9972 22.4966 54.652 20.8403 54.652 18.7971C54.652 16.754 52.9972 15.0977 50.9559 15.0977C48.9146 15.0977 47.2598 16.754 47.2598 18.7971C47.2598 20.8403 48.9146 22.4966 50.9559 22.4966Z" fill="#EFEFEF"/>
<path d="M46.7252 46.5746C48.8845 46.5746 50.635 44.8226 50.635 42.6613C50.635 40.5001 48.8845 38.748 46.7252 38.748C44.5659 38.748 42.8154 40.5001 42.8154 42.6613C42.8154 44.8226 44.5659 46.5746 46.7252 46.5746Z" fill="#EFEFEF"/>
<path d="M52.4293 34.2576C53.8216 34.2576 54.9503 33.1279 54.9503 31.7343C54.9503 30.3407 53.8216 29.2109 52.4293 29.2109C51.0369 29.2109 49.9082 30.3407 49.9082 31.7343C49.9082 33.1279 51.0369 34.2576 52.4293 34.2576Z" fill="#EFEFEF"/>
<path d="M43.5636 36.4171C44.7082 36.4171 45.636 35.4884 45.636 34.3428C45.636 33.1972 44.7082 32.2686 43.5636 32.2686C42.4191 32.2686 41.4912 33.1972 41.4912 34.3428C41.4912 35.4884 42.4191 36.4171 43.5636 36.4171Z" fill="#EFEFEF"/>
<path d="M46.5333 29.9163C48.0672 29.9163 49.3107 28.6717 49.3107 27.1364C49.3107 25.6011 48.0672 24.3564 46.5333 24.3564C44.9994 24.3564 43.7559 25.6011 43.7559 27.1364C43.7559 28.6717 44.9994 29.9163 46.5333 29.9163Z" fill="#EFEFEF"/>
<path d="M6.17446 42.5335C7.36622 42.5335 8.33232 41.5665 8.33232 40.3737C8.33232 39.1808 7.36622 38.2139 6.17446 38.2139C4.98271 38.2139 4.0166 39.1808 4.0166 40.3737C4.0166 41.5665 4.98271 42.5335 6.17446 42.5335Z" fill="#EFEFEF"/>
<path d="M11.4513 9.13094C12.5959 9.13094 13.5237 8.20227 13.5237 7.05668C13.5237 5.9111 12.5959 4.98242 11.4513 4.98242C10.3068 4.98242 9.37891 5.9111 9.37891 7.05668C9.37891 8.20227 10.3068 9.13094 11.4513 9.13094Z" fill="#EFEFEF"/>
</svg>
