<svg width="31" height="32" viewBox="0 0 31 32" fill="none" xmlns="http://www.w3.org/2000/svg">
<g clip-path="url(#clip0_82_565)">
<path d="M5.88539 17.6899C4.27707 16.791 5.01937 15.227 4.82496 13.8787C6.18585 14.4539 7.05187 15.1551 5.83237 16.6652C5.79702 16.7011 5.99144 16.9528 6.07981 17.0966C6.02678 17.2944 5.95609 17.4921 5.90307 17.6899H5.88539Z" fill="#FDFDFD"/>
<path d="M24.1072 27.0022C22.923 27.8292 21.5091 28.8899 19.9892 29.7708C16.2246 31.9281 12.3187 32.4674 8.09463 31.6584C6.32724 31.3169 4.43614 31.5146 2.81014 30.4719C0.2651 28.8539 -1.00742 25.564 0.98973 22.7056C1.96179 21.3213 3.76453 19.5955 2.31527 17.3303C0.689274 14.8135 1.8204 12.3326 2.27992 9.77977C2.59805 7.94606 3.64081 6.47191 4.27707 4.83595C4.75427 3.5955 6.27422 2.69662 7.42302 1.77977C10.4099 -0.575285 13.3968 -0.46742 16.2423 1.51011C18.8934 3.36179 20.9435 5.93258 22.3221 8.9528C22.7816 9.97752 23.1881 10.8045 24.6727 10.4629C28.0838 9.65393 29.7451 10.9303 30.6642 14.382C31.8837 18.9843 29.9396 22.3461 26.7052 25.1685C25.9983 25.7798 25.6625 26.9483 24.1248 27.0022H24.1072ZM6.06214 17.0966C5.97377 16.9528 5.77935 16.7191 5.8147 16.6652C7.05187 15.1551 6.16818 14.4539 4.80729 13.8786C5.01938 15.227 4.27707 16.791 5.86772 17.6899C6.27422 19.7933 5.76168 21.591 4.2594 23.1191C3.72918 23.6584 2.98688 24.036 2.81014 24.8989C2.56271 26.2292 4.04731 27.0202 3.81755 28.3685C3.7822 28.5303 4.13568 28.3865 4.27707 28.2067C4.55986 27.8652 4.93101 28.027 5.19612 28.2067C6.9635 29.4831 9.01367 28.7281 10.9048 28.8899C13.114 29.0876 15.3056 28.5483 17.4088 27.6674C18.7166 27.1101 20.2012 26.4809 21.1733 25.7438C23.0467 24.3236 25.0262 22.9034 26.5462 20.9618C27.5889 19.6315 28.4373 15.8202 27.4122 14.6157C26.935 14.0584 26.4225 12.8719 25.1853 13.3213C21.6152 14.6337 20.5901 13.7888 19.7947 10.5888C19.6887 10.1933 19.5296 9.31236 18.805 9.20449C17.9036 9.06067 18.752 9.95955 18.2925 10.1393C18.0981 10.2112 17.939 10.409 17.7269 10.4989C17.1437 10.7326 16.4367 10.8404 16.6311 11.7393C16.7902 12.5124 17.3027 13.0337 18.0804 12.8539C18.8227 12.6921 18.6813 13.4112 19.0348 13.609C19.2999 13.7528 19.1762 14.0944 18.9817 14.1663C18.1157 14.4899 17.126 14.7416 16.419 14.0225C15.7121 13.3213 14.4572 12.6202 14.9874 11.4337C15.606 10.0494 16.26 8.32359 18.4515 9.09662C16.0656 2.51685 11.7001 1.70786 6.71607 6.75955C7.52907 7.74831 8.43044 7.06516 9.20809 6.77752C10.4806 6.31011 11.6824 5.62696 12.9019 5.0337C13.4498 4.76404 13.9447 4.87191 14.2628 5.33932C14.7047 5.98651 13.9447 6.0764 13.6796 6.2382C11.488 7.42472 9.45552 9.13258 6.66305 8.28764C6.45096 8.21573 5.56727 8.89887 5.72633 9.02471C6.45096 9.65393 5.72633 10.1933 5.58494 10.4809C4.93101 11.8472 5.14309 12.6742 6.57468 13.2494C7.22861 13.5191 7.61744 14.1663 8.04161 14.7955C8.44811 15.3888 8.55415 15.8562 8.11231 16.2876C7.56442 16.791 7.17559 17.9236 6.07981 17.1326L6.06214 17.0966Z" fill="#25201D"/>
<path d="M6.06212 17.0966C7.1579 17.8876 7.54673 16.7551 8.09462 16.2517C8.55414 15.8382 8.43042 15.3708 8.02392 14.7596C7.59975 14.1303 7.21092 13.4832 6.55699 13.2135C5.1254 12.6382 4.91332 11.8112 5.56725 10.4449C5.70864 10.1573 6.45094 9.61798 5.70864 8.98877C5.54958 8.84495 6.43327 8.17978 6.64536 8.25169C9.43783 9.09663 11.488 7.38877 13.6619 6.20225C13.9447 6.04045 14.687 5.95057 14.2451 5.30337C13.927 4.83596 13.4145 4.74607 12.8842 4.99776C11.6647 5.59101 10.4629 6.27416 9.1904 6.74158C8.41275 7.02922 7.51138 7.69439 6.69838 6.7236C11.6824 1.67191 16.0479 2.4809 18.4338 9.06068C16.2423 8.28764 15.5707 10.0135 14.9698 11.3978C14.4395 12.6023 15.7121 13.2854 16.4013 13.9865C17.126 14.7056 18.098 14.4539 18.9641 14.1303C19.1585 14.0584 19.2822 13.7348 19.0171 13.573C18.6636 13.3753 18.805 12.6562 18.0627 12.818C17.285 12.9978 16.7725 12.4764 16.6134 11.7034C16.4367 10.8045 17.126 10.6966 17.7092 10.4629C17.9036 10.391 18.0627 10.1933 18.2748 10.1034C18.7343 9.9236 17.886 9.02472 18.7873 9.16854C19.5119 9.29439 19.6887 10.1573 19.7771 10.5528C20.5724 13.7528 21.5975 14.5978 25.1676 13.2854C26.4048 12.836 26.9173 14.0225 27.3945 14.5798C28.4196 15.7843 27.5712 19.5775 26.5285 20.9258C25.0085 22.8674 23.0114 24.2876 21.1556 25.7079C20.1836 26.445 18.6989 27.0742 17.3911 27.6315C15.2879 28.5303 13.0963 29.0697 10.8871 28.8539C8.99598 28.6742 6.96349 29.4472 5.17843 28.1708C4.93099 27.991 4.54216 27.8292 4.25938 28.1708C4.10032 28.3506 3.76451 28.4944 3.79986 28.3326C4.02962 26.9843 2.54502 26.1933 2.79245 24.8629C2.95151 24 3.71149 23.6225 4.24171 23.0832C5.76166 21.5551 6.25653 19.7573 5.85003 17.6539C5.90305 17.4562 5.97375 17.2584 6.02677 17.0607L6.06212 17.0966ZM16.6841 20.9978C18.7166 20.4225 19.7417 19.2539 20.8021 18.1933C21.244 17.7438 21.3854 16.9708 21.5444 16.3056C21.6682 15.7663 21.0673 15.6405 20.7668 15.6045C19.6887 15.4787 20.2189 16.5034 19.9184 16.9169C18.1864 19.3978 11.7531 21.5371 8.7132 20.6023C8.16531 20.4405 7.81183 20.3146 7.35231 20.6742C7.01651 20.9438 7.28162 21.1775 7.35231 21.4112C7.54673 21.9146 7.77649 22.1663 8.44809 22.1843C11.435 22.2742 14.3688 22.1483 16.6665 20.9618L16.6841 20.9978ZM14.687 14.1663C14.3865 12.7281 13.2554 12.6202 12.5131 12.4225C11.4173 12.1169 10.1978 12.4225 9.42016 13.4472C8.74855 14.3281 9.49085 15.0472 9.77364 15.8023C9.95038 16.2876 10.5513 16.0899 10.8694 16.5034C11.6647 17.5461 12.8666 17.9236 13.9447 17.2045C15.0758 16.4315 14.5809 15.0472 14.687 14.1663Z" fill="#EAEAEA"/>
<path d="M16.6841 20.9977C14.4042 22.1843 11.4527 22.2921 8.46577 22.2202C7.79416 22.2022 7.5644 21.9506 7.36999 21.4472C7.28162 21.2135 7.01651 20.9798 7.36999 20.7101C7.81183 20.3506 8.16531 20.4584 8.73088 20.6382C11.7885 21.573 18.2041 19.4337 19.9361 16.9528C20.2366 16.5213 19.7064 15.5146 20.7845 15.6404C21.0849 15.6764 21.6858 15.8022 21.5621 16.3416C21.4031 17.0067 21.2617 17.7798 20.8198 18.2292C19.7594 19.2899 18.7343 20.4764 16.7018 21.0337L16.6841 20.9977Z" fill="#25201D"/>
<path d="M14.687 14.1663C14.581 15.0472 15.0758 16.4314 13.9447 17.2045C12.8666 17.9236 11.6648 17.546 10.8694 16.5034C10.5513 16.0899 9.96807 16.3056 9.77366 15.8022C9.49088 15.0472 8.74857 14.3281 9.42018 13.4472C10.2155 12.4225 11.435 12.1168 12.5131 12.4225C13.2377 12.6202 14.3865 12.7281 14.687 14.1663ZM13.2377 14.3101C12.7605 14.0584 12.248 13.609 11.5057 14.0045C11.2052 14.1663 10.569 14.2202 11.0462 14.7955C11.5234 15.3708 12.0713 16 12.8843 15.7303C13.3261 15.5865 13.3791 14.9932 13.2201 14.3101H13.2377Z" fill="#25201D"/>
<path d="M13.2377 14.3101C13.3968 14.9933 13.3438 15.5865 12.9019 15.7303C12.0889 16 11.5411 15.3708 11.0639 14.7955C10.5867 14.2202 11.2229 14.1663 11.5234 14.0045C12.2657 13.609 12.7782 14.0584 13.2554 14.3101H13.2377Z" fill="#FDFDFD"/>
<path d="M19.9891 11.2539C19.9715 12.5663 18.5045 12.6022 18.3278 12.818C17.6915 13.573 16.9316 12.6562 16.7018 11.955C16.3837 11.0202 17.0199 10.7146 17.5325 10.5708C17.8329 10.4809 18.2748 9.3483 18.4338 9.24043C19.2822 8.66515 20.0598 10.6067 19.9891 11.2539Z" fill="#FDFDFD"/>
</g>
<defs>
<clipPath id="clip0_82_565">
<rect width="31" height="32" fill="white"/>
</clipPath>
</defs>
</svg>
